<?xml version="1.0" standalone="no"?>
<!DOCTYPE svg PUBLIC "-//W3C//DTD SVG 1.1//EN" "http://www.w3.org/Graphics/SVG/1.1/DTD/svg11.dtd" >
<svg xmlns="http://www.w3.org/2000/svg">
<metadata></metadata>
<defs>
<font id="trirongmedium" horiz-adv-x="0" >
<font-face units-per-em="2048" ascent="1536" descent="-512" />
<missing-glyph horiz-adv-x="536" />
<glyph unicode="fi" horiz-adv-x="1499" d="M51 938v82h193v72q0 186 85 282t244 96q127 0 230 -34l-15 -76q-70 25 -133 24q-84 0 -134 -60t-50 -181v-123h668l145 18v-970q96 -18 164 -41v-27h-553v27q53 18 162 41v870h-586v-870q90 -14 164 -41v-27h-555v29q121 37 164 39v870h-193zM1028 1247q0 55 36 91t93 36 t93 -35.5t36 -91.5q0 -55 -36 -90t-93 -35t-93 35t-36 90z" />
<glyph unicode="fl" horiz-adv-x="1476" d="M51 938v82h193v123q0 166 99 245.5t302 79.5q45 0 149.5 -17t172.5 -44l282 51v-1390q90 -14 164 -41v-27h-553v27q59 20 162 41v1243q-63 33 -146 53t-165 20q-240 0 -240 -241v-123h307v-82h-307v-870q90 -14 164 -41v-27h-555v29q121 37 164 39v870h-193z" />
<glyph unicode="&#xe24;&#xe45;" horiz-adv-x="1832" d="M82 846v24q63 125 197.5 205t314.5 80q137 0 247.5 -43t172.5 -127q45 82 127 126t194 44q181 0 278 -87t97 -261v-1174h-225v1180q0 125 -46 192.5t-153 67.5q-76 0 -137.5 -52t-85.5 -138q14 -45 14 -105v-1145h-227v1184q0 106 -72.5 177t-206.5 71q-100 0 -180 -44 t-131 -128q63 -20 132 -62.5t114 -87.5v-18q-90 -53 -124 -115.5t-34 -169.5v-106q23 8 49 8q66 0 114 -46t48 -130q0 -90 -55 -138t-154 -48q-119 0 -174 60t-55 167v235q0 88 43 165t141 128q-84 66 -223 111zM262 166q0 -55 27.5 -87t70.5 -32t72 32t29 87t-29 85t-72 30 t-70.5 -30t-27.5 -85z" />
<glyph unicode="&#xe26;&#xe45;" horiz-adv-x="1908" d="M23 166q0 86 55 132t139 46q18 0 29 -2v100q0 100 29.5 172t123.5 121q-76 61 -233 111v24q63 125 195.5 205t312.5 80q137 0 245.5 -42t170.5 -124q47 80 127.5 123t191.5 43q180 0 278.5 -87t98.5 -261v-1174h-227v1180q0 125 -46.5 192.5t-152.5 67.5 q-74 0 -134.5 -51t-84.5 -135q14 -45 14 -109v-1145h-227v1184q0 106 -71 177t-204 71q-100 0 -179 -44t-130 -128q66 -20 138.5 -62.5t117.5 -87.5v-18q-80 -51 -103.5 -110.5t-23.5 -174.5v-233q0 -227 -242 -227q-100 0 -154 49t-54 137zM123 166q0 -55 28.5 -87 t71.5 -32t71 32t28 87t-28 85t-71 30t-71.5 -30t-28.5 -85z" />
<glyph unicode=" "  horiz-adv-x="536" />
<glyph unicode="&#x09;" horiz-adv-x="536" />
<glyph unicode="&#xa0;" horiz-adv-x="536" />
<glyph unicode="!" horiz-adv-x="641" d="M190 1288q0 166 129 166t130 -166l-3 -33l-75 -968h-103l-75 968zM199 100q0 57 32.5 90t90.5 33q55 0 87.5 -32.5t32.5 -90.5q0 -55 -32.5 -87.5t-87.5 -32.5q-58 0 -90.5 32.5t-32.5 87.5z" />
<glyph unicode="&#x22;" horiz-adv-x="874" d="M135 1321v10q0 72 23.5 109t87.5 37q63 0 87.5 -37t24.5 -107v-12l-73 -442h-80zM518 1321v10q0 72 22.5 109t88.5 37q63 0 86.5 -37t23.5 -107v-12l-73 -442h-78z" />
<glyph unicode="#" horiz-adv-x="1757" d="M68 383v84h360l119 491h-348v84h366l90 373h158l-90 -373h473l90 373h158l-90 -373h334v-84h-353l-118 -491h339v-84h-360l-96 -403h-158l96 403h-473l-96 -403h-158l97 403h-340zM586 467h473l119 491h-473z" />
<glyph unicode="$" horiz-adv-x="1155" d="M92 170l25 287h55q23 -63 39 -260q53 -59 135 -95t182 -36q141 0 240.5 74.5t99.5 211.5q0 88 -47 148.5t-116.5 98.5t-186.5 87q-133 55 -213 100t-135 123t-55 195q0 162 122.5 251t333.5 99v154h82v-154q135 -4 232.5 -40t169.5 -107l-23 -254h-57q-31 86 -41 231 q-47 41 -115.5 62.5t-150.5 21.5q-152 0 -234 -58.5t-82 -170.5q0 -63 40 -111.5t101.5 -81.5t165.5 -78q141 -59 230.5 -112.5t153 -144.5t63.5 -226q0 -172 -126 -279.5t-327 -123.5v-179h-82v177q-158 2 -284.5 55t-194.5 135z" />
<glyph unicode="%" horiz-adv-x="1894" d="M63 1049q0 184 99.5 286.5t296.5 102.5q199 0 298 -102.5t99 -286.5t-99.5 -288t-297.5 -104q-199 0 -297.5 103.5t-98.5 288.5zM258 1049q0 -121 49 -215.5t152 -94.5q104 0 152 94.5t48 215.5q0 119 -48 213t-152 94q-102 0 -151.5 -94.5t-49.5 -212.5zM297 -6 l1221 1489l71 -60l-1227 -1484zM1038 369q0 184 99.5 286.5t296.5 102.5q199 0 298 -102.5t99 -286.5t-99.5 -286.5t-297.5 -102.5q-197 0 -296.5 102t-99.5 287zM1233 369q0 -119 49 -213.5t152 -94.5q104 0 152 94.5t48 213.5t-48 214t-152 95q-102 0 -151.5 -95.5 t-49.5 -213.5z" />
<glyph unicode="&#x26;" horiz-adv-x="1533" d="M86 352q0 150 95 248t268 191q-186 240 -187 372q0 141 100.5 216t266.5 75t254 -66.5t88 -195.5q0 -78 -41 -141.5t-100.5 -110.5t-161.5 -113q63 -74 171.5 -187.5t231.5 -238.5l90 -90q127 158 152 361h94q-14 -117 -62.5 -224.5t-125.5 -195.5q115 -115 245 -252 h-266l-123 125q-207 -145 -477 -145q-229 0 -370.5 99t-141.5 273zM313 358q0 -141 92.5 -216.5t221.5 -75.5q223 0 391 114q-180 180 -296 301t-212 236q-94 -74 -145.5 -159t-51.5 -200zM477 1186q0 -66 35 -137.5t109 -163.5q119 68 183 138.5t64 164.5q0 88 -52 136 t-142 48q-88 0 -142.5 -47t-54.5 -139z" />
<glyph unicode="'" horiz-adv-x="493" d="M135 1321v10q0 72 23.5 109t87.5 37q63 0 87.5 -37t24.5 -107v-12l-73 -442h-80z" />
<glyph unicode="(" horiz-adv-x="534" d="M76 610q0 504 307 867h96q-98 -135 -146 -262.5t-63.5 -263.5t-15.5 -341q0 -289 52 -493.5t173 -366.5h-96q-307 358 -307 860z" />
<glyph unicode=")" horiz-adv-x="534" d="M55 -250q99 135 147 260t63.5 258t15.5 338q0 291 -52.5 499t-173.5 372h97q307 -362 307 -867q0 -502 -307 -860h-97z" />
<glyph unicode="*" horiz-adv-x="1095" d="M145 1176q4 27 28 44t52 17q16 0 37 -10l250 -142l-45 275l-2 16q0 33 21.5 55.5t62.5 22.5t62.5 -22.5t21.5 -55.5l-2 -16l-45 -275l250 142q20 10 36 10q35 0 58.5 -22.5t23.5 -55.5q0 -29 -14 -50.5t-39 -27.5l-280 -69l215 -181q12 -12 21 -30.5t9 -36.5 q0 -27 -18 -49q-25 -29 -68 -29q-20 0 -39.5 9.5t-29.5 25.5l-162 252l-162 -252q-10 -16 -29.5 -25.5t-40.5 -9.5q-43 0 -67 29q-19 22 -19 49q0 18 9.5 36.5t21.5 30.5l215 181l-280 69q-29 8 -42.5 35t-9.5 60z" />
<glyph unicode="+" horiz-adv-x="1218" d="M104 612v115h392v403h227v-403h391v-115h-391v-401h-227v401h-392z" />
<glyph unicode="," horiz-adv-x="520" d="M121 109q0 57 34.5 96t96.5 39q74 0 110.5 -47t36.5 -113q0 -94 -51 -199.5t-125 -173.5l-78 60q43 47 75 106.5t38 120.5q-8 -2 -22 -2q-49 0 -82 32.5t-33 80.5z" />
<glyph unicode="-" horiz-adv-x="835" d="M92 508v127h651v-127h-651z" />
<glyph unicode="." horiz-adv-x="520" d="M125 115q0 57 37 95t98 38q59 0 96 -38t37 -95q0 -59 -35.5 -97t-97.5 -38q-61 0 -98 37.5t-37 97.5z" />
<glyph unicode="/" horiz-adv-x="761" d="M61 0l543 1446h101l-545 -1446h-99z" />
<glyph unicode="0" horiz-adv-x="1232" d="M82 717q0 352 127 544.5t407 192.5q281 0 408 -192.5t127 -544.5t-127 -544.5t-408 -192.5q-280 0 -407 192.5t-127 544.5zM319 717q0 -311 70 -481t227 -170q158 0 227.5 170t69.5 481t-69.5 481t-227.5 170t-227.5 -170t-69.5 -481z" />
<glyph unicode="1" horiz-adv-x="1232" d="M246 1184v104l506 203v-1415q129 -6 268 -33v-43h-770v41q160 33 268 37v1222z" />
<glyph unicode="2" horiz-adv-x="1232" d="M88 0v94q27 106 87.5 194.5t133 157t187.5 158.5q117 92 185.5 157.5t114.5 148.5t46 182q0 121 -75 198.5t-212 77.5q-96 0 -193.5 -38t-164.5 -99l-45 69q82 66 193.5 110t248.5 44q221 0 353 -88t132 -276q0 -117 -56 -210.5t-138 -162t-219 -162.5 q-166 -113 -258.5 -200t-122.5 -199h712q4 35 22.5 92t37.5 90h59l-24 -338h-1004z" />
<glyph unicode="3" horiz-adv-x="1232" d="M115 133l45 68q63 -57 167.5 -96t200.5 -39q150 0 241 91t91 253q0 131 -81 220t-220 89h-180v88h180q90 0 152.5 44t94.5 111.5t32 139.5q0 121 -74 193.5t-211 72.5q-98 0 -193.5 -37t-162.5 -98l-45 67q80 66 190.5 110t249.5 44q221 0 355 -85t134 -263 q0 -121 -80.5 -218t-205.5 -118v-8q127 -25 214 -115t87 -233q0 -221 -148.5 -327.5t-372.5 -106.5q-139 0 -258.5 40.5t-201.5 112.5z" />
<glyph unicode="4" horiz-adv-x="1232" d="M68 336v121l673 979h228v-955h223l-27 -145h-196v-260q98 -2 207 -37v-39h-656v39q123 35 215 35v262h-667zM201 481h534v787h-4z" />
<glyph unicode="5" horiz-adv-x="1232" d="M111 133l45 68q66 -59 166 -97t194 -38q154 0 245 103t91 273q0 162 -69.5 267.5t-229.5 105.5q-96 0 -175 -40t-147 -120l-73 21l90 758h772l-14 -146h-680l-60 -502q139 115 348 115q250 0 363 -130t113 -327q0 -133 -61.5 -238.5t-182.5 -165.5t-289 -60 q-139 0 -253 39.5t-193 113.5z" />
<glyph unicode="6" horiz-adv-x="1232" d="M102 629q0 416 156 620.5t444 204.5q150 0 239 -43t155 -111l-45 -67q-127 135 -324 135q-145 0 -262 -142.5t-133 -502.5q35 94 126 147.5t197 53.5q229 0 355.5 -124t126.5 -337q0 -221 -135.5 -352t-380.5 -131q-519 0 -519 649zM354 457q0 -162 73 -276.5t200 -114.5 q133 0 204.5 105t71.5 273q0 172 -72.5 282t-205.5 110q-121 0 -196 -106.5t-75 -272.5z" />
<glyph unicode="7" horiz-adv-x="1232" d="M115 1102v332h1007v-78q-143 -145 -265 -386t-198.5 -502t-93.5 -468h-229q55 393 203.5 721t334.5 567h-651q-18 -133 -45 -186h-63z" />
<glyph unicode="8" horiz-adv-x="1232" d="M96 393q0 141 84 238.5t219 130.5v4q-109 29 -185.5 127t-76.5 211q0 168 130 259t349 91t348.5 -91t129.5 -259q0 -115 -76 -213t-184 -125v-4q135 -35 219 -131t84 -238q0 -180 -122 -296.5t-399 -116.5q-276 0 -398 116.5t-122 296.5zM330 387q0 -104 40 -177 t105.5 -108.5t138.5 -35.5q74 0 140.5 36.5t107.5 109.5t41 175q0 156 -75.5 243t-211.5 87q-135 0 -210.5 -87t-75.5 -243zM371 1110q0 -127 65.5 -218t179.5 -91q115 0 180.5 91t65.5 218t-71.5 192.5t-174.5 65.5q-106 0 -175.5 -64.5t-69.5 -193.5z" />
<glyph unicode="9" horiz-adv-x="1232" d="M98 967q0 145 60.5 254.5t176.5 171t279 61.5q520 0 521 -649q0 -414 -157 -619.5t-446 -205.5q-149 0 -238 41.5t-155 109.5l45 70q127 -135 324 -135q150 0 267.5 140t127.5 496q-29 -92 -123 -147t-200 -55q-227 0 -354.5 127t-127.5 340zM332 983q0 -172 73.5 -282.5 t204.5 -110.5q121 0 196 107.5t75 275.5q0 104 -32 194t-94.5 145.5t-146.5 55.5q-131 0 -203.5 -108.5t-72.5 -276.5z" />
<glyph unicode=":" horiz-adv-x="520" d="M125 115q0 57 37 95t98 38q59 0 96 -38t37 -95q0 -59 -35.5 -97t-97.5 -38q-61 0 -98 37.5t-37 97.5zM125 889q0 59 37 97t98 38t97 -38t36 -97q0 -57 -37 -95t-96 -38q-61 0 -98 37.5t-37 95.5z" />
<glyph unicode=";" horiz-adv-x="520" d="M121 109q0 57 34.5 96t96.5 39q74 0 110.5 -47t36.5 -113q0 -94 -51 -199.5t-125 -173.5l-78 60q43 47 75 106.5t38 120.5q-8 -2 -22 -2t-35 4q-35 10 -57.5 40t-22.5 69zM125 889q0 59 37 97t98 38t97 -38t36 -97q0 -57 -37 -95t-96 -38q-61 0 -98 37.5t-37 95.5z" />
<glyph unicode="&#x3c;" horiz-adv-x="1218" d="M100 645v70l1006 499v-129l-801 -405l801 -406v-129z" />
<glyph unicode="=" horiz-adv-x="1218" d="M109 365v114h1001v-114h-1001zM109 764v115h1001v-115h-1001z" />
<glyph unicode="&#x3e;" horiz-adv-x="1218" d="M113 145v129l800 406l-800 405v129l1005 -499v-70z" />
<glyph unicode="?" horiz-adv-x="980" d="M55 1298q182 156 441 156q182 0 303 -82t121 -254q0 -80 -29 -140t-70 -104.5t-112 -103.5q-76 -63 -121 -111.5t-76 -118t-31 -161.5v-29h-110q-4 46 -4 62q0 98 26.5 174t65.5 128t100 120q74 78 111 139t37 143q0 252 -281 252q-176 0 -330 -133zM305 102q0 55 33 88 t88 33q57 0 90 -32.5t33 -88.5q0 -57 -33 -89.5t-90 -32.5q-55 0 -88 32.5t-33 89.5z" />
<glyph unicode="@" horiz-adv-x="1677" d="M72 594q0 213 96 391t278.5 283.5t430.5 105.5q207 0 369.5 -82t255.5 -232.5t93 -346.5q0 -125 -42 -229.5t-118.5 -167t-174.5 -62.5q-68 0 -124.5 46t-64.5 122h-8q-35 -82 -116 -125t-165 -43q-168 0 -252 93t-84 249q0 113 48.5 207t143.5 151.5t230 57.5 q182 0 312 -72q-35 -489 -35 -467q-2 -70 40 -103.5t87 -33.5q61 0 113.5 48t83 135t30.5 196q0 170 -78 301t-217 203.5t-317 72.5q-217 0 -376 -90t-243 -246.5t-84 -351.5q0 -287 163 -461t495 -174q96 0 211.5 20.5t216.5 65.5v-90q-104 -39 -222 -60.5t-229 -21.5 q-237 0 -406 93.5t-255 254t-86 363.5zM618 573q0 -111 46.5 -173t130.5 -62q79 0 135.5 57.5t62.5 143.5l27 352q-53 25 -148 24q-113 0 -183.5 -99t-70.5 -243z" />
<glyph unicode="A" horiz-adv-x="1517" d="M14 0v33q37 12 83 24.5t77 16.5l504 1368h162l503 -1372q80 -12 160 -41v-29h-555v31q76 29 166 39l-106 301h-598l-109 -303q88 -10 170 -41v-27h-457zM440 453h539l-268 755z" />
<glyph unicode="B" horiz-adv-x="1265" d="M66 0v29q53 20 88.5 29.5t76.5 13.5v1292q-86 12 -165 39v31h614q252 0 361.5 -82t109.5 -254q0 -117 -66.5 -210t-197.5 -124v-10q170 -31 246.5 -133.5t76.5 -227.5q0 -197 -109.5 -295t-357.5 -98h-677zM465 82h250q266 0 266 319q0 152 -76 232t-217 80h-223v-631z M465 795h178q135 0 205 78.5t70 213.5q0 137 -62.5 200t-204.5 63h-186v-555z" />
<glyph unicode="C" horiz-adv-x="1298" d="M92 717q0 346 174 541.5t498 195.5q285 0 446 -147l-22 -267h-58q-14 43 -26 112t-17 132q-51 39 -118.5 61.5t-145.5 22.5q-242 0 -367.5 -176t-125.5 -475q0 -303 116.5 -477t358.5 -174q82 0 182 29.5t184 86.5l33 -65q-76 -66 -189.5 -101.5t-246.5 -35.5 q-332 0 -504 194.5t-172 542.5z" />
<glyph unicode="D" horiz-adv-x="1402" d="M76 0v31q94 31 162 39v1294q-76 14 -162 41v29h635q322 0 469 -182.5t147 -534.5t-148.5 -534.5t-469.5 -182.5h-633zM469 82h236q209 0 297 165t88 470t-88.5 469t-292.5 164h-240v-1268z" />
<glyph unicode="E" horiz-adv-x="1288" d="M76 0v31q98 33 172 41v1292q-72 10 -172 41v29h1090v-320h-54q-18 31 -38.5 111t-24.5 125h-568v-613h404q4 35 14 85t25 87h40v-428h-40q-14 37 -24.5 87t-14.5 85h-404v-571h576q4 47 33.5 125t52.5 110h53l-33 -317h-1087z" />
<glyph unicode="F" horiz-adv-x="1198" d="M76 0v29q86 29 172 39v1296q-94 14 -172 41v29h1069v-320h-53q-18 31 -39 111t-25 125h-547v-613h404q4 35 14 85t25 87h40v-428h-40q-14 37 -24.5 87t-14.5 85h-404v-585q109 -16 174 -41v-27h-579z" />
<glyph unicode="G" horiz-adv-x="1409" d="M76 717q0 227 82 393t238.5 255t371.5 89q156 0 292 -40t210 -107l-23 -267h-57q-14 45 -26.5 114t-16.5 130q-47 37 -141.5 60.5t-178.5 23.5q-246 0 -380 -177t-134 -474q0 -303 119 -477t363 -174q47 0 112.5 12t112.5 35v516q-102 18 -162 39v28h531v-22 q-66 -37 -144 -49v-525q-76 -57 -211 -88.5t-276 -31.5q-334 0 -508 194.5t-174 542.5z" />
<glyph unicode="H" horiz-adv-x="1644" d="M76 0v31q94 31 162 39v1294q-92 18 -162 41v29h555v-27q-61 -23 -90 -31t-70 -12v-594h700v596q-66 10 -157 39v29h555v-31q-109 -35 -164 -41v-1294q90 -14 164 -41v-27h-555v25q61 25 88.5 33t68.5 12v616h-700v-618q98 -20 160 -41v-27h-555z" />
<glyph unicode="I" horiz-adv-x="724" d="M80 0v31q82 25 166 39v1294q-68 10 -166 41v29h565v-31q-59 -20 -166 -39v-1296q82 -12 166 -39v-29h-565z" />
<glyph unicode="J" horiz-adv-x="1001" d="M41 86l37 59q45 -29 105.5 -47t125.5 -18q100 0 160.5 53t60.5 170v1059q-88 12 -161 39v33h557v-31q-104 -35 -162 -41v-1055q0 -162 -107.5 -244.5t-279.5 -82.5q-101 0 -188 27.5t-148 78.5z" />
<glyph unicode="K" horiz-adv-x="1554" d="M76 0v31q43 12 88 23.5t76 15.5v1294q-109 23 -164 41v29h563v-31q-66 -20 -166 -39v-686l633 676q-23 18 -105 30l-53 11v39h434v-39q-16 -4 -45.5 -9.5t-52 -12.5t-43.5 -19l-477 -508l600 -778q94 -16 174 -39v-29h-371l-538 700l-156 -165v-467q78 -12 166 -39v-29 h-563z" />
<glyph unicode="L" horiz-adv-x="1265" d="M76 0v29q84 29 174 39v1296q-102 20 -166 41v29h563v-31q-63 -20 -164 -39v-1282h561q2 45 32 123t54 112h52l-31 -317h-1075z" />
<glyph unicode="M" horiz-adv-x="1906" d="M76 0v27q76 25 164 39v1298q-109 23 -164 41v29h422l442 -1088l471 1088h420v-29q-66 -23 -164 -43v-1296q88 -14 164 -39v-27h-561v27q72 25 164 41v1189l-482 -1099h-135l-473 1116v-1206q92 -16 164 -41v-27h-432z" />
<glyph unicode="N" horiz-adv-x="1599" d="M76 0v27q76 25 164 39v1298q-102 20 -164 41v29h409l770 -1145v1077q-92 18 -163 39v29h432v-29q-78 -23 -164 -39v-1366h-127l-889 1311v-1243q92 -16 164 -41v-27h-432z" />
<glyph unicode="O" horiz-adv-x="1499" d="M74 717q0 346 175 541.5t501 195.5t500.5 -195.5t174.5 -541.5t-175 -541.5t-500 -195.5q-326 0 -501 195.5t-175 541.5zM309 717q0 -295 111.5 -473t329.5 -178q217 0 328.5 178t111.5 473t-111.5 473t-328.5 178t-329 -178t-112 -473z" />
<glyph unicode="P" horiz-adv-x="1271" d="M66 0v31q43 12 89 23.5t76 15.5v1294q-92 18 -161 41v29h622q283 0 404 -107.5t121 -316.5q0 -197 -115 -322t-340 -125h-297v-495q82 -12 166 -39v-29h-565zM465 645h242q141 0 209.5 101.5t68.5 265.5q0 160 -68.5 249t-209.5 89h-242v-705z" />
<glyph unicode="Q" horiz-adv-x="1499" d="M74 717q0 346 175 541.5t501 195.5t500.5 -195.5t174.5 -541.5q0 -305 -136 -494.5t-394 -230.5q25 -103 116 -166.5t232 -75.5v-76q-246 20 -390 99.5t-181 208.5q-291 25 -444.5 217t-153.5 518zM309 717q0 -295 111.5 -473t329.5 -178q217 0 328.5 178t111.5 473 t-111.5 473t-328.5 178t-329 -178t-112 -473z" />
<glyph unicode="R" horiz-adv-x="1404" d="M76 0v31q43 12 89 23.5t77 15.5v1294q-92 18 -162 41v29h708q242 0 345.5 -105.5t103.5 -298.5q0 -168 -88 -274.5t-254 -132.5l311 -555q103 -19 152 -39v-29h-338l-328 614h-217v-546q82 -12 166 -39v-29h-565zM475 696h242q150 0 219.5 89t69.5 247t-70 238t-219 80 h-242v-654z" />
<glyph unicode="S" horiz-adv-x="1155" d="M70 170l24 287h56q23 -63 38 -260q53 -59 135.5 -95t182.5 -36q141 0 240.5 74.5t99.5 211.5q0 88 -47 148.5t-115 98.5t-188 89q-131 53 -212 98t-136.5 123t-55.5 195q0 172 135 261t365 89q150 0 257 -36t183 -111l-22 -254h-58q-31 86 -41 231q-47 41 -115.5 62.5 t-150.5 21.5q-152 0 -233.5 -58.5t-81.5 -170.5q0 -66 40 -113t100 -79t167 -79q143 -61 231 -113.5t151.5 -143.5t63.5 -226q0 -125 -67.5 -217t-185 -140t-265.5 -48q-164 0 -295 53t-200 137z" />
<glyph unicode="T" horiz-adv-x="1335" d="M76 1083v351h1184v-351h-54q-16 31 -37.5 125.5t-25.5 141.5h-359v-1282q104 -16 177 -39v-29h-586v31q53 14 176 39v1280h-361q-4 -47 -25.5 -141.5t-37.5 -125.5h-51z" />
<glyph unicode="U" horiz-adv-x="1599" d="M70 1405v29h563v-31q-61 -20 -164 -39v-946q0 -190 108.5 -271t288.5 -81q174 0 284 83.5t110 268.5v948q-88 12 -166 39v29h436v-29q-94 -31 -168 -43v-920q0 -462 -551 -462h-2h-2q-571 0 -571 462v922q-102 20 -166 41z" />
<glyph unicode="V" horiz-adv-x="1527" d="M35 1405v29h551v-33q-86 -31 -168 -39l393 -1180l395 1182q-94 14 -170 43v27h457v-33q-41 -14 -88 -26.5t-70 -16.5l-481 -1372h-180l-484 1376q-80 12 -155 43z" />
<glyph unicode="W" horiz-adv-x="2099" d="M35 1405v29h549v-31q-31 -12 -80 -24.5t-90 -16.5l262 -1092l352 1098h107l393 -1192l305 1196q-63 10 -135 31v31h366v-25q-55 -29 -120 -39l-359 -1380h-201l-348 1052l-336 -1052h-165l-345 1372q-66 12 -155 43z" />
<glyph unicode="X" horiz-adv-x="1431" d="M20 0v31q41 16 117 35l484 649l-418 645q-72 14 -150 43v31h553v-33q-102 -33 -180 -41l313 -486l367 492q-84 20 -133 39v29h364v-27q-63 -29 -120 -41l-424 -571l467 -725q83 -16 151 -41v-29h-553v25q94 41 180 49l-364 561l-424 -572q41 -8 133 -34v-29h-363z" />
<glyph unicode="Y" horiz-adv-x="1488" d="M35 1403v31h557v-33q-104 -33 -174 -41l383 -641l405 649q-55 12 -133 37v29h381v-33q-55 -23 -115 -33l-471 -747v-553q82 -12 166 -39v-29h-563v27q106 37 164 41v555l-440 737q-90 18 -160 43z" />
<glyph unicode="Z" horiz-adv-x="1210" d="M51 0v53l842 1297h-651q-4 -45 -24.5 -125t-39.5 -111h-53v320h1020v-37l-848 -1315h704q4 47 34 125t52 110h54l-33 -317h-1057z" />
<glyph unicode="[" horiz-adv-x="622" d="M100 -254v1698h451v-82h-281v-1530h281v-86h-451z" />
<glyph unicode="\" horiz-adv-x="704" d="M31 1446h98l545 -1446h-99z" />
<glyph unicode="]" horiz-adv-x="622" d="M72 -168h278v1530h-278v82h450v-1698h-450v86z" />
<glyph unicode="^" horiz-adv-x="1161" d="M84 643l412 840h168l413 -840h-153l-344 756l-342 -756h-154z" />
<glyph unicode="_" horiz-adv-x="958" d="M-6 -147h971v-86h-971v86z" />
<glyph unicode="`" horiz-adv-x="1034" d="M313 1475q0 33 20.5 49t49.5 16q55 0 109 -53l241 -234l-39 -55l-303 176q-78 43 -78 101z" />
<glyph unicode="a" horiz-adv-x="1134" d="M55 276q0 160 114 232t296 72h289v155q0 115 -68 168t-188 53q-80 0 -166 -24.5t-162 -61.5l-14 72q86 45 194.5 70.5t220.5 25.5q190 0 300 -78.5t110 -211.5v-664q78 -16 141 -35v-18l-368 -37v143q-76 -84 -169 -120.5t-186 -36.5q-172 0 -258 75.5t-86 220.5z M281 279q0 -106 55 -159.5t147 -53.5q74 0 153 48t118 113v271h-236q-119 0 -178 -58.5t-59 -160.5z" />
<glyph unicode="b" horiz-adv-x="1259" d="M23 1391v18l368 37v-539q80 78 168 104.5t180 26.5q131 0 235.5 -58t164 -172t59.5 -273q0 -283 -130 -419t-363 -136q-119 0 -211.5 48t-135.5 126q-14 -76 -43 -154h-151v1354q-84 16 -141 37zM391 348q0 -121 76 -204t207 -83q157 0 228 127t71 336q0 215 -73 323.5 t-234 108.5q-80 0 -154 -43t-121 -104v-461z" />
<glyph unicode="c" horiz-adv-x="1050" d="M61 508q0 168 70 286.5t196 181t291 62.5q233 0 383 -129l-16 -231h-49q-12 33 -20.5 93t-10.5 112q-105 73 -224 73h-3q-184 0 -285.5 -117.5t-101.5 -338.5q0 -115 40 -216.5t124 -164t211 -62.5q82 0 170 28t151 77l21 -60q-63 -53 -168 -87.5t-232 -34.5 q-168 0 -290.5 65.5t-189.5 185t-67 277.5z" />
<glyph unicode="d" horiz-adv-x="1249" d="M61 496q0 250 131.5 396t360.5 146q92 0 170 -26.5t145 -100.5v443q-84 16 -139 37v18l367 37v-1362q86 -16 141 -35v-16l-319 -45q-10 68 -19 182q-55 -94 -152.5 -142t-224.5 -48q-219 0 -340 125.5t-121 390.5zM289 494q0 -207 71.5 -320t225.5 -113q123 0 202.5 81 t79.5 208v461q-121 145 -270 145q-160 0 -234.5 -137t-74.5 -325z" />
<glyph unicode="e" horiz-adv-x="1128" d="M55 508q0 254 142.5 392t394.5 138q160 0 266.5 -65.5t157.5 -175t51 -244.5v-51h-782q4 -193 98 -319t276 -126q84 0 176.5 28t159.5 77l23 -60q-63 -51 -172 -86.5t-238 -35.5q-168 0 -293 65.5t-192.5 185t-67.5 277.5zM287 584h579q0 86 -26.5 172t-87 143t-158.5 57 q-139 0 -216 -105.5t-91 -266.5z" />
<glyph unicode="f" horiz-adv-x="854" d="M51 938v82h193v72q0 186 85 282t244 96q127 0 230 -34l-15 -76q-67 24 -128 24h-5q-84 0 -134 -60t-50 -181v-123h307v-82h-307v-870q104 -16 174 -41v-27h-565v29q121 37 164 39v870h-193z" />
<glyph unicode="g" horiz-adv-x="1107" d="M76 -59q0 104 100 168q-39 25 -57.5 61.5t-18.5 75.5q0 115 119 188q-143 90 -143 266q0 160 120.5 249t333.5 89q197 0 316 -77q27 29 44 62.5t17 53.5h164q-8 -47 -44 -97t-99 -97q55 -74 55 -183q0 -162 -120 -250t-333 -88q-109 0 -208 27q-43 -31 -43 -70 q0 -31 28.5 -49t81.5 -18h346q144 0 229 -65.5t85 -200.5q0 -303 -508 -303q-213 0 -339 67.5t-126 190.5zM254 -45q0 -88 77 -136t208 -48q137 0 221 42t84 121q0 63 -48 98.5t-141 35.5h-319l-51 2q-31 -45 -31 -115zM301 700q0 -113 58.5 -184.5t170.5 -71.5 q111 0 169.5 72t58.5 184q0 113 -58.5 184.5t-169.5 71.5q-112 0 -170.5 -71.5t-58.5 -184.5z" />
<glyph unicode="h" horiz-adv-x="1394" d="M59 0v27q82 33 162 41v1286q-84 16 -141 37v18l369 37v-561q70 70 171 111.5t218 41.5q158 0 255 -76.5t97 -211.5v-682q84 -14 164 -41v-27h-545v27q82 31 154 41v667q0 119 -55.5 170t-147.5 51q-76 0 -159 -39.5t-152 -115.5v-733q80 -12 151 -41v-27h-541z" />
<glyph unicode="i" horiz-adv-x="655" d="M51 0v27q53 18 162 41v874q-84 16 -141 37v18l368 37v-966q96 -18 164 -41v-27h-553zM182 1247q0 55 36 91t93 36t94 -35.5t37 -91.5q0 -55 -36.5 -90t-94.5 -35q-57 0 -93 35t-36 90z" />
<glyph unicode="j" horiz-adv-x="669" d="M-47 -213l14 74q55 -27 133 -27q80 0 123 50t43 141v917q-88 18 -141 37v18l369 37v-1001q0 -143 -86 -215t-224 -72q-135 0 -231 41zM236 1247q0 55 35.5 91t93.5 36q57 0 93 -35.5t36 -91.5q0 -55 -36 -90t-93 -35q-58 0 -93.5 35t-35.5 90z" />
<glyph unicode="k" horiz-adv-x="1339" d="M59 0v27q98 35 162 41v1286q-84 16 -141 37v18l369 37v-959l430 424q18 18 18 27q0 6 -6 8q-14 4 -61.5 18.5t-77.5 28.5v27h460v-27q-25 -12 -65.5 -23.5t-52.5 -15.5q-59 -16 -68 -20l-326 -320l443 -544q88 -16 166 -43v-27h-330l-406 492l-124 -125v-299 q90 -14 163 -41v-27h-553z" />
<glyph unicode="l" horiz-adv-x="671" d="M59 0v27q59 20 162 41v1286q-84 16 -141 37v18l369 37v-1378q90 -14 163 -41v-27h-553z" />
<glyph unicode="m" horiz-adv-x="2009" d="M59 0v27q84 29 162 41v878q-84 16 -141 37v18l369 37v-143q59 61 144 102t183 41q117 0 201 -44t121 -124q61 72 151 120t203 48q158 0 255 -76.5t97 -211.5v-682q88 -14 164 -41v-27h-543v27q90 33 152 41v667q0 119 -55.5 170t-147.5 51q-68 0 -134 -39.5t-122 -109.5 q4 -37 4 -57v-682q84 -12 150 -41v-27h-516v27q92 33 149 41v667q0 221 -196 221q-68 0 -135.5 -38.5t-124.5 -108.5v-741q84 -14 163 -41v-27h-553z" />
<glyph unicode="n" horiz-adv-x="1392" d="M59 0v27q84 29 162 41v878q-84 16 -141 37v18l369 37v-151q70 68 172 109.5t217 41.5q158 0 255 -76.5t97 -211.5v-682q103 -16 162 -41v-27h-541v27q82 31 152 41v667q0 119 -55.5 170t-147.5 51q-76 0 -160 -38.5t-151 -116.5v-733q84 -14 163 -41v-27h-553z" />
<glyph unicode="o" horiz-adv-x="1220" d="M51 508q0 250 146.5 390t412.5 140t412.5 -140t146.5 -390t-146 -389t-413 -139q-266 0 -412.5 139t-146.5 389zM279 508q0 -209 89 -328t242 -119q152 0 241 119t89 328t-89 328.5t-241 119.5q-154 0 -242.5 -119.5t-88.5 -328.5z" />
<glyph unicode="p" horiz-adv-x="1271" d="M23 -463q49 14 163 39v1370q-86 16 -141 35v20l369 37v-141q72 82 161 111.5t168 29.5q227 0 352.5 -126t125.5 -377q0 -285 -129 -420t-369 -135q-96 0 -180 33.5t-129 107.5v-547q80 -12 161 -39v-29h-552v31zM414 348q0 -119 75.5 -203t204.5 -84q158 0 227.5 126 t69.5 337q0 217 -67.5 324.5t-227.5 107.5q-82 0 -156.5 -46t-125.5 -115v-447z" />
<glyph unicode="q" horiz-adv-x="1273" d="M51 518q0 166 61.5 284t167 177t234.5 59q223 0 346 -139v139l371 -37v-18q-55 -18 -144 -39v-1372q84 -12 164 -37v-29h-555v27q82 29 164 43v549q-45 -74 -129 -109.5t-180 -35.5q-231 0 -365.5 128t-134.5 410zM281 524q0 -211 69.5 -337t227.5 -126q129 0 205.5 84 t76.5 203v459q-47 66 -122.5 107.5t-151.5 41.5q-160 0 -232.5 -110.5t-72.5 -321.5z" />
<glyph unicode="r" horiz-adv-x="911" d="M41 0v29q66 27 164 39v878q-88 18 -142 37v16l343 39l20 -182h8q35 82 105.5 132t154.5 50q55 0 99.5 -10t87.5 -37l-43 -112q-53 39 -119 39q-86 0 -161 -58.5t-126 -146.5v-645q80 -12 162 -41v-27h-553z" />
<glyph unicode="s" horiz-adv-x="985" d="M78 109l16 253h51q12 -31 20.5 -100t10.5 -123q88 -78 246 -78q123 0 193.5 53.5t70.5 145.5q0 51 -34 87t-85 59.5t-139 54.5q-113 41 -181.5 75.5t-116.5 95t-48 152.5q0 125 113.5 189.5t285.5 64.5q246 0 377 -110l-18 -213h-54q-12 31 -19 83t-7 101q-88 59 -232 59 q-100 0 -161.5 -34.5t-61.5 -110.5q0 -53 35 -90t84 -60.5t141 -58.5q111 -39 180.5 -74.5t118.5 -97t49 -156.5q0 -145 -115.5 -220.5t-293.5 -75.5q-139 0 -250 34.5t-176 94.5z" />
<glyph unicode="t" horiz-adv-x="806" d="M25 938v82h170v90q98 35 116 186h111v-276h303v-82h-303v-657q0 -119 48 -167t136 -48q63 0 133 24l15 -76q-99 -34 -223 -34h-7q-154 0 -241.5 72.5t-87.5 228.5v657h-170z" />
<glyph unicode="u" horiz-adv-x="1333" d="M41 983v18l369 37v-753q0 -223 204 -224q68 0 154 35t154 94v756q-84 16 -140 37v18l367 37v-968q61 -10 143 -35v-19l-370 -36v126q-74 -55 -170.5 -90.5t-198.5 -35.5q-172 0 -271.5 75.5t-99.5 208.5v682q-88 18 -141 37z" />
<glyph unicode="v" horiz-adv-x="1189" d="M16 993v27h512v-25q-20 -12 -67 -23t-90 -18l256 -780l288 782q-100 14 -151 35v29h410v-25q-51 -25 -136 -39l-364 -956h-185l-337 956q-82 14 -136 37z" />
<glyph unicode="w" horiz-adv-x="1648" d="M16 989v31h516v-29q-12 -4 -53 -18.5t-100 -20.5l184 -706l238 674h127l246 -721l198 753q-74 12 -153 41v27h413v-27q-66 -23 -139 -37l-262 -956h-162l-244 719l-252 -719h-155l-262 956q-10 2 -58.5 10.5t-81.5 22.5z" />
<glyph unicode="x" horiz-adv-x="1220" d="M10 0v25q78 29 148 38l364 431l-342 460q-84 14 -143 41v25h510v-29q-90 -31 -144 -39l238 -319l272 321q-104 20 -149 39v27h420v-27q-63 -27 -152 -39l-338 -397l367 -494q77 -11 149 -36v-27h-516v29q90 31 146 37l-262 354l-302 -354q72 -12 154 -37v-29h-420z" />
<glyph unicode="y" horiz-adv-x="1187" d="M8 993v27h514v-29q-45 -16 -164 -35l283 -716l272 721q-70 6 -153 30v29h420v-25q-61 -25 -142 -39l-401 -1056q-41 -109 -79 -169.5t-96.5 -92t-152.5 -31.5q-104 0 -205 43l37 106q90 -35 162 -35q57 0 93 17.5t67 66t67 144.5l23 59l-410 950q-82 12 -135 35z" />
<glyph unicode="z" horiz-adv-x="991" d="M43 0v45l670 893h-492q-18 -129 -45 -182h-63v264h835v-57l-663 -883h510q8 37 27.5 94t33.5 88h70l-23 -262h-860z" />
<glyph unicode="{" horiz-adv-x="798" d="M59 545v117q123 2 172.5 39.5t49.5 123.5v328q0 115 32.5 177.5t127 93t282.5 30.5v-78q-86 -4 -137 -19.5t-80 -59.5t-29 -128v-352q0 -88 -58.5 -142t-162.5 -71q221 -47 221 -217v-352q0 -84 29 -128t81 -59.5t136 -17.5v-80q-197 0 -291 34t-122.5 103.5t-28.5 204.5 v246q0 76 -16.5 119t-63.5 65.5t-142 22.5z" />
<glyph unicode="|" horiz-adv-x="925" d="M371 -403v1945h184v-1945h-184z" />
<glyph unicode="}" horiz-adv-x="798" d="M76 -170q84 2 136 17.5t81 59.5t29 128v352q0 170 221 217q-104 16 -162.5 70.5t-58.5 142.5v352q0 84 -29 128t-80 59.5t-137 19.5v78q188 0 282.5 -30.5t127 -93t32.5 -177.5v-287q0 -76 16.5 -117.5t63.5 -64t141 -22.5v-117q-94 0 -141 -22.5t-63.5 -65.5t-16.5 -119 v-287q0 -115 -32.5 -177t-127 -93t-282.5 -31v80z" />
<glyph unicode="~" horiz-adv-x="1220" d="M121 514v115q45 49 109.5 80.5t129.5 31.5q55 0 110.5 -14t143.5 -43q90 -31 147.5 -45t115.5 -14q63 0 116.5 28.5t106.5 85.5v-118q-43 -51 -102.5 -78t-125.5 -27t-131 16.5t-149 45.5q-82 29 -135.5 42t-104.5 13q-57 0 -118.5 -33t-112.5 -86z" />
<glyph unicode="&#xa1;" horiz-adv-x="641" d="M190 -270l3 32l75 969h103l75 -969l3 -32q0 -166 -130 -166q-129 0 -129 166zM199 918q0 55 32.5 87.5t90.5 32.5q55 0 87.5 -32.5t32.5 -87.5q0 -57 -32.5 -90t-87.5 -33q-58 0 -90.5 32.5t-32.5 90.5z" />
<glyph unicode="&#xa2;" horiz-adv-x="1050" d="M61 508q0 238 138.5 377t371.5 151v156h82v-154q207 -10 348 -129l-16 -231h-49q-12 33 -20.5 93t-10.5 112q-106 74 -239 73q-182 0 -278.5 -116.5t-96.5 -339.5q0 -115 40 -216.5t124 -164t211 -62.5q82 0 170 28t151 77l21 -60q-58 -47 -150 -80.5t-205 -39.5v-168 h-82v166q-158 8 -272.5 75.5t-176 184t-61.5 268.5z" />
<glyph unicode="&#xa3;" horiz-adv-x="1224" d="M59 0v80h150q41 41 53 84t12 108v416h-200v80h200v322q0 172 128 268t352 96q248 0 401 -149l-37 -60q-57 61 -140 97t-179 36q-139 0 -220 -74.5t-81 -234.5v-301h434v-80h-434v-395q0 -66 -21.5 -118t-73.5 -93h584q2 45 32 123t54 112h51l-30 -317h-1035z" />
<glyph unicode="&#xa4;" horiz-adv-x="1220" d="M160 981l65 68l135 -134q109 88 250 89q139 0 250 -89l135 134l66 -68l-137 -131q86 -109 86 -246q0 -139 -86 -248l133 -129l-66 -65l-133 129q-109 -88 -248 -88t-250 88l-133 -131l-65 67l135 129q-88 113 -88 248q0 137 86 246zM301 602q0 -84 41 -154.5 t112.5 -111.5t155.5 -41t156 41t114 111.5t42 154.5q0 86 -43 156.5t-114 112.5t-155 42t-154.5 -41t-112.5 -112.5t-42 -157.5z" />
<glyph unicode="&#xa5;" horiz-adv-x="1492" d="M45 1403v31h559v-33q-102 -33 -176 -41l322 -539h127l342 547q-66 14 -134 37v29h381v-33q-55 -23 -114 -33l-346 -547h294v-80h-346l-75 -120v-218h421v-79h-421v-256q80 -12 165 -39v-29h-563v27q33 14 78 26.5t86 14.5v256h-416v79h416v220l-72 118h-344v80h297 l-321 539q-84 16 -160 43zM797 741l14 -24l16 24h-30z" />
<glyph unicode="&#xa6;" horiz-adv-x="925" d="M371 -403v901h184v-901h-184zM371 698v844h184v-844h-184z" />
<glyph unicode="&#xa7;" horiz-adv-x="1167" d="M76 -287l24 287h56q23 -63 39 -260q53 -59 135 -95t182 -36q141 0 240.5 72.5t99.5 207.5q0 88 -47 148.5t-115.5 97.5t-187.5 86q-133 53 -213 98.5t-135.5 122t-55.5 193.5q0 195 181 287q-86 51 -133.5 122.5t-47.5 172.5q0 172 134.5 258t365.5 86q150 0 257.5 -36 t182.5 -112l-22 -254h-58q-31 86 -40 232q-47 41 -116 62.5t-151 21.5q-154 0 -234.5 -55.5t-80.5 -168.5q0 -63 40 -110t101.5 -80t165.5 -76q141 -59 230.5 -111.5t153 -143.5t63.5 -226q0 -176 -138 -285q138 -117 138 -297q0 -125 -68 -215t-185.5 -137t-265.5 -47 q-164 0 -295 53t-200 137zM315 670q0 -70 43 -120t107.5 -84t177.5 -81q94 -39 176 -80q53 74 53 166t-50 154.5t-122.5 102.5t-197.5 89l-80 33q-106 -55 -107 -180z" />
<glyph unicode="&#xa8;" horiz-adv-x="1034" d="M182 1300q0 45 28 75t75 30q45 0 73.5 -29.5t28.5 -75.5q0 -47 -28.5 -75.5t-73.5 -28.5q-47 0 -75 28.5t-28 75.5zM645 1300q0 45 28.5 75t74.5 30q47 0 75.5 -29.5t28.5 -75.5q0 -47 -28.5 -75.5t-75.5 -28.5q-46 0 -74.5 28.5t-28.5 75.5z" />
<glyph unicode="&#xa9;" horiz-adv-x="1699" d="M98 731q0 215 97.5 386t268.5 268.5t386 97.5t386 -97.5t268.5 -268.5t97.5 -386t-97.5 -386t-268.5 -268t-386 -97t-386 97t-268.5 268t-97.5 386zM190 731q0 -188 84 -339.5t234.5 -238.5t341.5 -87q190 0 339.5 87t234.5 238.5t85 339.5t-85 340t-234.5 239t-339.5 87 t-341 -87t-235 -238.5t-84 -340.5zM446 731q0 217 112 337t331 120q70 0 145.5 -21.5t114.5 -54.5l-10 -184h-43q-8 18 -22.5 75.5t-16.5 77.5q-23 18 -64 32.5t-96 14.5q-172 0 -239.5 -104t-67.5 -293q0 -170 75.5 -279.5t231.5 -109.5q49 0 125 21.5t115 60.5l8 -53 q-39 -41 -115 -70t-145 -29q-123 0 -223.5 56.5t-158 161t-57.5 241.5z" />
<glyph unicode="&#xaa;" horiz-adv-x="765" d="M49 979q0 94 65.5 145.5t180.5 51.5h197v79q0 74 -43 107t-123 33q-102 0 -209 -52l-11 56q113 55 261 55q133 0 204.5 -51t71.5 -148v-393q29 -4 98 -22v-15l-249 -28v96q-41 -51 -99.5 -78t-122.5 -27q-112 0 -166.5 52.5t-54.5 138.5zM199 981q0 -59 30.5 -94 t96.5 -35q45 0 88 26.5t78 79.5v158h-162q-68 0 -99.5 -37t-31.5 -98z" />
<glyph unicode="&#xab;" horiz-adv-x="1077" d="M76 514v43q260 215 413 455l93 -140q-41 -72 -122 -160.5t-179 -174.5q98 -84 179 -174.5t122 -161.5l-93 -138q-165 254 -413 451zM496 514v43q264 221 415 455l90 -140q-41 -72 -120.5 -160.5t-178.5 -174.5q98 -86 179.5 -176.5t119.5 -159.5l-90 -138 q-94 144 -197.5 251.5t-217.5 199.5z" />
<glyph unicode="&#xac;" horiz-adv-x="1009" d="M82 680v82h825v-393h-98v311h-727z" />
<glyph unicode="&#xad;" horiz-adv-x="835" d="M92 508v127h651v-127h-651z" />
<glyph unicode="&#xae;" horiz-adv-x="1699" d="M98 731q0 215 97.5 386t268.5 268.5t386 97.5t386 -97.5t268.5 -268.5t97.5 -386t-97.5 -386t-268.5 -268t-386 -97t-386 97t-268.5 268t-97.5 386zM190 731q0 -188 84 -339.5t234.5 -238.5t341.5 -87q190 0 339.5 87t234.5 238.5t85 339.5t-85 340t-234.5 239t-339.5 87 t-341 -87t-235 -238.5t-84 -340.5zM475 1145v24h440q283 0 283 -243q0 -106 -56.5 -172t-168.5 -80l209 -338q61 -10 90 -23v-20h-213l-201 379h-131v-336q51 -6 102 -23v-20h-352v20q23 8 52.5 15.5t50.5 9.5v782q-61 6 -105 25zM727 731h143q94 0 137.5 50t43.5 147 q0 92 -43 137t-138 45h-143v-379z" />
<glyph unicode="&#xaf;" horiz-adv-x="1034" d="M96 1481v82h842v-82h-842z" />
<glyph unicode="&#xb0;" horiz-adv-x="684" d="M61 1212q0 119 78 198t203 79t203 -79t78 -198t-78 -196.5t-203 -77.5t-203 78t-78 196zM152 1212q0 -80 54 -135t136 -55t135 55.5t53 134.5q0 80 -53 135.5t-135 55.5t-136 -55.5t-54 -135.5z" />
<glyph unicode="&#xb1;" horiz-adv-x="1218" d="M104 676v115h392v383h227v-383h391v-115h-391v-381h-227v381h-392zM106 20v115h996v-115h-996z" />
<glyph unicode="&#xb2;" horiz-adv-x="845" d="M86 561v74q25 84 81 146.5t150 136.5q72 57 113 97t68.5 92t27.5 118q0 68 -43 110.5t-116 42.5q-55 0 -114.5 -23.5t-113.5 -66.5l-30 55q39 41 119.5 76t181.5 35q147 0 233 -57.5t86 -173.5q0 -72 -31.5 -128.5t-78 -97.5t-125.5 -102q-84 -63 -134.5 -109.5 t-80.5 -103.5h385q6 23 19 57.5t26 55.5h41l-15 -234h-649z" />
<glyph unicode="&#xb3;" horiz-adv-x="845" d="M90 657l33 56q51 -45 114.5 -67.5t122.5 -22.5q88 0 136.5 51t48.5 135q0 74 -44 124t-124 50h-131v82h129q84 0 123 49t39 115q0 68 -47.5 108.5t-127.5 40.5q-53 0 -111 -24.5t-106 -61.5l-30 54q43 41 123.5 74.5t181.5 33.5q145 0 227 -54t82 -163q0 -72 -39 -131 t-104 -78v-8q76 -18 117.5 -70.5t41.5 -136.5q0 -133 -93 -199.5t-253 -66.5q-100 0 -183 33.5t-126 76.5z" />
<glyph unicode="&#xb4;" horiz-adv-x="1034" d="M326 1253l239 232q55 55 105 55q37 0 56 -20.5t19 -46.5q0 -55 -77 -99l-303 -176z" />
<glyph unicode="&#xb6;" horiz-adv-x="1083" d="M88 1051q0 197 104.5 290t305.5 93h536v-27q-90 -31 -166 -43v-1296q88 -14 164 -41v-27h-289v1358h-145v-1358h-289v29q61 20 164 39v569q-184 10 -284.5 119.5t-100.5 294.5zM178 1051q0 -162 86 -246t209 -84v637q-147 0 -221 -80t-74 -227z" />
<glyph unicode="&#xb7;" horiz-adv-x="593" d="M160 719q0 63 35.5 103t99.5 40q66 0 102.5 -40t36.5 -103t-37 -103.5t-102 -40.5q-64 0 -99.5 39t-35.5 105z" />
<glyph unicode="&#xb8;" horiz-adv-x="1034" d="M319 -424l39 66q61 -29 142 -29q70 0 113.5 25.5t43.5 82.5q0 43 -37.5 61.5t-91.5 18.5q-18 0 -47 -4l-49 62l88 174h107l-78 -162h14q104 0 159.5 -41t55.5 -109q0 -92 -74.5 -142t-189.5 -50q-49 0 -101.5 12.5t-93.5 34.5z" />
<glyph unicode="&#xb9;" horiz-adv-x="845" d="M162 561v39q80 23 174 35v674l-170 -62v74l383 139v-829q86 -4 164 -29v-41h-551z" />
<glyph unicode="&#xba;" horiz-adv-x="772" d="M37 1122q0 156 90 244t258 88t259 -89t91 -243q0 -156 -91 -245t-259 -89t-258 89.5t-90 244.5zM205 1122q0 -117 49 -185.5t133 -68.5t132 69t48 185q0 117 -48 184.5t-132 67.5t-133 -68.5t-49 -183.5z" />
<glyph unicode="&#xbb;" horiz-adv-x="1077" d="M76 201q41 72 122 162t179 174q-98 86 -179 175t-122 160l92 140q154 -240 414 -455v-43q-248 -197 -414 -451zM496 201q39 70 119.5 160t179.5 176q-98 86 -178 175t-121 160l90 140q152 -233 415 -455v-43q-115 -92 -218 -199.5t-197 -251.5z" />
<glyph unicode="&#xbc;" horiz-adv-x="1935" d="M125 561v39q76 23 174 35v674l-170 -62v74l383 139v-829q84 -4 166 -29v-41h-553zM510 0l891 1446h90l-893 -1446h-88zM1032 213v55l416 615h219v-590h129v-80h-129v-145q57 -6 121 -25v-43h-469v43q74 20 135 23v147h-422zM1137 293h317v465z" />
<glyph unicode="&#xbd;" horiz-adv-x="1935" d="M125 561v39q76 23 174 35v674l-170 -62v74l383 139v-829q84 -4 166 -29v-41h-553zM487 0l891 1446h90l-893 -1446h-88zM1174 0v72q25 84 80 144t153 140q104 84 155.5 148.5t51.5 157.5q0 70 -42 111.5t-118 41.5q-55 0 -114.5 -22.5t-110.5 -67.5l-33 55q43 43 122 77 t179 34q147 0 233.5 -56.5t86.5 -175.5q0 -70 -32 -126t-78 -99t-126 -102q-82 -61 -132 -107.5t-81 -103.5h385q6 25 18.5 58.5t24.5 53.5h43l-14 -233h-651z" />
<glyph unicode="&#xbe;" horiz-adv-x="1935" d="M102 657l33 56q51 -45 114.5 -67.5t123.5 -22.5q88 0 136 51t48 135q0 74 -44 124t-124 50h-131v82h129q84 0 123 49t39 115q0 68 -47 108.5t-127 40.5q-53 0 -111.5 -24.5t-105.5 -61.5l-31 54q43 41 124 74.5t181 33.5q145 0 227 -54t82 -163q0 -72 -38.5 -131 t-104.5 -78v-8q76 -18 118 -70.5t42 -136.5q0 -133 -93.5 -199.5t-252.5 -66.5q-101 0 -184 33.5t-126 76.5zM506 0l891 1446h90l-893 -1446h-88zM1032 213v55l416 615h219v-590h129v-80h-129v-145q57 -6 121 -25v-43h-469v43q74 20 135 23v147h-422zM1137 293h317v465z" />
<glyph unicode="&#xbf;" horiz-adv-x="980" d="M57 -121q0 80 29 140.5t71 104.5t113 103q76 63 121 110.5t76 116t31 158.5l-2 35h112q2 -20 2 -55q0 -100 -26.5 -177t-65.5 -131.5t-100 -119.5q-74 -80 -110 -140.5t-36 -142.5q0 -252 281 -252q176 0 330 133l41 -63q-186 -156 -443 -156q-182 0 -303 82t-121 254z M430 895q0 57 33 90t88 33q57 0 90 -33t33 -90q0 -55 -33 -88t-90 -33q-55 0 -88 33t-33 88z" />
<glyph unicode="&#xc0;" horiz-adv-x="1517" d="M14 0v33q37 12 83 24.5t77 16.5l504 1368h162l503 -1372q80 -12 160 -41v-29h-555v31q76 29 166 39l-106 301h-598l-109 -303q88 -10 170 -41v-27h-457zM440 453h539l-268 755zM494 1886q0 27 20.5 46.5t56.5 19.5q49 0 103 -54l241 -233l-38 -55l-304 176 q-79 47 -79 100z" />
<glyph unicode="&#xc1;" horiz-adv-x="1517" d="M14 0v33q37 12 83 24.5t77 16.5l504 1368h162l503 -1372q80 -12 160 -41v-29h-555v31q76 29 166 39l-106 301h-598l-109 -303q88 -10 170 -41v-27h-457zM440 453h539l-268 755zM612 1665l240 231q47 55 104 56q37 0 56.5 -19.5t19.5 -46.5q0 -53 -78 -100l-303 -176z" />
<glyph unicode="&#xc2;" horiz-adv-x="1517" d="M14 0v33q37 12 83 24.5t77 16.5l504 1368h162l503 -1372q80 -12 160 -41v-29h-555v31q76 29 166 39l-106 301h-598l-109 -303q88 -10 170 -41v-27h-457zM420 1675q68 43 156 125t129 139h108q41 -57 129 -139t156 -125l-94 -76q-63 49 -133 117t-107 121h-10 q-37 -53 -106.5 -120.5t-133.5 -117.5zM440 453h539l-268 755z" />
<glyph unicode="&#xc3;" horiz-adv-x="1517" d="M14 0v33q37 12 83 24.5t77 16.5l504 1368h162l503 -1372q80 -12 160 -41v-29h-555v31q76 29 166 39l-106 301h-598l-109 -303q88 -10 170 -41v-27h-457zM385 1610q14 109 70.5 163t146.5 54q47 0 90 -16.5t94 -47.5q45 -25 72 -36t51 -11q49 0 86 28t52 91h77 q-12 -104 -66 -163.5t-151 -59.5q-39 0 -80 16.5t-98 46.5q-10 4 -41 19.5t-53.5 22.5t-38.5 7q-47 0 -83 -31.5t-46 -82.5h-82zM440 453h539l-268 755z" />
<glyph unicode="&#xc4;" horiz-adv-x="1517" d="M14 0v33q37 12 83 24.5t77 16.5l504 1368h162l503 -1372q80 -12 160 -41v-29h-555v31q76 29 166 39l-106 301h-598l-109 -303q88 -10 170 -41v-27h-457zM401 1712q0 47 29 77t74 30q47 0 75.5 -30t28.5 -77q0 -45 -28.5 -74.5t-75.5 -29.5q-45 0 -74 29.5t-29 74.5z M440 453h539l-268 755zM866 1712q0 47 28 77t75 30q45 0 73.5 -30t28.5 -77q0 -45 -28.5 -74.5t-73.5 -29.5q-47 0 -75 29.5t-28 74.5z" />
<glyph unicode="&#xc5;" horiz-adv-x="1517" d="M14 0v33q37 12 83 24.5t77 16.5l504 1368h162l503 -1372q80 -12 160 -41v-29h-555v31q76 29 166 39l-106 301h-598l-109 -303q88 -10 170 -41v-27h-457zM440 453h539l-268 755zM557 1708q0 84 56.5 137t144.5 53t144 -53t56 -137t-55 -136t-145 -52t-145.5 52t-55.5 136z M639 1708q0 -51 34 -83t85 -32t83.5 32t32.5 83t-32.5 83t-83.5 32t-85 -32t-34 -83z" />
<glyph unicode="&#xc6;" horiz-adv-x="2068" d="M14 0v29q70 27 154 43l784 1304q-10 2 -42.5 9.5t-59.5 19.5v29h1096v-320h-54q-18 31 -38.5 111t-24.5 125h-569v-572h405q4 35 14.5 85t24.5 87h39v-428h-39q-14 37 -24.5 87t-14.5 85h-405v-612h577q4 47 34 125t52 110h53l-32 -317h-1088v29q86 29 172 39v303h-545 l-178 -303q102 -12 176 -41v-27h-467zM532 453h496v841z" />
<glyph unicode="&#xc7;" horiz-adv-x="1298" d="M92 717q0 346 174 541.5t498 195.5q285 0 446 -147l-22 -267h-58q-14 43 -26 112t-17 132q-51 39 -118.5 61.5t-145.5 22.5q-242 0 -367.5 -176t-125.5 -475q0 -303 116.5 -477t358.5 -174q82 0 182 29.5t184 86.5l33 -65q-74 -64 -183.5 -99.5t-238.5 -37.5l-55 -117 q109 0 168 -40t59 -110q0 -92 -73.5 -142t-190.5 -50q-49 0 -101 12t-91 35l39 65q61 -29 139 -28q72 0 115 25.5t43 82.5q0 43 -37 61.5t-90 18.5q-20 0 -50 -4l-47 61l68 134q-289 27 -437.5 217t-148.5 516z" />
<glyph unicode="&#xc8;" horiz-adv-x="1288" d="M76 0v31q98 33 172 41v1292q-72 10 -172 41v29h1089v-320h-53q-18 31 -38.5 111t-24.5 125h-568v-613h404q4 35 14 85t25 87h39v-428h-39q-14 37 -24.5 87t-14.5 85h-404v-571h576q4 47 33.5 125t52.5 110h53l-33 -317h-1087zM504 1886q0 27 20.5 46.5t57.5 19.5 q49 0 102 -54l242 -233l-39 -55l-303 176q-80 47 -80 100z" />
<glyph unicode="&#xc9;" horiz-adv-x="1288" d="M76 0v31q98 33 172 41v1292q-72 10 -172 41v29h1089v-320h-53q-18 31 -38.5 111t-24.5 125h-568v-613h404q4 35 14 85t25 87h39v-428h-39q-14 37 -24.5 87t-14.5 85h-404v-571h576q4 47 33.5 125t52.5 110h53l-33 -317h-1087zM492 1665l239 231q47 55 105 56 q37 0 56 -19.5t19 -46.5q0 -53 -77 -100l-304 -176z" />
<glyph unicode="&#xca;" horiz-adv-x="1288" d="M76 0v31q98 33 172 41v1292q-72 10 -172 41v29h1089v-320h-53q-18 31 -38.5 111t-24.5 125h-568v-613h404q4 35 14 85t25 87h39v-428h-39q-14 37 -24.5 87t-14.5 85h-404v-571h576q4 47 33.5 125t52.5 110h53l-33 -317h-1087zM379 1675q68 43 156 125t129 139h108 q41 -57 129 -139t156 -125l-94 -76q-63 49 -133 117t-107 121h-10q-37 -53 -106.5 -120.5t-133.5 -117.5z" />
<glyph unicode="&#xcb;" horiz-adv-x="1288" d="M76 0v31q98 33 172 41v1292q-72 10 -172 41v29h1089v-320h-53q-18 31 -38.5 111t-24.5 125h-568v-613h404q4 35 14 85t25 87h39v-428h-39q-14 37 -24.5 87t-14.5 85h-404v-571h576q4 47 33.5 125t52.5 110h53l-33 -317h-1087zM391 1712q0 47 29 77t74 30q47 0 75.5 -30 t28.5 -77q0 -45 -28.5 -74.5t-75.5 -29.5q-45 0 -74 29.5t-29 74.5zM856 1712q0 47 27.5 77t74.5 30q45 0 74 -30t29 -77q0 -45 -28.5 -74.5t-74.5 -29.5q-47 0 -74.5 29.5t-27.5 74.5z" />
<glyph unicode="&#xcc;" horiz-adv-x="724" d="M80 0v31q82 25 166 39v1294q-68 10 -166 41v29h565v-31q-59 -20 -166 -39v-1296q82 -12 166 -39v-29h-565zM150 1886q0 27 20 46.5t57 19.5q49 0 103 -54l241 -233l-39 -55l-303 176q-80 47 -79 100z" />
<glyph unicode="&#xcd;" horiz-adv-x="724" d="M80 0v31q82 25 166 39v1294q-68 10 -166 41v29h565v-31q-59 -20 -166 -39v-1296q82 -12 166 -39v-29h-565zM150 1665l239 231q47 55 105 56q37 0 56 -19.5t19 -46.5q0 -53 -77 -100l-304 -176z" />
<glyph unicode="&#xce;" horiz-adv-x="724" d="M23 1675q68 43 155.5 125t128.5 139h109q41 -57 129 -139t155 -125l-94 -76q-63 49 -133 117t-106 121h-11q-37 -53 -106.5 -120.5t-132.5 -117.5zM80 0v31q82 25 166 39v1294q-68 10 -166 41v29h565v-31q-59 -20 -166 -39v-1296q82 -12 166 -39v-29h-565z" />
<glyph unicode="&#xcf;" horiz-adv-x="724" d="M27 1712q0 47 28.5 77t73.5 30q47 0 75.5 -30t28.5 -77q0 -45 -28.5 -74.5t-75.5 -29.5q-45 0 -73.5 29.5t-28.5 74.5zM80 0v31q82 25 166 39v1294q-68 10 -166 41v29h565v-31q-59 -20 -166 -39v-1296q82 -12 166 -39v-29h-565zM492 1712q0 47 27.5 77t74.5 30 q45 0 73.5 -30t28.5 -77q0 -45 -28.5 -74.5t-73.5 -29.5q-47 0 -74.5 29.5t-27.5 74.5z" />
<glyph unicode="&#xd0;" horiz-adv-x="1404" d="M76 0v31q94 31 162 39v571h-144v82h144v641q-76 14 -162 41v29h635q321 0 468.5 -182.5t147.5 -534.5t-148.5 -534.5t-469.5 -182.5h-633zM469 82h236q208 0 296.5 165t88.5 470t-88.5 469t-292.5 164h-240v-627h328v-82h-328v-559z" />
<glyph unicode="&#xd1;" horiz-adv-x="1599" d="M76 0v27q76 25 164 39v1298q-102 20 -164 41v29h409l770 -1145v1077q-92 18 -163 39v29h432v-29q-78 -23 -164 -39v-1366h-127l-889 1311v-1243q92 -16 164 -41v-27h-432zM440 1610q15 108 71 162.5t146 54.5q47 0 90.5 -16.5t94.5 -47.5q45 -25 71.5 -36t51.5 -11 q49 0 85.5 28t51.5 91h78q-12 -104 -66.5 -163.5t-150.5 -59.5q-39 0 -80 16.5t-99 46.5q-10 4 -40.5 19.5t-53 22.5t-39.5 7q-47 0 -83 -31.5t-46 -82.5h-82z" />
<glyph unicode="&#xd2;" horiz-adv-x="1499" d="M74 717q0 346 175 541.5t501 195.5t500.5 -195.5t174.5 -541.5t-175 -541.5t-500 -195.5q-326 0 -501 195.5t-175 541.5zM309 717q0 -295 111.5 -473t329.5 -178q217 0 328.5 178t111.5 473t-111.5 473t-328.5 178t-329 -178t-112 -473zM526 1886q0 27 20.5 46.5 t57.5 19.5q49 0 103 -54l241 -233l-39 -55l-303 176q-80 47 -80 100z" />
<glyph unicode="&#xd3;" horiz-adv-x="1499" d="M74 717q0 346 175 541.5t501 195.5t500.5 -195.5t174.5 -541.5t-175 -541.5t-500 -195.5q-326 0 -501 195.5t-175 541.5zM309 717q0 -295 111.5 -473t329.5 -178q217 0 328.5 178t111.5 473t-111.5 473t-328.5 178t-329 -178t-112 -473zM549 1665l239 231q47 55 105 56 q37 0 56.5 -19.5t19.5 -46.5q0 -53 -78 -100l-303 -176z" />
<glyph unicode="&#xd4;" horiz-adv-x="1499" d="M74 717q0 346 175 541.5t501 195.5t500.5 -195.5t174.5 -541.5t-175 -541.5t-500 -195.5q-326 0 -501 195.5t-175 541.5zM309 717q0 -295 111.5 -473t329.5 -178q217 0 328.5 178t111.5 473t-111.5 473t-328.5 178t-329 -178t-112 -473zM410 1675q68 43 155.5 125 t128.5 139h109q41 -57 129 -139t155 -125l-94 -76q-63 49 -132.5 117t-106.5 121h-11q-37 -53 -106.5 -120.5t-132.5 -117.5z" />
<glyph unicode="&#xd5;" horiz-adv-x="1499" d="M74 717q0 346 175 541.5t501 195.5t500.5 -195.5t174.5 -541.5t-175 -541.5t-500 -195.5q-326 0 -501 195.5t-175 541.5zM309 717q0 -295 111.5 -473t329.5 -178q217 0 328.5 178t111.5 473t-111.5 473t-328.5 178t-329 -178t-112 -473zM379 1610q14 108 70.5 162.5 t146.5 54.5q47 0 90 -16.5t94 -47.5q45 -25 72 -36t51 -11q49 0 86 28t51 91h78q-12 -104 -66.5 -163.5t-150.5 -59.5q-39 0 -80 16.5t-98 46.5q-10 4 -41 19.5t-53.5 22.5t-38.5 7q-47 0 -83 -31.5t-46 -82.5h-82z" />
<glyph unicode="&#xd6;" horiz-adv-x="1499" d="M74 717q0 346 175 541.5t501 195.5t500.5 -195.5t174.5 -541.5t-175 -541.5t-500 -195.5q-326 0 -501 195.5t-175 541.5zM309 717q0 -295 111.5 -473t329.5 -178q217 0 328.5 178t111.5 473t-111.5 473t-328.5 178t-329 -178t-112 -473zM414 1712q0 47 28.5 77t73.5 30 q47 0 76 -30t29 -77q0 -45 -29 -74.5t-76 -29.5q-45 0 -73.5 29.5t-28.5 74.5zM879 1712q0 47 27.5 77t74.5 30q45 0 73.5 -30t28.5 -77q0 -45 -28.5 -74.5t-73.5 -29.5q-47 0 -74.5 29.5t-27.5 74.5z" />
<glyph unicode="&#xd7;" horiz-adv-x="1218" d="M141 322l351 346l-351 346l109 112l360 -358l361 358l108 -112l-350 -346l350 -346l-108 -113l-361 358l-360 -358z" />
<glyph unicode="&#xd8;" horiz-adv-x="1499" d="M74 717q0 346 175 541.5t501 195.5q236 0 395 -106l96 131l74 -54l-98 -133q102 -94 155 -240.5t53 -334.5q0 -346 -175 -541.5t-500 -195.5q-250 0 -414 116l-119 -162l-70 54l121 166q-96 96 -145 238.5t-49 324.5zM309 717q0 -244 76 -408l670 916q-115 143 -305 143 q-217 0 -329 -178t-112 -473zM432 227q113 -162 318 -161q217 0 328.5 178t111.5 473q0 260 -84 426z" />
<glyph unicode="&#xd9;" horiz-adv-x="1599" d="M70 1405v29h563v-31q-61 -20 -164 -39v-946q0 -190 108.5 -271t288.5 -81q174 0 284 83.5t110 268.5v948q-88 12 -166 39v29h436v-29q-94 -31 -168 -43v-920q0 -463 -553 -462q-573 -1 -573 462v922q-102 20 -166 41zM590 1886q0 27 20.5 46.5t57.5 19.5q49 0 102 -54 l242 -233l-39 -55l-303 176q-80 47 -80 100z" />
<glyph unicode="&#xda;" horiz-adv-x="1599" d="M70 1405v29h563v-31q-61 -20 -164 -39v-946q0 -190 108.5 -271t288.5 -81q174 0 284 83.5t110 268.5v948q-88 12 -166 39v29h436v-29q-94 -31 -168 -43v-920q0 -463 -553 -462q-573 -1 -573 462v922q-102 20 -166 41zM653 1665l240 231q47 55 104 56q37 0 56.5 -19.5 t19.5 -46.5q0 -53 -78 -100l-303 -176z" />
<glyph unicode="&#xdb;" horiz-adv-x="1599" d="M70 1405v29h563v-31q-61 -20 -164 -39v-946q0 -190 108.5 -271t288.5 -81q174 0 284 83.5t110 268.5v948q-88 12 -166 39v29h436v-29q-94 -31 -168 -43v-920q0 -463 -553 -462q-573 -1 -573 462v922q-102 20 -166 41zM461 1675q68 43 156 125t128 139h109 q41 -57 129 -139t156 -125l-95 -76q-63 49 -132.5 117t-106.5 121h-10q-37 -53 -107 -120.5t-133 -117.5z" />
<glyph unicode="&#xdc;" horiz-adv-x="1599" d="M70 1405v29h563v-31q-61 -20 -164 -39v-946q0 -190 108.5 -271t288.5 -81q174 0 284 83.5t110 268.5v948q-88 12 -166 39v29h436v-29q-94 -31 -168 -43v-920q0 -463 -553 -462q-573 -1 -573 462v922q-102 20 -166 41zM496 1712q0 47 28.5 77t73.5 30q47 0 75.5 -30 t28.5 -77q0 -45 -28.5 -74.5t-75.5 -29.5q-45 0 -73.5 29.5t-28.5 74.5zM961 1712q0 47 27.5 77t74.5 30q45 0 73.5 -30t28.5 -77q0 -45 -28.5 -74.5t-73.5 -29.5q-47 0 -74.5 29.5t-27.5 74.5z" />
<glyph unicode="&#xdd;" horiz-adv-x="1488" d="M35 1403v31h557v-33q-104 -33 -174 -41l383 -641l405 649q-55 12 -133 37v29h381v-33q-55 -23 -115 -33l-471 -747v-553q82 -12 166 -39v-29h-563v27q106 37 164 41v555l-440 737q-90 18 -160 43zM600 1665l240 231q47 55 104 56q37 0 56.5 -19.5t19.5 -46.5 q0 -53 -78 -100l-303 -176z" />
<glyph unicode="&#xde;" horiz-adv-x="1271" d="M66 0v31q45 12 90 23.5t75 15.5v1294q-92 18 -161 41v29h395v-273h295q240 0 348.5 -114.5t108.5 -307.5q0 -197 -115 -321.5t-338 -124.5h-299v-225q78 -12 166 -39v-29h-565zM465 375h242q141 0 209.5 101.5t68.5 264.5q0 160 -68.5 249t-209.5 89h-242v-704z" />
<glyph unicode="&#xdf;" horiz-adv-x="1482" d="M41 938v82h192v86q0 199 117 299t328 100q305 0 393 -163.5t88 -348.5v-37q-121 0 -198.5 -34.5t-77.5 -108.5q0 -53 30.5 -90t76.5 -60.5t130 -58.5q100 -39 164 -74.5t108 -97t44 -156.5q0 -150 -107.5 -223t-284.5 -73q-129 0 -217 33.5t-157 95.5l18 253h51 q12 -33 20.5 -103.5t8.5 -119.5q45 -39 95 -58.5t120 -19.5q106 0 161.5 50.5t55.5 130.5q0 57 -30.5 96t-76.5 64.5t-128 60.5q-98 41 -156.5 75.5t-100.5 95t-42 150.5q0 104 82.5 163t199.5 75q0 143 -56 272t-220 129q-90 0 -150.5 -58t-60.5 -175v-1122q90 -14 164 -41 v-27h-555v29q121 37 163 39v870h-192z" />
<glyph unicode="&#xe0;" horiz-adv-x="1134" d="M55 276q0 160 114 232t296 72h289v155q0 115 -68 168t-188 53q-80 0 -166 -24.5t-162 -61.5l-14 72q86 45 194.5 70.5t220.5 25.5q190 0 300 -78.5t110 -211.5v-664q78 -16 141 -35v-18l-368 -37v143q-76 -84 -169 -120.5t-186 -36.5q-172 0 -258 75.5t-86 220.5z M281 279q0 -106 55 -159.5t147 -53.5q74 0 153 48t118 113v271h-236q-119 0 -178 -58.5t-59 -160.5zM338 1473q0 27 20.5 46t57.5 19q49 0 102 -53l242 -234l-39 -55l-303 176q-80 47 -80 101z" />
<glyph unicode="&#xe1;" horiz-adv-x="1134" d="M55 276q0 160 114 232t296 72h289v155q0 115 -68 168t-188 53q-80 0 -166 -24.5t-162 -61.5l-14 72q86 45 194.5 70.5t220.5 25.5q190 0 300 -78.5t110 -211.5v-664q78 -16 141 -35v-18l-368 -37v143q-76 -84 -169 -120.5t-186 -36.5q-172 0 -258 75.5t-86 220.5z M281 279q0 -106 55 -159.5t147 -53.5q74 0 153 48t118 113v271h-236q-119 0 -178 -58.5t-59 -160.5zM385 1251l240 232q47 55 104 55q37 0 56.5 -19.5t19.5 -45.5q0 -53 -78 -101l-303 -176z" />
<glyph unicode="&#xe2;" horiz-adv-x="1134" d="M55 276q0 160 114 232t296 72h289v155q0 115 -68 168t-188 53q-80 0 -166 -24.5t-162 -61.5l-14 72q86 45 194.5 70.5t220.5 25.5q190 0 300 -78.5t110 -211.5v-664q78 -16 141 -35v-18l-368 -37v143q-76 -84 -169 -120.5t-186 -36.5q-172 0 -258 75.5t-86 220.5z M238 1262q68 43 155.5 124.5t128.5 139.5h109q41 -57 129 -139t155 -125l-94 -76q-63 49 -133 116.5t-106 120.5h-11q-37 -53 -106.5 -120.5t-132.5 -116.5zM281 279q0 -106 55 -159.5t147 -53.5q74 0 153 48t118 113v271h-236q-119 0 -178 -58.5t-59 -160.5z" />
<glyph unicode="&#xe3;" horiz-adv-x="1134" d="M55 276q0 160 114 232t296 72h289v155q0 115 -68 168t-188 53q-80 0 -166 -24.5t-162 -61.5l-14 72q86 45 194.5 70.5t220.5 25.5q190 0 300 -78.5t110 -211.5v-664q78 -16 141 -35v-18l-368 -37v143q-76 -84 -169 -120.5t-186 -36.5q-172 0 -258 75.5t-86 220.5z M186 1196q15 109 71 163t146 54q47 0 90.5 -16.5t94.5 -46.5q45 -25 71.5 -36t51.5 -11q49 0 86 27.5t51 90.5h78q-12 -104 -66.5 -163.5t-150.5 -59.5q-39 0 -80 16.5t-99 47.5q-10 4 -40.5 19t-53 22.5t-39.5 7.5q-47 0 -82.5 -32t-46.5 -83h-82zM281 279 q0 -106 55 -159.5t147 -53.5q74 0 153 48t118 113v271h-236q-119 0 -178 -58.5t-59 -160.5z" />
<glyph unicode="&#xe4;" horiz-adv-x="1134" d="M55 276q0 160 114 232t296 72h289v155q0 115 -68 168t-188 53q-80 0 -166 -24.5t-162 -61.5l-14 72q86 45 194.5 70.5t220.5 25.5q190 0 300 -78.5t110 -211.5v-664q78 -16 141 -35v-18l-368 -37v143q-76 -84 -169 -120.5t-186 -36.5q-172 0 -258 75.5t-86 220.5z M217 1298q0 47 28.5 77t73.5 30q47 0 76 -29.5t29 -77.5q0 -45 -28.5 -74.5t-76.5 -29.5q-45 0 -73.5 29.5t-28.5 74.5zM281 279q0 -106 55 -159.5t147 -53.5q74 0 153 48t118 113v271h-236q-119 0 -178 -58.5t-59 -160.5zM682 1298q0 47 27.5 77t74.5 30q45 0 74 -29.5 t29 -77.5q0 -45 -29 -74.5t-74 -29.5q-47 0 -74.5 29.5t-27.5 74.5z" />
<glyph unicode="&#xe5;" horiz-adv-x="1134" d="M55 276q0 160 114 232t296 72h289v155q0 115 -68 168t-188 53q-80 0 -166 -24.5t-162 -61.5l-14 72q86 45 194.5 70.5t220.5 25.5q190 0 300 -78.5t110 -211.5v-664q78 -16 141 -35v-18l-368 -37v143q-76 -84 -169 -120.5t-186 -36.5q-172 0 -258 75.5t-86 220.5z M281 279q0 -106 55 -159.5t147 -53.5q74 0 153 48t118 113v271h-236q-119 0 -178 -58.5t-59 -160.5zM367 1362q0 84 56 137t144 53t144.5 -53t56.5 -137t-55.5 -136t-145.5 -52t-145 52t-55 136zM449 1362q0 -51 33.5 -83t84.5 -32t84 32t33 83t-33 83t-84 32t-84.5 -32 t-33.5 -83z" />
<glyph unicode="&#xe6;" horiz-adv-x="1810" d="M55 276q0 160 123 236t303 76h262q2 23 11 67q2 12 6 41t4 49q0 104 -76 157.5t-190 53.5q-80 0 -166 -24.5t-162 -61.5l-14 72q86 45 194.5 70.5t220.5 25.5q117 0 203 -36.5t129 -102.5q68 66 166 102.5t215 36.5q156 0 261.5 -64.5t156.5 -173t51 -241.5v-53h-786 q2 -215 106.5 -331t286.5 -116q84 0 170 28t151 75l23 -60q-66 -53 -167 -87.5t-228 -34.5q-139 0 -253 49t-188 141q-82 -100 -205.5 -145t-248.5 -45q-160 0 -259.5 75.5t-99.5 220.5zM281 279q0 -109 59 -161t154 -52q86 0 180 47t147 114q-76 117 -80 279h-204 q-121 0 -188.5 -62.5t-67.5 -164.5zM969 590h585q-4 150 -70.5 260.5t-205.5 110.5q-145 0 -223 -104.5t-86 -266.5z" />
<glyph unicode="&#xe7;" horiz-adv-x="1050" d="M61 508q0 168 70 286.5t196 181t291 62.5q233 0 383 -129l-16 -231h-49q-12 33 -20.5 93t-10.5 112q-106 74 -227 73q-184 0 -285.5 -117.5t-101.5 -338.5q0 -115 40 -216.5t124 -164t211 -62.5q82 0 170 28t151 77l21 -60q-53 -45 -138.5 -77.5t-189.5 -40.5l-53 -113 q108 0 167.5 -40t59.5 -110q0 -92 -73.5 -142t-190.5 -50q-49 0 -101.5 12.5t-91.5 34.5l39 66q61 -29 139 -29q72 0 115 25.5t43 82.5q0 43 -37 61.5t-90 18.5q-20 0 -49 -4l-47 62l61 121q-158 8 -272.5 75.5t-176 184t-61.5 268.5z" />
<glyph unicode="&#xe8;" horiz-adv-x="1128" d="M55 508q0 254 142.5 392t394.5 138q160 0 266.5 -65.5t157.5 -175t51 -244.5v-51h-782q4 -193 98 -319t276 -126q84 0 176.5 28t159.5 77l23 -60q-63 -51 -172 -86.5t-238 -35.5q-168 0 -293 65.5t-192.5 185t-67.5 277.5zM287 584h579q0 86 -26.5 172t-87 143t-158.5 57 q-139 0 -216 -105.5t-91 -266.5zM367 1473q0 27 20.5 46t56.5 19q49 0 103 -53l241 -234l-38 -55l-304 176q-79 48 -79 101z" />
<glyph unicode="&#xe9;" horiz-adv-x="1128" d="M55 508q0 254 142.5 392t394.5 138q160 0 266.5 -65.5t157.5 -175t51 -244.5v-51h-782q4 -193 98 -319t276 -126q84 0 176.5 28t159.5 77l23 -60q-63 -51 -172 -86.5t-238 -35.5q-168 0 -293 65.5t-192.5 185t-67.5 277.5zM287 584h579q0 86 -26.5 172t-87 143t-158.5 57 q-139 0 -216 -105.5t-91 -266.5zM403 1251l240 232q47 55 105 55q37 0 56 -19.5t19 -45.5q0 -53 -78 -101l-303 -176z" />
<glyph unicode="&#xea;" horiz-adv-x="1128" d="M55 508q0 254 142.5 392t394.5 138q160 0 266.5 -65.5t157.5 -175t51 -244.5v-51h-782q4 -193 98 -319t276 -126q84 0 176.5 28t159.5 77l23 -60q-63 -51 -172 -86.5t-238 -35.5q-168 0 -293 65.5t-192.5 185t-67.5 277.5zM242 1262q68 43 155.5 124.5t128.5 139.5h109 q41 -57 129 -139t156 -125l-95 -76q-63 49 -132.5 116.5t-106.5 120.5h-11q-36 -53 -106 -120.5t-133 -116.5zM287 584h579q0 86 -26.5 172t-87 143t-158.5 57q-139 0 -216 -105.5t-91 -266.5z" />
<glyph unicode="&#xeb;" horiz-adv-x="1128" d="M55 508q0 254 142.5 392t394.5 138q160 0 266.5 -65.5t157.5 -175t51 -244.5v-51h-782q4 -193 98 -319t276 -126q84 0 176.5 28t159.5 77l23 -60q-63 -51 -172 -86.5t-238 -35.5q-168 0 -293 65.5t-192.5 185t-67.5 277.5zM248 1298q0 47 28.5 77t73.5 30q47 0 76 -29.5 t29 -77.5q0 -45 -29 -74.5t-76 -29.5q-45 0 -73.5 29.5t-28.5 74.5zM287 584h579q0 86 -26.5 172t-87 143t-158.5 57q-139 0 -216 -105.5t-91 -266.5zM713 1298q0 47 27.5 77t74.5 30q45 0 74 -29.5t29 -77.5q0 -45 -29 -74.5t-74 -29.5q-47 0 -74.5 29.5t-27.5 74.5z" />
<glyph unicode="&#xec;" horiz-adv-x="696" d="M72 0v27q53 18 161 41v874q-84 16 -141 37v18l369 37v-966q96 -18 164 -41v-27h-553zM98 1473q0 27 20.5 46t57.5 19q49 0 103 -53l241 -234l-39 -55l-303 176q-80 47 -80 101z" />
<glyph unicode="&#xed;" horiz-adv-x="696" d="M72 0v27q53 18 161 41v874q-84 16 -141 37v18l369 37v-966q96 -18 164 -41v-27h-553zM131 1251l240 232q47 55 104 55q37 0 56.5 -19.5t19.5 -45.5q0 -53 -78 -101l-303 -176z" />
<glyph unicode="&#xee;" horiz-adv-x="696" d="M8 1262q68 43 156 124.5t129 139.5h108q41 -57 129 -139t156 -125l-94 -76q-63 49 -133 116.5t-107 120.5h-10q-37 -53 -106.5 -120.5t-133.5 -116.5zM72 0v27q53 18 161 41v874q-84 16 -141 37v18l369 37v-966q96 -18 164 -41v-27h-553z" />
<glyph unicode="&#xef;" horiz-adv-x="696" d="M12 1298q0 47 29 77t74 30q47 0 75.5 -29.5t28.5 -77.5q0 -45 -28.5 -74.5t-75.5 -29.5q-45 0 -74 29.5t-29 74.5zM72 0v27q53 18 161 41v874q-84 16 -141 37v18l369 37v-966q96 -18 164 -41v-27h-553zM477 1298q0 47 27.5 77t75.5 30q45 0 73.5 -29.5t28.5 -77.5 q0 -45 -28.5 -74.5t-73.5 -29.5q-48 0 -75.5 29.5t-27.5 74.5z" />
<glyph unicode="&#xf0;" horiz-adv-x="1239" d="M82 508q0 129 56.5 247.5t175 195.5t296.5 77q84 0 167 -32.5t132 -96.5q-33 100 -98.5 204.5t-157.5 196.5l-346 -196l-37 102l297 170q-113 90 -227 140l61 77q154 -61 275 -153q100 59 276 164l66 -99l-248 -139q182 -160 284.5 -364.5t102.5 -403.5 q0 -293 -140 -455.5t-417 -162.5q-164 0 -281.5 72.5t-177 192.5t-59.5 263zM309 508q0 -121 35 -222.5t101.5 -163t158.5 -61.5q152 0 239 140.5t87 351.5q0 102 -40 193.5t-111.5 145.5t-160.5 54q-90 0 -160.5 -56t-109.5 -156.5t-39 -225.5z" />
<glyph unicode="&#xf1;" horiz-adv-x="1392" d="M59 0v27q84 29 162 41v878q-84 16 -141 37v18l369 37v-151q70 68 172 109.5t217 41.5q158 0 255 -76.5t97 -211.5v-682q103 -16 162 -41v-27h-541v27q82 31 152 41v667q0 119 -55.5 170t-147.5 51q-76 0 -160 -38.5t-151 -116.5v-733q84 -14 163 -41v-27h-553zM305 1196 q14 109 70.5 163t146.5 54q47 0 90 -16.5t95 -46.5q45 -25 71.5 -36t50.5 -11q49 0 86 27.5t52 90.5h77q-12 -104 -66 -163.5t-151 -59.5q-39 0 -79.5 16.5t-98.5 47.5q-10 4 -40.5 19t-53.5 22.5t-39 7.5q-47 0 -83 -32t-46 -83h-82z" />
<glyph unicode="&#xf2;" horiz-adv-x="1220" d="M51 508q0 250 146.5 390t412.5 140t412.5 -140t146.5 -390t-146 -389t-413 -139q-266 0 -412.5 139t-146.5 389zM279 508q0 -209 89 -328t242 -119q152 0 241 119t89 328t-89 328.5t-241 119.5q-154 0 -242.5 -119.5t-88.5 -328.5zM387 1473q0 27 20.5 46t57.5 19 q49 0 102 -53l242 -234l-39 -55l-303 176q-80 47 -80 101z" />
<glyph unicode="&#xf3;" horiz-adv-x="1220" d="M51 508q0 250 146.5 390t412.5 140t412.5 -140t146.5 -390t-146 -389t-413 -139q-266 0 -412.5 139t-146.5 389zM279 508q0 -209 89 -328t242 -119q152 0 241 119t89 328t-89 328.5t-241 119.5q-154 0 -242.5 -119.5t-88.5 -328.5zM410 1251l239 232q47 55 105 55 q37 0 56 -19.5t19 -45.5q0 -53 -77 -101l-303 -176z" />
<glyph unicode="&#xf4;" horiz-adv-x="1220" d="M51 508q0 250 146.5 390t412.5 140t412.5 -140t146.5 -390t-146 -389t-413 -139q-266 0 -412.5 139t-146.5 389zM270 1262q68 43 156 124.5t129 139.5h109q41 -57 129 -139t155 -125l-94 -76q-63 49 -133 116.5t-107 120.5h-10q-37 -53 -106.5 -120.5t-132.5 -116.5z M279 508q0 -209 89 -328t242 -119q152 0 241 119t89 328t-89 328.5t-241 119.5q-154 0 -242.5 -119.5t-88.5 -328.5z" />
<glyph unicode="&#xf5;" horiz-adv-x="1220" d="M51 508q0 250 146.5 390t412.5 140t412.5 -140t146.5 -390t-146 -389t-413 -139q-266 0 -412.5 139t-146.5 389zM240 1196q14 109 70.5 163t146.5 54q47 0 90 -16.5t94 -46.5q45 -25 71.5 -36t51.5 -11q49 0 86 27.5t51 90.5h78q-12 -104 -66.5 -163.5t-150.5 -59.5 q-39 0 -80 16.5t-98 47.5q-10 4 -41 19t-53.5 22.5t-38.5 7.5q-47 0 -83 -32t-46 -83h-82zM279 508q0 -209 89 -328t242 -119q152 0 241 119t89 328t-89 328.5t-241 119.5q-154 0 -242.5 -119.5t-88.5 -328.5z" />
<glyph unicode="&#xf6;" horiz-adv-x="1220" d="M51 508q0 250 146.5 390t412.5 140t412.5 -140t146.5 -390t-146 -389t-413 -139q-266 0 -412.5 139t-146.5 389zM274 1298q0 47 29 77t74 30q47 0 75.5 -29.5t28.5 -77.5q0 -45 -28.5 -74.5t-75.5 -29.5q-45 0 -74 29.5t-29 74.5zM279 508q0 -209 89 -328t242 -119 q152 0 241 119t89 328t-89 328.5t-241 119.5q-154 0 -242.5 -119.5t-88.5 -328.5zM739 1298q0 47 28 77t75 30q45 0 73.5 -29.5t28.5 -77.5q0 -45 -28.5 -74.5t-73.5 -29.5q-47 0 -75 29.5t-28 74.5z" />
<glyph unicode="&#xf7;" horiz-adv-x="1218" d="M102 612v115h1014v-115h-1014zM475 324q0 55 34 90t89 35q57 0 91 -35t34 -90t-34 -89t-91 -34q-55 0 -89 33.5t-34 89.5zM477 1016q0 55 34 89t89 34q57 0 91 -34t34 -89t-34 -90t-91 -35q-55 0 -89 35t-34 90z" />
<glyph unicode="&#xf8;" horiz-adv-x="1220" d="M51 508q0 250 146.5 390t412.5 140q180 0 308 -65l83 104l76 -57l-80 -98q172 -142 172 -414q0 -250 -146 -389t-413 -139q-186 0 -315 69l-94 -117l-70 56l88 110q-168 143 -168 410zM276 508q1 -161 56 -270l499 626q-88 92 -221 92q-154 0 -244 -119.5t-90 -328.5z M383 160q88 -98 227 -99q152 0 243 119t91 328q0 164 -57 274z" />
<glyph unicode="&#xf9;" horiz-adv-x="1333" d="M41 983v18l369 37v-753q0 -223 204 -224q68 0 154 35t154 94v756q-84 16 -140 37v18l367 37v-968q61 -10 143 -35v-19l-370 -36v126q-74 -55 -170.5 -90.5t-198.5 -35.5q-172 0 -271.5 75.5t-99.5 208.5v682q-88 18 -141 37zM444 1473q0 27 20.5 46t57.5 19q49 0 103 -53 l241 -234l-39 -55l-303 176q-80 48 -80 101z" />
<glyph unicode="&#xfa;" horiz-adv-x="1333" d="M41 983v18l369 37v-753q0 -223 204 -224q68 0 154 35t154 94v756q-84 16 -140 37v18l367 37v-968q61 -10 143 -35v-19l-370 -36v126q-74 -55 -170.5 -90.5t-198.5 -35.5q-172 0 -271.5 75.5t-99.5 208.5v682q-88 18 -141 37zM494 1251l239 232q47 55 105 55 q37 0 56 -19.5t19 -45.5q0 -53 -77 -101l-304 -176z" />
<glyph unicode="&#xfb;" horiz-adv-x="1333" d="M41 983v18l369 37v-753q0 -223 204 -224q68 0 154 35t154 94v756q-84 16 -140 37v18l367 37v-968q61 -10 143 -35v-19l-370 -36v126q-74 -55 -170.5 -90.5t-198.5 -35.5q-172 0 -271.5 75.5t-99.5 208.5v682q-88 18 -141 37zM317 1262q68 43 156 124.5t129 139.5h109 q41 -57 129 -139t155 -125l-94 -76q-63 49 -133 116.5t-106 120.5h-11q-37 -53 -106.5 -120.5t-132.5 -116.5z" />
<glyph unicode="&#xfc;" horiz-adv-x="1333" d="M41 983v18l369 37v-753q0 -223 204 -224q68 0 154 35t154 94v756q-84 16 -140 37v18l367 37v-968q61 -10 143 -35v-19l-370 -36v126q-74 -55 -170.5 -90.5t-198.5 -35.5q-172 0 -271.5 75.5t-99.5 208.5v682q-88 18 -141 37zM322 1298q0 47 28.5 77t73.5 30 q47 0 75.5 -29.5t28.5 -77.5q0 -45 -28.5 -74.5t-75.5 -29.5q-45 0 -73.5 29.5t-28.5 74.5zM786 1298q0 47 28 77t75 30q45 0 73.5 -29.5t28.5 -77.5q0 -45 -28.5 -74.5t-73.5 -29.5q-47 0 -75 29.5t-28 74.5z" />
<glyph unicode="&#xfd;" horiz-adv-x="1187" d="M8 993v27h514v-29q-45 -16 -164 -35l283 -716l272 721q-70 6 -153 30v29h420v-25q-61 -25 -142 -39l-401 -1056q-41 -109 -79 -169.5t-96.5 -92t-152.5 -31.5q-104 0 -205 43l37 106q90 -35 162 -35q57 0 93 17.5t67 66t67 144.5l23 59l-410 950q-82 12 -135 35z M465 1251l240 232q47 55 104 55q37 0 56.5 -19.5t19.5 -45.5q0 -53 -78 -101l-303 -176z" />
<glyph unicode="&#xfe;" horiz-adv-x="1271" d="M23 -463q49 14 163 39v1782q-86 16 -141 35v20l369 37v-553q72 82 161 111.5t168 29.5q227 0 352.5 -126t125.5 -377q0 -285 -129 -420t-369 -135q-96 0 -180 33.5t-129 107.5v-547q80 -12 161 -39v-29h-552v31zM414 348q0 -119 75.5 -203t204.5 -84q158 0 227.5 126 t69.5 337q0 217 -67.5 324.5t-227.5 107.5q-82 0 -156.5 -46t-125.5 -115v-447z" />
<glyph unicode="&#xff;" horiz-adv-x="1187" d="M8 993v27h514v-29q-45 -16 -164 -35l283 -716l272 721q-70 6 -153 30v29h420v-25q-61 -25 -142 -39l-401 -1056q-41 -109 -79 -169.5t-96.5 -92t-152.5 -31.5q-104 0 -205 43l37 106q90 -35 162 -35q57 0 93 17.5t67 66t67 144.5l23 59l-410 950q-82 12 -135 35z M291 1298q0 47 28.5 77t73.5 30q47 0 76 -29.5t29 -77.5q0 -45 -29 -74.5t-76 -29.5q-45 0 -73.5 29.5t-28.5 74.5zM756 1298q0 47 27.5 77t74.5 30q45 0 74 -29.5t29 -77.5q0 -45 -29 -74.5t-74 -29.5q-47 0 -74.5 29.5t-27.5 74.5z" />
<glyph unicode="&#x100;" horiz-adv-x="1517" d="M14 0v33q37 12 83 24.5t77 16.5l504 1368h162l503 -1372q80 -12 160 -41v-29h-555v31q76 29 166 39l-106 301h-598l-109 -303q88 -10 170 -41v-27h-457zM401 1608v82h721v-82h-721zM440 453h539l-268 755z" />
<glyph unicode="&#x101;" horiz-adv-x="1134" d="M55 276q0 160 114 232t296 72h289v155q0 115 -68 168t-188 53q-80 0 -166 -24.5t-162 -61.5l-14 72q86 45 194.5 70.5t220.5 25.5q190 0 300 -78.5t110 -211.5v-664q78 -16 141 -35v-18l-368 -37v143q-76 -84 -169 -120.5t-186 -36.5q-172 0 -258 75.5t-86 220.5z M193 1196v82h720v-82h-720zM281 279q0 -106 55 -159.5t147 -53.5q74 0 153 48t118 113v271h-236q-119 0 -178 -58.5t-59 -160.5z" />
<glyph unicode="&#x102;" horiz-adv-x="1517" d="M14 0v33q37 12 83 24.5t77 16.5l504 1368h162l503 -1372q80 -12 160 -41v-29h-555v31q76 29 166 39l-106 301h-598l-109 -303q88 -10 170 -41v-27h-457zM412 1851h135q10 -102 65.5 -138t135.5 -36t135 36t65 138h135q-18 -129 -106 -194.5t-229 -65.5q-142 0 -230 65.5 t-106 194.5zM440 453h539l-268 755z" />
<glyph unicode="&#x103;" horiz-adv-x="1134" d="M55 276q0 160 114 232t296 72h289v155q0 115 -68 168t-188 53q-80 0 -166 -24.5t-162 -61.5l-14 72q86 45 194.5 70.5t220.5 25.5q190 0 300 -78.5t110 -211.5v-664q78 -16 141 -35v-18l-368 -37v143q-76 -84 -169 -120.5t-186 -36.5q-172 0 -258 75.5t-86 220.5z M252 1442h135q10 -102 65.5 -138t135.5 -36t135 35.5t65 138.5h136q-18 -129 -106.5 -194.5t-229.5 -65.5q-142 0 -230 65.5t-106 194.5zM281 279q0 -106 55 -159.5t147 -53.5q74 0 153 48t118 113v271h-236q-119 0 -178 -58.5t-59 -160.5z" />
<glyph unicode="&#x104;" horiz-adv-x="1517" d="M14 0v33q37 12 83 24.5t77 16.5l504 1368h162l503 -1372q80 -12 160 -41v-29h-10q-51 -31 -86 -82t-35 -102q0 -49 35 -77t92 -28q56 0 119 33v-98q-76 -41 -191 -41q-109 0 -169 48t-60 122q0 72 48 134t130 91h-428v31q76 29 166 39l-106 301h-598l-109 -303 q88 -10 170 -41v-27h-457zM440 453h539l-268 755z" />
<glyph unicode="&#x105;" horiz-adv-x="1134" d="M55 276q0 160 114 232t296 72h289v155q0 115 -68 168t-188 53q-80 0 -166 -24.5t-162 -61.5l-14 72q86 45 194.5 70.5t220.5 25.5q190 0 300 -78.5t110 -211.5v-664q78 -16 141 -35v-18l-71 -6q-123 -82 -123 -197q0 -49 34.5 -76.5t92.5 -27.5q56 -1 119 32v-98 q-76 -41 -191 -41q-109 0 -169 48t-60 122q0 70 47 132.5t129 92.5l-176 -18v143q-76 -84 -169 -120.5t-186 -36.5q-172 0 -258 75.5t-86 220.5zM281 279q0 -106 55 -159.5t147 -53.5q74 0 153 48t118 113v271h-236q-119 0 -178 -58.5t-59 -160.5z" />
<glyph unicode="&#x106;" horiz-adv-x="1298" d="M92 717q0 346 174 541.5t498 195.5q285 0 446 -147l-22 -267h-58q-14 43 -26 112t-17 132q-51 39 -118.5 61.5t-145.5 22.5q-242 0 -367.5 -176t-125.5 -475q0 -303 116.5 -477t358.5 -174q82 0 182 29.5t184 86.5l33 -65q-76 -66 -189.5 -101.5t-246.5 -35.5 q-332 0 -504 194.5t-172 542.5zM621 1665l239 231q47 55 105 56q37 0 56 -19.5t19 -46.5q0 -53 -77 -100l-304 -176z" />
<glyph unicode="&#x107;" horiz-adv-x="1050" d="M61 508q0 168 70 286.5t196 181t291 62.5q233 0 383 -129l-16 -231h-49q-12 33 -20.5 93t-10.5 112q-106 74 -227 73q-184 0 -285.5 -117.5t-101.5 -338.5q0 -115 40 -216.5t124 -164t211 -62.5q82 0 170 28t151 77l21 -60q-63 -53 -168 -87.5t-232 -34.5 q-168 0 -290.5 65.5t-189.5 185t-67 277.5zM465 1251l240 232q47 55 104 55q37 0 56.5 -19.5t19.5 -45.5q0 -53 -78 -101l-303 -176z" />
<glyph unicode="&#x108;" horiz-adv-x="1298" d="M92 717q0 346 174 541.5t498 195.5q285 0 446 -147l-22 -267h-58q-14 43 -26 112t-17 132q-51 39 -118.5 61.5t-145.5 22.5q-242 0 -367.5 -176t-125.5 -475q0 -303 116.5 -477t358.5 -174q82 0 182 29.5t184 86.5l33 -65q-76 -66 -189.5 -101.5t-246.5 -35.5 q-332 0 -504 194.5t-172 542.5zM446 1675q68 43 156 125t129 139h109q41 -57 129 -139t155 -125l-94 -76q-63 49 -133 117t-106 121h-11q-37 -53 -106.5 -120.5t-132.5 -117.5z" />
<glyph unicode="&#x109;" horiz-adv-x="1050" d="M61 508q0 168 70 286.5t196 181t291 62.5q233 0 383 -129l-16 -231h-49q-12 33 -20.5 93t-10.5 112q-106 74 -227 73q-184 0 -285.5 -117.5t-101.5 -338.5q0 -115 40 -216.5t124 -164t211 -62.5q82 0 170 28t151 77l21 -60q-63 -53 -168 -87.5t-232 -34.5 q-168 0 -290.5 65.5t-189.5 185t-67 277.5zM297 1262q68 43 156 124.5t129 139.5h108q41 -57 129 -139t156 -125l-94 -76q-63 49 -133 116.5t-107 120.5h-10q-37 -53 -106.5 -120.5t-133.5 -116.5z" />
<glyph unicode="&#x10a;" horiz-adv-x="1298" d="M92 717q0 346 174 541.5t498 195.5q285 0 446 -147l-22 -267h-58q-14 43 -26 112t-17 132q-51 39 -118.5 61.5t-145.5 22.5q-242 0 -367.5 -176t-125.5 -475q0 -303 116.5 -477t358.5 -174q82 0 182 29.5t184 86.5l33 -65q-76 -66 -189.5 -101.5t-246.5 -35.5 q-332 0 -504 194.5t-172 542.5zM696 1712q0 47 28 77t75 30q45 0 73.5 -30t28.5 -77q0 -45 -28.5 -74.5t-73.5 -29.5q-47 0 -75 29.5t-28 74.5z" />
<glyph unicode="&#x10b;" horiz-adv-x="1050" d="M61 508q0 168 70 286.5t196 181t291 62.5q233 0 383 -129l-16 -231h-49q-12 33 -20.5 93t-10.5 112q-106 74 -227 73q-184 0 -285.5 -117.5t-101.5 -338.5q0 -115 40 -216.5t124 -164t211 -62.5q82 0 170 28t151 77l21 -60q-63 -53 -168 -87.5t-232 -34.5 q-168 0 -290.5 65.5t-189.5 185t-67 277.5zM528 1298q0 47 28 77t75 30q45 0 73.5 -29.5t28.5 -77.5q0 -45 -28.5 -74.5t-73.5 -29.5q-47 0 -75 29.5t-28 74.5z" />
<glyph unicode="&#x10c;" horiz-adv-x="1298" d="M92 717q0 346 174 541.5t498 195.5q285 0 446 -147l-22 -267h-58q-14 43 -26 112t-17 132q-51 39 -118.5 61.5t-145.5 22.5q-242 0 -367.5 -176t-125.5 -475q0 -303 116.5 -477t358.5 -174q82 0 182 29.5t184 86.5l33 -65q-76 -66 -189.5 -101.5t-246.5 -35.5 q-332 0 -504 194.5t-172 542.5zM465 1876l94 74q63 -47 133 -115t107 -121h10q37 53 106.5 121t133.5 115l94 -74q-70 -47 -158 -128t-127 -138h-108q-39 57 -127 138t-158 128z" />
<glyph unicode="&#x10d;" horiz-adv-x="1050" d="M61 508q0 168 70 286.5t196 181t291 62.5q233 0 383 -129l-16 -231h-49q-12 33 -20.5 93t-10.5 112q-106 74 -227 73q-184 0 -285.5 -117.5t-101.5 -338.5q0 -115 40 -216.5t124 -164t211 -62.5q82 0 170 28t151 77l21 -60q-63 -53 -168 -87.5t-232 -34.5 q-168 0 -290.5 65.5t-189.5 185t-67 277.5zM305 1462l94 74q63 -47 133 -114.5t107 -121.5h10q37 53 106.5 121t133.5 115l94 -74q-70 -47 -158 -128t-127 -138h-108q-39 57 -127 138t-158 128z" />
<glyph unicode="&#x10e;" horiz-adv-x="1402" d="M76 0v31q94 31 162 39v1294q-76 14 -162 41v29h635q322 0 469 -182.5t147 -534.5t-148.5 -534.5t-469.5 -182.5h-633zM354 1876l95 74q63 -47 132.5 -115t106.5 -121h10q37 53 106.5 121t133.5 115l94 -74q-70 -47 -158 -128t-126 -138h-109q-39 57 -127 138t-158 128z M469 82h236q209 0 297 165t88 470t-88.5 469t-292.5 164h-240v-1268z" />
<glyph unicode="&#x10f;" horiz-adv-x="1515" d="M61 496q0 250 131.5 396t360.5 146q92 0 170 -26.5t145 -100.5v443q-84 16 -139 37v18l367 37v-1362q86 -16 141 -35v-16l-319 -45q-10 68 -19 182q-55 -94 -152.5 -142t-224.5 -48q-219 0 -340 125.5t-121 390.5zM289 494q0 -207 71.5 -320t225.5 -113q123 0 202.5 81 t79.5 208v461q-121 145 -270 145q-160 0 -234.5 -137t-74.5 -325zM1225 1333q0 53 36.5 83t88.5 30q68 0 100.5 -39t32.5 -104q0 -96 -47 -201t-119 -170l-76 59q41 45 73 106.5t40 123.5q-129 0 -129 112z" />
<glyph unicode="&#x110;" horiz-adv-x="1402" d="M76 0v31q94 31 162 39v571h-144v82h144v641q-76 14 -162 41v29h635q321 0 468.5 -182.5t147.5 -534.5t-148.5 -534.5t-469.5 -182.5h-633zM469 82h236q208 0 296.5 165t88.5 470t-88.5 469t-292.5 164h-240v-627h328v-82h-328v-559z" />
<glyph unicode="&#x111;" horiz-adv-x="1249" d="M61 496q0 250 131.5 396t360.5 146q92 0 170 -26.5t145 -100.5v246h-325v86h325v146q-80 16 -139 34v21l367 37v-238h98v-86h-98v-1073q86 -16 141 -35v-16l-319 -45q-10 68 -19 182q-55 -94 -152.5 -142t-224.5 -48q-219 0 -340 125.5t-121 390.5zM289 494 q0 -207 71.5 -320t225.5 -113q123 0 202.5 81t79.5 208v461q-121 145 -270 145q-160 0 -234.5 -137t-74.5 -325z" />
<glyph unicode="&#x112;" horiz-adv-x="1288" d="M76 0v31q98 33 172 41v1292q-72 10 -172 41v29h1089v-320h-53q-18 31 -38.5 111t-24.5 125h-568v-613h404q4 35 14 85t25 87h39v-428h-39q-14 37 -24.5 87t-14.5 85h-404v-571h576q4 47 33.5 125t52.5 110h53l-33 -317h-1087zM350 1608v82h721v-82h-721z" />
<glyph unicode="&#x113;" horiz-adv-x="1128" d="M55 508q0 254 142.5 392t394.5 138q160 0 266.5 -65.5t157.5 -175t51 -244.5v-51h-782q4 -193 98 -319t276 -126q84 0 176.5 28t159.5 77l23 -60q-63 -51 -172 -86.5t-238 -35.5q-168 0 -293 65.5t-192.5 185t-67.5 277.5zM213 1196v82h721v-82h-721zM287 584h579 q0 86 -26.5 172t-87 143t-158.5 57q-139 0 -216 -105.5t-91 -266.5z" />
<glyph unicode="&#x114;" horiz-adv-x="1288" d="M76 0v31q98 33 172 41v1292q-72 10 -172 41v29h1089v-320h-53q-18 31 -38.5 111t-24.5 125h-568v-613h404q4 35 14 85t25 87h39v-428h-39q-14 37 -24.5 87t-14.5 85h-404v-571h576q4 47 33.5 125t52.5 110h53l-33 -317h-1087zM389 1855h135q10 -102 65.5 -138t135.5 -36 t135 36t66 138h135q-18 -129 -106.5 -194.5t-229.5 -65.5t-229 65.5t-107 194.5z" />
<glyph unicode="&#x115;" horiz-adv-x="1128" d="M55 508q0 254 142.5 392t394.5 138q160 0 266.5 -65.5t157.5 -175t51 -244.5v-51h-782q4 -193 98 -319t276 -126q84 0 176.5 28t159.5 77l23 -60q-63 -51 -172 -86.5t-238 -35.5q-168 0 -293 65.5t-192.5 185t-67.5 277.5zM227 1442h135q10 -102 65.5 -138t135.5 -36 t135.5 35.5t65.5 138.5h135q-18 -129 -106 -194.5t-230 -65.5q-141 0 -229 65.5t-107 194.5zM287 584h579q0 86 -26.5 172t-87 143t-158.5 57q-139 0 -216 -105.5t-91 -266.5z" />
<glyph unicode="&#x116;" horiz-adv-x="1288" d="M76 0v31q98 33 172 41v1292q-72 10 -172 41v29h1089v-320h-53q-18 31 -38.5 111t-24.5 125h-568v-613h404q4 35 14 85t25 87h39v-428h-39q-14 37 -24.5 87t-14.5 85h-404v-571h576q4 47 33.5 125t52.5 110h53l-33 -317h-1087zM631 1712q0 47 27.5 77t74.5 30q45 0 74 -30 t29 -77q0 -45 -29 -74.5t-74 -29.5q-47 0 -74.5 29.5t-27.5 74.5z" />
<glyph unicode="&#x117;" horiz-adv-x="1128" d="M55 508q0 254 142.5 392t394.5 138q160 0 266.5 -65.5t157.5 -175t51 -244.5v-51h-782q4 -193 98 -319t276 -126q84 0 176.5 28t159.5 77l23 -60q-63 -51 -172 -86.5t-238 -35.5q-168 0 -293 65.5t-192.5 185t-67.5 277.5zM287 584h579q0 86 -26.5 172t-87 143t-158.5 57 q-139 0 -216 -105.5t-91 -266.5zM492 1298q0 47 27.5 77t74.5 30q45 0 73.5 -29.5t28.5 -77.5q0 -45 -28.5 -74.5t-73.5 -29.5q-47 0 -74.5 29.5t-27.5 74.5z" />
<glyph unicode="&#x118;" horiz-adv-x="1288" d="M76 0v31q98 33 172 41v1292q-72 10 -172 41v29h1089v-320h-53q-18 31 -38.5 111t-24.5 125h-568v-613h404q4 35 14 85t25 87h39v-428h-39q-14 37 -24.5 87t-14.5 85h-404v-571h576q4 47 33.5 125t52.5 110h53l-33 -317h-59q-51 -31 -86 -82t-35 -102q0 -49 35 -77t92 -28 q56 0 119 33v-98q-76 -41 -191 -41q-109 0 -169 48t-60 122q0 72 48 134t130 91h-911z" />
<glyph unicode="&#x119;" horiz-adv-x="1128" d="M55 508q0 254 142.5 392t394.5 138q160 0 266.5 -65.5t157.5 -175t51 -244.5v-51h-782q4 -193 98 -319t276 -126q84 0 176.5 28t159.5 77l23 -60q-20 -18 -51 -34q-45 -33 -74 -79t-29 -93q0 -49 35 -77t92 -28q56 0 119 33v-98q-76 -41 -190 -41q-109 0 -169.5 48 t-60.5 122t49 135q-68 -10 -131 -10q-168 0 -293 65.5t-192.5 185t-67.5 277.5zM287 584h579q0 86 -26.5 172t-87 143t-158.5 57q-139 0 -216 -105.5t-91 -266.5z" />
<glyph unicode="&#x11a;" horiz-adv-x="1288" d="M76 0v31q98 33 172 41v1292q-72 10 -172 41v29h1089v-320h-53q-18 31 -38.5 111t-24.5 125h-568v-613h404q4 35 14 85t25 87h39v-428h-39q-14 37 -24.5 87t-14.5 85h-404v-571h576q4 47 33.5 125t52.5 110h53l-33 -317h-1087zM379 1876l94 74q63 -47 133 -115t107 -121 h10q37 53 106.5 121t133.5 115l94 -74q-70 -47 -158 -128t-127 -138h-108q-39 57 -127 138t-158 128z" />
<glyph unicode="&#x11b;" horiz-adv-x="1128" d="M55 508q0 254 142.5 392t394.5 138q160 0 266.5 -65.5t157.5 -175t51 -244.5v-51h-782q4 -193 98 -319t276 -126q84 0 176.5 28t159.5 77l23 -60q-63 -51 -172 -86.5t-238 -35.5q-168 0 -293 65.5t-192.5 185t-67.5 277.5zM256 1462l94 74q63 -47 133 -114.5t107 -121.5 h10q37 53 106.5 121t133.5 115l94 -74q-70 -47 -158 -128t-127 -138h-108q-39 57 -127 138t-158 128zM287 584h579q0 86 -26.5 172t-87 143t-158.5 57q-139 0 -216 -105.5t-91 -266.5z" />
<glyph unicode="&#x11c;" horiz-adv-x="1409" d="M76 717q0 227 82 393t238.5 255t371.5 89q156 0 292 -40t210 -107l-23 -267h-57q-14 45 -26.5 114t-16.5 130q-47 37 -141.5 60.5t-178.5 23.5q-246 0 -380 -177t-134 -474q0 -303 119 -477t363 -174q47 0 112.5 12t112.5 35v516q-102 18 -162 39v28h531v-22 q-66 -37 -144 -49v-525q-76 -57 -211 -88.5t-276 -31.5q-334 0 -508 194.5t-174 542.5zM461 1675q68 43 156 125t128 139h109q41 -57 129 -139t156 -125l-95 -76q-63 49 -132.5 117t-106.5 121h-10q-37 -53 -107 -120.5t-133 -117.5z" />
<glyph unicode="&#x11d;" horiz-adv-x="1107" d="M76 -59q0 104 100 168q-39 25 -57.5 61.5t-18.5 75.5q0 115 119 188q-143 90 -143 266q0 160 120.5 249t333.5 89q197 0 316 -77q27 29 44 62.5t17 53.5h164q-8 -47 -44 -97t-99 -97q55 -74 55 -183q0 -162 -120 -250t-333 -88q-109 0 -208 27q-43 -31 -43 -70 q0 -31 28.5 -49t81.5 -18h346q144 0 229 -65.5t85 -200.5q0 -303 -508 -303q-213 0 -339 67.5t-126 190.5zM219 1262q68 43 156 124.5t129 139.5h108q41 -57 129 -139t156 -125l-94 -76q-63 49 -133 116.5t-107 120.5h-10q-37 -53 -106.5 -120.5t-133.5 -116.5zM254 -45 q0 -88 77 -136t208 -48q137 0 221 42t84 121q0 63 -48 98.5t-141 35.5h-319l-51 2q-31 -45 -31 -115zM301 700q0 -113 58.5 -184.5t170.5 -71.5q111 0 169.5 72t58.5 184q0 113 -58.5 184.5t-169.5 71.5q-112 0 -170.5 -71.5t-58.5 -184.5z" />
<glyph unicode="&#x11e;" horiz-adv-x="1409" d="M76 717q0 227 82 393t238.5 255t371.5 89q156 0 292 -40t210 -107l-23 -267h-57q-14 45 -26.5 114t-16.5 130q-47 37 -141.5 60.5t-178.5 23.5q-246 0 -380 -177t-134 -474q0 -303 119 -477t363 -174q47 0 112.5 12t112.5 35v516q-102 18 -162 39v28h531v-22 q-66 -37 -144 -49v-525q-76 -57 -211 -88.5t-276 -31.5q-334 0 -508 194.5t-174 542.5zM436 1855h135q10 -102 65.5 -138t135.5 -36t135.5 36t65.5 138h135q-18 -129 -106.5 -194.5t-229.5 -65.5t-229 65.5t-107 194.5z" />
<glyph unicode="&#x11f;" horiz-adv-x="1107" d="M76 -59q0 104 100 168q-39 25 -57.5 61.5t-18.5 75.5q0 115 119 188q-143 90 -143 266q0 160 120.5 249t333.5 89q197 0 316 -77q27 29 44 62.5t17 53.5h164q-8 -47 -44 -97t-99 -97q55 -74 55 -183q0 -162 -120 -250t-333 -88q-109 0 -208 27q-43 -31 -43 -70 q0 -31 28.5 -49t81.5 -18h346q144 0 229 -65.5t85 -200.5q0 -303 -508 -303q-213 0 -339 67.5t-126 190.5zM221 1442h135q10 -102 65.5 -138t135.5 -36t135.5 35.5t65.5 138.5h135q-18 -129 -106.5 -194.5t-229.5 -65.5t-229 65.5t-107 194.5zM254 -45q0 -88 77 -136 t208 -48q137 0 221 42t84 121q0 63 -48 98.5t-141 35.5h-319l-51 2q-31 -45 -31 -115zM301 700q0 -113 58.5 -184.5t170.5 -71.5q111 0 169.5 72t58.5 184q0 113 -58.5 184.5t-169.5 71.5q-112 0 -170.5 -71.5t-58.5 -184.5z" />
<glyph unicode="&#x120;" horiz-adv-x="1409" d="M76 717q0 227 82 393t238.5 255t371.5 89q156 0 292 -40t210 -107l-23 -267h-57q-14 45 -26.5 114t-16.5 130q-47 37 -141.5 60.5t-178.5 23.5q-246 0 -380 -177t-134 -474q0 -303 119 -477t363 -174q47 0 112.5 12t112.5 35v516q-102 18 -162 39v28h531v-22 q-66 -37 -144 -49v-525q-76 -57 -211 -88.5t-276 -31.5q-334 0 -508 194.5t-174 542.5zM694 1712q0 47 28 77t75 30q45 0 73.5 -30t28.5 -77q0 -45 -28.5 -74.5t-73.5 -29.5q-47 0 -75 29.5t-28 74.5z" />
<glyph unicode="&#x121;" horiz-adv-x="1107" d="M76 -59q0 104 100 168q-39 25 -57.5 61.5t-18.5 75.5q0 115 119 188q-143 90 -143 266q0 160 120.5 249t333.5 89q197 0 316 -77q27 29 44 62.5t17 53.5h164q-8 -47 -44 -97t-99 -97q55 -74 55 -183q0 -162 -120 -250t-333 -88q-109 0 -208 27q-43 -31 -43 -70 q0 -31 28.5 -49t81.5 -18h346q144 0 229 -65.5t85 -200.5q0 -303 -508 -303q-213 0 -339 67.5t-126 190.5zM254 -45q0 -88 77 -136t208 -48q137 0 221 42t84 121q0 63 -48 98.5t-141 35.5h-319l-51 2q-31 -45 -31 -115zM301 700q0 -113 58.5 -184.5t170.5 -71.5 q111 0 169.5 72t58.5 184q0 113 -58.5 184.5t-169.5 71.5q-112 0 -170.5 -71.5t-58.5 -184.5zM440 1298q0 47 28 77t75 30q45 0 73.5 -29.5t28.5 -77.5q0 -45 -28.5 -74.5t-73.5 -29.5q-47 0 -75 29.5t-28 74.5z" />
<glyph unicode="&#x122;" horiz-adv-x="1409" d="M76 717q0 227 82 393t238.5 255t371.5 89q156 0 292 -40t210 -107l-23 -267h-57q-14 45 -26.5 114t-16.5 130q-47 37 -141.5 60.5t-178.5 23.5q-246 0 -380 -177t-134 -474q0 -303 119 -477t363 -174q47 0 112.5 12t112.5 35v516q-102 18 -162 39v28h531v-22 q-66 -37 -144 -49v-525q-76 -57 -211 -88.5t-276 -31.5q-334 0 -508 194.5t-174 542.5zM651 -262q0 53 37 82.5t88 29.5q68 0 100.5 -38.5t32.5 -104.5q0 -96 -47 -200.5t-119 -170.5l-75 60q41 45 72.5 106.5t39.5 122.5q-129 0 -129 113z" />
<glyph unicode="&#x123;" horiz-adv-x="1107" d="M76 -59q0 104 100 168q-39 25 -57.5 61.5t-18.5 75.5q0 115 119 188q-143 90 -143 266q0 160 120.5 249t333.5 89q197 0 316 -77q27 29 44 62.5t17 53.5h164q-8 -47 -44 -97t-99 -97q55 -74 55 -183q0 -162 -120 -250t-333 -88q-109 0 -208 27q-43 -31 -43 -70 q0 -31 28.5 -49t81.5 -18h346q144 0 229 -65.5t85 -200.5q0 -303 -508 -303q-213 0 -339 67.5t-126 190.5zM254 -45q0 -88 77 -136t208 -48q137 0 221 42t84 121q0 63 -48 98.5t-141 35.5h-319l-51 2q-31 -45 -31 -115zM301 700q0 -113 58.5 -184.5t170.5 -71.5 q111 0 169.5 72t58.5 184q0 113 -58.5 184.5t-169.5 71.5q-112 0 -170.5 -71.5t-58.5 -184.5zM416 1331q0 96 47 200.5t119 170.5l75 -60q-41 -45 -72.5 -106t-39.5 -123q129 0 129 -113q0 -53 -37 -82.5t-88 -29.5q-68 0 -100.5 39t-32.5 104z" />
<glyph unicode="&#x124;" horiz-adv-x="1644" d="M76 0v31q94 31 162 39v1294q-92 18 -162 41v29h555v-27q-61 -23 -90 -31t-70 -12v-594h700v596q-66 10 -157 39v29h555v-31q-109 -35 -164 -41v-1294q90 -14 164 -41v-27h-555v25q61 25 88.5 33t68.5 12v616h-700v-618q98 -20 160 -41v-27h-555zM483 1675q68 43 156 125 t129 139h109q41 -57 129 -139t155 -125l-94 -76q-63 49 -133 117t-107 121h-10q-37 -53 -106.5 -120.5t-132.5 -117.5z" />
<glyph unicode="&#x125;" horiz-adv-x="1394" d="M59 0v27q82 33 162 41v1286q-84 16 -141 37v18l369 37v-561q70 70 171 111.5t218 41.5q158 0 255 -76.5t97 -211.5v-682q84 -14 164 -41v-27h-545v27q82 31 154 41v667q0 119 -55.5 170t-147.5 51q-76 0 -159 -39.5t-152 -115.5v-733q80 -12 151 -41v-27h-541zM377 1663 q68 43 156 125t129 139h108q41 -57 129 -139t156 -125l-94 -76q-63 49 -133 117t-107 121h-10q-37 -53 -106.5 -121t-133.5 -117z" />
<glyph unicode="&#x126;" horiz-adv-x="1644" d="M76 0v31q94 31 162 39v956h-123v82h123v256q-92 18 -162 41v29h555v-27q-61 -23 -90 -31t-70 -12v-256h700v258q-66 10 -157 39v29h555v-31q-109 -35 -164 -41v-254h125v-82h-125v-958q90 -14 164 -41v-27h-555v25q61 25 88.5 33t68.5 12v616h-700v-618q98 -20 160 -41 v-27h-555zM471 770h700v256h-700v-256z" />
<glyph unicode="&#x127;" horiz-adv-x="1394" d="M59 0v27q82 33 162 41v1085h-133v86h133v115q-84 16 -141 37v18l369 37v-207h290v-86h-290v-268q70 70 171 111.5t218 41.5q158 0 255 -76.5t97 -211.5v-682q84 -14 164 -41v-27h-545v27q82 31 154 41v667q0 119 -55.5 170t-147.5 51q-76 0 -159 -39.5t-152 -115.5v-733 q80 -12 151 -41v-27h-541z" />
<glyph unicode="&#x128;" horiz-adv-x="724" d="M-8 1610q14 108 70.5 162.5t146.5 54.5q47 0 90 -16.5t94 -47.5q45 -25 72 -36t51 -11q49 0 86 28t51 91h78q-12 -104 -66.5 -163.5t-150.5 -59.5q-39 0 -80 16.5t-98 46.5q-10 4 -41 19.5t-53.5 22.5t-38.5 7q-47 0 -83 -31.5t-46 -82.5h-82zM80 0v31q82 25 166 39v1294 q-68 10 -166 41v29h565v-31q-59 -20 -166 -39v-1296q82 -12 166 -39v-29h-565z" />
<glyph unicode="&#x129;" horiz-adv-x="696" d="M-23 1196q15 109 71 163t147 54q47 0 90 -16.5t94 -46.5q45 -25 71.5 -36t51.5 -11q49 0 86 27.5t51 90.5h78q-12 -104 -66.5 -163.5t-150.5 -59.5q-39 0 -80 16.5t-98 47.5q-10 4 -41 19t-53.5 22.5t-39.5 7.5q-47 0 -82.5 -32t-46.5 -83h-82zM72 0v27q53 18 161 41v874 q-84 16 -141 37v18l369 37v-966q96 -18 164 -41v-27h-553z" />
<glyph unicode="&#x12a;" horiz-adv-x="724" d="M-25 1608v82h775v-82h-775zM80 0v31q82 25 166 39v1294q-68 10 -166 41v29h565v-31q-59 -20 -166 -39v-1296q82 -12 166 -39v-29h-565z" />
<glyph unicode="&#x12b;" horiz-adv-x="696" d="M-12 1196v82h721v-82h-721zM72 0v27q53 18 161 41v874q-84 16 -141 37v18l369 37v-966q96 -18 164 -41v-27h-553z" />
<glyph unicode="&#x12c;" horiz-adv-x="724" d="M27 1855h135q10 -102 65.5 -138t134.5 -36q80 0 135.5 36t65.5 138h135q-18 -129 -106 -194.5t-230 -65.5q-141 0 -229 65.5t-106 194.5zM80 0v31q82 25 166 39v1294q-68 10 -166 41v29h565v-31q-59 -20 -166 -39v-1296q82 -12 166 -39v-29h-565z" />
<glyph unicode="&#x12d;" horiz-adv-x="696" d="M10 1452h135q10 -102 65.5 -138t135.5 -36t135.5 36t65.5 138h135q-18 -129 -106.5 -194.5t-229.5 -65.5t-229 65.5t-107 194.5zM72 0v27q53 18 161 41v874q-84 16 -141 37v18l369 37v-966q96 -18 164 -41v-27h-553z" />
<glyph unicode="&#x12e;" horiz-adv-x="724" d="M80 0v31q82 25 166 39v1294q-68 10 -166 41v29h565v-31q-59 -20 -166 -39v-1296q82 -12 166 -39v-29h-43q-51 -31 -86 -82t-35 -102q0 -49 35 -77t92 -28q56 0 119 33v-98q-76 -41 -190 -41q-109 0 -169.5 48t-60.5 122q0 72 48 134t130 91h-405z" />
<glyph unicode="&#x12f;" horiz-adv-x="655" d="M51 0v27q53 18 162 41v874q-84 16 -141 37v18l368 37v-966q96 -18 164 -41v-27h-16q-51 -31 -86 -82t-35 -102q0 -49 35 -77t92 -28q56 0 119 33v-98q-76 -41 -191 -41q-109 0 -169 48t-60 122q0 72 48 134t130 91h-420zM182 1247q0 55 36 91t93 36t94 -35.5t37 -91.5 q0 -55 -36.5 -90t-94.5 -35q-57 0 -93 35t-36 90z" />
<glyph unicode="&#x130;" horiz-adv-x="724" d="M80 0v31q82 25 166 39v1294q-68 10 -166 41v29h565v-31q-59 -20 -166 -39v-1296q82 -12 166 -39v-29h-565zM258 1712q0 47 27.5 77t74.5 30q45 0 74 -30t29 -77q0 -45 -28.5 -74.5t-74.5 -29.5q-47 0 -74.5 29.5t-27.5 74.5z" />
<glyph unicode="&#x131;" horiz-adv-x="696" d="M72 0v27q53 18 161 41v874q-84 16 -141 37v18l369 37v-966q96 -18 164 -41v-27h-553z" />
<glyph unicode="&#x132;" horiz-adv-x="1716" d="M80 0v31q82 25 166 39v1294q-68 10 -166 41v29h565v-31q-59 -20 -166 -39v-1296q82 -12 166 -39v-29h-565zM756 86l37 59q45 -29 105 -47t126 -18q100 0 160.5 53t60.5 170v1059q-88 12 -162 39v33h557v-31q-102 -35 -161 -41v-1055q0 -162 -107.5 -244.5t-279.5 -82.5 q-101 0 -188 27.5t-148 78.5z" />
<glyph unicode="&#x133;" horiz-adv-x="1325" d="M51 0v27q53 18 162 41v874q-84 16 -141 37v18l368 37v-966q96 -18 164 -41v-27h-553zM182 1247q0 55 36 91t93 36t94 -35.5t37 -91.5q0 -55 -36.5 -90t-94.5 -35q-57 0 -93 35t-36 90zM608 -213l15 74q55 -27 133 -27q80 0 123 50t43 141v917q-88 18 -142 37v18l369 37 v-1001q0 -143 -86 -215t-223 -72q-136 0 -232 41zM891 1247q0 55 36 91t93 36t93 -35.5t36 -91.5q0 -55 -36 -90t-93 -35t-93 35t-36 90z" />
<glyph unicode="&#x134;" horiz-adv-x="1001" d="M41 86l37 59q45 -29 105.5 -47t125.5 -18q100 0 160.5 53t60.5 170v1059q-88 12 -161 39v33h557v-31q-104 -35 -162 -41v-1055q0 -162 -107.5 -244.5t-279.5 -82.5q-101 0 -188 27.5t-148 78.5zM307 1675q68 43 156 125t129 139h108q41 -57 129.5 -139t155.5 -125 l-94 -76q-63 49 -133 117t-107 121h-10q-37 -53 -106.5 -120.5t-133.5 -117.5z" />
<glyph unicode="&#x135;" horiz-adv-x="669" d="M-47 -213l14 74q55 -27 133 -27q80 0 123 50t43 141v917q-88 18 -141 37v18l369 37v-1001q0 -143 -86 -215t-224 -72q-135 0 -231 41zM4 1262q68 43 156 124.5t129 139.5h108q41 -57 129 -139t156 -125l-94 -76q-63 49 -133 116.5t-107 120.5h-10q-37 -53 -106.5 -120.5 t-133.5 -116.5z" />
<glyph unicode="&#x136;" horiz-adv-x="1554" d="M76 0v31q43 12 88 23.5t76 15.5v1294q-109 23 -164 41v29h563v-31q-66 -20 -166 -39v-686l633 676q-23 18 -105 30l-53 11v39h434v-39q-16 -4 -45.5 -9.5t-52 -12.5t-43.5 -19l-477 -508l600 -778q94 -16 174 -39v-29h-371l-538 700l-156 -165v-467q78 -12 166 -39v-29 h-563zM692 -262q0 53 37 82.5t88 29.5q68 0 100.5 -38.5t32.5 -104.5q0 -96 -47 -200.5t-119 -170.5l-75 60q41 45 72.5 106.5t39.5 122.5q-129 0 -129 113z" />
<glyph unicode="&#x137;" horiz-adv-x="1339" d="M59 0v27q98 35 162 41v1286q-84 16 -141 37v18l369 37v-959l430 424q18 18 18 27q0 6 -6 8q-14 4 -61.5 18.5t-77.5 28.5v27h460v-27q-25 -12 -65.5 -23.5t-52.5 -15.5q-59 -16 -68 -20l-326 -320l443 -544q88 -16 166 -43v-27h-330l-406 492l-124 -125v-299 q90 -14 163 -41v-27h-553zM578 -262q0 53 36.5 82.5t87.5 29.5q68 0 101 -38.5t33 -104.5q0 -96 -47.5 -200.5t-118.5 -170.5l-76 60q41 45 72.5 106.5t40.5 122.5q-129 0 -129 113z" />
<glyph unicode="&#x138;" horiz-adv-x="1339" d="M59 0v27q98 35 162 41v886q-84 16 -141 37v19l369 37v-560l430 424q25 25 28 31q-16 6 -70.5 21.5t-84.5 29.5v27h460v-27q-25 -12 -65.5 -23.5t-52.5 -15.5q-59 -16 -68 -20l-326 -320l443 -544q88 -16 166 -43v-27h-330l-406 492l-124 -125v-299q90 -14 163 -41v-27 h-553z" />
<glyph unicode="&#x139;" horiz-adv-x="1265" d="M76 0v29q84 29 174 39v1296q-102 20 -166 41v29h563v-31q-63 -20 -164 -39v-1282h561q2 45 32 123t54 112h52l-31 -317h-1075zM238 1665l239 231q47 55 105 56q37 0 56 -19.5t19 -46.5q0 -53 -77 -100l-304 -176z" />
<glyph unicode="&#x13a;" horiz-adv-x="671" d="M59 0v27q59 20 162 41v1286q-84 16 -141 37v18l369 37v-1378q90 -14 163 -41v-27h-553zM147 1628l240 232q47 55 105 55q37 0 56 -19.5t19 -46.5q0 -53 -78 -100l-303 -176z" />
<glyph unicode="&#x13b;" horiz-adv-x="1265" d="M76 0v29q84 29 174 39v1296q-102 20 -166 41v29h563v-31q-63 -20 -164 -39v-1282h561q2 45 32 123t54 112h52l-31 -317h-1075zM541 -262q0 53 36.5 82.5t88.5 29.5q68 0 100.5 -38.5t32.5 -104.5q0 -96 -47 -200.5t-119 -170.5l-76 60q41 45 73 106.5t40 122.5 q-129 0 -129 113z" />
<glyph unicode="&#x13c;" horiz-adv-x="671" d="M59 0v27q59 20 162 41v1286q-84 16 -141 37v18l369 37v-1378q90 -14 163 -41v-27h-553zM207 -262q0 53 37 82.5t88 29.5q68 0 100.5 -38.5t32.5 -104.5q0 -96 -47 -200.5t-119 -170.5l-76 60q41 45 73 106.5t40 122.5q-129 0 -129 113z" />
<glyph unicode="&#x13d;" horiz-adv-x="1265" d="M76 0v29q84 29 174 39v1296q-102 20 -166 41v29h563v-31q-63 -20 -164 -39v-1282h561q2 45 32 123t54 112h52l-31 -317h-1075zM836 1329q0 53 32.5 89t94.5 36q74 0 107.5 -45t33.5 -111q0 -94 -49 -199.5t-123 -172.5l-76 59q41 47 74 108.5t39 120.5h-13 q-47 0 -83.5 28t-36.5 87z" />
<glyph unicode="&#x13e;" horiz-adv-x="983" d="M59 0v27q59 20 162 41v1286q-84 16 -141 37v18l369 37v-1378q90 -14 163 -41v-27h-553zM633 1331q0 55 33.5 89t91.5 34q74 0 108.5 -45t34.5 -113q0 -94 -49 -199.5t-123 -170.5l-76 57q43 47 74 108.5t39 122.5l-14 -2q-55 0 -87 34t-32 85z" />
<glyph unicode="&#x13f;" horiz-adv-x="1265" d="M76 0v29q84 29 174 39v1296q-102 20 -166 41v29h563v-31q-63 -20 -164 -39v-1282h561q2 45 32 123t54 112h52l-31 -317h-1075zM756 780q0 45 28.5 75t73.5 30q47 0 76 -30t29 -75q0 -47 -29 -75.5t-76 -28.5q-45 0 -73.5 28.5t-28.5 75.5z" />
<glyph unicode="&#x140;" horiz-adv-x="919" d="M59 0v27q59 20 162 41v1286q-84 16 -141 37v18l369 37v-1378q90 -14 163 -41v-27h-553zM604 709q0 49 30 79.5t79 30.5t78.5 -30.5t29.5 -79.5q0 -47 -29.5 -78t-78.5 -31t-79 31t-30 78z" />
<glyph unicode="&#x141;" horiz-adv-x="1265" d="M76 0v29q84 29 174 39v477l-172 -62v111l172 61v709q-102 20 -166 41v29h563v-31q-63 -20 -164 -39v-625l420 152v-111l-420 -151v-547h561q2 45 32 123t54 112h52l-31 -317h-1075z" />
<glyph unicode="&#x142;" horiz-adv-x="686" d="M39 455v110l188 74v715q-84 16 -141 37v18l369 37v-717l202 80v-113l-202 -80v-548q84 -14 163 -41v-27h-555v27q55 18 164 41v460z" />
<glyph unicode="&#x143;" horiz-adv-x="1599" d="M76 0v27q76 25 164 39v1298q-102 20 -164 41v29h409l770 -1145v1077q-92 18 -163 39v29h432v-29q-78 -23 -164 -39v-1366h-127l-889 1311v-1243q92 -16 164 -41v-27h-432zM666 1665l239 231q47 55 105 56q37 0 56 -19.5t19 -46.5q0 -53 -77 -100l-303 -176z" />
<glyph unicode="&#x144;" horiz-adv-x="1392" d="M59 0v27q84 29 162 41v878q-84 16 -141 37v18l369 37v-151q70 68 172 109.5t217 41.5q158 0 255 -76.5t97 -211.5v-682q103 -16 162 -41v-27h-541v27q82 31 152 41v667q0 119 -55.5 170t-147.5 51q-76 0 -160 -38.5t-151 -116.5v-733q84 -14 163 -41v-27h-553zM483 1251 l240 232q47 55 104 55q37 0 56.5 -19.5t19.5 -45.5q0 -53 -78 -101l-303 -176z" />
<glyph unicode="&#x145;" horiz-adv-x="1599" d="M76 0v27q76 25 164 39v1298q-102 20 -164 41v29h409l770 -1145v1077q-92 18 -163 39v29h432v-29q-78 -23 -164 -39v-1366h-127l-889 1311v-1243q92 -16 164 -41v-27h-432zM680 -262q0 53 37 82.5t88 29.5q68 0 100.5 -38.5t32.5 -104.5q0 -96 -47 -200.5t-119 -170.5 l-76 60q41 45 73 106.5t40 122.5q-129 0 -129 113z" />
<glyph unicode="&#x146;" horiz-adv-x="1392" d="M59 0v27q84 29 162 41v878q-84 16 -141 37v18l369 37v-151q70 68 172 109.5t217 41.5q158 0 255 -76.5t97 -211.5v-682q103 -16 162 -41v-27h-541v27q82 31 152 41v667q0 119 -55.5 170t-147.5 51q-76 0 -160 -38.5t-151 -116.5v-733q84 -14 163 -41v-27h-553zM549 -262 q0 53 37 82.5t88 29.5q67 0 100 -38.5t33 -104.5q0 -96 -47 -200.5t-119 -170.5l-76 60q41 45 73 106.5t40 122.5q-129 0 -129 113z" />
<glyph unicode="&#x147;" horiz-adv-x="1599" d="M76 0v27q76 25 164 39v1298q-102 20 -164 41v29h409l770 -1145v1077q-92 18 -163 39v29h432v-29q-78 -23 -164 -39v-1366h-127l-889 1311v-1243q92 -16 164 -41v-27h-432zM459 1876l94 74q63 -47 133 -115t107 -121h10q37 53 106.5 121t132.5 115l95 -74 q-70 -47 -158 -128t-127 -138h-109q-38 57 -126.5 138t-157.5 128z" />
<glyph unicode="&#x148;" horiz-adv-x="1392" d="M59 0v27q84 29 162 41v878q-84 16 -141 37v18l369 37v-151q70 68 172 109.5t217 41.5q158 0 255 -76.5t97 -211.5v-682q103 -16 162 -41v-27h-541v27q82 31 152 41v667q0 119 -55.5 170t-147.5 51q-76 0 -160 -38.5t-151 -116.5v-733q84 -14 163 -41v-27h-553zM336 1462 l94 74q63 -47 133 -114.5t107 -121.5h10q37 53 106.5 121t133.5 115l94 -74q-70 -47 -158 -128t-127 -138h-108q-39 57 -127 138t-158 128z" />
<glyph unicode="&#x149;" horiz-adv-x="1757" d="M59 1202q0 53 37 83t88 30q68 0 100.5 -39t32.5 -105q0 -96 -47 -200.5t-118 -169.5l-76 59q41 45 72.5 106.5t39.5 123.5q-129 0 -129 112zM424 0v27q84 29 162 41v878q-84 16 -142 37v18l369 37v-151q70 68 172 109.5t217 41.5q158 0 255 -76.5t97 -211.5v-682 q103 -16 162 -41v-27h-540v27q82 31 151 41v667q0 119 -55 170t-148 51q-76 0 -159.5 -38.5t-151.5 -116.5v-733q84 -14 164 -41v-27h-553z" />
<glyph unicode="&#x14a;" horiz-adv-x="1599" d="M76 0v27q76 25 164 39v1298q-102 20 -164 41v29h409l770 -1145v1077q-92 18 -163 39v29h432v-29q-78 -23 -164 -39v-1583q0 -143 -82 -218t-225 -75q-133 0 -258 66l18 61q88 -37 199 -37q109 0 177 49t68 154v203l-913 1325v-1243q92 -16 164 -41v-27h-432z" />
<glyph unicode="&#x14b;" horiz-adv-x="1366" d="M59 0v27q84 29 162 41v878q-84 16 -141 37v18l369 37v-147q72 63 173 105t216 42q158 0 255 -76.5t97 -211.5v-897q0 -145 -86 -216t-223 -71q-140 0 -232 41l17 74q55 -27 131 -27q80 0 123 50t43 140v891q0 119 -55.5 170t-147.5 51q-76 0 -162 -39.5t-149 -109.5v-739 q84 -14 163 -41v-27h-553z" />
<glyph unicode="&#x14c;" horiz-adv-x="1499" d="M74 717q0 346 175 541.5t501 195.5t500.5 -195.5t174.5 -541.5t-175 -541.5t-500 -195.5q-326 0 -501 195.5t-175 541.5zM309 717q0 -295 111.5 -473t329.5 -178q217 0 328.5 178t111.5 473t-111.5 473t-328.5 178t-329 -178t-112 -473zM387 1628v82h721v-82h-721z" />
<glyph unicode="&#x14d;" horiz-adv-x="1220" d="M51 508q0 250 146.5 390t412.5 140t412.5 -140t146.5 -390t-146 -389t-413 -139q-266 0 -412.5 139t-146.5 389zM248 1196v82h721v-82h-721zM279 508q0 -209 89 -328t242 -119q152 0 241 119t89 328t-89 328.5t-241 119.5q-154 0 -242.5 -119.5t-88.5 -328.5z" />
<glyph unicode="&#x14e;" horiz-adv-x="1499" d="M74 717q0 346 175 541.5t501 195.5t500.5 -195.5t174.5 -541.5t-175 -541.5t-500 -195.5q-326 0 -501 195.5t-175 541.5zM309 717q0 -295 111.5 -473t329.5 -178q217 0 328.5 178t111.5 473t-111.5 473t-328.5 178t-329 -178t-112 -473zM414 1853h135q10 -102 65.5 -138 t135.5 -36t135 36t65 138h135q-18 -129 -106 -194.5t-229 -65.5q-142 0 -230 65.5t-106 194.5z" />
<glyph unicode="&#x14f;" horiz-adv-x="1220" d="M51 508q0 250 146.5 390t412.5 140t412.5 -140t146.5 -390t-146 -389t-413 -139q-266 0 -412.5 139t-146.5 389zM274 1442h136q10 -102 65 -138t135 -36t135.5 35.5t65.5 138.5h135q-18 -129 -106 -194.5t-230 -65.5q-141 0 -229 65.5t-107 194.5zM279 508 q0 -209 89 -328t242 -119q152 0 241 119t89 328t-89 328.5t-241 119.5q-154 0 -242.5 -119.5t-88.5 -328.5z" />
<glyph unicode="&#x150;" horiz-adv-x="1499" d="M74 717q0 346 175 541.5t501 195.5t500.5 -195.5t174.5 -541.5t-175 -541.5t-500 -195.5q-326 0 -501 195.5t-175 541.5zM309 717q0 -295 111.5 -473t329.5 -178q217 0 328.5 178t111.5 473t-111.5 473t-328.5 178t-329 -178t-112 -473zM426 1663l240 231q16 18 43.5 37 t60.5 19q37 0 57.5 -19.5t20.5 -46.5q0 -53 -80 -100l-303 -176zM846 1663l239 231q16 18 44 37t61 19q37 0 57.5 -19.5t20.5 -46.5q0 -53 -80 -100l-303 -176z" />
<glyph unicode="&#x151;" horiz-adv-x="1220" d="M51 508q0 250 146.5 390t412.5 140t412.5 -140t146.5 -390t-146 -389t-413 -139q-266 0 -412.5 139t-146.5 389zM279 508q0 -209 89 -328t242 -119q152 0 241 119t89 328t-89 328.5t-241 119.5q-154 0 -242.5 -119.5t-88.5 -328.5zM295 1249l240 232q16 18 43.5 36.5 t60.5 18.5q37 0 57.5 -19.5t20.5 -46.5q0 -53 -80 -100l-303 -176zM715 1249l239 232q16 18 44 36.5t61 18.5q37 0 57.5 -19.5t20.5 -46.5q0 -53 -80 -100l-303 -176z" />
<glyph unicode="&#x152;" horiz-adv-x="2101" d="M74 717q0 207 69.5 373.5t213 265t356.5 98.5q219 0 348 -123v103h917v-320h-53q-18 31 -38.5 111t-24.5 125h-568v-572h404q4 35 14 85t25 87h39v-428h-39q-14 37 -24.5 87t-14.5 85h-404v-612h576q4 47 33.5 125t52.5 110h53l-33 -317h-915v96q-70 -61 -153 -88.5 t-195 -27.5q-213 0 -356.5 97t-213 264t-69.5 376zM311 717q0 -295 110.5 -473t328.5 -178q100 0 179 43t132 118v977q-51 74 -132 119t-179 45q-217 0 -328 -178t-111 -473z" />
<glyph unicode="&#x153;" horiz-adv-x="1910" d="M51 508q0 248 145.5 389t399.5 141q119 0 214 -41t159 -114q70 76 173 115.5t232 39.5q160 0 266.5 -65.5t157.5 -175t51 -244.5v-51h-786q4 -190 101.5 -317.5t277.5 -127.5q84 0 176 28t160 77l22 -60q-63 -51 -171.5 -86.5t-237.5 -35.5t-234.5 40.5t-177.5 116.5 q-145 -158 -383 -157q-254 0 -399.5 140t-145.5 388zM281 508q0 -211 87 -329t238 -118q94 0 171 47.5t122 133.5q-61 115 -61 266q0 162 57 274q-47 84 -123 129t-166 45q-152 0 -238.5 -118.5t-86.5 -329.5zM1065 584h584q-4 152 -68.5 262t-204.5 110q-139 0 -219 -105.5 t-92 -266.5z" />
<glyph unicode="&#x154;" horiz-adv-x="1404" d="M76 0v31q43 12 89 23.5t77 15.5v1294q-92 18 -162 41v29h708q242 0 345.5 -105.5t103.5 -298.5q0 -168 -88 -274.5t-254 -132.5l311 -555q103 -19 152 -39v-29h-338l-328 614h-217v-546q82 -12 166 -39v-29h-565zM475 696h242q150 0 219.5 89t69.5 247t-70 238t-219 80 h-242v-654zM496 1665l239 231q47 55 105 56q37 0 56 -19.5t19 -46.5q0 -53 -77 -100l-303 -176z" />
<glyph unicode="&#x155;" horiz-adv-x="911" d="M41 0v29q66 27 164 39v878q-88 18 -142 37v16l343 39l20 -182h8q35 82 105.5 132t154.5 50q55 0 99.5 -10t87.5 -37l-43 -112q-53 39 -119 39q-86 0 -161 -58.5t-126 -146.5v-645q80 -12 162 -41v-27h-553zM233 1251l240 232q47 55 105 55q37 0 56 -19.5t19 -45.5 q0 -53 -78 -101l-303 -176z" />
<glyph unicode="&#x156;" horiz-adv-x="1404" d="M76 0v31q43 12 89 23.5t77 15.5v1294q-92 18 -162 41v29h708q242 0 345.5 -105.5t103.5 -298.5q0 -168 -88 -274.5t-254 -132.5l311 -555q103 -19 152 -39v-29h-338l-328 614h-217v-546q82 -12 166 -39v-29h-565zM475 696h242q150 0 219.5 89t69.5 247t-70 238t-219 80 h-242v-654zM614 -262q0 53 37 82.5t88 29.5q68 0 100.5 -38.5t32.5 -104.5q0 -96 -47 -200.5t-118 -170.5l-76 60q41 45 72.5 106.5t39.5 122.5q-129 0 -129 113z" />
<glyph unicode="&#x157;" horiz-adv-x="911" d="M41 0v29q66 27 164 39v878q-88 18 -142 37v16l343 39l20 -182h8q35 82 105.5 132t154.5 50q55 0 99.5 -10t87.5 -37l-43 -112q-53 39 -119 39q-86 0 -161 -58.5t-126 -146.5v-645q80 -12 162 -41v-27h-553zM203 -262q0 53 36.5 82.5t88.5 29.5q68 0 100.5 -38.5 t32.5 -104.5q0 -96 -47 -200.5t-119 -170.5l-76 60q41 45 73 106.5t40 122.5q-129 0 -129 113z" />
<glyph unicode="&#x158;" horiz-adv-x="1404" d="M76 0v31q43 12 89 23.5t77 15.5v1294q-92 18 -162 41v29h708q242 0 345.5 -105.5t103.5 -298.5q0 -168 -88 -274.5t-254 -132.5l311 -555q103 -19 152 -39v-29h-338l-328 614h-217v-546q82 -12 166 -39v-29h-565zM348 1876l94 74q63 -47 133 -115t107 -121h10 q37 53 106.5 121t133.5 115l94 -74q-70 -47 -158 -128t-127 -138h-108q-39 57 -127 138t-158 128zM475 696h242q150 0 219.5 89t69.5 247t-70 238t-219 80h-242v-654z" />
<glyph unicode="&#x159;" horiz-adv-x="911" d="M41 0v29q66 27 164 39v878q-88 18 -142 37v16l343 39l20 -182h8q35 82 105.5 132t154.5 50q55 0 99.5 -10t87.5 -37l-43 -112q-53 39 -119 39q-86 0 -161 -58.5t-126 -146.5v-645q80 -12 162 -41v-27h-553zM121 1462l94 74q63 -47 133 -114.5t107 -121.5h10 q37 53 106.5 121t133.5 115l94 -74q-70 -47 -158 -128t-127 -138h-108q-39 57 -127.5 138t-157.5 128z" />
<glyph unicode="&#x15a;" horiz-adv-x="1155" d="M70 170l24 287h56q23 -63 38 -260q53 -59 135.5 -95t182.5 -36q141 0 240.5 74.5t99.5 211.5q0 88 -47 148.5t-115 98.5t-188 89q-131 53 -212 98t-136.5 123t-55.5 195q0 172 135 261t365 89q150 0 257 -36t183 -111l-22 -254h-58q-31 86 -41 231q-47 41 -115.5 62.5 t-150.5 21.5q-152 0 -233.5 -58.5t-81.5 -170.5q0 -66 40 -113t100 -79t167 -79q143 -61 231 -113.5t151.5 -143.5t63.5 -226q0 -125 -67.5 -217t-185 -140t-265.5 -48q-164 0 -295 53t-200 137zM401 1665l240 231q47 55 104 56q37 0 56.5 -19.5t19.5 -46.5q0 -53 -78 -100 l-303 -176z" />
<glyph unicode="&#x15b;" horiz-adv-x="985" d="M78 109l16 253h51q12 -31 20.5 -100t10.5 -123q88 -78 246 -78q123 0 193.5 53.5t70.5 145.5q0 51 -34 87t-85 59.5t-139 54.5q-113 41 -181.5 75.5t-116.5 95t-48 152.5q0 125 113.5 189.5t285.5 64.5q246 0 377 -110l-18 -213h-54q-12 31 -19 83t-7 101q-88 59 -232 59 q-100 0 -161.5 -34.5t-61.5 -110.5q0 -53 35 -90t84 -60.5t141 -58.5q111 -39 180.5 -74.5t118.5 -97t49 -156.5q0 -145 -115.5 -220.5t-293.5 -75.5q-139 0 -250 34.5t-176 94.5zM281 1251l239 232q47 55 105 55q37 0 56 -19.5t19 -45.5q0 -53 -77 -101l-304 -176z" />
<glyph unicode="&#x15c;" horiz-adv-x="1155" d="M70 170l24 287h56q23 -63 38 -260q53 -59 135.5 -95t182.5 -36q141 0 240.5 74.5t99.5 211.5q0 88 -47 148.5t-115 98.5t-188 89q-131 53 -212 98t-136.5 123t-55.5 195q0 172 135 261t365 89q150 0 257 -36t183 -111l-22 -254h-58q-31 86 -41 231q-47 41 -115.5 62.5 t-150.5 21.5q-152 0 -233.5 -58.5t-81.5 -170.5q0 -66 40 -113t100 -79t167 -79q143 -61 231 -113.5t151.5 -143.5t63.5 -226q0 -125 -67.5 -217t-185 -140t-265.5 -48q-164 0 -295 53t-200 137zM238 1675q68 43 155.5 125t128.5 139h109q41 -57 129 -139t155 -125l-94 -76 q-63 49 -133 117t-106 121h-11q-37 -53 -106.5 -120.5t-132.5 -117.5z" />
<glyph unicode="&#x15d;" horiz-adv-x="985" d="M78 109l16 253h51q12 -31 20.5 -100t10.5 -123q88 -78 246 -78q123 0 193.5 53.5t70.5 145.5q0 51 -34 87t-85 59.5t-139 54.5q-113 41 -181.5 75.5t-116.5 95t-48 152.5q0 125 113.5 189.5t285.5 64.5q246 0 377 -110l-18 -213h-54q-12 31 -19 83t-7 101q-88 59 -232 59 q-100 0 -161.5 -34.5t-61.5 -110.5q0 -53 35 -90t84 -60.5t141 -58.5q111 -39 180.5 -74.5t118.5 -97t49 -156.5q0 -145 -115.5 -220.5t-293.5 -75.5q-139 0 -250 34.5t-176 94.5zM154 1262q68 43 155.5 124.5t128.5 139.5h109q41 -57 129 -139t155 -125l-94 -76 q-63 49 -132.5 116.5t-106.5 120.5h-11q-37 -53 -106.5 -120.5t-132.5 -116.5z" />
<glyph unicode="&#x15e;" horiz-adv-x="1155" d="M70 170l24 287h56q23 -63 38 -260q53 -59 135.5 -95t182.5 -36q141 0 240.5 74.5t99.5 211.5q0 88 -47 148.5t-115 98.5t-188 89q-131 53 -212 98t-136.5 123t-55.5 195q0 172 135 261t365 89q150 0 257 -36t183 -111l-22 -254h-58q-31 86 -41 231q-47 41 -115.5 62.5 t-150.5 21.5q-152 0 -233.5 -58.5t-81.5 -170.5q0 -66 40 -113t100 -79t167 -79q143 -61 231 -113.5t151.5 -143.5t63.5 -226q0 -172 -126 -279.5t-326 -123.5l-53 -111q109 0 168 -40t59 -110q0 -92 -74 -142t-190 -50q-49 0 -101.5 12.5t-91.5 34.5l39 66q61 -29 139 -29 q72 0 115 25.5t43 82.5q0 43 -37 61.5t-90 18.5q-20 0 -49 -4l-47 62l61 121q-150 8 -269.5 59t-182.5 131z" />
<glyph unicode="&#x15f;" horiz-adv-x="985" d="M78 109l16 253h51q12 -31 20.5 -100t10.5 -123q88 -78 246 -78q123 0 193.5 53.5t70.5 145.5q0 51 -34 87t-85 59.5t-139 54.5q-113 41 -181.5 75.5t-116.5 95t-48 152.5q0 125 113.5 189.5t285.5 64.5q246 0 377 -110l-18 -213h-54q-12 31 -19 83t-7 101q-88 59 -232 59 q-100 0 -161.5 -34.5t-61.5 -110.5q0 -53 35 -90t84 -60.5t141 -58.5q111 -39 180.5 -74.5t118.5 -97t49 -156.5q0 -137 -102 -211.5t-264 -82.5l-53 -111q109 0 168 -40t59 -110q0 -92 -74 -142t-190 -50q-49 0 -101.5 12.5t-91.5 34.5l39 66q61 -29 139 -29q72 0 115 25.5 t43 82.5q0 43 -37 61.5t-90 18.5q-20 0 -49 -4l-47 62l61 123q-117 8 -210 41.5t-150 85.5z" />
<glyph unicode="&#x160;" horiz-adv-x="1155" d="M70 170l24 287h56q23 -63 38 -260q53 -59 135.5 -95t182.5 -36q141 0 240.5 74.5t99.5 211.5q0 88 -47 148.5t-115 98.5t-188 89q-131 53 -212 98t-136.5 123t-55.5 195q0 172 135 261t365 89q150 0 257 -36t183 -111l-22 -254h-58q-31 86 -41 231q-47 41 -115.5 62.5 t-150.5 21.5q-152 0 -233.5 -58.5t-81.5 -170.5q0 -66 40 -113t100 -79t167 -79q143 -61 231 -113.5t151.5 -143.5t63.5 -226q0 -125 -67.5 -217t-185 -140t-265.5 -48q-164 0 -295 53t-200 137zM238 1876l94 74q63 -47 133 -115t106 -121h11q37 53 106.5 121t132.5 115 l94 -74q-70 -47 -157.5 -128t-126.5 -138h-109q-39 57 -127 138t-157 128z" />
<glyph unicode="&#x161;" horiz-adv-x="985" d="M78 109l16 253h51q12 -31 20.5 -100t10.5 -123q88 -78 246 -78q123 0 193.5 53.5t70.5 145.5q0 51 -34 87t-85 59.5t-139 54.5q-113 41 -181.5 75.5t-116.5 95t-48 152.5q0 125 113.5 189.5t285.5 64.5q246 0 377 -110l-18 -213h-54q-12 31 -19 83t-7 101q-88 59 -232 59 q-100 0 -161.5 -34.5t-61.5 -110.5q0 -53 35 -90t84 -60.5t141 -58.5q111 -39 180.5 -74.5t118.5 -97t49 -156.5q0 -145 -115.5 -220.5t-293.5 -75.5q-139 0 -250 34.5t-176 94.5zM154 1462l94 74q63 -47 133 -114.5t106 -121.5h11q37 53 106.5 121t132.5 115l94 -74 q-70 -47 -157.5 -128t-126.5 -138h-109q-39 57 -127 138t-157 128z" />
<glyph unicode="&#x162;" horiz-adv-x="1335" d="M76 1083v351h1184v-351h-54q-16 31 -37.5 125.5t-25.5 141.5h-359v-1282q104 -16 177 -39v-29h-256l-62 -129h14q104 0 159.5 -41t55.5 -109q0 -92 -74.5 -142t-189.5 -50q-49 0 -101 12.5t-93 34.5l39 66q61 -29 141 -29q70 0 114 25.5t44 82.5q0 43 -38 61.5t-91 18.5 q-18 0 -48 -4l-49 62l72 141h-223v31q53 14 176 39v1280h-361q-4 -47 -25.5 -141.5t-37.5 -125.5h-51z" />
<glyph unicode="&#x163;" horiz-adv-x="806" d="M25 938v82h170v90q98 35 116 186h111v-276h303v-82h-303v-657q0 -119 48 -167t136 -48q63 0 133 24l15 -76q-92 -31 -209 -34l-53 -109h14q104 0 159.5 -41t55.5 -109q0 -92 -75 -142t-189 -50q-49 0 -101.5 12.5t-93.5 34.5l39 66q61 -29 141 -29q70 0 114 25.5t44 82.5 q0 43 -38 61.5t-91 18.5q-18 0 -47 -4l-49 62l63 127q-115 18 -179 89.5t-64 205.5v657h-170z" />
<glyph unicode="&#x164;" horiz-adv-x="1335" d="M76 1083v351h1184v-351h-54q-16 31 -37.5 125.5t-25.5 141.5h-359v-1282q104 -16 177 -39v-29h-586v31q53 14 176 39v1280h-361q-4 -47 -25.5 -141.5t-37.5 -125.5h-51zM326 1876l94 74q63 -47 133 -115t106 -121h11q37 53 106.5 121t132.5 115l95 -74q-70 -47 -158 -128 t-127 -138h-109q-39 57 -127 138t-157 128z" />
<glyph unicode="&#x165;" horiz-adv-x="1153" d="M25 938v82h170v90q98 35 116 186h111v-276h303v-82h-303v-657q0 -119 48 -167t136 -48q63 -1 133 24l15 -76q-102 -35 -230 -34q-154 0 -241.5 72.5t-87.5 228.5v657h-170zM809 1260q0 55 34 88.5t91 33.5q74 0 108.5 -45t34.5 -110q0 -94 -49 -199.5t-123 -173.5l-76 59 q41 45 73 106.5t40 123.5l-14 -2q-51 0 -85 33.5t-34 85.5z" />
<glyph unicode="&#x166;" horiz-adv-x="1335" d="M76 1083v351h1184v-351h-54q-16 31 -37.5 125.5t-25.5 141.5h-359v-623h312v-82h-312v-577q104 -16 177 -39v-29h-586v31q53 14 176 39v575h-297v82h297v623h-361q-4 -47 -25.5 -141.5t-37.5 -125.5h-51z" />
<glyph unicode="&#x167;" horiz-adv-x="806" d="M25 938v82h170v90q98 35 116 186h111v-276h303v-82h-303v-315h268v-80h-268v-262q0 -119 48 -167t136 -48q63 0 133 24l15 -76q-102 -35 -230 -34q-154 0 -241.5 72.5t-87.5 228.5v262h-152v80h152v315h-170z" />
<glyph unicode="&#x168;" horiz-adv-x="1599" d="M70 1405v29h563v-31q-61 -20 -164 -39v-946q0 -190 108.5 -271t288.5 -81q174 0 284 83.5t110 268.5v948q-88 12 -166 39v29h436v-29q-94 -31 -168 -43v-920q0 -463 -553 -462q-573 -1 -573 462v922q-102 20 -166 41zM430 1610q14 108 70.5 162.5t146.5 54.5 q47 0 90 -16.5t94 -47.5q45 -25 72 -36t51 -11q49 0 86 28t52 91h77q-12 -104 -66 -163.5t-151 -59.5q-39 0 -80 16.5t-98 46.5q-10 4 -41 19.5t-53.5 22.5t-38.5 7q-47 0 -83 -31.5t-46 -82.5h-82z" />
<glyph unicode="&#x169;" horiz-adv-x="1333" d="M41 983v18l369 37v-753q0 -223 204 -224q68 0 154 35t154 94v756q-84 16 -140 37v18l367 37v-968q61 -10 143 -35v-19l-370 -36v126q-74 -55 -170.5 -90.5t-198.5 -35.5q-172 0 -271.5 75.5t-99.5 208.5v682q-88 18 -141 37zM295 1196q14 109 70.5 163t146.5 54 q47 0 90 -16.5t94 -46.5q45 -25 72 -36t51 -11q49 0 86 27.5t51 90.5h78q-12 -104 -66.5 -163.5t-150.5 -59.5q-39 0 -80 16.5t-98 47.5q-10 4 -41 19t-53.5 22.5t-38.5 7.5q-47 0 -83 -32t-46 -83h-82z" />
<glyph unicode="&#x16a;" horiz-adv-x="1599" d="M70 1405v29h563v-31q-61 -20 -164 -39v-946q0 -190 108.5 -271t288.5 -81q174 0 284 83.5t110 268.5v948q-88 12 -166 39v29h436v-29q-94 -31 -168 -43v-920q0 -463 -553 -462q-573 -1 -573 462v922q-102 20 -166 41zM438 1610v82h721v-82h-721z" />
<glyph unicode="&#x16b;" horiz-adv-x="1333" d="M41 983v18l369 37v-753q0 -223 204 -224q68 0 154 35t154 94v756q-84 16 -140 37v18l367 37v-968q61 -10 143 -35v-19l-370 -36v126q-74 -55 -170.5 -90.5t-198.5 -35.5q-172 0 -271.5 75.5t-99.5 208.5v682q-88 18 -141 37zM305 1196v82h721v-82h-721z" />
<glyph unicode="&#x16c;" horiz-adv-x="1599" d="M70 1405v29h563v-31q-61 -20 -164 -39v-946q0 -190 108.5 -271t288.5 -81q174 0 284 83.5t110 268.5v948q-88 12 -166 39v29h436v-29q-94 -31 -168 -43v-920q0 -463 -553 -462q-573 -1 -573 462v922q-102 20 -166 41zM477 1853h135q10 -102 65.5 -138t135.5 -36t135.5 36 t65.5 138h135q-18 -129 -106.5 -194.5t-229.5 -65.5t-229 65.5t-107 194.5z" />
<glyph unicode="&#x16d;" horiz-adv-x="1333" d="M41 983v18l369 37v-753q0 -223 204 -224q68 0 154 35t154 94v756q-84 16 -140 37v18l367 37v-968q61 -10 143 -35v-19l-370 -36v126q-74 -55 -170.5 -90.5t-198.5 -35.5q-172 0 -271.5 75.5t-99.5 208.5v682q-88 18 -141 37zM330 1442h135q10 -102 65.5 -138t135.5 -36 t135 35.5t65 138.5h135q-18 -129 -106 -194.5t-229 -65.5q-142 0 -230 65.5t-106 194.5z" />
<glyph unicode="&#x16e;" horiz-adv-x="1599" d="M70 1405v29h563v-31q-61 -20 -164 -39v-946q0 -190 108.5 -271t288.5 -81q174 0 284 83.5t110 268.5v948q-88 12 -166 39v29h436v-29q-94 -31 -168 -43v-920q0 -463 -553 -462q-573 -1 -573 462v922q-102 20 -166 41zM600 1776q0 84 56.5 137t144.5 53t144 -53t56 -137 t-55 -136.5t-145 -52.5t-145.5 52.5t-55.5 136.5zM682 1776q0 -51 34 -83t85 -32t84 31.5t33 83.5q0 51 -33 82.5t-84 31.5t-85 -31.5t-34 -82.5z" />
<glyph unicode="&#x16f;" horiz-adv-x="1333" d="M41 983v18l369 37v-753q0 -223 204 -224q68 0 154 35t154 94v756q-84 16 -140 37v18l367 37v-968q61 -10 143 -35v-19l-370 -36v126q-74 -55 -170.5 -90.5t-198.5 -35.5q-172 0 -271.5 75.5t-99.5 208.5v682q-88 18 -141 37zM465 1362q0 84 56.5 137t144.5 53t144 -53 t56 -137t-55 -136t-145 -52q-91 0 -146 52t-55 136zM547 1362q0 -51 33.5 -83t85.5 -32q51 0 83.5 32t32.5 83t-32.5 83t-83.5 32q-52 0 -85.5 -32t-33.5 -83z" />
<glyph unicode="&#x170;" horiz-adv-x="1599" d="M70 1405v29h563v-31q-61 -20 -164 -39v-946q0 -190 108.5 -271t288.5 -81q174 0 284 83.5t110 268.5v948q-88 12 -166 39v29h436v-29q-94 -31 -168 -43v-920q0 -463 -553 -462q-573 -1 -573 462v922q-102 20 -166 41zM434 1663l240 231q16 18 43.5 37t60.5 19 q37 0 57.5 -19.5t20.5 -46.5q0 -53 -80 -100l-303 -176zM854 1663l240 231q16 18 43.5 37t60.5 19q37 0 57.5 -19.5t20.5 -46.5q0 -53 -80 -100l-303 -176z" />
<glyph unicode="&#x171;" horiz-adv-x="1333" d="M41 983v18l369 37v-753q0 -223 204 -224q68 0 154 35t154 94v756q-84 16 -140 37v18l367 37v-968q61 -10 143 -35v-19l-370 -36v126q-74 -55 -170.5 -90.5t-198.5 -35.5q-172 0 -271.5 75.5t-99.5 208.5v682q-88 18 -141 37zM279 1249l239 232q16 18 44 36.5t61 18.5 q37 0 57 -19.5t20 -46.5q0 -53 -79 -100l-304 -176zM698 1249l240 232q16 18 44 36.5t60 18.5q37 0 57.5 -19.5t20.5 -46.5q0 -53 -80 -100l-303 -176z" />
<glyph unicode="&#x172;" horiz-adv-x="1599" d="M70 1405v29h563v-31q-61 -20 -164 -39v-946q0 -190 108.5 -271t288.5 -81q174 0 284 83.5t110 268.5v948q-88 12 -166 39v29h436v-29q-94 -31 -168 -43v-920q0 -375 -365 -446q-49 -31 -81.5 -81t-32.5 -99t34.5 -77t92.5 -28q55 0 118 33v-98q-76 -41 -190 -41 q-109 0 -169 48t-60 122q0 61 34.5 116.5t98.5 88.5h-33q-573 0 -573 462v922q-102 20 -166 41z" />
<glyph unicode="&#x173;" horiz-adv-x="1333" d="M41 983v18l369 37v-753q0 -223 204 -224q68 0 154 35t154 94v756q-84 16 -140 37v18l367 37v-968q61 -10 143 -35v-19l-55 -6q-49 -31 -82 -81t-33 -99t35 -76.5t92 -27.5q56 -1 119 32v-98q-76 -41 -190 -41q-109 0 -169.5 48t-60.5 122q0 61 36 117.5t99 89.5l-161 -16 v126q-74 -55 -170.5 -90.5t-198.5 -35.5q-172 0 -271.5 75.5t-99.5 208.5v682q-88 18 -141 37z" />
<glyph unicode="&#x174;" horiz-adv-x="2099" d="M35 1405v29h549v-31q-31 -12 -80 -24.5t-90 -16.5l262 -1092l352 1098h107l393 -1192l305 1196q-63 10 -135 31v31h366v-25q-55 -29 -120 -39l-359 -1380h-201l-348 1052l-336 -1052h-165l-345 1372q-66 12 -155 43zM748 1675q68 43 155.5 125t128.5 139h109 q41 -57 129 -139t155 -125l-94 -76q-63 49 -133 117t-106 121h-11q-37 -53 -106.5 -120.5t-132.5 -117.5z" />
<glyph unicode="&#x175;" horiz-adv-x="1648" d="M16 989v31h516v-29q-12 -4 -53 -18.5t-100 -20.5l184 -706l238 674h127l246 -721l198 753q-74 12 -153 41v27h413v-27q-66 -23 -139 -37l-262 -956h-162l-244 719l-252 -719h-155l-262 956q-10 2 -58.5 10.5t-81.5 22.5zM530 1262q68 43 156 124.5t129 139.5h109 q41 -57 129 -139t155 -125l-94 -76q-63 49 -133 116.5t-107 120.5h-10q-37 -53 -106.5 -120.5t-132.5 -116.5z" />
<glyph unicode="&#x176;" horiz-adv-x="1488" d="M35 1403v31h557v-33q-104 -33 -174 -41l383 -641l405 649q-55 12 -133 37v29h381v-33q-55 -23 -115 -33l-471 -747v-553q82 -12 166 -39v-29h-563v27q106 37 164 41v555l-440 737q-90 18 -160 43zM403 1675q68 43 156 125t129 139h109q41 -57 129 -139t155 -125l-94 -76 q-63 49 -133 117t-106 121h-11q-37 -53 -106.5 -120.5t-132.5 -117.5z" />
<glyph unicode="&#x177;" horiz-adv-x="1187" d="M8 993v27h514v-29q-45 -16 -164 -35l283 -716l272 721q-70 6 -153 30v29h420v-25q-61 -25 -142 -39l-401 -1056q-41 -109 -79 -169.5t-96.5 -92t-152.5 -31.5q-104 0 -205 43l37 106q90 -35 162 -35q57 0 93 17.5t67 66t67 144.5l23 59l-410 950q-82 12 -135 35z M297 1262q68 43 156 124.5t129 139.5h108q41 -57 129 -139t156 -125l-94 -76q-63 49 -133 116.5t-107 120.5h-10q-37 -53 -106.5 -120.5t-133.5 -116.5z" />
<glyph unicode="&#x178;" horiz-adv-x="1488" d="M35 1403v31h557v-33q-104 -33 -174 -41l383 -641l405 649q-55 12 -133 37v29h381v-33q-55 -23 -115 -33l-471 -747v-553q82 -12 166 -39v-29h-563v27q106 37 164 41v555l-440 737q-90 18 -160 43zM453 1712q0 47 28.5 77t73.5 30q47 0 75.5 -30t28.5 -77 q0 -45 -28.5 -74.5t-75.5 -29.5q-45 0 -73.5 29.5t-28.5 74.5zM918 1712q0 47 27.5 77t74.5 30q45 0 73.5 -30t28.5 -77q0 -45 -28.5 -74.5t-73.5 -29.5q-47 0 -74.5 29.5t-27.5 74.5z" />
<glyph unicode="&#x179;" horiz-adv-x="1210" d="M51 0v53l842 1297h-651q-4 -45 -24.5 -125t-39.5 -111h-53v320h1020v-37l-848 -1315h704q4 47 34 125t52 110h54l-33 -317h-1057zM496 1665l239 231q47 55 105 56q37 0 56 -19.5t19 -46.5q0 -53 -77 -100l-303 -176z" />
<glyph unicode="&#x17a;" horiz-adv-x="991" d="M43 0v45l670 893h-492q-18 -129 -45 -182h-63v264h835v-57l-663 -883h510q8 37 27.5 94t33.5 88h70l-23 -262h-860zM379 1251l239 232q47 55 105 55q37 0 56.5 -19.5t19.5 -45.5q0 -53 -78 -101l-303 -176z" />
<glyph unicode="&#x17b;" horiz-adv-x="1210" d="M51 0v53l842 1297h-651q-4 -45 -24.5 -125t-39.5 -111h-53v320h1020v-37l-848 -1315h704q4 47 34 125t52 110h54l-33 -317h-1057zM516 1712q0 47 27.5 77t74.5 30q45 0 74 -30t29 -77q0 -45 -28.5 -74.5t-74.5 -29.5q-47 0 -74.5 29.5t-27.5 74.5z" />
<glyph unicode="&#x17c;" horiz-adv-x="991" d="M43 0v45l670 893h-492q-18 -129 -45 -182h-63v264h835v-57l-663 -883h510q8 37 27.5 94t33.5 88h70l-23 -262h-860zM420 1298q0 47 27.5 77t74.5 30q45 0 74 -29.5t29 -77.5q0 -45 -29 -74.5t-74 -29.5q-47 0 -74.5 29.5t-27.5 74.5z" />
<glyph unicode="&#x17d;" horiz-adv-x="1210" d="M51 0v53l842 1297h-651q-4 -45 -24.5 -125t-39.5 -111h-53v320h1020v-37l-848 -1315h704q4 47 34 125t52 110h54l-33 -317h-1057zM287 1876l94 74q63 -47 133 -115t107 -121h10q37 53 106.5 121t132.5 115l95 -74q-70 -47 -158 -128t-127 -138h-109q-39 57 -127 138 t-157 128z" />
<glyph unicode="&#x17e;" horiz-adv-x="991" d="M43 0v45l670 893h-492q-18 -129 -45 -182h-63v264h835v-57l-663 -883h510q8 37 27.5 94t33.5 88h70l-23 -262h-860zM176 1462l94 74q63 -47 133 -114.5t107 -121.5h10q37 53 106.5 121t133.5 115l94 -74q-70 -47 -158 -128t-127 -138h-108q-39 57 -127 138t-158 128z" />
<glyph unicode="&#x18f;" horiz-adv-x="1488" d="M72 639v59h1120q-4 180 -70.5 332t-194.5 243t-304 91q-131 0 -246 -34t-230 -109l-28 77q86 66 218 111t316 45q234 0 406 -95t265 -265t93 -389q0 -352 -191.5 -538.5t-525.5 -186.5q-211 0 -352 88t-208.5 236.5t-67.5 334.5zM295 610q0 -139 41 -264t130 -205 t224 -80q232 0 358 156t142 393h-895z" />
<glyph unicode="&#x192;" horiz-adv-x="1040" d="M25 -254q70 -18 127 -18q76 0 118.5 44t42.5 128v983h-209v90h209v131q0 350 400 350q76 0 151.5 -23.5t134.5 -68.5l-34 -66q-94 72 -213 72q-96 0 -156.5 -62.5t-60.5 -199.5v-133h268v-90h-264v-992q0 -119 -70 -195.5t-225 -76.5q-47 0 -110.5 10.5t-108.5 26.5v90z " />
<glyph unicode="&#x1a0;" horiz-adv-x="1562" d="M74 717q0 346 175 541.5t501 195.5q215 0 366.5 -88t229.5 -254q111 96 124 186q-16 -8 -36 -8q-47 0 -76 30t-29 79q0 45 30 78.5t93 33.5q137 0 137 -151q0 -74 -51 -159t-160 -165q47 -145 47 -319q0 -346 -175 -541.5t-500 -195.5q-326 0 -501 195.5t-175 541.5z M309 717q0 -295 111.5 -473t329.5 -178q217 0 328.5 178t111.5 473t-111.5 473t-328.5 178t-329 -178t-112 -473z" />
<glyph unicode="&#x1a1;" horiz-adv-x="1335" d="M51 508q0 250 146.5 390t412.5 140q201 0 336 -82t189 -233q98 90 110 172q-16 -8 -37 -8q-47 0 -75.5 29.5t-28.5 78.5q0 45 29.5 79t93.5 34q137 0 137 -152q0 -73 -50 -157t-157 -162q12 -61 12 -129q0 -250 -146 -389t-413 -139q-266 0 -412.5 139t-146.5 389z M279 508q0 -209 89 -328t242 -119q152 0 241 119t89 328t-89 328.5t-241 119.5q-154 0 -242.5 -119.5t-88.5 -328.5z" />
<glyph unicode="&#x1af;" horiz-adv-x="1599" d="M70 1405v29h563v-31q-61 -20 -164 -39v-946q0 -190 108.5 -271t288.5 -81q174 0 284 83.5t110 268.5v948q-88 12 -166 39v29h282q84 0 146.5 26.5t72.5 79.5q-16 -8 -36 -8q-47 0 -77 30.5t-30 79.5q0 45 30.5 79t96.5 34q135 0 135 -145q0 -96 -92 -165t-260 -83v-920 q0 -463 -553 -462q-573 -1 -573 462v922q-102 20 -166 41z" />
<glyph unicode="&#x1b0;" horiz-adv-x="1404" d="M41 983v18l369 37v-753q0 -223 204 -224q70 0 156 37t152 95v753q-84 16 -140 37v23h301q109 0 166.5 29.5t71.5 92.5q-14 -8 -37 -8q-47 0 -75.5 30t-28.5 79q0 47 28.5 80.5t94.5 33.5q139 0 139 -149q0 -90 -80 -169t-213 -103v-852q61 -10 143 -35v-19l-370 -36v131 q-72 -57 -168.5 -94t-200.5 -37q-172 0 -271.5 75.5t-99.5 208.5v682q-88 18 -141 37z" />
<glyph unicode="&#x1cd;" horiz-adv-x="1517" d="M14 0v33q37 12 83 24.5t77 16.5l504 1368h162l503 -1372q80 -12 160 -41v-29h-555v31q76 29 166 39l-106 301h-598l-109 -303q88 -10 170 -41v-27h-457zM420 1876l94 74q63 -47 133 -115t107 -121h10q37 53 106.5 121t133.5 115l94 -74q-70 -47 -158 -128t-127 -138h-108 q-39 57 -127.5 138t-157.5 128zM440 453h539l-268 755z" />
<glyph unicode="&#x1ce;" horiz-adv-x="1134" d="M55 276q0 160 114 232t296 72h289v155q0 115 -68 168t-188 53q-80 0 -166 -24.5t-162 -61.5l-14 72q86 45 194.5 70.5t220.5 25.5q190 0 300 -78.5t110 -211.5v-664q78 -16 141 -35v-18l-368 -37v143q-76 -84 -169 -120.5t-186 -36.5q-172 0 -258 75.5t-86 220.5z M223 1462l94 74q61 -45 131 -113.5t109 -122.5h8q39 53 108.5 122t131.5 114l94 -74q-68 -47 -156 -128t-129 -138h-106q-41 57 -129 138t-156 128zM281 279q0 -106 55 -159.5t147 -53.5q74 0 153 48t118 113v271h-236q-119 0 -178 -58.5t-59 -160.5z" />
<glyph unicode="&#x1cf;" horiz-adv-x="724" d="M23 1876l94 74q63 -47 132.5 -115t106.5 -121h11q37 53 106.5 121t132.5 115l94 -74q-70 -47 -157.5 -128t-126.5 -138h-109q-39 57 -127 138t-157 128zM80 0v31q82 25 166 39v1294q-68 10 -166 41v29h565v-31q-59 -20 -166 -39v-1296q82 -12 166 -39v-29h-565z" />
<glyph unicode="&#x1d0;" horiz-adv-x="696" d="M10 1462l94 74q61 -45 131 -113.5t109 -122.5h8q39 53 108.5 122t131.5 114l94 -74q-68 -47 -156 -128t-129 -138h-106q-41 57 -129 138t-156 128zM72 0v27q53 18 161 41v874q-84 16 -141 37v18l369 37v-966q96 -18 164 -41v-27h-553z" />
<glyph unicode="&#x1d1;" horiz-adv-x="1499" d="M74 717q0 346 175 541.5t501 195.5t500.5 -195.5t174.5 -541.5t-175 -541.5t-500 -195.5q-326 0 -501 195.5t-175 541.5zM309 717q0 -295 111.5 -473t329.5 -178q217 0 328.5 178t111.5 473t-111.5 473t-328.5 178t-329 -178t-112 -473zM412 1876l94 74q63 -47 133 -115 t106 -121h11q37 53 106.5 121t132.5 115l95 -74q-70 -47 -158 -128t-127 -138h-109q-39 57 -127 138t-157 128z" />
<glyph unicode="&#x1d2;" horiz-adv-x="1220" d="M51 508q0 250 146.5 390t412.5 140t412.5 -140t146.5 -390t-146 -389t-413 -139q-266 0 -412.5 139t-146.5 389zM270 1462l95 74q63 -47 132.5 -114.5t106.5 -121.5h10q37 53 107 121t133 115l94 -74q-70 -47 -158 -128t-126 -138h-109q-39 57 -127 138t-158 128z M279 508q0 -209 89 -328t242 -119q152 0 241 119t89 328t-89 328.5t-241 119.5q-154 0 -242.5 -119.5t-88.5 -328.5z" />
<glyph unicode="&#x1d3;" horiz-adv-x="1599" d="M70 1405v29h563v-31q-61 -20 -164 -39v-946q0 -190 108.5 -271t288.5 -81q174 0 284 83.5t110 268.5v948q-88 12 -166 39v29h436v-29q-94 -31 -168 -43v-920q0 -463 -553 -462q-573 -1 -573 462v922q-102 20 -166 41zM457 1876l94 74q63 -47 133 -115t107 -121h10 q37 53 106.5 121t132.5 115l95 -74q-70 -47 -158 -128t-127 -138h-109q-39 57 -127 138t-157 128z" />
<glyph unicode="&#x1d4;" horiz-adv-x="1333" d="M41 983v18l369 37v-753q0 -223 204 -224q68 0 154 35t154 94v756q-84 16 -140 37v18l367 37v-968q61 -10 143 -35v-19l-370 -36v126q-74 -55 -170.5 -90.5t-198.5 -35.5q-172 0 -271.5 75.5t-99.5 208.5v682q-88 18 -141 37zM328 1462l94 74q61 -45 131 -113.5 t109 -122.5h8q39 53 108.5 122t130.5 114l95 -74q-68 -47 -156 -128t-129 -138h-107q-41 57 -129 138t-155 128z" />
<glyph unicode="&#x1d5;" horiz-adv-x="1599" d="M70 1405v29h563v-31q-61 -20 -164 -39v-946q0 -190 108.5 -271t288.5 -81q174 0 284 83.5t110 268.5v948q-88 12 -166 39v29h436v-29q-94 -31 -168 -43v-920q0 -463 -553 -462q-573 -1 -573 462v922q-102 20 -166 41zM483 1950v80h701v-80h-701zM502 1712q0 45 27.5 75 t74.5 30q45 0 74 -30t29 -75q0 -47 -29 -75.5t-74 -28.5q-47 0 -74.5 28.5t-27.5 75.5zM965 1712q0 45 28.5 75t73.5 30q47 0 75.5 -30t28.5 -75q0 -47 -28.5 -75.5t-75.5 -28.5q-45 0 -73.5 28.5t-28.5 75.5z" />
<glyph unicode="&#x1d6;" horiz-adv-x="1333" d="M41 983v18l369 37v-753q0 -223 204 -224q68 0 154 35t154 94v756q-84 16 -140 37v18l367 37v-968q61 -10 143 -35v-19l-370 -36v126q-74 -55 -170.5 -90.5t-198.5 -35.5q-172 0 -271.5 75.5t-99.5 208.5v682q-88 18 -141 37zM313 1524v82h701v-82h-701zM328 1300 q0 46 28.5 75.5t73.5 29.5q47 0 76 -29.5t29 -75.5q0 -47 -29 -75.5t-76 -28.5q-45 0 -73.5 28.5t-28.5 75.5zM793 1300q0 46 27.5 75.5t74.5 29.5q45 0 73.5 -29.5t28.5 -75.5q0 -47 -28.5 -75.5t-73.5 -28.5q-47 0 -74.5 28.5t-27.5 75.5z" />
<glyph unicode="&#x1d7;" horiz-adv-x="1599" d="M70 1405v29h563v-31q-61 -20 -164 -39v-946q0 -190 108.5 -271t288.5 -81q174 0 284 83.5t110 268.5v948q-88 12 -166 39v29h436v-29q-94 -31 -168 -43v-920q0 -463 -553 -462q-573 -1 -573 462v922q-102 20 -166 41zM502 1712q0 45 27.5 75t74.5 30q45 0 74 -30t29 -75 q0 -47 -29 -75.5t-74 -28.5q-47 0 -74.5 28.5t-27.5 75.5zM778 1913l205 205q2 2 28.5 30.5t73.5 28.5q37 0 57.5 -22.5t20.5 -49.5q0 -55 -78 -98l-268 -149zM965 1712q0 45 28.5 75t73.5 30q47 0 75.5 -30t28.5 -75q0 -47 -28.5 -75.5t-75.5 -28.5q-45 0 -73.5 28.5 t-28.5 75.5z" />
<glyph unicode="&#x1d8;" horiz-adv-x="1333" d="M41 983v18l369 37v-753q0 -223 204 -224q68 0 154 35t154 94v756q-84 16 -140 37v18l367 37v-968q61 -10 143 -35v-19l-370 -36v126q-74 -55 -170.5 -90.5t-198.5 -35.5q-172 0 -271.5 75.5t-99.5 208.5v682q-88 18 -141 37zM330 1300q0 45 27.5 75t74.5 30 q45 0 74 -29.5t29 -75.5q0 -47 -29 -75.5t-74 -28.5q-47 0 -74.5 28.5t-27.5 75.5zM606 1501l205 205q55 55 104 55q37 0 56.5 -20.5t19.5 -46.5q0 -55 -78 -99l-268 -149zM793 1300q0 45 28.5 75t73.5 30q47 0 75.5 -29.5t28.5 -75.5q0 -47 -28.5 -75.5t-75.5 -28.5 q-45 0 -73.5 28.5t-28.5 75.5z" />
<glyph unicode="&#x1d9;" horiz-adv-x="1599" d="M70 1405v29h563v-31q-61 -20 -164 -39v-946q0 -190 108.5 -271t288.5 -81q174 0 284 83.5t110 268.5v948q-88 12 -166 39v29h436v-29q-94 -31 -168 -43v-920q0 -463 -553 -462q-573 -1 -573 462v922q-102 20 -166 41zM502 1712q0 45 27.5 75t74.5 30q45 0 74 -30t29 -75 q0 -47 -29 -75.5t-74 -28.5q-47 0 -74.5 28.5t-27.5 75.5zM510 2111l94 74q160 -119 230 -215h8q70 96 229 215l94 -74q-76 -51 -155.5 -120.5t-118.5 -124.5h-107q-39 55 -118.5 124.5t-155.5 120.5zM965 1712q0 45 28.5 75t73.5 30q47 0 75.5 -30t28.5 -75 q0 -47 -28.5 -75.5t-75.5 -28.5q-45 0 -73.5 28.5t-28.5 75.5z" />
<glyph unicode="&#x1da;" horiz-adv-x="1333" d="M41 983v18l369 37v-753q0 -223 204 -224q68 0 154 35t154 94v756q-84 16 -140 37v18l367 37v-968q61 -10 143 -35v-19l-370 -36v126q-74 -55 -170.5 -90.5t-198.5 -35.5q-172 0 -271.5 75.5t-99.5 208.5v682q-88 18 -141 37zM328 1300q0 45 27.5 75t74.5 30 q45 0 73.5 -29.5t28.5 -75.5q0 -47 -28.5 -75.5t-73.5 -28.5q-47 0 -74.5 28.5t-27.5 75.5zM336 1700l94 74q160 -119 229 -215h9q70 96 229 215l94 -74q-76 -51 -155.5 -121t-118.5 -125h-107q-39 55 -118.5 125t-155.5 121zM791 1300q0 45 28.5 75t73.5 30 q47 0 75.5 -29.5t28.5 -75.5q0 -47 -28.5 -75.5t-75.5 -28.5q-45 0 -73.5 28.5t-28.5 75.5z" />
<glyph unicode="&#x1db;" horiz-adv-x="1599" d="M70 1405v29h563v-31q-61 -20 -164 -39v-946q0 -190 108.5 -271t288.5 -81q174 0 284 83.5t110 268.5v948q-88 12 -166 39v29h436v-29q-94 -31 -168 -43v-920q0 -463 -553 -462q-573 -1 -573 462v922q-102 20 -166 41zM502 1712q0 45 27.5 75t74.5 30q45 0 74 -30t29 -75 q0 -47 -29 -75.5t-74 -28.5q-47 0 -74.5 28.5t-27.5 75.5zM522 2105q0 27 20.5 49.5t55.5 22.5q33 0 54.5 -14.5t33.5 -27.5t16 -17l205 -205l-39 -55l-268 149q-78 43 -78 98zM965 1712q0 45 28.5 75t73.5 30q47 0 75.5 -30t28.5 -75q0 -47 -28.5 -75.5t-75.5 -28.5 q-45 0 -73.5 28.5t-28.5 75.5z" />
<glyph unicode="&#x1dc;" horiz-adv-x="1333" d="M41 983v18l369 37v-753q0 -223 204 -224q68 0 154 35t154 94v756q-84 16 -140 37v18l367 37v-968q61 -10 143 -35v-19l-370 -36v126q-74 -55 -170.5 -90.5t-198.5 -35.5q-172 0 -271.5 75.5t-99.5 208.5v682q-88 18 -141 37zM328 1300q0 45 27.5 75t74.5 30 q45 0 73.5 -29.5t28.5 -75.5q0 -47 -28.5 -75.5t-73.5 -28.5q-47 0 -74.5 28.5t-27.5 75.5zM348 1694q0 27 20.5 49t55.5 22q33 0 54.5 -14t33.5 -27.5t16 -17.5l205 -205l-39 -55l-268 149q-78 44 -78 99zM791 1300q0 45 28.5 75t73.5 30q47 0 75.5 -29.5t28.5 -75.5 q0 -47 -28.5 -75.5t-75.5 -28.5q-45 0 -73.5 28.5t-28.5 75.5z" />
<glyph unicode="&#x1e6;" horiz-adv-x="1409" d="M76 717q0 227 82 393t238.5 255t371.5 89q156 0 292 -40t210 -107l-23 -267h-57q-14 45 -26.5 114t-16.5 130q-47 37 -141.5 60.5t-178.5 23.5q-246 0 -380 -177t-134 -474q0 -303 119 -477t363 -174q47 0 112.5 12t112.5 35v516q-102 18 -162 39v28h531v-22 q-66 -37 -144 -49v-525q-76 -57 -211 -88.5t-276 -31.5q-334 0 -508 194.5t-174 542.5zM444 1894l95 74q63 -47 132.5 -114.5t106.5 -120.5h10q37 53 107 120.5t133 114.5l94 -74q-70 -47 -157.5 -127.5t-126.5 -138.5h-109q-39 58 -127 138.5t-158 127.5z" />
<glyph unicode="&#x1e7;" horiz-adv-x="1107" d="M76 -59q0 104 100 168q-39 25 -57.5 61.5t-18.5 75.5q0 115 119 188q-143 90 -143 266q0 160 120.5 249t333.5 89q197 0 316 -77q27 29 44 62.5t17 53.5h164q-8 -47 -44 -97t-99 -97q55 -74 55 -183q0 -162 -120 -250t-333 -88q-109 0 -208 27q-43 -31 -43 -70 q0 -31 28.5 -49t81.5 -18h346q144 0 229 -65.5t85 -200.5q0 -303 -508 -303q-213 0 -339 67.5t-126 190.5zM213 1462l94 74q63 -47 133 -114.5t107 -121.5h10q37 53 106.5 121t133.5 115l94 -74q-70 -47 -158 -128t-127 -138h-108q-39 57 -127 138t-158 128zM254 -45 q0 -88 77 -136t208 -48q137 0 221 42t84 121q0 63 -48 98.5t-141 35.5h-319l-51 2q-31 -45 -31 -115zM301 700q0 -113 58.5 -184.5t170.5 -71.5q111 0 169.5 72t58.5 184q0 113 -58.5 184.5t-169.5 71.5q-112 0 -170.5 -71.5t-58.5 -184.5z" />
<glyph unicode="&#x1fa;" horiz-adv-x="1517" d="M14 0v33q37 12 83 24.5t77 16.5l504 1368h162l503 -1372q80 -12 160 -41v-29h-555v31q76 29 166 39l-106 301h-598l-109 -303q88 -10 170 -41v-27h-457zM440 453h539l-268 755zM557 1704q0 84 56.5 137t144.5 53t144 -53t56 -137t-55 -136t-145 -52t-145.5 52t-55.5 136z M608 2001l240 231q47 55 104 56q37 0 56.5 -19.5t19.5 -46.5q0 -53 -78 -100l-303 -176zM639 1704q0 -51 34 -83t85 -32t83.5 32t32.5 83t-32.5 83t-83.5 32t-85 -32t-34 -83z" />
<glyph unicode="&#x1fb;" horiz-adv-x="1134" d="M55 276q0 160 114 232t296 72h289v155q0 115 -68 168t-188 53q-80 0 -166 -24.5t-162 -61.5l-14 72q86 45 194.5 70.5t220.5 25.5q190 0 300 -78.5t110 -211.5v-664q78 -16 141 -35v-18l-368 -37v143q-76 -84 -169 -120.5t-186 -36.5q-172 0 -258 75.5t-86 220.5z M281 279q0 -106 55 -159.5t147 -53.5q74 0 153 48t118 113v271h-236q-119 0 -178 -58.5t-59 -160.5zM367 1341q0 84 56 137.5t144 53.5t144.5 -53.5t56.5 -137.5t-55.5 -136t-145.5 -52t-145 52t-55 136zM416 1636l239 232q47 55 105 55q37 0 56.5 -19.5t19.5 -45.5 q0 -53 -78 -101l-303 -176zM449 1341q0 -51 33.5 -82.5t84.5 -31.5t84 31.5t33 82.5t-33 83t-84 32t-84.5 -31.5t-33.5 -83.5z" />
<glyph unicode="&#x1fc;" horiz-adv-x="2068" d="M14 0v29q70 27 154 43l784 1304q-10 2 -42.5 9.5t-59.5 19.5v29h1096v-320h-54q-18 31 -38.5 111t-24.5 125h-569v-572h405q4 35 14.5 85t24.5 87h39v-428h-39q-14 37 -24.5 87t-14.5 85h-405v-612h577q4 47 34 125t52 110h53l-32 -317h-1088v29q86 29 172 39v303h-545 l-178 -303q102 -12 176 -41v-27h-467zM532 453h496v841zM1251 1665l240 231q47 55 104 56q37 0 56.5 -19.5t19.5 -46.5q0 -53 -78 -100l-303 -176z" />
<glyph unicode="&#x1fd;" horiz-adv-x="1810" d="M55 276q0 160 123 236t303 76h262q2 23 11 67q2 12 6 41t4 49q0 104 -76 157.5t-190 53.5q-80 0 -166 -24.5t-162 -61.5l-14 72q86 45 194.5 70.5t220.5 25.5q117 0 203 -36.5t129 -102.5q68 66 166 102.5t215 36.5q156 0 261.5 -64.5t156.5 -173t51 -241.5v-53h-786 q2 -215 106.5 -331t286.5 -116q84 0 170 28t151 75l23 -60q-66 -53 -167 -87.5t-228 -34.5q-139 0 -253 49t-188 141q-82 -100 -205.5 -145t-248.5 -45q-160 0 -259.5 75.5t-99.5 220.5zM281 279q0 -109 59 -161t154 -52q86 0 180 47t147 114q-76 117 -80 279h-204 q-121 0 -188.5 -62.5t-67.5 -164.5zM811 1251l240 232q47 55 104 55q37 0 56.5 -19.5t19.5 -45.5q0 -53 -78 -101l-303 -176zM969 590h585q-4 150 -70.5 260.5t-205.5 110.5q-145 0 -223 -104.5t-86 -266.5z" />
<glyph unicode="&#x1fe;" horiz-adv-x="1499" d="M74 717q0 346 175 541.5t501 195.5q236 0 395 -106l96 131l74 -54l-98 -133q102 -94 155 -240.5t53 -334.5q0 -346 -175 -541.5t-500 -195.5q-250 0 -414 116l-119 -162l-70 54l121 166q-96 96 -145 238.5t-49 324.5zM309 717q0 -244 76 -408l670 916q-115 143 -305 143 q-217 0 -329 -178t-112 -473zM432 227q113 -162 318 -161q217 0 328.5 178t111.5 473q0 260 -84 426zM567 1665l240 231q47 55 104 56q37 0 56.5 -19.5t19.5 -46.5q0 -53 -78 -100l-303 -176z" />
<glyph unicode="&#x1ff;" horiz-adv-x="1220" d="M51 508q0 250 146.5 390t412.5 140q180 0 308 -65l83 104l76 -57l-80 -98q172 -142 172 -414q0 -250 -146 -389t-413 -139q-186 0 -315 69l-94 -117l-70 56l88 110q-168 143 -168 410zM276 508q1 -161 56 -270l499 626q-88 92 -221 92q-154 0 -244 -119.5t-90 -328.5z M383 160q88 -98 227 -99q152 0 243 119t91 328q0 164 -57 274zM406 1251l239 232q47 55 105 55q37 0 56 -19.5t19 -45.5q0 -53 -77 -101l-304 -176z" />
<glyph unicode="&#x218;" horiz-adv-x="1155" d="M70 170l24 287h56q23 -63 38 -260q53 -59 135.5 -95t182.5 -36q141 0 240.5 74.5t99.5 211.5q0 88 -47 148.5t-115 98.5t-188 89q-131 53 -212 98t-136.5 123t-55.5 195q0 172 135 261t365 89q150 0 257 -36t183 -111l-22 -254h-58q-31 86 -41 231q-47 41 -115.5 62.5 t-150.5 21.5q-152 0 -233.5 -58.5t-81.5 -170.5q0 -66 40 -113t100 -79t167 -79q143 -61 231 -113.5t151.5 -143.5t63.5 -226q0 -125 -67.5 -217t-185 -140t-265.5 -48q-164 0 -295 53t-200 137zM449 -227q0 53 36.5 85.5t87.5 32.5q70 0 106 -42t36 -105 q0 -94 -49.5 -202.5t-120.5 -174.5l-78 60q41 47 74.5 109.5t40.5 123.5q-6 -2 -17 -2q-47 0 -81.5 33t-34.5 82z" />
<glyph unicode="&#x219;" horiz-adv-x="985" d="M78 109l16 253h51q12 -31 20.5 -100t10.5 -123q88 -78 246 -78q123 0 193.5 53.5t70.5 145.5q0 51 -34 87t-85 59.5t-139 54.5q-113 41 -181.5 75.5t-116.5 95t-48 152.5q0 125 113.5 189.5t285.5 64.5q246 0 377 -110l-18 -213h-54q-12 31 -19 83t-7 101q-88 59 -232 59 q-100 0 -161.5 -34.5t-61.5 -110.5q0 -53 35 -90t84 -60.5t141 -58.5q111 -39 180.5 -74.5t118.5 -97t49 -156.5q0 -145 -115.5 -220.5t-293.5 -75.5q-139 0 -250 34.5t-176 94.5zM358 -227q0 53 37 85.5t88 32.5q70 0 106 -42t36 -105q0 -94 -49.5 -202.5t-120.5 -174.5 l-78 60q41 47 74.5 109.5t40.5 123.5q-6 -2 -17 -2q-47 0 -82 33t-35 82z" />
<glyph unicode="&#x21a;" horiz-adv-x="1335" d="M76 1083v351h1184v-351h-54q-16 31 -37.5 125.5t-25.5 141.5h-359v-1282q104 -16 177 -39v-29h-586v31q53 14 176 39v1280h-361q-4 -47 -25.5 -141.5t-37.5 -125.5h-51zM539 -262q0 53 36.5 82.5t88.5 29.5q68 0 100.5 -38.5t32.5 -104.5q0 -96 -47.5 -200.5 t-118.5 -170.5l-76 60q41 45 72.5 106.5t40.5 122.5q-129 0 -129 113z" />
<glyph unicode="&#x21b;" horiz-adv-x="806" d="M25 938v82h170v90q98 35 116 186h111v-276h303v-82h-303v-657q0 -119 48 -167t136 -48q63 0 133 24l15 -76q-103 -34 -230 -34q-154 0 -241.5 72.5t-87.5 228.5v657h-170zM334 -262q0 53 37 82.5t88 29.5q67 0 100 -38.5t33 -104.5q0 -96 -47 -200.5t-119 -170.5l-76 60 q41 45 73 106.5t40 122.5q-129 0 -129 113z" />
<glyph unicode="&#x237;" horiz-adv-x="669" d="M-47 -213l14 74q55 -27 133 -27q80 0 123 50t43 141v917q-88 18 -141 37v18l369 37v-1001q0 -143 -86 -215t-224 -72q-135 0 -231 41z" />
<glyph unicode="&#x251;" horiz-adv-x="1239" d="M51 528q0 168 77 283t202 171t270 56t276.5 -47t208.5 -133v-774q86 -16 142 -35v-18l-357 -39q-8 61 -12 149q-45 -78 -144.5 -119.5t-195.5 -41.5q-233 0 -350 135t-117 413zM276 524q0 -209 71 -336t228 -127q89 0 152.5 41t97 109t33.5 145v478q-47 59 -111.5 90.5 t-142.5 31.5q-162 0 -245 -111.5t-83 -320.5z" />
<glyph unicode="&#x259;" horiz-adv-x="1128" d="M55 465v51h783q-4 193 -98.5 319t-276.5 126q-84 0 -176 -28t-160 -77l-23 59q63 51 172 87t238 36q168 0 293 -65.5t192.5 -185t67.5 -277.5q0 -254 -142.5 -392t-394.5 -138q-160 0 -266 65.5t-157.5 175t-51.5 244.5zM256 434q0 -86 26.5 -172t87 -143.5t158.5 -57.5 q140 0 216.5 105.5t91.5 267.5h-580z" />
<glyph unicode="&#x2bb;" horiz-adv-x="512" d="M121 1090q0 94 51 199.5t125 170.5l78 -57q-100 -117 -113 -227l17 2q51 0 85.5 -33t34.5 -82q0 -55 -34.5 -94t-96.5 -39q-73 0 -110 46t-37 114z" />
<glyph unicode="&#x2bc;" horiz-adv-x="512" d="M121 1319q0 57 34.5 96t96.5 39q74 0 110.5 -47t36.5 -113q0 -94 -51 -199.5t-125 -172.5l-78 59q43 47 75 106.5t38 120.5q-8 -2 -22 -2q-49 0 -82 33t-33 80z" />
<glyph unicode="&#x2be;" d="M-145 1192v63q74 2 106.5 41t32.5 93q0 53 -33 92t-106 41v65q262 0 262 -198q0 -88 -66.5 -142.5t-195.5 -54.5z" />
<glyph unicode="&#x2bf;" d="M-117 1389q0 199 262 198v-65q-74 -2 -106.5 -41t-32.5 -92t33 -92.5t106 -41.5v-63q-129 0 -195.5 54t-66.5 143z" />
<glyph unicode="&#x2c6;" horiz-adv-x="1034" d="M229 1272q66 43 155 125t130 139h107q41 -57 130 -139t154 -125l-94 -76q-63 47 -132 115.5t-108 122.5h-8q-39 -53 -107.5 -122t-131.5 -116z" />
<glyph unicode="&#x2c7;" horiz-adv-x="1034" d="M178 1462l94 74q61 -45 131 -113.5t109 -122.5h8q39 53 108.5 122t131.5 114l94 -74q-68 -47 -156 -128t-129 -138h-106q-41 57 -129 138t-156 128z" />
<glyph unicode="&#x2c8;" d="M-92 1198v303h184v-303h-184z" />
<glyph unicode="&#x2c9;" horiz-adv-x="1034" d="M145 1241v82h744v-82h-744z" />
<glyph unicode="&#x2ca;" d="M-199 1251l240 232q47 55 104 55q37 0 56.5 -19.5t19.5 -45.5q0 -53 -78 -101l-303 -176z" />
<glyph unicode="&#x2cb;" d="M-199 1473q0 27 19.5 46t56.5 19q57 0 105 -55l239 -232l-39 -55l-303 176q-78 47 -78 101z" />
<glyph unicode="&#x2cc;" d="M-92 -92h184v-303h-184v303z" />
<glyph unicode="&#x2d8;" horiz-adv-x="1034" d="M195 1452h135q10 -102 65.5 -138t134.5 -36q80 0 135.5 36t65.5 138h135q-18 -129 -106 -194.5t-230 -65.5q-141 0 -229 65.5t-106 194.5z" />
<glyph unicode="&#x2d9;" horiz-adv-x="1034" d="M414 1300q0 45 28.5 75t73.5 30q47 0 76 -29.5t29 -75.5q0 -47 -29 -75.5t-76 -28.5q-45 0 -73.5 28.5t-28.5 75.5z" />
<glyph unicode="&#x2da;" horiz-adv-x="1034" d="M315 1421q0 84 55.5 136.5t145.5 52.5t145.5 -52.5t55.5 -136.5t-56.5 -137t-144.5 -53t-144.5 53t-56.5 137zM399 1421q0 -51 33 -82.5t84 -31.5t85 31.5t34 82.5t-34 83t-85 32t-84 -31.5t-33 -83.5z" />
<glyph unicode="&#x2db;" horiz-adv-x="1034" d="M313 -225q0 72 48.5 134t130.5 91h116q-51 -31 -86 -82t-35 -102q0 -49 35 -77t92 -28q55 0 119 33v-98q-76 -41 -190 -41q-109 0 -169.5 48t-60.5 122z" />
<glyph unicode="&#x2dc;" horiz-adv-x="1034" d="M154 1196q14 109 70.5 163t146.5 54q47 0 90 -16.5t94 -46.5q45 -25 71.5 -36t51.5 -11q49 0 86 27.5t51 90.5h78q-12 -104 -66.5 -163.5t-150.5 -59.5q-39 0 -80 16.5t-98 47.5q-10 4 -41 19t-53.5 22.5t-38.5 7.5q-47 0 -83 -32t-46 -83h-82z" />
<glyph unicode="&#x2dd;" horiz-adv-x="1034" d="M160 1253l239 232q4 4 31 34.5t70 30.5q35 0 57.5 -24.5t22.5 -52.5q0 -55 -78 -99l-303 -176zM512 1253l240 232q4 4 30.5 34.5t69.5 30.5q35 0 57.5 -24.5t22.5 -52.5q0 -55 -78 -99l-303 -176z" />
<glyph unicode="&#x300;" d="M-850 1473q0 27 20.5 46t57.5 19q49 0 102 -53l242 -234l-39 -55l-303 176q-80 47 -80 101z" />
<glyph unicode="&#x301;" d="M-772 1251l240 232q47 55 104 55q35 0 55.5 -19.5t20.5 -45.5q0 -53 -78 -101l-303 -176z" />
<glyph unicode="&#x302;" d="M-340 1262q68 43 156 124.5t129 139.5h108q41 -57 129 -139t156 -125l-94 -76q-63 49 -133 116.5t-107 120.5h-10q-37 -53 -106.5 -120.5t-133.5 -116.5z" />
<glyph unicode="&#x303;" d="M-981 1196q14 109 70.5 163t146.5 54q47 0 90 -16.5t94 -46.5q45 -25 72 -36t51 -11q49 0 86 27.5t52 90.5h77q-12 -104 -66 -163.5t-151 -59.5q-39 0 -80 16.5t-98 47.5q-10 4 -41 19t-53.5 22.5t-38.5 7.5q-47 0 -83 -32t-46 -83h-82z" />
<glyph unicode="&#x304;" d="M-360 1196v82h720v-82h-720z" />
<glyph unicode="&#x306;" d="M-336 1442h135q10 -102 65.5 -138t135.5 -36t135 35.5t66 138.5h135q-18 -129 -106.5 -194.5t-229.5 -65.5t-229 65.5t-107 194.5z" />
<glyph unicode="&#x307;" d="M-102 1298q0 47 27.5 77t74.5 30q45 0 73.5 -29.5t28.5 -77.5q0 -45 -28.5 -74.5t-73.5 -29.5q-47 0 -74.5 29.5t-27.5 74.5z" />
<glyph unicode="&#x308;" d="M-336 1298q0 47 28.5 77t74.5 30q47 0 75.5 -29.5t28.5 -77.5q0 -45 -28.5 -74.5t-75.5 -29.5q-46 0 -74.5 29.5t-28.5 74.5zM129 1298q0 47 27.5 77t74.5 30q45 0 74 -29.5t29 -77.5q0 -45 -29 -74.5t-74 -29.5q-47 0 -74.5 29.5t-27.5 74.5z" />
<glyph unicode="&#x309;" d="M-686 1624q74 35 164 35t153.5 -43t63.5 -127q0 -145 -180 -162l-21 -135h-96l-10 194h59q57 0 91 28t34 79q0 41 -32 68.5t-91 27.5q-61 0 -121 -33z" />
<glyph unicode="&#x30a;" d="M-201 1362q0 84 56.5 137t144.5 53t144.5 -53t56.5 -137t-55.5 -136t-145.5 -52t-145.5 52t-55.5 136zM-119 1362q0 -51 34 -83t85 -32t84 32t33 83t-33 83t-84 32t-85 -32t-34 -83z" />
<glyph unicode="&#x30b;" d="M-375 1249l240 232q16 18 44 36.5t60 18.5q37 0 57.5 -19.5t20.5 -46.5q0 -53 -80 -100l-303 -176zM45 1249l240 232q16 18 43.5 36.5t60.5 18.5q37 0 57.5 -19.5t20.5 -46.5q0 -53 -80 -100l-303 -176z" />
<glyph unicode="&#x30c;" d="M-340 1462l94 74q63 -47 133 -114.5t107 -121.5h10q37 53 106.5 121t133.5 115l94 -74q-70 -47 -158 -128t-127 -138h-108q-39 57 -127 138t-158 128z" />
<glyph unicode="&#x31b;" d="M-150 672q55 39 108.5 99t64.5 124q-16 -8 -37 -8q-47 0 -76 29.5t-29 78.5q0 45 30 79t93 34q137 0 137 -152q0 -80 -59 -171t-184 -175z" />
<glyph unicode="&#x323;" d="M-688 -223q0 47 28.5 76.5t73.5 29.5q47 0 76 -29.5t29 -76.5q0 -45 -29 -75t-76 -30q-45 0 -73.5 30t-28.5 75z" />
<glyph unicode="&#x324;" d="M-336 -236q0 47 28.5 77t74.5 30q47 0 75.5 -29.5t28.5 -77.5q0 -45 -28.5 -74.5t-75.5 -29.5q-46 0 -74.5 29.5t-28.5 74.5zM129 -236q0 47 27.5 77t74.5 30q45 0 74 -29.5t29 -77.5q0 -45 -29 -74.5t-74 -29.5q-47 0 -74.5 29.5t-27.5 74.5z" />
<glyph unicode="&#x326;" d="M-604 -262q0 53 37 82.5t88 29.5q68 0 100.5 -38.5t32.5 -104.5q0 -96 -47 -200.5t-119 -170.5l-76 60q41 45 73 106.5t40 122.5q-129 0 -129 113z" />
<glyph unicode="&#x327;" d="M-205 -424l39 66q61 -29 139 -29q72 0 115 25.5t43 82.5q0 43 -37 61.5t-90 18.5q-20 0 -49 -4l-47 62l88 174h106l-77 -162q109 0 168 -40t59 -110q0 -92 -74 -142t-190 -50q-49 0 -101.5 12.5t-91.5 34.5z" />
<glyph unicode="&#x328;" d="M-223 -225q0 72 48 134t130 91h117q-51 -31 -86 -82t-35 -102q0 -49 34.5 -77t92.5 -28q55 0 119 33v-98q-76 -41 -191 -41q-108 0 -168.5 48t-60.5 122z" />
<glyph unicode="&#x32e;" d="M-336 -102h135q10 -104 65.5 -140.5t135.5 -36.5t135 36t66 141h135q-18 -129 -106.5 -194.5t-229.5 -65.5t-229 65.5t-107 194.5z" />
<glyph unicode="&#x331;" d="M-360 -135h720v-80h-720v80z" />
<glyph unicode="&#x394;" horiz-adv-x="1331" d="M59 0v80l525 1370h172l514 -1370v-80h-1211zM213 117h825l-405 1124z" />
<glyph unicode="&#x3a9;" horiz-adv-x="1550" d="M102 289h39q18 -27 39 -79t31 -93h311v166q-115 8 -210 83.5t-149 195.5t-54 257q0 166 75.5 294t225 200.5t364.5 72.5q217 0 366.5 -72.5t225.5 -200.5t76 -294q0 -137 -55.5 -257t-150.5 -195.5t-210 -83.5v-166h311q8 41 30 93t40 79h41l-27 -289h-514v352 q139 25 221 153t82 300q0 139 -54 243.5t-152.5 162t-229.5 57.5q-129 0 -227 -57.5t-152.5 -162t-54.5 -243.5q0 -172 83 -300t222 -153v-352h-518z" />
<glyph unicode="&#x3bc;" horiz-adv-x="1333" d="M41 983v18l369 37v-725q0 -121 60 -186.5t153 -65.5q66 0 148.5 35t150.5 92v758q-84 16 -140 37v18l367 37v-968q61 -10 143 -35v-19l-370 -36v126q-80 -61 -153 -93.5t-171 -32.5q-61 0 -112.5 20t-75.5 63v-444h-228v1327q-88 18 -141 37z" />
<glyph unicode="&#x3c0;" horiz-adv-x="1431" d="M33 938v82h1343v-82h-248v-725q0 -72 32 -101.5t81 -29.5q29 0 56.5 10t48.5 25v-86q-49 -29 -96.5 -40t-110.5 -11q-119 0 -177.5 57t-58.5 162v739h-407v-938h-226v938h-237z" />
<glyph unicode="&#xe01;" horiz-adv-x="1200" d="M82 846v24q63 125 197.5 205t314.5 80q209 0 346 -96t137 -281v-778h-227v817q0 106 -71.5 177t-207.5 71q-100 0 -180 -44t-131 -128q63 -20 132 -62.5t114 -87.5v-18q-90 -53 -124 -115.5t-34 -169.5v-440h-227v442q0 88 43 165t141 128q-84 66 -223 111z" />
<glyph unicode="&#xe02;" horiz-adv-x="1222" d="M35 838q0 82 42 155.5t120.5 117.5t187.5 44q162 0 252 -75.5t90 -202.5q0 -78 -27.5 -138.5t-83.5 -140.5q-47 -70 -68.5 -114t-21.5 -99v-184q0 -59 49.5 -95t126.5 -36q78 0 124 35.5t46 95.5v932h228v-895q0 -135 -120 -196.5t-282 -61.5q-161 0 -280 61t-119 197 v133q0 80 38 140t112 144q63 70 93.5 118t30.5 104q0 92 -51 142t-149 50q-68 0 -120 -38t-73 -95q33 18 72 18q80 0 121 -51t41 -127t-50.5 -128t-132.5 -52q-98 0 -147 69.5t-49 172.5zM137 776q0 -53 26.5 -83.5t67.5 -30.5q39 0 67 30.5t28 83.5t-28 83t-67 30 q-41 0 -67.5 -30t-26.5 -83z" />
<glyph unicode="&#xe03;" horiz-adv-x="1234" d="M47 829q0 100 60.5 195.5t166.5 132.5l127 -119l146 117q98 -31 148 -103.5t50 -170.5q0 -80 -28.5 -141.5t-83.5 -139.5q-47 -63 -70.5 -111.5t-23.5 -103.5v-184q0 -59 49 -95t127 -36t124 35.5t46 95.5v932h227v-895q0 -135 -120 -196.5t-281 -61.5q-162 0 -281 61 t-119 197v133q0 80 38 141t114 143q66 72 97.5 120t31.5 108q0 61 -15.5 103t-54.5 65l-121 -101l-116 103q-33 -18 -58.5 -54t-36.5 -73q31 20 74 20q80 0 121 -51t41 -127t-50 -128t-132 -52q-98 0 -147.5 69.5t-49.5 171.5zM150 768q0 -53 26.5 -84t67.5 -31 q39 0 66.5 31t27.5 84t-27.5 83t-66.5 30q-41 0 -67.5 -30t-26.5 -83z" />
<glyph unicode="&#xe04;" horiz-adv-x="1282" d="M123 0v721q0 203 126 318.5t392 115.5t392 -115.5t126 -318.5v-721h-227v776q0 131 -75 210t-216 79q-143 0 -218 -78t-75 -211v-454q31 106 111 286q39 86 85 126t113 40q82 0 124 -51t42 -131q0 -76 -44 -127t-120 -51q-45 0 -82.5 23.5t-54.5 78.5q-41 -68 -98 -242 t-80 -274h-221zM567 594q0 -53 27 -83t68 -30q38 0 66 30t28 83t-28 82t-66 29q-41 0 -68 -29t-27 -82z" />
<glyph unicode="&#xe05;" horiz-adv-x="1284" d="M123 0v721q0 193 64.5 293t232.5 141l223 -166l221 166q168 -41 232.5 -141.5t64.5 -292.5v-721h-227v748q0 117 -22.5 176t-94.5 98l-174 -127l-178 127q-72 -39 -94.5 -98.5t-22.5 -175.5v-426q20 68 74 180l37 82q39 86 85 126t113 40q82 0 124 -51.5t42 -131.5 q0 -76 -44 -127t-120 -51q-45 0 -82.5 23.5t-54.5 79.5q-41 -70 -99 -234t-79 -258h-221zM567 569q0 -53 27 -82.5t68 -29.5q38 0 66 29.5t28 82.5t-28 82t-66 29q-41 0 -68 -28.5t-27 -82.5z" />
<glyph unicode="&#xe06;" horiz-adv-x="1257" d="M47 829q0 100 60.5 195.5t166.5 132.5l127 -119l146 117q98 -31 148 -103.5t50 -170.5q0 -80 -28.5 -137.5t-83.5 -127.5q-47 -61 -69.5 -104t-22.5 -98v-27q111 -37 206 -95.5t160 -121.5v963h228v-1133h-207q-41 72 -149.5 161t-237.5 138v-100q0 -219 -246 -219 q-117 0 -168 64.5t-51 158.5q0 102 65.5 159.5t171.5 59.5q2 78 40 132t110 122q63 57 96 102t33 105q0 61 -15.5 103t-54.5 65l-121 -101l-116 103q-33 -18 -58.5 -54t-36.5 -73q31 20 74 20q80 0 121 -51t41 -127t-50 -128t-132 -52q-98 0 -147.5 69.5t-49.5 171.5z M150 768q0 -53 26.5 -84t67.5 -31q39 0 66.5 31t27.5 84t-27.5 83t-66.5 30q-41 0 -67.5 -30t-26.5 -83zM158 199q0 -61 21.5 -99.5t60.5 -38.5q73 0 73 115v166q-74 -2 -114.5 -38t-40.5 -105z" />
<glyph unicode="&#xe07;" horiz-adv-x="978" d="M12 586l156 104q98 -102 183 -264t126 -299h58q45 0 69.5 36t24.5 79v555q-25 -6 -51 -6q-72 0 -122 50t-50 128q0 88 55 137t153 49q127 0 184.5 -60.5t57.5 -166.5v-666q0 -111 -77 -186.5t-232 -75.5h-236q-37 156 -126 326t-173 260zM506 969q0 -55 28.5 -86 t71.5 -31t71 30.5t28 86.5q0 55 -28 85.5t-71 30.5t-71.5 -30.5t-28.5 -85.5z" />
<glyph unicode="&#xe08;" horiz-adv-x="1120" d="M49 858q43 135 168 216t309 81q205 0 338 -91t133 -273v-791h-231q-12 117 -78.5 271.5t-132.5 230.5q-12 -68 -54 -94.5t-91 -26.5q-78 0 -124 50t-46 128t46 131t136 53q111 0 198 -124.5t150 -317.5v500q0 115 -77 193.5t-216 78.5q-113 0 -205 -55t-133 -160h-90z M315 561q0 -53 28 -82.5t69 -29.5q39 0 66.5 29.5t27.5 82.5t-27.5 82t-66.5 29q-41 0 -69 -29t-28 -82z" />
<glyph unicode="&#xe09;" horiz-adv-x="1251" d="M53 537q0 84 54.5 131t150.5 47q231 0 231 -217v-338q33 37 78 64.5t113 62.5q111 53 166 102t55 133v279q0 72 -40 134t-114.5 100t-175.5 38q-123 0 -225 -54t-145 -161h-92q41 135 179 216t333 81q215 0 361 -91t146 -273v-213q0 -49 -12 -93q-16 -63 -78 -114 q68 -21 104 -70t36 -121q0 -92 -57.5 -146t-164.5 -54q-106 0 -162.5 54t-56.5 146q0 18 2 27q-113 -53 -176 -98.5t-80 -108.5h-219v375q-31 -6 -55 -6q-63 0 -109.5 49t-46.5 119zM150 537q0 -53 27.5 -83t68.5 -30t67.5 29.5t26.5 83.5q0 53 -26.5 82.5t-67.5 29.5 t-68.5 -29.5t-27.5 -82.5zM854 182q0 -59 28.5 -90t73.5 -31t74 31t29 90t-29 91t-74 32h-14q-18 -12 -59 -33q-29 -35 -29 -90z" />
<glyph unicode="&#xe0a;" horiz-adv-x="1245" d="M35 838q0 82 42 155.5t120.5 117.5t187.5 44q162 0 252 -75.5t90 -202.5q0 -78 -27.5 -138.5t-83.5 -140.5q-47 -70 -68.5 -114t-21.5 -99v-184q0 -63 53.5 -97t135.5 -34t131 32.5t49 98.5v461q0 47 -36 82.5t-75 41.5v95q74 23 131.5 103.5t57.5 184.5h209 q0 -135 -63.5 -212.5t-141.5 -118.5q61 -25 103 -77t42 -114v-409q0 -137 -122.5 -197.5t-288.5 -60.5t-289 60t-123 198v133q0 80 38 140t112 144q63 70 93.5 118t30.5 104q0 92 -51 142t-149 50q-68 0 -120 -38t-73 -95q33 18 72 18q80 0 121 -51t41 -127t-50.5 -128 t-132.5 -52q-98 0 -147 69.5t-49 172.5zM137 776q0 -53 26.5 -83.5t67.5 -30.5q39 0 67 30.5t28 83.5t-28 83t-67 30q-41 0 -67.5 -30t-26.5 -83z" />
<glyph unicode="&#xe0b;" horiz-adv-x="1257" d="M47 829q0 100 60.5 195.5t166.5 132.5l127 -119l146 117q98 -31 148 -103.5t50 -170.5q0 -80 -28.5 -141.5t-83.5 -139.5q-47 -63 -70.5 -111.5t-23.5 -103.5v-184q0 -63 53 -97t135 -34t131 32.5t49 98.5v461q0 47 -35.5 82.5t-74.5 41.5v95q74 23 131 103.5t57 184.5 h209q0 -135 -63.5 -212.5t-141.5 -118.5q61 -25 103.5 -77t42.5 -114v-409q0 -137 -123 -197.5t-289 -60.5t-289 60t-123 198v133q0 80 38 141t114 143q66 72 97.5 120t31.5 108q0 61 -15.5 103t-54.5 65l-121 -101l-116 103q-33 -18 -58.5 -54t-36.5 -73q31 20 74 20 q80 0 121 -51t41 -127t-50 -128t-132 -52q-98 0 -147.5 69.5t-49.5 171.5zM150 768q0 -53 26.5 -84t67.5 -31q39 0 66.5 31t27.5 84t-27.5 83t-66.5 30q-41 0 -67.5 -30t-26.5 -83z" />
<glyph unicode="&#xe0c;" horiz-adv-x="1748" d="M82 846v24q63 127 198.5 206t317.5 79q223 0 358.5 -95t135.5 -282v-370q106 -35 183 -97.5t124 -126.5v949h227v-1133h-207q-53 102 -134 193.5t-193 134.5v-164q0 -92 -58.5 -138t-159.5 -46q-137 0 -181 65.5t-44 159.5q0 86 55.5 150.5t159.5 76.5v385 q0 109 -70.5 178.5t-218.5 69.5q-102 0 -184 -44t-131 -128q63 -20 132 -62.5t114 -87.5v-18q-90 -55 -124 -110.5t-34 -151.5v-129q23 8 49 8q66 0 114 -46t48 -130q0 -90 -55 -138t-154 -48q-119 0 -174 60t-55 167v260q0 178 184 268q-84 66 -223 111zM262 166 q0 -55 27.5 -87t70.5 -32t72 32t29 87t-29 85t-72 30t-70.5 -30t-27.5 -85zM725 207q0 -63 19.5 -104.5t58.5 -41.5q28 0 44.5 25t16.5 61v209q-139 -25 -139 -149z" />
<glyph unicode="&#xe0d;" horiz-adv-x="1738" d="M82 846v24q66 131 191.5 208t308.5 77q211 0 342 -95t131 -282v-690h219q72 0 93.5 32t21.5 91v922h227v-922q0 -111 -54.5 -161t-189.5 -50h-637v88h92v729q0 109 -65.5 178.5t-200.5 69.5q-199 0 -301 -172q63 -20 132 -62.5t114 -87.5v-18q-90 -55 -124 -110.5 t-34 -151.5v-129q23 8 49 8q66 0 114 -46t48 -130q0 -90 -55 -138t-154 -48q-119 0 -174 60t-55 167v260q0 178 184 268q-84 66 -223 111zM262 166q0 -55 27.5 -87t70.5 -32t72 32t29 87t-29 85t-72 30t-70.5 -30t-27.5 -85zM776 -279q0 80 52.5 132.5t134.5 52.5 q92 0 144 -52.5t52 -127.5q0 -45 -21.5 -87t-66.5 -73q29 -4 47 -4q131 0 210 93t102 241h165q-39 -217 -162.5 -321.5t-316.5 -104.5q-184 0 -262 69.5t-78 181.5zM866 -279q0 -53 28 -83.5t73 -30.5t73.5 30.5t28.5 83.5q0 55 -27.5 85t-74.5 30q-45 0 -73 -29.5 t-28 -85.5z" />
<glyph unicode="&#xe0e;" horiz-adv-x="1277" d="M23 166q0 86 55 132t139 46q18 0 29 -2v100q0 100 29.5 172t123.5 121q-76 61 -233 111v24q63 125 195.5 205t312.5 80q209 0 345 -96t136 -281v-1278h-211q-39 117 -176 201q-47 -115 -143.5 -179.5t-214.5 -64.5q-135 0 -211 50.5t-76 142.5q0 96 84 155.5t237 59.5 q121 0 252 -49q6 43 6 88h105q0 -61 -14 -129q90 -49 135 -103v1145q0 106 -71 177t-204 71q-100 0 -179 -44t-130 -128q66 -20 138.5 -62.5t117.5 -87.5v-18q-80 -51 -103.5 -110.5t-23.5 -174.5v-233q0 -227 -242 -227q-100 0 -154 49t-54 137zM123 166q0 -55 28.5 -87 t71.5 -32t71 32t28 87t-28 85t-71 30t-71.5 -30t-28.5 -85zM238 -344q0 -68 48 -97.5t113 -29.5q86 0 164 56.5t115 158.5q-117 47 -225 47q-90 0 -152.5 -35t-62.5 -100z" />
<glyph unicode="&#xe0f;" horiz-adv-x="1277" d="M23 166q0 86 55 132t139 46q18 0 29 -2v100q0 100 29.5 172t123.5 121q-76 61 -233 111v24q63 125 195.5 205t312.5 80q209 0 345 -96t136 -281v-1278h-211l-131 133l-117 -133h-43q-4 8 -21.5 42t-39.5 63q-47 -61 -115.5 -97t-152.5 -36q-102 0 -166 39.5t-64 130.5 q0 76 64.5 122t189.5 46q106 0 199 -64q10 37 14 98h105q0 -92 -35 -172q31 -37 51 -80l131 140l115 -113v1198q0 106 -71 177t-204 71q-205 0 -309 -172q66 -20 138.5 -62.5t117.5 -87.5v-18q-80 -51 -103.5 -110.5t-23.5 -174.5v-233q0 -227 -242 -227q-100 0 -154 49 t-54 137zM123 166q0 -55 28.5 -87t71.5 -32t71 32t28 87t-28 85t-71 30t-71.5 -30t-28.5 -85zM199 -362q0 -49 36.5 -75t92.5 -26q61 0 112.5 37t83.5 102q-80 66 -182 66q-61 0 -102 -27.5t-41 -76.5z" />
<glyph unicode="&#xe10;" horiz-adv-x="1146" d="M16 -336q0 74 63.5 121t182.5 47q96 0 182 -57q8 53 9 90h96q0 -88 -25 -162q37 -41 62 -92l127 119l159 -138v127q-8 -2 -22 -2q-47 0 -80 32t-33 77q0 53 36 83t104 30q65 0 110 -34t45 -100v-282h-188l-131 115l-115 -115h-41q-27 66 -63 115q-39 -68 -104.5 -106 t-153.5 -38q-98 0 -159 40t-61 130zM80 686v84q0 172 108.5 278.5t327.5 106.5q53 0 112.5 -10t69.5 -12q106 -20 146 -21q43 0 73.5 11.5t69.5 45.5l64 -96q-88 -74 -179 -74q-61 0 -147 23q-55 14 -97 21.5t-98 7.5q-96 0 -162.5 -68t-68.5 -192q141 6 270 6 q166 0 261.5 -20.5t144.5 -81t49 -179.5v-326q0 -94 -40 -142t-136 -48h-377q-2 113 -12 196t-37 142q-23 -43 -63 -64.5t-89 -21.5q-72 0 -116.5 48t-44.5 124q0 74 47 124t137 50q168 0 240.5 -139.5t78.5 -370.5h117q39 0 53.5 18.5t14.5 55.5v354q0 72 -15.5 112 t-58.5 58.5t-125 18.5q-94 0 -275.5 -5.5t-242.5 -13.5zM123 -342q0 -47 35 -72.5t84 -25.5q65 0 113 37.5t73 111.5q-76 61 -170 62q-59 0 -97 -30t-38 -83zM182 422q0 -55 28 -84t71 -29q41 0 68.5 30t27.5 83q0 55 -27.5 85t-68.5 30q-43 0 -71 -30t-28 -85zM793 -170 q0 -29 17 -47.5t44 -18.5t44 18.5t17 47.5t-16 46.5t-45 17.5q-27 0 -44 -17.5t-17 -46.5z" />
<glyph unicode="&#xe11;" horiz-adv-x="1357" d="M47 829q0 100 60.5 195.5t166.5 132.5l127 -119l146 117q98 -31 148 -103.5t50 -170.5q0 -80 -28.5 -141.5t-83.5 -139.5q-47 -63 -70.5 -111.5t-23.5 -103.5v-174l376 922h146q186 0 186 -195v-938h-227v975q0 27 -6 40t-29 13h-27l-421 -1028h-226v371q0 80 38 141 t114 143q66 72 97.5 120t31.5 108q0 61 -15.5 103t-54.5 65l-121 -101l-116 103q-33 -18 -58.5 -54t-36.5 -73q31 20 74 20q80 0 121 -51t41 -127t-50 -128t-132 -52q-98 0 -147.5 69.5t-49.5 171.5zM150 768q0 -53 26.5 -84t67.5 -31q39 0 66.5 31t27.5 84t-27.5 83 t-66.5 30q-41 0 -67.5 -30t-26.5 -83z" />
<glyph unicode="&#xe12;" horiz-adv-x="1806" d="M123 0v721q0 129 25.5 211t88 136t177.5 87l223 -160l221 160q115 -33 177.5 -87t88 -136t25.5 -211v-313q106 -35 183 -97.5t124 -126.5v949h227v-1133h-206q-53 102 -134 193.5t-194 134.5v-164q0 -92 -58.5 -138t-158.5 -46q-137 0 -181 65.5t-44 159.5q0 86 55 150.5 t160 76.5v316q0 117 -22.5 176t-94.5 98l-168 -127l-172 127q-72 -39 -94.5 -98.5t-22.5 -175.5v-615q66 29 160 113t123 147q-8 -2 -23 -2q-66 0 -112.5 54.5t-46.5 125.5q0 78 45 128.5t120 50.5q86 0 130 -54.5t44 -138.5q0 -145 -120.5 -282.5t-333.5 -274.5h-211z M522 569q0 -53 28 -82.5t66 -29.5q41 0 68 29.5t27 82.5t-27 82t-68 29q-39 0 -66.5 -28.5t-27.5 -82.5zM782 207q0 -63 19.5 -104.5t58.5 -41.5q29 0 45.5 25t16.5 61v209q-139 -25 -140 -149z" />
<glyph unicode="&#xe13;" horiz-adv-x="1775" d="M82 846v24q66 133 187.5 209t301.5 76q211 0 338 -95t127 -282v-610q31 35 72 60.5t109 60.5q104 51 156 98t52 127v619h228v-555q0 -47 -13 -95q-16 -63 -73 -112q65 -21 101 -70t36 -121q0 -92 -57.5 -146t-163.5 -54t-162.5 54t-56.5 146v21q-98 -47 -159 -93.5 t-77 -107.5h-219v817q0 111 -61.5 179.5t-196.5 68.5q-188 0 -291 -172q63 -20 132 -62.5t114 -87.5v-18q-90 -55 -124 -110.5t-34 -151.5v-129q23 8 49 8q66 0 114 -46t48 -130q0 -90 -55 -138t-154 -48q-119 0 -174 60t-55 167v260q0 178 184 268q-84 66 -223 111z M262 166q0 -55 27.5 -87t70.5 -32t72 32t29 87t-29 85t-72 30t-70.5 -30t-27.5 -85zM1380 182q0 -59 29 -90t74 -31t73.5 31t28.5 90t-28.5 91t-73.5 32h-8l-70 -37q-25 -35 -25 -86z" />
<glyph unicode="&#xe14;" horiz-adv-x="1275" d="M123 0v721q0 205 124 319.5t390 114.5q268 0 392 -114.5t124 -319.5v-721h-227v707q0 176 -63.5 267t-225.5 91q-160 0 -223.5 -88t-63.5 -262v-584q63 29 169 125t136 158q-6 -2 -18 -2q-72 0 -117 51t-45 129t45 128t123 50q84 0 129 -54t45 -138q0 -264 -483 -578 h-211zM551 590q0 -53 26.5 -83t67.5 -30q39 0 66.5 30t27.5 83t-27.5 81.5t-66.5 28.5q-41 0 -67.5 -28.5t-26.5 -81.5z" />
<glyph unicode="&#xe15;" horiz-adv-x="1286" d="M123 0v819q0 123 69.5 214t237.5 122l209 -141l211 141q168 -31 237.5 -122t69.5 -214v-819h-227v748q0 119 -18.5 174t-84.5 92l-186 -121l-188 121q-66 -37 -84.5 -92.5t-18.5 -173.5v-617q68 31 171.5 117t133.5 145q-6 -2 -18 -2q-72 0 -117 51.5t-45 128.5 q0 78 45 128.5t123 50.5q84 0 129 -54.5t45 -138.5q0 -141 -129 -276.5t-354 -280.5h-211zM551 569q0 -53 26.5 -82.5t67.5 -29.5q39 0 66.5 29.5t27.5 82.5t-27.5 82t-66.5 29q-41 0 -67.5 -28.5t-26.5 -82.5z" />
<glyph unicode="&#xe16;" horiz-adv-x="1200" d="M82 846v24q63 125 197.5 205t314.5 80q209 0 346 -96t137 -281v-778h-227v817q0 106 -72.5 177t-206.5 71q-100 0 -180 -44t-131 -128q63 -20 132 -62.5t114 -87.5v-18q-90 -53 -124 -115.5t-34 -169.5v-106q23 8 49 8q66 0 114 -46t48 -130q0 -90 -55 -138t-154 -48 q-119 0 -174 60t-55 167v235q0 88 43 165t141 128q-84 66 -223 111zM262 166q0 -55 27.5 -87t70.5 -32t72 32t29 87t-29 85t-72 30t-70.5 -30t-27.5 -85z" />
<glyph unicode="&#xe17;" horiz-adv-x="1280" d="M20 969q0 88 55.5 137t153.5 49q127 0 184.5 -60.5t57.5 -166.5v-641l338 846h156q193 0 192 -207v-926h-225v975q0 27 -6 40t-29 13h-27l-411 -1028h-215v788q-8 -4 -37 -4q-80 0 -133.5 49.5t-53.5 135.5zM121 969q0 -55 28.5 -86t71.5 -31t70.5 30.5t27.5 86.5 q0 55 -27.5 85.5t-70.5 30.5t-71.5 -30.5t-28.5 -85.5z" />
<glyph unicode="&#xe18;" horiz-adv-x="1163" d="M53 0v88h111v453h227v-453h254q82 0 125 43t43 119v272q0 96 -40 139.5t-159 43.5q-92 0 -269 -5.5t-239 -13.5v84q0 172 106.5 278.5t324.5 106.5q59 0 182 -25q106 -20 145 -20t69 11.5t71 47.5l63 -96q-88 -74 -178 -74q-57 0 -144 23q-106 29 -192 29 q-94 0 -159.5 -68t-67.5 -192q80 6 292 6q147 0 237.5 -21.5t137.5 -81t47 -172.5v-289q0 -113 -58 -173t-179 -60h-750z" />
<glyph unicode="&#xe19;" horiz-adv-x="1265" d="M20 969q0 88 55.5 137t153.5 49q127 0 184.5 -60.5t57.5 -166.5v-760q31 35 78 61.5t127 61.5q119 53 179 99t60 124v619h228v-607q0 -84 -88 -155q67 -19 102 -68t35 -123q0 -92 -56.5 -146t-162.5 -54t-163.5 54t-57.5 146q0 18 2 29q-121 -55 -193 -102.5t-98 -106.5 h-219v788q-8 -4 -37 -4q-80 0 -133.5 49.5t-53.5 135.5zM121 969q0 -55 28.5 -86t71.5 -31t70.5 30.5t27.5 86.5q0 55 -27.5 85.5t-70.5 30.5t-71.5 -30.5t-28.5 -85.5zM870 182q0 -59 29 -90t74 -31q43 0 71.5 31t28.5 90t-28.5 91t-71.5 32q-16 0 -25 -2q-12 -8 -37 -20 q-20 -16 -30.5 -43t-10.5 -58z" />
<glyph unicode="&#xe1a;" horiz-adv-x="1269" d="M20 969q0 88 55.5 137t153.5 49q127 0 184.5 -60.5t57.5 -166.5v-840h311q78 0 108 43t30 119v883h227v-885q0 -131 -63.5 -189.5t-202.5 -58.5h-748v88h111v700q-8 -4 -37 -4q-80 0 -133.5 49.5t-53.5 135.5zM121 969q0 -55 28.5 -86t71.5 -31t70.5 30.5t27.5 86.5 q0 55 -27.5 85.5t-70.5 30.5t-71.5 -30.5t-28.5 -85.5z" />
<glyph unicode="&#xe1b;" horiz-adv-x="1269" d="M20 969q0 88 55.5 137t153.5 49q127 0 184.5 -60.5t57.5 -166.5v-840h311q78 0 108 43t30 119v1311h227v-1313q0 -131 -63.5 -189.5t-202.5 -58.5h-748v88h111v700q-8 -4 -37 -4q-80 0 -133.5 49.5t-53.5 135.5zM121 969q0 -55 28.5 -86t71.5 -31t70.5 30.5t27.5 86.5 q0 55 -27.5 85.5t-70.5 30.5t-71.5 -30.5t-28.5 -85.5z" />
<glyph unicode="&#xe1c;" horiz-adv-x="1292" d="M123 0v928q0 104 57.5 165.5t181.5 61.5q100 0 155.5 -49t55.5 -137q0 -74 -53 -126t-125 -52q-20 0 -45 6v-543l242 391h108l242 -391v879h227v-1133h-227v53l-297 461l-295 -463v-51h-227zM274 969q0 -55 28 -86t71 -31t71.5 30.5t28.5 86.5q0 55 -28.5 85.5 t-71.5 30.5t-71 -30.5t-28 -85.5z" />
<glyph unicode="&#xe1d;" horiz-adv-x="1292" d="M123 0v928q0 104 57.5 165.5t181.5 61.5q100 0 155.5 -49t55.5 -137q0 -74 -53 -126t-125 -52q-20 0 -45 6v-543l242 391h108l242 -391v1307h227v-1561h-227v53l-297 461l-295 -463v-51h-227zM274 969q0 -55 28 -86t71 -31t71.5 30.5t28.5 86.5q0 55 -28.5 85.5 t-71.5 30.5t-71 -30.5t-28 -85.5z" />
<glyph unicode="&#xe1e;" horiz-adv-x="1413" d="M20 969q0 88 55.5 137t153.5 49q127 0 184.5 -60.5t57.5 -166.5v-580l244 668h108l240 -668v785h227v-1133h-227v31l-297 803l-295 -805v-29h-227v788q-8 -4 -37 -4q-80 0 -133.5 49.5t-53.5 135.5zM121 969q0 -55 28.5 -86t71.5 -31t70.5 30.5t27.5 86.5 q0 55 -27.5 85.5t-70.5 30.5t-71.5 -30.5t-28.5 -85.5z" />
<glyph unicode="&#xe1f;" horiz-adv-x="1413" d="M20 969q0 88 55.5 137t153.5 49q127 0 184.5 -60.5t57.5 -166.5v-580l244 668h108l240 -668v1213h227v-1561h-227v31l-297 803l-295 -805v-29h-227v788q-8 -4 -37 -4q-80 0 -133.5 49.5t-53.5 135.5zM121 969q0 -55 28.5 -86t71.5 -31t70.5 30.5t27.5 86.5 q0 55 -27.5 85.5t-70.5 30.5t-71.5 -30.5t-28.5 -85.5z" />
<glyph unicode="&#xe20;" horiz-adv-x="1277" d="M23 166q0 86 55 132t139 46q18 0 29 -2v100q0 100 29.5 172t123.5 121q-76 61 -233 111v24q63 125 195.5 205t312.5 80q209 0 345 -96t136 -281v-778h-227v817q0 106 -71 177t-204 71q-205 0 -309 -172q66 -20 138.5 -62.5t117.5 -87.5v-18q-80 -51 -103.5 -110.5 t-23.5 -174.5v-233q0 -227 -242 -227q-100 0 -154 49t-54 137zM123 166q0 -55 28.5 -87t71.5 -32t71 32t28 87t-28 85t-71 30t-71.5 -30t-28.5 -85z" />
<glyph unicode="&#xe21;" horiz-adv-x="1263" d="M61 203q0 94 53.5 159.5t182.5 77.5v348q-8 -4 -37 -4q-80 0 -133 49.5t-53 135.5q0 88 55 137t154 49q127 0 184 -60.5t57 -166.5v-512q125 -35 231.5 -109t157.5 -139v965h228v-1133h-207q-49 84 -162 184.5t-248 149.5v-70q0 -131 -53 -207.5t-192 -76.5 q-115 0 -166.5 64.5t-51.5 158.5zM141 199q0 -61 21.5 -99.5t60.5 -38.5q74 0 74 115v191q-80 -8 -118 -53.5t-38 -114.5zM174 969q0 -55 28.5 -86t71.5 -31t71 30.5t28 86.5q0 55 -28 85.5t-71 30.5t-71.5 -30.5t-28.5 -85.5z" />
<glyph unicode="&#xe22;" horiz-adv-x="1157" d="M78 887q0 137 72.5 202.5t201.5 65.5q100 0 158.5 -48t58.5 -130q0 -76 -45 -131t-127 -55q-61 0 -96 18q6 -86 72.5 -127t142.5 -41h109v-104h-123q-92 0 -135 -54.5t-43 -130.5v-264h348q78 0 106.5 43t28.5 119v883h227v-885q0 -131 -63.5 -189.5t-202.5 -58.5h-672 v365q0 68 42 128t155 93q-90 31 -152.5 106.5t-62.5 194.5zM256 975q0 -55 28.5 -86t71.5 -31t72 31t29 86t-29 86t-72 31t-71.5 -31t-28.5 -86z" />
<glyph unicode="&#xe23;" horiz-adv-x="1044" d="M63 705v81q0 369 412 369q63 0 154 -20q74 -18 131 -19q41 0 73.5 12.5t67.5 40.5l64 -100q-37 -35 -80 -51.5t-82 -16.5q-43 0 -76 6.5t-76 18.5q-47 12 -78.5 18.5t-74.5 6.5q-100 0 -170 -59.5t-72 -184.5q80 6 193 6q160 0 248.5 -23.5t131.5 -90t43 -197.5v-295 q0 -227 -241 -227q-101 0 -155 49t-54 137q0 86 55 132t139 46q18 0 29 -2v205q0 96 -50 136t-183 40q-74 0 -184.5 -5t-164.5 -13zM522 166q0 -55 29 -87t72 -32t70.5 32t27.5 87t-27.5 85t-70.5 30t-72 -30t-29 -85z" />
<glyph unicode="&#xe24;" horiz-adv-x="1200" d="M82 846v24q63 125 197.5 205t314.5 80q209 0 346 -96t137 -281v-1145h-227v1184q0 106 -72.5 177t-206.5 71q-100 0 -180 -44t-131 -128q63 -20 132 -62.5t114 -87.5v-18q-90 -53 -124 -115.5t-34 -169.5v-106q23 8 49 8q66 0 114 -46t48 -130q0 -90 -55 -138t-154 -48 q-119 0 -174 60t-55 167v235q0 88 43 165t141 128q-84 66 -223 111zM262 166q0 -55 27.5 -87t70.5 -32t72 32t29 87t-29 85t-72 30t-70.5 -30t-27.5 -85z" />
<glyph unicode="&#xe25;" horiz-adv-x="1193" d="M76 858q45 137 172 217t319 80q215 0 359.5 -91t144.5 -273v-791h-209q-41 285 -128 490.5t-234 205.5q-63 0 -105.5 -40t-42.5 -126v-194q16 4 51 4q76 0 124 -47t48 -127q0 -88 -54 -137t-154 -49q-127 0 -184.5 60t-57.5 167v307q0 137 81 217t228 80 q162 0 263.5 -110.5t146.5 -278.5v379q0 117 -81 194.5t-245 77.5q-119 0 -211 -53t-137 -162h-94zM276 166q0 -55 28 -87t71 -32t71.5 32t28.5 87t-28.5 85t-71.5 30t-71 -30t-28 -85z" />
<glyph unicode="&#xe26;" horiz-adv-x="1277" d="M23 166q0 86 55 132t139 46q18 0 29 -2v100q0 100 29.5 172t123.5 121q-76 61 -233 111v24q63 125 195.5 205t312.5 80q209 0 345 -96t136 -281v-1145h-227v1184q0 106 -71 177t-204 71q-100 0 -179 -44t-130 -128q66 -20 138.5 -62.5t117.5 -87.5v-18 q-80 -51 -103.5 -110.5t-23.5 -174.5v-233q0 -227 -242 -227q-100 0 -154 49t-54 137zM123 166q0 -55 28.5 -87t71.5 -32t71 32t28 87t-28 85t-71 30t-71.5 -30t-28.5 -85z" />
<glyph unicode="&#xe27;" horiz-adv-x="1042" d="M20 811q20 162 141.5 253t307.5 91q209 0 330 -90t121 -274v-584q0 -227 -242 -227q-100 0 -154.5 49t-54.5 137q0 86 55.5 132t139.5 46q18 0 28 -2v463q0 125 -66.5 196.5t-207.5 71.5q-106 0 -193.5 -70.5t-111.5 -191.5h-93zM569 166q0 -55 29 -87t72 -32t70.5 32 t27.5 87t-27.5 85t-70.5 30t-72 -30t-29 -85z" />
<glyph unicode="&#xe28;" horiz-adv-x="1282" d="M123 0v721q0 203 126 318.5t392 115.5q209 0 334 -74q74 53 88 138h178q-29 -146 -170 -220q88 -102 88 -278v-721h-227v776q0 131 -75 210t-216 79q-143 0 -217 -78t-74 -211v-454q49 150 109 286q39 86 85 126t113 40q82 0 124 -51t42 -131q0 -76 -44 -127t-120 -51 q-45 0 -82.5 23.5t-54.5 78.5q-41 -68 -98 -242t-80 -274h-221zM567 594q0 -53 27 -83t68 -30q39 0 66.5 30t27.5 83t-28 82t-66 29q-41 0 -68 -29t-27 -82z" />
<glyph unicode="&#xe29;" horiz-adv-x="1316" d="M20 969q0 88 55.5 137t153.5 49q127 0 184.5 -60.5t57.5 -166.5v-840h311q78 0 108 43t30 119v166q-14 -2 -41 -2q-176 0 -272.5 69.5t-96.5 182.5q0 78 53 127t142 49q72 0 125 -45t53 -125q0 -59 -29 -100.5t-86 -57.5q41 -16 104 -16q14 0 48 4v631h227v-488 q53 78 65 180h158q-14 -125 -72.5 -213t-150.5 -135v-229q0 -131 -63.5 -189.5t-202.5 -58.5h-748v88h111v700q-8 -4 -37 -4q-80 0 -133.5 49.5t-53.5 135.5zM121 969q0 -55 28.5 -86t71.5 -31t70.5 30.5t27.5 86.5q0 55 -27.5 85.5t-70.5 30.5t-71.5 -30.5t-28.5 -85.5z M612 668q0 -43 23.5 -68t62.5 -25q41 0 65.5 25t24.5 68q0 45 -24.5 69.5t-65.5 24.5q-39 0 -62.5 -25.5t-23.5 -68.5z" />
<glyph unicode="&#xe2a;" horiz-adv-x="1193" d="M76 858q45 137 172 217t319 80q193 0 324 -70q70 53 84 134h178q-27 -143 -160 -213q78 -88 78 -215v-791h-209q-41 285 -128 490.5t-234 205.5q-63 0 -105.5 -40t-42.5 -126v-194q16 4 51 4q76 0 124 -47t48 -127q0 -88 -54 -137t-154 -49q-127 0 -184.5 60t-57.5 167 v307q0 137 81 217t228 80q162 0 263.5 -110.5t146.5 -278.5v379q0 117 -81 194.5t-245 77.5q-119 0 -211 -53t-137 -162h-94zM276 166q0 -55 28 -87t71 -32t71.5 32t28.5 87t-28.5 85t-71.5 30t-71 -30t-28 -85z" />
<glyph unicode="&#xe2b;" horiz-adv-x="1286" d="M20 969q0 88 55.5 137t153.5 49q127 0 184.5 -60.5t57.5 -166.5v-688l299 514q23 43 82 65q-80 47 -80 154q0 82 52.5 132t154.5 50t154.5 -50t52.5 -132q0 -59 -25.5 -102.5t-79.5 -63.5q82 -52 82 -156v-651h-225v594q0 47 -10 64.5t-37 17.5q-33 0 -66 -55l-366 -621 h-215v788q-8 -4 -37 -4q-80 0 -133.5 49.5t-53.5 135.5zM121 969q0 -55 28.5 -86t71.5 -31t70.5 30.5t27.5 86.5q0 55 -27.5 85.5t-70.5 30.5t-71.5 -30.5t-28.5 -85.5zM879 971q0 -55 28.5 -85t71.5 -30t70.5 29.5t27.5 85.5q0 55 -27.5 87t-70.5 32t-71.5 -32t-28.5 -87z " />
<glyph unicode="&#xe2c;" horiz-adv-x="1413" d="M20 969q0 88 55.5 137t153.5 49q127 0 184.5 -60.5t57.5 -166.5v-586l244 547h108l242 -547v905q-143 -70 -303 -69q-176 0 -262 52t-86 146q0 100 104.5 155.5t280.5 55.5q199 0 325 -63q12 66 13 108h188q-2 -127 -74 -227q39 -66 39 -158v-1247h-227v31l-297 680 l-295 -682v-29h-227v788q-8 -4 -37 -4q-80 0 -133.5 49.5t-53.5 135.5zM121 969q0 -55 28.5 -86t71.5 -31t70.5 30.5t27.5 86.5q0 55 -27.5 85.5t-70.5 30.5t-71.5 -30.5t-28.5 -85.5zM559 1378q0 -51 48 -83.5t143 -32.5q194 0 294 106q-29 68 -96 102.5t-170 34.5 q-96 0 -157.5 -31.5t-61.5 -95.5z" />
<glyph unicode="&#xe2d;" horiz-adv-x="1150" d="M51 858q43 137 171 217t321 80q213 0 349 -91t136 -273v-543q0 -131 -63.5 -189.5t-202.5 -58.5h-641v526q0 106 57.5 167t183.5 61q98 0 153.5 -49.5t55.5 -137.5q0 -86 -53 -135t-133 -49q-29 0 -37 4v-299h318q78 0 106.5 43t28.5 119v551q0 115 -80 193.5t-227 78.5 q-119 0 -212.5 -53t-138.5 -162h-92zM272 567q0 -55 28 -85.5t71 -30.5t71.5 30.5t28.5 85.5t-28.5 86t-71.5 31t-71 -30.5t-28 -86.5z" />
<glyph unicode="&#xe2e;" horiz-adv-x="1155" d="M94 932q0 104 115 160.5t299 56.5q213 0 342 -64q18 55 22 134h191q-2 -127 -84 -238q53 -72 53 -170v-563q0 -131 -63.5 -189.5t-202.5 -58.5h-641v408q0 106 57.5 166.5t184.5 60.5q98 0 153 -49t55 -137q0 -86 -53 -135.5t-133 -49.5q-29 0 -37 4v-180h318 q78 0 106.5 43t28.5 119v573v8q-82 -45 -174 -69.5t-180 -24.5q-356 0 -357 195zM240 934q0 -53 51 -83t147 -30q103 0 187 34t143 95q-39 57 -113.5 88t-171.5 31q-98 0 -170.5 -35t-72.5 -100zM276 449q0 -56 28 -86.5t71 -30.5t71.5 30.5t28.5 86.5q0 55 -28.5 85.5 t-71.5 30.5t-71 -30.5t-28 -85.5z" />
<glyph unicode="&#xe2f;" horiz-adv-x="983" d="M57 918q0 106 54.5 171.5t150.5 65.5q92 0 141.5 -50t49.5 -122q0 -80 -44 -131t-122 -51q-16 0 -43 3t-33 9q2 -20 24.5 -48t61.5 -48.5t84 -20.5q70 0 127 41t91 112t34 159v125h227v-1133h-225v748q-33 -72 -103.5 -115t-154.5 -43q-150 0 -235 92t-85 236zM174 981 q0 -53 26.5 -83t65.5 -30t66.5 30t27.5 83t-27.5 84t-66.5 31t-65.5 -31t-26.5 -84z" />
<glyph unicode="&#xe30;" horiz-adv-x="866" d="M53 289q0 76 50.5 124t136.5 48q84 0 130 -47t46 -113q0 -55 -35 -100t-96 -58q47 -10 88 -10q123 0 195.5 93t78.5 229h154q-12 -203 -129 -305.5t-297 -102.5q-147 0 -234.5 64.5t-87.5 177.5zM53 858q0 76 50.5 124t136.5 48q84 0 130 -47t46 -113q0 -55 -35 -100 t-96 -57q47 -10 88 -11q123 0 195.5 93.5t78.5 228.5h154q-12 -203 -129 -305.5t-297 -102.5q-147 0 -234.5 64.5t-87.5 177.5zM154 291q0 -41 23.5 -64.5t60.5 -23.5q39 0 62.5 22.5t23.5 65.5t-24 66.5t-62 23.5q-37 0 -60.5 -23.5t-23.5 -66.5zM154 860q0 -41 23.5 -64.5 t60.5 -23.5q39 0 62.5 22.5t23.5 65.5t-24 66.5t-62 23.5q-37 0 -60.5 -23.5t-23.5 -66.5z" />
<glyph unicode="&#xe31;" d="M-711 1565q0 78 53.5 127t141.5 49q72 0 126 -41t54 -113q0 -61 -26.5 -103t-88.5 -69q39 -18 103 -18q133 0 228 93t112 234h158q-23 -205 -161.5 -308t-330.5 -103q-176 0 -272.5 69.5t-96.5 182.5zM-606 1567q0 -43 23.5 -67.5t62.5 -24.5q41 0 65.5 24.5t24.5 67.5 q0 45 -24.5 69.5t-65.5 24.5q-39 0 -62.5 -25.5t-23.5 -68.5z" />
<glyph unicode="&#xe32;" horiz-adv-x="899" d="M23 842q18 141 117.5 227t254.5 86q182 0 281.5 -85t99.5 -259v-811h-227v817q0 256 -203 256q-84 0 -150.5 -65.5t-80.5 -165.5h-92z" />
<glyph unicode="&#xe33;" horiz-adv-x="899" d="M-504 1497q0 84 55.5 134t169.5 50q115 0 170.5 -50t55.5 -134q0 -82 -55.5 -133t-170.5 -51q-114 0 -169.5 51t-55.5 133zM-381 1497q0 -55 26.5 -87t75.5 -32q50 0 76.5 32t26.5 87t-26.5 88t-76.5 33q-49 0 -75.5 -33t-26.5 -88zM23 842q18 141 117.5 227t254.5 86 q182 0 281.5 -85t99.5 -259v-811h-227v817q0 256 -203 256q-84 0 -150.5 -65.5t-80.5 -165.5h-92z" />
<glyph unicode="&#xe34;" d="M-1081 1350q14 135 125.5 227t310.5 92t337 -80t185 -239h-958zM-926 1434h588q-41 72 -123 111.5t-188 39.5q-109 0 -182.5 -42t-94.5 -109z" />
<glyph unicode="&#xe35;" d="M-1081 1350q14 135 125.5 227t310.5 92q100 0 188 -33.5t142 -97.5v205h192v-393h-958zM-926 1434h588q-41 72 -123 111.5t-188 39.5q-109 0 -182.5 -42t-94.5 -109z" />
<glyph unicode="&#xe36;" d="M-1081 1350q14 135 125.5 227t310.5 92q139 0 256 -41q0 68 41 111t119 43q76 0 116.5 -43t40.5 -111q0 -57 -28.5 -97t-85.5 -52q43 -59 63 -129h-958zM-926 1434h588q-41 72 -123 111.5t-188 39.5q-109 0 -182.5 -42t-94.5 -109zM-301 1628q0 -37 22 -59l11 -8 q20 -8 39 -9q32 0 50.5 20.5t18.5 55.5t-18.5 54.5t-50.5 19.5q-35 0 -53.5 -19.5t-18.5 -54.5z" />
<glyph unicode="&#xe37;" d="M-1081 1350q14 135 125.5 227t310.5 92q47 0 94 -6v80h141v-123q82 -39 129 -104v227h158v-393h-958zM-926 1434h588q-41 72 -123 111.5t-188 39.5q-109 0 -182.5 -42t-94.5 -109z" />
<glyph unicode="&#xe38;" d="M-526 -295q0 74 53 118t141 44q104 0 156.5 -47t52.5 -133v-383h-180v245q-27 -16 -68 -16q-72 0 -113.5 50t-41.5 122zM-438 -299q0 -49 25.5 -76.5t62.5 -27.5t62.5 27.5t25.5 76.5t-25.5 76.5t-62.5 27.5t-62.5 -27.5t-25.5 -76.5z" />
<glyph unicode="&#xe39;" d="M-850 -295q0 74 49 118t131 44q193 0 193 -180v-303h108q45 0 60.5 21.5t15.5 64.5v387h170v-398q0 -63 -28.5 -111t-110.5 -48h-461v84h96v165q-27 -14 -69 -14q-68 0 -111 49t-43 121zM-762 -299q0 -49 26.5 -76.5t63.5 -27.5t61.5 27.5t24.5 76.5t-24.5 76.5 t-61.5 27.5t-63.5 -27.5t-26.5 -76.5z" />
<glyph unicode="&#xe3a;" d="M-371 -258q0 55 37 93t96 38t96.5 -38t37.5 -93q0 -57 -37 -95t-97 -38q-59 0 -96 38t-37 95z" />
<glyph unicode="&#xe3f;" horiz-adv-x="1265" d="M66 0v29q53 20 88.5 29.5t76.5 13.5v1292q-86 12 -165 39v31h505v174h82v-174h27q252 0 361.5 -82t109.5 -254q0 -117 -66.5 -210t-197.5 -124v-10q170 -31 246.5 -133.5t76.5 -227.5q0 -197 -109.5 -295t-357.5 -98h-90v-197h-82v197h-505zM465 82h250q266 0 266 319 q0 152 -76 232t-217 80h-223v-631zM465 795h178q135 0 205 78.5t70 213.5q0 137 -62.5 200t-204.5 63h-186v-555z" />
<glyph unicode="&#xe40;" horiz-adv-x="595" d="M115 246v887h227v-801q23 8 55 8q61 0 114.5 -45t53.5 -129q0 -88 -56 -137t-155 -49q-135 0 -187 69.5t-52 196.5zM266 166q0 -55 28 -87t71 -32t71.5 32t28.5 87t-28.5 85t-71.5 30t-71 -30t-28 -85z" />
<glyph unicode="&#xe41;" horiz-adv-x="1144" d="M115 246v887h227v-801q23 8 55 8q61 0 114.5 -45t53.5 -129q0 -88 -56 -137t-155 -49q-135 0 -187 69.5t-52 196.5zM266 166q0 -55 28 -87t71 -32t71.5 32t28.5 87t-28.5 85t-71.5 30t-71 -30t-28 -85zM664 246v887h227v-801q23 8 55 8q61 0 114.5 -45t53.5 -129 q0 -88 -56.5 -137t-154.5 -49q-135 0 -187 69.5t-52 196.5zM815 166q0 -55 27.5 -87t70.5 -32t72 32t29 87t-29 85t-72 30t-70.5 -30t-27.5 -85z" />
<glyph unicode="&#xe42;" horiz-adv-x="735" d="M-82 1423v64q0 152 88 242t285 90q51 0 88 -10.5t90 -30.5q61 -27 96 -27q33 0 57.5 13.5t57.5 50.5l76 -72q-27 -41 -73 -67.5t-95 -26.5q-59 0 -135 30q-78 29 -129 29q-92 0 -159 -43t-69 -156q25 4 68 4q150 0 229.5 -76.5t79.5 -236.5v-868q23 8 55 8 q61 0 114.5 -45t53.5 -129q0 -88 -56 -137t-155 -49q-135 0 -187 69.5t-52 196.5v964q0 119 -59.5 167t-184.5 48q-57 0 -84 -2zM397 166q0 -55 28 -87t71 -32t71.5 32t28.5 87t-28.5 85t-71.5 30t-71 -30t-28 -85z" />
<glyph unicode="&#xe43;" horiz-adv-x="686" d="M-80 1491q0 96 47 171t131 116t191 41q168 0 270.5 -73t102.5 -206q0 -72 -30 -127t-89 -129q-55 -74 -83 -123t-28 -110v-719q23 8 55 8q61 0 114.5 -45t53.5 -129q0 -88 -56 -137t-155 -49q-135 0 -187 69.5t-52 196.5v794q0 72 35.5 131.5t105.5 139.5q61 72 93 124 t32 107q0 88 -54.5 138.5t-150.5 50.5q-82 0 -141 -45.5t-78 -112.5q10 10 34.5 19.5t45.5 9.5q88 0 132 -50.5t44 -128.5q0 -76 -52 -126t-126 -50q-86 0 -145.5 64.5t-59.5 179.5zM39 1421q0 -45 24.5 -70.5t61.5 -25.5t63.5 25.5t26.5 70.5t-26.5 71t-63.5 26t-61.5 -26 t-24.5 -71zM356 166q0 -55 28 -87t71 -32t71.5 32t28.5 87t-28.5 85t-71.5 30t-71 -30t-28 -85z" />
<glyph unicode="&#xe44;" horiz-adv-x="759" d="M-127 1753l104 66q55 -57 105.5 -142.5t62.5 -148.5l189 291q88 -8 185 -66.5t132 -120.5q-80 -66 -113.5 -150.5t-33.5 -170.5v-979q23 8 55 8q61 0 114.5 -45t53.5 -129q0 -88 -56.5 -137t-154.5 -49q-135 0 -187.5 69.5t-52.5 196.5v975q0 131 33 229t123 178 q-6 16 -29.5 33.5t-48.5 30.5l-186 -277l-119 19q-10 90 -63.5 180t-112.5 139zM428 166q0 -55 27.5 -87t70.5 -32t72 32t29 87t-29 85t-72 30t-70.5 -30t-27.5 -85z" />
<glyph unicode="&#xe45;" horiz-adv-x="899" d="M23 842q18 141 117.5 227t254.5 86q182 0 281.5 -85t99.5 -259v-1178h-227v1184q0 256 -203 256q-84 0 -150.5 -65.5t-80.5 -165.5h-92z" />
<glyph unicode="&#xe46;" horiz-adv-x="1257" d="M123 754q0 72 27.5 153.5t100.5 152t198 95.5l155 -135l182 135q150 -25 218.5 -119t68.5 -254v-1110h-225v1196q0 63 -13.5 102.5t-50.5 63.5l-182 -143l-170 143q-80 -49 -115.5 -133t-35.5 -158l2 -18q16 37 56 58.5t79 21.5q84 0 135 -47t51 -131t-57.5 -139.5 t-145.5 -55.5q-156 0 -217 95.5t-61 226.5zM315 623q0 -55 29 -88t70 -33q43 0 71.5 32.5t28.5 88.5q0 55 -28.5 86.5t-71.5 31.5t-71 -31.5t-28 -86.5z" />
<glyph unicode="&#xe47;" d="M-961 1563q0 100 66 167.5t193 67.5h270q70 0 92.5 27.5t26.5 99.5h145q-2 -109 -48 -163t-171 -54h-272q-74 0 -113 -38t-39 -99q0 -80 39 -119q31 33 82 63.5t88 36.5q59 -61 135 -100q-6 18 -6 39q0 53 38 93t99 40q74 0 110 -41t36 -100q0 -61 -39 -107.5t-115 -46.5 q-66 0 -130.5 30t-137.5 95q-45 -16 -92.5 -50t-79.5 -77q-86 27 -131.5 92.5t-45.5 143.5zM-412 1481q0 -37 20.5 -59.5t53.5 -22.5q35 0 56.5 21.5t21.5 60.5t-21.5 59.5t-56.5 20.5q-33 0 -53.5 -21.5t-20.5 -58.5z" />
<glyph unicode="&#xe48;" d="M-322 1350v393h199v-393h-199z" />
<glyph unicode="&#xe49;" d="M-711 1669q0 72 46.5 121t136.5 49t141 -49t51 -125q0 -94 -54 -154.5t-112 -87.5q137 8 232.5 38t159 104.5t79.5 210.5h148q-33 -426 -586 -426h-217v63q33 8 79 38t70 58q-90 0 -132 46.5t-42 113.5zM-625 1671q0 -45 26 -73.5t64 -28.5q41 0 66 27.5t25 74.5t-25 76 t-66 29q-39 0 -64.5 -30t-25.5 -75z" />
<glyph unicode="&#xe4a;" d="M-932 1532q0 88 47 170t172 127l140 -113l141 111q98 -20 141 -78.5t43 -136.5q0 -53 -21.5 -101.5t-62.5 -78.5q119 10 172.5 103t57.5 263h135q-10 -201 -97.5 -324.5t-238.5 -123.5h-174v65q43 23 70.5 77t27.5 116q0 84 -53 129l-141 -107l-136 107 q-41 -20 -63.5 -56t-30.5 -75q25 16 60 16q63 0 97 -39t34 -104q0 -57 -41 -98.5t-107 -41.5q-84 0 -128 52.5t-44 140.5zM-829 1481q0 -43 20.5 -66.5t52.5 -23.5q35 0 56.5 23.5t21.5 66.5q0 41 -21.5 63.5t-56.5 22.5q-33 0 -53 -22.5t-20 -63.5z" />
<glyph unicode="&#xe4b;" d="M-604 1511v88h180v164h199v-164h178v-88h-178v-161h-199v161h-180z" />
<glyph unicode="&#xe4c;" d="M-586 1556q0 94 64.5 152.5t183.5 95.5l80 25q37 12 56.5 37.5t19.5 52.5h133q-4 -123 -96 -152l-179 -59q-41 -14 -69.5 -36.5t-28.5 -45.5q20 27 66 27q63 0 99 -42t36 -106q0 -70 -50.5 -112.5t-121.5 -42.5q-92 0 -142.5 54t-50.5 152zM-461 1509q0 -45 21.5 -69.5 t54.5 -24.5q35 0 57.5 24.5t22.5 69.5q0 41 -22.5 64.5t-57.5 23.5q-33 0 -54.5 -23.5t-21.5 -64.5z" />
<glyph unicode="&#xe4d;" d="M-504 1497q0 84 55.5 134t169.5 50q115 0 170.5 -50t55.5 -134q0 -82 -55.5 -133t-170.5 -51q-114 0 -169.5 51t-55.5 133zM-381 1497q0 -55 26.5 -87t75.5 -32q50 0 76.5 32t26.5 87t-26.5 88t-76.5 33q-49 0 -75.5 -33t-26.5 -88z" />
<glyph unicode="&#xe4e;" d="M-596 1499q0 47 34 83t95 44q-37 16 -55.5 47t-18.5 60q0 66 44 101.5t124 35.5h223v-74h-167q-37 0 -54.5 -15.5t-17.5 -39.5q0 -82 153 -96l-24 -76q-31 8 -72 8q-49 0 -80.5 -19.5t-31.5 -52.5q0 -31 20.5 -45t50.5 -14q31 0 69 14.5t56 28.5l58 -70 q-29 -31 -90.5 -51t-120.5 -20q-80 0 -137.5 37.5t-57.5 113.5z" />
<glyph unicode="&#xe4f;" horiz-adv-x="1423" d="M168 520q0 158 71.5 280t195.5 189.5t278 67.5t277.5 -67.5t195 -189.5t71.5 -280t-71.5 -280.5t-195.5 -189t-277 -66.5q-154 0 -279 66.5t-195.5 189t-70.5 280.5zM270 520q0 -129 57.5 -227t159 -152.5t226.5 -54.5q123 0 222 54.5t156.5 152.5t57.5 227 q0 127 -57.5 226.5t-156.5 154.5t-222 55q-125 0 -226.5 -55t-159 -154.5t-57.5 -226.5zM414 520q0 131 85 212t214 81q127 0 211 -81t84 -212t-83 -212t-212 -81t-214 81t-85 212zM506 520q0 -94 57.5 -149.5t149.5 -55.5t148.5 55.5t56.5 149.5q0 92 -56.5 147.5 t-148.5 55.5t-149.5 -55.5t-57.5 -147.5z" />
<glyph unicode="&#xe50;" horiz-adv-x="1343" d="M72 428q0 203 154.5 326t445.5 123t445.5 -123t154.5 -326t-154.5 -325.5t-445.5 -122.5t-445.5 122.5t-154.5 325.5zM287 428q0 -162 105.5 -264.5t279.5 -102.5q114 0 201.5 47.5t134.5 130.5t47 189t-48.5 189t-134.5 130.5t-200 47.5q-115 0 -202 -47.5t-135 -130 t-48 -189.5z" />
<glyph unicode="&#xe51;" horiz-adv-x="1372" d="M72 399q0 150 77.5 257.5t218 164t322.5 56.5q199 0 336 -64.5t205.5 -179.5t68.5 -262q0 -121 -37.5 -231.5t-115.5 -196.5h-213q65 69 108 186t43 254q0 182 -100 297t-287 115q-121 0 -214 -49.5t-144 -138.5t-51 -204q0 -96 35.5 -171.5t97 -116.5t137.5 -41 q61 0 121.5 43t91.5 123q-39 -31 -102 -31q-80 0 -127 55t-47 142q0 78 52 128t128 50q98 0 157.5 -55.5t59.5 -157.5q0 -104 -45 -193.5t-132 -143.5t-210 -54q-213 0 -323.5 116.5t-110.5 302.5zM588 395q0 -55 27.5 -85.5t70.5 -30.5q41 0 69.5 30.5t28.5 85.5t-27.5 85 t-70.5 30t-70.5 -29.5t-27.5 -85.5z" />
<glyph unicode="&#xe52;" horiz-adv-x="1536" d="M82 1241v115q135 -6 205.5 -46t70.5 -122v-938q0 -78 39 -115t121 -37h561q80 0 116 36t36 116v399q0 145 -90 146q-55 0 -94 -68t-39 -166h-115q-4 106 -40 168t-105 62q-72 0 -107 -64.5t-43 -157.5q35 33 84 33q74 0 117 -52t43 -132q0 -78 -52.5 -130t-130.5 -52 q-100 0 -150 64.5t-50 168.5q0 170 65.5 289t227.5 119q156 0 196 -144q39 84 105.5 114t120.5 30q274 0 274 -236v-426q0 -215 -250 -215h-797q-258 0 -258 215v922q0 84 -61 104zM578 422q0 -53 28.5 -84t69.5 -31q43 0 70.5 31t27.5 84q0 55 -27.5 86t-70.5 31 q-41 0 -69.5 -31t-28.5 -86z" />
<glyph unicode="&#xe53;" horiz-adv-x="1452" d="M78 395q0 123 44 232.5t136 179.5t229 70q92 0 173 -47.5t112 -143.5q31 94 112 142.5t171 48.5q145 0 219 -66t74 -205v-606h-215v588q0 102 -27 154.5t-98 52.5q-76 0 -113 -76t-37 -174v-545h-174v528q0 102 -40 184.5t-130 82.5q-98 0 -161.5 -101.5t-63.5 -265.5 q0 -59 8 -102q33 35 86 34q72 0 116 -52t44 -128q0 -86 -51.5 -143t-153.5 -57q-131 0 -195.5 99t-64.5 316zM246 176q0 -53 30.5 -84t73.5 -31q45 0 74 31t29 84q0 55 -29 86t-74 31q-43 0 -73.5 -31t-30.5 -86z" />
<glyph unicode="&#xe54;" horiz-adv-x="1462" d="M72 399q0 233 136 350t443 117h307q111 0 190 23.5t129 95.5t54 207h178q-14 -231 -131.5 -324.5t-357.5 -93.5h-330q-195 0 -299 -94t-104 -279q0 -154 86 -244.5t217 -90.5t340 59q-166 31 -249 105.5t-83 179.5q0 94 56.5 151t158.5 57q92 0 153.5 -51t61.5 -135 q0 -72 -38 -121t-103 -69q86 -53 213 -90q125 -35 196.5 -66t85.5 -37l-53 -90q-172 80 -295 80q-63 0 -205 -27q-184 -33 -284 -32q-223 0 -348 109.5t-125 309.5zM727 428q0 -55 29.5 -86t74.5 -31q43 0 73 31t30 86q0 53 -30 83t-73 30q-45 0 -74.5 -30t-29.5 -83z" />
<glyph unicode="&#xe55;" horiz-adv-x="1462" d="M72 399q0 233 136 350t441 117q-45 45 -45 113q0 78 58.5 126t168.5 48q109 0 167.5 -48t58.5 -126q0 -68 -43 -111q145 6 228 76t89 248h178q-14 -231 -131.5 -324.5t-357.5 -93.5h-330q-194 0 -298.5 -94t-104.5 -279q0 -154 86 -244.5t217 -90.5t340 59 q-166 31 -249 105.5t-83 179.5q0 94 56.5 151t158.5 57q92 0 153.5 -51t61.5 -135q0 -72 -38 -121t-103 -69q86 -53 213 -90q125 -35 196.5 -66t85.5 -37l-53 -90q-172 80 -295 80q-63 0 -205 -27q-184 -33 -284 -32q-223 0 -348 109.5t-125 309.5zM727 428q0 -55 29.5 -86 t74.5 -31q43 0 73 31t30 86q0 53 -30 83t-73 30q-45 0 -74.5 -30t-29.5 -83zM745 979q0 -45 24 -70.5t62 -25.5q39 0 61.5 25.5t22.5 70.5t-22.5 71.5t-61.5 26.5q-38 0 -62 -26.5t-24 -71.5z" />
<glyph unicode="&#xe56;" horiz-adv-x="1402" d="M51 1221h193q49 -94 82.5 -229.5t42.5 -258.5q74 74 186.5 109t235.5 35q154 0 276.5 -51.5t193 -148.5t70.5 -228q0 -127 -58.5 -233.5t-187.5 -171t-329 -64.5q-447 -1 -447 278q0 90 58.5 147.5t167.5 57.5q94 0 153.5 -54.5t59.5 -138.5q0 -74 -40 -121t-120 -57 q55 -31 180 -31q94 0 173 44.5t126 130.5t47 210q0 162 -100.5 255.5t-270.5 93.5q-252 0 -413 -193h-107q0 145 -53 326.5t-119 292.5zM434 266q0 -55 27.5 -85.5t68.5 -30.5t68 30.5t27 85.5t-27 86t-68 31t-68.5 -30.5t-27.5 -86.5z" />
<glyph unicode="&#xe57;" horiz-adv-x="1738" d="M82 399q0 477 344 478q217 0 252 -181q57 180 268 181q143 0 211 -63.5t68 -207.5v-516q92 12 135 166t47 381q2 221 11 364.5t32 219.5h209q-25 -78 -35 -208t-10 -370q0 -250 -80 -446.5t-326 -196.5h-192v590q0 104 -23.5 154.5t-95.5 50.5q-78 0 -105.5 -89.5 t-27.5 -201.5v-103h-174v103q0 121 -24.5 206t-106.5 85q-80 0 -122 -96.5t-42 -266.5q0 -57 4 -90q31 18 88 18q72 0 115 -54t43 -134q0 -82 -53.5 -137t-149.5 -55q-129 0 -194.5 101t-65.5 318zM252 176q0 -53 29.5 -84t74.5 -31q43 0 73 31t30 84q0 55 -30 86t-73 31 q-45 0 -74.5 -31t-29.5 -86z" />
<glyph unicode="&#xe58;" horiz-adv-x="1396" d="M72 399q0 240 137 353.5t457 113.5h225q135 0 206.5 73t76.5 253h178q-10 -162 -57.5 -252t-141.5 -128t-252 -38h-276q-178 0 -258 -95t-80 -278q0 -86 24.5 -152.5t55.5 -98.5q43 70 114.5 138t139.5 99q39 -127 116.5 -219t202.5 -92q43 0 80 18q-74 4 -114 55.5 t-40 129.5q0 80 53.5 136t139.5 56q109 0 160 -59.5t51 -153.5q0 -131 -87 -204.5t-259 -73.5q-133 0 -223.5 83.5t-125.5 192.5q-55 -41 -121.5 -129t-97.5 -147q-161 43 -222.5 162.5t-61.5 256.5zM963 268q0 -55 27.5 -85.5t68.5 -30.5q43 0 71.5 30.5t28.5 85.5 q0 53 -28.5 84t-71.5 31q-41 0 -68.5 -30.5t-27.5 -84.5z" />
<glyph unicode="&#xe59;" horiz-adv-x="1388" d="M80 383q0 143 53 256t148.5 175.5t216.5 62.5q98 0 171.5 -35t118.5 -127q4 72 34 117t69 45q20 0 40.5 -13.5t38 -30t23.5 -20.5q33 -33 58.5 -50.5t50.5 -17.5q49 0 67.5 50.5t18.5 148.5q0 76 -10.5 143.5t-12.5 77.5q-8 39 -10 64h154q31 -158 30 -293 q0 -141 -45 -226t-135 -85q-43 0 -80 20.5t-88 61.5q-6 4 -24.5 18t-32.5 21.5t-25 7.5q-20 0 -25 -19.5t-5 -64.5q0 -150 98 -329t235 -325l-168 -45q-122 103 -205 266.5t-143 356.5q-57 201 -176 201q-104 0 -164.5 -122t-60.5 -302q0 -53 6 -90q23 43 65 62t78 19 q74 0 118 -53t44 -137q0 -86 -65.5 -139t-159.5 -53q-133 0 -217 98t-84 305zM336 180q0 -53 28.5 -83.5t69.5 -30.5q43 0 70.5 30.5t27.5 83.5q0 55 -27.5 86t-70.5 31q-41 0 -69.5 -30.5t-28.5 -86.5z" />
<glyph unicode="&#xe5a;" horiz-adv-x="1456" d="M57 918q0 106 54.5 171.5t150.5 65.5q92 0 141.5 -50t49.5 -122q0 -80 -44 -131t-122 -51q-16 0 -43 3t-33 9q2 -20 24.5 -48t61.5 -48.5t84 -20.5q70 0 127 41t91 112t34 159v125h227v-437q66 4 122 46t90 112t34 154v125h227v-1133h-225v748q-31 -70 -99.5 -112 t-148.5 -46v-590h-225v748q-33 -72 -103.5 -115t-154.5 -43q-150 0 -235 92t-85 236zM174 981q0 -53 26.5 -83t65.5 -30t66.5 30t27.5 83t-27.5 84t-66.5 31t-65.5 -31t-26.5 -84z" />
<glyph unicode="&#xe5b;" horiz-adv-x="2152" d="M66 555q0 150 53 263.5t147 175t213 61.5q180 0 267.5 -113t87.5 -283q0 -117 -68 -198.5t-172 -81.5q-94 0 -145.5 59.5t-51.5 143.5q0 70 44 128t139 58q49 0 90 -23.5t65 -70.5q-10 139 -72.5 219t-168.5 80q-127 0 -196 -120t-69 -300q0 -182 84 -296t226 -114 q231 0 319 194.5t88 471.5h123l109 -293l41 270h106l86 -215l47 164h76l92 -164l33 125h61l97 -98l284 -35v-24l-309 -31l-80 78l-35 -146h-78l-92 162l-51 -203h-72l-92 226l-53 -275h-98l-105 266q-35 -289 -157.5 -425t-354.5 -136q-133 0 -237.5 62.5t-162.5 176.5 t-58 261zM469 578q0 -68 33 -105t84 -37q49 0 84 38t35 104q0 63 -35 100t-84 37q-51 0 -84 -36t-33 -101z" />
<glyph unicode="&#x1e0c;" horiz-adv-x="1402" d="M76 0v31q94 31 162 39v1294q-76 14 -162 41v29h635q322 0 469 -182.5t147 -534.5t-148.5 -534.5t-469.5 -182.5h-633zM469 82h236q209 0 297 165t88 470t-88.5 469t-292.5 164h-240v-1268zM582 -223q0 47 28.5 76.5t73.5 29.5q47 0 75.5 -29.5t28.5 -76.5 q0 -45 -28.5 -75t-75.5 -30q-45 0 -73.5 30t-28.5 75z" />
<glyph unicode="&#x1e0d;" horiz-adv-x="1249" d="M61 496q0 249 131.5 395.5t360.5 146.5q92 0 170 -26.5t145 -100.5v443q-84 16 -139 37v18l367 37v-1362q86 -16 141 -35v-16l-319 -45q-10 68 -19 182q-55 -94 -152.5 -142t-224.5 -48q-219 0 -340 125.5t-121 390.5zM289 494q0 -207 71.5 -320t225.5 -113 q123 0 202.5 81t79.5 208v461q-121 145 -270 145q-160 0 -234.5 -137t-74.5 -325zM508 -223q0 47 28.5 76.5t73.5 29.5q47 0 76 -29.5t29 -76.5q0 -45 -29 -75t-76 -30q-45 0 -73.5 30t-28.5 75z" />
<glyph unicode="&#x1e0e;" horiz-adv-x="1402" d="M76 0v31q94 31 162 39v1294q-76 14 -162 41v29h635q322 0 469 -182.5t147 -534.5t-148.5 -534.5t-469.5 -182.5h-633zM299 -135h721v-80h-721v80zM469 82h236q209 0 297 165t88 470t-88.5 469t-292.5 164h-240v-1268z" />
<glyph unicode="&#x1e0f;" horiz-adv-x="1249" d="M61 496q0 249 131.5 395.5t360.5 146.5q92 0 170 -26.5t145 -100.5v443q-84 16 -139 37v18l367 37v-1362q86 -16 141 -35v-16l-319 -45q-10 68 -19 182q-55 -94 -152.5 -142t-224.5 -48q-219 0 -340 125.5t-121 390.5zM258 -135h721v-80h-721v80zM289 494 q0 -207 71.5 -320t225.5 -113q123 0 202.5 81t79.5 208v461q-121 145 -270 145q-160 0 -234.5 -137t-74.5 -325z" />
<glyph unicode="&#x1e20;" horiz-adv-x="1409" d="M76 717q0 227 82 393t238.5 255t371.5 89q156 0 292 -40t210 -107l-23 -267h-57q-14 45 -26.5 114t-16.5 130q-47 37 -141.5 60.5t-178.5 23.5q-246 0 -380 -177t-134 -474q0 -303 119 -477t363 -174q47 0 112.5 12t112.5 35v516q-102 18 -162 39v28h531v-22 q-66 -37 -144 -49v-525q-76 -57 -211 -88.5t-276 -31.5q-334 0 -508 194.5t-174 542.5zM385 1608v82h721v-82h-721z" />
<glyph unicode="&#x1e21;" horiz-adv-x="1107" d="M76 -59q0 104 100 168q-39 25 -57.5 61.5t-18.5 75.5q0 115 119 188q-143 90 -143 266q0 160 120.5 249t333.5 89q197 0 316 -77q27 29 44 62.5t17 53.5h164q-8 -47 -44 -97t-99 -97q55 -74 55 -183q0 -162 -120 -250t-333 -88q-109 0 -208 27q-43 -31 -43 -70 q0 -31 28.5 -49t81.5 -18h346q144 0 229 -65.5t85 -200.5q0 -303 -508 -303q-213 0 -339 67.5t-126 190.5zM182 1196v82h721v-82h-721zM254 -45q0 -88 77 -136t208 -48q137 0 221 42t84 121q0 63 -48 98.5t-141 35.5h-319l-51 2q-31 -45 -31 -115zM301 700 q0 -113 58.5 -184.5t170.5 -71.5q111 0 169.5 72t58.5 184q0 113 -58.5 184.5t-169.5 71.5q-112 0 -170.5 -71.5t-58.5 -184.5z" />
<glyph unicode="&#x1e24;" horiz-adv-x="1644" d="M76 0v31q94 31 162 39v1294q-92 18 -162 41v29h555v-27q-61 -23 -90 -31t-70 -12v-594h700v596q-66 10 -157 39v29h555v-31q-109 -35 -164 -41v-1294q90 -14 164 -41v-27h-555v25q61 25 88.5 33t68.5 12v616h-700v-618q98 -20 160 -41v-27h-555zM713 -223q0 47 28.5 76.5 t73.5 29.5q47 0 76 -29.5t29 -76.5q0 -45 -29 -75t-76 -30q-45 0 -73.5 30t-28.5 75z" />
<glyph unicode="&#x1e25;" horiz-adv-x="1394" d="M59 0v27q82 33 162 41v1286q-84 16 -141 37v18l369 37v-561q70 70 171 111.5t218 41.5q158 0 255 -76.5t97 -211.5v-682q84 -14 164 -41v-27h-545v27q82 31 154 41v667q0 119 -55.5 170t-147.5 51q-76 0 -159 -39.5t-152 -115.5v-733q80 -12 151 -41v-27h-541zM604 -223 q0 47 29 76.5t74 29.5q47 0 75.5 -29.5t28.5 -76.5q0 -45 -28.5 -75t-75.5 -30q-45 0 -74 30t-29 75z" />
<glyph unicode="&#x1e2a;" horiz-adv-x="1644" d="M76 0v31q94 31 162 39v1294q-92 18 -162 41v29h555v-27q-61 -23 -90 -31t-70 -12v-594h700v596q-66 10 -157 39v29h555v-31q-109 -35 -164 -41v-1294q90 -14 164 -41v-27h-555v25q61 25 88.5 33t68.5 12v616h-700v-618q98 -20 160 -41v-27h-555zM485 -102h136 q10 -104 65 -140.5t135 -36.5t135.5 36t65.5 141h135q-18 -129 -106 -194.5t-230 -65.5q-141 0 -229 65.5t-107 194.5z" />
<glyph unicode="&#x1e2b;" horiz-adv-x="1394" d="M59 0v27q82 33 162 41v1286q-84 16 -141 37v18l369 37v-561q70 70 171 111.5t218 41.5q158 0 255 -76.5t97 -211.5v-682q84 -14 164 -41v-27h-545v27q82 31 154 41v667q0 119 -55.5 170t-147.5 51q-76 0 -159 -39.5t-152 -115.5v-733q80 -12 151 -41v-27h-541zM369 -102 h135q10 -104 65.5 -140.5t135.5 -36.5q79 0 134.5 36t65.5 141h135q-18 -129 -106 -194.5t-229 -65.5t-229.5 65.5t-106.5 194.5z" />
<glyph unicode="&#x1e36;" horiz-adv-x="1265" d="M76 0v29q84 29 174 39v1296q-102 20 -166 41v29h563v-31q-63 -20 -164 -39v-1282h561q2 45 32 123t54 112h52l-31 -317h-1075zM571 -211q0 45 28 75t75 30q45 0 73.5 -30t28.5 -75q0 -47 -28.5 -75.5t-73.5 -28.5q-47 0 -75 28.5t-28 75.5z" />
<glyph unicode="&#x1e37;" horiz-adv-x="671" d="M59 0v27q59 20 162 41v1286q-84 16 -141 37v18l369 37v-1378q90 -14 163 -41v-27h-553zM229 -211q0 45 29 75t74 30q47 0 75.5 -30t28.5 -75q0 -47 -28.5 -75.5t-75.5 -28.5q-45 0 -74 28.5t-29 75.5z" />
<glyph unicode="&#x1e38;" horiz-adv-x="1265" d="M4 1608v80h721v-80h-721zM76 0v29q84 29 174 39v1296q-102 20 -166 41v29h563v-31q-63 -20 -164 -39v-1282h561q2 45 32 123t54 112h52l-31 -317h-1075zM567 -211q0 45 29 75t74 30q47 0 75.5 -30t28.5 -75q0 -47 -28.5 -75.5t-75.5 -28.5q-45 0 -74 28.5t-29 75.5z" />
<glyph unicode="&#x1e39;" horiz-adv-x="671" d="M-27 1608v80h721v-80h-721zM59 0v27q59 20 162 41v1286q-84 16 -141 37v18l369 37v-1378q90 -14 163 -41v-27h-553zM229 -211q0 45 29 75t74 30q47 0 75.5 -30t28.5 -75q0 -47 -28.5 -75.5t-75.5 -28.5q-45 0 -74 28.5t-29 75.5z" />
<glyph unicode="&#x1e3a;" horiz-adv-x="1265" d="M76 0v29q84 29 174 39v1296q-102 20 -166 41v29h563v-31q-63 -20 -164 -39v-1282h561q2 45 32 123t54 112h52l-31 -317h-1075zM283 -135h721v-80h-721v80z" />
<glyph unicode="&#x1e3b;" horiz-adv-x="671" d="M-27 -135h721v-80h-721v80zM59 0v27q59 20 162 41v1286q-84 16 -141 37v18l369 37v-1378q90 -14 163 -41v-27h-553z" />
<glyph unicode="&#x1e42;" horiz-adv-x="1906" d="M76 0v27q76 25 164 39v1298q-109 23 -164 41v29h422l442 -1088l471 1088h420v-29q-66 -23 -164 -43v-1296q88 -14 164 -39v-27h-561v27q72 25 164 41v1189l-482 -1099h-135l-473 1116v-1206q92 -16 164 -41v-27h-432zM848 -223q0 47 28.5 76.5t73.5 29.5q47 0 76 -29.5 t29 -76.5q0 -45 -29 -75t-76 -30q-45 0 -73.5 30t-28.5 75z" />
<glyph unicode="&#x1e43;" horiz-adv-x="2009" d="M59 0v27q84 29 162 41v878q-84 16 -141 37v18l369 37v-143q59 61 144 102t183 41q117 0 201 -44t121 -124q61 72 151 120t203 48q158 0 255 -76.5t97 -211.5v-682q88 -14 164 -41v-27h-543v27q90 33 152 41v667q0 119 -55.5 170t-147.5 51q-68 0 -134 -39.5t-122 -109.5 q4 -37 4 -57v-682q84 -12 150 -41v-27h-516v27q92 33 149 41v667q0 221 -196 221q-68 0 -135.5 -38.5t-124.5 -108.5v-741q84 -14 163 -41v-27h-553zM909 -223q0 47 29 76.5t74 29.5q47 0 75.5 -29.5t28.5 -76.5q0 -45 -28.5 -75t-75.5 -30q-45 0 -74 30t-29 75z" />
<glyph unicode="&#x1e44;" horiz-adv-x="1599" d="M76 0v27q76 25 164 39v1298q-102 20 -164 41v29h409l770 -1145v1077q-92 18 -163 39v29h432v-29q-78 -23 -164 -39v-1366h-127l-889 1311v-1243q92 -16 164 -41v-27h-432zM702 1712q0 47 28 77t75 30q45 0 73.5 -30t28.5 -77q0 -45 -28.5 -74.5t-73.5 -29.5 q-47 0 -75 29.5t-28 74.5z" />
<glyph unicode="&#x1e45;" horiz-adv-x="1392" d="M59 0v27q84 29 162 41v878q-84 16 -141 37v18l369 37v-151q70 68 172 109.5t217 41.5q158 0 255 -76.5t97 -211.5v-682q103 -16 162 -41v-27h-541v27q82 31 152 41v667q0 119 -55.5 170t-147.5 51q-76 0 -160 -38.5t-151 -116.5v-733q84 -14 163 -41v-27h-553zM582 1298 q0 47 27.5 77t74.5 30q45 0 73.5 -29.5t28.5 -77.5q0 -45 -28.5 -74.5t-73.5 -29.5q-47 0 -74.5 29.5t-27.5 74.5z" />
<glyph unicode="&#x1e46;" horiz-adv-x="1599" d="M76 0v27q76 25 164 39v1298q-102 20 -164 41v29h409l770 -1145v1077q-92 18 -163 39v29h432v-29q-78 -23 -164 -39v-1366h-127l-889 1311v-1243q92 -16 164 -41v-27h-432zM680 -223q0 47 28.5 76.5t73.5 29.5q47 0 76 -29.5t29 -76.5q0 -45 -29 -75t-76 -30 q-45 0 -73.5 30t-28.5 75z" />
<glyph unicode="&#x1e47;" horiz-adv-x="1392" d="M59 0v27q84 29 162 41v878q-84 16 -141 37v18l369 37v-151q70 68 172 109.5t217 41.5q158 0 255 -76.5t97 -211.5v-682q103 -16 162 -41v-27h-541v27q82 31 152 41v667q0 119 -55.5 170t-147.5 51q-76 0 -160 -38.5t-151 -116.5v-733q84 -14 163 -41v-27h-553zM571 -223 q0 47 29 76.5t74 29.5q47 0 75.5 -29.5t28.5 -76.5q0 -45 -28.5 -75t-75.5 -30q-45 0 -74 30t-29 75z" />
<glyph unicode="&#x1e48;" horiz-adv-x="1599" d="M76 0v27q76 25 164 39v1298q-102 20 -164 41v29h409l770 -1145v1077q-92 18 -163 39v29h432v-29q-78 -23 -164 -39v-1366h-127l-889 1311v-1243q92 -16 164 -41v-27h-432zM442 -135h721v-80h-721v80z" />
<glyph unicode="&#x1e49;" horiz-adv-x="1392" d="M59 0v27q84 29 162 41v878q-84 16 -141 37v18l369 37v-151q70 68 172 109.5t217 41.5q158 0 255 -76.5t97 -211.5v-682q103 -16 162 -41v-27h-541v27q82 31 152 41v667q0 119 -55.5 170t-147.5 51q-76 0 -160 -38.5t-151 -116.5v-733q84 -14 163 -41v-27h-553zM307 -135 h721v-80h-721v80z" />
<glyph unicode="&#x1e5a;" horiz-adv-x="1404" d="M76 0v31q43 12 89 23.5t77 15.5v1294q-92 18 -162 41v29h708q242 0 345.5 -105.5t103.5 -298.5q0 -168 -88 -274.5t-254 -132.5l311 -555q103 -19 152 -39v-29h-338l-328 614h-217v-546q82 -12 166 -39v-29h-565zM475 696h242q150 0 219.5 89t69.5 247t-70 238t-219 80 h-242v-654zM618 -223q0 47 29 76.5t74 29.5q47 0 75.5 -29.5t28.5 -76.5q0 -45 -28.5 -75t-75.5 -30q-45 0 -74 30t-29 75z" />
<glyph unicode="&#x1e5b;" horiz-adv-x="911" d="M41 0v29q66 27 164 39v878q-88 18 -142 37v16l343 39l20 -182h8q35 82 105.5 132t154.5 50q55 0 99.5 -10t87.5 -37l-43 -112q-53 39 -119 39q-86 0 -161 -58.5t-126 -146.5v-645q80 -12 162 -41v-27h-553zM215 -223q0 47 28.5 76.5t73.5 29.5q47 0 76 -29.5t29 -76.5 q0 -45 -28.5 -75t-76.5 -30q-45 0 -73.5 30t-28.5 75z" />
<glyph unicode="&#x1e5c;" horiz-adv-x="1404" d="M76 0v31q43 12 89 23.5t77 15.5v1294q-92 18 -162 41v29h708q242 0 345.5 -105.5t103.5 -298.5q0 -168 -88 -274.5t-254 -132.5l311 -555q103 -19 152 -39v-29h-338l-328 614h-217v-546q82 -12 166 -39v-29h-565zM233 1608v82h779v-82h-779zM475 696h242q150 0 219.5 89 t69.5 247t-70 238t-219 80h-242v-654zM618 -223q0 47 29 76.5t74 29.5q47 0 75.5 -29.5t28.5 -76.5q0 -45 -28.5 -75t-75.5 -30q-45 0 -74 30t-29 75z" />
<glyph unicode="&#x1e5d;" horiz-adv-x="911" d="M41 0v29q66 27 164 39v878q-88 18 -142 37v16l343 39l20 -182h8q35 82 105.5 132t154.5 50q55 0 99.5 -10t87.5 -37l-43 -112q-53 39 -119 39q-86 0 -161 -58.5t-126 -146.5v-645q80 -12 162 -41v-27h-553zM59 1196v82h721v-82h-721zM213 -223q0 47 28.5 76.5t73.5 29.5 q47 0 76 -29.5t29 -76.5q0 -45 -29 -75t-76 -30q-45 0 -73.5 30t-28.5 75z" />
<glyph unicode="&#x1e5e;" horiz-adv-x="1404" d="M76 0v31q43 12 89 23.5t77 15.5v1294q-92 18 -162 41v29h708q242 0 345.5 -105.5t103.5 -298.5q0 -168 -88 -274.5t-254 -132.5l311 -555q103 -19 152 -39v-29h-338l-328 614h-217v-546q82 -12 166 -39v-29h-565zM324 -135h720v-80h-720v80zM475 696h242q150 0 219.5 89 t69.5 247t-70 238t-219 80h-242v-654z" />
<glyph unicode="&#x1e5f;" horiz-adv-x="911" d="M-2 -135h721v-80h-721v80zM41 0v29q66 27 164 39v878q-88 18 -142 37v16l343 39l20 -182h8q35 82 105.5 132t154.5 50q55 0 99.5 -10t87.5 -37l-43 -112q-53 39 -119 39q-86 0 -161 -58.5t-126 -146.5v-645q80 -12 162 -41v-27h-553z" />
<glyph unicode="&#x1e60;" horiz-adv-x="1155" d="M70 170l24 287h56q23 -63 38 -260q53 -59 135.5 -95t182.5 -36q141 0 240.5 74.5t99.5 211.5q0 88 -47 148.5t-115 98.5t-188 89q-131 53 -212 98t-136.5 123t-55.5 195q0 172 135 261t365 89q150 0 257 -36t183 -111l-22 -254h-58q-31 86 -41 231q-47 41 -115.5 62.5 t-150.5 21.5q-152 0 -233.5 -58.5t-81.5 -170.5q0 -66 40 -113t100 -79t167 -79q143 -61 231 -113.5t151.5 -143.5t63.5 -226q0 -125 -67.5 -217t-185 -140t-265.5 -48q-164 0 -295 53t-200 137zM500 1712q0 47 27.5 77t74.5 30q45 0 74 -30t29 -77q0 -45 -29 -74.5 t-74 -29.5q-47 0 -74.5 29.5t-27.5 74.5z" />
<glyph unicode="&#x1e61;" horiz-adv-x="985" d="M78 109l16 253h51q12 -31 20.5 -100t10.5 -123q88 -78 246 -78q123 0 193.5 53.5t70.5 145.5q0 51 -34 87t-85 59.5t-139 54.5q-113 41 -181.5 75.5t-116.5 95t-48 152.5q0 125 113.5 189.5t285.5 64.5q246 0 377 -110l-18 -213h-54q-12 31 -19 83t-7 101q-88 59 -232 59 q-100 0 -161.5 -34.5t-61.5 -110.5q0 -53 35 -90t84 -60.5t141 -58.5q111 -39 180.5 -74.5t118.5 -97t49 -156.5q0 -145 -115.5 -220.5t-293.5 -75.5q-139 0 -250 34.5t-176 94.5zM385 1298q0 47 27.5 77t74.5 30q45 0 74 -29.5t29 -77.5q0 -45 -29 -74.5t-74 -29.5 q-47 0 -74.5 29.5t-27.5 74.5z" />
<glyph unicode="&#x1e62;" horiz-adv-x="1155" d="M70 170l24 287h56q23 -63 38 -260q53 -59 135.5 -95t182.5 -36q141 0 240.5 74.5t99.5 211.5q0 88 -47 148.5t-115 98.5t-188 89q-131 53 -212 98t-136.5 123t-55.5 195q0 172 135 261t365 89q150 0 257 -36t183 -111l-22 -254h-58q-31 86 -41 231q-47 41 -115.5 62.5 t-150.5 21.5q-152 0 -233.5 -58.5t-81.5 -170.5q0 -66 40 -113t100 -79t167 -79q143 -61 231 -113.5t151.5 -143.5t63.5 -226q0 -125 -67.5 -217t-185 -140t-265.5 -48q-164 0 -295 53t-200 137zM475 -223q0 47 28.5 76.5t74.5 29.5q47 0 75.5 -29.5t28.5 -76.5 q0 -45 -28.5 -75t-75.5 -30q-46 0 -74.5 30t-28.5 75z" />
<glyph unicode="&#x1e63;" horiz-adv-x="985" d="M78 109l16 253h51q12 -31 20.5 -100t10.5 -123q88 -78 246 -78q123 0 193.5 53.5t70.5 145.5q0 51 -34 87t-85 59.5t-139 54.5q-113 41 -181.5 75.5t-116.5 95t-48 152.5q0 125 113.5 189.5t285.5 64.5q246 0 377 -110l-18 -213h-54q-12 31 -19 83t-7 101q-88 59 -232 59 q-100 0 -161.5 -34.5t-61.5 -110.5q0 -53 35 -90t84 -60.5t141 -58.5q111 -39 180.5 -74.5t118.5 -97t49 -156.5q0 -145 -115.5 -220.5t-293.5 -75.5q-139 0 -250 34.5t-176 94.5zM387 -223q0 47 28.5 76.5t73.5 29.5q47 0 76 -29.5t29 -76.5q0 -45 -28.5 -75t-76.5 -30 q-45 0 -73.5 30t-28.5 75z" />
<glyph unicode="&#x1e6c;" horiz-adv-x="1335" d="M76 1083v351h1184v-351h-54q-16 31 -37.5 125.5t-25.5 141.5h-359v-1282q104 -16 177 -39v-29h-586v31q53 14 176 39v1280h-361q-4 -47 -25.5 -141.5t-37.5 -125.5h-51zM563 -223q0 47 29 76.5t74 29.5q47 0 75.5 -29.5t28.5 -76.5q0 -45 -28.5 -75t-75.5 -30 q-45 0 -74 30t-29 75z" />
<glyph unicode="&#x1e6d;" horiz-adv-x="806" d="M25 938v82h170v90q98 35 116 186h111v-276h303v-82h-303v-657q0 -119 48 -167t136 -48q63 0 133 24l15 -76q-103 -34 -230 -34q-154 0 -241.5 72.5t-87.5 228.5v657h-170zM383 -223q0 47 28.5 76.5t73.5 29.5q47 0 76 -29.5t29 -76.5q0 -45 -29 -75t-76 -30 q-45 0 -73.5 30t-28.5 75z" />
<glyph unicode="&#x1e6e;" horiz-adv-x="1335" d="M76 1083v351h1184v-351h-54q-16 31 -37.5 125.5t-25.5 141.5h-359v-1282q104 -16 177 -39v-29h-586v31q53 14 176 39v1280h-361q-4 -47 -25.5 -141.5t-37.5 -125.5h-51zM305 -135h721v-80h-721v80z" />
<glyph unicode="&#x1e6f;" horiz-adv-x="806" d="M25 938v82h170v90q98 35 116 186h111v-276h303v-82h-303v-657q0 -119 48 -167t136 -48q63 0 133 24l15 -76q-102 -35 -230 -34q-154 0 -241.5 72.5t-87.5 228.5v657h-170zM53 -135h721v-80h-721v80z" />
<glyph unicode="&#x1e80;" horiz-adv-x="2099" d="M35 1405v29h549v-31q-31 -12 -80 -24.5t-90 -16.5l262 -1092l352 1098h107l393 -1192l305 1196q-63 10 -135 31v31h366v-25q-55 -29 -120 -39l-359 -1380h-201l-348 1052l-336 -1052h-165l-345 1372q-66 12 -155 43zM829 1886q0 27 20.5 46.5t57.5 19.5q49 0 103 -54 l241 -233l-39 -55l-303 176q-80 47 -80 100z" />
<glyph unicode="&#x1e81;" horiz-adv-x="1648" d="M16 989v31h516v-29q-12 -4 -53 -18.5t-100 -20.5l184 -706l238 674h127l246 -721l198 753q-74 12 -153 41v27h413v-27q-66 -23 -139 -37l-262 -956h-162l-244 719l-252 -719h-155l-262 956q-10 2 -58.5 10.5t-81.5 22.5zM608 1473q0 27 20.5 46t57.5 19q49 0 102 -53 l242 -234l-39 -55l-303 176q-80 47 -80 101z" />
<glyph unicode="&#x1e82;" horiz-adv-x="2099" d="M35 1405v29h549v-31q-31 -12 -80 -24.5t-90 -16.5l262 -1092l352 1098h107l393 -1192l305 1196q-63 10 -135 31v31h366v-25q-55 -29 -120 -39l-359 -1380h-201l-348 1052l-336 -1052h-165l-345 1372q-66 12 -155 43zM918 1665l239 231q47 55 105 56q37 0 56 -19.5 t19 -46.5q0 -53 -77 -100l-304 -176z" />
<glyph unicode="&#x1e83;" horiz-adv-x="1648" d="M16 989v31h516v-29q-12 -4 -53 -18.5t-100 -20.5l184 -706l238 674h127l246 -721l198 753q-74 12 -153 41v27h413v-27q-66 -23 -139 -37l-262 -956h-162l-244 719l-252 -719h-155l-262 956q-10 2 -58.5 10.5t-81.5 22.5zM700 1251l240 232q47 55 104 55q37 0 56.5 -19.5 t19.5 -45.5q0 -53 -78 -101l-303 -176z" />
<glyph unicode="&#x1e84;" horiz-adv-x="2099" d="M35 1405v29h549v-31q-31 -12 -80 -24.5t-90 -16.5l262 -1092l352 1098h107l393 -1192l305 1196q-63 10 -135 31v31h366v-25q-55 -29 -120 -39l-359 -1380h-201l-348 1052l-336 -1052h-165l-345 1372q-66 12 -155 43zM748 1712q0 47 28.5 77t73.5 30q47 0 75.5 -30 t28.5 -77q0 -45 -28.5 -74.5t-75.5 -29.5q-45 0 -73.5 29.5t-28.5 74.5zM1212 1712q0 47 28 77t75 30q45 0 73.5 -30t28.5 -77q0 -45 -28.5 -74.5t-73.5 -29.5q-47 0 -75 29.5t-28 74.5z" />
<glyph unicode="&#x1e85;" horiz-adv-x="1648" d="M16 989v31h516v-29q-12 -4 -53 -18.5t-100 -20.5l184 -706l238 674h127l246 -721l198 753q-74 12 -153 41v27h413v-27q-66 -23 -139 -37l-262 -956h-162l-244 719l-252 -719h-155l-262 956q-10 2 -58.5 10.5t-81.5 22.5zM535 1298q0 47 28.5 77t73.5 30q47 0 75.5 -29.5 t28.5 -77.5q0 -45 -28.5 -74.5t-75.5 -29.5q-45 0 -73.5 29.5t-28.5 74.5zM999 1298q0 47 28 77t75 30q45 0 73.5 -29.5t28.5 -77.5q0 -45 -28.5 -74.5t-73.5 -29.5q-47 0 -75 29.5t-28 74.5z" />
<glyph unicode="&#x1e8e;" horiz-adv-x="1488" d="M35 1403v31h557v-33q-104 -33 -174 -41l383 -641l405 649q-55 12 -133 37v29h381v-33q-55 -23 -115 -33l-471 -747v-553q82 -12 166 -39v-29h-563v27q106 37 164 41v555l-440 737q-90 18 -160 43zM717 1712q0 47 27.5 77t74.5 30q45 0 74 -30t29 -77q0 -45 -29 -74.5 t-74 -29.5q-47 0 -74.5 29.5t-27.5 74.5z" />
<glyph unicode="&#x1e8f;" horiz-adv-x="1187" d="M8 993v27h514v-29q-45 -16 -164 -35l283 -716l272 721q-70 6 -153 30v29h420v-25q-61 -25 -142 -39l-401 -1056q-41 -109 -79 -169.5t-96.5 -92t-152.5 -31.5q-104 0 -205 43l37 106q90 -35 162 -35q57 0 93 17.5t67 66t67 144.5l23 59l-410 950q-82 12 -135 35z M502 1298q0 47 27.5 77t74.5 30q45 0 74 -29.5t29 -77.5q0 -45 -29 -74.5t-74 -29.5q-47 0 -74.5 29.5t-27.5 74.5z" />
<glyph unicode="&#x1e92;" horiz-adv-x="1210" d="M51 0v53l842 1297h-651q-4 -45 -24.5 -125t-39.5 -111h-53v320h1020v-37l-848 -1315h704q4 47 34 125t52 110h54l-33 -317h-1057zM494 -223q0 47 28.5 76.5t73.5 29.5q47 0 75.5 -29.5t28.5 -76.5q0 -45 -28.5 -75t-75.5 -30q-45 0 -73.5 30t-28.5 75z" />
<glyph unicode="&#x1e93;" horiz-adv-x="991" d="M43 0v45l670 893h-492q-18 -129 -45 -182h-63v264h835v-57l-663 -883h510q8 37 27.5 94t33.5 88h70l-23 -262h-860zM393 -223q0 47 29 76.5t74 29.5q47 0 75.5 -29.5t28.5 -76.5q0 -45 -28.5 -75t-75.5 -30q-45 0 -74 30t-29 75z" />
<glyph unicode="&#x1e97;" horiz-adv-x="806" d="M25 938v82h170v90q98 35 116 186h111v-276h303v-82h-303v-657q0 -119 48 -167t136 -48q63 0 133 24l15 -76q-102 -35 -230 -34q-154 0 -241.5 72.5t-87.5 228.5v657h-170zM35 1518q0 47 28.5 76.5t73.5 29.5q47 0 76 -29.5t29 -76.5q0 -45 -29 -75t-76 -30 q-45 0 -73.5 30t-28.5 75zM500 1518q0 47 27.5 76.5t74.5 29.5q45 0 74 -29.5t29 -76.5q0 -45 -29 -75t-74 -30q-47 0 -74.5 30t-27.5 75z" />
<glyph unicode="&#x1e9e;" horiz-adv-x="1486" d="M23 0v31q92 27 165 39v903q0 229 139.5 355t415.5 126q137 0 245 -46t174.5 -120t90.5 -153l-305 -318q223 -20 350 -126.5t127 -272.5q0 -123 -57 -222.5t-177 -157.5t-300 -58q-164 0 -281 43v88q133 -49 273 -50q147 0 230 97.5t83 259.5q0 145 -88 233t-252 88h-145 v52l366 387q-39 82 -132 136t-216 54q-147 0 -229 -88t-82 -244v-966q27 -4 65.5 -17.5t53.5 -21.5v-31h-514z" />
<glyph unicode="&#x1ea0;" horiz-adv-x="1517" d="M14 0v33q37 12 83 24.5t77 16.5l504 1368h162l503 -1372q80 -12 160 -41v-29h-555v31q76 29 166 39l-106 301h-598l-109 -303q88 -10 170 -41v-27h-457zM440 453h539l-268 755zM655 -223q0 47 29 76.5t74 29.5q47 0 75.5 -29.5t28.5 -76.5q0 -45 -28.5 -75t-75.5 -30 q-45 0 -74 30t-29 75z" />
<glyph unicode="&#x1ea1;" horiz-adv-x="1134" d="M55 276q0 160 114 232t296 72h289v155q0 115 -68 168t-188 53q-80 0 -166 -24.5t-162 -61.5l-14 72q86 45 194.5 70.5t220.5 25.5q190 0 300 -78.5t110 -211.5v-664q78 -16 141 -35v-18l-368 -37v143q-76 -84 -169 -120.5t-186 -36.5q-172 0 -258 75.5t-86 220.5z M281 279q0 -107 55 -160t147 -53q74 0 153 48t118 113v271h-236q-119 0 -178 -58.5t-59 -160.5zM463 -223q0 47 28.5 76.5t73.5 29.5q47 0 76 -29.5t29 -76.5q0 -45 -29 -75t-76 -30q-45 0 -73.5 30t-28.5 75z" />
<glyph unicode="&#x1ea2;" horiz-adv-x="1517" d="M14 0v33q37 12 83 24.5t77 16.5l504 1368h162l503 -1372q80 -12 160 -41v-29h-555v31q76 29 166 39l-106 301h-598l-109 -303q88 -10 170 -41v-27h-457zM440 453h539l-268 755zM641 2032q74 35 164 34q90 0 153.5 -43t63.5 -127q0 -145 -180 -161l-21 -136h-96l-10 195 h59q57 0 91 27.5t34 79.5q0 41 -31.5 68.5t-91.5 27.5q-62 0 -121 -33z" />
<glyph unicode="&#x1ea3;" horiz-adv-x="1134" d="M55 276q0 160 114 232t296 72h289v155q0 115 -68 168t-188 53q-80 0 -166 -24.5t-162 -61.5l-14 72q86 45 194.5 70.5t220.5 25.5q190 0 300 -78.5t110 -211.5v-664q78 -16 141 -35v-18l-368 -37v143q-76 -84 -169 -120.5t-186 -36.5q-172 0 -258 75.5t-86 220.5z M281 279q0 -106 55 -159.5t147 -53.5q74 0 153 48t118 113v271h-236q-119 0 -178 -58.5t-59 -160.5zM438 1624q74 35 164 35t153.5 -43t63.5 -127q0 -145 -180 -162l-21 -135h-96l-10 194h59q57 0 91 28t34 79q0 41 -31.5 68.5t-91.5 27.5q-61 0 -120 -33z" />
<glyph unicode="&#x1ea4;" horiz-adv-x="1517" d="M14 0v33q37 12 83 24.5t77 16.5l504 1368h162l503 -1372q80 -12 160 -41v-29h-555v31q76 29 166 39l-106 301h-598l-109 -303q88 -10 170 -41v-27h-457zM422 1675q66 43 155 125t130 139h106q41 -57 130 -139t155 -125l-94 -76q-63 47 -132 116t-108 122h-8 q-39 -53 -107.5 -121.5t-132.5 -116.5zM440 453h539l-268 755zM983 1909l147 155q76 82 144 82q27 0 43 -15t16 -38q0 -31 -27.5 -64.5t-84.5 -64.5l-201 -104z" />
<glyph unicode="&#x1ea5;" horiz-adv-x="1134" d="M55 276q0 160 114 232t296 72h289v155q0 115 -68 168t-188 53q-80 0 -166 -24.5t-162 -61.5l-14 72q86 45 194.5 70.5t220.5 25.5q190 0 300 -78.5t110 -211.5v-664q78 -16 141 -35v-18l-368 -37v143q-76 -84 -169 -120.5t-186 -36.5q-172 0 -258 75.5t-86 220.5z M236 1262q66 43 154.5 124.5t129.5 139.5h107q41 -57 130 -139t154 -125l-94 -76q-63 47 -132 115.5t-107 121.5h-9q-39 -53 -107.5 -121.5t-131.5 -115.5zM281 279q0 -106 55 -159.5t147 -53.5q74 0 153 48t118 113v271h-236q-119 0 -178 -58.5t-59 -160.5zM797 1495 l147 156q76 82 143 82q27 0 43.5 -15.5t16.5 -38.5q0 -31 -27.5 -64.5t-85.5 -64.5l-200 -104z" />
<glyph unicode="&#x1ea6;" horiz-adv-x="1517" d="M14 0v33q37 12 83 24.5t77 16.5l504 1368h162l503 -1372q80 -12 160 -41v-29h-555v31q76 29 166 39l-106 301h-598l-109 -303q88 -10 170 -41v-27h-457zM199 2093q0 23 16 38t43 15q68 0 143 -82l148 -155l-37 -49l-201 104q-57 31 -84.5 64.5t-27.5 64.5zM422 1675 q66 43 155 125t130 139h106q41 -57 130 -139t155 -125l-94 -76q-63 47 -132 116t-108 122h-8q-39 -53 -107.5 -121.5t-132.5 -116.5zM440 453h539l-268 755z" />
<glyph unicode="&#x1ea7;" horiz-adv-x="1134" d="M12 1679q0 23 16.5 38.5t43.5 15.5q68 0 143 -82l147 -156l-36 -49l-201 104q-57 31 -85 65t-28 64zM55 276q0 160 114 232t296 72h289v155q0 115 -68 168t-188 53q-80 0 -166 -24.5t-162 -61.5l-14 72q86 45 194.5 70.5t220.5 25.5q190 0 300 -78.5t110 -211.5v-664 q78 -16 141 -35v-18l-368 -37v143q-76 -84 -169 -120.5t-186 -36.5q-172 0 -258 75.5t-86 220.5zM236 1262q66 43 154.5 124.5t129.5 139.5h107q41 -57 130 -139t154 -125l-94 -76q-63 47 -132 115.5t-107 121.5h-9q-39 -53 -107.5 -121.5t-131.5 -115.5zM281 279 q0 -106 55 -159.5t147 -53.5q74 0 153 48t118 113v271h-236q-119 0 -178 -58.5t-59 -160.5z" />
</font>
</defs>
</svg>
