<?xml version="1.0" standalone="no"?>
<!DOCTYPE svg PUBLIC "-//W3C//DTD SVG 1.1//EN" "http://www.w3.org/Graphics/SVG/1.1/DTD/svg11.dtd" >
<svg xmlns="http://www.w3.org/2000/svg">
<metadata></metadata>
<defs>
<font id="trirongregular" horiz-adv-x="0" >
<font-face units-per-em="2048" ascent="1536" descent="-512" />
<missing-glyph horiz-adv-x="534" />
<glyph unicode="fi" horiz-adv-x="1431" d="M53 946v74h195v86q0 176 79 268t230 92q111 0 209 -32l-14 -70q-70 27 -134 27q-86 0 -136 -60.5t-50 -185.5v-125h666l114 8v-967q98 -18 166 -38v-23h-514v23q39 12 164 38v885h-596v-885q88 -14 164 -38v-23h-514v23q104 33 166 38v885h-195zM993 1239q0 49 32 81 t83 32t83 -32t32 -81t-32 -80t-83 -31t-83 31t-32 80z" />
<glyph unicode="fl" horiz-adv-x="1417" d="M53 946v74h195v125q0 162 94 240.5t289 78.5q43 0 147.5 -16t169.5 -41l238 49v-1395q86 -12 166 -38v-23h-514v23q45 14 163 38v1258q-70 35 -154.5 53.5t-168.5 18.5q-123 0 -184.5 -59.5t-61.5 -186.5v-125h309v-74h-309v-885q88 -14 164 -38v-23h-514v23 q104 33 166 38v885h-195z" />
<glyph unicode="&#xe24;&#xe45;" horiz-adv-x="1779" d="M88 850v24q61 123 190.5 202t301.5 79q129 0 235.5 -42t165.5 -122q45 78 126 121t185 43q172 0 265.5 -85t93.5 -259v-1169h-183v1175q0 264 -213 264q-76 0 -139 -49t-90 -131q18 -51 18 -121v-1138h-184v1171q0 111 -76.5 186.5t-220.5 75.5q-104 0 -189 -47 t-138 -137q61 -20 128.5 -61.5t110.5 -86.5v-16q-92 -53 -127 -115.5t-35 -173.5v-123q27 16 68 17q66 0 113 -45t47 -129t-53.5 -131t-143.5 -47q-113 0 -165 58t-52 161v241q0 201 182 297q-84 68 -221 113zM252 160q0 -55 27.5 -87t70.5 -32t72 31.5t29 87.5 q0 55 -29 85.5t-72 30.5t-70.5 -30.5t-27.5 -85.5z" />
<glyph unicode="&#xe26;&#xe45;" horiz-adv-x="1855" d="M20 158q0 88 52.5 132t130.5 44q33 0 53 -10v116q0 102 29.5 175t124.5 122q-74 57 -234 113v24q59 125 186 203t302 78q129 0 232 -40t163 -120q45 76 124 118t183 42q174 0 267 -85t93 -259v-1169h-184v1175q0 264 -213 264q-72 0 -134 -47t-91 -127q20 -53 20 -127 v-1138h-186v1171q0 113 -73.5 187.5t-217.5 74.5q-104 0 -187 -46t-136 -138q66 -20 138.5 -62.5t112.5 -85.5v-16q-82 -51 -108.5 -111.5t-26.5 -177.5v-239q0 -219 -223 -219q-92 0 -144.5 47t-52.5 131zM111 160q0 -55 28.5 -87t71.5 -32t70.5 31.5t27.5 87.5 q0 55 -27.5 85.5t-70.5 30.5t-71.5 -30.5t-28.5 -85.5z" />
<glyph unicode=" "  horiz-adv-x="534" />
<glyph unicode="&#x09;" horiz-adv-x="534" />
<glyph unicode="&#xa0;" horiz-adv-x="534" />
<glyph unicode="!" horiz-adv-x="595" d="M188 86q0 51 30 81t81 30q49 0 79 -30t30 -81q0 -49 -30 -77.5t-79 -28.5q-51 0 -81 28.5t-30 77.5zM190 1309q0 145 107 145q109 0 109 -145q-4 -57 -5 -84l-61 -961h-84l-61 961q0 31 -5 84z" />
<glyph unicode="&#x22;" horiz-adv-x="833" d="M145 1329v10q0 70 19.5 106t75.5 36q55 0 75.5 -36t20.5 -104v-12l-64 -438h-67zM498 1329v10q0 70 19.5 106t74.5 36q53 0 73.5 -36t20.5 -104v-12l-61 -438h-68z" />
<glyph unicode="#" horiz-adv-x="1742" d="M72 385v76h370l121 506h-360v75h379l90 377h131l-90 -377h481l90 377h131l-90 -377h342v-75h-360l-121 -506h350v-76h-369l-96 -405h-131l96 405h-481l-96 -405h-131l96 405h-352zM573 461h482l121 506h-482z" />
<glyph unicode="$" horiz-adv-x="1116" d="M96 168l23 278h45q27 -63 37 -251q55 -63 139 -101.5t190 -38.5q92 0 172 34t129.5 100.5t49.5 158.5t-49.5 155.5t-121 104.5t-192.5 94q-131 55 -210 101.5t-133 122t-54 186.5q0 160 117.5 247t320.5 95v154h74v-154q254 -8 389 -147l-21 -240h-47q-27 68 -39 221 q-47 43 -115.5 66.5t-154.5 23.5q-162 0 -247 -61.5t-85 -177.5q0 -68 41 -118t103.5 -84t173.5 -83q143 -63 230 -115.5t149.5 -141.5t62.5 -220q0 -170 -123 -275.5t-317 -119.5v-177h-74v175q-154 2 -274.5 54t-188.5 134z" />
<glyph unicode="%" horiz-adv-x="1863" d="M68 1053q0 182 97 285.5t288 103.5q188 0 286.5 -103.5t98.5 -285.5t-98.5 -285.5t-286.5 -103.5q-191 0 -288 103t-97 286zM227 1053q0 -123 54.5 -220.5t171.5 -97.5q114 0 168.5 97.5t54.5 220.5t-54.5 219t-168.5 96q-117 0 -171.5 -96t-54.5 -219zM295 2l1204 1473 l64 -54l-1211 -1468zM1024 367q0 182 98.5 285.5t286.5 103.5q190 0 288.5 -103.5t98.5 -285.5q0 -180 -98.5 -283.5t-288.5 -103.5q-188 0 -286.5 103t-98.5 284zM1186 367q0 -121 54 -218.5t169 -97.5q117 0 171 97.5t54 218.5q0 123 -54 220t-171 97q-115 0 -169 -97.5 t-54 -219.5z" />
<glyph unicode="&#x26;" horiz-adv-x="1515" d="M92 348q0 102 49 181t125 137.5t189 119.5q-195 242 -195 379q0 139 97.5 214t258.5 75q160 0 246 -68.5t86 -197.5q0 -82 -41 -147.5t-102.5 -113.5t-165.5 -116q102 -113 418 -428l82 -82q127 156 155 365h84q-14 -119 -62 -225.5t-124 -192.5l80 -82l162 -166h-220 l-92 92l-47 47q-209 -160 -489 -159q-221 0 -357.5 98t-136.5 270zM276 354q0 -143 97.5 -221t234.5 -78q238 0 416 135q-94 94 -94 95q-115 115 -230.5 232.5t-191.5 207.5q-109 -78 -170.5 -165t-61.5 -206zM436 1184q0 -72 38 -146.5t120 -173.5q127 74 195.5 147.5 t68.5 174.5q0 94 -56.5 144t-152.5 50q-98 0 -155.5 -50t-57.5 -146z" />
<glyph unicode="'" horiz-adv-x="481" d="M145 1329v10q0 70 19.5 106t75.5 36q55 0 75.5 -36t20.5 -104v-12l-64 -438h-67z" />
<glyph unicode="(" horiz-adv-x="522" d="M76 598q0 252 77.5 471t229.5 397h82q-141 -195 -190.5 -389t-49.5 -479q0 -276 57.5 -485t182.5 -377h-82q-307 356 -307 862z" />
<glyph unicode=")" horiz-adv-x="522" d="M55 1466h84q305 -358 305 -868q0 -508 -305 -862h-82q142 192 191 383.5t49 474.5q0 281 -57.5 490.5t-184.5 381.5z" />
<glyph unicode="*" horiz-adv-x="1087" d="M143 1176q0 29 22.5 44t53.5 15q23 0 49 -10l244 -135l-37 286q-4 33 12.5 56.5t55.5 23.5t59.5 -24.5t15.5 -55.5l-43 -286l246 135q25 10 47 10q31 0 53.5 -15.5t22.5 -43.5q0 -27 -20.5 -50.5t-44.5 -29.5l-273 -70l209 -180q14 -14 26.5 -37t12.5 -41 q0 -27 -18.5 -44t-47.5 -17q-25 0 -48 12t-35 31l-160 241l-166 -243q-29 -43 -74 -43q-31 0 -49 19t-18 46q0 18 11 41t25 35l207 180l-248 64q-90 20 -90 86z" />
<glyph unicode="+" horiz-adv-x="1204" d="M115 635v98h395v408h184v-408h396v-98h-396v-408h-184v408h-395z" />
<glyph unicode="," horiz-adv-x="505" d="M129 94q0 51 32 85t85 34q68 0 101.5 -43t33.5 -107q0 -84 -46 -182t-112 -160l-67 52q92 106 102 223q-10 -4 -29 -4q-41 0 -70.5 29.5t-29.5 72.5z" />
<glyph unicode="-" horiz-adv-x="790" d="M88 514v109h612v-109h-612z" />
<glyph unicode="." horiz-adv-x="505" d="M133 98q0 51 32 84t87 33t87 -32.5t32 -84.5q0 -53 -32 -85.5t-87 -32.5t-87 32.5t-32 85.5z" />
<glyph unicode="/" horiz-adv-x="761" d="M66 0l542 1450h90l-544 -1450h-88z" />
<glyph unicode="0" horiz-adv-x="1202" d="M88 717q0 352 121 544.5t391 192.5t392 -191.5t122 -545.5t-122 -545.5t-392 -191.5t-391 192.5t-121 544.5zM281 717q0 -317 74.5 -489.5t244.5 -172.5q172 0 247 172t75 490q0 315 -75 488t-247 173q-170 0 -244.5 -173t-74.5 -488z" />
<glyph unicode="1" horiz-adv-x="1202" d="M248 1208v90l463 187v-1417q145 -6 268 -31v-37h-727v35q162 33 268 33v1257z" />
<glyph unicode="2" horiz-adv-x="1202" d="M96 0v90q29 109 90.5 198t134 156.5t185.5 155.5q121 96 187.5 159.5t112.5 147.5t46 187q0 121 -78 202.5t-221 81.5q-96 0 -192.5 -37.5t-161.5 -99.5l-39 62q74 63 183.5 107t240.5 44q207 0 333.5 -88t126.5 -274q0 -117 -54 -211.5t-134 -163t-213 -164.5 q-115 -82 -183.5 -137.5t-124.5 -129t-79 -159.5h719q4 35 22.5 94.5t34.5 89.5h49l-22 -311h-963z" />
<glyph unicode="3" horiz-adv-x="1202" d="M121 129l39 59q61 -55 166.5 -94t201.5 -39q154 0 247 94.5t93 258.5q0 86 -37.5 158.5t-109.5 114.5t-168 42h-166v78h166q94 0 160.5 46t99.5 115.5t33 143.5q0 121 -77 196.5t-220 75.5q-96 0 -192.5 -36.5t-161.5 -98.5l-39 60q76 66 183 108.5t241 42.5 q207 0 334.5 -85t127.5 -261q0 -121 -79.5 -219t-204.5 -119v-10q123 -23 211 -113t88 -235q0 -221 -142.5 -326.5t-349.5 -105.5q-135 0 -252.5 40.5t-191.5 108.5z" />
<glyph unicode="4" horiz-adv-x="1202" d="M70 346v107l667 981h193v-969h223l-25 -119h-198v-278q104 -2 207 -35v-33h-611v33q123 33 213 33v280h-669zM180 465h559v829h-4z" />
<glyph unicode="5" horiz-adv-x="1202" d="M119 129l39 59q63 -57 164.5 -95t195.5 -38q162 0 256 108.5t94 276.5q0 164 -74.5 271.5t-238.5 107.5q-98 0 -178 -39t-154 -116l-63 20l86 750h743l-12 -121h-662l-59 -531q137 115 344 115q240 0 350.5 -130t110.5 -325q0 -129 -59.5 -234.5t-174 -166.5t-276.5 -61 q-133 0 -244.5 39.5t-187.5 109.5z" />
<glyph unicode="6" horiz-adv-x="1202" d="M109 627q0 416 149.5 621.5t423.5 205.5q139 0 226 -42t155 -109l-41 -60q-59 59 -141 97t-183 38q-152 0 -271.5 -149.5t-133.5 -534.5q37 104 132 161.5t208 57.5q217 0 342 -121.5t125 -332.5q0 -221 -129 -350t-367 -129q-495 0 -495 647zM315 453q0 -106 35 -197.5 t101.5 -146t158.5 -54.5q144 0 222.5 107.5t78.5 277.5q0 174 -79.5 286t-223.5 112q-131 0 -212 -107.5t-81 -277.5z" />
<glyph unicode="7" horiz-adv-x="1202" d="M117 1126v308h966v-66q-139 -145 -261 -389t-200.5 -509t-97.5 -470h-188q59 403 209.5 740t335.5 573h-670q-18 -137 -43 -187h-51z" />
<glyph unicode="8" horiz-adv-x="1202" d="M100 389q0 145 83 240.5t218 134.5q-106 29 -182 128t-76 214q0 168 124 258t333 90t333 -90t124 -258q0 -117 -75 -215t-183 -127q137 -41 219 -135t82 -240q0 -176 -118 -292.5t-382 -116.5t-382 116.5t-118 292.5zM291 383q0 -106 44 -180t113.5 -111t149.5 -37 t152.5 38t116.5 112t44 178q0 160 -83 249t-228 89t-227 -89t-82 -249zM332 1112q0 -131 71.5 -224t196.5 -93q127 0 198.5 93t71.5 224q0 129 -79.5 197.5t-190.5 68.5q-117 0 -192.5 -67.5t-75.5 -198.5z" />
<glyph unicode="9" horiz-adv-x="1202" d="M104 971q0 219 130.5 351t365.5 132q498 0 498 -649q0 -414 -150.5 -619.5t-425.5 -205.5q-141 0 -229 40.5t-152 106.5l39 61q57 -59 141.5 -96t184.5 -37q154 0 275.5 147.5t129.5 528.5q-29 -100 -129 -160.5t-211 -60.5q-217 0 -342 124t-125 337zM293 987 q0 -174 80 -285.5t223 -111.5q86 0 152.5 49t103.5 137t37 201q0 106 -35 197.5t-101.5 147.5t-158.5 56q-143 0 -222 -109.5t-79 -281.5z" />
<glyph unicode=":" horiz-adv-x="505" d="M133 98q0 51 32 84t87 33t87 -32.5t32 -84.5q0 -53 -32 -85.5t-87 -32.5t-87 32.5t-32 85.5zM133 905q0 53 32 86t87 33t87 -33t32 -86q0 -51 -32 -84t-87 -33t-87 33t-32 84z" />
<glyph unicode=";" horiz-adv-x="505" d="M129 94q0 51 32 85t85 34q68 0 101.5 -43t33.5 -107q0 -84 -46 -182t-112 -160l-67 52q92 106 102 223q-20 -4 -29 -4q-41 0 -70.5 29.5t-29.5 72.5zM133 905q0 53 32 86t87 33t87 -33t32 -86q0 -51 -32 -84t-87 -33t-87 33t-32 84z" />
<glyph unicode="&#x3c;" horiz-adv-x="1204" d="M100 647v64l996 499v-110l-826 -420l826 -422v-111z" />
<glyph unicode="=" horiz-adv-x="1204" d="M109 389v98h987v-98h-987zM109 784v99h987v-99h-987z" />
<glyph unicode="&#x3e;" horiz-adv-x="1204" d="M109 147v111l825 422l-825 420v110l995 -499v-64z" />
<glyph unicode="?" horiz-adv-x="956" d="M59 1300q174 154 420 154q176 0 294 -83t118 -253q0 -78 -27.5 -139t-66.5 -105.5t-109 -109.5q-76 -70 -121 -123t-76.5 -128t-31.5 -173h-99q1 68 9 115q14 115 62 193.5t134 172.5q78 88 115 149.5t37 145.5q0 119 -68.5 190.5t-222.5 71.5q-178 0 -330 -133zM301 88 q0 51 29.5 80t79.5 29q51 0 80.5 -29t29.5 -80t-29.5 -79.5t-80.5 -28.5q-50 0 -79.5 28.5t-29.5 79.5z" />
<glyph unicode="@" horiz-adv-x="1662" d="M74 588q0 217 96 396t277.5 283.5t422.5 104.5q205 0 367 -81t253 -230.5t91 -345.5q0 -123 -42 -228.5t-115.5 -167t-168.5 -61.5q-70 0 -125 46t-65 124h-8q-35 -82 -116 -126t-165 -44q-160 0 -241.5 91t-81.5 247q0 113 48 207t140 150.5t221 56.5q78 0 157 -16.5 t142 -51.5l-35 -477q0 -63 45.5 -98t94.5 -35q63 0 115.5 49t82 136t29.5 200q0 172 -78 304t-217 204.5t-317 72.5q-215 0 -376 -90t-247 -249.5t-86 -362.5q0 -289 164 -462t489 -173q94 0 206 18.5t210 61.5v-80q-213 -78 -432 -78q-234 0 -399.5 91.5t-250.5 250 t-85 363.5zM596 578q0 -115 50 -179.5t142 -64.5q89 0 148 63.5t68 167.5l24 332q-68 27 -162 27q-119 0 -194.5 -98.5t-75.5 -247.5z" />
<glyph unicode="A" horiz-adv-x="1480" d="M14 0v27q35 12 82 23t78 16l502 1376h129l502 -1379q89 -13 159 -38v-25h-512v25q72 27 166 36l-110 312h-615l-112 -312q90 -10 170 -38v-23h-439zM420 444h565l-280 793z" />
<glyph unicode="B" horiz-adv-x="1239" d="M74 0v25q49 18 85 26t81 12v1307q-102 16 -166 37v27h588q244 0 350 -82t106 -256q0 -117 -66.5 -211t-199.5 -121v-10q174 -29 250 -131.5t76 -231.5q0 -197 -106.5 -294t-346.5 -97h-651zM430 72h275q147 0 217.5 82t70.5 243q0 154 -82 237t-233 83h-248v-645z M430 791h203q145 0 221 79.5t76 219.5q0 139 -68.5 203.5t-220.5 64.5h-211v-567z" />
<glyph unicode="C" horiz-adv-x="1267" d="M96 717q0 346 170 541.5t486 195.5q268 0 424 -141l-19 -250h-49q-25 72 -39 229q-49 39 -118.5 62.5t-149.5 23.5q-256 0 -384 -180t-128 -481q0 -305 119.5 -483.5t377.5 -178.5q78 0 177.5 29t181.5 82l26 -55q-72 -63 -181 -97t-236 -34q-324 0 -491 194.5 t-167 542.5z" />
<glyph unicode="D" horiz-adv-x="1370" d="M82 0v25q80 29 162 36v1309q-78 12 -162 39v25h614q311 0 453.5 -181.5t142.5 -535.5q0 -352 -143 -534.5t-455 -182.5h-612zM432 72h258q223 0 316.5 167t93.5 478q0 309 -93.5 475t-312.5 166h-262v-1286z" />
<glyph unicode="E" horiz-adv-x="1255" d="M82 0v25q84 31 170 38v1307q-74 8 -170 39v25h1046v-299h-43q-16 29 -33.5 104.5t-21.5 118.5h-588v-617h426q4 37 14.5 87.5t24.5 82.5h33v-413h-33q-14 35 -24.5 85t-14.5 85h-426v-596h594q2 43 29 116.5t47 106.5h45l-29 -295h-1046z" />
<glyph unicode="F" horiz-adv-x="1167" d="M82 0v25q86 27 170 36v1309q-104 16 -170 39v25h1032v-299h-45q-16 29 -33.5 104.5t-21.5 118.5h-572v-617h426q4 37 14.5 87.5t24.5 82.5h33v-413h-33q-14 35 -24.5 85t-14.5 85h-426v-607q106 -16 172 -38v-23h-532z" />
<glyph unicode="G" horiz-adv-x="1374" d="M76 717q0 227 80 393t232.5 255t361.5 89q147 0 280 -39t203 -102l-19 -250h-49q-27 80 -39 229q-45 37 -143 61.5t-184 24.5q-258 0 -394.5 -181t-136.5 -480q0 -305 123 -483.5t379 -178.5q55 0 130 14.5t126 43.5v520q-96 18 -162 37v24h488v-20q-66 -35 -144 -45 v-529q-76 -57 -206 -88.5t-265 -31.5q-321 0 -491 194.5t-170 542.5z" />
<glyph unicode="H" horiz-adv-x="1619" d="M82 0v25q80 29 162 36v1309q-88 14 -162 39v25h512v-25q-55 -20 -85 -27.5t-75 -11.5v-606h750v606q-68 10 -160 39v25h514v-27q-90 -31 -166 -39v-1307q94 -14 166 -38v-23h-514v20q53 20 84 28t76 13v629h-750v-629q96 -18 160 -38v-23h-512z" />
<glyph unicode="I" horiz-adv-x="698" d="M88 0v25q88 27 166 36v1309q-86 12 -166 39v25h522v-27q-70 -23 -168 -37v-1309q84 -12 168 -38v-23h-522z" />
<glyph unicode="J" horiz-adv-x="968" d="M43 80l31 49q104 -61 229 -61q229 0 229 225v1075q-86 12 -161 37v29h514v-27q-88 -31 -162 -39v-1075q0 -152 -99.5 -232.5t-265.5 -80.5q-192 0 -315 100z" />
<glyph unicode="K" horiz-adv-x="1507" d="M82 0v25q37 12 84 22t80 14v1309q-98 14 -164 39v25h520v-27q-74 -25 -166 -37v-702l619 673q12 12 12 21q0 16 -50 26.5t-99 12.5v33h411v-33q-18 -4 -48 -8t-52.5 -11.5t-38.5 -25.5l-481 -518l608 -777q102 -18 170 -38v-23h-328l-563 719l-160 -176v-482 q82 -12 166 -38v-23h-520z" />
<glyph unicode="L" horiz-adv-x="1226" d="M82 0v25q84 27 172 36v1309q-94 14 -166 39v25h520v-27q-74 -23 -164 -37v-1298h576q2 43 29.5 117.5t48.5 105.5h43l-29 -295h-1030z" />
<glyph unicode="M" horiz-adv-x="1869" d="M82 0v23q76 23 164 36v1311q-98 14 -164 39v25h383l459 -1115l485 1115h379v-25q-76 -25 -164 -41v-1309q88 -14 164 -36v-23h-518v23q70 23 164 38v1229l-496 -1132h-111l-487 1145v-1242q94 -16 164 -38v-23h-422z" />
<glyph unicode="N" horiz-adv-x="1593" d="M82 0v23q76 23 164 36v1311q-98 14 -164 39v25h373l798 -1194v1132q-84 12 -163 37v25h421v-25q-72 -23 -165 -39v-1370h-109l-897 1329v-1268q94 -16 164 -38v-23h-422z" />
<glyph unicode="O" horiz-adv-x="1464" d="M76 717q0 346 169 541.5t486 195.5q315 0 486.5 -195.5t171.5 -541.5t-171 -541.5t-487 -195.5q-317 0 -486 194.5t-169 542.5zM266 717q0 -301 118 -481.5t347 -180.5q230 0 348.5 181.5t118.5 480.5t-118.5 480t-348.5 181q-229 0 -347 -181t-118 -480z" />
<glyph unicode="P" horiz-adv-x="1247" d="M74 0v25q39 12 88 22t78 14v1309q-88 14 -162 39v25h610q264 0 380 -110t116 -316q0 -197 -111.5 -319t-333.5 -122h-309v-506q86 -12 166 -38v-23h-522zM430 639h268q152 0 225.5 102.5t73.5 268.5q0 164 -73.5 256t-225.5 92h-268v-719z" />
<glyph unicode="Q" horiz-adv-x="1464" d="M76 717q0 346 169 541.5t486 195.5q315 0 486.5 -195.5t171.5 -541.5q0 -309 -136.5 -499.5t-394.5 -229.5q23 -105 115 -170.5t237 -77.5v-66q-231 18 -364 97t-168 211q-293 16 -447.5 209.5t-154.5 525.5zM266 717q0 -299 118 -480.5t347 -181.5t348 181.5t119 480.5 t-118.5 480t-348.5 181q-227 0 -346 -181t-119 -480z" />
<glyph unicode="R" horiz-adv-x="1368" d="M82 0v25q37 12 84 22t82 14v1309q-86 12 -162 39v25h674q233 0 336.5 -106.5t103.5 -299.5q0 -172 -89 -278.5t-261 -128.5l317 -560q105 -18 150 -36v-25h-299l-336 614h-244v-553q80 -12 166 -38v-23h-522zM438 688h269q158 0 231.5 90t73.5 252t-74 245t-231 83h-269 v-670z" />
<glyph unicode="S" horiz-adv-x="1116" d="M70 168l20 278h47q18 -51 37 -251q53 -63 137 -101.5t191 -38.5q145 0 247.5 77t102.5 216q0 92 -49 156.5t-121 105.5t-193 95q-131 57 -208.5 102t-132 119.5t-54.5 185.5q0 168 129 255t348 87q281 0 422 -147l-20 -240h-47q-27 76 -39 221q-47 43 -116 66.5 t-153 23.5q-164 0 -247.5 -61.5t-83.5 -177.5q0 -68 42 -118t104.5 -86t170.5 -83q141 -61 228.5 -113.5t149.5 -141.5t62 -220q0 -121 -64.5 -211t-177 -138t-253.5 -48q-160 0 -286 52t-193 136z" />
<glyph unicode="T" horiz-adv-x="1308" d="M82 1112v322h1143v-322h-43q-16 29 -34 114t-22 132h-378v-1297q100 -16 174 -38v-23h-537v25q70 18 174 36v1297h-379q-4 -47 -21.5 -132t-33.5 -114h-43z" />
<glyph unicode="U" horiz-adv-x="1576" d="M78 1409v25h520v-27q-72 -25 -166 -37v-954q0 -360 410 -361q180 0 289.5 85t109.5 276v956q-84 8 -168 37v25h426v-25q-94 -31 -168 -41v-932q0 -456 -534 -456h-2h-2q-549 0 -549 456v934q-94 14 -166 39z" />
<glyph unicode="V" horiz-adv-x="1484" d="M35 1409v25h510v-27q-72 -27 -170 -37l403 -1218l404 1218q-106 14 -172 41v23h438v-27q-82 -31 -156 -43l-475 -1374h-151l-476 1378q-88 14 -155 41z" />
<glyph unicode="W" horiz-adv-x="2076" d="M35 1409v25h508v-27q-70 -29 -168 -39l278 -1139l359 1135h92l401 -1206l320 1218q-57 10 -133 31v27h348v-23q-63 -29 -121 -37l-365 -1384h-161l-369 1108l-348 -1108h-133l-350 1376q-70 12 -158 43z" />
<glyph unicode="X" horiz-adv-x="1409" d="M27 0v25q45 18 112 32l490 670l-412 639q-82 16 -147 41v27h510v-29q-86 -31 -181 -39l326 -506l375 512q-76 14 -131 37v25h346v-25q-72 -29 -119 -37l-424 -584l467 -725q80 -15 150 -38v-25h-512v20q86 37 180 46l-383 591l-436 -600q72 -14 133 -34v-23h-344z" />
<glyph unicode="Y" horiz-adv-x="1454" d="M35 1407v27h514v-29q-88 -31 -174 -39l395 -666l420 672q-59 12 -131 37v25h358v-29q-47 -20 -112 -31l-478 -758v-555q84 -12 168 -38v-23h-522v23q94 31 166 38v557l-446 748q-80 12 -158 41z" />
<glyph unicode="Z" horiz-adv-x="1181" d="M53 0v47l854 1311h-676q-4 -43 -21 -119t-34 -104h-45v299h981v-35l-858 -1327h729q4 45 30.5 118.5t47.5 104.5h45l-31 -295h-1022z" />
<glyph unicode="[" horiz-adv-x="610" d="M115 -256v1696h411v-72h-268v-1546h268v-78h-411z" />
<glyph unicode="\" horiz-adv-x="688" d="M27 1450h88l547 -1450h-91z" />
<glyph unicode="]" horiz-adv-x="610" d="M84 -178h266v1546h-266v72h410v-1696h-410v78z" />
<glyph unicode="^" horiz-adv-x="1146" d="M92 641l408 838h147l408 -838h-133l-349 760l-348 -760h-133z" />
<glyph unicode="_" horiz-adv-x="946" d="M-6 -158h956v-75h-956v75z" />
<glyph unicode="`" horiz-adv-x="1019" d="M322 1454q0 25 16 40t43 15q47 0 92 -45q78 -70 236 -219l-33 -47l-291 168q-61 37 -63 88z" />
<glyph unicode="a" horiz-adv-x="1101" d="M61 274q0 158 113 228.5t287 70.5h303v164q0 117 -69.5 172.5t-196.5 55.5q-80 0 -165 -23.5t-157 -60.5l-14 63q82 43 185.5 68.5t211.5 25.5q182 0 286.5 -78.5t104.5 -209.5v-672q72 -14 142 -33v-16l-328 -33v149q-84 -90 -179.5 -127.5t-187.5 -37.5 q-164 0 -250 75.5t-86 218.5zM244 276q0 -111 60.5 -166t158.5 -55q84 0 171 52.5t130 121.5v271h-258q-131 0 -196.5 -58.5t-65.5 -165.5z" />
<glyph unicode="b" horiz-adv-x="1224" d="M23 1399v14l327 35v-553q86 86 176 114.5t185 28.5q131 0 233.5 -57t160.5 -171t58 -275q0 -283 -127 -419t-354 -136q-121 0 -216 47t-140 129q-10 -66 -39 -156h-121v1362q-86 16 -143 37zM350 346q0 -123 82 -209t225 -86q170 0 246 129t76 344q0 219 -78 330 t-252 111q-88 0 -167 -46.5t-132 -113.5v-459z" />
<glyph unicode="c" horiz-adv-x="1015" d="M61 508q0 250 146.5 390t392.5 140q221 0 367 -123l-15 -223h-41q-12 31 -20 91.5t-10 109.5q-109 72 -230 72q-195 0 -299 -121t-104 -348q0 -117 42 -218.5t130 -165t221 -63.5q82 0 167 27.5t146 73.5l19 -54q-61 -51 -159.5 -83.5t-221.5 -32.5q-162 0 -282 65.5 t-184.5 185t-64.5 277.5z" />
<glyph unicode="d" horiz-adv-x="1210" d="M61 504q0 250 129 392t351 142q94 0 177 -28.5t156 -110.5v463q-86 16 -141 37v14l326 35v-1370q82 -16 141 -33v-14l-285 -41q-10 66 -18 180q-53 -94 -153.5 -142t-227.5 -48q-215 0 -335 128t-120 396zM246 502q0 -213 77.5 -332t243.5 -119q138 0 222.5 85t84.5 214 v457q-133 158 -290 158q-172 0 -255 -132.5t-83 -330.5z" />
<glyph unicode="e" horiz-adv-x="1093" d="M55 508q0 252 138.5 391t379.5 139q154 0 256.5 -65.5t151.5 -175t49 -242.5v-47h-788q2 -201 103 -330t294 -129q82 0 171 27.5t155 73.5l18 -54q-59 -49 -162.5 -82.5t-226.5 -33.5q-162 0 -284 66.5t-188.5 186t-66.5 275.5zM244 580h622q0 92 -28.5 180t-93 146.5 t-166.5 58.5q-154 0 -237 -108.5t-97 -276.5z" />
<glyph unicode="f" horiz-adv-x="819" d="M53 946v74h195v86q0 176 79 268t230 92q111 0 209 -32l-14 -70q-70 27 -134 27q-86 0 -136 -60.5t-50 -185.5v-125h309v-74h-309v-885q96 -14 172 -38v-23h-522v23q104 33 166 38v885h-195z" />
<glyph unicode="g" horiz-adv-x="1077" d="M76 -57q0 113 108 180q-43 23 -63.5 58.5t-20.5 76.5q0 111 117 180q-68 41 -102.5 108.5t-34.5 153.5q0 160 115.5 249t318.5 89t315 -88q29 31 48.5 68t19.5 59h139q-10 -49 -46 -100t-97 -92q55 -74 55 -185q0 -160 -115.5 -247.5t-318.5 -87.5q-111 0 -203 28 q-65 -40 -65 -87q0 -40 36.5 -53t116.5 -13h346q129 0 200 -70t71 -190q0 -293 -508 -293q-201 0 -316.5 66.5t-115.5 189.5zM223 -45q0 -92 81 -141.5t218 -49.5q150 0 238 46.5t88 142.5q0 66 -43 101.5t-129 35.5h-338q-23 0 -64 4q-51 -55 -51 -139zM262 700 q0 -115 64.5 -189.5t187.5 -74.5t187.5 75t64.5 189q0 115 -64.5 190t-187.5 75t-187.5 -75t-64.5 -190z" />
<glyph unicode="h" horiz-adv-x="1351" d="M63 0v23q82 31 164 38v1301q-86 16 -143 37v14l328 35v-567q72 70 175 113.5t222 43.5q152 0 245 -77.5t93 -210.5v-689q82 -11 164 -38v-23h-506v23q80 29 158 38v672q0 123 -59.5 177.5t-158.5 54.5q-82 0 -172 -42t-161 -120v-742q78 -12 155 -38v-23h-504z" />
<glyph unicode="i" horiz-adv-x="620" d="M53 0v23q39 14 94.5 25t69.5 13v887q-82 14 -143 35v16l327 33v-971q94 -16 164 -38v-23h-512zM180 1239q0 49 32 81t83 32t83 -32t32 -81t-32 -80t-83 -31t-83 31t-32 80z" />
<glyph unicode="j" horiz-adv-x="632" d="M-37 -213l12 68q57 -29 131 -29q80 0 121 47t41 137v938q-88 16 -141 35v16l328 33v-1014q0 -137 -78 -203.5t-207 -66.5q-117 0 -207 39zM233 1239q0 49 31 81t82 32t83 -32t32 -81t-32 -80t-83 -31t-82 31t-31 80z" />
<glyph unicode="k" horiz-adv-x="1290" d="M63 0v23q90 31 164 38v1301q-86 16 -143 37v14l328 35v-975l442 449q10 6 10 12q4 8 4 16q-20 8 -53 17q-16 6 -45 15t-43 15v23h434v-23q-23 -12 -104 -34q-63 -16 -74 -23l-336 -338l447 -541q75 -9 161 -38v-23h-292l-418 498l-133 -133v-304q88 -14 163 -38v-23h-512 z" />
<glyph unicode="l" horiz-adv-x="641" d="M63 0v23q45 14 164 38v1301q-86 16 -143 37v14l328 35v-1387q88 -14 163 -38v-23h-512z" />
<glyph unicode="m" horiz-adv-x="1941" d="M63 0v23q82 27 164 38v889q-86 16 -143 37v14l328 35v-147q59 61 142 105t183 44q115 0 196 -44t116 -126q59 72 149 121t201 49q152 0 245 -77.5t93 -210.5v-689q82 -11 164 -38v-23h-506v23q94 31 155 38v672q0 123 -58 177.5t-157 54.5q-74 0 -143.5 -42t-126.5 -112 q6 -31 6 -61v-689q80 -12 154 -38v-23h-486v23q96 31 154 38v672q0 231 -211 232q-74 0 -144.5 -42t-125.5 -114v-748q82 -12 163 -38v-23h-512z" />
<glyph unicode="n" horiz-adv-x="1351" d="M63 0v23q82 27 164 38v889q-86 16 -143 37v14l328 35v-155q72 70 175 113.5t222 43.5q152 0 245 -77.5t93 -210.5v-689q96 -13 164 -38v-23h-504v23q88 29 156 38v672q0 123 -59.5 177.5t-158.5 54.5q-82 0 -172 -42t-161 -120v-742q82 -12 163 -38v-23h-512z" />
<glyph unicode="o" horiz-adv-x="1187" d="M53 508q0 250 142.5 390t398.5 140q254 0 396.5 -140t142.5 -390t-142.5 -389t-396.5 -139q-256 0 -398.5 139t-142.5 389zM238 508q0 -213 95 -335t261 -122q162 0 258 122t96 335t-96 335t-258 122q-166 0 -261 -122t-95 -335z" />
<glyph unicode="p" horiz-adv-x="1232" d="M16 -473q63 18 166 37v1386q-88 16 -143 35v16l328 35v-149q78 88 171 119.5t177 31.5q221 0 343 -127t122 -376q0 -285 -126 -420t-358 -135q-104 0 -193 36.5t-136 114.5v-567q82 -12 163 -39v-25h-514v27zM367 346q0 -80 35.5 -147.5t105.5 -107.5t164 -40 q170 0 245.5 129t75.5 344q0 221 -74.5 331t-246.5 110q-90 0 -169 -47.5t-136 -122.5v-449z" />
<glyph unicode="q" horiz-adv-x="1234" d="M53 522q0 166 59.5 283t163 175t232.5 58q225 0 360 -149v147l328 -35v-14q-61 -20 -143 -37v-1388q90 -14 164 -37v-25h-515v23q86 31 166 41v571q-47 -80 -136 -117.5t-193 -37.5q-225 0 -355.5 130t-130.5 412zM240 524q0 -217 75.5 -345t245.5 -128q94 0 164 40 t106.5 107.5t36.5 147.5v457q-53 70 -134 116t-165 46q-172 0 -250.5 -112t-78.5 -329z" />
<glyph unicode="r" horiz-adv-x="851" d="M41 0v23q70 27 164 38v889q-90 16 -142 37v14l306 35l16 -176h8q33 74 102.5 126t151.5 52q100 0 170 -45l-35 -96q-51 39 -114 39q-84 0 -156 -56.5t-123 -142.5v-676q90 -14 164 -38v-23h-512z" />
<glyph unicode="s" horiz-adv-x="950" d="M82 102l14 256h43q10 -29 19.5 -102.5t11.5 -126.5q92 -78 250 -78q127 0 199.5 56.5t72.5 150.5q0 78 -65.5 122t-200.5 91q-113 43 -180.5 77t-115.5 93t-48 150q0 123 108.5 185t272.5 62q231 0 358 -106l-18 -211h-45q-12 31 -19.5 84t-7.5 100q-92 61 -229 62 q-109 0 -174.5 -38t-65.5 -116q0 -55 36 -94t89 -65.5t145 -61.5q113 -43 180.5 -79t116 -95.5t48.5 -147.5q0 -141 -111 -215.5t-281 -74.5q-135 0 -237.5 32.5t-165.5 89.5z" />
<glyph unicode="t" horiz-adv-x="784" d="M33 946v74h178v113q78 33 96 163h88v-276h307v-74h-307v-665q0 -123 48.5 -174.5t138.5 -51.5q59 0 133 25l14 -70q-89 -30 -202 -30h-7q-145 0 -227 73.5t-82 227.5v665h-178z" />
<glyph unicode="u" horiz-adv-x="1296" d="M45 987v14l328 35v-751q0 -123 58 -178.5t159 -55.5q76 0 169 39t163 100v760q-86 16 -142 37v14l326 35v-973q59 -7 143 -32v-17l-327 -32v133q-76 -57 -175.5 -96t-207.5 -39q-162 0 -256.5 76.5t-94.5 207.5v686q-90 16 -143 37z" />
<glyph unicode="v" horiz-adv-x="1157" d="M16 997v23h473v-25q-49 -23 -157 -37l270 -808l295 811q-98 12 -154 34v25h396v-23q-49 -20 -135 -34l-361 -963h-149l-340 963q-92 14 -138 34z" />
<glyph unicode="w" horiz-adv-x="1617" d="M16 995v25h478v-27q-70 -25 -156 -35l197 -755l249 715h109l256 -752l207 792q-84 14 -156 39v23h399v-23q-51 -20 -139 -34l-262 -963h-133l-256 750l-262 -750h-129l-262 963q-8 2 -57.5 10t-82.5 22z" />
<glyph unicode="x" horiz-adv-x="1177" d="M6 0v20q66 25 146 35l364 447l-340 459q-86 14 -143 36v23h471v-25q-70 -25 -144 -37l250 -340l281 343q-100 14 -150 36v23h404v-23q-55 -25 -150 -36l-336 -410l365 -496q84 -14 147 -32v-23h-477v23q82 27 148 36l-277 375l-309 -375q78 -12 156 -36v-23h-406z" />
<glyph unicode="y" horiz-adv-x="1155" d="M10 997v23h475v-25q-49 -18 -161 -34l288 -762l283 766q-82 6 -150 30v25h400v-23q-51 -18 -141 -34l-396 -1057q-41 -111 -76.5 -172.5t-93 -94t-151.5 -32.5q-98 0 -189 37l29 90q90 -29 158 -29q61 0 98 20.5t67.5 70.5t67.5 149l23 61l-394 959q-90 10 -137 32z" />
<glyph unicode="z" horiz-adv-x="962" d="M45 0v43l682 903h-516q-18 -131 -41 -184h-53v258h801v-57l-676 -893h538q6 37 25.5 96t34.5 88h55l-21 -254h-829z" />
<glyph unicode="{" horiz-adv-x="786" d="M57 549v108q125 2 177.5 42t52.5 128v328q0 113 31.5 176.5t119.5 93t260 29.5v-70q-84 -4 -137 -20t-82.5 -61.5t-29.5 -131.5v-352q0 -92 -60.5 -146.5t-171.5 -68.5q231 -45 232 -219v-352q0 -88 29.5 -133t81.5 -60.5t138 -17.5v-72q-184 0 -271 35t-113.5 106.5 t-26.5 208.5v246q0 106 -48.5 153.5t-181.5 49.5z" />
<glyph unicode="|" horiz-adv-x="913" d="M379 -399v1943h153v-1943h-153z" />
<glyph unicode="}" horiz-adv-x="786" d="M86 -178q86 2 139.5 17.5t83 60.5t29.5 133v352q0 176 229 219q-109 14 -169 68.5t-60 146.5v352q0 86 -29.5 131.5t-83 61.5t-139.5 20v70q172 0 261 -29.5t121 -93t32 -176.5v-297q0 -74 18.5 -116t67.5 -63.5t141 -21.5v-108q-92 0 -141 -22.5t-67.5 -65.5t-18.5 -115 v-297q0 -113 -32 -176t-121 -93t-261 -30v72z" />
<glyph unicode="~" horiz-adv-x="1206" d="M115 543v100q49 49 112.5 80t128.5 31q55 0 111.5 -14.5t140.5 -43.5q82 -29 140.5 -44t115.5 -15q119 0 226 117v-105q-45 -51 -104.5 -78.5t-127.5 -27.5q-63 0 -123.5 15t-148.5 46q-82 29 -133.5 43.5t-104.5 14.5q-55 0 -117.5 -33t-115.5 -86z" />
<glyph unicode="&#xa1;" horiz-adv-x="595" d="M188 928q0 49 30 78.5t81 29.5q49 0 79 -29.5t30 -78.5q0 -51 -30 -80t-79 -29q-51 0 -81 29t-30 80zM190 -289l3 33l63 1006h84l63 -1006l3 -33q0 -68 -23 -108.5t-86 -40.5q-64 0 -85.5 40t-21.5 109z" />
<glyph unicode="&#xa2;" horiz-adv-x="1015" d="M61 508q0 240 134.5 379t363.5 149v156h74v-154q199 -10 334 -123l-15 -223h-41q-12 31 -20 91.5t-10 109.5q-109 72 -236 72q-195 0 -296 -121t-101 -348q0 -117 42 -218.5t130 -165t221 -63.5q82 0 167 27.5t146 73.5l19 -54q-55 -47 -143.5 -78.5t-196.5 -35.5v-170 h-74v168q-154 6 -265.5 74.5t-172 185t-60.5 268.5z" />
<glyph unicode="&#xa3;" horiz-adv-x="1198" d="M63 0v70h152q39 41 52.5 87t13.5 113v424h-203v72h203v324q0 172 121.5 268t334.5 96q240 0 387 -147l-32 -54q-57 59 -141.5 95t-178.5 36q-145 0 -227 -75.5t-82 -239.5v-303h442v-72h-442v-409q0 -63 -20.5 -115.5t-71.5 -97.5h602q2 43 29.5 117.5t48.5 105.5h43 l-29 -295h-1002z" />
<glyph unicode="&#xa4;" horiz-adv-x="1206" d="M158 983l59 61l137 -133q109 88 248 88t250 -88l137 133l60 -61l-138 -133q86 -106 86 -246q0 -139 -88 -248l138 -129l-62 -61l-135 131q-109 -88 -248 -88q-137 0 -248 88l-135 -133l-59 63l135 129q-88 113 -88 248q0 139 86 248zM291 602q0 -86 42 -156.5 t113.5 -111.5t157.5 -41t158 41t114 111.5t42 156.5q0 88 -43.5 160t-115 114t-155.5 42q-86 0 -157.5 -41t-113.5 -114t-42 -161z" />
<glyph unicode="&#xa5;" horiz-adv-x="1458" d="M49 1407v27h516v-29q-92 -31 -178 -39l324 -545h151l344 551q-66 14 -133 37v25h359v-29q-45 -18 -111 -31l-350 -553h291v-69h-334l-86 -136v-221h420v-69h-420v-265q82 -12 166 -38v-23h-521v23q84 31 164 38v265h-428v69h428v223l-80 134h-348v69h307l-323 545 q-80 12 -158 41zM754 752l30 -54l33 54h-63z" />
<glyph unicode="&#xa6;" horiz-adv-x="913" d="M379 -399v888h153v-888h-153zM379 700v844h153v-844h-153z" />
<glyph unicode="&#xa7;" horiz-adv-x="1126" d="M74 -287l20 281h47q20 -53 37 -254q53 -63 138 -101t192 -38q145 0 246.5 74.5t101.5 211.5q0 92 -48 155.5t-120 103.5t-192 92q-133 57 -211 101t-132.5 118.5t-54.5 187.5q0 102 50.5 174t140.5 113q-90 55 -140.5 124.5t-50.5 170.5q0 166 128 250t352 84 q279 0 419 -148l-18 -239h-49q-12 39 -22.5 101t-14.5 120q-100 90 -270 90q-164 0 -248 -58.5t-84 -173.5q0 -68 41 -117t101.5 -82.5t172.5 -82.5q141 -61 229.5 -113.5t151 -140.5t62.5 -219q0 -178 -142 -287q142 -117 142 -295q0 -121 -64.5 -209t-176.5 -135t-253 -47 q-160 0 -287 52t-194 136zM274 670q0 -72 44 -123t111 -88t179 -84q16 -8 79 -36t114 -56q72 76 71 188q0 94 -51 159.5t-125.5 107.5t-199.5 96l-84 36q-137 -53 -138 -200z" />
<glyph unicode="&#xa8;" horiz-adv-x="1019" d="M193 1288q0 41 25.5 67.5t66.5 26.5q39 0 64.5 -26.5t25.5 -67.5t-24.5 -66.5t-65.5 -25.5t-66.5 25.5t-25.5 66.5zM643 1288q0 41 25.5 67.5t64.5 26.5q43 0 68.5 -26.5t25.5 -67.5t-25.5 -66.5t-68.5 -25.5q-41 0 -65.5 25.5t-24.5 66.5z" />
<glyph unicode="&#xa9;" horiz-adv-x="1699" d="M98 731q0 215 97.5 386t268.5 268.5t386 97.5t386 -97.5t268.5 -268.5t97.5 -386t-97.5 -386t-268.5 -268t-386 -97t-386 97t-268.5 268t-97.5 386zM180 731q0 -190 86 -345t238.5 -242t345.5 -87q192 0 344 87t238 242t86 345t-86 344t-238 241t-344 87 q-193 0 -345.5 -87t-238.5 -240.5t-86 -344.5zM451 731q0 217 109.5 338t322.5 121q70 0 141.5 -21.5t110.5 -54.5l-11 -176h-37q-8 16 -17 63.5t-11 77.5q-23 20 -67 37t-101 17q-174 0 -246 -106.5t-72 -295.5q0 -174 77 -285.5t241 -111.5q47 0 116.5 19.5t110.5 52.5 l8 -50q-39 -39 -107.5 -62.5t-139.5 -23.5q-123 0 -220.5 56.5t-152.5 161t-55 243.5z" />
<glyph unicode="&#xaa;" horiz-adv-x="745" d="M49 979q0 90 61.5 143.5t174.5 53.5h209v79q0 76 -45.5 109t-129.5 33q-104 0 -204 -47l-11 51q106 53 248 53q131 0 200 -51t69 -150v-389q18 -4 100 -22v-15l-227 -26v100q-43 -55 -102.5 -82.5t-125.5 -27.5q-108 0 -162.5 53t-54.5 135zM174 983q0 -59 33 -96 t102 -37q49 0 97.5 29.5t87.5 87.5v153h-181q-74 0 -106.5 -38t-32.5 -99z" />
<glyph unicode="&#xab;" horiz-adv-x="1019" d="M78 516v39q242 201 393 434l76 -112q-43 -76 -123 -167.5t-174 -172.5q94 -80 174 -172.5t123 -167.5l-76 -111q-162 246 -393 430zM473 516v39q248 205 395 434l74 -112q-43 -76 -122 -167.5t-173 -172.5q94 -82 174 -174.5t121 -165.5l-74 -111q-157 244 -395 430z" />
<glyph unicode="&#xac;" horiz-adv-x="997" d="M86 686v72h803v-387h-86v315h-717z" />
<glyph unicode="&#xad;" horiz-adv-x="790" d="M88 514v109h612v-109h-612z" />
<glyph unicode="&#xae;" horiz-adv-x="1699" d="M98 731q0 215 97.5 386t268.5 268.5t386 97.5t386 -97.5t268.5 -268.5t97.5 -386t-97.5 -386t-268.5 -268t-386 -97t-386 97t-268.5 268t-97.5 386zM180 731q0 -190 86 -345t238.5 -242t345.5 -87q192 0 344 87t238 242t86 345t-86 344t-238 241t-344 87 q-193 0 -345.5 -87t-238.5 -240.5t-86 -344.5zM483 1147v22h426q145 0 214 -64.5t69 -180.5q0 -109 -57.5 -175.5t-173.5 -76.5l213 -346q66 -10 88 -21v-20h-193l-209 385h-145v-344q63 -8 102 -21v-20h-330v20q55 18 103 23v794q-53 2 -107 25zM715 725h159 q100 0 146.5 50t46.5 151q0 96 -46 142t-147 46h-159v-389z" />
<glyph unicode="&#xaf;" horiz-adv-x="1019" d="M109 1495v72h802v-72h-802z" />
<glyph unicode="&#xb0;" horiz-adv-x="659" d="M61 1214q0 113 75 189t194 76t193.5 -76t74.5 -189t-74.5 -188.5t-193.5 -75.5t-194 76t-75 188zM139 1214q0 -80 54.5 -135t136.5 -55t135 55.5t53 134.5q0 80 -53 135.5t-135 55.5t-136.5 -55.5t-54.5 -135.5z" />
<glyph unicode="&#xb1;" horiz-adv-x="1204" d="M104 14v99h988v-99h-988zM115 682v98h395v394h184v-394h396v-98h-396v-391h-184v391h-395z" />
<glyph unicode="&#xb2;" horiz-adv-x="800" d="M80 565v72q25 86 82 148.5t153 138.5q104 82 155.5 146.5t51.5 156.5q0 68 -44 112.5t-122 44.5q-53 0 -112.5 -23.5t-108.5 -64.5l-31 52q39 41 115 73.5t170 32.5q133 0 216 -57.5t83 -171.5q0 -70 -30.5 -126.5t-75.5 -99.5t-125 -106q-84 -66 -135.5 -115t-83.5 -110 h389q6 25 18 58.5t25 53.5h39l-15 -215h-614z" />
<glyph unicode="&#xb3;" horiz-adv-x="800" d="M88 659l31 52q47 -43 110.5 -66.5t120.5 -23.5q90 0 139.5 52t49.5 140q0 76 -46.5 126t-127.5 50h-121v74h116q86 0 128 50t42 120q0 68 -48 109.5t-130 41.5q-51 0 -110.5 -24.5t-102.5 -59.5l-28 50q43 41 117.5 72.5t168.5 31.5q133 0 212 -54t79 -161 q0 -70 -39 -130t-104 -79v-8q74 -18 117 -69.5t43 -135.5q0 -133 -88.5 -198.5t-237.5 -65.5q-92 0 -171 31.5t-120 74.5z" />
<glyph unicode="&#xb4;" horiz-adv-x="1019" d="M336 1245l233 217q47 47 93 47q29 0 46 -17t17 -40q0 -49 -66 -86l-290 -168z" />
<glyph unicode="&#xb6;" horiz-adv-x="1058" d="M94 1051q0 383 406 383h504v-23q-78 -29 -168 -41v-1309q82 -12 165 -38v-23h-272v1364h-139v-1364h-273v23q61 20 164 38v576q-184 8 -285.5 117.5t-101.5 296.5zM176 1053q0 -168 88 -255t217 -87v653q-150 0 -227.5 -80t-77.5 -231z" />
<glyph unicode="&#xb7;" horiz-adv-x="581" d="M156 719q0 66 35.5 104.5t97.5 38.5q63 0 100 -40t37 -103t-37 -102t-100 -39q-62 0 -97.5 37.5t-35.5 103.5z" />
<glyph unicode="&#xb8;" horiz-adv-x="1019" d="M336 -412l33 60q59 -25 131 -25q70 0 111.5 26.5t41.5 80.5q0 39 -35.5 57t-87.5 18q-20 0 -49 -4l-45 58l82 166h92l-73 -158q10 2 30 2q90 -2 139.5 -40t49.5 -99q0 -86 -69 -132.5t-177 -46.5q-96 0 -174 37z" />
<glyph unicode="&#xb9;" horiz-adv-x="800" d="M160 565v37q84 23 170 29v698l-168 -63v67l342 125v-829q90 -4 162 -27v-37h-506z" />
<glyph unicode="&#xba;" horiz-adv-x="741" d="M35 1122q0 154 88 243t248 89t248 -89t88 -243t-88.5 -242.5t-247.5 -88.5q-160 0 -248 89t-88 242zM174 1122q0 -121 53.5 -190.5t143.5 -69.5q92 0 144 69.5t52 190.5t-52 190.5t-144 69.5q-90 0 -143.5 -69.5t-53.5 -190.5z" />
<glyph unicode="&#xbb;" horiz-adv-x="1019" d="M78 197q43 76 123 168t174 172q-94 82 -174 173t-123 167l76 112q152 -233 393 -434v-39q-231 -184 -393 -430zM473 197q41 74 121 166t174 174q-94 82 -173 173t-122 167l74 112q147 -229 395 -434v-39q-231 -182 -395 -430z" />
<glyph unicode="&#xbc;" horiz-adv-x="1855" d="M133 565v37q84 23 170 29v698l-168 -63v67l342 125v-829q86 -4 164 -27v-37h-508zM473 0l891 1450h82l-893 -1450h-80zM991 215v53l408 609h182v-592h131v-70h-131v-154q59 -6 123 -24v-37h-430v37q76 20 133 22v156h-416zM1083 285h324v479z" />
<glyph unicode="&#xbd;" horiz-adv-x="1855" d="M133 565v37q84 23 170 29v698l-168 -63v67l342 125v-829q86 -4 164 -27v-37h-508zM455 0l893 1450h82l-893 -1450h-82zM1135 0v68q27 88 84 150.5t151 137.5q70 55 110 94t67.5 91.5t27.5 115.5q0 70 -43 115t-123 45q-53 0 -111.5 -23.5t-107.5 -66.5l-31 51 q41 41 117 74t168 33q135 0 217 -57.5t82 -172.5q0 -96 -58.5 -166.5t-175.5 -162.5q-86 -70 -136 -118t-81 -108h391q6 27 17.5 61t23.5 52h39l-12 -213h-616z" />
<glyph unicode="&#xbe;" horiz-adv-x="1855" d="M104 659l31 52q47 -43 110.5 -66.5t121.5 -23.5q90 0 139 52t49 140q0 76 -46 126t-128 50h-121v74h117q86 0 128 50t42 120q0 68 -48 109.5t-130 41.5q-51 0 -110.5 -24.5t-102.5 -59.5l-29 50q43 41 117.5 72.5t169.5 31.5q133 0 212 -54t79 -161q0 -70 -39 -130 t-105 -79v-8q74 -18 117 -69.5t43 -135.5q0 -133 -88 -198.5t-238 -65.5q-92 0 -171 31.5t-120 74.5zM469 0l891 1450h82l-893 -1450h-80zM991 215v53l408 609h182v-592h131v-70h-131v-154q59 -6 123 -24v-37h-430v37q76 20 133 22v156h-416zM1083 285h324v479z" />
<glyph unicode="&#xbf;" horiz-adv-x="956" d="M63 -127q0 76 27 136.5t66 104.5t108 109q76 70 122 122t78 129t32 177h98v-39q0 -102 -28.5 -181t-67.5 -132t-105 -127q-78 -82 -116.5 -146.5t-38.5 -150.5q0 -119 68.5 -190.5t223.5 -71.5q92 0 176.5 36t151.5 97l37 -55q-174 -154 -420 -154q-178 0 -295 82 t-117 254zM436 903q0 51 29 80t78 29q51 0 80.5 -29t29.5 -80t-29.5 -79.5t-80.5 -28.5q-49 0 -78 28.5t-29 79.5z" />
<glyph unicode="&#xc0;" horiz-adv-x="1480" d="M14 0v27q35 12 82 23t78 16l502 1376h129l502 -1379q89 -13 159 -38v-25h-512v25q72 27 166 36l-110 312h-615l-112 -312q90 -10 170 -38v-23h-439zM420 444h565l-280 793zM475 1866q0 23 17.5 39t48.5 16q45 0 90 -45l237 -219l-32 -47l-291 168q-70 41 -70 88z" />
<glyph unicode="&#xc1;" horiz-adv-x="1480" d="M14 0v27q35 12 82 23t78 16l502 1376h129l502 -1379q89 -13 159 -38v-25h-512v25q72 27 166 36l-110 312h-615l-112 -312q90 -10 170 -38v-23h-439zM420 444h565l-280 793zM625 1657l233 217q47 47 92 47q31 0 47.5 -16.5t16.5 -38.5q0 -47 -66 -88l-291 -168z" />
<glyph unicode="&#xc2;" horiz-adv-x="1480" d="M14 0v27q35 12 82 23t78 16l502 1376h129l502 -1379q89 -13 159 -38v-25h-512v25q72 27 166 36l-110 312h-615l-112 -312q90 -10 170 -38v-23h-439zM420 444h565l-280 793zM428 1663q66 45 145.5 117.5t122.5 132.5h88q43 -59 123 -133t146 -117l-78 -66 q-61 45 -126 107.5t-104 116.5h-10q-39 -54 -104.5 -116.5t-126.5 -107.5z" />
<glyph unicode="&#xc3;" horiz-adv-x="1480" d="M14 0v27q35 12 82 23t78 16l502 1376h129l502 -1379q89 -13 159 -38v-25h-512v25q72 27 166 36l-110 312h-615l-112 -312q90 -10 170 -38v-23h-439zM387 1610q14 104 66.5 154.5t134.5 50.5q43 0 83 -16.5t93 -47.5q39 -25 67.5 -37t55.5 -12q47 0 83 29.5t50 93.5h65 q-14 -100 -64 -156.5t-138 -56.5q-35 0 -69 14t-97 47q-45 27 -76 40t-57 13q-47 0 -82 -31.5t-47 -84.5h-68zM420 444h565l-280 793z" />
<glyph unicode="&#xc4;" horiz-adv-x="1480" d="M14 0v27q35 12 82 23t78 16l502 1376h129l502 -1379q89 -13 159 -38v-25h-512v25q72 27 166 36l-110 312h-615l-112 -312q90 -10 170 -38v-23h-439zM406 1700q0 43 24.5 69.5t65.5 26.5t66.5 -26.5t25.5 -69.5q0 -41 -25.5 -66.5t-66.5 -25.5q-39 0 -64.5 25.5 t-25.5 66.5zM420 444h565l-280 793zM856 1700q0 43 24.5 69.5t65.5 26.5t66.5 -26.5t25.5 -69.5q0 -41 -25.5 -66.5t-66.5 -25.5t-65.5 25.5t-24.5 66.5z" />
<glyph unicode="&#xc5;" horiz-adv-x="1480" d="M14 0v27q35 12 82 23t78 16l502 1376h129l502 -1379q89 -13 159 -38v-25h-512v25q72 27 166 36l-110 312h-615l-112 -312q90 -10 170 -38v-23h-439zM420 444h565l-280 793zM549 1692q0 82 53 132t137 50t136.5 -50t52.5 -132q0 -80 -52.5 -129.5t-136.5 -49.5t-137 49.5 t-53 129.5zM621 1692q0 -51 33.5 -82t84.5 -31t83 30.5t32 82.5q0 51 -31.5 82.5t-83.5 31.5q-51 0 -84.5 -31.5t-33.5 -82.5z" />
<glyph unicode="&#xc6;" horiz-adv-x="2043" d="M14 0v25q70 25 152 41l797 1314q-10 2 -43 9.5t-58 19.5v25h1055v-299h-45q-16 29 -33.5 104.5t-21.5 118.5h-588v-586h428q4 35 14 86t23 84h35v-414h-35q-12 37 -22.5 86.5t-14.5 83.5h-428v-626h594q4 43 30.5 117.5t47.5 105.5h45l-31 -295h-1045v25q86 27 170 36 v312h-571l-184 -312q100 -10 176 -38v-23h-447zM514 444h526v887h-10z" />
<glyph unicode="&#xc7;" horiz-adv-x="1267" d="M96 717q0 346 170 541.5t486 195.5q268 0 424 -141l-19 -250h-49q-25 72 -39 229q-49 39 -118.5 62.5t-149.5 23.5q-256 0 -384 -180t-128 -481q0 -305 119.5 -483.5t377.5 -178.5q78 0 177.5 29t181.5 82l26 -55q-71 -62 -175.5 -95.5t-229.5 -35.5l-55 -119 q104 0 160.5 -34t56.5 -103q0 -86 -68.5 -132.5t-177.5 -46.5q-98 0 -172 37l33 60q59 -25 129 -25t111.5 26.5t41.5 80.5q0 39 -35.5 57t-84.5 18q-23 0 -52 -4l-45 58l66 131q-285 23 -431.5 215t-146.5 518z" />
<glyph unicode="&#xc8;" horiz-adv-x="1255" d="M82 0v25q84 31 170 38v1307q-74 8 -170 39v25h1046v-299h-43q-16 29 -33.5 104.5t-21.5 118.5h-588v-617h426q4 37 14.5 87.5t24.5 82.5h33v-413h-33q-14 35 -24.5 85t-14.5 85h-426v-596h594q2 43 29 116.5t47 106.5h45l-29 -295h-1046zM498 1866q0 23 17 39t48 16 q45 0 90 -45l238 -219l-33 -47l-291 168q-69 41 -69 88z" />
<glyph unicode="&#xc9;" horiz-adv-x="1255" d="M82 0v25q84 31 170 38v1307q-74 8 -170 39v25h1046v-299h-43q-16 29 -33.5 104.5t-21.5 118.5h-588v-617h426q4 37 14.5 87.5t24.5 82.5h33v-413h-33q-14 35 -24.5 85t-14.5 85h-426v-596h594q2 43 29 116.5t47 106.5h45l-29 -295h-1046zM475 1657l234 217q47 47 92 47 q31 0 47 -16.5t16 -38.5q0 -47 -65 -88l-291 -168z" />
<glyph unicode="&#xca;" horiz-adv-x="1255" d="M82 0v25q84 31 170 38v1307q-74 8 -170 39v25h1046v-299h-43q-16 29 -33.5 104.5t-21.5 118.5h-588v-617h426q4 37 14.5 87.5t24.5 82.5h33v-413h-33q-14 35 -24.5 85t-14.5 85h-426v-596h594q2 43 29 116.5t47 106.5h45l-29 -295h-1046zM385 1663q66 45 145.5 117.5 t122.5 132.5h88q43 -59 123 -133t146 -117l-78 -66q-61 45 -126 107.5t-104 116.5h-10q-39 -54 -104.5 -116.5t-126.5 -107.5z" />
<glyph unicode="&#xcb;" horiz-adv-x="1255" d="M82 0v25q84 31 170 38v1307q-74 8 -170 39v25h1046v-299h-43q-16 29 -33.5 104.5t-21.5 118.5h-588v-617h426q4 37 14.5 87.5t24.5 82.5h33v-413h-33q-14 35 -24.5 85t-14.5 85h-426v-596h594q2 43 29 116.5t47 106.5h45l-29 -295h-1046zM385 1700q0 43 24.5 69.5 t65.5 26.5t66.5 -26.5t25.5 -69.5q0 -41 -25.5 -66.5t-66.5 -25.5q-39 0 -64.5 25.5t-25.5 66.5zM836 1700q0 43 24.5 69.5t65.5 26.5t66.5 -26.5t25.5 -69.5q0 -41 -25.5 -66.5t-66.5 -25.5t-65.5 25.5t-24.5 66.5z" />
<glyph unicode="&#xcc;" horiz-adv-x="698" d="M88 0v25q88 27 166 36v1309q-86 12 -166 39v25h522v-27q-70 -23 -168 -37v-1309q84 -12 168 -38v-23h-522zM150 1866q0 23 17 39t48 16q45 0 90 -45l238 -219l-33 -47l-291 168q-70 41 -69 88z" />
<glyph unicode="&#xcd;" horiz-adv-x="698" d="M88 0v25q88 27 166 36v1309q-86 12 -166 39v25h522v-27q-70 -23 -168 -37v-1309q84 -12 168 -38v-23h-522zM150 1657l233 217q47 47 92 47q31 0 47.5 -16.5t16.5 -38.5q0 -47 -66 -88l-291 -168z" />
<glyph unicode="&#xce;" horiz-adv-x="698" d="M35 1663q66 45 145.5 117.5t122.5 132.5h88q43 -59 123 -133t145 -117l-77 -66q-61 45 -126 107.5t-104 116.5h-10q-39 -53 -104.5 -116t-126.5 -108zM88 0v25q88 27 166 36v1309q-86 12 -166 39v25h522v-27q-70 -23 -168 -37v-1309q84 -12 168 -38v-23h-522z" />
<glyph unicode="&#xcf;" horiz-adv-x="698" d="M31 1700q0 43 24.5 69.5t65.5 26.5t66.5 -26.5t25.5 -69.5q0 -41 -25.5 -66.5t-66.5 -25.5q-39 0 -64.5 25.5t-25.5 66.5zM88 0v25q88 27 166 36v1309q-86 12 -166 39v25h522v-27q-70 -23 -168 -37v-1309q84 -12 168 -38v-23h-522zM481 1700q0 43 24.5 69.5t65.5 26.5 t67 -26.5t26 -69.5q0 -41 -26 -66.5t-67 -25.5t-65.5 25.5t-24.5 66.5z" />
<glyph unicode="&#xd0;" horiz-adv-x="1370" d="M82 0v25q80 29 162 36v584h-148v72h148v653q-78 12 -162 39v25h614q312 0 454 -181.5t142 -535.5q0 -352 -143 -534.5t-455 -182.5h-612zM432 72h258q223 0 316.5 167t93.5 478q0 309 -93.5 475t-312.5 166h-262v-641h344v-72h-344v-573z" />
<glyph unicode="&#xd1;" horiz-adv-x="1593" d="M82 0v23q76 23 164 36v1311q-98 14 -164 39v25h373l798 -1194v1132q-84 12 -163 37v25h421v-25q-72 -23 -165 -39v-1370h-109l-897 1329v-1268q94 -16 164 -38v-23h-422zM455 1610q14 104 66 154.5t134 50.5q43 0 83 -16.5t93 -47.5q39 -25 68 -37t55 -12q47 0 83 29.5 t50 93.5h66q-14 -100 -64.5 -156.5t-138.5 -56.5q-35 0 -68.5 14t-97.5 47q-45 27 -75.5 40t-57.5 13q-47 0 -81.5 -31.5t-47.5 -84.5h-67z" />
<glyph unicode="&#xd2;" horiz-adv-x="1464" d="M76 717q0 346 169 541.5t486 195.5q315 0 486.5 -195.5t171.5 -541.5t-171 -541.5t-487 -195.5q-317 0 -486 194.5t-169 542.5zM266 717q0 -301 118 -481.5t347 -180.5q230 0 348.5 181.5t118.5 480.5t-118.5 480t-348.5 181q-229 0 -347 -181t-118 -480zM524 1866 q0 23 17.5 39t48.5 16q45 0 90 -45l238 -219l-33 -47l-291 168q-70 41 -70 88z" />
<glyph unicode="&#xd3;" horiz-adv-x="1464" d="M76 717q0 346 169 541.5t486 195.5q315 0 486.5 -195.5t171.5 -541.5t-171 -541.5t-487 -195.5q-317 0 -486 194.5t-169 542.5zM266 717q0 -301 118 -481.5t347 -180.5q230 0 348.5 181.5t118.5 480.5t-118.5 480t-348.5 181q-229 0 -347 -181t-118 -480zM543 1657 l233 217q47 47 92 47q31 0 47.5 -16.5t16.5 -38.5q0 -47 -66 -88l-291 -168z" />
<glyph unicode="&#xd4;" horiz-adv-x="1464" d="M76 717q0 346 169 541.5t486 195.5q315 0 486.5 -195.5t171.5 -541.5t-171 -541.5t-487 -195.5q-317 0 -486 194.5t-169 542.5zM266 717q0 -301 118 -481.5t347 -180.5q230 0 348.5 181.5t118.5 480.5t-118.5 480t-348.5 181q-229 0 -347 -181t-118 -480zM418 1663 q66 45 145.5 117.5t122.5 132.5h88q43 -59 123 -133t145 -117l-77 -66q-61 45 -126 107.5t-104 116.5h-10q-39 -53 -104.5 -116t-126.5 -108z" />
<glyph unicode="&#xd5;" horiz-adv-x="1464" d="M76 717q0 346 169 541.5t486 195.5q315 0 486.5 -195.5t171.5 -541.5t-171 -541.5t-487 -195.5q-317 0 -486 194.5t-169 542.5zM266 717q0 -301 118 -481.5t347 -180.5q230 0 348.5 181.5t118.5 480.5t-118.5 480t-348.5 181q-229 0 -347 -181t-118 -480zM381 1610 q14 104 66.5 154.5t134.5 50.5q43 0 83 -16.5t93 -47.5q39 -25 67.5 -37t55.5 -12q47 0 82.5 29.5t50.5 93.5h65q-14 -100 -64 -156.5t-138 -56.5q-35 0 -69 14t-97 47q-45 27 -76 40t-57 13q-47 0 -82 -31.5t-47 -84.5h-68z" />
<glyph unicode="&#xd6;" horiz-adv-x="1464" d="M76 717q0 346 169 541.5t486 195.5q315 0 486.5 -195.5t171.5 -541.5t-171 -541.5t-487 -195.5q-317 0 -486 194.5t-169 542.5zM266 717q0 -301 118 -481.5t347 -180.5q230 0 348.5 181.5t118.5 480.5t-118.5 480t-348.5 181q-229 0 -347 -181t-118 -480zM414 1700 q0 43 24.5 69.5t65.5 26.5t66.5 -26.5t25.5 -69.5q0 -41 -25.5 -66.5t-66.5 -25.5q-39 0 -64.5 25.5t-25.5 66.5zM864 1700q0 43 24.5 69.5t65.5 26.5t67 -26.5t26 -69.5q0 -41 -26 -66.5t-67 -25.5t-65.5 25.5t-24.5 66.5z" />
<glyph unicode="&#xd7;" horiz-adv-x="1204" d="M143 328l359 354l-359 354l93 94l366 -362l367 362l92 -94l-359 -354l359 -354l-92 -95l-367 363l-366 -363z" />
<glyph unicode="&#xd8;" horiz-adv-x="1464" d="M76 717q0 346 169 541.5t486 195.5q225 0 383 -104l86 125l66 -45l-90 -130q104 -96 158.5 -243.5t54.5 -339.5q0 -346 -171 -541.5t-487 -195.5q-238 0 -399 114l-109 -155l-61 45l112 159q-98 96 -148 241.5t-50 332.5zM266 717q0 -275 96 -447l678 975 q-117 133 -309 133q-229 0 -347 -181t-118 -480zM408 203q119 -147 323 -148q230 0 348.5 181.5t118.5 480.5q0 289 -106 463z" />
<glyph unicode="&#xd9;" horiz-adv-x="1576" d="M78 1409v25h520v-27q-72 -25 -166 -37v-954q0 -360 410 -361q180 0 289.5 85t109.5 276v956q-84 8 -168 37v25h426v-25q-94 -31 -168 -41v-932q0 -457 -536 -456q-551 -1 -551 456v934q-94 14 -166 39zM592 1866q0 23 17.5 39t47.5 16q45 0 91 -45l237 -219l-33 -47 l-290 168q-70 41 -70 88z" />
<glyph unicode="&#xda;" horiz-adv-x="1576" d="M78 1409v25h520v-27q-72 -25 -166 -37v-954q0 -360 410 -361q180 0 289.5 85t109.5 276v956q-84 8 -168 37v25h426v-25q-94 -31 -168 -41v-932q0 -457 -536 -456q-551 -1 -551 456v934q-94 14 -166 39zM641 1657l233 217q47 47 93 47q31 0 47 -16.5t16 -38.5 q0 -47 -65 -88l-291 -168z" />
<glyph unicode="&#xdb;" horiz-adv-x="1576" d="M78 1409v25h520v-27q-72 -25 -166 -37v-954q0 -360 410 -361q180 0 289.5 85t109.5 276v956q-84 8 -168 37v25h426v-25q-94 -31 -168 -41v-932q0 -457 -536 -456q-551 -1 -551 456v934q-94 14 -166 39zM475 1663q66 45 145.5 117.5t122.5 132.5h88q43 -59 123 -133 t146 -117l-78 -66q-61 45 -126 107.5t-103 116.5h-11q-39 -53 -104.5 -116t-126.5 -108z" />
<glyph unicode="&#xdc;" horiz-adv-x="1576" d="M78 1409v25h520v-27q-72 -25 -166 -37v-954q0 -360 410 -361q180 0 289.5 85t109.5 276v956q-84 8 -168 37v25h426v-25q-94 -31 -168 -41v-932q0 -457 -536 -456q-551 -1 -551 456v934q-94 14 -166 39zM494 1700q0 43 24.5 69.5t65.5 26.5t66.5 -26.5t25.5 -69.5 q0 -41 -25.5 -66.5t-66.5 -25.5q-39 0 -64.5 25.5t-25.5 66.5zM944 1700q0 43 24.5 69.5t65.5 26.5t66.5 -26.5t25.5 -69.5q0 -41 -25.5 -66.5t-66.5 -25.5t-65.5 25.5t-24.5 66.5z" />
<glyph unicode="&#xdd;" horiz-adv-x="1454" d="M35 1407v27h514v-29q-88 -31 -174 -39l395 -666l420 672q-59 12 -131 37v25h358v-29q-47 -20 -112 -31l-478 -758v-555q84 -12 168 -38v-23h-522v23q94 31 166 38v557l-446 748q-80 12 -158 41zM580 1657l233 217q47 47 92 47q31 0 47.5 -16.5t16.5 -38.5q0 -47 -66 -88 l-291 -168z" />
<glyph unicode="&#xde;" horiz-adv-x="1247" d="M74 0v25q98 29 168 36v1309q-84 12 -164 39v25h352v-283h309q233 0 340 -114.5t107 -309.5q0 -197 -111.5 -318.5t-333.5 -121.5h-311v-226q82 -12 166 -38v-23h-522zM430 358h268q154 0 226.5 102.5t72.5 268.5t-74.5 258t-230.5 92h-262v-721z" />
<glyph unicode="&#xdf;" horiz-adv-x="1433" d="M45 946v74h195v108q0 186 110.5 283.5t304.5 97.5q295 0 379 -163.5t84 -348.5v-32q-131 0 -212 -37t-81 -115q0 -55 33 -95t82 -65.5t133 -60.5q102 -43 163.5 -79t105.5 -95.5t44 -147.5q0 -143 -102 -216.5t-270 -73.5q-123 0 -209 31.5t-152 90.5l17 256h43 q12 -31 20 -105.5t8 -123.5q47 -39 98.5 -58.5t123.5 -19.5q117 0 175 54.5t58 140.5q0 57 -33 98t-82 67.5t-131 61.5q-98 41 -158.5 76t-102.5 94t-42 148q0 109 87 166t212 67q0 150 -59.5 281t-235.5 131q-96 0 -161.5 -61.5t-65.5 -182.5v-1131q86 -12 166 -38v-23 h-516v23q111 33 166 38v885h-195z" />
<glyph unicode="&#xe0;" horiz-adv-x="1101" d="M61 274q0 158 113 228.5t287 70.5h303v164q0 117 -69.5 172.5t-196.5 55.5q-80 0 -165 -23.5t-157 -60.5l-14 63q82 43 185.5 68.5t211.5 25.5q182 0 286.5 -78.5t104.5 -209.5v-672q72 -14 142 -33v-16l-328 -33v149q-84 -90 -179.5 -127.5t-187.5 -37.5 q-164 0 -250 75.5t-86 218.5zM244 276q0 -111 60.5 -166t158.5 -55q84 0 171 52.5t130 121.5v271h-258q-131 0 -196.5 -58.5t-65.5 -165.5zM340 1452q0 23 17.5 39t48.5 16q45 0 90 -45l237 -219l-33 -47l-290 168q-70 41 -70 88z" />
<glyph unicode="&#xe1;" horiz-adv-x="1101" d="M61 274q0 158 113 228.5t287 70.5h303v164q0 117 -69.5 172.5t-196.5 55.5q-80 0 -165 -23.5t-157 -60.5l-14 63q82 43 185.5 68.5t211.5 25.5q182 0 286.5 -78.5t104.5 -209.5v-672q72 -14 142 -33v-16l-328 -33v149q-84 -90 -179.5 -127.5t-187.5 -37.5 q-164 0 -250 75.5t-86 218.5zM244 276q0 -111 60.5 -166t158.5 -55q84 0 171 52.5t130 121.5v271h-258q-131 0 -196.5 -58.5t-65.5 -165.5zM375 1243l233 217q47 47 92 47q31 0 47.5 -16t16.5 -39q0 -47 -66 -88l-290 -168z" />
<glyph unicode="&#xe2;" horiz-adv-x="1101" d="M61 274q0 158 113 228.5t287 70.5h303v164q0 117 -69.5 172.5t-196.5 55.5q-80 0 -165 -23.5t-157 -60.5l-14 63q82 43 185.5 68.5t211.5 25.5q182 0 286.5 -78.5t104.5 -209.5v-672q72 -14 142 -33v-16l-328 -33v149q-84 -90 -179.5 -127.5t-187.5 -37.5 q-164 0 -250 75.5t-86 218.5zM244 276q0 -111 60.5 -166t158.5 -55q84 0 171 52.5t130 121.5v271h-258q-131 0 -196.5 -58.5t-65.5 -165.5zM246 1249q66 45 145.5 118t122.5 132h88q43 -59 123 -133t145 -117l-77 -65q-61 45 -126 107.5t-104 115.5h-10 q-39 -53 -104.5 -115.5t-126.5 -107.5z" />
<glyph unicode="&#xe3;" horiz-adv-x="1101" d="M61 274q0 158 113 228.5t287 70.5h303v164q0 117 -69.5 172.5t-196.5 55.5q-80 0 -165 -23.5t-157 -60.5l-14 63q82 43 185.5 68.5t211.5 25.5q182 0 286.5 -78.5t104.5 -209.5v-672q72 -14 142 -33v-16l-328 -33v149q-84 -90 -179.5 -127.5t-187.5 -37.5 q-164 0 -250 75.5t-86 218.5zM193 1196q14 104 66 154.5t134 50.5q43 0 83 -16.5t93 -47.5q39 -25 68 -37t55 -12q47 0 83 30t50 93h66q-14 -100 -64.5 -156.5t-138.5 -56.5q-35 0 -68.5 14.5t-97.5 47.5q-45 27 -75.5 40t-57.5 13q-47 0 -82 -32t-47 -85h-67zM244 276 q0 -111 60.5 -166t158.5 -55q84 0 171 52.5t130 121.5v271h-258q-131 0 -196.5 -58.5t-65.5 -165.5z" />
<glyph unicode="&#xe4;" horiz-adv-x="1101" d="M61 274q0 158 113 228.5t287 70.5h303v164q0 117 -69.5 172.5t-196.5 55.5q-80 0 -165 -23.5t-157 -60.5l-14 63q82 43 185.5 68.5t211.5 25.5q182 0 286.5 -78.5t104.5 -209.5v-672q72 -14 142 -33v-16l-328 -33v149q-84 -90 -179.5 -127.5t-187.5 -37.5 q-164 0 -250 75.5t-86 218.5zM223 1286q0 43 24.5 69.5t65.5 26.5t67 -26.5t26 -69.5q0 -41 -26 -66.5t-67 -25.5q-39 0 -64.5 25.5t-25.5 66.5zM244 276q0 -111 60.5 -166t158.5 -55q84 0 171 52.5t130 121.5v271h-258q-131 0 -196.5 -58.5t-65.5 -165.5zM674 1286 q0 43 24.5 69.5t65.5 26.5t66.5 -26.5t25.5 -69.5q0 -41 -25.5 -66.5t-66.5 -25.5t-65.5 25.5t-24.5 66.5z" />
<glyph unicode="&#xe5;" horiz-adv-x="1101" d="M61 274q0 158 113 228.5t287 70.5h303v164q0 117 -69.5 172.5t-196.5 55.5q-80 0 -165 -23.5t-157 -60.5l-14 63q82 43 185.5 68.5t211.5 25.5q182 0 286.5 -78.5t104.5 -209.5v-672q72 -14 142 -33v-16l-328 -33v149q-84 -90 -179.5 -127.5t-187.5 -37.5 q-164 0 -250 75.5t-86 218.5zM244 276q0 -111 60.5 -166t158.5 -55q84 0 171 52.5t130 121.5v271h-258q-131 0 -196.5 -58.5t-65.5 -165.5zM360 1346q0 82 53.5 132t137.5 50t136 -50.5t52 -131.5q0 -80 -52 -129.5t-136 -49.5t-137.5 49.5t-53.5 129.5zM432 1346 q0 -51 34 -82t85 -31t83 30.5t32 82.5q0 51 -32 82.5t-83 31.5t-85 -31.5t-34 -82.5z" />
<glyph unicode="&#xe6;" horiz-adv-x="1785" d="M61 274q0 158 119 234t293 76h279q2 27 10 80q8 55 10 73q0 113 -74.5 170.5t-199.5 57.5q-80 0 -165 -23.5t-157 -60.5l-14 63q82 43 185.5 68.5t211.5 25.5q121 0 206 -42t124 -113q66 74 164 114.5t219 40.5q152 0 253 -64.5t150 -173t49 -241.5v-49h-792 q4 -215 111.5 -338t299.5 -123q82 0 166 27.5t148 73.5l18 -54q-61 -51 -157.5 -83.5t-219.5 -32.5q-139 0 -250.5 52t-183.5 150q-88 -111 -212 -156.5t-244 -45.5q-156 0 -251.5 74.5t-95.5 219.5zM244 276q0 -113 63.5 -167t163.5 -54q94 0 195.5 52.5t154.5 128.5 q-68 119 -71 274h-232q-131 0 -202.5 -63.5t-71.5 -170.5zM934 586h627q-2 154 -73 268.5t-218 114.5q-158 0 -242 -108.5t-94 -274.5z" />
<glyph unicode="&#xe7;" horiz-adv-x="1015" d="M61 508q0 250 146.5 390t392.5 140q221 0 367 -123l-15 -223h-41q-12 31 -20 91.5t-10 109.5q-109 72 -230 72q-195 0 -299 -121t-104 -348q0 -117 42 -218.5t130 -165t221 -63.5q82 0 167 27.5t146 73.5l19 -54q-53 -45 -136 -75.5t-186 -38.5l-53 -115q104 0 160.5 -34 t56.5 -103q0 -86 -68.5 -132.5t-177.5 -46.5q-98 0 -172 37l33 60q59 -25 129 -25t112 26.5t42 80.5q0 39 -36 57t-85 18q-23 0 -51 -4l-45 58l61 121q-152 8 -263.5 75.5t-172 184t-60.5 268.5z" />
<glyph unicode="&#xe8;" horiz-adv-x="1093" d="M55 508q0 252 138.5 391t379.5 139q154 0 256.5 -65.5t151.5 -175t49 -242.5v-47h-788q2 -201 103 -330t294 -129q82 0 171 27.5t155 73.5l18 -54q-59 -49 -162.5 -82.5t-226.5 -33.5q-162 0 -284 66.5t-188.5 186t-66.5 275.5zM244 580h622q0 92 -28.5 180t-93 146.5 t-166.5 58.5q-154 0 -237 -108.5t-97 -276.5zM358 1452q0 23 17.5 39t48.5 16q45 0 90 -45l238 -219l-33 -47l-291 168q-70 41 -70 88z" />
<glyph unicode="&#xe9;" horiz-adv-x="1093" d="M55 508q0 252 138.5 391t379.5 139q154 0 256.5 -65.5t151.5 -175t49 -242.5v-47h-788q2 -201 103 -330t294 -129q82 0 171 27.5t155 73.5l18 -54q-59 -49 -162.5 -82.5t-226.5 -33.5q-162 0 -284 66.5t-188.5 186t-66.5 275.5zM244 580h622q0 92 -28.5 180t-93 146.5 t-166.5 58.5q-154 0 -237 -108.5t-97 -276.5zM387 1243l234 217q47 47 92 47q31 0 47 -16t16 -39q0 -47 -65 -88l-291 -168z" />
<glyph unicode="&#xea;" horiz-adv-x="1093" d="M55 508q0 252 138.5 391t379.5 139q154 0 256.5 -65.5t151.5 -175t49 -242.5v-47h-788q2 -201 103 -330t294 -129q82 0 171 27.5t155 73.5l18 -54q-59 -49 -162.5 -82.5t-226.5 -33.5q-162 0 -284 66.5t-188.5 186t-66.5 275.5zM244 580h622q0 92 -28.5 180t-93 146.5 t-166.5 58.5q-154 0 -237 -108.5t-97 -276.5zM246 1249q66 45 145.5 118t122.5 132h88q43 -59 123 -133t145 -117l-77 -65q-61 45 -126 107.5t-104 115.5h-10q-39 -53 -104.5 -115.5t-126.5 -107.5z" />
<glyph unicode="&#xeb;" horiz-adv-x="1093" d="M55 508q0 252 138.5 391t379.5 139q154 0 256.5 -65.5t151.5 -175t49 -242.5v-47h-788q2 -201 103 -330t294 -129q82 0 171 27.5t155 73.5l18 -54q-59 -49 -162.5 -82.5t-226.5 -33.5q-162 0 -284 66.5t-188.5 186t-66.5 275.5zM244 580h622q0 92 -28.5 180t-93 146.5 t-166.5 58.5q-154 0 -237 -108.5t-97 -276.5zM244 1286q0 43 24.5 69.5t65.5 26.5t66.5 -26.5t25.5 -69.5q0 -41 -25.5 -66.5t-66.5 -25.5q-39 0 -64.5 25.5t-25.5 66.5zM694 1286q0 43 24.5 69.5t65.5 26.5t67 -26.5t26 -69.5q0 -41 -26 -66.5t-67 -25.5t-65.5 25.5 t-24.5 66.5z" />
<glyph unicode="&#xec;" horiz-adv-x="661" d="M74 0v23q39 14 94 25t70 13v887q-82 14 -144 35v16l328 33v-971q94 -16 164 -38v-23h-512zM84 1452q0 23 17.5 39t48.5 16q45 0 90 -45l237 -219l-33 -47l-290 168q-70 41 -70 88z" />
<glyph unicode="&#xed;" horiz-adv-x="661" d="M74 0v23q39 14 94 25t70 13v887q-82 14 -144 35v16l328 33v-971q94 -16 164 -38v-23h-512zM125 1243l233 217q47 47 93 47q31 0 47 -16t16 -39q0 -47 -65 -88l-291 -168z" />
<glyph unicode="&#xee;" horiz-adv-x="661" d="M16 1249q66 45 146 118t123 132h88q43 -59 122.5 -133t145.5 -117l-78 -65q-61 45 -125.5 107.5t-103.5 115.5h-10q-39 -53 -104.5 -115.5t-127.5 -107.5zM74 0v23q39 14 94 25t70 13v887q-82 14 -144 35v16l328 33v-971q94 -16 164 -38v-23h-512z" />
<glyph unicode="&#xef;" horiz-adv-x="661" d="M12 1286q0 43 24.5 69.5t65.5 26.5t67 -26.5t26 -69.5q0 -41 -26 -66.5t-67 -25.5q-39 0 -64.5 25.5t-25.5 66.5zM74 0v23q39 14 94 25t70 13v887q-82 14 -144 35v16l328 33v-971q94 -16 164 -38v-23h-512zM463 1286q0 43 24.5 69.5t65.5 26.5t66.5 -26.5t25.5 -69.5 q0 -41 -25.5 -66.5t-66.5 -25.5t-65.5 25.5t-24.5 66.5z" />
<glyph unicode="&#xf0;" horiz-adv-x="1222" d="M92 508q0 127 55.5 246.5t170 196.5t284.5 77q94 0 183 -39t143 -117q-33 115 -104.5 232t-174.5 215l-338 -191l-30 86l297 170q-106 84 -230 140l53 67q150 -61 269 -153q139 80 268 159l55 -84l-245 -139q180 -160 281 -365.5t101 -410.5q0 -291 -136 -454.5 t-402 -163.5q-158 0 -270.5 72.5t-171 192.5t-58.5 263zM276 508q0 -123 38 -227.5t110 -167t172 -62.5q109 0 188.5 66.5t120.5 181.5t41 254q0 104 -43 197.5t-119.5 148.5t-173.5 55q-96 0 -173 -57t-119 -159.5t-42 -229.5z" />
<glyph unicode="&#xf1;" horiz-adv-x="1351" d="M63 0v23q82 27 164 38v889q-86 16 -143 37v14l328 35v-155q72 70 175 113.5t222 43.5q152 0 245 -77.5t93 -210.5v-689q96 -13 164 -38v-23h-504v23q88 29 156 38v672q0 123 -59.5 177.5t-158.5 54.5q-82 0 -172 -42t-161 -120v-742q82 -12 163 -38v-23h-512zM299 1196 q14 104 66.5 154.5t134.5 50.5q43 0 83 -16.5t93 -47.5q39 -25 67.5 -37t55.5 -12q47 0 83 30t50 93h65q-14 -100 -64 -156.5t-138 -56.5q-35 0 -69 14.5t-97 47.5q-45 27 -76 40t-57 13q-47 0 -82 -32t-47 -85h-68z" />
<glyph unicode="&#xf2;" horiz-adv-x="1187" d="M53 508q0 250 142.5 390t398.5 140q254 0 396.5 -140t142.5 -390t-142.5 -389t-396.5 -139q-256 0 -398.5 139t-142.5 389zM238 508q0 -213 95 -335t261 -122q162 0 258 122t96 335t-96 335t-258 122q-166 0 -261 -122t-95 -335zM387 1452q0 23 17.5 39t48.5 16 q45 0 90 -45l237 -219l-32 -47l-291 168q-70 41 -70 88z" />
<glyph unicode="&#xf3;" horiz-adv-x="1187" d="M53 508q0 250 142.5 390t398.5 140q254 0 396.5 -140t142.5 -390t-142.5 -389t-396.5 -139q-256 0 -398.5 139t-142.5 389zM238 508q0 -213 95 -335t261 -122q162 0 258 122t96 335t-96 335t-258 122q-166 0 -261 -122t-95 -335zM403 1243l234 217q47 47 92 47 q31 0 47.5 -16t16.5 -39q0 -47 -66 -88l-291 -168z" />
<glyph unicode="&#xf4;" horiz-adv-x="1187" d="M53 508q0 250 142.5 390t398.5 140q254 0 396.5 -140t142.5 -390t-142.5 -389t-396.5 -139q-256 0 -398.5 139t-142.5 389zM238 508q0 -213 95 -335t261 -122q162 0 258 122t96 335t-96 335t-258 122q-166 0 -261 -122t-95 -335zM281 1249q66 45 145.5 118t122.5 132h88 q43 -59 123 -133t145 -117l-78 -65q-61 45 -125.5 107.5t-103.5 115.5h-10q-39 -53 -104.5 -115.5t-127.5 -107.5z" />
<glyph unicode="&#xf5;" horiz-adv-x="1187" d="M53 508q0 250 142.5 390t398.5 140q254 0 396.5 -140t142.5 -390t-142.5 -389t-396.5 -139q-256 0 -398.5 139t-142.5 389zM238 508q0 -213 95 -335t261 -122q162 0 258 122t96 335t-96 335t-258 122q-166 0 -261 -122t-95 -335zM242 1196q14 104 66 154.5t134 50.5 q43 0 83 -16.5t93 -47.5q39 -25 68 -37t55 -12q47 0 83 30t50 93h66q-14 -100 -64.5 -156.5t-138.5 -56.5q-35 0 -68.5 14.5t-97.5 47.5q-45 27 -75.5 40t-57.5 13q-47 0 -81.5 -32t-47.5 -85h-67z" />
<glyph unicode="&#xf6;" horiz-adv-x="1187" d="M53 508q0 250 142.5 390t398.5 140q254 0 396.5 -140t142.5 -390t-142.5 -389t-396.5 -139q-256 0 -398.5 139t-142.5 389zM238 508q0 -213 95 -335t261 -122q162 0 258 122t96 335t-96 335t-258 122q-166 0 -261 -122t-95 -335zM276 1286q0 43 25 69.5t66 26.5 t66.5 -26.5t25.5 -69.5q0 -41 -25.5 -66.5t-66.5 -25.5q-39 0 -65 25.5t-26 66.5zM727 1286q0 43 24.5 69.5t65.5 26.5t66.5 -26.5t25.5 -69.5q0 -41 -25.5 -66.5t-66.5 -25.5t-65.5 25.5t-24.5 66.5z" />
<glyph unicode="&#xf7;" horiz-adv-x="1204" d="M113 635v98h979v-98h-979zM483 344q0 49 30 80t81 31t81 -31t30 -80t-30 -78.5t-81 -29.5q-49 0 -80 30.5t-31 77.5zM487 1024q0 49 30 79t79 30q51 0 81 -30t30 -79t-30 -81t-81 -32q-49 0 -79 32t-30 81z" />
<glyph unicode="&#xf8;" horiz-adv-x="1187" d="M53 508q0 250 142.5 390t398.5 140q172 0 293 -65l76 102l67 -49l-74 -98q86 -68 131.5 -174.5t45.5 -245.5q0 -250 -142.5 -389t-396.5 -139q-176 0 -299 67l-86 -115l-64 48l82 110q-84 68 -129 174.5t-45 243.5zM238 508q-1 -186 73 -305l506 678q-88 84 -223 84 q-166 0 -261 -122t-95 -335zM365 139q92 -88 229 -88q162 0 258 122t96 335q0 186 -76 307z" />
<glyph unicode="&#xf9;" horiz-adv-x="1296" d="M45 987v14l328 35v-751q0 -123 58 -178.5t159 -55.5q76 0 169 39t163 100v760q-86 16 -142 37v14l326 35v-973q59 -7 143 -32v-17l-327 -32v133q-76 -57 -175.5 -96t-207.5 -39q-162 0 -256.5 76.5t-94.5 207.5v686q-90 16 -143 37zM436 1452q0 23 17.5 39t48.5 16 q45 0 90 -45l237 -219l-32 -47l-291 168q-70 41 -70 88z" />
<glyph unicode="&#xfa;" horiz-adv-x="1296" d="M45 987v14l328 35v-751q0 -123 58 -178.5t159 -55.5q76 0 169 39t163 100v760q-86 16 -142 37v14l326 35v-973q59 -7 143 -32v-17l-327 -32v133q-76 -57 -175.5 -96t-207.5 -39q-162 0 -256.5 76.5t-94.5 207.5v686q-90 16 -143 37zM475 1243l234 217q47 47 92 47 q31 0 47 -16t16 -39q0 -47 -65 -88l-291 -168z" />
<glyph unicode="&#xfb;" horiz-adv-x="1296" d="M45 987v14l328 35v-751q0 -123 58 -178.5t159 -55.5q76 0 169 39t163 100v760q-86 16 -142 37v14l326 35v-973q59 -7 143 -32v-17l-327 -32v133q-76 -57 -175.5 -96t-207.5 -39q-162 0 -256.5 76.5t-94.5 207.5v686q-90 16 -143 37zM322 1249q66 45 145.5 118t122.5 132 h88q43 -59 123 -133t145 -117l-78 -65q-61 45 -125.5 107.5t-103.5 115.5h-10q-39 -53 -104.5 -115.5t-127.5 -107.5z" />
<glyph unicode="&#xfc;" horiz-adv-x="1296" d="M45 987v14l328 35v-751q0 -123 58 -178.5t159 -55.5q76 0 169 39t163 100v760q-86 16 -142 37v14l326 35v-973q59 -7 143 -32v-17l-327 -32v133q-76 -57 -175.5 -96t-207.5 -39q-162 0 -256.5 76.5t-94.5 207.5v686q-90 16 -143 37zM317 1286q0 43 25 69.5t66 26.5 t66.5 -26.5t25.5 -69.5q0 -41 -25.5 -66.5t-66.5 -25.5q-39 0 -65 25.5t-26 66.5zM768 1286q0 43 24.5 69.5t65.5 26.5t66.5 -26.5t25.5 -69.5q0 -41 -25.5 -66.5t-66.5 -25.5t-65.5 25.5t-24.5 66.5z" />
<glyph unicode="&#xfd;" horiz-adv-x="1155" d="M10 997v23h475v-25q-49 -18 -161 -34l288 -762l283 766q-82 6 -150 30v25h400v-23q-51 -18 -141 -34l-396 -1057q-41 -111 -76.5 -172.5t-93 -94t-151.5 -32.5q-98 0 -189 37l29 90q90 -29 158 -29q61 0 98 20.5t67.5 70.5t67.5 149l23 61l-394 959q-90 10 -137 32z M430 1243l234 217q47 47 92 47q31 0 47 -16t16 -39q0 -47 -65 -88l-291 -168z" />
<glyph unicode="&#xfe;" horiz-adv-x="1232" d="M16 -473q63 18 166 37v1800q-82 14 -143 33v18l328 33v-561q78 88 171 119.5t177 31.5q221 0 343 -127t122 -376q0 -285 -126 -420t-358 -135q-104 0 -193 36.5t-136 114.5v-567q82 -12 163 -39v-25h-514v27zM367 346q0 -80 35.5 -147.5t105.5 -107.5t164 -40 q170 0 245.5 129t75.5 344q0 221 -74.5 331t-246.5 110q-90 0 -169 -47.5t-136 -122.5v-449z" />
<glyph unicode="&#xff;" horiz-adv-x="1155" d="M10 997v23h475v-25q-49 -18 -161 -34l288 -762l283 766q-82 6 -150 30v25h400v-23q-51 -18 -141 -34l-396 -1057q-41 -111 -76.5 -172.5t-93 -94t-151.5 -32.5q-98 0 -189 37l29 90q90 -29 158 -29q61 0 98 20.5t67.5 70.5t67.5 149l23 61l-394 959q-90 10 -137 32z M283 1286q0 43 24.5 69.5t65.5 26.5t66.5 -26.5t25.5 -69.5q0 -41 -25.5 -66.5t-66.5 -25.5q-39 0 -64.5 25.5t-25.5 66.5zM733 1286q0 43 24.5 69.5t65.5 26.5t66.5 -26.5t25.5 -69.5q0 -41 -25.5 -66.5t-66.5 -25.5t-65.5 25.5t-24.5 66.5z" />
<glyph unicode="&#x100;" horiz-adv-x="1480" d="M14 0v27q35 12 82 23t78 16l502 1376h129l502 -1379q89 -13 159 -38v-25h-512v25q72 27 166 36l-110 312h-615l-112 -312q90 -10 170 -38v-23h-439zM399 1606v71h682v-71h-682zM420 444h565l-280 793z" />
<glyph unicode="&#x101;" horiz-adv-x="1101" d="M61 274q0 158 113 228.5t287 70.5h303v164q0 117 -69.5 172.5t-196.5 55.5q-80 0 -165 -23.5t-157 -60.5l-14 63q82 43 185.5 68.5t211.5 25.5q182 0 286.5 -78.5t104.5 -209.5v-672q72 -14 142 -33v-16l-328 -33v149q-84 -90 -179.5 -127.5t-187.5 -37.5 q-164 0 -250 75.5t-86 218.5zM197 1196v72h682v-72h-682zM244 276q0 -111 60.5 -166t158.5 -55q84 0 171 52.5t130 121.5v271h-258q-131 0 -196.5 -58.5t-65.5 -165.5z" />
<glyph unicode="&#x102;" horiz-adv-x="1480" d="M14 0v27q35 12 82 23t78 16l502 1376h129l502 -1379q89 -13 159 -38v-25h-512v25q72 27 166 36l-110 312h-615l-112 -312q90 -10 170 -38v-23h-439zM420 444h565l-280 793zM420 1841h115q10 -104 67 -141t137 -37t136.5 37t66.5 141h115q-14 -127 -99.5 -190.5 t-218.5 -63.5q-135 0 -219 63.5t-100 190.5z" />
<glyph unicode="&#x103;" horiz-adv-x="1101" d="M61 274q0 158 113 228.5t287 70.5h303v164q0 117 -69.5 172.5t-196.5 55.5q-80 0 -165 -23.5t-157 -60.5l-14 63q82 43 185.5 68.5t211.5 25.5q182 0 286.5 -78.5t104.5 -209.5v-672q72 -14 142 -33v-16l-328 -33v149q-84 -90 -179.5 -127.5t-187.5 -37.5 q-164 0 -250 75.5t-86 218.5zM242 1440h114q10 -104 67.5 -141t137.5 -37t136.5 36.5t66.5 141.5h115q-14 -127 -99.5 -190.5t-218.5 -63.5q-135 0 -219 63.5t-100 190.5zM244 276q0 -111 60.5 -166t158.5 -55q84 0 171 52.5t130 121.5v271h-258q-131 0 -196.5 -58.5 t-65.5 -165.5z" />
<glyph unicode="&#x104;" horiz-adv-x="1480" d="M14 0v27q35 12 82 23t78 16l502 1376h129l502 -1379q90 -14 159 -38v-25h-8q-55 -33 -92 -84t-37 -104q0 -51 36 -78t91 -27q56 0 111 29v-84q-76 -35 -172 -35q-98 0 -153.5 48t-55.5 116q0 70 46 129t124 90h-402v25q72 27 166 36l-110 312h-615l-112 -312 q90 -10 170 -38v-23h-439zM420 444h565l-280 793z" />
<glyph unicode="&#x105;" horiz-adv-x="1101" d="M61 274q0 158 113 228.5t287 70.5h303v164q0 117 -69.5 172.5t-196.5 55.5q-80 0 -165 -23.5t-157 -60.5l-14 63q82 43 185.5 68.5t211.5 25.5q182 0 286.5 -78.5t104.5 -209.5v-672q72 -14 142 -33v-16l-66 -6q-51 -33 -88 -88.5t-37 -106.5t36 -77.5t91 -26.5 q56 -1 111 28v-84q-76 -35 -172 -35q-98 0 -153.5 48.5t-55.5 115.5q0 66 42 124.5t115 88.5l-151 -14v149q-84 -90 -179.5 -127.5t-187.5 -37.5q-164 0 -250 75.5t-86 218.5zM244 276q0 -111 60.5 -166t158.5 -55q84 0 171 52.5t130 121.5v271h-258q-131 0 -196.5 -58.5 t-65.5 -165.5z" />
<glyph unicode="&#x106;" horiz-adv-x="1267" d="M96 717q0 346 170 541.5t486 195.5q268 0 424 -141l-19 -250h-49q-25 72 -39 229q-49 39 -118.5 62.5t-149.5 23.5q-256 0 -384 -180t-128 -481q0 -305 119.5 -483.5t377.5 -178.5q78 0 177.5 29t181.5 82l26 -55q-72 -63 -181 -97t-236 -34q-324 0 -491 194.5 t-167 542.5zM606 1657l234 217q47 47 92 47q31 0 47 -16.5t16 -38.5q0 -47 -65 -88l-291 -168z" />
<glyph unicode="&#x107;" horiz-adv-x="1015" d="M61 508q0 250 146.5 390t392.5 140q221 0 367 -123l-15 -223h-41q-12 31 -20 91.5t-10 109.5q-109 72 -230 72q-195 0 -299 -121t-104 -348q0 -117 42 -218.5t130 -165t221 -63.5q82 0 167 27.5t146 73.5l19 -54q-61 -51 -159.5 -83.5t-221.5 -32.5q-162 0 -282 65.5 t-184.5 185t-64.5 277.5zM463 1243l233 217q47 47 92 47q31 0 47.5 -16t16.5 -39q0 -47 -66 -88l-290 -168z" />
<glyph unicode="&#x108;" horiz-adv-x="1267" d="M96 717q0 346 170 541.5t486 195.5q268 0 424 -141l-19 -250h-49q-25 72 -39 229q-49 39 -118.5 62.5t-149.5 23.5q-256 0 -384 -180t-128 -481q0 -305 119.5 -483.5t377.5 -178.5q78 0 177.5 29t181.5 82l26 -55q-72 -63 -181 -97t-236 -34q-324 0 -491 194.5 t-167 542.5zM457 1663q66 45 145.5 117.5t122.5 132.5h88q43 -59 123 -133t145 -117l-77 -66q-61 45 -126 107.5t-104 116.5h-10q-39 -53 -104.5 -116t-127.5 -108z" />
<glyph unicode="&#x109;" horiz-adv-x="1015" d="M61 508q0 250 146.5 390t392.5 140q221 0 367 -123l-15 -223h-41q-12 31 -20 91.5t-10 109.5q-109 72 -230 72q-195 0 -299 -121t-104 -348q0 -117 42 -218.5t130 -165t221 -63.5q82 0 167 27.5t146 73.5l19 -54q-61 -51 -159.5 -83.5t-221.5 -32.5q-162 0 -282 65.5 t-184.5 185t-64.5 277.5zM305 1249q66 45 145.5 118t122.5 132h89q43 -59 122.5 -133t145.5 -117l-78 -65q-61 45 -125.5 107.5t-103.5 115.5h-11q-39 -53 -104.5 -115.5t-126.5 -107.5z" />
<glyph unicode="&#x10a;" horiz-adv-x="1267" d="M96 717q0 346 170 541.5t486 195.5q268 0 424 -141l-19 -250h-49q-25 72 -39 229q-49 39 -118.5 62.5t-149.5 23.5q-256 0 -384 -180t-128 -481q0 -305 119.5 -483.5t377.5 -178.5q78 0 177.5 29t181.5 82l26 -55q-72 -63 -181 -97t-236 -34q-324 0 -491 194.5 t-167 542.5zM694 1700q0 43 24.5 69.5t67.5 26.5q41 0 66 -26.5t25 -69.5q0 -41 -26 -66.5t-65 -25.5q-43 0 -67.5 25.5t-24.5 66.5z" />
<glyph unicode="&#x10b;" horiz-adv-x="1015" d="M61 508q0 250 146.5 390t392.5 140q221 0 367 -123l-15 -223h-41q-12 31 -20 91.5t-10 109.5q-109 72 -230 72q-195 0 -299 -121t-104 -348q0 -117 42 -218.5t130 -165t221 -63.5q82 0 167 27.5t146 73.5l19 -54q-61 -51 -159.5 -83.5t-221.5 -32.5q-162 0 -282 65.5 t-184.5 185t-64.5 277.5zM518 1286q0 43 24.5 69.5t67.5 26.5q41 0 65.5 -26.5t24.5 -69.5q0 -41 -25.5 -66.5t-64.5 -25.5q-43 0 -67.5 25.5t-24.5 66.5z" />
<glyph unicode="&#x10c;" horiz-adv-x="1267" d="M96 717q0 346 170 541.5t486 195.5q268 0 424 -141l-19 -250h-49q-25 72 -39 229q-49 39 -118.5 62.5t-149.5 23.5q-256 0 -384 -180t-128 -481q0 -305 119.5 -483.5t377.5 -178.5q78 0 177.5 29t181.5 82l26 -55q-72 -63 -181 -97t-236 -34q-324 0 -491 194.5 t-167 542.5zM473 1862l76 65q61 -45 126.5 -107.5t104.5 -115.5h11q39 53 103 115.5t126 107.5l78 -65q-66 -43 -146 -117t-123 -135h-88q-43 59 -122.5 133t-145.5 119z" />
<glyph unicode="&#x10d;" horiz-adv-x="1015" d="M61 508q0 250 146.5 390t392.5 140q221 0 367 -123l-15 -223h-41q-12 31 -20 91.5t-10 109.5q-109 72 -230 72q-195 0 -299 -121t-104 -348q0 -117 42 -218.5t130 -165t221 -63.5q82 0 167 27.5t146 73.5l19 -54q-61 -51 -159.5 -83.5t-221.5 -32.5q-162 0 -282 65.5 t-184.5 185t-64.5 277.5zM311 1448l76 65q61 -45 127 -107.5t104 -115.5h11q39 53 103.5 115.5t125.5 107.5l78 -65q-66 -43 -145.5 -117t-122.5 -135h-88q-43 59 -123 133t-146 119z" />
<glyph unicode="&#x10e;" horiz-adv-x="1370" d="M82 0v25q80 29 162 36v1309q-78 12 -162 39v25h614q311 0 453.5 -181.5t142.5 -535.5q0 -352 -143 -534.5t-455 -182.5h-612zM371 1862l75 65q61 -45 127 -107.5t105 -115.5h10q39 53 103.5 115.5t126.5 107.5l77 -65q-66 -43 -145.5 -117t-122.5 -135h-88 q-43 59 -123 133t-145 119zM432 72h258q223 0 316.5 167t93.5 478q0 309 -93.5 475t-312.5 166h-262v-1286z" />
<glyph unicode="&#x10f;" horiz-adv-x="1462" d="M61 504q0 250 129 392t351 142q94 0 177 -28.5t156 -110.5v463q-86 16 -141 37v14l326 35v-1370q82 -16 141 -33v-14l-285 -41q-10 66 -18 180q-53 -94 -153.5 -142t-227.5 -48q-215 0 -335 128t-120 396zM246 502q0 -213 77.5 -332t243.5 -119q138 0 222.5 85t84.5 214 v457q-133 158 -290 158q-172 0 -255 -132.5t-83 -330.5zM1194 1346q0 47 33 73.5t78 26.5q63 0 92.5 -37t29.5 -98q0 -86 -42 -184.5t-105 -157.5l-66 51q39 45 67 105.5t34 121.5l-21 -2q-43 0 -71.5 27.5t-28.5 73.5z" />
<glyph unicode="&#x110;" horiz-adv-x="1370" d="M82 0v25q80 29 162 36v584h-148v72h148v653q-78 12 -162 39v25h614q312 0 454 -181.5t142 -535.5q0 -352 -143 -534.5t-455 -182.5h-612zM432 72h258q223 0 316.5 167t93.5 478q0 309 -93.5 475t-312.5 166h-262v-641h344v-72h-344v-573z" />
<glyph unicode="&#x111;" horiz-adv-x="1210" d="M61 504q0 250 129 392t351 142q94 0 177 -28.5t156 -110.5v268h-329v76h329v162q-84 16 -141 35v16l326 35v-248h98v-76h-98v-1089q82 -16 141 -33v-14l-285 -41q-10 66 -18 180q-53 -94 -153.5 -142t-227.5 -48q-215 0 -335 128t-120 396zM246 502q0 -213 77.5 -332 t243.5 -119q138 0 222.5 85t84.5 214v457q-133 158 -290 158q-172 0 -255 -132.5t-83 -330.5z" />
<glyph unicode="&#x112;" horiz-adv-x="1255" d="M82 0v25q84 31 170 38v1307q-74 8 -170 39v25h1046v-299h-43q-16 29 -33.5 104.5t-21.5 118.5h-588v-617h426q4 37 14.5 87.5t24.5 82.5h33v-413h-33q-14 35 -24.5 85t-14.5 85h-426v-596h594q2 43 29 116.5t47 106.5h45l-29 -295h-1046zM346 1606v71h682v-71h-682z" />
<glyph unicode="&#x113;" horiz-adv-x="1093" d="M55 508q0 252 138.5 391t379.5 139q154 0 256.5 -65.5t151.5 -175t49 -242.5v-47h-788q2 -201 103 -330t294 -129q82 0 171 27.5t155 73.5l18 -54q-59 -49 -162.5 -82.5t-226.5 -33.5q-162 0 -284 66.5t-188.5 186t-66.5 275.5zM211 1196v72h682v-72h-682zM244 580h622 q0 92 -28.5 180t-93 146.5t-166.5 58.5q-154 0 -237 -108.5t-97 -276.5z" />
<glyph unicode="&#x114;" horiz-adv-x="1255" d="M82 0v25q84 31 170 38v1307q-74 8 -170 39v25h1046v-299h-43q-16 29 -33.5 104.5t-21.5 118.5h-588v-617h426q4 37 14.5 87.5t24.5 82.5h33v-413h-33q-14 35 -24.5 85t-14.5 85h-426v-596h594q2 43 29 116.5t47 106.5h45l-29 -295h-1046zM381 1845h115q10 -104 67.5 -141 t136.5 -37q80 0 136.5 37t66.5 141h115q-14 -127 -99 -190.5t-219 -63.5q-135 0 -219 63.5t-100 190.5z" />
<glyph unicode="&#x115;" horiz-adv-x="1093" d="M55 508q0 252 138.5 391t379.5 139q154 0 256.5 -65.5t151.5 -175t49 -242.5v-47h-788q2 -201 103 -330t294 -129q82 0 171 27.5t155 73.5l18 -54q-59 -49 -162.5 -82.5t-226.5 -33.5q-162 0 -284 66.5t-188.5 186t-66.5 275.5zM227 1432h115q10 -104 67.5 -141.5 t137.5 -37.5t136 37t67 142h114q-14 -127 -99 -190.5t-218 -63.5q-135 0 -219 63.5t-101 190.5zM244 580h622q0 92 -28.5 180t-93 146.5t-166.5 58.5q-154 0 -237 -108.5t-97 -276.5z" />
<glyph unicode="&#x116;" horiz-adv-x="1255" d="M82 0v25q84 31 170 38v1307q-74 8 -170 39v25h1046v-299h-43q-16 29 -33.5 104.5t-21.5 118.5h-588v-617h426q4 37 14.5 87.5t24.5 82.5h33v-413h-33q-14 35 -24.5 85t-14.5 85h-426v-596h594q2 43 29 116.5t47 106.5h45l-29 -295h-1046zM618 1700q0 43 25 69.5t68 26.5 q41 0 65.5 -26.5t24.5 -69.5q0 -41 -25.5 -66.5t-64.5 -25.5q-43 0 -68 25.5t-25 66.5z" />
<glyph unicode="&#x117;" horiz-adv-x="1093" d="M55 508q0 252 138.5 391t379.5 139q154 0 256.5 -65.5t151.5 -175t49 -242.5v-47h-788q2 -201 103 -330t294 -129q82 0 171 27.5t155 73.5l18 -54q-59 -49 -162.5 -82.5t-226.5 -33.5q-162 0 -284 66.5t-188.5 186t-66.5 275.5zM244 580h622q0 92 -28.5 180t-93 146.5 t-166.5 58.5q-154 0 -237 -108.5t-97 -276.5zM477 1286q0 43 24.5 69.5t67.5 26.5q41 0 65.5 -26.5t24.5 -69.5q0 -41 -25.5 -66.5t-64.5 -25.5q-43 0 -67.5 25.5t-24.5 66.5z" />
<glyph unicode="&#x118;" horiz-adv-x="1255" d="M82 0v25q84 31 170 38v1307q-74 8 -170 39v25h1046v-299h-43q-16 29 -33.5 104.5t-21.5 118.5h-588v-617h426q4 37 14.5 87.5t24.5 82.5h33v-413h-33q-14 35 -24.5 85t-14.5 85h-426v-596h594q2 43 29 116.5t47 106.5h45l-29 -295h-55q-55 -33 -92 -84t-37 -104 q0 -51 36 -78t91 -27q56 0 111 29v-84q-76 -35 -172 -35q-98 0 -153.5 48t-55.5 116q0 70 46 129t124 90h-889z" />
<glyph unicode="&#x119;" horiz-adv-x="1093" d="M55 508q0 252 138.5 391t379.5 139q154 0 256.5 -65.5t151.5 -175t49 -242.5v-47h-788q2 -201 103 -330t294 -129q82 0 171 27.5t155 73.5l18 -54q-25 -18 -65 -43q-49 -35 -81 -82t-32 -96q0 -51 36 -77.5t91 -26.5q55 -1 110 28v-84q-76 -35 -172 -34q-98 0 -153 48 t-55 115q0 80 59 146q-66 -10 -127 -10q-162 0 -284 66.5t-188.5 186t-66.5 275.5zM244 580h622q0 92 -28.5 180t-93 146.5t-166.5 58.5q-154 0 -237 -108.5t-97 -276.5z" />
<glyph unicode="&#x11a;" horiz-adv-x="1255" d="M82 0v25q84 31 170 38v1307q-74 8 -170 39v25h1046v-299h-43q-16 29 -33.5 104.5t-21.5 118.5h-588v-617h426q4 37 14.5 87.5t24.5 82.5h33v-413h-33q-14 35 -24.5 85t-14.5 85h-426v-596h594q2 43 29 116.5t47 106.5h45l-29 -295h-1046zM383 1862l76 65 q61 -45 126.5 -107.5t104.5 -115.5h10q39 53 103.5 115.5t126.5 107.5l78 -65q-66 -43 -146 -117t-123 -135h-88q-43 59 -122.5 133t-145.5 119z" />
<glyph unicode="&#x11b;" horiz-adv-x="1093" d="M55 508q0 252 138.5 391t379.5 139q154 0 256.5 -65.5t151.5 -175t49 -242.5v-47h-788q2 -201 103 -330t294 -129q82 0 171 27.5t155 73.5l18 -54q-59 -49 -162.5 -82.5t-226.5 -33.5q-162 0 -284 66.5t-188.5 186t-66.5 275.5zM244 580h622q0 92 -28.5 180t-93 146.5 t-166.5 58.5q-154 0 -237 -108.5t-97 -276.5zM262 1448l76 65q61 -45 126.5 -107.5t104.5 -115.5h11q39 53 103.5 115.5t125.5 107.5l78 -65q-66 -43 -145.5 -117t-123.5 -135h-88q-43 59 -122.5 133t-145.5 119z" />
<glyph unicode="&#x11c;" horiz-adv-x="1374" d="M76 717q0 227 80 393t232.5 255t361.5 89q147 0 280 -39t203 -102l-19 -250h-49q-27 80 -39 229q-45 37 -143 61.5t-184 24.5q-258 0 -394.5 -181t-136.5 -480q0 -305 123 -483.5t379 -178.5q55 0 130 14.5t126 43.5v520q-96 18 -162 37v24h488v-20q-66 -35 -144 -45 v-529q-76 -57 -206 -88.5t-265 -31.5q-321 0 -491 194.5t-170 542.5zM469 1663q66 45 145.5 117.5t122.5 132.5h88q43 -59 123 -133t146 -117l-78 -66q-61 45 -126 107.5t-104 116.5h-10q-39 -53 -104.5 -116t-126.5 -108z" />
<glyph unicode="&#x11d;" horiz-adv-x="1077" d="M76 -57q0 113 108 180q-43 23 -63.5 58.5t-20.5 76.5q0 111 117 180q-68 41 -102.5 108.5t-34.5 153.5q0 160 115.5 249t318.5 89t315 -88q29 31 48.5 68t19.5 59h139q-10 -49 -46 -100t-97 -92q55 -74 55 -185q0 -160 -115.5 -247.5t-318.5 -87.5q-111 0 -203 28 q-66 -41 -65 -88q0 -39 36.5 -52t116.5 -13h346q129 0 200 -70t71 -190q0 -293 -508 -293q-201 0 -316.5 66.5t-115.5 189.5zM223 -45q0 -92 81 -141.5t218 -49.5q150 0 238 46.5t88 142.5q0 66 -43 101.5t-129 35.5h-338q-23 0 -64 4q-51 -55 -51 -139zM229 1249 q66 45 146 118t123 132h88q43 -59 122.5 -133t145.5 -117l-78 -65q-61 45 -125.5 107.5t-103.5 115.5h-10q-39 -53 -104.5 -115.5t-127.5 -107.5zM262 700q0 -115 64.5 -189.5t187.5 -74.5t187.5 75t64.5 189q0 115 -64.5 190t-187.5 75t-187.5 -75t-64.5 -190z" />
<glyph unicode="&#x11e;" horiz-adv-x="1374" d="M76 717q0 227 80 393t232.5 255t361.5 89q147 0 280 -39t203 -102l-19 -250h-49q-27 80 -39 229q-45 37 -143 61.5t-184 24.5q-258 0 -394.5 -181t-136.5 -480q0 -305 123 -483.5t379 -178.5q55 0 130 14.5t126 43.5v520q-96 18 -162 37v24h488v-20q-66 -35 -144 -45 v-529q-76 -57 -206 -88.5t-265 -31.5q-321 0 -491 194.5t-170 542.5zM432 1845h115q10 -104 67.5 -141t137.5 -37t136 37t66 141h115q-14 -127 -99 -190.5t-218 -63.5q-136 0 -219.5 63.5t-100.5 190.5z" />
<glyph unicode="&#x11f;" horiz-adv-x="1077" d="M76 -57q0 113 108 180q-43 23 -63.5 58.5t-20.5 76.5q0 111 117 180q-68 41 -102.5 108.5t-34.5 153.5q0 160 115.5 249t318.5 89t315 -88q29 31 48.5 68t19.5 59h139q-10 -49 -46 -100t-97 -92q55 -74 55 -185q0 -160 -115.5 -247.5t-318.5 -87.5q-111 0 -203 28 q-66 -41 -65 -88q0 -39 36.5 -52t116.5 -13h346q129 0 200 -70t71 -190q0 -293 -508 -293q-201 0 -316.5 66.5t-115.5 189.5zM221 1432h115q10 -104 67.5 -141.5t137.5 -37.5t136 37t66 142h115q-14 -127 -99 -190.5t-218 -63.5q-135 0 -219 63.5t-101 190.5zM223 -45 q0 -92 81 -141.5t218 -49.5q150 0 238 46.5t88 142.5q0 66 -43 101.5t-129 35.5h-338q-23 0 -64 4q-51 -55 -51 -139zM262 700q0 -115 64.5 -189.5t187.5 -74.5t187.5 75t64.5 189q0 115 -64.5 190t-187.5 75t-187.5 -75t-64.5 -190z" />
<glyph unicode="&#x120;" horiz-adv-x="1374" d="M76 717q0 227 80 393t232.5 255t361.5 89q147 0 280 -39t203 -102l-19 -250h-49q-27 80 -39 229q-45 37 -143 61.5t-184 24.5q-258 0 -394.5 -181t-136.5 -480q0 -305 123 -483.5t379 -178.5q55 0 130 14.5t126 43.5v520q-96 18 -162 37v24h488v-20q-66 -35 -144 -45 v-529q-76 -57 -206 -88.5t-265 -31.5q-321 0 -491 194.5t-170 542.5zM682 1700q0 43 24.5 69.5t67.5 26.5q41 0 65.5 -26.5t24.5 -69.5q0 -41 -25.5 -66.5t-64.5 -25.5q-43 0 -67.5 25.5t-24.5 66.5z" />
<glyph unicode="&#x121;" horiz-adv-x="1077" d="M76 -57q0 113 108 180q-43 23 -63.5 58.5t-20.5 76.5q0 111 117 180q-68 41 -102.5 108.5t-34.5 153.5q0 160 115.5 249t318.5 89t315 -88q29 31 48.5 68t19.5 59h139q-10 -49 -46 -100t-97 -92q55 -74 55 -185q0 -160 -115.5 -247.5t-318.5 -87.5q-111 0 -203 28 q-66 -41 -65 -88q0 -39 36.5 -52t116.5 -13h346q129 0 200 -70t71 -190q0 -293 -508 -293q-201 0 -316.5 66.5t-115.5 189.5zM223 -45q0 -92 81 -141.5t218 -49.5q150 0 238 46.5t88 142.5q0 66 -43 101.5t-129 35.5h-338q-23 0 -64 4q-51 -55 -51 -139zM262 700 q0 -115 64.5 -189.5t187.5 -74.5t187.5 75t64.5 189q0 115 -64.5 190t-187.5 75t-187.5 -75t-64.5 -190zM438 1286q0 43 24.5 69.5t67.5 26.5q41 0 66 -26.5t25 -69.5q0 -41 -26 -66.5t-65 -25.5q-43 0 -67.5 25.5t-24.5 66.5z" />
<glyph unicode="&#x122;" horiz-adv-x="1374" d="M76 717q0 227 80 393t232.5 255t361.5 89q147 0 280 -39t203 -102l-19 -250h-49q-27 80 -39 229q-45 37 -143 61.5t-184 24.5q-258 0 -394.5 -181t-136.5 -480q0 -305 123 -483.5t379 -178.5q55 0 130 14.5t126 43.5v520q-96 18 -162 37v24h488v-20q-66 -35 -144 -45 v-529q-76 -57 -206 -88.5t-265 -31.5q-321 0 -491 194.5t-170 542.5zM639 -242q0 47 33 74t78 27q63 0 92.5 -37t29.5 -98q0 -86 -42 -184.5t-105 -157.5l-66 51q39 45 67 105.5t34 121.5q-6 -2 -21 -2q-43 0 -71.5 27.5t-28.5 72.5z" />
<glyph unicode="&#x123;" horiz-adv-x="1077" d="M76 -57q0 113 108 180q-43 23 -63.5 58.5t-20.5 76.5q0 111 117 180q-68 41 -102.5 108.5t-34.5 153.5q0 160 115.5 249t318.5 89t315 -88q29 31 48.5 68t19.5 59h139q-10 -49 -46 -100t-97 -92q55 -74 55 -185q0 -160 -115.5 -247.5t-318.5 -87.5q-111 0 -203 28 q-66 -41 -65 -88q0 -39 36.5 -52t116.5 -13h346q129 0 200 -70t71 -190q0 -293 -508 -293q-201 0 -316.5 66.5t-115.5 189.5zM223 -45q0 -92 81 -141.5t218 -49.5q150 0 238 46.5t88 142.5q0 66 -43 101.5t-129 35.5h-338q-23 0 -64 4q-51 -55 -51 -139zM262 700 q0 -115 64.5 -189.5t187.5 -74.5t187.5 75t64.5 189q0 115 -64.5 190t-187.5 75t-187.5 -75t-64.5 -190zM416 1325q0 86 42 184.5t105 157.5l66 -51q-39 -45 -66.5 -105.5t-34.5 -121.5q8 2 21 2q43 0 71.5 -28t28.5 -73q0 -47 -32.5 -73.5t-77.5 -26.5q-64 0 -93.5 37 t-29.5 98z" />
<glyph unicode="&#x124;" horiz-adv-x="1619" d="M82 0v25q80 29 162 36v1309q-88 14 -162 39v25h512v-25q-55 -20 -85 -27.5t-75 -11.5v-606h750v606q-68 10 -160 39v25h514v-27q-90 -31 -166 -39v-1307q94 -14 166 -38v-23h-514v20q53 20 84 28.5t76 12.5v629h-750v-629q96 -18 160 -38v-23h-512zM498 1663 q66 45 145.5 117.5t122.5 132.5h88q43 -59 123 -133t145 -117l-78 -66q-61 45 -125.5 107.5t-103.5 116.5h-10q-39 -54 -104.5 -116.5t-127.5 -107.5z" />
<glyph unicode="&#x125;" horiz-adv-x="1351" d="M63 0v23q82 31 164 38v1301q-86 16 -143 37v14l328 35v-567q72 70 175 113.5t222 43.5q152 0 245 -77.5t93 -210.5v-689q82 -11 164 -38v-23h-506v23q80 29 158 38v672q0 123 -59.5 177.5t-158.5 54.5q-82 0 -172 -42t-161 -120v-742q78 -12 155 -38v-23h-504zM387 1663 q66 45 145.5 117.5t122.5 132.5h88q43 -59 123 -133t146 -117l-78 -66q-61 45 -126 107.5t-103 116.5h-11q-39 -54 -104.5 -116.5t-126.5 -107.5z" />
<glyph unicode="&#x126;" horiz-adv-x="1619" d="M82 0v25q80 29 162 36v971h-123v74h123v264q-88 14 -162 39v25h512v-25q-55 -20 -85 -27.5t-75 -11.5v-264h750v264q-68 10 -160 39v25h514v-27q-90 -31 -166 -39v-262h125v-74h-125v-971q94 -14 166 -38v-23h-514v20q53 20 84 28.5t76 12.5v629h-750v-629 q96 -18 160 -38v-23h-512zM434 764h750v268h-750v-268z" />
<glyph unicode="&#x127;" horiz-adv-x="1351" d="M63 0v23q82 31 164 38v1102h-125v78h125v121q-86 16 -143 37v14l328 35v-207h303v-78h-303v-282q72 70 175 113.5t222 43.5q152 0 245 -77.5t93 -210.5v-689q82 -11 164 -38v-23h-506v23q80 29 158 38v672q0 123 -59.5 177.5t-158.5 54.5q-82 0 -172 -42t-161 -120v-742 q78 -12 155 -38v-23h-504z" />
<glyph unicode="&#x128;" horiz-adv-x="698" d="M-2 1610q14 104 66.5 154.5t134.5 50.5q43 0 83 -16.5t93 -47.5q39 -25 67.5 -37t55.5 -12q47 0 82.5 29.5t50.5 93.5h65q-14 -100 -64 -156.5t-138 -56.5q-35 0 -69 14t-97 47q-45 27 -76 40t-57 13q-47 0 -82 -31.5t-47 -84.5h-68zM88 0v25q88 27 166 36v1309 q-86 12 -166 39v25h522v-27q-70 -23 -168 -37v-1309q84 -12 168 -38v-23h-522z" />
<glyph unicode="&#x129;" horiz-adv-x="661" d="M-20 1196q14 104 66 154.5t134 50.5q43 0 83 -16.5t93 -47.5q39 -25 68 -37t55 -12q47 0 83 30t50 93h66q-14 -100 -64.5 -156.5t-138.5 -56.5q-35 0 -68.5 14.5t-97.5 47.5q-45 27 -75.5 40t-57.5 13q-47 0 -82 -32t-47 -85h-67zM74 0v23q39 14 94 25t70 13v887 q-82 14 -144 35v16l328 33v-971q94 -16 164 -38v-23h-512z" />
<glyph unicode="&#x12a;" horiz-adv-x="698" d="M-12 1608v71h723v-71h-723zM88 0v25q88 27 166 36v1309q-86 12 -166 39v25h522v-27q-70 -23 -168 -37v-1309q84 -12 168 -38v-23h-522z" />
<glyph unicode="&#x12b;" horiz-adv-x="661" d="M-12 1196v72h682v-72h-682zM74 0v23q39 14 94 25t70 13v887q-82 14 -144 35v16l328 33v-971q94 -16 164 -38v-23h-512z" />
<glyph unicode="&#x12c;" horiz-adv-x="698" d="M29 1845h114q10 -104 67.5 -141t137.5 -37t136.5 37t66.5 141h115q-14 -127 -99.5 -190.5t-218.5 -63.5q-135 0 -219 63.5t-100 190.5zM88 0v25q88 27 166 36v1309q-86 12 -166 39v25h522v-27q-70 -23 -168 -37v-1309q84 -12 168 -38v-23h-522z" />
<glyph unicode="&#x12d;" horiz-adv-x="661" d="M8 1444h115q12 -104 68.5 -141t136.5 -37t136 36.5t66 141.5h115q-14 -127 -99 -190.5t-218 -63.5q-135 0 -219 63.5t-101 190.5zM74 0v23q39 14 94 25t70 13v887q-82 14 -144 35v16l328 33v-971q94 -16 164 -38v-23h-512z" />
<glyph unicode="&#x12e;" horiz-adv-x="698" d="M88 0v25q88 27 166 36v1309q-86 12 -166 39v25h522v-27q-70 -23 -168 -37v-1309q84 -12 168 -38v-23h-49q-55 -33 -92 -84t-37 -104q0 -51 36 -78t91 -27q56 0 111 29v-84q-76 -35 -172 -35q-98 0 -153.5 48t-55.5 116q0 70 46 129t124 90h-371z" />
<glyph unicode="&#x12f;" horiz-adv-x="620" d="M53 0v23q39 14 94.5 25t69.5 13v887q-82 14 -143 35v16l327 33v-971q94 -16 164 -38v-23h-14q-55 -33 -92 -84t-37 -104q0 -51 36 -78t91 -27t110 29v-84q-76 -35 -172 -35q-98 0 -153 48t-55 116q0 70 46 129t124 90h-396zM180 1239q0 49 32 81t83 32t83 -32t32 -81 t-32 -80t-83 -31t-83 31t-32 80z" />
<glyph unicode="&#x130;" horiz-adv-x="698" d="M88 0v25q88 27 166 36v1309q-86 12 -166 39v25h522v-27q-70 -23 -168 -37v-1309q84 -12 168 -38v-23h-522zM254 1700q0 43 24.5 69.5t67.5 26.5q41 0 65.5 -26.5t24.5 -69.5q0 -41 -25.5 -66.5t-64.5 -25.5q-43 0 -67.5 25.5t-24.5 66.5z" />
<glyph unicode="&#x131;" horiz-adv-x="661" d="M74 0v23q39 14 94 25t70 13v887q-82 14 -144 35v16l328 33v-971q94 -16 164 -38v-23h-512z" />
<glyph unicode="&#x132;" horiz-adv-x="1658" d="M88 0v25q88 27 166 36v1309q-86 12 -166 39v25h522v-27q-70 -23 -168 -37v-1309q84 -12 168 -38v-23h-522zM733 80l31 49q104 -61 229 -61q229 0 230 225v1075q-86 12 -162 37v29h514v-27q-88 -31 -162 -39v-1075q0 -152 -99.5 -232.5t-264.5 -80.5q-193 0 -316 100z" />
<glyph unicode="&#x133;" horiz-adv-x="1253" d="M53 0v23q39 14 94.5 25t69.5 13v887q-82 14 -143 35v16l327 33v-971q94 -16 164 -38v-23h-512zM180 1239q0 49 32 81t83 32t83 -32t32 -81t-32 -80t-83 -31t-83 31t-32 80zM584 -213l12 68q57 -29 131 -29q80 0 121 47t41 137v938q-88 16 -141 35v16l327 33v-1014 q0 -137 -77.5 -203.5t-206.5 -66.5q-117 0 -207 39zM854 1239q0 49 30.5 81t82.5 32q51 0 82.5 -32t31.5 -81t-31.5 -80t-82.5 -31q-52 0 -82.5 31t-30.5 80z" />
<glyph unicode="&#x134;" horiz-adv-x="968" d="M43 80l31 49q104 -61 229 -61q229 0 229 225v1075q-86 12 -161 37v29h514v-27q-88 -31 -162 -39v-1075q0 -152 -99.5 -232.5t-265.5 -80.5q-192 0 -315 100zM315 1663q66 45 146 117.5t123 132.5h88q43 -59 122.5 -133t145.5 -117l-78 -66q-61 45 -125.5 107.5 t-103.5 116.5h-10q-39 -53 -104.5 -116t-127.5 -108z" />
<glyph unicode="&#x135;" horiz-adv-x="632" d="M-37 -213l12 68q57 -29 131 -29q80 0 121 47t41 137v938q-88 16 -141 35v16l328 33v-1014q0 -137 -78 -203.5t-207 -66.5q-117 0 -207 39zM14 1249q66 45 146 118t123 132h88q43 -59 122.5 -133t145.5 -117l-78 -65q-61 45 -125.5 107.5t-103.5 115.5h-10 q-39 -53 -104.5 -115.5t-127.5 -107.5z" />
<glyph unicode="&#x136;" horiz-adv-x="1507" d="M82 0v25q37 12 84 22t80 14v1309q-98 14 -164 39v25h520v-27q-74 -25 -166 -37v-702l619 673q12 12 12 21q0 16 -50 26.5t-99 12.5v33h411v-33q-18 -4 -48 -8t-52.5 -11.5t-38.5 -25.5l-481 -518l608 -777q102 -18 170 -38v-23h-328l-563 719l-160 -176v-482 q82 -12 166 -38v-23h-520zM684 -242q0 47 33 74t78 27q63 0 93 -37t30 -98q0 -86 -42 -184.5t-106 -157.5l-65 51q39 45 66.5 105.5t33.5 121.5q-6 -2 -21 -2q-43 0 -71.5 27.5t-28.5 72.5z" />
<glyph unicode="&#x137;" horiz-adv-x="1290" d="M63 0v23q90 31 164 38v1301q-86 16 -143 37v14l328 35v-975l442 449q10 6 10 12q4 8 4 16q-20 8 -53 17q-16 6 -45 15t-43 15v23h434v-23q-23 -12 -104 -34q-63 -16 -74 -23l-336 -338l447 -541q75 -9 161 -38v-23h-292l-418 498l-133 -133v-304q88 -14 163 -38v-23h-512 zM569 -242q0 47 33 74t78 27q63 0 93 -37t30 -98q0 -86 -42 -184.5t-106 -157.5l-65 51q39 45 66.5 105.5t33.5 121.5q-6 -2 -20 -2q-43 0 -72 27.5t-29 72.5z" />
<glyph unicode="&#x138;" horiz-adv-x="1290" d="M63 0v23q90 31 164 38v897q-82 14 -143 35v17l328 32v-571l442 451q18 18 23 26l-56 19q-59 14 -94 30v23h434v-23q-23 -12 -104 -34q-63 -16 -74 -23l-336 -338l447 -541q75 -9 161 -38v-23h-292l-418 498l-133 -133v-304q88 -14 163 -38v-23h-512z" />
<glyph unicode="&#x139;" horiz-adv-x="1226" d="M82 0v25q84 27 172 36v1309q-94 14 -166 39v25h520v-27q-74 -23 -164 -37v-1298h576q2 43 29.5 117.5t48.5 105.5h43l-29 -295h-1030zM248 1657l233 217q47 47 92 47q31 0 47.5 -16.5t16.5 -38.5q0 -47 -66 -88l-290 -168z" />
<glyph unicode="&#x13a;" horiz-adv-x="641" d="M63 0v23q45 14 164 38v1301q-86 16 -143 37v14l328 35v-1387q88 -14 163 -38v-23h-512zM152 1628l233 217q47 47 92 47q31 0 47.5 -16t16.5 -39q0 -47 -66 -88l-291 -168z" />
<glyph unicode="&#x13b;" horiz-adv-x="1226" d="M82 0v25q84 27 172 36v1309q-94 14 -166 39v25h520v-27q-74 -23 -164 -37v-1298h576q2 43 29.5 117.5t48.5 105.5h43l-29 -295h-1030zM537 -242q0 47 32.5 74t77.5 27q63 0 93 -37t30 -98q0 -86 -42 -184.5t-105 -157.5l-66 51q39 45 66.5 105.5t33.5 121.5q-6 -2 -20 -2 q-43 0 -71.5 27.5t-28.5 72.5z" />
<glyph unicode="&#x13c;" horiz-adv-x="641" d="M63 0v23q45 14 164 38v1301q-86 16 -143 37v14l328 35v-1387q88 -14 163 -38v-23h-512zM203 -242q0 47 32.5 74t77.5 27q63 0 93 -37t30 -98q0 -86 -42 -184.5t-105 -157.5l-66 51q39 45 66.5 105.5t34.5 121.5q-6 -2 -21 -2q-43 0 -71.5 27.5t-28.5 72.5z" />
<glyph unicode="&#x13d;" horiz-adv-x="1226" d="M82 0v25q84 27 172 36v1309q-94 14 -166 39v25h520v-27q-74 -23 -164 -37v-1298h576q2 43 29.5 117.5t48.5 105.5h43l-29 -295h-1030zM809 1343q0 47 29.5 79t83.5 32q68 0 97.5 -41t29.5 -104q0 -84 -44 -183.5t-108 -160.5l-66 51q39 45 68 106.5t35 120.5l-21 -2 q-41 0 -72.5 25.5t-31.5 76.5z" />
<glyph unicode="&#x13e;" horiz-adv-x="919" d="M63 0v23q45 14 164 38v1301q-86 16 -143 37v14l328 35v-1387q88 -14 163 -38v-23h-512zM600 1346q0 49 31 78.5t80 29.5q66 0 97.5 -42t31.5 -105q0 -86 -44 -184.5t-110 -157.5l-63 51q39 45 66.5 105.5t33.5 121.5q-8 -2 -21 -2q-47 0 -74.5 29.5t-27.5 75.5z" />
<glyph unicode="&#x13f;" horiz-adv-x="1226" d="M82 0v25q84 27 172 36v1309q-94 14 -166 39v25h520v-27q-74 -23 -164 -37v-1298h576q2 43 29.5 117.5t48.5 105.5h43l-29 -295h-1030zM721 772q0 41 25.5 66.5t66.5 25.5t66.5 -25.5t25.5 -66.5q0 -43 -25.5 -68.5t-66.5 -25.5t-66.5 25.5t-25.5 68.5z" />
<glyph unicode="&#x140;" horiz-adv-x="860" d="M63 0v23q45 14 164 38v1301q-86 16 -143 37v14l328 35v-1387q88 -14 163 -38v-23h-512zM565 707q0 45 26.5 72.5t72.5 27.5q45 0 71.5 -27.5t26.5 -72.5q0 -43 -26.5 -71t-71.5 -28q-46 0 -72.5 28t-26.5 71z" />
<glyph unicode="&#x141;" horiz-adv-x="1226" d="M76 496v98l178 63v713q-94 14 -166 39v25h520v-27q-74 -23 -164 -37v-643l428 154v-99l-428 -153v-557h576q2 43 29.5 117.5t48.5 105.5h43l-29 -295h-1030v25q84 27 172 36v498z" />
<glyph unicode="&#x142;" horiz-adv-x="651" d="M35 469v96l196 78v719q-90 16 -143 37v14l328 35v-731l209 82v-99l-209 -82v-557q82 -12 164 -38v-23h-514v23q41 12 165 38v486z" />
<glyph unicode="&#x143;" horiz-adv-x="1593" d="M82 0v23q76 23 164 36v1311q-98 14 -164 39v25h373l798 -1194v1132q-84 12 -163 37v25h421v-25q-72 -23 -165 -39v-1370h-109l-897 1329v-1268q94 -16 164 -38v-23h-422zM672 1657l233 217q47 47 92 47q31 0 47.5 -16.5t16.5 -38.5q0 -47 -66 -88l-290 -168z" />
<glyph unicode="&#x144;" horiz-adv-x="1351" d="M63 0v23q82 27 164 38v889q-86 16 -143 37v14l328 35v-155q72 70 175 113.5t222 43.5q152 0 245 -77.5t93 -210.5v-689q96 -13 164 -38v-23h-504v23q88 29 156 38v672q0 123 -59.5 177.5t-158.5 54.5q-82 0 -172 -42t-161 -120v-742q82 -12 163 -38v-23h-512zM467 1243 l233 217q47 47 93 47q31 0 47 -16t16 -39q0 -47 -65 -88l-291 -168z" />
<glyph unicode="&#x145;" horiz-adv-x="1593" d="M82 0v23q76 23 164 36v1311q-98 14 -164 39v25h373l798 -1194v1132q-84 12 -163 37v25h421v-25q-72 -23 -165 -39v-1370h-109l-897 1329v-1268q94 -16 164 -38v-23h-422zM684 -242q0 47 33 74t78 27q63 0 93 -37t30 -98q0 -86 -42 -184.5t-106 -157.5l-65 51 q39 45 66.5 105.5t33.5 121.5q-6 -2 -21 -2q-43 0 -71.5 27.5t-28.5 72.5z" />
<glyph unicode="&#x146;" horiz-adv-x="1351" d="M63 0v23q82 27 164 38v889q-86 16 -143 37v14l328 35v-155q72 70 175 113.5t222 43.5q152 0 245 -77.5t93 -210.5v-689q96 -13 164 -38v-23h-504v23q88 29 156 38v672q0 123 -59.5 177.5t-158.5 54.5q-82 0 -172 -42t-161 -120v-742q82 -12 163 -38v-23h-512zM532 -242 q0 47 33 74t78 27q64 0 93.5 -37t29.5 -98q0 -86 -42 -184.5t-106 -157.5l-65 51q39 45 66.5 105.5t33.5 121.5q-6 -2 -20 -2q-43 0 -72 27.5t-29 72.5z" />
<glyph unicode="&#x147;" horiz-adv-x="1593" d="M82 0v23q76 23 164 36v1311q-98 14 -164 39v25h373l798 -1194v1132q-84 12 -163 37v25h421v-25q-72 -23 -165 -39v-1370h-109l-897 1329v-1268q94 -16 164 -38v-23h-422zM481 1862l76 65q61 -45 127 -107.5t104 -115.5h11q39 53 103.5 115.5t125.5 107.5l78 -65 q-66 -43 -145.5 -117t-122.5 -135h-88q-43 59 -123 133t-146 119z" />
<glyph unicode="&#x148;" horiz-adv-x="1351" d="M63 0v23q82 27 164 38v889q-86 16 -143 37v14l328 35v-155q72 70 175 113.5t222 43.5q152 0 245 -77.5t93 -210.5v-689q96 -13 164 -38v-23h-504v23q88 29 156 38v672q0 123 -59.5 177.5t-158.5 54.5q-82 0 -172 -42t-161 -120v-742q82 -12 163 -38v-23h-512zM336 1448 l76 65q61 -45 126.5 -107.5t104.5 -115.5h10q39 53 103.5 115.5t126.5 107.5l78 -65q-66 -43 -146 -117t-123 -135h-88q-43 59 -123 133t-145 119z" />
<glyph unicode="&#x149;" horiz-adv-x="1699" d="M61 1184q0 47 33 73.5t78 26.5q64 0 93.5 -37t29.5 -98q0 -86 -42 -184.5t-106 -157.5l-65 51q39 45 66.5 105.5t33.5 121.5l-20 -2q-43 0 -72 28t-29 73zM412 0v23q82 27 163 38v889q-86 16 -143 37v14l328 35v-155q72 70 175 113.5t222 43.5q152 0 245 -77.5t93 -210.5 v-689q96 -13 164 -38v-23h-504v23q88 29 156 38v672q0 123 -59.5 177.5t-157.5 54.5q-82 0 -172.5 -42t-161.5 -120v-742q82 -12 164 -38v-23h-512z" />
<glyph unicode="&#x14a;" horiz-adv-x="1593" d="M82 0v23q76 23 164 36v1311q-98 14 -164 39v25h373l798 -1194v1132q-84 12 -163 37v25h421v-25q-72 -23 -165 -39v-1591q0 -139 -80 -214t-224 -75q-135 0 -258 70l17 51q90 -39 207 -39q113 0 180 50t67 161v209l-915 1337v-1268q94 -16 164 -38v-23h-422z" />
<glyph unicode="&#x14b;" horiz-adv-x="1325" d="M63 0v23q82 27 164 38v889q-86 16 -143 37v14l328 35v-151q72 66 176 109.5t221 43.5q152 0 245 -77.5t93 -210.5v-904q0 -137 -77 -202.5t-206 -65.5q-123 0 -209 39l15 66q59 -27 129 -27q80 0 122 47t42 137v893q0 123 -59.5 177.5t-158.5 54.5q-82 0 -175 -42 t-158 -114v-748q82 -12 163 -38v-23h-512z" />
<glyph unicode="&#x14c;" horiz-adv-x="1464" d="M76 717q0 346 169 541.5t486 195.5q315 0 486.5 -195.5t171.5 -541.5t-171 -541.5t-487 -195.5q-317 0 -486 194.5t-169 542.5zM266 717q0 -301 118 -481.5t347 -180.5q230 0 348.5 181.5t118.5 480.5t-118.5 480t-348.5 181q-229 0 -347 -181t-118 -480zM387 1632v72 h682v-72h-682z" />
<glyph unicode="&#x14d;" horiz-adv-x="1187" d="M53 508q0 250 142.5 390t398.5 140q254 0 396.5 -140t142.5 -390t-142.5 -389t-396.5 -139q-256 0 -398.5 139t-142.5 389zM238 508q0 -213 95 -335t261 -122q162 0 258 122t96 335t-96 335t-258 122q-166 0 -261 -122t-95 -335zM250 1196v72h682v-72h-682z" />
<glyph unicode="&#x14e;" horiz-adv-x="1464" d="M76 717q0 346 169 541.5t486 195.5q315 0 486.5 -195.5t171.5 -541.5t-171 -541.5t-487 -195.5q-317 0 -486 194.5t-169 542.5zM266 717q0 -301 118 -481.5t347 -180.5q230 0 348.5 181.5t118.5 480.5t-118.5 480t-348.5 181q-229 0 -347 -181t-118 -480zM412 1841h114 q10 -104 67.5 -141t137.5 -37t136.5 37t66.5 141h115q-14 -127 -99.5 -190.5t-218.5 -63.5q-135 0 -219 63.5t-100 190.5z" />
<glyph unicode="&#x14f;" horiz-adv-x="1187" d="M53 508q0 250 142.5 390t398.5 140q254 0 396.5 -140t142.5 -390t-142.5 -389t-396.5 -139q-256 0 -398.5 139t-142.5 389zM238 508q0 -213 95 -335t261 -122q162 0 258 122t96 335t-96 335t-258 122q-166 0 -261 -122t-95 -335zM274 1432h115q10 -104 67.5 -141.5 t137.5 -37.5t136 37t67 142h114q-14 -127 -99 -190.5t-218 -63.5q-135 0 -219 63.5t-101 190.5z" />
<glyph unicode="&#x150;" horiz-adv-x="1464" d="M76 717q0 346 169 541.5t486 195.5q315 0 486.5 -195.5t171.5 -541.5t-171 -541.5t-487 -195.5q-317 0 -486 194.5t-169 542.5zM266 717q0 -301 118 -481.5t347 -180.5q230 0 348.5 181.5t118.5 480.5t-118.5 480t-348.5 181q-229 0 -347 -181t-118 -480zM430 1655 l234 217q49 49 92 49q31 0 48 -17.5t17 -39.5q0 -47 -67 -86l-291 -170zM836 1655l233 217q14 16 39 32.5t53 16.5q31 0 48.5 -17.5t17.5 -39.5q0 -47 -68 -86l-291 -170z" />
<glyph unicode="&#x151;" horiz-adv-x="1187" d="M53 508q0 250 142.5 390t398.5 140q254 0 396.5 -140t142.5 -390t-142.5 -389t-396.5 -139q-256 0 -398.5 139t-142.5 389zM238 508q0 -213 95 -335t261 -122q162 0 258 122t96 335t-96 335t-258 122q-166 0 -261 -122t-95 -335zM293 1241l233 217q49 49 92 49 q31 0 48.5 -17t17.5 -40q0 -47 -68 -86l-290 -170zM698 1241l234 217q14 16 38.5 32.5t53.5 16.5q31 0 48.5 -17t17.5 -40q0 -47 -68 -86l-291 -170z" />
<glyph unicode="&#x152;" horiz-adv-x="2052" d="M76 717q0 213 69.5 379t211 262t348.5 96q211 0 344 -117v97h878v-299h-45q-16 29 -33.5 104.5t-21.5 118.5h-588v-586h428q12 111 37 170h33v-414h-33q-25 63 -37 170h-428v-626h594q4 45 30.5 118.5t47.5 104.5h43l-29 -295h-876v90q-68 -57 -151 -83.5t-193 -26.5 q-207 0 -348.5 95t-211 261t-69.5 381zM268 717q0 -301 118 -481.5t345 -180.5q199 0 318 150v1020q-53 70 -136.5 111.5t-181.5 41.5q-227 0 -345 -181t-118 -480z" />
<glyph unicode="&#x153;" horiz-adv-x="1873" d="M53 508q0 248 141.5 389t387.5 141q119 0 216 -43t160 -121q66 80 167.5 122t230.5 42q152 0 254 -65.5t151 -175t49 -242.5v-47h-790q2 -127 47 -231.5t134 -166t218 -61.5q84 0 173 27.5t153 73.5l18 -54q-59 -49 -161.5 -82.5t-225.5 -33.5q-129 0 -233.5 43 t-173.5 122q-141 -166 -387 -165q-246 0 -387.5 140t-141.5 388zM240 508q0 -215 93 -336t257 -121q102 0 182 48t127 137q-61 117 -61 272q0 166 57 278q-49 86 -128 132.5t-177 46.5q-164 0 -257 -122t-93 -335zM1022 580h625q-4 158 -73 271.5t-216 113.5 q-154 0 -238 -108.5t-98 -276.5z" />
<glyph unicode="&#x154;" horiz-adv-x="1368" d="M82 0v25q37 12 84 22t82 14v1309q-86 12 -162 39v25h674q233 0 336.5 -106.5t103.5 -299.5q0 -172 -89 -278.5t-261 -128.5l317 -560q105 -18 150 -36v-25h-299l-336 614h-244v-553q80 -12 166 -38v-23h-522zM438 688h269q158 0 231.5 90t73.5 252t-74 245t-231 83h-269 v-670zM489 1657l234 217q47 47 92 47q31 0 47.5 -16.5t16.5 -38.5q0 -47 -66 -88l-291 -168z" />
<glyph unicode="&#x155;" horiz-adv-x="851" d="M41 0v23q70 27 164 38v889q-90 16 -142 37v14l306 35l16 -176h8q33 74 102.5 126t151.5 52q100 0 170 -45l-35 -96q-51 39 -114 39q-84 0 -156 -56.5t-123 -142.5v-676q90 -14 164 -38v-23h-512zM213 1243l233 217q47 47 93 47q31 0 47 -16t16 -39q0 -47 -65 -88 l-291 -168z" />
<glyph unicode="&#x156;" horiz-adv-x="1368" d="M82 0v25q37 12 84 22t82 14v1309q-86 12 -162 39v25h674q233 0 336.5 -106.5t103.5 -299.5q0 -172 -89 -278.5t-261 -128.5l317 -560q105 -18 150 -36v-25h-299l-336 614h-244v-553q80 -12 166 -38v-23h-522zM438 688h269q158 0 231.5 90t73.5 252t-74 245t-231 83h-269 v-670zM606 -242q0 47 33 74t78 27q63 0 93 -37t30 -98q0 -86 -42 -184.5t-106 -157.5l-65 51q39 45 66.5 105.5t33.5 121.5q-6 -2 -20 -2q-43 0 -72 27.5t-29 72.5z" />
<glyph unicode="&#x157;" horiz-adv-x="851" d="M41 0v23q70 27 164 38v889q-90 16 -142 37v14l306 35l16 -176h8q33 74 102.5 126t151.5 52q100 0 170 -45l-35 -96q-51 39 -114 39q-84 0 -156 -56.5t-123 -142.5v-676q90 -14 164 -38v-23h-512zM188 -242q0 47 33 74t78 27q63 0 93 -37t30 -98q0 -86 -42 -184.5 t-106 -157.5l-65 51q39 45 66.5 105.5t33.5 121.5q-6 -2 -20 -2q-43 0 -72 27.5t-29 72.5z" />
<glyph unicode="&#x158;" horiz-adv-x="1368" d="M82 0v25q37 12 84 22t82 14v1309q-86 12 -162 39v25h674q233 0 336.5 -106.5t103.5 -299.5q0 -172 -89 -278.5t-261 -128.5l317 -560q105 -18 150 -36v-25h-299l-336 614h-244v-553q80 -12 166 -38v-23h-522zM360 1862l76 65q61 -45 127 -107.5t105 -115.5h10 q39 53 103.5 115.5t125.5 107.5l78 -65q-66 -43 -145.5 -117t-122.5 -135h-88q-43 59 -123 133t-146 119zM438 688h269q158 0 231.5 90t73.5 252t-74 245t-231 83h-269v-670z" />
<glyph unicode="&#x159;" horiz-adv-x="851" d="M41 0v23q70 27 164 38v889q-90 16 -142 37v14l306 35l16 -176h8q33 74 102.5 126t151.5 52q100 0 170 -45l-35 -96q-51 39 -114 39q-84 0 -156 -56.5t-123 -142.5v-676q90 -14 164 -38v-23h-512zM115 1448l75 65q61 -45 127 -107.5t105 -115.5h10q39 53 103.5 115.5 t126.5 107.5l77 -65q-66 -43 -145.5 -117t-122.5 -135h-88q-43 59 -123 133t-145 119z" />
<glyph unicode="&#x15a;" horiz-adv-x="1116" d="M70 168l20 278h47q18 -51 37 -251q53 -63 137 -101.5t191 -38.5q145 0 247.5 77t102.5 216q0 92 -49 156.5t-121 105.5t-193 95q-131 57 -208.5 102t-132 119.5t-54.5 185.5q0 168 129 255t348 87q281 0 422 -147l-20 -240h-47q-27 76 -39 221q-47 43 -116 66.5 t-153 23.5q-164 0 -247.5 -61.5t-83.5 -177.5q0 -68 42 -118t104.5 -86t170.5 -83q141 -61 228.5 -113.5t149.5 -141.5t62 -220q0 -121 -64.5 -211t-177 -138t-253.5 -48q-160 0 -286 52t-193 136zM406 1657l233 217q47 47 92 47q31 0 47.5 -16.5t16.5 -38.5q0 -47 -66 -88 l-291 -168z" />
<glyph unicode="&#x15b;" horiz-adv-x="950" d="M82 102l14 256h43q10 -29 19.5 -102.5t11.5 -126.5q92 -78 250 -78q127 0 199.5 56.5t72.5 150.5q0 78 -65.5 122t-200.5 91q-113 43 -180.5 77t-115.5 93t-48 150q0 123 108.5 185t272.5 62q231 0 358 -106l-18 -211h-45q-12 31 -19.5 84t-7.5 100q-92 61 -229 62 q-109 0 -174.5 -38t-65.5 -116q0 -55 36 -94t89 -65.5t145 -61.5q113 -43 180.5 -79t116 -95.5t48.5 -147.5q0 -141 -111 -215.5t-281 -74.5q-135 0 -237.5 32.5t-165.5 89.5zM279 1243l233 217q47 47 92 47q31 0 47.5 -16t16.5 -39q0 -47 -66 -88l-291 -168z" />
<glyph unicode="&#x15c;" horiz-adv-x="1116" d="M70 168l20 278h47q18 -51 37 -251q53 -63 137 -101.5t191 -38.5q145 0 247.5 77t102.5 216q0 92 -49 156.5t-121 105.5t-193 95q-131 57 -208.5 102t-132 119.5t-54.5 185.5q0 168 129 255t348 87q281 0 422 -147l-20 -240h-47q-27 76 -39 221q-47 43 -116 66.5 t-153 23.5q-164 0 -247.5 -61.5t-83.5 -177.5q0 -68 42 -118t104.5 -86t170.5 -83q141 -61 228.5 -113.5t149.5 -141.5t62 -220q0 -121 -64.5 -211t-177 -138t-253.5 -48q-160 0 -286 52t-193 136zM244 1663q66 45 145.5 117.5t122.5 132.5h88q43 -59 123 -133t145 -117 l-77 -66q-61 45 -126 107.5t-104 116.5h-10q-39 -53 -104.5 -116t-127.5 -108z" />
<glyph unicode="&#x15d;" horiz-adv-x="950" d="M82 102l14 256h43q10 -29 19.5 -102.5t11.5 -126.5q92 -78 250 -78q127 0 199.5 56.5t72.5 150.5q0 78 -65.5 122t-200.5 91q-113 43 -180.5 77t-115.5 93t-48 150q0 123 108.5 185t272.5 62q231 0 358 -106l-18 -211h-45q-12 31 -19.5 84t-7.5 100q-92 61 -229 62 q-109 0 -174.5 -38t-65.5 -116q0 -55 36 -94t89 -65.5t145 -61.5q113 -43 180.5 -79t116 -95.5t48.5 -147.5q0 -141 -111 -215.5t-281 -74.5q-135 0 -237.5 32.5t-165.5 89.5zM162 1249q66 45 145.5 118t122.5 132h88q43 -59 123 -133t145 -117l-77 -65q-61 45 -126 107.5 t-104 115.5h-10q-39 -53 -104.5 -115.5t-126.5 -107.5z" />
<glyph unicode="&#x15e;" horiz-adv-x="1116" d="M70 168l20 278h47q18 -51 37 -251q53 -63 137 -101.5t191 -38.5q145 0 247.5 77t102.5 216q0 92 -49 156.5t-121 105.5t-193 95q-131 57 -208.5 102t-132 119.5t-54.5 185.5q0 168 129 255t348 87q281 0 422 -147l-20 -240h-47q-27 76 -39 221q-47 43 -116 66.5 t-153 23.5q-164 0 -247.5 -61.5t-83.5 -177.5q0 -68 42 -118t104.5 -86t170.5 -83q141 -61 228.5 -113.5t149.5 -141.5t62 -220q0 -170 -122.5 -275.5t-319.5 -119.5l-53 -115q104 0 160.5 -34t56.5 -103q0 -86 -68.5 -132.5t-177.5 -46.5q-98 0 -172 37l33 60 q59 -25 129 -25t112 26.5t42 80.5q0 39 -36 57t-85 18q-23 0 -51 -4l-46 58l62 121q-145 8 -261 59t-177 129z" />
<glyph unicode="&#x15f;" horiz-adv-x="950" d="M82 102l14 256h43q10 -29 19.5 -102.5t11.5 -126.5q92 -78 250 -78q127 0 199.5 56.5t72.5 150.5q0 78 -65.5 122t-200.5 91q-113 43 -180.5 77t-115.5 93t-48 150q0 123 108.5 185t272.5 62q231 0 358 -106l-18 -211h-45q-12 31 -19.5 84t-7.5 100q-92 61 -229 62 q-109 0 -174.5 -38t-65.5 -116q0 -55 36 -94t89 -65.5t145 -61.5q113 -43 180.5 -79t116 -95.5t48.5 -147.5q0 -133 -99.5 -207.5t-257.5 -82.5l-53 -113q104 0 160.5 -34t56.5 -103q0 -86 -68.5 -132.5t-177.5 -46.5q-98 0 -172 37l33 60q59 -25 129 -25t112 26.5t42 80.5 q0 39 -36 57t-85 18q-23 0 -51 -4l-45 58l61 123q-221 12 -344 120z" />
<glyph unicode="&#x160;" horiz-adv-x="1116" d="M70 168l20 278h47q18 -51 37 -251q53 -63 137 -101.5t191 -38.5q145 0 247.5 77t102.5 216q0 92 -49 156.5t-121 105.5t-193 95q-131 57 -208.5 102t-132 119.5t-54.5 185.5q0 168 129 255t348 87q281 0 422 -147l-20 -240h-47q-27 76 -39 221q-47 43 -116 66.5 t-153 23.5q-164 0 -247.5 -61.5t-83.5 -177.5q0 -68 42 -118t104.5 -86t170.5 -83q141 -61 228.5 -113.5t149.5 -141.5t62 -220q0 -121 -64.5 -211t-177 -138t-253.5 -48q-160 0 -286 52t-193 136zM244 1862l75 65q61 -45 127 -107.5t105 -115.5h10q39 53 103.5 115.5 t126.5 107.5l77 -65q-66 -43 -145.5 -117t-122.5 -135h-88q-43 59 -123 133t-145 119z" />
<glyph unicode="&#x161;" horiz-adv-x="950" d="M82 102l14 256h43q10 -29 19.5 -102.5t11.5 -126.5q92 -78 250 -78q127 0 199.5 56.5t72.5 150.5q0 78 -65.5 122t-200.5 91q-113 43 -180.5 77t-115.5 93t-48 150q0 123 108.5 185t272.5 62q231 0 358 -106l-18 -211h-45q-12 31 -19.5 84t-7.5 100q-92 61 -229 62 q-109 0 -174.5 -38t-65.5 -116q0 -55 36 -94t89 -65.5t145 -61.5q113 -43 180.5 -79t116 -95.5t48.5 -147.5q0 -141 -111 -215.5t-281 -74.5q-135 0 -237.5 32.5t-165.5 89.5zM162 1448l76 65q61 -45 126.5 -107.5t104.5 -115.5h10q39 53 103.5 115.5t126.5 107.5l77 -65 q-66 -43 -145.5 -117t-122.5 -135h-88q-43 59 -123 133t-145 119z" />
<glyph unicode="&#x162;" horiz-adv-x="1308" d="M82 1112v322h1143v-322h-43q-16 29 -34 114t-22 132h-378v-1297q100 -16 174 -38v-23h-236l-61 -133q10 2 30 2q90 -2 139.5 -40t49.5 -99q0 -86 -68.5 -132.5t-177.5 -46.5q-96 0 -174 37l33 60q59 -25 131 -25q70 0 111.5 26.5t41.5 80.5q0 39 -35.5 57t-87.5 18 q-20 0 -49 -4l-45 58l70 141h-209v25q70 18 174 36v1297h-379q-4 -47 -21.5 -132t-33.5 -114h-43z" />
<glyph unicode="&#x163;" horiz-adv-x="784" d="M33 946v74h178v113q78 33 96 163h88v-276h307v-74h-307v-665q0 -123 48.5 -174.5t138.5 -51.5q59 0 133 25l14 -70q-82 -27 -192 -30l-54 -113q10 2 31 2q90 -2 139 -40t49 -99q0 -86 -68.5 -132.5t-176.5 -46.5q-96 0 -174 37l32 60q59 -25 131 -25q70 0 112 26.5 t42 80.5q0 39 -36 57t-87 18q-20 0 -49 -4l-45 58l61 127q-111 16 -172 88.5t-61 206.5v665h-178z" />
<glyph unicode="&#x164;" horiz-adv-x="1308" d="M82 1112v322h1143v-322h-43q-16 29 -34 114t-22 132h-378v-1297q100 -16 174 -38v-23h-537v25q70 18 174 36v1297h-379q-4 -47 -21.5 -132t-33.5 -114h-43zM338 1862l76 65q61 -45 126.5 -107.5t104.5 -115.5h10q39 53 103.5 115.5t126.5 107.5l78 -65q-66 -43 -146 -117 t-123 -135h-88q-43 59 -123 133t-145 119z" />
<glyph unicode="&#x165;" horiz-adv-x="1103" d="M33 946v74h178v113q78 33 96 163h88v-276h307v-74h-307v-665q0 -123 48.5 -174.5t138.5 -51.5q59 0 133 25l14 -70q-92 -31 -209 -30q-145 0 -227 73.5t-82 227.5v665h-178zM793 1255q0 49 30.5 79t79.5 30q68 0 98.5 -41t30.5 -104q0 -84 -44 -183.5t-107 -158.5l-66 51 q41 45 68.5 105.5t34.5 121.5q-16 -4 -23 -4q-45 0 -73.5 29.5t-28.5 74.5z" />
<glyph unicode="&#x166;" horiz-adv-x="1308" d="M82 1112v322h1143v-322h-43q-16 29 -34 114t-22 132h-378v-625h311v-71h-311v-601q100 -16 174 -38v-23h-537v25q70 18 174 36v601h-303v71h303v625h-379q-4 -47 -21.5 -132t-33.5 -114h-43z" />
<glyph unicode="&#x167;" horiz-adv-x="784" d="M33 946v74h178v113q78 33 96 163h88v-276h307v-74h-307v-328h271v-71h-271v-266q0 -123 48.5 -174.5t138.5 -51.5q59 0 133 25l14 -70q-92 -31 -209 -30q-145 0 -227 73.5t-82 227.5v266h-154v71h154v328h-178z" />
<glyph unicode="&#x168;" horiz-adv-x="1576" d="M78 1409v25h520v-27q-72 -25 -166 -37v-954q0 -360 410 -361q180 0 289.5 85t109.5 276v956q-84 8 -168 37v25h426v-25q-94 -31 -168 -41v-932q0 -457 -536 -456q-551 -1 -551 456v934q-94 14 -166 39zM438 1610q15 104 67 154.5t134 50.5q43 0 83 -16.5t93 -47.5 q39 -25 67.5 -37t55.5 -12q47 0 83 29.5t50 93.5h66q-14 -100 -64.5 -156.5t-138.5 -56.5q-35 0 -69 14t-97 47q-45 27 -75.5 40t-57.5 13q-47 0 -82 -31.5t-47 -84.5h-68z" />
<glyph unicode="&#x169;" horiz-adv-x="1296" d="M45 987v14l328 35v-751q0 -123 58 -178.5t159 -55.5q76 0 169 39t163 100v760q-86 16 -142 37v14l326 35v-973q59 -7 143 -32v-17l-327 -32v133q-76 -57 -175.5 -96t-207.5 -39q-162 0 -256.5 76.5t-94.5 207.5v686q-90 16 -143 37zM297 1196q14 104 66.5 154.5 t134.5 50.5q43 0 83 -16.5t93 -47.5q39 -25 67.5 -37t55.5 -12q47 0 82.5 30t50.5 93h65q-14 -100 -64 -156.5t-138 -56.5q-35 0 -69 14.5t-97 47.5q-45 27 -76 40t-57 13q-48 0 -82.5 -32t-46.5 -85h-68z" />
<glyph unicode="&#x16a;" horiz-adv-x="1576" d="M78 1409v25h520v-27q-72 -25 -166 -37v-954q0 -360 410 -361q180 0 289.5 85t109.5 276v956q-84 8 -168 37v25h426v-25q-94 -31 -168 -41v-932q0 -457 -536 -456q-551 -1 -551 456v934q-94 14 -166 39zM444 1610v71h682v-71h-682z" />
<glyph unicode="&#x16b;" horiz-adv-x="1296" d="M45 987v14l328 35v-751q0 -123 58 -178.5t159 -55.5q76 0 169 39t163 100v760q-86 16 -142 37v14l326 35v-973q59 -7 143 -32v-17l-327 -32v133q-76 -57 -175.5 -96t-207.5 -39q-162 0 -256.5 76.5t-94.5 207.5v686q-90 16 -143 37zM305 1196v72h682v-72h-682z" />
<glyph unicode="&#x16c;" horiz-adv-x="1576" d="M78 1409v25h520v-27q-72 -25 -166 -37v-954q0 -360 410 -361q180 0 289.5 85t109.5 276v956q-84 8 -168 37v25h426v-25q-94 -31 -168 -41v-932q0 -457 -536 -456q-551 -1 -551 456v934q-94 14 -166 39zM479 1841h115q10 -104 67.5 -141t137.5 -37t136 37t66 141h115 q-14 -127 -99 -190.5t-218 -63.5q-135 0 -219 63.5t-101 190.5z" />
<glyph unicode="&#x16d;" horiz-adv-x="1296" d="M45 987v14l328 35v-751q0 -123 58 -178.5t159 -55.5q76 0 169 39t163 100v760q-86 16 -142 37v14l326 35v-973q59 -7 143 -32v-17l-327 -32v133q-76 -57 -175.5 -96t-207.5 -39q-162 0 -256.5 76.5t-94.5 207.5v686q-90 16 -143 37zM328 1432h114q10 -104 67.5 -141.5 t137.5 -37.5t136.5 37t66.5 142h115q-14 -127 -99.5 -190.5t-218.5 -63.5q-135 0 -219 63.5t-100 190.5z" />
<glyph unicode="&#x16e;" horiz-adv-x="1576" d="M78 1409v25h520v-27q-72 -25 -166 -37v-954q0 -360 410 -361q180 0 289.5 85t109.5 276v956q-84 8 -168 37v25h426v-25q-94 -31 -168 -41v-932q0 -457 -536 -456q-551 -1 -551 456v934q-94 14 -166 39zM598 1759q0 82 53.5 132.5t136.5 50.5q84 0 136.5 -50.5 t52.5 -132.5q0 -80 -52.5 -129t-136.5 -49q-83 0 -136.5 49t-53.5 129zM670 1759q0 -51 33.5 -81.5t84.5 -30.5q52 0 83.5 30.5t31.5 81.5t-31.5 83t-83.5 32q-51 0 -84.5 -32t-33.5 -83z" />
<glyph unicode="&#x16f;" horiz-adv-x="1296" d="M45 987v14l328 35v-751q0 -123 58 -178.5t159 -55.5q76 0 169 39t163 100v760q-86 16 -142 37v14l326 35v-973q59 -7 143 -32v-17l-327 -32v133q-76 -57 -175.5 -96t-207.5 -39q-162 0 -256.5 76.5t-94.5 207.5v686q-90 16 -143 37zM457 1346q0 82 53 132t137 50 t136.5 -50.5t52.5 -131.5q0 -80 -52.5 -129.5t-136.5 -49.5t-137 49.5t-53 129.5zM528 1346q0 -51 34 -82t85 -31t83 30.5t32 82.5q0 51 -32 82.5t-83 31.5t-85 -31.5t-34 -82.5z" />
<glyph unicode="&#x170;" horiz-adv-x="1576" d="M78 1409v25h520v-27q-72 -25 -166 -37v-954q0 -360 410 -361q180 0 289.5 85t109.5 276v956q-84 8 -168 37v25h426v-25q-94 -31 -168 -41v-932q0 -457 -536 -456q-551 -1 -551 456v934q-94 14 -166 39zM430 1655l234 217q49 49 92 49q31 0 48 -17.5t17 -39.5 q0 -47 -67 -86l-291 -170zM836 1655l233 217q14 16 39 32.5t53 16.5q31 0 48.5 -17.5t17.5 -39.5q0 -47 -68 -86l-291 -170z" />
<glyph unicode="&#x171;" horiz-adv-x="1296" d="M45 987v14l328 35v-751q0 -123 58 -178.5t159 -55.5q76 0 169 39t163 100v760q-86 16 -142 37v14l326 35v-973q59 -7 143 -32v-17l-327 -32v133q-76 -57 -175.5 -96t-207.5 -39q-162 0 -256.5 76.5t-94.5 207.5v686q-90 16 -143 37zM272 1241l234 217q49 49 92 49 q31 0 48.5 -17t17.5 -40q0 -47 -68 -86l-291 -170zM678 1241l233 217q14 16 39 32.5t54 16.5q31 0 48 -17t17 -40q0 -47 -68 -86l-290 -170z" />
<glyph unicode="&#x172;" horiz-adv-x="1576" d="M78 1409v25h520v-27q-72 -25 -166 -37v-954q0 -360 410 -361q180 0 289.5 85t109.5 276v956q-84 8 -168 37v25h426v-25q-94 -31 -168 -41v-932q0 -371 -350 -440q-53 -33 -88 -83t-35 -101t36 -78t91 -27t111 29v-84q-76 -35 -172 -35q-98 0 -153.5 48t-55.5 116 q0 59 33.5 112.5t95.5 86.5h-49q-551 0 -551 456v934q-94 14 -166 39z" />
<glyph unicode="&#x173;" horiz-adv-x="1296" d="M45 987v14l328 35v-751q0 -123 58 -178.5t159 -55.5q76 0 169 39t163 100v760q-86 16 -142 37v14l326 35v-973q59 -8 143 -32v-17l-41 -4q-53 -33 -89 -84t-36 -102t36 -78t91 -27q56 0 111 29v-84q-76 -35 -172 -35q-98 0 -153.5 48.5t-55.5 115.5q0 59 37 114.5 t100 90.5l-155 -16v133q-76 -57 -175.5 -96t-207.5 -39q-162 0 -256.5 76.5t-94.5 207.5v686q-90 16 -143 37z" />
<glyph unicode="&#x174;" horiz-adv-x="2076" d="M35 1409v25h508v-27q-70 -29 -168 -39l278 -1139l359 1135h92l401 -1206l320 1218q-57 10 -133 31v27h348v-23q-63 -29 -121 -37l-365 -1384h-161l-369 1108l-348 -1108h-133l-350 1376q-70 12 -158 43zM752 1663q66 45 145.5 117.5t122.5 132.5h88q43 -59 123 -133 t145 -117l-78 -66q-61 45 -125.5 107.5t-103.5 116.5h-10q-39 -53 -104.5 -116t-127.5 -108z" />
<glyph unicode="&#x175;" horiz-adv-x="1617" d="M16 995v25h478v-27q-70 -25 -156 -35l197 -755l249 715h109l256 -752l207 792q-84 14 -156 39v23h399v-23q-51 -20 -139 -34l-262 -963h-133l-256 750l-262 -750h-129l-262 963q-8 2 -57.5 10t-82.5 22zM530 1249q66 45 146 118t123 132h88q43 -59 123 -133t145 -117 l-78 -65q-61 45 -125.5 107.5t-103.5 115.5h-10q-39 -53 -104.5 -115.5t-127.5 -107.5z" />
<glyph unicode="&#x176;" horiz-adv-x="1454" d="M35 1407v27h514v-29q-88 -31 -174 -39l395 -666l420 672q-59 12 -131 37v25h358v-29q-47 -20 -112 -31l-478 -758v-555q84 -12 168 -38v-23h-522v23q94 31 166 38v557l-446 748q-80 12 -158 41zM418 1663q66 45 145.5 117.5t122.5 132.5h88q43 -59 123 -133t145 -117 l-77 -66q-61 45 -126 107.5t-104 116.5h-10q-39 -53 -104.5 -116t-126.5 -108z" />
<glyph unicode="&#x177;" horiz-adv-x="1155" d="M10 997v23h475v-25q-49 -18 -161 -34l288 -762l283 766q-82 6 -150 30v25h400v-23q-51 -18 -141 -34l-396 -1057q-41 -111 -76.5 -172.5t-93 -94t-151.5 -32.5q-98 0 -189 37l29 90q90 -29 158 -29q61 0 98 20.5t67.5 70.5t67.5 149l23 61l-394 959q-90 10 -137 32z M297 1249q66 45 145.5 118t122.5 132h88q43 -59 123 -133t146 -117l-78 -65q-61 45 -126 107.5t-104 115.5h-10q-39 -53 -104.5 -115.5t-126.5 -107.5z" />
<glyph unicode="&#x178;" horiz-adv-x="1454" d="M35 1407v27h514v-29q-88 -31 -174 -39l395 -666l420 672q-59 12 -131 37v25h358v-29q-47 -20 -112 -31l-478 -758v-555q84 -12 168 -38v-23h-522v23q94 31 166 38v557l-446 748q-80 12 -158 41zM442 1700q0 43 25 69.5t65 26.5q41 0 67 -26.5t26 -69.5q0 -41 -26 -66.5 t-67 -25.5q-38 0 -64 25.5t-26 66.5zM893 1700q0 43 24.5 69.5t65.5 26.5t66.5 -26.5t25.5 -69.5q0 -41 -25.5 -66.5t-66.5 -25.5t-65.5 25.5t-24.5 66.5z" />
<glyph unicode="&#x179;" horiz-adv-x="1181" d="M53 0v47l854 1311h-676q-4 -43 -21 -119t-34 -104h-45v299h981v-35l-858 -1327h729q4 45 30.5 118.5t47.5 104.5h45l-31 -295h-1022zM487 1657l234 217q47 47 92 47q31 0 47.5 -16.5t16.5 -38.5q0 -47 -66 -88l-291 -168z" />
<glyph unicode="&#x17a;" horiz-adv-x="962" d="M45 0v43l682 903h-516q-18 -131 -41 -184h-53v258h801v-57l-676 -893h538q6 37 25.5 96t34.5 88h55l-21 -254h-829zM369 1243l233 217q47 47 92 47q31 0 47.5 -16t16.5 -39q0 -47 -66 -88l-291 -168z" />
<glyph unicode="&#x17b;" horiz-adv-x="1181" d="M53 0v47l854 1311h-676q-4 -43 -21 -119t-34 -104h-45v299h981v-35l-858 -1327h729q4 45 30.5 118.5t47.5 104.5h45l-31 -295h-1022zM508 1700q0 43 24.5 69.5t67.5 26.5q41 0 65.5 -26.5t24.5 -69.5q0 -41 -25.5 -66.5t-64.5 -25.5q-43 0 -67.5 25.5t-24.5 66.5z" />
<glyph unicode="&#x17c;" horiz-adv-x="962" d="M45 0v43l682 903h-516q-18 -131 -41 -184h-53v258h801v-57l-676 -893h538q6 37 25.5 96t34.5 88h55l-21 -254h-829zM410 1286q0 43 24.5 69.5t67.5 26.5q41 0 65.5 -26.5t24.5 -69.5q0 -41 -25.5 -66.5t-64.5 -25.5q-43 0 -67.5 25.5t-24.5 66.5z" />
<glyph unicode="&#x17d;" horiz-adv-x="1181" d="M53 0v47l854 1311h-676q-4 -43 -21 -119t-34 -104h-45v299h981v-35l-858 -1327h729q4 45 30.5 118.5t47.5 104.5h45l-31 -295h-1022zM293 1862l76 65q61 -45 126.5 -107.5t104.5 -115.5h10q39 53 103.5 115.5t126.5 107.5l78 -65q-66 -43 -146 -117t-123 -135h-88 q-43 59 -123 133t-145 119z" />
<glyph unicode="&#x17e;" horiz-adv-x="962" d="M45 0v43l682 903h-516q-18 -131 -41 -184h-53v258h801v-57l-676 -893h538q6 37 25.5 96t34.5 88h55l-21 -254h-829zM182 1448l76 65q61 -45 127 -107.5t104 -115.5h11q39 53 103.5 115.5t125.5 107.5l78 -65q-66 -43 -145.5 -117t-122.5 -135h-88q-43 59 -123 133 t-146 119z" />
<glyph unicode="&#x18f;" horiz-adv-x="1456" d="M74 637v55h1124q-4 184 -72.5 339t-201.5 248t-320 93q-252 0 -457 -135q-8 20 -12 34.5t-10 31.5q82 63 209 107t301 44q225 0 394 -95t260 -265t91 -389q0 -352 -186 -538.5t-510 -186.5q-205 0 -342 88t-202.5 236.5t-65.5 332.5zM254 614q0 -143 43 -271t138 -210 t239 -82q244 0 376 160t146 403h-942z" />
<glyph unicode="&#x192;" horiz-adv-x="1026" d="M39 -272q74 -18 127 -19q80 0 122 47t42 135v1000h-211v80h211v133q0 350 377 350q70 0 141.5 -22.5t126.5 -63.5l-29 -59q-92 70 -207 69q-102 0 -166.5 -65.5t-64.5 -206.5v-135h270v-80h-266v-1006q0 -117 -65.5 -193.5t-208.5 -76.5q-43 0 -99.5 9t-99.5 24v80z" />
<glyph unicode="&#x1a0;" horiz-adv-x="1511" d="M76 717q0 346 169 541.5t486 195.5q205 0 350.5 -85t223.5 -243q45 39 78.5 89.5t39.5 101.5q-14 -10 -39 -10q-43 0 -68.5 26.5t-25.5 71.5q0 43 26.5 72.5t84.5 29.5q125 0 125 -143q0 -70 -48 -152t-145 -153q55 -147 56 -342q0 -346 -171 -541.5t-487 -195.5 q-317 0 -486 194.5t-169 542.5zM266 717q0 -301 118 -481.5t347 -180.5q230 0 348.5 181.5t118.5 480.5t-118.5 480t-348.5 181q-229 0 -347 -181t-118 -480z" />
<glyph unicode="&#x1a1;" horiz-adv-x="1284" d="M53 508q0 250 142.5 390t398.5 140q190 0 319 -79.5t183 -227.5q41 39 70.5 85t35.5 95q-14 -10 -39 -10q-43 0 -68.5 26.5t-25.5 71.5q0 43 26.5 73t84.5 30q125 0 125 -144q0 -69 -46.5 -149t-140.5 -152q14 -78 15 -149q0 -250 -142.5 -389t-396.5 -139 q-256 0 -398.5 139t-142.5 389zM238 508q0 -213 95 -335t261 -122q162 0 258 122t96 335t-96 335t-258 122q-166 0 -261 -122t-95 -335z" />
<glyph unicode="&#x1af;" horiz-adv-x="1576" d="M78 1409v25h520v-27q-72 -25 -166 -37v-954q0 -360 410 -361q180 0 289.5 85t109.5 276v956q-84 8 -168 37v25h277q82 0 142 25.5t69 76.5q-14 -10 -39 -10q-41 0 -69 27.5t-28 72.5q0 41 30 72t85 31q123 0 123 -136q0 -92 -90 -152.5t-242 -72.5v-932q0 -457 -536 -456 q-551 -1 -551 456v934q-94 14 -166 39z" />
<glyph unicode="&#x1b0;" horiz-adv-x="1349" d="M45 987v14l328 35v-751q0 -123 58 -178.5t159 -55.5q78 0 171 40t161 102v757q-86 16 -142 37v19h258q111 0 167.5 29.5t70.5 90.5q-12 -10 -39 -10q-43 0 -68.5 26.5t-25.5 71.5q0 43 26.5 74t83.5 31q127 0 127 -139q0 -84 -76.5 -154t-197.5 -92v-871q59 -8 143 -32 v-17l-327 -32v137q-74 -59 -174.5 -99t-208.5 -40q-162 0 -256.5 76.5t-94.5 207.5v686q-90 16 -143 37z" />
<glyph unicode="&#x1cd;" horiz-adv-x="1480" d="M14 0v27q35 12 82 23t78 16l502 1376h129l502 -1379q89 -13 159 -38v-25h-512v25q72 27 166 36l-110 312h-615l-112 -312q90 -10 170 -38v-23h-439zM420 444h565l-280 793zM428 1862l76 65q61 -45 126.5 -107.5t104.5 -115.5h10q39 53 103.5 115.5t126.5 107.5l78 -65 q-66 -43 -146 -117t-123 -135h-88q-43 59 -122.5 133t-145.5 119z" />
<glyph unicode="&#x1ce;" horiz-adv-x="1101" d="M61 274q0 158 113 228.5t287 70.5h303v164q0 117 -69.5 172.5t-196.5 55.5q-80 0 -165 -23.5t-157 -60.5l-14 63q82 43 185.5 68.5t211.5 25.5q182 0 286.5 -78.5t104.5 -209.5v-672q72 -14 142 -33v-16l-328 -33v149q-84 -90 -179.5 -127.5t-187.5 -37.5 q-164 0 -250 75.5t-86 218.5zM233 1448l78 65q61 -45 126 -107.5t104 -115.5h10q41 55 105.5 117.5t123.5 105.5l78 -65q-66 -45 -145.5 -119t-122.5 -133h-88q-43 59 -123 133t-146 119zM244 276q0 -111 60.5 -166t158.5 -55q84 0 171 52.5t130 121.5v271h-258 q-131 0 -196.5 -58.5t-65.5 -165.5z" />
<glyph unicode="&#x1cf;" horiz-adv-x="698" d="M35 1862l76 65q61 -45 126.5 -107.5t104.5 -115.5h10q39 53 103.5 115.5t126.5 107.5l77 -65q-66 -43 -145.5 -117t-122.5 -135h-88q-43 59 -123 133t-145 119zM88 0v25q88 27 166 36v1309q-86 12 -166 39v25h522v-27q-70 -23 -168 -37v-1309q84 -12 168 -38v-23h-522z " />
<glyph unicode="&#x1d0;" horiz-adv-x="661" d="M16 1448l78 65q61 -45 126 -107.5t104 -115.5h10q41 55 105.5 117.5t123.5 105.5l78 -65q-66 -45 -145.5 -119t-122.5 -133h-88q-43 59 -123 133t-146 119zM74 0v23q39 14 94 25t70 13v887q-82 14 -144 35v16l328 33v-971q94 -16 164 -38v-23h-512z" />
<glyph unicode="&#x1d1;" horiz-adv-x="1464" d="M76 717q0 346 169 541.5t486 195.5q315 0 486.5 -195.5t171.5 -541.5t-171 -541.5t-487 -195.5q-317 0 -486 194.5t-169 542.5zM266 717q0 -301 118 -481.5t347 -180.5q230 0 348.5 181.5t118.5 480.5t-118.5 480t-348.5 181q-229 0 -347 -181t-118 -480zM420 1862l76 65 q61 -45 126.5 -107.5t104.5 -115.5h10q39 53 103.5 115.5t126.5 107.5l77 -65q-66 -43 -145.5 -117t-122.5 -135h-88q-43 59 -123 133t-145 119z" />
<glyph unicode="&#x1d2;" horiz-adv-x="1187" d="M53 508q0 250 142.5 390t398.5 140q254 0 396.5 -140t142.5 -390t-142.5 -389t-396.5 -139q-256 0 -398.5 139t-142.5 389zM238 508q0 -213 95 -335t261 -122q162 0 258 122t96 335t-96 335t-258 122q-166 0 -261 -122t-95 -335zM281 1448l77 65q61 -47 127 -109.5 t103 -113.5h10q39 53 103.5 115.5t125.5 107.5l78 -65q-66 -45 -145.5 -119t-122.5 -133h-88q-43 59 -123 133t-145 119z" />
<glyph unicode="&#x1d3;" horiz-adv-x="1576" d="M78 1409v25h520v-27q-72 -25 -166 -37v-954q0 -360 410 -361q180 0 289.5 85t109.5 276v956q-84 8 -168 37v25h426v-25q-94 -31 -168 -41v-932q0 -457 -536 -456q-551 -1 -551 456v934q-94 14 -166 39zM471 1862l76 65q61 -45 126.5 -107.5t104.5 -115.5h10 q39 53 103.5 115.5t126.5 107.5l78 -65q-66 -43 -146 -117t-123 -135h-88q-43 59 -122.5 133t-145.5 119z" />
<glyph unicode="&#x1d4;" horiz-adv-x="1296" d="M45 987v14l328 35v-751q0 -123 58 -178.5t159 -55.5q76 0 169 39t163 100v760q-86 16 -142 37v14l326 35v-973q59 -7 143 -32v-17l-327 -32v133q-76 -57 -175.5 -96t-207.5 -39q-162 0 -256.5 76.5t-94.5 207.5v686q-90 16 -143 37zM334 1448l78 65q61 -45 125.5 -107.5 t103.5 -115.5h10q41 55 105.5 117.5t124.5 105.5l77 -65q-66 -45 -145.5 -119t-122.5 -133h-88q-43 59 -123 133t-145 119z" />
<glyph unicode="&#x1d5;" horiz-adv-x="1576" d="M78 1409v25h520v-27q-72 -25 -166 -37v-954q0 -360 410 -361q180 0 289.5 85t109.5 276v956q-84 8 -168 37v25h426v-25q-94 -31 -168 -41v-932q0 -457 -536 -456q-551 -1 -551 456v934q-94 14 -166 39zM487 1929v72h658v-72h-658zM502 1700q0 41 24.5 67.5t65.5 26.5 t66.5 -26.5t25.5 -67.5t-25.5 -66.5t-66.5 -25.5t-65.5 25.5t-24.5 66.5zM950 1700q0 41 25.5 67.5t66.5 26.5t67 -26.5t26 -67.5t-26 -66.5t-67 -25.5t-66.5 25.5t-25.5 66.5z" />
<glyph unicode="&#x1d6;" horiz-adv-x="1296" d="M45 987v14l328 35v-751q0 -123 58 -178.5t159 -55.5q76 0 169 39t163 100v760q-86 16 -142 37v14l326 35v-973q59 -7 143 -32v-17l-327 -32v133q-76 -57 -175.5 -96t-207.5 -39q-162 0 -256.5 76.5t-94.5 207.5v686q-90 16 -143 37zM315 1503v72h658v-72h-658zM326 1288 q0 41 25.5 67.5t66.5 26.5t66.5 -26.5t25.5 -67.5t-25.5 -66.5t-66.5 -25.5t-66.5 25.5t-25.5 66.5zM778 1288q0 41 24.5 67.5t65.5 26.5t67 -26.5t26 -67.5t-26 -66.5t-67 -25.5t-65.5 25.5t-24.5 66.5z" />
<glyph unicode="&#x1d7;" horiz-adv-x="1576" d="M78 1409v25h520v-27q-72 -25 -166 -37v-954q0 -360 410 -361q180 0 289.5 85t109.5 276v956q-84 8 -168 37v25h426v-25q-94 -31 -168 -41v-932q0 -457 -536 -456q-551 -1 -551 456v934q-94 14 -166 39zM502 1700q0 41 24.5 67.5t65.5 26.5t66.5 -26.5t25.5 -67.5 t-25.5 -66.5t-66.5 -25.5t-65.5 25.5t-24.5 66.5zM764 1892l209 197q23 23 42 37t48 14t47 -18.5t18 -42.5q0 -47 -67 -84l-264 -150zM950 1700q0 41 25.5 67.5t66.5 26.5t67 -26.5t26 -67.5t-26 -66.5t-67 -25.5t-66.5 25.5t-25.5 66.5z" />
<glyph unicode="&#x1d8;" horiz-adv-x="1296" d="M45 987v14l328 35v-751q0 -123 58 -178.5t159 -55.5q76 0 169 39t163 100v760q-86 16 -142 37v14l326 35v-973q59 -7 143 -32v-17l-327 -32v133q-76 -57 -175.5 -96t-207.5 -39q-162 0 -256.5 76.5t-94.5 207.5v686q-90 16 -143 37zM317 1286q0 41 26 67.5t67 26.5 q39 0 64.5 -26.5t25.5 -67.5t-24.5 -66.5t-65.5 -25.5t-67 25.5t-26 66.5zM584 1434l198 190q47 47 92 47q29 0 46.5 -17.5t17.5 -39.5q0 -49 -66 -86l-256 -142zM768 1286q0 41 25.5 67.5t64.5 26.5q43 0 68.5 -26.5t25.5 -67.5t-25.5 -66.5t-68.5 -25.5q-41 0 -65.5 25.5 t-24.5 66.5z" />
<glyph unicode="&#x1d9;" horiz-adv-x="1576" d="M78 1409v25h520v-27q-72 -25 -166 -37v-954q0 -360 410 -361q180 0 289.5 85t109.5 276v956q-84 8 -168 37v25h426v-25q-94 -31 -168 -41v-932q0 -457 -536 -456q-551 -1 -551 456v934q-94 14 -166 39zM506 1700q0 41 25.5 67.5t66.5 26.5q39 0 64.5 -26.5t25.5 -67.5 t-25.5 -67.5t-64.5 -26.5q-41 0 -66.5 26.5t-25.5 67.5zM516 2075l78 63q63 -47 124.5 -103.5t100.5 -107.5h8q39 51 100.5 107.5t125.5 103.5l77 -63q-72 -49 -146.5 -117t-117.5 -127h-86q-43 59 -117.5 126.5t-146.5 117.5zM956 1700q0 41 26 67.5t65 26.5 q43 0 68.5 -26.5t25.5 -67.5t-25.5 -67.5t-68.5 -26.5q-39 0 -65 26.5t-26 67.5z" />
<glyph unicode="&#x1da;" horiz-adv-x="1296" d="M45 987v14l328 35v-751q0 -123 58 -178.5t159 -55.5q76 0 169 39t163 100v760q-86 16 -142 37v14l326 35v-973q59 -7 143 -32v-17l-327 -32v133q-76 -57 -175.5 -96t-207.5 -39q-162 0 -256.5 76.5t-94.5 207.5v686q-90 16 -143 37zM330 1288q0 41 25.5 67.5t66.5 26.5 q39 0 64.5 -26.5t25.5 -67.5t-25.5 -67.5t-64.5 -26.5q-41 0 -66.5 26.5t-25.5 67.5zM340 1663l78 63q63 -47 124.5 -103t100.5 -107h8q39 51 100.5 107t125.5 103l77 -63q-72 -49 -146.5 -116.5t-117.5 -127.5h-86q-43 60 -117.5 127.5t-146.5 116.5zM780 1288 q0 41 25.5 67.5t64.5 26.5q43 0 69 -26.5t26 -67.5t-26 -67.5t-69 -26.5q-39 0 -64.5 26.5t-25.5 67.5z" />
<glyph unicode="&#x1db;" horiz-adv-x="1576" d="M78 1409v25h520v-27q-72 -25 -166 -37v-954q0 -360 410 -361q180 0 289.5 85t109.5 276v956q-84 8 -168 37v25h426v-25q-94 -31 -168 -41v-932q0 -457 -536 -456q-551 -1 -551 456v934q-94 14 -166 39zM500 1700q0 41 25.5 67.5t66.5 26.5q39 0 64.5 -26.5t25.5 -67.5 t-24.5 -66.5t-65.5 -25.5t-66.5 25.5t-25.5 66.5zM549 2028q0 23 17.5 40t45.5 17q45 0 93 -47l198 -191l-33 -47l-256 142q-66 37 -65 86zM950 1700q0 41 25.5 67.5t64.5 26.5q43 0 69 -26.5t26 -67.5t-26 -66.5t-69 -25.5q-41 0 -65.5 25.5t-24.5 66.5z" />
<glyph unicode="&#x1dc;" horiz-adv-x="1296" d="M45 987v14l328 35v-751q0 -123 58 -178.5t159 -55.5q76 0 169 39t163 100v760q-86 16 -142 37v14l326 35v-973q59 -7 143 -32v-17l-327 -32v133q-76 -57 -175.5 -96t-207.5 -39q-162 0 -256.5 76.5t-94.5 207.5v686q-90 16 -143 37zM324 1288q0 41 25.5 67.5t66.5 26.5 q39 0 64.5 -26.5t25.5 -67.5t-24.5 -66.5t-65.5 -25.5t-66.5 25.5t-25.5 66.5zM373 1616q0 23 17.5 40t45.5 17q45 0 92 -47l199 -190l-33 -47l-256 141q-65 37 -65 86zM774 1288q0 41 25.5 67.5t64.5 26.5q43 0 68.5 -26.5t25.5 -67.5t-25.5 -66.5t-68.5 -25.5 q-41 0 -65.5 25.5t-24.5 66.5z" />
<glyph unicode="&#x1e6;" horiz-adv-x="1374" d="M76 717q0 227 80 393t232.5 255t361.5 89q147 0 280 -39t203 -102l-19 -250h-49q-27 80 -39 229q-45 37 -143 61.5t-184 24.5q-258 0 -394.5 -181t-136.5 -480q0 -305 123 -483.5t379 -178.5q55 0 130 14.5t126 43.5v520q-96 18 -162 37v24h488v-20q-66 -35 -144 -45 v-529q-76 -57 -206 -88.5t-265 -31.5q-321 0 -491 194.5t-170 542.5zM446 1884l76 66q61 -45 127 -107.5t105 -116.5h10q39 53 103.5 116t125.5 108l78 -66q-66 -43 -145.5 -116.5t-122.5 -135.5h-88q-43 60 -123 133.5t-146 118.5z" />
<glyph unicode="&#x1e7;" horiz-adv-x="1077" d="M76 -57q0 113 108 180q-43 23 -63.5 58.5t-20.5 76.5q0 111 117 180q-68 41 -102.5 108.5t-34.5 153.5q0 160 115.5 249t318.5 89t315 -88q29 31 48.5 68t19.5 59h139q-10 -49 -46 -100t-97 -92q55 -74 55 -185q0 -160 -115.5 -247.5t-318.5 -87.5q-111 0 -203 28 q-66 -41 -65 -88q0 -39 36.5 -52t116.5 -13h346q129 0 200 -70t71 -190q0 -293 -508 -293q-201 0 -316.5 66.5t-115.5 189.5zM223 -45q0 -92 81 -141.5t218 -49.5q150 0 238 46.5t88 142.5q0 66 -43 101.5t-129 35.5h-338q-23 0 -64 4q-51 -55 -51 -139zM223 1448l76 65 q61 -45 127 -107.5t104 -115.5h11q39 53 103.5 115.5t125.5 107.5l78 -65q-66 -43 -145.5 -117t-122.5 -135h-88q-43 59 -123 133t-146 119zM262 700q0 -115 64.5 -189.5t187.5 -74.5t187.5 75t64.5 189q0 115 -64.5 190t-187.5 75t-187.5 -75t-64.5 -190z" />
<glyph unicode="&#x1fa;" horiz-adv-x="1480" d="M14 0v27q35 12 82 23t78 16l502 1376h129l502 -1379q89 -13 159 -38v-25h-512v25q72 27 166 36l-110 312h-615l-112 -312q90 -10 170 -38v-23h-439zM420 444h565l-280 793zM549 1688q0 82 53 132t137 50t136.5 -50.5t52.5 -131.5q0 -80 -52.5 -129.5t-136.5 -49.5 t-137 49.5t-53 129.5zM618 1970l234 217q47 47 92 47q31 0 47.5 -16t16.5 -39q0 -47 -66 -88l-291 -168zM621 1688q0 -51 33.5 -82t84.5 -31t83 30.5t32 82.5q0 51 -31.5 82.5t-83.5 31.5q-51 0 -84.5 -31.5t-33.5 -82.5z" />
<glyph unicode="&#x1fb;" horiz-adv-x="1101" d="M61 274q0 158 113 228.5t287 70.5h303v164q0 117 -69.5 172.5t-196.5 55.5q-80 0 -165 -23.5t-157 -60.5l-14 63q82 43 185.5 68.5t211.5 25.5q182 0 286.5 -78.5t104.5 -209.5v-672q72 -14 142 -33v-16l-328 -33v149q-84 -90 -179.5 -127.5t-187.5 -37.5 q-164 0 -250 75.5t-86 218.5zM244 276q0 -111 60.5 -166t158.5 -55q84 0 171 52.5t130 121.5v271h-258q-131 0 -196.5 -58.5t-65.5 -165.5zM360 1319q0 82 53.5 132t137.5 50t136 -50t52 -132q0 -80 -52 -129t-136 -49t-137.5 49t-53.5 129zM428 1604l234 217q47 47 92 47 q31 0 47 -16.5t16 -39.5q0 -47 -65 -88l-291 -168zM432 1319q0 -51 34 -82t85 -31t83 31t32 82t-32 83t-83 32t-85 -32t-34 -83z" />
<glyph unicode="&#x1fc;" horiz-adv-x="2043" d="M14 0v25q70 25 152 41l797 1314q-10 2 -43 9.5t-58 19.5v25h1055v-299h-45q-16 29 -33.5 104.5t-21.5 118.5h-588v-586h428q4 35 14 86t23 84h35v-414h-35q-12 37 -22.5 86.5t-14.5 83.5h-428v-626h594q4 43 30.5 117.5t47.5 105.5h45l-31 -295h-1045v25q86 27 170 36 v312h-571l-184 -312q100 -10 176 -38v-23h-447zM514 444h526v887h-10zM1266 1657l233 217q47 47 92 47q31 0 47.5 -16.5t16.5 -38.5q0 -47 -66 -88l-291 -168z" />
<glyph unicode="&#x1fd;" horiz-adv-x="1785" d="M61 274q0 158 119 234t293 76h279q2 27 10 80q8 55 10 73q0 113 -74.5 170.5t-199.5 57.5q-80 0 -165 -23.5t-157 -60.5l-14 63q82 43 185.5 68.5t211.5 25.5q121 0 206 -42t124 -113q66 74 164 114.5t219 40.5q152 0 253 -64.5t150 -173t49 -241.5v-49h-792 q4 -215 111.5 -338t299.5 -123q82 0 166 27.5t148 73.5l18 -54q-61 -51 -157.5 -83.5t-219.5 -32.5q-139 0 -250.5 52t-183.5 150q-88 -111 -212 -156.5t-244 -45.5q-156 0 -251.5 74.5t-95.5 219.5zM244 276q0 -113 63.5 -167t163.5 -54q94 0 195.5 52.5t154.5 128.5 q-68 119 -71 274h-232q-131 0 -202.5 -63.5t-71.5 -170.5zM813 1243l234 217q47 47 92 47q31 0 47 -16t16 -39q0 -47 -65 -88l-291 -168zM934 586h627q-2 154 -73 268.5t-218 114.5q-158 0 -242 -108.5t-94 -274.5z" />
<glyph unicode="&#x1fe;" horiz-adv-x="1464" d="M76 717q0 346 169 541.5t486 195.5q225 0 383 -104l86 125l66 -45l-90 -130q104 -96 158.5 -243.5t54.5 -339.5q0 -346 -171 -541.5t-487 -195.5q-238 0 -399 114l-109 -155l-61 45l112 159q-98 96 -148 241.5t-50 332.5zM266 717q0 -275 96 -447l678 975 q-117 133 -309 133q-229 0 -347 -181t-118 -480zM408 203q119 -147 323 -148q230 0 348.5 181.5t118.5 480.5q0 289 -106 463zM565 1657l234 217q47 47 92 47q31 0 47 -16.5t16 -38.5q0 -47 -65 -88l-291 -168z" />
<glyph unicode="&#x1ff;" horiz-adv-x="1187" d="M53 508q0 250 142.5 390t398.5 140q172 0 293 -65l76 102l67 -49l-74 -98q86 -68 131.5 -174.5t45.5 -245.5q0 -250 -142.5 -389t-396.5 -139q-176 0 -299 67l-86 -115l-64 48l82 110q-84 68 -129 174.5t-45 243.5zM238 508q-1 -186 73 -305l506 678q-88 84 -223 84 q-166 0 -261 -122t-95 -335zM365 139q92 -88 229 -88q162 0 258 122t96 335q0 186 -76 307zM401 1243l234 217q47 47 92 47q31 0 47.5 -16t16.5 -39q0 -47 -66 -88l-291 -168z" />
<glyph unicode="&#x218;" horiz-adv-x="1116" d="M70 168l20 278h47q18 -51 37 -251q53 -63 137 -101.5t191 -38.5q145 0 247.5 77t102.5 216q0 92 -49 156.5t-121 105.5t-193 95q-131 57 -208.5 102t-132 119.5t-54.5 185.5q0 168 129 255t348 87q281 0 422 -147l-20 -240h-47q-27 76 -39 221q-47 43 -116 66.5 t-153 23.5q-164 0 -247.5 -61.5t-83.5 -177.5q0 -68 42 -118t104.5 -86t170.5 -83q141 -61 228.5 -113.5t149.5 -141.5t62 -220q0 -121 -64.5 -211t-177 -138t-253.5 -48q-160 0 -286 52t-193 136zM438 -219q0 47 33 77.5t80 30.5q63 0 96 -39.5t33 -101.5q0 -84 -44 -184.5 t-108 -161.5l-67 51q39 47 67.5 107.5t34.5 122.5q-8 -4 -22 -5q-41 0 -72 30t-31 73z" />
<glyph unicode="&#x219;" horiz-adv-x="950" d="M82 102l14 256h43q10 -29 19.5 -102.5t11.5 -126.5q92 -78 250 -78q127 0 199.5 56.5t72.5 150.5q0 78 -65.5 122t-200.5 91q-113 43 -180.5 77t-115.5 93t-48 150q0 123 108.5 185t272.5 62q231 0 358 -106l-18 -211h-45q-12 31 -19.5 84t-7.5 100q-92 61 -229 62 q-109 0 -174.5 -38t-65.5 -116q0 -55 36 -94t89 -65.5t145 -61.5q113 -43 180.5 -79t116 -95.5t48.5 -147.5q0 -141 -111 -215.5t-281 -74.5q-135 0 -237.5 32.5t-165.5 89.5zM352 -219q0 47 33 77.5t80 30.5q63 0 96 -39.5t33 -101.5q0 -84 -44 -184.5t-108 -161.5l-67 51 q39 47 67.5 107.5t34.5 122.5q-8 -4 -22 -5q-41 0 -72 30t-31 73z" />
<glyph unicode="&#x21a;" horiz-adv-x="1308" d="M82 1112v322h1143v-322h-43q-16 29 -34 114t-22 132h-378v-1297q100 -16 174 -38v-23h-537v25q70 18 174 36v1297h-379q-4 -47 -21.5 -132t-33.5 -114h-43zM537 -242q0 47 32.5 74t77.5 27q63 0 93 -37t30 -98q0 -86 -42 -184.5t-105 -157.5l-66 51q39 45 66.5 105.5 t33.5 121.5q-6 -2 -20 -2q-43 0 -71.5 27.5t-28.5 72.5z" />
<glyph unicode="&#x21b;" horiz-adv-x="784" d="M33 946v74h178v113q78 33 96 163h88v-276h307v-74h-307v-665q0 -123 48.5 -174.5t138.5 -51.5q59 0 133 25l14 -70q-92 -30 -209 -30q-145 0 -227 73.5t-82 227.5v665h-178zM338 -242q0 47 32.5 74t78.5 27q63 0 92.5 -37t29.5 -98q0 -86 -42 -184.5t-105 -157.5l-66 51 q39 45 67 105.5t34 121.5q-6 -2 -21 -2q-43 0 -71.5 27.5t-28.5 72.5z" />
<glyph unicode="&#x237;" horiz-adv-x="632" d="M-37 -213l12 68q57 -29 131 -29q80 0 121 47t41 137v938q-88 16 -141 35v16l328 33v-1014q0 -137 -78 -203.5t-207 -66.5q-117 0 -207 39z" />
<glyph unicode="&#x251;" horiz-adv-x="1204" d="M53 528q0 162 75 278t198 174t264 58q133 0 256 -46t205 -140v-774q82 -14 143 -33v-16l-313 -35q-10 55 -15 156q-47 -82 -147.5 -126t-204.5 -44q-461 -1 -461 548zM236 524q0 -215 76.5 -344t246.5 -129q96 0 166 42t105.5 111.5t35.5 149.5v473q-104 137 -278 138 q-174 0 -263 -114t-89 -327z" />
<glyph unicode="&#x259;" horiz-adv-x="1093" d="M57 463v47h789q-2 201 -103.5 330t-293.5 129q-82 0 -171.5 -28t-154.5 -73l-19 54q59 49 163 82.5t227 33.5q161 0 283 -66.5t188.5 -186t66.5 -275.5q0 -252 -138 -391t-380 -139q-154 0 -256 65.5t-151.5 175t-49.5 242.5zM221 438q0 -92 29 -180t93.5 -146.5 t166.5 -58.5q154 0 236.5 108.5t97.5 276.5h-623z" />
<glyph unicode="&#x2bb;" horiz-adv-x="499" d="M129 1116q0 84 46 183.5t112 158.5l67 -49q-92 -111 -102 -225q16 4 22 4q45 0 76 -29t31 -74q0 -51 -32 -84.5t-85 -33.5q-67 0 -101 43t-34 106z" />
<glyph unicode="&#x2bc;" horiz-adv-x="499" d="M129 1333q0 51 32 86t85 35q68 0 101.5 -44t33.5 -105q0 -84 -46 -183.5t-112 -160.5l-67 51q41 47 68.5 105.5t33.5 119.5q-10 -4 -29 -4q-41 0 -70.5 28.5t-29.5 71.5z" />
<glyph unicode="&#x2be;" d="M-129 1210v58q68 2 100.5 38.5t32.5 88.5q0 53 -32.5 90t-100.5 39v59q123 0 179 -51t56 -137q0 -82 -60 -133.5t-175 -51.5z" />
<glyph unicode="&#x2bf;" d="M-109 1395q0 86 57.5 137t180.5 51v-59q-70 -2 -101.5 -39t-31.5 -90q0 -51 32.5 -88t100.5 -39v-58q-115 0 -176.5 51.5t-61.5 133.5z" />
<glyph unicode="&#x2c6;" horiz-adv-x="1019" d="M223 1262q66 45 146 118.5t123 132.5h86q45 -61 123.5 -134.5t144.5 -116.5l-78 -66q-59 45 -124.5 107.5t-104.5 115.5h-9q-41 -53 -105.5 -115.5t-125.5 -107.5z" />
<glyph unicode="&#x2c7;" horiz-adv-x="1019" d="M197 1448l77 65q61 -45 126 -107.5t104 -115.5h10q41 55 105.5 117.5t123.5 105.5l78 -65q-66 -45 -145.5 -119t-122.5 -133h-88q-43 59 -123 133t-145 119z" />
<glyph unicode="&#x2c8;" d="M-78 1198v295h154v-295h-154z" />
<glyph unicode="&#x2c9;" horiz-adv-x="1019" d="M156 1251v74h708v-74h-708z" />
<glyph unicode="&#x2ca;" d="M-188 1243l235 217q14 16 39 31.5t53 15.5q29 0 46.5 -16t17.5 -39q0 -47 -68 -88l-291 -168z" />
<glyph unicode="&#x2cb;" d="M-188 1452q0 23 17 39t48 16q49 0 90 -47l236 -217l-33 -47l-291 168q-68 41 -67 88z" />
<glyph unicode="&#x2cc;" d="M-78 -90h154v-297h-154v297z" />
<glyph unicode="&#x2d8;" horiz-adv-x="1019" d="M207 1444h115q12 -104 68 -141t136 -37t136.5 36.5t66.5 141.5h115q-14 -127 -99.5 -190.5t-218.5 -63.5q-135 0 -219 63.5t-100 190.5z" />
<glyph unicode="&#x2d9;" horiz-adv-x="1019" d="M418 1288q0 41 25.5 67.5t66.5 26.5t66.5 -26.5t25.5 -67.5t-25.5 -66.5t-66.5 -25.5t-66.5 25.5t-25.5 66.5z" />
<glyph unicode="&#x2da;" horiz-adv-x="1019" d="M319 1419q0 82 53.5 131t137.5 49t136 -49t52 -131q0 -80 -52 -130t-136 -50t-137.5 50t-53.5 130zM393 1419q0 -51 33 -81.5t84 -30.5t84 30.5t33 81.5t-33 83t-84 32t-84 -32t-33 -83z" />
<glyph unicode="&#x2db;" horiz-adv-x="1019" d="M326 -219q0 70 46 129t124 90h100q-53 -33 -90 -84t-37 -104q0 -51 36 -78t91 -27t111 29v-84q-76 -35 -172 -35q-101 0 -155 47t-54 117z" />
<glyph unicode="&#x2dc;" horiz-adv-x="1019" d="M164 1196q14 104 66.5 154.5t134.5 50.5q43 0 82.5 -16.5t93.5 -47.5q39 -25 67.5 -37t55.5 -12q47 0 82.5 30t50.5 93h65q-14 -100 -64 -156.5t-139 -56.5q-35 0 -68.5 14.5t-96.5 47.5q-45 27 -76 40t-58 13q-47 0 -81.5 -32t-47.5 -85h-67z" />
<glyph unicode="&#x2dd;" horiz-adv-x="1019" d="M176 1245l234 217q2 2 26.5 29t63.5 27q29 0 47 -20.5t18 -45.5q0 -49 -65 -86l-291 -168zM502 1245l235 217q2 2 26.5 29t63.5 27q29 0 47.5 -20.5t18.5 -45.5q0 -49 -68 -86l-290 -168z" />
<glyph unicode="&#x300;" d="M-846 1452q0 23 17.5 39t48.5 16q45 0 90 -45l237 -219l-32 -47l-291 168q-70 41 -70 88z" />
<glyph unicode="&#x301;" d="M-766 1243l234 217q47 47 92 47q31 0 47 -16t16 -39q0 -47 -65 -88l-291 -168z" />
<glyph unicode="&#x302;" d="M-313 1249q66 45 145.5 118t122.5 132h88q43 -59 123 -133t145 -117l-78 -65q-61 45 -125.5 107.5t-103.5 115.5h-10q-39 -53 -104.5 -115.5t-127.5 -107.5z" />
<glyph unicode="&#x303;" d="M-956 1196q14 104 66 154.5t134 50.5q43 0 83 -16.5t93 -47.5q39 -25 68 -37t55 -12q47 0 83 30t50 93h66q-14 -100 -64.5 -156.5t-138.5 -56.5q-35 0 -68.5 14.5t-97.5 47.5q-45 27 -75.5 40t-57.5 13q-47 0 -82 -32t-47 -85h-67z" />
<glyph unicode="&#x304;" d="M-342 1196v72h682v-72h-682z" />
<glyph unicode="&#x306;" d="M-319 1432h114q10 -104 67.5 -141.5t137.5 -37.5t136.5 37t66.5 142h114q-14 -127 -99 -190.5t-218 -63.5q-135 0 -219 63.5t-100 190.5z" />
<glyph unicode="&#x307;" d="M-92 1286q0 43 24.5 69.5t67.5 26.5q41 0 65.5 -26.5t24.5 -69.5q0 -41 -25.5 -66.5t-64.5 -25.5q-43 0 -67.5 25.5t-24.5 66.5z" />
<glyph unicode="&#x308;" d="M-317 1286q0 43 24.5 69.5t65.5 26.5t66.5 -26.5t25.5 -69.5q0 -41 -25.5 -66.5t-66.5 -25.5q-39 0 -64.5 25.5t-25.5 66.5zM133 1286q0 43 24.5 69.5t65.5 26.5t66.5 -26.5t25.5 -69.5q0 -41 -25.5 -66.5t-66.5 -25.5t-65.5 25.5t-24.5 66.5z" />
<glyph unicode="&#x309;" d="M-680 1604q70 35 158 34q84 0 142 -41t58 -120q0 -70 -45 -109t-127 -47l-20 -131h-80l-10 184h49q61 0 95 29t34 78q0 41 -31.5 67.5t-89.5 26.5q-59 0 -119 -33z" />
<glyph unicode="&#x30a;" d="M-190 1346q0 82 53 132t137 50t136 -50.5t52 -131.5q0 -80 -52 -129.5t-136 -49.5t-137 49.5t-53 129.5zM-119 1346q0 -51 34 -82t85 -31t83 30.5t32 82.5q0 51 -32 82.5t-83 31.5t-85 -31.5t-34 -82.5z" />
<glyph unicode="&#x30b;" d="M-365 1241l234 217q49 49 92 49q31 0 48.5 -17t17.5 -40q0 -47 -68 -86l-291 -170zM41 1241l233 217q14 16 39 32.5t54 16.5q31 0 48 -17t17 -40q0 -47 -67 -86l-291 -170z" />
<glyph unicode="&#x30c;" d="M-313 1448l75 65q61 -45 127 -107.5t105 -115.5h10q39 53 103.5 115.5t125.5 107.5l78 -65q-66 -43 -145.5 -117t-122.5 -135h-88q-43 59 -123 133t-145 119z" />
<glyph unicode="&#x31b;" d="M-135 690q53 37 101 96.5t57 124.5q-16 -10 -39 -10q-43 0 -69 26.5t-26 71.5q0 43 27 73t84 30q125 0 125 -144q0 -76 -54.5 -161.5t-164.5 -161.5z" />
<glyph unicode="&#x323;" d="M-684 -217q0 43 25.5 69.5t66.5 26.5t66.5 -26.5t25.5 -69.5q0 -41 -25.5 -66.5t-66.5 -25.5t-66.5 25.5t-25.5 66.5z" />
<glyph unicode="&#x324;" d="M-317 -231q0 41 25.5 67.5t64.5 26.5q41 0 66.5 -26.5t25.5 -67.5t-25.5 -68t-66.5 -27q-39 0 -64.5 27t-25.5 68zM133 -231q0 41 24.5 67.5t65.5 26.5t66.5 -26.5t25.5 -67.5t-25.5 -68t-66.5 -27t-65.5 27t-24.5 68z" />
<glyph unicode="&#x326;" d="M-584 -242q0 47 33 74t78 27q63 0 93 -37t30 -98q0 -86 -42 -184.5t-106 -157.5l-65 51q39 45 66.5 105.5t33.5 121.5q-8 -2 -20 -2q-43 0 -72 27.5t-29 72.5z" />
<glyph unicode="&#x327;" d="M-188 -412l32 60q57 -25 129 -25q70 0 112 26.5t42 80.5q0 39 -36 57t-85 18q-23 0 -51 -4l-45 58l84 166h92l-74 -158q104 0 160.5 -34t56.5 -103q0 -86 -68.5 -132.5t-176.5 -46.5q-98 0 -172 37z" />
<glyph unicode="&#x328;" d="M-207 -219q0 70 46 129t124 90h103q-55 -33 -92 -84t-37 -104q0 -51 35.5 -78t90.5 -27t111 29v-84q-76 -35 -172 -35q-98 0 -153.5 48t-55.5 116z" />
<glyph unicode="&#x32e;" d="M-319 -102h114q18 -180 205 -181q80 0 136.5 38t66.5 143h114q-14 -127 -99 -190.5t-218 -63.5q-135 0 -219 63.5t-100 190.5z" />
<glyph unicode="&#x331;" d="M-342 -141h682v-72h-682v72z" />
<glyph unicode="&#x394;" horiz-adv-x="1294" d="M59 0v78l523 1370h137l514 -1370v-78h-1174zM197 141h847l-423 1116z" />
<glyph unicode="&#x3a9;" horiz-adv-x="1529" d="M113 274h32q16 -27 37 -81t29 -95h311v176q-113 10 -205 86t-146 197t-54 258q0 166 73.5 295t219 202.5t354.5 73.5t354.5 -73.5t219 -202.5t73.5 -295q0 -137 -54 -258t-147.5 -196.5t-203.5 -86.5v-176h311q8 39 28.5 94.5t36.5 81.5h35l-24 -274h-492v336 q98 14 172 81.5t113 170t39 217.5q0 141 -57.5 250.5t-162 170t-241.5 60.5t-240.5 -60.5t-161 -170t-57.5 -250.5q0 -115 39 -217.5t111.5 -170t171.5 -81.5v-336h-492z" />
<glyph unicode="&#x3bc;" horiz-adv-x="1296" d="M45 987v14l328 35v-737q0 -125 61.5 -186.5t159.5 -61.5q74 0 166 39t162 100v760q-86 16 -142 37v14l326 35v-973q59 -8 143 -32v-17l-327 -32v133q-170 -135 -361 -135q-59 0 -111.5 20t-80.5 61v-442h-181v1331q-90 16 -143 37z" />
<glyph unicode="&#x3c0;" horiz-adv-x="1376" d="M31 946v74h1296v-74h-248v-743q0 -135 117 -135q59 0 100 30v-73q-43 -25 -85 -35t-101 -10q-109 0 -162 57t-53 156v753h-438v-946h-183v946h-243z" />
<glyph unicode="&#xe01;" horiz-adv-x="1173" d="M88 850v24q61 123 190.5 202t301.5 79q201 0 332.5 -96t131.5 -279v-780h-184v813q0 113 -75.5 187.5t-221.5 74.5q-104 0 -189 -47t-138 -137q61 -20 128.5 -61.5t110.5 -86.5v-16q-92 -53 -127 -115.5t-35 -173.5v-438h-186v440q0 201 182 297q-84 68 -221 113z" />
<glyph unicode="&#xe02;" horiz-adv-x="1173" d="M31 842q0 82 41 153.5t116.5 115.5t180.5 44q154 0 238.5 -73.5t84.5 -200.5q0 -74 -28.5 -133.5t-85.5 -139.5q-49 -74 -73 -119t-24 -100v-178q0 -78 57.5 -115t137.5 -37q78 0 131 36t53 116v922h187v-895q0 -133 -114 -195.5t-261 -62.5q-148 0 -261.5 62t-113.5 196 v135q0 80 36 140t109 146q61 70 92 119t31 105q0 92 -53 144t-156 52q-76 0 -131 -45t-73 -110q12 12 35.5 20t50.5 8q80 0 120.5 -49t40.5 -125q0 -74 -48 -125t-128 -51q-94 0 -143 67.5t-49 172.5zM127 778q0 -53 27.5 -84.5t66.5 -31.5q41 0 68.5 31.5t27.5 84.5 q0 55 -27.5 85t-68.5 30t-67.5 -29.5t-26.5 -85.5z" />
<glyph unicode="&#xe03;" horiz-adv-x="1189" d="M45 831q0 98 58.5 192.5t160.5 131.5l125 -121l139 121q94 -31 140.5 -101.5t46.5 -166.5q0 -74 -30 -134.5t-89 -142.5q-51 -72 -75.5 -119t-24.5 -102v-178q0 -78 57 -115t137 -37q78 0 132.5 36t54.5 116v922h184v-895q0 -133 -113.5 -195.5t-261.5 -62.5 q-147 0 -261 62t-114 196v135q0 80 39 143.5t111 140.5q63 72 95 122t32 110q0 133 -76 174l-123 -111l-119 111q-39 -20 -69.5 -66.5t-38.5 -89.5q29 35 92 35q78 0 119 -49t41 -125q0 -74 -48.5 -125t-127.5 -51q-94 0 -143.5 67.5t-49.5 171.5zM141 768q0 -53 28 -85 t69 -32q38 0 67 32t29 85t-29 84t-67 31q-41 0 -69 -30t-28 -85z" />
<glyph unicode="&#xe04;" horiz-adv-x="1249" d="M127 0v719q0 205 120 320.5t378 115.5q256 0 376.5 -115.5t120.5 -320.5v-719h-186v764q0 141 -78 226t-233 85q-156 0 -235 -85t-79 -226v-496q41 135 129 342q39 86 85 128t114 42q80 0 122 -50t42 -128q0 -74 -43 -125t-119 -51q-47 0 -86 26.5t-53 86.5 q-39 -68 -101.5 -249t-91.5 -290h-182zM549 604q0 -55 26.5 -85t67.5 -30t68.5 30t27.5 85q0 53 -27.5 82t-68.5 29t-67.5 -29t-26.5 -82z" />
<glyph unicode="&#xe05;" horiz-adv-x="1251" d="M127 0v719q0 193 61.5 293t227.5 143l211 -162l209 162q166 -43 227 -143.5t61 -292.5v-719h-186v743q0 129 -26.5 195t-108.5 104l-176 -133l-181 133q-82 -39 -108.5 -104.5t-26.5 -194.5v-475q16 61 86 215l43 97q39 86 85 128t114 42q80 0 122 -50.5t42 -128.5 q0 -74 -43 -125t-119 -51q-47 0 -86 27t-53 86q-41 -72 -104.5 -242t-88.5 -266h-182zM549 573q0 -55 26.5 -84.5t67.5 -29.5t68.5 29.5t27.5 84.5q0 53 -27.5 82t-68.5 29t-67.5 -28.5t-26.5 -82.5z" />
<glyph unicode="&#xe06;" horiz-adv-x="1218" d="M41 831q0 98 58.5 192.5t160.5 131.5l123 -121l141 121q94 -31 140.5 -101.5t46.5 -166.5q0 -76 -29 -132.5t-84 -133.5q-47 -61 -70.5 -108.5t-23.5 -100.5v-27q121 -35 227.5 -100.5t173.5 -134.5v983h185v-1133h-168q-45 82 -163 173t-255 136v-116 q0 -100 -55.5 -156.5t-167.5 -56.5q-106 0 -155.5 63t-49.5 154q0 100 65.5 158.5t169.5 58.5h8q2 76 39 133t103 125q61 66 91 111.5t30 105.5q0 131 -74 174l-125 -111l-119 111q-37 -20 -66.5 -66.5t-37.5 -89.5q29 35 90 35q78 0 119 -49t41 -125q0 -74 -48.5 -125 t-128.5 -51q-94 0 -143 67.5t-49 171.5zM137 768q0 -53 28 -85t66 -32q41 0 69 32t28 85q0 55 -28 85t-69 30t-67.5 -30t-26.5 -85zM152 193q0 -61 22.5 -100.5t65.5 -39.5q39 0 59 32t20 89v168h-2q-78 0 -121.5 -39t-43.5 -110z" />
<glyph unicode="&#xe07;" horiz-adv-x="942" d="M16 586l127 88q100 -104 187.5 -268t128.5 -300h67q51 0 77 41t26 93v573q-25 -14 -70 -14q-66 0 -115 48t-49 128q0 84 52.5 132t142.5 48q223 0 223 -221v-674q0 -111 -67.5 -185.5t-213.5 -74.5h-208q-39 156 -129.5 326t-178.5 260zM483 973q0 -55 29 -86t72 -31 t70.5 31t27.5 86t-27.5 87t-70.5 32t-72 -32t-29 -87z" />
<glyph unicode="&#xe08;" horiz-adv-x="1089" d="M51 864q45 133 166 212t293 79q195 0 323 -92t128 -275v-788h-191q-14 127 -84 285.5t-137 234.5q-10 -76 -54 -105.5t-94 -29.5q-76 0 -122 50t-46 126t45.5 128t133.5 52q109 0 205 -139t159 -328v527q0 117 -80 198.5t-223 81.5q-113 0 -205 -56t-137 -161h-80z M305 563q0 -55 27.5 -84.5t68.5 -29.5t69 29.5t28 84.5q0 53 -28 82t-69 29t-68.5 -29t-27.5 -82z" />
<glyph unicode="&#xe09;" horiz-adv-x="1216" d="M53 541q0 80 52.5 126t140.5 46q213 0 213 -209v-361q33 37 79 65t128 66q80 39 127 68t78.5 72t31.5 104v283q0 76 -40 139.5t-116.5 102t-181.5 38.5q-123 0 -224 -54t-148 -163h-84q45 133 177 212t316 79q207 0 346 -92t139 -275v-206q0 -53 -8 -95q-14 -76 -82 -129 q68 -16 106 -65t38 -121q0 -88 -54.5 -140t-152.5 -52q-96 0 -149.5 52t-53.5 140q0 16 4 41q-127 -57 -194.5 -102t-85.5 -111h-181v385q-31 -10 -67 -10q-61 0 -107.5 46t-46.5 120zM139 541q0 -53 28 -84t69 -31q40 0 67 30.5t27 84.5q0 53 -27 82.5t-67 29.5 q-41 0 -69 -29.5t-28 -82.5zM834 174q0 -59 28.5 -90t71.5 -31q45 0 73.5 31t28.5 90q0 57 -28.5 89t-73.5 32q-43 0 -71.5 -32t-28.5 -89z" />
<glyph unicode="&#xe0a;" horiz-adv-x="1196" d="M31 842q0 82 41 153.5t116.5 115.5t180.5 44q154 0 238.5 -73.5t84.5 -200.5q0 -74 -28.5 -133.5t-85.5 -139.5q-49 -74 -73 -119t-24 -100v-178q0 -78 62.5 -115t144.5 -37q80 0 138.5 37t58.5 115v446q0 55 -40 92t-85 46v79q47 12 93 53.5t75.5 104t29.5 137.5h170 q0 -137 -64.5 -216t-139.5 -115q61 -23 103 -75t42 -116v-409q0 -133 -117.5 -195.5t-267.5 -62.5q-149 0 -268 62t-119 196v135q0 80 36 140t109 146q61 70 92 119t31 105q0 92 -53 144t-156 52q-76 0 -131 -45t-73 -110q12 12 35.5 20t50.5 8q80 0 120.5 -49t40.5 -125 q0 -74 -48 -125t-128 -51q-94 0 -143 67.5t-49 172.5zM127 778q0 -53 27.5 -84.5t66.5 -31.5q41 0 68.5 31.5t27.5 84.5q0 55 -27.5 85t-68.5 30t-67.5 -29.5t-26.5 -85.5z" />
<glyph unicode="&#xe0b;" horiz-adv-x="1212" d="M45 831q0 98 58.5 192.5t160.5 131.5l125 -121l139 121q94 -31 140.5 -101.5t46.5 -166.5q0 -74 -30 -134.5t-89 -142.5q-51 -72 -75.5 -119t-24.5 -102v-178q0 -78 62.5 -115t143.5 -37q80 0 138.5 37t58.5 115v446q0 55 -40 92t-83 46v79q45 12 91 53.5t76 104 t30 137.5h170q0 -137 -64.5 -216t-138.5 -115q59 -23 101 -75t42 -116v-409q0 -133 -117.5 -195.5t-267.5 -62.5q-149 0 -268 62t-119 196v135q0 80 39 143.5t111 140.5q63 72 95 122t32 110q0 133 -76 174l-123 -111l-119 111q-39 -20 -69.5 -66.5t-38.5 -89.5q29 35 92 35 q78 0 119 -49t41 -125q0 -74 -48.5 -125t-127.5 -51q-94 0 -143.5 67.5t-49.5 171.5zM141 768q0 -53 28 -85t69 -32q38 0 67 32t29 85t-29 84t-67 31q-41 0 -69 -30t-28 -85z" />
<glyph unicode="&#xe0c;" horiz-adv-x="1703" d="M88 850v24q61 125 189.5 203t302.5 78q213 0 341 -95t128 -280v-379q117 -33 202.5 -100.5t139.5 -138.5v971h184v-1133h-168q-59 109 -149.5 201t-208.5 131v-166q0 -88 -53.5 -137t-147.5 -49q-209 0 -209 217q0 90 59.5 153.5t165.5 71.5v391q0 115 -72.5 188.5 t-228.5 73.5q-104 0 -189 -46t-138 -138q61 -20 128.5 -61.5t110.5 -86.5v-16q-92 -55 -127 -111.5t-35 -158.5v-140q27 16 66 17q63 0 110.5 -45t47.5 -131q0 -84 -53.5 -131t-143.5 -47q-111 0 -162 58t-51 161v260q0 184 182 278q-84 68 -221 113zM250 160 q0 -55 27.5 -87t70.5 -32t72 31.5t29 87.5q0 55 -29 85.5t-72 30.5t-70.5 -30.5t-27.5 -85.5zM711 199q0 -63 20.5 -104.5t63.5 -41.5q32 0 50.5 29t18.5 72v200q-72 -8 -112.5 -47t-40.5 -108z" />
<glyph unicode="&#xe0d;" horiz-adv-x="1695" d="M88 850v24q63 131 183 206t294 75q205 0 329 -95t124 -280v-702h239q76 0 100.5 37t24.5 102v916h187v-914q0 -121 -58.5 -170t-203.5 -49h-572v78h96v735q0 115 -67.5 188.5t-214.5 73.5q-209 0 -313 -184q61 -20 128.5 -61.5t110.5 -86.5v-16q-92 -55 -127 -111.5 t-35 -158.5v-140q27 16 66 17q63 0 110.5 -45t47.5 -131q0 -84 -53.5 -131t-143.5 -47q-111 0 -162 58t-51 161v260q0 184 182 278q-84 68 -221 113zM250 160q0 -56 27.5 -87.5t70.5 -31.5t72 31.5t29 87.5q0 55 -29 85.5t-72 30.5t-70.5 -30.5t-27.5 -85.5zM772 -274 q0 77 50 127.5t126 50.5q88 0 137.5 -49.5t49.5 -124.5q0 -53 -30 -98.5t-89 -63.5q29 -14 90 -14q127 0 209 92t106 245h138q-74 -418 -445 -417q-178 0 -260 69.5t-82 182.5zM852 -274q0 -54 27.5 -84.5t72.5 -30.5q47 0 75 29.5t28 85.5q0 55 -28 84.5t-75 29.5 q-45 0 -72.5 -29.5t-27.5 -84.5z" />
<glyph unicode="&#xe0e;" horiz-adv-x="1251" d="M20 158q0 88 52.5 132t130.5 44q31 0 53 -8v114q0 102 29.5 175t124.5 122q-74 57 -234 113v24q59 125 186 203t302 78q200 0 330 -96t130 -279v-1280h-172q-43 121 -184 205q-45 -115 -140.5 -179.5t-211.5 -64.5q-125 0 -200 49.5t-75 139.5q0 94 82 151.5t228 57.5 q123 0 254 -49q8 35 8 90h92q0 -61 -14 -129q96 -51 147 -115v1157q0 113 -73.5 187.5t-217.5 74.5q-104 0 -187 -46t-136 -138q66 -20 138.5 -62.5t112.5 -85.5v-16q-82 -51 -108.5 -111.5t-26.5 -177.5v-239q0 -219 -223 -219q-92 0 -144.5 47t-52.5 131zM111 160 q0 -55 28.5 -87t71.5 -32t70.5 31.5t27.5 87.5q0 55 -27.5 85.5t-70.5 30.5t-71.5 -30.5t-28.5 -85.5zM242 -344q0 -68 49 -98.5t119 -30.5q88 0 164.5 57.5t113.5 159.5q-119 47 -231 47q-90 0 -152.5 -35t-62.5 -100z" />
<glyph unicode="&#xe0f;" horiz-adv-x="1251" d="M20 158q0 88 52.5 132t130.5 44q31 0 53 -8v114q0 102 29.5 175t124.5 122q-74 57 -234 113v24q59 125 186 203t302 78q200 0 330 -96t130 -279v-1280h-170l-133 135l-119 -135h-40q-37 74 -66 113q-45 -63 -111.5 -100t-150.5 -37q-98 0 -159.5 39t-61.5 125 q0 76 63.5 120.5t181.5 44.5q106 0 197 -65q10 41 14 100h93q0 -92 -33 -166q39 -43 61 -90l131 142l117 -117v1204q0 113 -73.5 187.5t-217.5 74.5q-215 0 -323 -184q66 -20 138.5 -62.5t112.5 -85.5v-16q-82 -51 -108.5 -111.5t-26.5 -177.5v-239q0 -219 -223 -219 q-92 0 -144.5 47t-52.5 131zM111 160q0 -55 28.5 -87t71.5 -32t70.5 31.5t27.5 87.5q0 55 -27.5 85.5t-70.5 30.5t-71.5 -30.5t-28.5 -85.5zM205 -362q0 -49 39 -75t94 -26q63 0 114.5 36t82.5 103q-80 66 -183 66q-63 0 -105 -27.5t-42 -76.5z" />
<glyph unicode="&#xe10;" horiz-adv-x="1114" d="M20 -332q0 74 62.5 119t173.5 45q96 0 184 -59q8 39 9 94h86q0 -82 -23 -156q45 -49 72 -104l127 117l153 -130v132q-14 -6 -35 -7q-49 0 -80.5 32t-31.5 77q0 51 35.5 80t97.5 29q63 0 105 -33t42 -97v-278h-155l-131 113l-117 -113h-37q-23 59 -70 123 q-39 -70 -103.5 -109t-152.5 -39q-94 0 -152.5 39t-58.5 125zM80 696v76q0 172 105.5 277.5t314.5 105.5q59 0 182 -25q111 -20 149 -20q39 0 67 10t65 41l53 -80q-80 -68 -162 -67q-57 0 -147 22q-55 14 -99.5 21.5t-99.5 7.5q-106 0 -177 -71.5t-75 -207.5q135 6 291 7 q166 0 257 -19.5t137 -79t46 -178.5v-334q0 -90 -38 -136t-126 -46h-340q-2 123 -12 215t-41 152q-16 -55 -60 -83t-96 -28q-70 0 -115.5 48t-45.5 122t46 124t134 50q162 0 232.5 -140.5t78.5 -381.5h125q41 0 56.5 21.5t15.5 60.5v356q0 76 -16.5 117t-61.5 60.5 t-133 19.5q-96 0 -277.5 -4t-232.5 -13zM113 -338q0 -47 35.5 -71.5t89.5 -24.5q67 0 115 37t73 110q-78 63 -174 64q-61 0 -100 -31t-39 -84zM182 426q0 -55 28 -85t71 -30t70.5 30t27.5 85t-27.5 85t-70.5 30t-71 -30t-28 -85zM772 -170q0 -29 17.5 -47.5t44.5 -18.5 q26 0 43.5 18.5t17.5 47.5t-17.5 47.5t-43.5 18.5q-27 0 -44.5 -18.5t-17.5 -47.5z" />
<glyph unicode="&#xe11;" horiz-adv-x="1325" d="M45 831q0 98 58.5 192.5t160.5 131.5l121 -121l139 121q94 -31 139.5 -101.5t45.5 -166.5q0 -74 -29 -134.5t-86 -142.5q-49 -72 -72.5 -119t-23.5 -102v-199l393 943h133q92 0 135 -50.5t43 -146.5v-936h-184v961q0 41 -10.5 61t-42.5 20h-33l-436 -1042h-185v373 q0 80 38 143.5t108 140.5q63 74 94 123t31 109q0 131 -74 174l-123 -111l-115 111q-39 -20 -69.5 -66.5t-38.5 -89.5q29 35 92 35q78 0 119 -49t41 -125q0 -74 -48.5 -125t-127.5 -51q-94 0 -143.5 67.5t-49.5 171.5zM141 768q0 -53 28 -85t69 -32q38 0 67 32t29 85t-29 84 t-67 31q-41 0 -69 -30t-28 -85z" />
<glyph unicode="&#xe12;" horiz-adv-x="1763" d="M127 0v719q0 129 24.5 212t85 137t173.5 87l208 -158l207 158q113 -33 174.5 -87t86 -137t24.5 -212v-320q117 -31 203 -98.5t137 -138.5v971h184v-1133h-168q-59 109 -148 200t-208 132v-166q0 -88 -54.5 -137t-148.5 -49q-209 0 -209 217q0 90 59.5 153.5t166.5 71.5 v321q0 129 -28 195t-110 104l-168 -133l-172 133q-82 -39 -108.5 -104.5t-26.5 -194.5v-628q72 33 174.5 125t135.5 161q-14 -4 -35 -4q-68 0 -112 52.5t-44 123.5q0 78 43 127.5t119 49.5q82 0 126 -53.5t44 -137.5q0 -143 -127 -286.5t-338 -272.5h-170zM498 573 q0 -55 27.5 -84.5t68.5 -29.5t67.5 29.5t26.5 84.5q0 53 -26.5 82t-67.5 29t-68.5 -28.5t-27.5 -82.5zM770 199q0 -63 20.5 -104.5t63.5 -41.5q33 0 51.5 29t18.5 72v200q-72 -8 -113 -47t-41 -108z" />
<glyph unicode="&#xe13;" horiz-adv-x="1724" d="M88 850v24q61 129 177 205t288 76q203 0 321.5 -93t118.5 -280v-632q33 37 77 63.5t116 60.5q76 37 120 65t74.5 71t30.5 102v621h184v-549q0 -55 -8 -97q-14 -72 -80 -131q68 -14 105 -63t37 -121q0 -88 -53.5 -140t-151.5 -52q-96 0 -149.5 52t-53.5 140q0 25 2 35 q-117 -55 -178 -99.5t-78 -107.5h-178v813q0 117 -63.5 189.5t-208.5 72.5q-98 0 -175 -47t-126 -137q61 -20 128.5 -61.5t110.5 -86.5v-16q-92 -55 -127 -111.5t-35 -158.5v-140q27 16 66 17q63 0 110.5 -45t47.5 -131q0 -84 -53.5 -131t-143.5 -47q-111 0 -162 58t-51 161 v260q0 184 182 278q-84 68 -221 113zM250 160q0 -55 27.5 -87t70.5 -32t72 31.5t29 87.5q0 55 -29 85.5t-72 30.5t-70.5 -30.5t-27.5 -85.5zM1341 174q0 -59 29 -90t74 -31t73.5 31t28.5 90q0 57 -28.5 89t-73.5 32q-16 0 -33 -6l-29 -15q-41 -35 -41 -100z" />
<glyph unicode="&#xe14;" horiz-adv-x="1241" d="M127 0v719q0 205 119 320.5t375 115.5t374.5 -115.5t118.5 -320.5v-719h-186v713q0 174 -70 268t-237 94q-168 0 -238 -92t-70 -264v-606q70 33 186.5 142.5t147.5 176.5q-12 -4 -29 -4q-72 0 -114.5 51t-42.5 125q0 78 44 127t120 49q82 0 125 -53t43 -137 q0 -143 -142.5 -301t-353.5 -289h-170zM528 604q0 -55 28 -85t69 -30t68.5 30t27.5 85q0 53 -27.5 82t-68.5 29t-69 -29t-28 -82z" />
<glyph unicode="&#xe15;" horiz-adv-x="1249" d="M127 0v793q0 141 64.5 234t228.5 128l203 -143l202 143q164 -35 228.5 -128t64.5 -234v-793h-184v743q0 131 -22.5 193.5t-100.5 99.5l-186 -131l-189 131q-78 -37 -100.5 -98t-22.5 -195v-630q74 35 189.5 129t146.5 159q-10 -4 -28 -4q-70 0 -114 51.5t-44 124.5 q0 78 44 127.5t120 49.5q82 0 126 -53.5t44 -137.5q0 -252 -500 -559h-170zM532 573q0 -55 28 -84.5t69 -29.5q39 0 66.5 30.5t27.5 83.5t-27.5 82t-66.5 29q-41 0 -69 -28.5t-28 -82.5z" />
<glyph unicode="&#xe16;" horiz-adv-x="1173" d="M88 850v24q61 123 190.5 202t301.5 79q201 0 332.5 -96t131.5 -279v-780h-184v813q0 111 -76.5 186.5t-220.5 75.5q-104 0 -189 -47t-138 -137q61 -20 128.5 -61.5t110.5 -86.5v-16q-92 -53 -127 -115.5t-35 -173.5v-119q33 14 64 15q63 0 111.5 -45t48.5 -131 q0 -84 -53.5 -131t-143.5 -47q-111 0 -162 58t-51 161v241q0 201 182 297q-84 68 -221 113zM250 160q0 -55 27.5 -87t70.5 -32t72 31.5t29 87.5q0 55 -29 85.5t-72 30.5t-70.5 -30.5t-27.5 -85.5z" />
<glyph unicode="&#xe17;" horiz-adv-x="1249" d="M20 975q0 84 52.5 132t142.5 48q223 0 223 -221v-686l357 885h139q188 0 188 -213v-920h-184v954q0 45 -11.5 66.5t-43.5 21.5h-33l-420 -1042h-176v807q-16 -12 -59 -12q-74 0 -124.5 47t-50.5 133zM109 973q0 -55 28.5 -86t71.5 -31t70.5 31t27.5 86t-27.5 87t-70.5 32 t-71.5 -32t-28.5 -87z" />
<glyph unicode="&#xe18;" horiz-adv-x="1122" d="M51 0v78h113v463h184v-463h303q158 0 158 168v272q0 72 -16.5 113t-61.5 61.5t-133 20.5q-94 0 -270 -4t-228 -13v76q0 172 102.5 277.5t311.5 105.5q55 0 178 -25q111 -20 150 -20q37 0 64.5 10t64.5 41l53 -80q-80 -68 -162 -67q-53 0 -139 22q-111 29 -201 29 q-104 0 -172.5 -71.5t-73.5 -207.5q80 6 320 7q143 0 228 -22.5t128 -82t43 -170.5v-278q0 -121 -58 -180.5t-181 -59.5h-705z" />
<glyph unicode="&#xe19;" horiz-adv-x="1236" d="M20 975q0 84 52.5 132t142.5 48q223 0 223 -221v-784q33 37 81 62.5t143 66.5q129 53 195.5 101t66.5 132v621h186v-615q0 -88 -94 -164q72 -16 108.5 -64t36.5 -118q0 -88 -53 -140t-150 -52q-98 0 -152 52t-54 140q0 29 10 55l-112.5 -50t-150 -86t-67.5 -91h-178v807 q-16 -12 -59 -12q-74 0 -124.5 47t-50.5 133zM109 973q0 -55 28.5 -86t71.5 -31t70.5 31t27.5 86t-27.5 87t-70.5 32t-71.5 -32t-28.5 -87zM856 174q0 -59 28.5 -90t73.5 -31q43 0 71 31t28 90q0 57 -28 89t-71 32q-47 0 -74.5 -35t-27.5 -86z" />
<glyph unicode="&#xe1a;" horiz-adv-x="1243" d="M20 975q0 84 52.5 132t142.5 48q223 0 223 -221v-856h348q82 0 113 45t31 123v887h186v-885q0 -131 -61.5 -189.5t-192.5 -58.5h-721v78h113v729q-16 -12 -59 -12q-74 0 -124.5 47t-50.5 133zM109 973q0 -55 28.5 -86t71.5 -31t70.5 31t27.5 86t-27.5 87t-70.5 32 t-71.5 -32t-28.5 -87z" />
<glyph unicode="&#xe1b;" horiz-adv-x="1243" d="M20 975q0 84 52.5 132t142.5 48q223 0 223 -221v-856h348q82 0 113 45t31 123v1321h186v-1319q0 -131 -61.5 -189.5t-192.5 -58.5h-721v78h113v729q-16 -12 -59 -12q-74 0 -124.5 47t-50.5 133zM109 973q0 -55 28.5 -86t71.5 -31t70.5 31t27.5 86t-27.5 87t-70.5 32 t-71.5 -32t-28.5 -87z" />
<glyph unicode="&#xe1c;" horiz-adv-x="1253" d="M127 0v934q0 102 52 161.5t169 59.5q92 0 145.5 -48t53.5 -132q0 -78 -51.5 -127t-118.5 -49q-33 0 -64 12v-590l267 424h94l266 -424v912h186v-1133h-186v45l-315 487l-312 -489v-43h-186zM258 973q0 -55 27.5 -86t70.5 -31t72 31t29 86t-29 87t-72 32t-70.5 -32 t-27.5 -87z" />
<glyph unicode="&#xe1d;" horiz-adv-x="1253" d="M127 0v934q0 102 52 161.5t169 59.5q92 0 145.5 -48t53.5 -132q0 -78 -51.5 -127t-118.5 -49q-33 0 -64 12v-590l267 424h94l266 -424v1346h186v-1567h-186v45l-315 487l-312 -489v-43h-186zM258 973q0 -55 27.5 -86t70.5 -31t72 31t29 86t-29 87t-72 32t-70.5 -32 t-27.5 -87z" />
<glyph unicode="&#xe1e;" horiz-adv-x="1374" d="M20 975q0 84 52.5 132t142.5 48q223 0 223 -221v-637l267 731h94l262 -731v836h186v-1133h-184v29l-313 843l-312 -845v-27h-184v805q-18 -10 -59 -10q-74 0 -124.5 47t-50.5 133zM109 973q0 -55 28.5 -86t71.5 -31t70.5 31t27.5 86t-27.5 87t-70.5 32t-71.5 -32 t-28.5 -87z" />
<glyph unicode="&#xe1f;" horiz-adv-x="1374" d="M20 975q0 84 52.5 132t142.5 48q223 0 223 -221v-637l267 731h94l262 -731v1270h186v-1567h-184v29l-313 843l-312 -845v-27h-184v805q-18 -10 -59 -10q-74 0 -124.5 47t-50.5 133zM109 973q0 -55 28.5 -86t71.5 -31t70.5 31t27.5 86t-27.5 87t-70.5 32t-71.5 -32 t-28.5 -87z" />
<glyph unicode="&#xe20;" horiz-adv-x="1251" d="M20 158q0 88 52.5 132t130.5 44q35 0 53 -8v114q0 102 29.5 175t124.5 122q-74 57 -234 113v24q59 125 186 203t302 78q201 0 330.5 -96t129.5 -279v-780h-186v813q0 113 -73.5 187.5t-217.5 74.5q-215 0 -323 -184q66 -20 138.5 -62.5t112.5 -85.5v-16 q-82 -51 -108.5 -111.5t-26.5 -177.5v-239q0 -219 -223 -219q-92 0 -144.5 47t-52.5 131zM111 160q0 -55 28.5 -87t71.5 -32t70.5 31.5t27.5 87.5q0 55 -27.5 85.5t-70.5 30.5t-71.5 -30.5t-28.5 -85.5z" />
<glyph unicode="&#xe21;" horiz-adv-x="1224" d="M57 197q0 94 58.5 159.5t183.5 71.5v377q-18 -10 -59 -10q-74 0 -124 47t-50 133q0 84 52 132t142 48q223 0 223 -221v-526q137 -35 256 -112t172 -146v983h187v-1133h-170q-53 90 -178 191.5t-267 146.5v-96q0 -119 -49 -190.5t-174 -71.5q-106 0 -154.5 62t-48.5 155z M133 193q0 -61 22.5 -100.5t63.5 -39.5q39 0 59.5 32t20.5 89v188q-86 -8 -126 -53t-40 -116zM154 973q0 -55 28.5 -86t71.5 -31t70.5 31t27.5 86t-27.5 87t-70.5 32t-71.5 -32t-28.5 -87z" />
<glyph unicode="&#xe22;" horiz-adv-x="1120" d="M82 889q0 137 66.5 201.5t185.5 64.5q92 0 147.5 -47t55.5 -127q0 -78 -46.5 -130t-121.5 -52q-74 0 -107 37q4 -102 75 -151.5t150 -49.5h103v-90h-117q-98 -6 -143 -62.5t-45 -132.5v-272h381q80 0 110.5 45t30.5 123v887h184v-885q0 -131 -60.5 -189.5t-191.5 -58.5 h-639v362q0 70 43 131.5t158 92.5q-90 27 -154.5 103.5t-64.5 199.5zM238 977q0 -55 28.5 -86t71.5 -31t71.5 31t28.5 86t-28.5 87t-71.5 32t-71.5 -32t-28.5 -87z" />
<glyph unicode="&#xe23;" horiz-adv-x="1026" d="M68 719v74q0 172 98 267t305 95q72 0 158 -22q14 -2 55 -10.5t78 -8.5q39 0 67.5 10.5t61.5 36.5l53 -84q-33 -31 -73 -46t-76 -15q-39 0 -71 6t-75 18q-49 12 -81.5 18.5t-78.5 6.5q-113 0 -186.5 -61.5t-77.5 -196.5q68 8 207 8q154 0 242 -23.5t131 -87t43 -186.5 v-319q0 -219 -223 -219q-93 0 -145 47t-52 131q0 86 52 131t130 45q35 0 52 -10v229q0 100 -55.5 141t-194.5 41q-78 0 -187.5 -5t-156.5 -11zM518 160q0 -55 28.5 -87t71.5 -32q44 0 71.5 31.5t27.5 87.5q0 55 -27.5 85.5t-71.5 30.5q-43 0 -71.5 -30.5t-28.5 -85.5z" />
<glyph unicode="&#xe24;" horiz-adv-x="1173" d="M88 850v24q61 123 190.5 202t301.5 79q201 0 332.5 -96t131.5 -279v-1138h-184v1171q0 111 -76.5 186.5t-220.5 75.5q-104 0 -189 -47t-138 -137q61 -20 128.5 -61.5t110.5 -86.5v-16q-92 -53 -127 -115.5t-35 -173.5v-123q27 16 68 17q66 0 113 -45t47 -129t-53.5 -131 t-143.5 -47q-113 0 -165 58t-52 161v241q0 201 182 297q-84 68 -221 113zM252 160q0 -55 27.5 -87t70.5 -32t72 31.5t29 87.5q0 55 -29 85.5t-72 30.5t-70.5 -30.5t-27.5 -85.5z" />
<glyph unicode="&#xe25;" horiz-adv-x="1157" d="M74 864q45 135 169 213t306 78q205 0 343 -92t138 -275v-788h-170q-41 289 -134 500t-253 211q-72 0 -119 -44t-47 -139v-211q29 14 68 15q72 0 119 -46t47 -128t-53.5 -130t-143.5 -48q-223 0 -223 219v311q0 139 80 219t225 80q166 0 269.5 -124t148.5 -306v422 q0 119 -83 199.5t-249 80.5q-119 0 -212 -53t-142 -164h-84zM252 160q0 -55 27.5 -87t70.5 -32t72 31.5t29 87.5q0 55 -29 85.5t-72 30.5t-70.5 -30.5t-27.5 -85.5z" />
<glyph unicode="&#xe26;" horiz-adv-x="1251" d="M20 158q0 88 52.5 132t130.5 44q33 0 53 -10v116q0 102 29.5 175t124.5 122q-74 57 -234 113v24q59 125 186 203t302 78q201 0 330.5 -96t129.5 -279v-1138h-186v1171q0 113 -73.5 187.5t-217.5 74.5q-104 0 -187 -46t-136 -138q66 -20 138.5 -62.5t112.5 -85.5v-16 q-82 -51 -108.5 -111.5t-26.5 -177.5v-239q0 -219 -223 -219q-92 0 -144.5 47t-52.5 131zM111 160q0 -55 28.5 -87t71.5 -32t70.5 31.5t27.5 87.5q0 55 -27.5 85.5t-70.5 30.5t-71.5 -30.5t-28.5 -85.5z" />
<glyph unicode="&#xe27;" horiz-adv-x="1015" d="M18 823q27 156 144 244t293 88q197 0 314.5 -92t117.5 -275v-589q0 -219 -221 -219q-93 0 -145 47t-52 131q0 88 52 132t130 44q33 0 51 -8v479q0 127 -71.5 201.5t-214.5 74.5q-109 0 -197 -68.5t-119 -189.5h-82zM559 160q0 -55 28.5 -87t71.5 -32t71 31.5t28 87.5 q0 55 -28 85.5t-71 30.5t-71.5 -30.5t-28.5 -85.5z" />
<glyph unicode="&#xe28;" horiz-adv-x="1249" d="M127 0v719q0 205 120 320.5t378 115.5q201 0 321 -74q76 53 94 140h148q-27 -135 -162 -207q96 -109 96 -295v-719h-186v764q0 141 -78 226t-233 85q-156 0 -234 -85t-78 -226v-496q57 180 127 342q39 86 85 128t114 42q80 0 122 -50t42 -128q0 -74 -43 -125t-119 -51 q-47 0 -86 26.5t-53 86.5q-39 -68 -101.5 -249t-91.5 -290h-182zM549 604q0 -55 26.5 -85t67.5 -30t68.5 30t27.5 85q0 53 -27.5 82t-68.5 29t-67.5 -29t-26.5 -82z" />
<glyph unicode="&#xe29;" horiz-adv-x="1290" d="M20 975q0 84 52.5 132t142.5 48q223 0 223 -221v-856h348q82 0 113 45t31 123v176q-45 -4 -72 -4q-170 0 -261 67.5t-91 182.5q0 76 50 124t132 48q72 0 123 -44t51 -124q0 -63 -35.5 -105.5t-99.5 -50.5q47 -27 129 -27q41 0 74 9v635h186v-508q61 82 76 198h133 q-33 -238 -209 -342v-233q0 -131 -61.5 -189.5t-192.5 -58.5h-721v78h113v729q-16 -12 -59 -12q-74 0 -124.5 47t-50.5 133zM109 973q0 -55 28.5 -86t71.5 -31t70.5 31t27.5 86t-27.5 87t-70.5 32t-71.5 -32t-28.5 -87zM596 670q0 -45 24.5 -72t65.5 -27q43 0 67.5 27 t24.5 72t-24.5 71.5t-67.5 26.5q-41 0 -65.5 -26.5t-24.5 -71.5z" />
<glyph unicode="&#xe2a;" horiz-adv-x="1157" d="M74 864q45 135 169 213t306 78q180 0 307 -70q74 55 92 136h148q-23 -129 -154 -201q88 -92 88 -232v-788h-170q-41 289 -134 500t-253 211q-72 0 -119 -44t-47 -139v-211q29 14 68 15q72 0 119 -46t47 -128t-53.5 -130t-143.5 -48q-223 0 -223 219v311q0 139 80 219 t225 80q166 0 269.5 -124t148.5 -306v422q0 119 -83 199.5t-249 80.5q-119 0 -212 -53t-142 -164h-84zM252 160q0 -55 27.5 -87t70.5 -32t72 31.5t29 87.5q0 55 -29 85.5t-72 30.5t-70.5 -30.5t-27.5 -85.5z" />
<glyph unicode="&#xe2b;" horiz-adv-x="1257" d="M20 975q0 84 52.5 132t142.5 48q223 0 223 -221v-727l314 538q31 57 90 80q-74 49 -74 150q0 80 50 130t145 50q94 0 144 -50t50 -130q0 -57 -25.5 -100.5t-76.5 -63.5q75 -52 75 -154v-657h-184v612q0 53 -13 79t-44 26q-39 0 -78 -68l-381 -649h-176v807 q-16 -12 -59 -12q-74 0 -124.5 47t-50.5 133zM109 973q0 -55 28.5 -86t71.5 -31t70.5 31t27.5 86t-27.5 87t-70.5 32t-71.5 -32t-28.5 -87zM862 973q0 -55 29 -85t72 -30t70.5 30t27.5 85t-28.5 88t-69.5 33q-43 0 -72 -33t-29 -88z" />
<glyph unicode="&#xe2c;" horiz-adv-x="1374" d="M20 975q0 84 52.5 132t142.5 48q223 0 223 -221v-643l267 577h94l264 -577v969q-133 -76 -307 -76q-168 0 -251 52t-83 144q0 96 100.5 151.5t265.5 55.5q211 0 326 -76q10 47 14 115h156q-1 -129 -67 -229q31 -63 30 -150v-1247h-184v29l-313 688l-312 -690v-27h-184 v807q-16 -12 -59 -12q-74 0 -124.5 47t-50.5 133zM109 973q0 -55 28.5 -86t71.5 -31t70.5 31t27.5 86t-27.5 87t-70.5 32t-71.5 -32t-28.5 -87zM547 1382q0 -55 50 -90t148 -35q201 0 299 111q-27 72 -97 108.5t-175 36.5q-96 0 -160.5 -33.5t-64.5 -97.5z" />
<glyph unicode="&#xe2d;" horiz-adv-x="1122" d="M49 864q43 135 169 213t308 78q205 0 337 -92t132 -275v-550q0 -125 -65.5 -181.5t-196.5 -56.5h-608v535q0 221 223 221q90 0 143.5 -48.5t53.5 -132.5q0 -86 -51.5 -133t-124.5 -47q-33 0 -58 11v-328h353q74 0 109.5 42t35.5 116v565q0 117 -83 198.5t-239 81.5 q-119 0 -213 -53t-143 -164h-82zM256 573q0 -55 27.5 -85.5t70.5 -30.5t72 30.5t29 85.5t-29 87t-72 32t-70.5 -31.5t-27.5 -87.5z" />
<glyph unicode="&#xe2e;" horiz-adv-x="1126" d="M96 936q0 102 113 157.5t291 55.5q217 0 346 -74q23 61 26 146h156q-2 -134 -80 -240q49 -68 49 -168v-575q0 -125 -64.5 -181.5t-197.5 -56.5h-610v420q0 219 223 219q92 0 144.5 -47t52.5 -133q0 -84 -51.5 -132t-124.5 -48q-37 0 -58 12v-213h355q74 0 110.5 42 t36.5 116v591q0 16 -2 25q-80 -53 -177 -81t-194 -28q-344 0 -344 193zM221 938q0 -57 53.5 -88t155.5 -31q107 0 196 35t148 102q-43 59 -121 91t-176 32q-100 0 -178 -36.5t-78 -104.5zM256 459q0 -56 27.5 -87.5t70.5 -31.5t72 31.5t29 87.5q0 55 -29 85.5t-72 30.5 t-70.5 -30.5t-27.5 -85.5z" />
<glyph unicode="&#xe2f;" horiz-adv-x="935" d="M55 918q0 104 52.5 170.5t144.5 66.5q86 0 134 -50t48 -120q0 -80 -44 -129t-120 -49q-23 0 -50 7t-38 22q6 -51 57.5 -99.5t127.5 -48.5q74 0 132 43t91 115t33 158v129h184v-1133h-182v764q-31 -76 -102.5 -121t-155.5 -45q-145 0 -228.5 90t-83.5 230zM162 983 q0 -55 26.5 -85t67.5 -30q39 0 66.5 31t27.5 84t-27.5 84t-66.5 31q-41 0 -67.5 -31t-26.5 -84z" />
<glyph unicode="&#xe30;" horiz-adv-x="839" d="M55 289q0 76 48.5 122t127.5 46q82 0 126 -45t44 -113q0 -61 -39.5 -104t-105.5 -50q53 -18 106 -18q123 0 199 93t80 233h129q-8 -197 -120.5 -299.5t-287.5 -102.5q-139 0 -223 62.5t-84 175.5zM55 856q0 76 48.5 122t127.5 46q82 0 126 -45t44 -113q0 -61 -39.5 -104 t-105.5 -49q53 -18 106 -19q123 0 199 93.5t80 232.5h129q-8 -197 -120.5 -299.5t-287.5 -102.5q-139 0 -223 62.5t-84 175.5zM143 291q0 -45 25 -68.5t63 -23.5q41 0 66 23.5t25 68.5q0 47 -25 70.5t-66 23.5q-39 0 -63.5 -24.5t-24.5 -69.5zM143 858q0 -45 25 -68.5 t63 -23.5q41 0 66 23.5t25 68.5q0 47 -25 70.5t-66 23.5q-39 0 -63.5 -24.5t-24.5 -69.5z" />
<glyph unicode="&#xe31;" d="M-680 1559q0 76 50 125t134 49q72 0 123 -41t51 -115q0 -59 -29.5 -104.5t-94.5 -63.5q57 -27 124 -27q86 0 161 42t124 118t60 174h131q-23 -203 -156 -305t-317 -102q-170 0 -265.5 68.5t-95.5 181.5zM-588 1561q0 -45 24.5 -72t65.5 -27q43 0 67.5 27t24.5 72 q0 47 -24.5 73.5t-67.5 26.5q-41 0 -65.5 -26.5t-24.5 -73.5z" />
<glyph unicode="&#xe32;" horiz-adv-x="872" d="M20 850q18 137 115.5 221t245.5 84q174 0 268 -84t94 -258v-813h-184v819q0 262 -215 262q-86 0 -155.5 -65.5t-86.5 -165.5h-82z" />
<glyph unicode="&#xe33;" horiz-adv-x="872" d="M-475 1491q0 82 52 131t157 49q104 0 156.5 -49t52.5 -131q0 -80 -52.5 -131t-156.5 -51q-105 0 -157 51t-52 131zM-369 1491q0 -55 27 -88t76 -33t75.5 33t26.5 88t-26.5 88t-75.5 33t-76 -33t-27 -88zM20 850q18 137 115.5 221t245.5 84q174 0 268 -84t94 -258v-813 h-184v819q0 262 -215 262q-86 0 -155.5 -65.5t-86.5 -165.5h-82z" />
<glyph unicode="&#xe34;" d="M-1047 1350q15 131 122.5 220t295.5 89t321.5 -78t180.5 -231h-920zM-913 1425h606q-43 76 -128 118t-198 42q-109 0 -183.5 -44t-96.5 -116z" />
<glyph unicode="&#xe35;" d="M-1047 1350q15 131 122.5 220t295.5 89q106 0 197.5 -36t146.5 -103v215h158v-385h-920zM-913 1425h606q-43 76 -128 118t-198 42q-109 0 -183.5 -44t-96.5 -116z" />
<glyph unicode="&#xe36;" d="M-1047 1350q14 131 122 220t296 89q145 0 256 -45v8q0 66 39 108t115 42q72 0 110.5 -42t38.5 -108q0 -57 -30.5 -99t-87.5 -50q39 -51 61 -123h-920zM-913 1425h606q-43 76 -128 118t-198 42q-109 0 -183.5 -44t-96.5 -116zM-295 1622q0 -37 19.5 -59.5t56.5 -22.5 q33 0 52.5 22.5t19.5 59.5q0 35 -19.5 56.5t-52.5 21.5q-37 0 -56.5 -20.5t-19.5 -57.5z" />
<glyph unicode="&#xe37;" d="M-1047 1350q14 131 122 220t296 89q47 0 92 -6v82h134v-121q86 -39 135 -107v228h141v-385h-920zM-913 1425h606q-43 76 -128 118t-198 42q-109 0 -183.5 -44t-96.5 -116z" />
<glyph unicode="&#xe38;" d="M-506 -293q0 72 50 115t132 43q195 0 195 -180v-377h-150v250q-31 -18 -75 -19q-68 0 -110 47t-42 121zM-426 -297q0 -49 25.5 -76.5t62.5 -27.5t62.5 27.5t25.5 76.5t-25.5 76.5t-62.5 27.5t-62.5 -27.5t-25.5 -76.5z" />
<glyph unicode="&#xe39;" d="M-817 -293q0 72 47 115t125 43q182 0 182 -180v-303h115q45 0 61.5 23.5t16.5 70.5v383h141v-394q0 -160 -137 -159h-424v76h100v180q-29 -20 -80 -21q-61 0 -104 46t-43 120zM-737 -297q0 -49 26.5 -76.5t63.5 -27.5t61.5 27.5t24.5 76.5t-24.5 76.5t-61.5 27.5 t-63.5 -27.5t-26.5 -76.5z" />
<glyph unicode="&#xe3a;" d="M-348 -246q0 51 32.5 85t86.5 34q55 0 87.5 -34t32.5 -85t-32.5 -85t-87.5 -34q-54 0 -86.5 34t-32.5 85z" />
<glyph unicode="&#xe3f;" horiz-adv-x="1239" d="M74 0v25q49 18 85 26t81 12v1307q-102 16 -166 37v27h491v172h76v-172h21q244 0 350 -82t106 -256q0 -117 -66.5 -211t-199.5 -121v-10q174 -29 250 -131.5t76 -231.5q0 -197 -106.5 -294t-346.5 -97h-84v-190h-76v190h-491zM430 72h275q147 0 217.5 82t70.5 243 q0 154 -82 237t-233 83h-248v-645zM430 791h203q145 0 221 79.5t76 219.5q0 139 -68.5 203.5t-220.5 64.5h-211v-567z" />
<glyph unicode="&#xe40;" horiz-adv-x="569" d="M123 219v914h184v-818q29 16 72 17q63 0 112.5 -45t49.5 -129t-52.5 -131t-144.5 -47q-121 0 -171 62t-50 177zM252 160q0 -55 27.5 -87t70.5 -32t72 31.5t29 87.5q0 55 -29 85.5t-72 30.5t-70.5 -30.5t-27.5 -85.5z" />
<glyph unicode="&#xe41;" horiz-adv-x="1093" d="M123 219v914h184v-818q29 16 72 17q63 0 112.5 -45t49.5 -129t-52.5 -131t-144.5 -47q-121 0 -171 62t-50 177zM252 160q0 -56 27.5 -87.5t70.5 -31.5t72 31.5t29 87.5q0 55 -29 85.5t-72 30.5t-70.5 -30.5t-27.5 -85.5zM647 219v914h184v-818q29 16 72 17 q63 0 112.5 -45t49.5 -129t-52 -131t-145 -47q-121 0 -171 62t-50 177zM776 160q0 -56 27.5 -87.5t70.5 -31.5t72 31.5t29 87.5q0 55 -28.5 85.5t-72.5 30.5q-43 0 -70.5 -30.5t-27.5 -85.5z" />
<glyph unicode="&#xe42;" horiz-adv-x="718" d="M-82 1430v61q0 150 87 238t276 88q47 0 84.5 -10.5t83.5 -28.5q66 -27 100 -27q31 0 54.5 11.5t53.5 43.5l64 -61q-25 -37 -68 -60.5t-86 -23.5q-35 0 -63.5 8t-67.5 23q-6 2 -32.5 11t-51 14t-49.5 5q-98 0 -166.5 -48t-70.5 -169q25 4 71 4q309 0 309 -309v-885 q27 16 70 17q63 0 113.5 -45t50.5 -129t-53.5 -131t-145.5 -47q-121 0 -171 62t-50 177v993q0 121 -63.5 171.5t-190.5 50.5q-31 0 -88 -4zM391 160q0 -55 27.5 -87t70.5 -32t72 31.5t29 87.5q0 55 -29 85.5t-72 30.5t-70.5 -30.5t-27.5 -85.5z" />
<glyph unicode="&#xe43;" horiz-adv-x="657" d="M-70 1497q0 90 45 164t124 115t180 41q158 0 253 -72t95 -201q0 -68 -31 -125t-90 -133q-55 -76 -83 -125t-28 -108v-738q27 16 70 17q63 0 113.5 -45t50.5 -129t-53.5 -131t-145.5 -47q-121 0 -171 62t-50 177v821q0 72 35 131.5t104 143.5q59 70 91 122t32 109 q0 88 -55.5 140.5t-155.5 52.5q-90 0 -153.5 -55.5t-73.5 -133.5q12 29 37.5 41.5t52.5 12.5q86 0 131 -49.5t45 -127.5q0 -74 -50 -123t-122 -49q-86 0 -141.5 64.5t-55.5 177.5zM37 1427q0 -47 25.5 -74.5t62.5 -27.5q39 0 66.5 27.5t27.5 74.5q0 49 -27.5 76t-66.5 27 q-37 0 -62.5 -26.5t-25.5 -76.5zM340 160q0 -55 27.5 -87t70.5 -32t72 31.5t29 87.5q0 55 -29 85.5t-72 30.5t-70.5 -30.5t-27.5 -85.5z" />
<glyph unicode="&#xe44;" horiz-adv-x="718" d="M-119 1759l86 58q57 -59 108.5 -143.5t61.5 -147.5l182 291q82 -10 169 -65.5t118 -113.5q-80 -66 -115.5 -151.5t-35.5 -169.5v-1002q29 16 71 17q63 0 112.5 -45t49.5 -129t-52 -131t-144 -47q-121 0 -171.5 62t-50.5 177v1026q0 123 35 219.5t123 173.5 q-8 16 -33.5 36t-54.5 34l-180 -278l-103 16q-16 78 -73.5 175t-102.5 138zM399 160q0 -55 28 -87t71 -32t71.5 31.5t28.5 87.5q0 55 -28.5 85.5t-71.5 30.5t-71 -30.5t-28 -85.5z" />
<glyph unicode="&#xe45;" horiz-adv-x="872" d="M20 850q18 137 115.5 221t245.5 84q174 0 268 -84t94 -258v-1171h-184v1177q0 262 -215 262q-86 0 -155.5 -65.5t-86.5 -165.5h-82z" />
<glyph unicode="&#xe46;" horiz-adv-x="1193" d="M127 766q0 68 26.5 146.5t94 147t178.5 95.5l152 -135l174 135q139 -31 196.5 -123t57.5 -250v-1110h-185v1207q0 66 -13 106.5t-54 65.5l-179 -142l-163 142q-80 -49 -117 -131t-37 -156q16 20 48 35.5t73 15.5q88 0 124 -51t36 -119q0 -70 -45 -121t-129 -51 q-131 0 -184.5 87t-53.5 206zM291 647q0 -55 26.5 -85t67.5 -30t67.5 30t26.5 85q0 53 -26.5 83t-67.5 30t-67.5 -30t-26.5 -83z" />
<glyph unicode="&#xe47;" d="M-932 1550q0 96 64.5 160t187.5 64h266q70 0 92.5 29.5t26.5 101.5h121q-2 -106 -45 -158.5t-162 -52.5h-270q-74 0 -114 -38t-40 -100q0 -84 43 -122q33 35 82 64.5t84 35.5q57 -61 143 -100q-10 16 -10 45q0 53 37 92t96 39q70 0 105 -40t35 -97q0 -59 -38 -103.5 t-110 -44.5q-66 0 -130 28.5t-138 94.5q-43 -16 -87 -49t-77 -76q-80 27 -121 91.5t-41 135.5zM-406 1473q0 -39 20.5 -61.5t53.5 -22.5q35 0 56.5 22.5t21.5 61.5t-21.5 59t-56.5 20q-33 0 -53.5 -21.5t-20.5 -57.5z" />
<glyph unicode="&#xe48;" d="M-293 1350v385h164v-385h-164z" />
<glyph unicode="&#xe49;" d="M-670 1661q0 70 45 118t129 48q82 0 131.5 -48t49.5 -120q0 -98 -58.5 -159.5t-115.5 -84.5q145 10 239 36t162 100.5t84 217.5h125q-18 -227 -170 -323t-389 -96h-207v59q33 8 80 37t69 57q-92 0 -133 46t-41 112zM-592 1663q0 -45 25.5 -73.5t64.5 -28.5 q41 0 66.5 28.5t25.5 73.5q0 47 -25.5 76.5t-66.5 29.5q-39 0 -64.5 -30.5t-25.5 -75.5z" />
<glyph unicode="&#xe4a;" d="M-905 1530q0 86 45 165t164 122l135 -109l137 109q90 -23 131 -79.5t41 -133.5q0 -57 -22.5 -106.5t-63.5 -76.5q123 6 179.5 97.5t60.5 269.5h114q-10 -197 -91 -317.5t-226 -120.5h-162v61q43 20 70.5 74.5t27.5 116.5q0 41 -14 76.5t-43 56.5l-139 -105l-133 105 q-47 -20 -72 -62.5t-31 -85.5q20 27 70 27q59 0 92 -38t33 -99q0 -57 -39 -96.5t-100 -39.5q-82 0 -123 51.5t-41 137.5zM-811 1479q0 -43 20.5 -66.5t53.5 -23.5q32 0 53.5 24.5t21.5 65.5t-21.5 63.5t-53.5 22.5q-33 0 -53.5 -22.5t-20.5 -63.5z" />
<glyph unicode="&#xe4b;" d="M-584 1501v90h176v154h164v-154h176v-90h-176v-151h-164v151h-176z" />
<glyph unicode="&#xe4c;" d="M-539 1550q0 88 59.5 146.5t174.5 93.5l86 27q33 10 52.5 34.5t19.5 51.5h112q-4 -115 -90 -142l-170 -55q-51 -16 -79.5 -44t-28.5 -56q20 37 73 36q61 0 96 -39.5t35 -103.5q0 -66 -46 -107.5t-113 -41.5q-86 0 -133.5 53t-47.5 147zM-428 1503q0 -45 21.5 -69.5 t54.5 -24.5q35 0 57.5 24.5t22.5 69.5q0 41 -22.5 64.5t-57.5 23.5q-33 0 -54.5 -23.5t-21.5 -64.5z" />
<glyph unicode="&#xe4d;" d="M-475 1491q0 82 52 131t157 49q104 0 156.5 -49t52.5 -131q0 -80 -52.5 -131t-156.5 -51q-105 0 -157 51t-52 131zM-369 1491q0 -55 27 -88t76 -33t75.5 33t26.5 88t-26.5 88t-75.5 33t-76 -33t-27 -88z" />
<glyph unicode="&#xe4e;" d="M-588 1495q0 49 35 85t100 42q-39 14 -59 46t-20 65q0 63 43 97t124 34h205v-66h-164q-41 0 -60 -16.5t-19 -42.5q0 -43 40.5 -68.5t114.5 -32.5l-24 -69q-45 8 -74 8q-51 0 -82 -21.5t-31 -56.5q0 -33 22.5 -49t57.5 -16q31 0 68 14t57 31l51 -62q-29 -31 -87 -50 t-113 -19q-78 0 -131.5 36.5t-53.5 110.5z" />
<glyph unicode="&#xe4f;" horiz-adv-x="1423" d="M168 520q0 158 71.5 280t195.5 189.5t278 67.5t277.5 -67.5t194 -189.5t70.5 -280t-70.5 -280.5t-194.5 -189t-277 -66.5q-154 0 -279 66.5t-195.5 189t-70.5 280.5zM264 520q0 -131 58.5 -230.5t161 -154.5t229.5 -55q125 0 225 55t157.5 154.5t57.5 230.5 q0 129 -57.5 229.5t-157.5 156t-225 55.5q-127 0 -229.5 -55.5t-161 -156t-58.5 -229.5zM412 520q0 131 85 212t214 81q127 0 211 -81t84 -212t-83 -212t-212 -81t-214 81t-85 212zM502 520q0 -96 57 -152.5t152 -56.5q94 0 151.5 56.5t57.5 152.5q0 94 -57.5 149.5 t-151.5 55.5t-151.5 -55.5t-57.5 -149.5z" />
<glyph unicode="&#xe50;" horiz-adv-x="1318" d="M74 426q0 131 67.5 232.5t199.5 157.5t318 56t317.5 -56t199 -157.5t67.5 -232.5t-67.5 -232.5t-198.5 -157.5t-318 -56q-186 0 -318 56t-199.5 157.5t-67.5 232.5zM250 426q0 -111 51 -196t144.5 -132t213.5 -47q121 0 213.5 47t143.5 132t51 196q0 109 -51 192.5 t-143.5 132t-213.5 48.5t-214 -48.5t-144 -132t-51 -192.5z" />
<glyph unicode="&#xe51;" horiz-adv-x="1347" d="M74 397q0 147 77.5 255t215 164t313.5 56q195 0 328 -65.5t198.5 -180t65.5 -261.5q0 -121 -37 -230.5t-113 -193.5h-176q68 71 110 184t42 246q0 190 -105.5 309t-306.5 119q-127 0 -226.5 -50.5t-154.5 -141.5t-55 -208q0 -98 38 -176t104.5 -120t146.5 -42 q72 0 137 49.5t96 139.5q-41 -43 -113 -43q-80 0 -126 54t-46 140q0 78 51.5 128.5t125.5 50.5q94 0 151 -57.5t57 -157.5q0 -104 -44 -192.5t-130 -140.5t-204 -52q-199 0 -309.5 116.5t-110.5 300.5zM569 393q0 -57 29 -90t76 -33q43 0 72.5 33t29.5 90q0 55 -29.5 87 t-72.5 32q-47 0 -76 -30.5t-29 -88.5z" />
<glyph unicode="&#xe52;" horiz-adv-x="1482" d="M82 1253v103q115 -8 175 -48t60 -120v-948q0 -78 42 -120t122 -42h580q156 0 156 162v413q0 74 -25 110t-78 36q-61 0 -105 -67.5t-44 -170.5h-101q-4 109 -42 172.5t-111 63.5q-141 0 -164 -236q25 27 47 34t47 7q74 0 117 -52t43 -132q0 -78 -51.5 -130t-126.5 -52 q-96 0 -145.5 62t-49.5 165q0 170 64.5 289.5t222.5 119.5q156 0 198 -157q39 92 104.5 124.5t119.5 32.5q133 0 195.5 -57t62.5 -174v-426q0 -215 -244 -215h-760q-119 0 -183.5 53t-64.5 162v934q0 82 -61 104zM532 420q0 -55 30 -87t73 -32q45 0 73.5 30.5t28.5 88.5 q0 57 -28.5 90t-73.5 33q-43 0 -73 -33t-30 -90z" />
<glyph unicode="&#xe53;" horiz-adv-x="1419" d="M82 391q0 123 41 232.5t129 179t219 69.5q92 0 168 -52t117 -156q43 104 117.5 156t160.5 52q139 0 210 -64.5t71 -203.5v-604h-176v588q0 106 -32 158.5t-108 52.5q-84 0 -128 -82t-44 -182v-535h-145v522q0 102 -47 189.5t-141 87.5q-104 0 -172 -104.5t-68 -280.5 q0 -61 6 -97q39 39 102 39q72 0 116 -52t44 -130q0 -84 -50 -139t-144 -55q-125 0 -185.5 97t-60.5 314zM227 172q0 -55 32 -88t77 -33q47 0 76.5 32t29.5 89t-29.5 90t-76.5 33q-45 0 -77 -33t-32 -90z" />
<glyph unicode="&#xe54;" horiz-adv-x="1433" d="M74 397q0 233 134 350t435 117h305q174 0 276.5 71t108.5 265h148q-12 -227 -132 -318t-354 -91h-323q-207 0 -314.5 -100.5t-107.5 -291.5q0 -158 88 -251t229 -93q139 0 361 60q-176 35 -263 110.5t-87 182.5q0 94 53 150t151 56q88 0 145.5 -50t57.5 -134 q0 -76 -40 -125t-105 -63q37 -25 101.5 -53.5t121.5 -45.5q96 -25 152.5 -45t92 -35.5t48.5 -21.5l-47 -78q-166 76 -285 76q-63 0 -211 -27q-188 -33 -281 -32q-217 0 -337.5 108.5t-120.5 308.5zM688 426q0 -57 31 -90t78 -33q45 0 74.5 33t29.5 90q0 55 -29.5 87 t-74.5 32q-47 0 -78 -32t-31 -87z" />
<glyph unicode="&#xe55;" horiz-adv-x="1433" d="M74 397q0 233 134 350t435 117h14q-45 45 -45 117q0 76 54.5 124t156.5 48t155.5 -48t53.5 -124q0 -70 -43 -117q156 6 247 80t97 256h148q-12 -227 -132 -318t-354 -91h-323q-207 0 -314.5 -100.5t-107.5 -291.5q0 -158 88 -251t229 -93q139 0 361 60 q-176 35 -263 110.5t-87 182.5q0 94 53 150t151 56q88 0 145.5 -50t57.5 -134q0 -76 -40 -125t-105 -63q37 -25 101.5 -53.5t121.5 -45.5q96 -25 152.5 -45t92 -35.5t48.5 -21.5l-47 -78q-166 76 -285 76q-63 0 -211 -27q-188 -33 -281 -32q-217 0 -337.5 108.5 t-120.5 308.5zM688 426q0 -57 31 -90t78 -33q45 0 74.5 33t29.5 90q0 55 -29.5 87t-74.5 32q-47 0 -78 -32t-31 -87zM731 981q0 -47 24.5 -75.5t67.5 -28.5t66.5 27.5t23.5 76.5t-23.5 76.5t-66.5 27.5t-67.5 -28.5t-24.5 -75.5z" />
<glyph unicode="&#xe56;" horiz-adv-x="1386" d="M66 1223h157q51 -96 85 -231.5t42 -264.5q78 74 191.5 109.5t234.5 35.5q158 0 279 -51t189.5 -147t68.5 -228q0 -127 -57.5 -232t-182.5 -169.5t-321 -64.5q-435 0 -435 276q0 88 54.5 144.5t156.5 56.5q88 0 144.5 -53.5t56.5 -137.5q0 -74 -44 -124t-128 -54 q59 -37 207 -37q100 0 185 45t135.5 133t50.5 215q0 162 -106.5 258.5t-289.5 96.5q-256 0 -424 -191h-86q0 145 -50 326.5t-113 288.5zM424 264q0 -57 28.5 -90t71.5 -33t72 33t29 90t-29 89t-72 32t-71.5 -33t-28.5 -88z" />
<glyph unicode="&#xe57;" horiz-adv-x="1685" d="M84 395q0 477 330 477q209 0 245 -194q59 195 261 194q137 0 201.5 -63.5t64.5 -204.5v-473q102 14 148 143t48 355q2 231 11.5 375.5t31.5 218.5h181q-25 -78 -35 -208t-10 -372q0 -248 -79 -445.5t-313 -197.5h-155v590q0 106 -28 157.5t-103 51.5q-84 0 -118 -92.5 t-34 -200.5v-103h-145v103q0 293 -146 293q-90 0 -136 -99.5t-46 -283.5q0 -57 4 -92q18 16 47 24t53 8q74 0 118 -54t44 -134q0 -82 -52 -135t-142 -53q-123 0 -184.5 99t-61.5 316zM231 172q0 -55 32 -88t77 -33t75.5 33t30.5 88q0 57 -30.5 90t-75.5 33t-77 -33t-32 -90z " />
<glyph unicode="&#xe58;" horiz-adv-x="1370" d="M74 397q0 242 121.5 354.5t396.5 112.5h297q141 0 215 77t78 259h147q-10 -160 -55 -249t-135 -126t-242 -37h-297q-188 0 -269 -100t-81 -289q0 -96 27.5 -169.5t60.5 -104.5q41 68 112.5 140.5t137.5 105.5q41 -127 116.5 -218.5t202.5 -91.5q63 0 111 29 q-80 2 -124 51t-44 131q0 80 52 135.5t132 55.5q102 0 152.5 -58.5t50.5 -148.5q0 -131 -86 -203.5t-252 -72.5q-137 0 -225 81.5t-125 192.5q-51 -37 -117.5 -125t-99.5 -149q-146 45 -202 163.5t-56 253.5zM934 264q0 -57 28.5 -90t73.5 -33t75 33t30 90t-30 89t-75 32 t-73.5 -31.5t-28.5 -89.5z" />
<glyph unicode="&#xe59;" horiz-adv-x="1351" d="M84 383q0 139 50 250.5t142.5 175t208.5 63.5q96 0 171 -37.5t118 -136.5q2 82 32 128t71 46q25 0 49 -17t55 -48q33 -33 57.5 -50.5t51.5 -17.5q49 0 67.5 52.5t18.5 156.5q0 55 -7.5 115.5t-15.5 114.5l-8 51h131q27 -156 27 -293q0 -139 -42 -218t-126 -79 q-43 0 -79 20.5t-83 59.5q-35 27 -53.5 38t-34.5 11q-39 0 -39 -84q0 -160 97 -344t233 -324l-111 -43q-119 142 -213 309t-143 320q-20 70 -67.5 133.5t-137.5 63.5q-113 0 -178.5 -124t-65.5 -304q0 -59 6 -97q23 45 66 64.5t78 19.5q74 0 117.5 -53t43.5 -137 q0 -82 -62.5 -135t-148.5 -53q-125 0 -200.5 96t-75.5 307zM297 176q0 -55 29.5 -88t72.5 -33q45 0 74 32t29 89t-29 90t-74 33q-43 0 -72.5 -33t-29.5 -90z" />
<glyph unicode="&#xe5a;" horiz-adv-x="1370" d="M55 918q0 104 52.5 170.5t144.5 66.5q86 0 134 -50t48 -120q0 -80 -44 -129t-120 -49q-23 0 -50 7t-38 22q6 -51 57.5 -99.5t127.5 -48.5q74 0 132 43t91 115t33 158v129h184v-445q70 4 127 47t90 115t33 154v129h186v-1133h-184v764q-31 -74 -101.5 -119t-150.5 -49 v-596h-182v764q-31 -76 -102.5 -121t-155.5 -45q-145 0 -228.5 90t-83.5 230zM162 983q0 -55 26.5 -85t67.5 -30q39 0 66.5 31t27.5 84t-27.5 84t-66.5 31q-41 0 -67.5 -31t-26.5 -84z" />
<glyph unicode="&#xe5b;" horiz-adv-x="2125" d="M84 555q0 147 48 261t135 176.5t198 62.5q164 0 249 -115t85 -281q0 -117 -58.5 -197.5t-156.5 -80.5q-90 0 -139.5 58.5t-49.5 142.5q0 70 43 127t135 57q51 0 92.5 -24.5t61.5 -73.5q-8 139 -72.5 226t-175.5 87q-86 0 -151.5 -58.5t-101.5 -155.5t-36 -214 q0 -119 43 -214t120 -149.5t173 -54.5q238 0 333 194.5t95 477.5h97l114 -309l45 286h95l94 -233l49 180h68l96 -172l35 133h53l100 -98l279 -33v-20l-299 -29l-86 84l-37 -152h-68l-96 172l-53 -213h-66l-98 238l-55 -289h-91l-102 277q-35 -270 -160 -421t-352 -151 q-121 0 -219 62.5t-155.5 176.5t-57.5 259zM461 578q0 -68 32.5 -105t84.5 -37q49 0 83.5 38t34.5 104q0 63 -34.5 100t-83.5 37q-51 0 -84 -36t-33 -101z" />
<glyph unicode="&#x1e0c;" horiz-adv-x="1370" d="M82 0v25q80 29 162 36v1309q-78 12 -162 39v25h614q311 0 453.5 -181.5t142.5 -535.5q0 -352 -143 -534.5t-455 -182.5h-612zM432 72h258q223 0 316.5 167t93.5 478q0 309 -93.5 475t-312.5 166h-262v-1286zM571 -217q0 43 26 69.5t67 26.5t66.5 -26.5t25.5 -69.5 q0 -41 -25.5 -66.5t-66.5 -25.5t-67 25.5t-26 66.5z" />
<glyph unicode="&#x1e0d;" horiz-adv-x="1210" d="M61 504q0 250 129 392t351 142q94 0 177 -28.5t156 -110.5v463q-86 16 -141 37v14l326 35v-1370q82 -16 141 -33v-14l-285 -41q-10 66 -18 180q-53 -94 -153.5 -142t-227.5 -48q-215 0 -335 128t-120 396zM246 502q0 -213 77.5 -332t243.5 -119q138 0 222.5 85t84.5 214 v457q-133 158 -290 158q-172 0 -255 -132.5t-83 -330.5zM496 -217q0 43 25.5 69.5t66.5 26.5t66.5 -26.5t25.5 -69.5q0 -41 -25.5 -66.5t-66.5 -25.5t-66.5 25.5t-25.5 66.5z" />
<glyph unicode="&#x1e0e;" horiz-adv-x="1370" d="M82 0v25q80 29 162 36v1309q-78 12 -162 39v25h614q311 0 453.5 -181.5t142.5 -535.5q0 -352 -143 -534.5t-455 -182.5h-612zM291 -141h682v-72h-682v72zM432 72h258q223 0 316.5 167t93.5 478q0 309 -93.5 475t-312.5 166h-262v-1286z" />
<glyph unicode="&#x1e0f;" horiz-adv-x="1210" d="M61 504q0 250 129 392t351 142q94 0 177 -28.5t156 -110.5v463q-86 16 -141 37v14l326 35v-1370q82 -16 141 -33v-14l-285 -41q-10 66 -18 180q-53 -94 -153.5 -142t-227.5 -48q-215 0 -335 128t-120 396zM246 502q0 -213 77.5 -332t243.5 -119q138 0 222.5 85t84.5 214 v457q-133 158 -290 158q-172 0 -255 -132.5t-83 -330.5zM256 -141h682v-72h-682v72z" />
<glyph unicode="&#x1e20;" horiz-adv-x="1374" d="M76 717q0 227 80 393t232.5 255t361.5 89q147 0 280 -39t203 -102l-19 -250h-49q-27 80 -39 229q-45 37 -143 61.5t-184 24.5q-258 0 -394.5 -181t-136.5 -480q0 -305 123 -483.5t379 -178.5q55 0 130 14.5t126 43.5v520q-96 18 -162 37v24h488v-20q-66 -35 -144 -45 v-529q-76 -57 -206 -88.5t-265 -31.5q-321 0 -491 194.5t-170 542.5zM395 1606v71h682v-71h-682z" />
<glyph unicode="&#x1e21;" horiz-adv-x="1077" d="M76 -57q0 113 108 180q-43 23 -63.5 58.5t-20.5 76.5q0 111 117 180q-68 41 -102.5 108.5t-34.5 153.5q0 160 115.5 249t318.5 89t315 -88q29 31 48.5 68t19.5 59h139q-10 -49 -46 -100t-97 -92q55 -74 55 -185q0 -160 -115.5 -247.5t-318.5 -87.5q-111 0 -203 28 q-66 -41 -65 -88q0 -39 36.5 -52t116.5 -13h346q129 0 200 -70t71 -190q0 -293 -508 -293q-201 0 -316.5 66.5t-115.5 189.5zM182 1196v72h682v-72h-682zM223 -45q0 -92 81 -141.5t218 -49.5q150 0 238 46.5t88 142.5q0 66 -43 101.5t-129 35.5h-338q-23 0 -64 4 q-51 -55 -51 -139zM262 700q0 -115 64.5 -189.5t187.5 -74.5t187.5 75t64.5 189q0 115 -64.5 190t-187.5 75t-187.5 -75t-64.5 -190z" />
<glyph unicode="&#x1e24;" horiz-adv-x="1619" d="M82 0v25q80 29 162 36v1309q-88 14 -162 39v25h512v-25q-55 -20 -85 -27.5t-75 -11.5v-606h750v606q-68 10 -160 39v25h514v-27q-90 -31 -166 -39v-1307q94 -14 166 -38v-23h-514v20q53 20 84 28.5t76 12.5v629h-750v-629q96 -18 160 -38v-23h-512zM709 -217 q0 43 25.5 69.5t66.5 26.5t66.5 -26.5t25.5 -69.5q0 -41 -25.5 -66.5t-66.5 -25.5t-66.5 25.5t-25.5 66.5z" />
<glyph unicode="&#x1e25;" horiz-adv-x="1351" d="M63 0v23q82 31 164 38v1301q-86 16 -143 37v14l328 35v-567q72 70 175 113.5t222 43.5q152 0 245 -77.5t93 -210.5v-689q82 -11 164 -38v-23h-506v23q80 29 158 38v672q0 123 -59.5 177.5t-158.5 54.5q-82 0 -172 -42t-161 -120v-742q78 -12 155 -38v-23h-504zM596 -217 q0 43 25.5 69.5t66.5 26.5t66.5 -26.5t25.5 -69.5q0 -41 -25.5 -66.5t-66.5 -25.5t-66.5 25.5t-25.5 66.5z" />
<glyph unicode="&#x1e2a;" horiz-adv-x="1619" d="M82 0v25q80 29 162 36v1309q-88 14 -162 39v25h512v-25q-55 -20 -85 -27.5t-75 -11.5v-606h750v606q-68 10 -160 39v25h514v-27q-90 -31 -166 -39v-1307q94 -14 166 -38v-23h-514v20q53 20 84 28.5t76 12.5v629h-750v-629q96 -18 160 -38v-23h-512zM489 -102h115 q18 -180 205 -181q80 0 136 38t67 143h114q-14 -127 -99 -190.5t-218 -63.5q-135 0 -219 63.5t-101 190.5z" />
<glyph unicode="&#x1e2b;" horiz-adv-x="1351" d="M63 0v23q82 31 164 38v1301q-86 16 -143 37v14l328 35v-567q72 70 175 113.5t222 43.5q152 0 245 -77.5t93 -210.5v-689q82 -11 164 -38v-23h-506v23q80 29 158 38v672q0 123 -59.5 177.5t-158.5 54.5q-82 0 -172 -42t-161 -120v-742q78 -12 155 -38v-23h-504zM367 -102 h114q18 -180 205 -181q80 0 136.5 38t66.5 143h115q-14 -127 -99.5 -190.5t-218.5 -63.5q-135 0 -219 63.5t-100 190.5z" />
<glyph unicode="&#x1e36;" horiz-adv-x="1226" d="M82 0v25q84 27 172 36v1309q-94 14 -166 39v25h520v-27q-74 -23 -164 -37v-1298h576q2 43 29.5 117.5t48.5 105.5h43l-29 -295h-1030zM573 -201q0 41 25 66.5t68 25.5q39 0 64.5 -25.5t25.5 -66.5q0 -43 -24.5 -68.5t-65.5 -25.5q-43 0 -68 25.5t-25 68.5z" />
<glyph unicode="&#x1e37;" horiz-adv-x="641" d="M63 0v23q45 14 164 38v1301q-86 16 -143 37v14l328 35v-1387q88 -14 163 -38v-23h-512zM225 -201q0 41 25.5 66.5t66.5 25.5t67 -25.5t26 -66.5q0 -43 -26 -68.5t-67 -25.5t-66.5 25.5t-25.5 68.5z" />
<glyph unicode="&#x1e38;" horiz-adv-x="1226" d="M6 1608v69h682v-69h-682zM82 0v25q84 27 172 36v1309q-94 14 -166 39v25h520v-27q-74 -23 -164 -37v-1298h576q2 43 29.5 117.5t48.5 105.5h43l-29 -295h-1030zM571 -201q0 41 26 66.5t65 25.5q41 0 66.5 -25.5t25.5 -66.5q0 -43 -26 -68.5t-66 -25.5q-41 0 -66 25.5 t-25 68.5z" />
<glyph unicode="&#x1e39;" horiz-adv-x="641" d="M-25 1608v69h682v-69h-682zM63 0v23q45 14 164 38v1301q-86 16 -143 37v14l328 35v-1387q88 -14 163 -38v-23h-512zM225 -201q0 41 25.5 66.5t66.5 25.5t67 -25.5t26 -66.5q0 -43 -26 -68.5t-67 -25.5t-66.5 25.5t-25.5 68.5z" />
<glyph unicode="&#x1e3a;" horiz-adv-x="1226" d="M82 0v25q84 27 172 36v1309q-94 14 -166 39v25h520v-27q-74 -23 -164 -37v-1298h576q2 43 29.5 117.5t48.5 105.5h43l-29 -295h-1030zM287 -141h682v-72h-682v72z" />
<glyph unicode="&#x1e3b;" horiz-adv-x="641" d="M-25 -141h682v-72h-682v72zM63 0v23q45 14 164 38v1301q-86 16 -143 37v14l328 35v-1387q88 -14 163 -38v-23h-512z" />
<glyph unicode="&#x1e42;" horiz-adv-x="1869" d="M82 0v23q76 23 164 36v1311q-98 14 -164 39v25h383l459 -1115l485 1115h379v-25q-76 -25 -164 -41v-1309q88 -14 164 -36v-23h-518v23q70 23 164 38v1229l-496 -1132h-111l-487 1145v-1242q94 -16 164 -38v-23h-422zM840 -217q0 43 25.5 69.5t66.5 26.5t66.5 -26.5 t25.5 -69.5q0 -41 -25.5 -66.5t-66.5 -25.5t-66.5 25.5t-25.5 66.5z" />
<glyph unicode="&#x1e43;" horiz-adv-x="1941" d="M63 0v23q82 27 164 38v889q-86 16 -143 37v14l328 35v-147q59 61 142 105t183 44q115 0 196 -44t116 -126q59 72 149 121t201 49q152 0 245 -77.5t93 -210.5v-689q82 -11 164 -38v-23h-506v23q94 31 155 38v672q0 123 -58 177.5t-157 54.5q-74 0 -143.5 -42t-126.5 -112 q6 -31 6 -61v-689q80 -12 154 -38v-23h-486v23q96 31 154 38v672q0 231 -211 232q-74 0 -144.5 -42t-125.5 -114v-748q82 -12 163 -38v-23h-512zM889 -217q0 43 25.5 69.5t66.5 26.5t66.5 -26.5t25.5 -69.5q0 -41 -25.5 -66.5t-66.5 -25.5t-66.5 25.5t-25.5 66.5z" />
<glyph unicode="&#x1e44;" horiz-adv-x="1593" d="M82 0v23q76 23 164 36v1311q-98 14 -164 39v25h373l798 -1194v1132q-84 12 -163 37v25h421v-25q-72 -23 -165 -39v-1370h-109l-897 1329v-1268q94 -16 164 -38v-23h-422zM711 1700q0 43 24.5 69.5t67.5 26.5q41 0 65.5 -26.5t24.5 -69.5q0 -41 -25.5 -66.5t-64.5 -25.5 q-43 0 -67.5 25.5t-24.5 66.5z" />
<glyph unicode="&#x1e45;" horiz-adv-x="1351" d="M63 0v23q82 27 164 38v889q-86 16 -143 37v14l328 35v-155q72 70 175 113.5t222 43.5q152 0 245 -77.5t93 -210.5v-689q96 -13 164 -38v-23h-504v23q88 29 156 38v672q0 123 -59.5 177.5t-158.5 54.5q-82 0 -172 -42t-161 -120v-742q82 -12 163 -38v-23h-512zM567 1286 q0 43 24.5 69.5t67.5 26.5q41 0 66 -26.5t25 -69.5q0 -41 -26 -66.5t-65 -25.5q-43 0 -67.5 25.5t-24.5 66.5z" />
<glyph unicode="&#x1e46;" horiz-adv-x="1593" d="M82 0v23q76 23 164 36v1311q-98 14 -164 39v25h373l798 -1194v1132q-84 12 -163 37v25h421v-25q-72 -23 -165 -39v-1370h-109l-897 1329v-1268q94 -16 164 -38v-23h-422zM684 -217q0 43 25.5 69.5t66.5 26.5t66.5 -26.5t25.5 -69.5q0 -41 -25.5 -66.5t-66.5 -25.5 t-66.5 25.5t-25.5 66.5z" />
<glyph unicode="&#x1e47;" horiz-adv-x="1351" d="M63 0v23q82 27 164 38v889q-86 16 -143 37v14l328 35v-155q72 70 175 113.5t222 43.5q152 0 245 -77.5t93 -210.5v-689q96 -13 164 -38v-23h-504v23q88 29 156 38v672q0 123 -59.5 177.5t-158.5 54.5q-82 0 -172 -42t-161 -120v-742q82 -12 163 -38v-23h-512zM557 -217 q0 43 25.5 69.5t66.5 26.5t66.5 -26.5t25.5 -69.5q0 -41 -25.5 -66.5t-66.5 -25.5t-66.5 25.5t-25.5 66.5z" />
<glyph unicode="&#x1e48;" horiz-adv-x="1593" d="M82 0v23q76 23 164 36v1311q-98 14 -164 39v25h373l798 -1194v1132q-84 12 -163 37v25h421v-25q-72 -23 -165 -39v-1370h-109l-897 1329v-1268q94 -16 164 -38v-23h-422zM459 -141h682v-72h-682v72z" />
<glyph unicode="&#x1e49;" horiz-adv-x="1351" d="M63 0v23q82 27 164 38v889q-86 16 -143 37v14l328 35v-155q72 70 175 113.5t222 43.5q152 0 245 -77.5t93 -210.5v-689q96 -13 164 -38v-23h-504v23q88 29 156 38v672q0 123 -59.5 177.5t-158.5 54.5q-82 0 -172 -42t-161 -120v-742q82 -12 163 -38v-23h-512zM297 -141 h682v-72h-682v72z" />
<glyph unicode="&#x1e5a;" horiz-adv-x="1368" d="M82 0v25q37 12 84 22t82 14v1309q-86 12 -162 39v25h674q233 0 336.5 -106.5t103.5 -299.5q0 -172 -89 -278.5t-261 -128.5l317 -560q105 -18 150 -36v-25h-299l-336 614h-244v-553q80 -12 166 -38v-23h-522zM438 688h269q158 0 231.5 90t73.5 252t-74 245t-231 83h-269 v-670zM614 -217q0 43 26 69.5t67 26.5t66.5 -26.5t25.5 -69.5q0 -41 -25.5 -66.5t-66.5 -25.5t-67 25.5t-26 66.5z" />
<glyph unicode="&#x1e5b;" horiz-adv-x="851" d="M41 0v23q70 27 164 38v889q-90 16 -142 37v14l306 35l16 -176h8q33 74 102.5 126t151.5 52q100 0 170 -45l-35 -96q-51 39 -114 39q-84 0 -156 -56.5t-123 -142.5v-676q90 -14 164 -38v-23h-512zM207 -217q0 43 25.5 69.5t66.5 26.5t66.5 -26.5t25.5 -69.5 q0 -41 -25.5 -66.5t-66.5 -25.5t-66.5 25.5t-25.5 66.5z" />
<glyph unicode="&#x1e5c;" horiz-adv-x="1368" d="M82 0v25q37 12 84 22t82 14v1309q-86 12 -162 39v25h674q233 0 336.5 -106.5t103.5 -299.5q0 -172 -89 -278.5t-261 -128.5l317 -560q105 -18 150 -36v-25h-299l-336 614h-244v-553q80 -12 166 -38v-23h-522zM246 1608v71h725v-71h-725zM438 688h269q158 0 231.5 90 t73.5 252t-74 245t-231 83h-269v-670zM616 -217q0 43 25 69.5t66 26.5q43 0 68.5 -26.5t25.5 -69.5q0 -41 -25.5 -66.5t-68.5 -25.5q-39 0 -65 25.5t-26 66.5z" />
<glyph unicode="&#x1e5d;" horiz-adv-x="851" d="M41 0v23q70 27 164 38v889q-90 16 -142 37v14l306 35l16 -176h8q33 74 102.5 126t151.5 52q100 0 170 -45l-35 -96q-51 39 -114 39q-84 0 -156 -56.5t-123 -142.5v-676q90 -14 164 -38v-23h-512zM59 1196v72h682v-72h-682zM207 -217q0 43 25.5 69.5t66.5 26.5t66.5 -26.5 t25.5 -69.5q0 -41 -25.5 -66.5t-66.5 -25.5t-66.5 25.5t-25.5 66.5z" />
<glyph unicode="&#x1e5e;" horiz-adv-x="1368" d="M82 0v25q37 12 84 22t82 14v1309q-86 12 -162 39v25h674q233 0 336.5 -106.5t103.5 -299.5q0 -172 -89 -278.5t-261 -128.5l317 -560q105 -18 150 -36v-25h-299l-336 614h-244v-553q80 -12 166 -38v-23h-522zM336 -141h682v-72h-682v72zM438 688h269q158 0 231.5 90 t73.5 252t-74 245t-231 83h-269v-670z" />
<glyph unicode="&#x1e5f;" horiz-adv-x="851" d="M4 -141h682v-72h-682v72zM41 0v23q70 27 164 38v889q-90 16 -142 37v14l306 35l16 -176h8q33 74 102.5 126t151.5 52q100 0 170 -45l-35 -96q-51 39 -114 39q-84 0 -156 -56.5t-123 -142.5v-676q90 -14 164 -38v-23h-512z" />
<glyph unicode="&#x1e60;" horiz-adv-x="1116" d="M70 168l20 278h47q18 -51 37 -251q53 -63 137 -101.5t191 -38.5q145 0 247.5 77t102.5 216q0 92 -49 156.5t-121 105.5t-193 95q-131 57 -208.5 102t-132 119.5t-54.5 185.5q0 168 129 255t348 87q281 0 422 -147l-20 -240h-47q-27 76 -39 221q-47 43 -116 66.5 t-153 23.5q-164 0 -247.5 -61.5t-83.5 -177.5q0 -68 42 -118t104.5 -86t170.5 -83q141 -61 228.5 -113.5t149.5 -141.5t62 -220q0 -121 -64.5 -211t-177 -138t-253.5 -48q-160 0 -286 52t-193 136zM485 1700q0 43 25 69.5t68 26.5q41 0 65.5 -26.5t24.5 -69.5 q0 -41 -26 -66.5t-64 -25.5q-43 0 -68 25.5t-25 66.5z" />
<glyph unicode="&#x1e61;" horiz-adv-x="950" d="M82 102l14 256h43q10 -29 19.5 -102.5t11.5 -126.5q92 -78 250 -78q127 0 199.5 56.5t72.5 150.5q0 78 -65.5 122t-200.5 91q-113 43 -180.5 77t-115.5 93t-48 150q0 123 108.5 185t272.5 62q231 0 358 -106l-18 -211h-45q-12 31 -19.5 84t-7.5 100q-92 61 -229 62 q-109 0 -174.5 -38t-65.5 -116q0 -55 36 -94t89 -65.5t145 -61.5q113 -43 180.5 -79t116 -95.5t48.5 -147.5q0 -141 -111 -215.5t-281 -74.5q-135 0 -237.5 32.5t-165.5 89.5zM379 1286q0 43 24.5 69.5t67.5 26.5q41 0 65.5 -26.5t24.5 -69.5q0 -41 -25.5 -66.5t-64.5 -25.5 q-43 0 -67.5 25.5t-24.5 66.5z" />
<glyph unicode="&#x1e62;" horiz-adv-x="1116" d="M70 168l20 278h47q18 -51 37 -251q53 -63 137 -101.5t191 -38.5q145 0 247.5 77t102.5 216q0 92 -49 156.5t-121 105.5t-193 95q-131 57 -208.5 102t-132 119.5t-54.5 185.5q0 168 129 255t348 87q281 0 422 -147l-20 -240h-47q-27 76 -39 221q-47 43 -116 66.5 t-153 23.5q-164 0 -247.5 -61.5t-83.5 -177.5q0 -68 42 -118t104.5 -86t170.5 -83q141 -61 228.5 -113.5t149.5 -141.5t62 -220q0 -121 -64.5 -211t-177 -138t-253.5 -48q-160 0 -286 52t-193 136zM459 -217q0 43 25.5 69.5t66.5 26.5t66.5 -26.5t25.5 -69.5 q0 -41 -25.5 -66.5t-66.5 -25.5t-66.5 25.5t-25.5 66.5z" />
<glyph unicode="&#x1e63;" horiz-adv-x="950" d="M82 102l14 256h43q10 -29 19.5 -102.5t11.5 -126.5q92 -78 250 -78q127 0 199.5 56.5t72.5 150.5q0 78 -65.5 122t-200.5 91q-113 43 -180.5 77t-115.5 93t-48 150q0 123 108.5 185t272.5 62q231 0 358 -106l-18 -211h-45q-12 31 -19.5 84t-7.5 100q-92 61 -229 62 q-109 0 -174.5 -38t-65.5 -116q0 -55 36 -94t89 -65.5t145 -61.5q113 -43 180.5 -79t116 -95.5t48.5 -147.5q0 -141 -111 -215.5t-281 -74.5q-135 0 -237.5 32.5t-165.5 89.5zM379 -217q0 43 25.5 69.5t66.5 26.5t66.5 -26.5t25.5 -69.5q0 -41 -25.5 -66.5t-66.5 -25.5 t-66.5 25.5t-25.5 66.5z" />
<glyph unicode="&#x1e6c;" horiz-adv-x="1308" d="M82 1112v322h1143v-322h-43q-16 29 -34 114t-22 132h-378v-1297q100 -16 174 -38v-23h-537v25q70 18 174 36v1297h-379q-4 -47 -21.5 -132t-33.5 -114h-43zM559 -217q0 43 25.5 69.5t66.5 26.5t66.5 -26.5t25.5 -69.5q0 -41 -25.5 -66.5t-66.5 -25.5t-66.5 25.5 t-25.5 66.5z" />
<glyph unicode="&#x1e6d;" horiz-adv-x="784" d="M33 946v74h178v113q78 33 96 163h88v-276h307v-74h-307v-665q0 -123 48.5 -174.5t138.5 -51.5q59 0 133 25l14 -70q-92 -30 -209 -30q-145 0 -227 73.5t-82 227.5v665h-178zM391 -217q0 43 25.5 69.5t66.5 26.5t66.5 -26.5t25.5 -69.5q0 -41 -25.5 -66.5t-66.5 -25.5 t-66.5 25.5t-25.5 66.5z" />
<glyph unicode="&#x1e6e;" horiz-adv-x="1308" d="M82 1112v322h1143v-322h-43q-16 29 -34 114t-22 132h-378v-1297q100 -16 174 -38v-23h-537v25q70 18 174 36v1297h-379q-4 -47 -21.5 -132t-33.5 -114h-43zM309 -141h682v-72h-682v72z" />
<glyph unicode="&#x1e6f;" horiz-adv-x="784" d="M33 946v74h178v113q78 33 96 163h88v-276h307v-74h-307v-665q0 -123 48.5 -174.5t138.5 -51.5q59 0 133 25l14 -70q-92 -31 -209 -30q-145 0 -227 73.5t-82 227.5v665h-178zM63 -141h682v-72h-682v72z" />
<glyph unicode="&#x1e80;" horiz-adv-x="2076" d="M35 1409v25h508v-27q-70 -29 -168 -39l278 -1139l359 1135h92l401 -1206l320 1218q-57 10 -133 31v27h348v-23q-63 -29 -121 -37l-365 -1384h-161l-369 1108l-348 -1108h-133l-350 1376q-70 12 -158 43zM834 1866q0 23 17 39t48 16q45 0 90 -45l238 -219l-33 -47 l-291 168q-70 41 -69 88z" />
<glyph unicode="&#x1e81;" horiz-adv-x="1617" d="M16 995v25h478v-27q-70 -25 -156 -35l197 -755l249 715h109l256 -752l207 792q-84 14 -156 39v23h399v-23q-51 -20 -139 -34l-262 -963h-133l-256 750l-262 -750h-129l-262 963q-8 2 -57.5 10t-82.5 22zM606 1452q0 23 17.5 39t48.5 16q45 0 90 -45l237 -219l-32 -47 l-291 168q-70 41 -70 88z" />
<glyph unicode="&#x1e82;" horiz-adv-x="2076" d="M35 1409v25h508v-27q-70 -29 -168 -39l278 -1139l359 1135h92l401 -1206l320 1218q-57 10 -133 31v27h348v-23q-63 -29 -121 -37l-365 -1384h-161l-369 1108l-348 -1108h-133l-350 1376q-70 12 -158 43zM901 1657l234 217q47 47 92 47q31 0 47 -16.5t16 -38.5 q0 -47 -65 -88l-291 -168z" />
<glyph unicode="&#x1e83;" horiz-adv-x="1617" d="M16 995v25h478v-27q-70 -25 -156 -35l197 -755l249 715h109l256 -752l207 792q-84 14 -156 39v23h399v-23q-51 -20 -139 -34l-262 -963h-133l-256 750l-262 -750h-129l-262 963q-8 2 -57.5 10t-82.5 22zM678 1243l233 217q47 47 93 47q31 0 47 -16t16 -39q0 -47 -66 -88 l-290 -168z" />
<glyph unicode="&#x1e84;" horiz-adv-x="2076" d="M35 1409v25h508v-27q-70 -29 -168 -39l278 -1139l359 1135h92l401 -1206l320 1218q-57 10 -133 31v27h348v-23q-63 -29 -121 -37l-365 -1384h-161l-369 1108l-348 -1108h-133l-350 1376q-70 12 -158 43zM745 1700q0 43 25 69.5t66 26.5t66.5 -26.5t25.5 -69.5 q0 -41 -25.5 -66.5t-66.5 -25.5q-39 0 -65 25.5t-26 66.5zM1196 1700q0 43 24.5 69.5t65.5 26.5t66.5 -26.5t25.5 -69.5q0 -41 -25.5 -66.5t-66.5 -25.5t-65.5 25.5t-24.5 66.5z" />
<glyph unicode="&#x1e85;" horiz-adv-x="1617" d="M16 995v25h478v-27q-70 -25 -156 -35l197 -755l249 715h109l256 -752l207 792q-84 14 -156 39v23h399v-23q-51 -20 -139 -34l-262 -963h-133l-256 750l-262 -750h-129l-262 963q-8 2 -57.5 10t-82.5 22zM526 1286q0 43 24.5 69.5t65.5 26.5t67 -26.5t26 -69.5 q0 -41 -26 -66.5t-67 -25.5q-38 0 -64 25.5t-26 66.5zM977 1286q0 43 24.5 69.5t65.5 26.5t66.5 -26.5t25.5 -69.5q0 -41 -25.5 -66.5t-66.5 -25.5t-65.5 25.5t-24.5 66.5z" />
<glyph unicode="&#x1e8e;" horiz-adv-x="1454" d="M35 1407v27h514v-29q-88 -31 -174 -39l395 -666l420 672q-59 12 -131 37v25h358v-29q-47 -20 -112 -31l-478 -758v-555q84 -12 168 -38v-23h-522v23q94 31 166 38v557l-446 748q-80 12 -158 41zM639 1700q0 43 24.5 69.5t67.5 26.5q41 0 65.5 -26.5t24.5 -69.5 q0 -41 -25.5 -66.5t-64.5 -25.5q-43 0 -67.5 25.5t-24.5 66.5z" />
<glyph unicode="&#x1e8f;" horiz-adv-x="1155" d="M10 997v23h475v-25q-49 -18 -161 -34l288 -762l283 766q-82 6 -150 30v25h400v-23q-51 -18 -141 -34l-396 -1057q-41 -111 -76.5 -172.5t-93 -94t-151.5 -32.5q-98 0 -189 37l29 90q90 -29 158 -29q61 0 98 20.5t67.5 70.5t67.5 149l23 61l-394 959q-90 10 -137 32z M496 1286q0 43 24.5 69.5t67.5 26.5q41 0 65.5 -26.5t24.5 -69.5q0 -41 -25.5 -66.5t-64.5 -25.5q-43 0 -67.5 25.5t-24.5 66.5z" />
<glyph unicode="&#x1e92;" horiz-adv-x="1181" d="M53 0v47l854 1311h-676q-4 -43 -21 -119t-34 -104h-45v299h981v-35l-858 -1327h729q4 45 30.5 118.5t47.5 104.5h45l-31 -295h-1022zM487 -217q0 43 26 69.5t67 26.5t66.5 -26.5t25.5 -69.5q0 -41 -25.5 -66.5t-66.5 -25.5t-67 25.5t-26 66.5z" />
<glyph unicode="&#x1e93;" horiz-adv-x="962" d="M45 0v43l682 903h-516q-18 -131 -41 -184h-53v258h801v-57l-676 -893h538q6 37 25.5 96t34.5 88h55l-21 -254h-829zM391 -217q0 43 25.5 69.5t66.5 26.5t66.5 -26.5t25.5 -69.5q0 -41 -25.5 -66.5t-66.5 -25.5t-66.5 25.5t-25.5 66.5z" />
<glyph unicode="&#x1e97;" horiz-adv-x="784" d="M33 946v74h178v113q78 33 96 163h88v-276h307v-74h-307v-665q0 -123 48.5 -174.5t138.5 -51.5q59 0 133 25l14 -70q-92 -31 -209 -30q-145 0 -227 73.5t-82 227.5v665h-178zM33 1503q0 43 24.5 69.5t65.5 26.5t66.5 -26.5t25.5 -69.5q0 -41 -25.5 -66.5t-66.5 -25.5 q-39 0 -64.5 25.5t-25.5 66.5zM483 1503q0 43 24.5 69.5t65.5 26.5t67 -26.5t26 -69.5q0 -41 -26 -66.5t-67 -25.5t-65.5 25.5t-24.5 66.5z" />
<glyph unicode="&#x1e9e;" horiz-adv-x="1443" d="M16 0v25q96 27 168 36v902q0 231 135.5 361t401.5 130q131 0 233.5 -46t167 -118.5t88.5 -154.5l-307 -322q225 -14 352 -120.5t127 -276.5q0 -190 -129 -313t-387 -123q-176 0 -299 49v77q141 -55 291 -55q160 0 249 100.5t89 264.5q0 150 -94 238.5t-271 88.5h-122v50 l358 381q-37 90 -133 147t-225 57q-162 0 -250 -96t-88 -266v-955q31 -6 66.5 -17t54.5 -21v-23h-476z" />
<glyph unicode="&#x1ea0;" horiz-adv-x="1480" d="M14 0v27q35 12 82 23t78 16l502 1376h129l502 -1379q89 -13 159 -38v-25h-512v25q72 27 166 36l-110 312h-615l-112 -312q90 -10 170 -38v-23h-439zM420 444h565l-280 793zM647 -217q0 43 25.5 69.5t66.5 26.5t66.5 -26.5t25.5 -69.5q0 -41 -25.5 -66.5t-66.5 -25.5 t-66.5 25.5t-25.5 66.5z" />
<glyph unicode="&#x1ea1;" horiz-adv-x="1101" d="M61 274q0 158 113 228.5t287 70.5h303v164q0 117 -69.5 172.5t-196.5 55.5q-80 0 -165 -23.5t-157 -60.5l-14 63q82 43 185.5 68.5t211.5 25.5q182 0 286.5 -78.5t104.5 -209.5v-672q72 -14 142 -33v-16l-328 -33v149q-84 -90 -179.5 -127.5t-187.5 -37.5 q-164 0 -250 75.5t-86 218.5zM244 276q0 -111 60.5 -166t158.5 -55q84 0 171 52.5t130 121.5v271h-258q-131 0 -196.5 -58.5t-65.5 -165.5zM457 -217q0 43 25.5 69.5t66.5 26.5t66.5 -26.5t25.5 -69.5q0 -41 -25.5 -66.5t-66.5 -25.5t-66.5 25.5t-25.5 66.5z" />
<glyph unicode="&#x1ea2;" horiz-adv-x="1480" d="M14 0v27q35 12 82 23t78 16l502 1376h129l502 -1379q89 -13 159 -38v-25h-512v25q72 27 166 36l-110 312h-615l-112 -312q90 -10 170 -38v-23h-439zM420 444h565l-280 793zM625 2009q70 35 157 35q84 0 142.5 -41t58.5 -121q0 -70 -45 -108.5t-127 -47.5l-20 -131h-80 l-11 185h50q61 0 95 28.5t34 77.5q0 41 -32 67.5t-89 26.5q-60 1 -119 -32z" />
<glyph unicode="&#x1ea3;" horiz-adv-x="1101" d="M61 274q0 158 113 228.5t287 70.5h303v164q0 117 -69.5 172.5t-196.5 55.5q-80 0 -165 -23.5t-157 -60.5l-14 63q82 43 185.5 68.5t211.5 25.5q182 0 286.5 -78.5t104.5 -209.5v-672q72 -14 142 -33v-16l-328 -33v149q-84 -90 -179.5 -127.5t-187.5 -37.5 q-164 0 -250 75.5t-86 218.5zM244 276q0 -111 60.5 -166t158.5 -55q84 0 171 52.5t130 121.5v271h-258q-131 0 -196.5 -58.5t-65.5 -165.5zM430 1604q70 35 158 34q84 0 142 -41t58 -120q0 -70 -45 -109t-127 -47l-20 -131h-80l-10 184h49q61 0 95 29t34 78q0 41 -31.5 67.5 t-89.5 26.5q-59 0 -119 -33z" />
<glyph unicode="&#x1ea4;" horiz-adv-x="1480" d="M14 0v27q35 12 82 23t78 16l502 1376h129l502 -1379q89 -13 159 -38v-25h-512v25q72 27 166 36l-110 312h-615l-112 -312q90 -10 170 -38v-23h-439zM420 444h565l-280 793zM428 1663q63 43 143 116.5t125 133.5h86q43 -59 124 -132t145 -118l-76 -66q-61 45 -126 107.5 t-106 116.5h-8q-39 -54 -104.5 -116.5t-124.5 -107.5zM952 1886l166 162q66 68 121 68q23 0 37 -13.5t14 -34.5q0 -27 -22.5 -55t-69.5 -53l-215 -117z" />
<glyph unicode="&#x1ea5;" horiz-adv-x="1101" d="M61 274q0 158 113 228.5t287 70.5h303v164q0 117 -69.5 172.5t-196.5 55.5q-80 0 -165 -23.5t-157 -60.5l-14 63q82 43 185.5 68.5t211.5 25.5q182 0 286.5 -78.5t104.5 -209.5v-672q72 -14 142 -33v-16l-328 -33v149q-84 -90 -179.5 -127.5t-187.5 -37.5 q-164 0 -250 75.5t-86 218.5zM244 276q0 -111 60.5 -166t158.5 -55q84 0 171 52.5t130 121.5v271h-258q-131 0 -196.5 -58.5t-65.5 -165.5zM248 1249q63 43 143 117t125 133h86q43 -59 124 -132t144 -118l-75 -65q-61 45 -126 107.5t-106 115.5h-8q-39 -53 -104.5 -115.5 t-124.5 -107.5zM772 1473l166 161q66 68 121 68q23 0 37 -13.5t14 -33.5q0 -27 -22.5 -55.5t-69.5 -53.5l-215 -116z" />
<glyph unicode="&#x1ea6;" horiz-adv-x="1480" d="M14 0v27q35 12 82 23t78 16l502 1376h129l502 -1379q89 -13 159 -38v-25h-512v25q72 27 166 36l-110 312h-615l-112 -312q90 -10 170 -38v-23h-439zM205 2068q0 20 14 34t37 14q55 0 139 -84l148 -146l-33 -43l-193 105q-53 28 -82.5 61t-29.5 59zM420 444h565l-280 793z M428 1663q63 43 143 116.5t125 133.5h86q43 -59 124 -132t145 -118l-76 -66q-61 45 -126 107.5t-106 116.5h-8q-39 -53 -104.5 -116t-124.5 -108z" />
</font>
</defs>
</svg>
