<?xml version="1.0" standalone="no"?>
<!DOCTYPE svg PUBLIC "-//W3C//DTD SVG 1.1//EN" "http://www.w3.org/Graphics/SVG/1.1/DTD/svg11.dtd" >
<svg xmlns="http://www.w3.org/2000/svg">
<metadata></metadata>
<defs>
<font id="trironglight" horiz-adv-x="0" >
<font-face units-per-em="2048" ascent="1536" descent="-512" />
<missing-glyph horiz-adv-x="534" />
<glyph unicode="fi" horiz-adv-x="1366" d="M55 956v64h197v100q0 168 73.5 255t217.5 87q94 0 186 -30l-12 -62q-74 27 -133 27q-90 0 -140.5 -61.5t-50.5 -188.5v-127h664l86 10v-975q92 -12 166 -37v-18h-473v18q51 16 165 37v901h-608v-901q100 -14 166 -37v-18h-473v18q94 31 166 37v901h-197zM961 1231 q0 45 26.5 71.5t71.5 26.5t72.5 -26.5t27.5 -71.5q0 -43 -27.5 -69.5t-72.5 -26.5t-71.5 26.5t-26.5 69.5z" />
<glyph unicode="fl" horiz-adv-x="1359" d="M55 956v64h197v127q0 158 88 235.5t278 77.5q43 0 145.5 -15t168.5 -38l192 49v-1401q94 -14 166 -37v-18h-473v18q59 18 164 37v1274q-154 68 -336 68q-125 0 -188.5 -60.5t-63.5 -189.5v-127h314v-64h-314v-901q100 -14 166 -37v-18h-473v18q94 31 166 37v901h-197z " />
<glyph unicode="&#xe24;&#xe45;" horiz-adv-x="1726" d="M96 854v25q59 121 183 198.5t288 77.5q123 0 222.5 -40t158.5 -118q45 74 123 116t178 42q166 0 255 -83t89 -255v-1165h-141v1171q0 268 -227 269q-76 0 -139.5 -47.5t-94.5 -124.5q23 -61 23 -138v-1130h-144v1159q0 117 -80.5 196.5t-234.5 79.5q-109 0 -198 -50 t-144 -146q59 -20 126 -61.5t107 -84.5v-14q-94 -55 -130.5 -117.5t-36.5 -175.5v-139q31 25 86 25q66 0 111.5 -45.5t45.5 -126.5q0 -80 -50 -126t-134 -46q-203 0 -203 213v247q0 203 180 299q-90 72 -219 115zM244 156q0 -55 28.5 -88t69.5 -33q43 0 71.5 32.5t28.5 88.5 q0 55 -28.5 85.5t-71.5 30.5t-70.5 -30.5t-27.5 -85.5z" />
<glyph unicode="&#xe26;&#xe45;" horiz-adv-x="1802" d="M20 152q0 86 49.5 130t120.5 44q47 0 76 -19v133q0 104 30 177t124 122q-74 61 -234 115v25q59 123 180 199.5t287 76.5q121 0 218.5 -39t154.5 -115q47 72 124 113t175 41q166 0 255 -83t89 -255v-1165h-141v1171q0 268 -228 269q-74 0 -136 -45.5t-95 -120.5 q25 -61 25 -144v-1130h-144v1159q0 119 -78.5 197.5t-230.5 78.5q-109 0 -196 -49t-142 -147q63 -20 136 -62.5t112 -83.5v-14q-86 -53 -113.5 -113.5t-27.5 -179.5v-245q0 -213 -205 -213q-84 0 -134.5 46t-50.5 126zM100 156q0 -55 29 -88t72 -33q41 0 69.5 32.5 t28.5 88.5q0 55 -27.5 85.5t-70.5 30.5t-72 -30.5t-29 -85.5z" />
<glyph unicode=" "  horiz-adv-x="534" />
<glyph unicode="&#x09;" horiz-adv-x="534" />
<glyph unicode="&#xa0;" horiz-adv-x="534" />
<glyph unicode="!" horiz-adv-x="552" d="M180 74q0 45 25.5 70.5t70.5 25.5t71 -25.5t26 -70.5q0 -43 -25.5 -68.5t-71.5 -25.5q-45 0 -70.5 25.5t-25.5 68.5zM193 1331q-2 55 18 89t65 34q47 0 68 -35t18 -90l-51 -1085h-67z" />
<glyph unicode="&#x22;" horiz-adv-x="792" d="M158 1337v11q0 68 16 102.5t62 34.5q45 0 61 -35t16 -100v-13l-51 -432h-55zM479 1337v11q0 68 16.5 102.5t61.5 34.5t61.5 -35t16.5 -100v-13l-51 -432h-56z" />
<glyph unicode="#" horiz-adv-x="1728" d="M76 389v68h383l123 520h-373v65h389l90 381h105l-91 -381h492l90 381h105l-91 -381h351v-65h-367l-123 -520h357v-68h-373l-99 -409h-104l98 409h-491l-98 -409h-105l98 409h-366zM563 457h492l123 520h-492z" />
<glyph unicode="$" horiz-adv-x="1079" d="M102 166l19 272h37q23 -53 35 -245q55 -68 141 -108t201 -40q94 0 176 35t132 103.5t50 162.5q0 96 -51 164t-125 112t-199 99q-131 59 -206.5 105t-129 119t-53.5 177q0 154 111.5 238t306.5 94v154h67v-154q244 -6 375 -145l-16 -228h-39q-12 33 -21.5 94.5 t-13.5 118.5q-100 94 -274 95q-174 0 -261.5 -64.5t-87.5 -183.5q0 -72 43 -124t108 -89t177 -88q143 -68 228.5 -119t146.5 -138t61 -214q0 -166 -118.5 -271.5t-307.5 -115.5v-175h-67v173q-147 4 -262 55t-183 131z" />
<glyph unicode="%" horiz-adv-x="1832" d="M72 1059q0 180 96 283.5t278 103.5q180 0 277.5 -103.5t97.5 -283.5q0 -182 -96 -285.5t-279 -103.5q-182 0 -278 103.5t-96 285.5zM199 1059q0 -127 59 -226.5t188 -99.5t188.5 99.5t59.5 226.5q0 125 -59.5 224t-188.5 99t-188 -99t-59 -224zM293 12l1190 1456l55 -47 l-1194 -1452zM1012 367q0 182 96 284.5t278 102.5t278.5 -103.5t96.5 -283.5t-97 -283.5t-278 -103.5q-182 0 -278 103t-96 284zM1139 367q0 -125 59 -224.5t188 -99.5q130 0 189 99.5t59 224.5q0 127 -59 226t-189 99q-129 0 -188 -99t-59 -226z" />
<glyph unicode="&#x26;" horiz-adv-x="1497" d="M98 346q0 102 49.5 180t124 134.5t191.5 123.5q-203 244 -203 385q0 135 92 210t252 75q156 0 240 -69.5t84 -198.5q0 -86 -43 -153.5t-107.5 -119t-167.5 -114.5q66 -74 169.5 -176.5t133.5 -133.5q63 -59 203 -198q129 160 160 371h74q-35 -244 -185 -418 q156 -156 240 -244h-174l-154 156q-100 -84 -228 -130t-276 -46q-213 0 -344 98t-131 268zM240 352q0 -147 102 -227t250 -80q252 0 438 158l-112 110q-297 293 -410 420q-129 -84 -198.5 -171t-69.5 -210zM395 1182q0 -74 42 -154t132 -184q137 82 209 157.5t72 182.5 q0 98 -61.5 152.5t-163.5 54.5q-104 0 -167 -54.5t-63 -154.5z" />
<glyph unicode="'" horiz-adv-x="471" d="M158 1337v11q0 68 16 102.5t62 34.5q45 0 61 -35t16 -100v-13l-51 -432h-55z" />
<glyph unicode="(" horiz-adv-x="512" d="M78 586q0 514 305 872h70q-141 -193 -198.5 -397.5t-57.5 -474.5q0 -262 62.5 -474t193.5 -388h-70q-305 352 -305 862z" />
<glyph unicode=")" horiz-adv-x="512" d="M57 1458h72q303 -358 303 -872q0 -510 -303 -862h-70q142 192 199 392.5t57 467.5q0 268 -62.5 482t-195.5 392z" />
<glyph unicode="*" horiz-adv-x="1081" d="M143 1190q0 25 19.5 37t46.5 12q33 0 65 -16l238 -129l-33 260q-2 8 -2 22q0 39 15.5 65.5t50.5 26.5q33 0 48 -30.5t15 -65.5l-2 -18l-37 -260l240 129q33 16 65 16q27 0 46.5 -12.5t19.5 -36.5q0 -27 -27.5 -49.5t-54.5 -30.5l-262 -70l201 -178q18 -16 32.5 -41.5 t16.5 -48.5q0 -20 -14.5 -33.5t-34.5 -13.5q-27 0 -53.5 16.5t-41.5 36.5l-159 234l-158 -234q-12 -20 -41 -36.5t-53 -16.5q-21 0 -35 14.5t-14 34.5q0 23 14 46.5t35 41.5l198 178l-262 70q-27 8 -54.5 30.5t-27.5 49.5z" />
<glyph unicode="+" horiz-adv-x="1191" d="M125 657v82h399v414h144v-414h399v-82h-399v-411h-144v411h-399z" />
<glyph unicode="," horiz-adv-x="493" d="M139 80q0 45 28 74.5t75 29.5q59 0 89.5 -40t30.5 -99q0 -74 -40.5 -166t-98.5 -147l-55 43q82 102 90 221q-10 -6 -33 -6q-35 0 -60.5 25.5t-25.5 64.5z" />
<glyph unicode="-" horiz-adv-x="747" d="M86 522v88h573v-88h-573z" />
<glyph unicode="." horiz-adv-x="493" d="M143 82q0 45 28 73.5t75 28.5t74.5 -28.5t27.5 -73.5t-27.5 -73.5t-74.5 -28.5t-75 28.5t-28 73.5z" />
<glyph unicode="/" horiz-adv-x="761" d="M72 0l542 1454h80l-544 -1454h-78z" />
<glyph unicode="0" horiz-adv-x="1173" d="M96 717q0 354 116 545.5t374 191.5q260 0 375.5 -191.5t115.5 -545.5t-115.5 -545.5t-375.5 -191.5q-258 0 -374 191t-116 546zM244 717q0 -322 79.5 -497t262.5 -175q184 0 264 174t80 498q0 322 -80 497t-264 175q-182 0 -262 -175.5t-80 -496.5z" />
<glyph unicode="1" horiz-adv-x="1173" d="M250 1235v74l420 170v-1420q139 -4 270 -28v-31h-686v29q143 31 270 30v1293z" />
<glyph unicode="2" horiz-adv-x="1173" d="M104 0v88q29 111 92.5 200t134 154.5t187.5 157.5q117 90 185.5 155.5t114.5 149.5t46 191q0 123 -81 208t-230 85q-96 0 -192.5 -38t-157.5 -98l-35 54q70 61 176.5 104t230.5 43q190 0 313.5 -88t123.5 -272q0 -119 -53.5 -212.5t-129 -162t-208.5 -166.5 q-113 -82 -184.5 -142.5t-128 -138t-79.5 -172.5h725q2 33 20.5 92.5t35.5 92.5h39l-23 -285h-922z" />
<glyph unicode="3" horiz-adv-x="1173" d="M127 127l35 51q59 -55 164.5 -94t201.5 -39q160 0 254.5 98.5t94.5 262.5q0 90 -41 163.5t-116 116.5t-173 43h-152v68h152q100 0 169.5 47t104.5 119.5t35 148.5q0 121 -80 199t-231 78q-96 0 -191.5 -37t-158.5 -97l-33 52q70 61 174 104t231 43q193 0 316 -83 t123 -259q0 -125 -80 -223t-203 -119v-10q117 -20 207 -111.5t90 -238.5q0 -150 -65.5 -246t-171 -140t-228.5 -44q-129 0 -243.5 41.5t-184.5 105.5z" />
<glyph unicode="4" horiz-adv-x="1173" d="M74 356v93l661 985h156v-983h223l-20 -95h-203v-297q106 -2 209 -30v-29h-568v29q115 29 213 28v299h-671zM162 451h583v870h-6z" />
<glyph unicode="5" horiz-adv-x="1173" d="M129 127l33 51q59 -57 162.5 -95t197.5 -38q113 0 195 53.5t125 142.5t43 197q0 166 -80 276.5t-248 110.5q-100 0 -182 -37.5t-160 -113.5l-51 20l82 740h715l-13 -97h-641l-61 -557q139 113 340 113q229 0 337.5 -130t108.5 -323q0 -125 -56 -230.5t-166 -167.5 t-263 -62q-129 0 -239.5 40.5t-178.5 106.5z" />
<glyph unicode="6" horiz-adv-x="1173" d="M115 627q0 414 142 620.5t405 206.5q129 0 216 -41t152 -106l-35 -52q-57 57 -143 95.5t-182 38.5q-158 0 -280 -156t-136 -565q37 117 138.5 177t217.5 60q205 0 330 -119.5t125 -330.5q0 -219 -124 -347t-351 -128q-475 0 -475 647zM279 449q0 -109 36.5 -201 t108.5 -147.5t170 -55.5q156 0 241 108.5t85 282.5q0 178 -86 291t-240 113q-141 0 -228 -108.5t-87 -282.5z" />
<glyph unicode="7" horiz-adv-x="1173" d="M119 1151v283h925v-52q-135 -147 -256.5 -395t-202.5 -516t-100 -471h-149q63 416 216 761t335 576h-688q-2 -8 -10.5 -77.5t-28.5 -108.5h-41z" />
<glyph unicode="8" horiz-adv-x="1173" d="M106 387q0 150 81 244t219 133q-106 31 -181 128t-75 216q0 166 118.5 256t317.5 90t317.5 -90t118.5 -256q0 -119 -75 -217t-181 -127q137 -41 218 -134t81 -243q0 -176 -114.5 -291.5t-364.5 -115.5t-365 115.5t-115 291.5zM252 381q0 -109 47 -184.5t123 -113.5 t162 -38t163.5 39t125 114.5t47.5 182.5q0 164 -89.5 255t-244.5 91q-156 0 -245 -91t-89 -255zM295 1114q0 -86 33.5 -159.5t99.5 -118.5t158 -45t158.5 45t100.5 118.5t34 159.5q0 133 -86 204t-207 71q-127 0 -209 -70t-82 -205z" />
<glyph unicode="9" horiz-adv-x="1173" d="M111 977q0 217 124.5 347t350.5 130q477 0 477 -647q0 -416 -144.5 -621.5t-404.5 -205.5q-131 0 -219 40.5t-150 104.5l33 53q57 -59 142.5 -96t183.5 -37q160 0 285.5 155.5t132.5 561.5q-31 -111 -135.5 -175.5t-221.5 -64.5q-205 0 -329.5 122t-124.5 333zM256 993 q0 -178 85 -290.5t241 -112.5q141 0 228 109.5t87 281.5q0 109 -38 202t-109.5 149.5t-169.5 56.5q-154 0 -239 -111t-85 -285z" />
<glyph unicode=":" horiz-adv-x="493" d="M143 82q0 45 28 73.5t75 28.5t74.5 -28.5t27.5 -73.5t-27.5 -73.5t-74.5 -28.5t-75 28.5t-28 73.5zM143 924q0 47 28 74.5t75 27.5t74.5 -27.5t27.5 -74.5q0 -45 -27.5 -73t-74.5 -28t-75 28t-28 73z" />
<glyph unicode=";" horiz-adv-x="493" d="M139 80q0 45 28 74.5t75 29.5q59 0 89.5 -40t30.5 -99q0 -74 -40.5 -166t-98.5 -147l-55 43q82 102 90 221q-14 -6 -33 -6q-35 0 -60.5 25.5t-25.5 64.5zM143 924q0 47 28 74.5t75 27.5t74.5 -27.5t27.5 -74.5q0 -45 -27.5 -73t-74.5 -28t-75 28t-28 73z" />
<glyph unicode="&#x3c;" horiz-adv-x="1191" d="M100 649v60l985 499v-92l-847 -436l847 -436v-94z" />
<glyph unicode="=" horiz-adv-x="1191" d="M111 416v82h970v-82h-970zM111 807v82h970v-82h-970z" />
<glyph unicode="&#x3e;" horiz-adv-x="1191" d="M106 150v94l848 436l-848 436v92l986 -499v-60z" />
<glyph unicode="?" horiz-adv-x="933" d="M66 1305q74 68 174 108.5t223 40.5q172 0 285.5 -82t113.5 -254q0 -74 -26.5 -135t-65.5 -107.5t-106 -111.5q-74 -74 -119 -128t-77 -130t-32 -174h-84q0 110 30 195t72 143.5t111 134.5q84 94 123 158.5t39 154.5q0 121 -71.5 196t-229.5 75q-92 0 -178 -37t-152 -97z M299 76q0 45 25.5 70.5t70.5 25.5t71 -25.5t26 -70.5t-26 -70.5t-71 -25.5t-70.5 25.5t-25.5 70.5z" />
<glyph unicode="@" horiz-adv-x="1648" d="M76 584q0 221 96 401t275.5 283.5t416.5 103.5q205 0 363.5 -81t249 -229.5t90.5 -344.5q0 -123 -40 -227.5t-113 -165t-163 -60.5q-70 0 -125 46t-67 124h-8q-33 -82 -113 -126t-166 -44q-154 0 -233.5 90t-79.5 244q0 115 48 208t138 147.5t213 54.5q70 0 147.5 -15.5 t139.5 -46.5q-27 -408 -31 -436l-4 -29q0 -72 46 -112.5t104 -40.5q63 0 116.5 49t83 138t29.5 204q0 176 -78 309t-217 206t-317 73q-215 0 -377 -91.5t-250 -253t-88 -372.5q0 -295 165 -466t482 -171q94 0 200.5 18.5t204.5 57.5v-70q-203 -74 -415 -74q-228 0 -390.5 88 t-247.5 246t-85 365zM573 584q0 -123 55.5 -188.5t153.5 -65.5q99 0 161.5 70.5t70.5 193.5l22 309q-39 16 -87 23.5t-87 7.5q-127 0 -208 -97.5t-81 -252.5z" />
<glyph unicode="A" horiz-adv-x="1443" d="M14 0v23q78 29 160 36l500 1383h96l500 -1385q88 -10 160 -37v-20h-469v20q66 27 167 35l-112 320h-637l-115 -320q106 -10 170 -37v-18h-420zM401 438h592l-295 828z" />
<glyph unicode="B" horiz-adv-x="1214" d="M84 0v20q66 25 166 37v1319q-102 14 -166 35v23h559q238 0 341 -82t103 -256q0 -117 -67.5 -212.5t-200.5 -119.5v-8q176 -27 252 -130.5t76 -236.5q0 -195 -104.5 -292t-335.5 -97h-623zM395 63h299q162 0 238 82t76 248q0 158 -89.5 244t-250.5 86h-273v-660zM395 786 h228q158 0 239.5 82t81.5 224q0 143 -73.5 209.5t-239.5 66.5h-236v-582z" />
<glyph unicode="C" horiz-adv-x="1236" d="M102 717q0 344 167 540.5t472 196.5q252 0 402 -135l-17 -234h-39q-20 57 -36 218q-45 37 -118 61.5t-155 24.5q-268 0 -398 -183.5t-130 -488.5q0 -309 124 -490.5t396 -181.5q74 0 171 27.5t177 79.5l23 -46q-70 -61 -173.5 -93.5t-226.5 -32.5q-313 0 -476 194.5 t-163 542.5z" />
<glyph unicode="D" horiz-adv-x="1339" d="M88 0v20q84 29 164 35v1321q-90 14 -164 37v21h594q301 0 439.5 -181.5t138.5 -535.5q0 -352 -138.5 -534.5t-441.5 -182.5h-592zM397 63h279q238 0 337 169t99 485q0 313 -98.5 482t-333.5 169h-283v-1305z" />
<glyph unicode="E" horiz-adv-x="1222" d="M88 0v20q82 27 170 35v1321q-84 10 -170 37v21h1006v-277h-35q-14 27 -28.5 97.5t-18.5 113.5h-609v-620h451q4 35 14.5 86t22.5 81h27v-399h-27q-12 33 -22.5 83t-14.5 85h-451v-621h613q2 39 25.5 110t41.5 101h37l-26 -274h-1006z" />
<glyph unicode="F" horiz-adv-x="1138" d="M88 0v20q74 25 170 35v1321q-102 14 -170 37v21h994v-277h-33q-14 27 -28.5 97.5t-19.5 113.5h-598v-620h451q4 35 14.5 86t22.5 81h27v-399h-27q-12 33 -22.5 83t-14.5 85h-451v-629q115 -16 170 -37v-18h-485z" />
<glyph unicode="G" horiz-adv-x="1339" d="M78 717q0 227 77.5 393t225 255t352.5 89q135 0 267.5 -37t197.5 -98l-16 -234h-39q-23 59 -37 218q-41 33 -143.5 59.5t-190.5 26.5q-270 0 -408.5 -184.5t-138.5 -487.5q0 -307 125 -489.5t398 -182.5q61 0 144 17.5t142 50.5v524q-96 16 -164 37v20h447v-18 q-68 -33 -143 -41v-533q-76 -59 -201 -90.5t-254 -31.5q-313 0 -477 194.5t-164 542.5z" />
<glyph unicode="H" horiz-adv-x="1595" d="M88 0v20q84 29 164 35v1321q-90 14 -164 37v21h471v-21q-45 -16 -76.5 -23.5t-85.5 -13.5v-616h799v616q-86 12 -160 37v21h471v-23q-84 -29 -166 -35v-1321q109 -16 166 -37v-18h-471v18q47 18 79 26t81 11v641h-799v-641q86 -12 162 -37v-18h-471z" />
<glyph unicode="I" horiz-adv-x="671" d="M96 0v20q74 23 166 35v1321q-94 14 -166 37v21h479v-21q-70 -23 -167 -37v-1321q98 -14 167 -37v-18h-479z" />
<glyph unicode="J" horiz-adv-x="935" d="M45 74l25 41q104 -59 229 -60q238 0 238 230v1089q-84 10 -164 35v25h473v-23q-78 -27 -164 -35v-1095q0 -143 -91 -222t-249 -79q-180 0 -297 94z" />
<glyph unicode="K" horiz-adv-x="1460" d="M88 0v20q84 27 166 35v1321q-94 14 -166 37v21h479v-21q-76 -25 -168 -37v-717l639 703q-6 14 -26.5 20.5t-44 10.5t-29.5 6q-39 4 -51 8v27h391v-27q-16 -4 -45 -9t-52.5 -13.5t-41.5 -24.5l-486 -531l617 -774q119 -23 168 -37v-18h-285l-588 737l-166 -184v-498 q96 -14 168 -37v-18h-479z" />
<glyph unicode="L" horiz-adv-x="1189" d="M90 0v20q70 25 170 35v1321q-90 12 -168 37v21h479v-21q-74 -25 -165 -37v-1313h589q2 39 27 109t43 102h35l-27 -274h-983z" />
<glyph unicode="M" horiz-adv-x="1835" d="M88 0v18q84 27 166 35v1323q-94 14 -166 37v21h346l475 -1139l498 1139h340v-21q-59 -20 -166 -39v-1321q82 -8 166 -35v-18h-477v18q74 25 166 37v1268l-512 -1163h-84l-504 1171v-1276q86 -12 166 -37v-18h-414z" />
<glyph unicode="N" horiz-adv-x="1589" d="M88 0v18q84 27 166 35v1323q-94 14 -166 37v21h336l829 -1244v1188q-102 14 -166 35v21h412v-21q-51 -16 -166 -37v-1376h-90l-907 1350v-1295q86 -12 166 -37v-18h-414z" />
<glyph unicode="O" horiz-adv-x="1429" d="M78 717q0 346 165 541.5t472 195.5t472 -195.5t165 -541.5t-165 -541.5t-472 -195.5t-472 195.5t-165 541.5zM223 717q0 -305 124 -488.5t368 -183.5q241 0 366 183.5t125 488.5q0 303 -125 487.5t-366 184.5q-242 0 -367 -184.5t-125 -487.5z" />
<glyph unicode="P" horiz-adv-x="1222" d="M84 0v20q86 27 166 35v1321q-86 12 -162 37v21h596q248 0 358.5 -111t110.5 -315q0 -199 -108.5 -318t-325.5 -119h-324v-516q98 -14 168 -37v-18h-479zM395 635h297q160 0 239 102.5t79 270.5t-78 264t-240 96h-297v-733z" />
<glyph unicode="Q" horiz-adv-x="1429" d="M78 717q0 346 165 541.5t472 195.5t472 -195.5t165 -541.5q0 -313 -136.5 -505t-390.5 -226q21 -107 112 -174.5t241 -81.5v-56q-215 16 -339 95t-153 211q-295 10 -451.5 204.5t-156.5 532.5zM223 717q0 -303 126 -487.5t366 -184.5t365.5 184.5t125.5 487.5t-126 487.5 t-365 184.5q-240 0 -366 -184.5t-126 -487.5z" />
<glyph unicode="R" horiz-adv-x="1333" d="M88 0v20q86 27 168 35v1321q-82 12 -164 37v21h639q432 0 432 -406q0 -178 -89 -283.5t-267 -123.5l321 -566q9 -2 62 -11t86 -24v-20h-260l-344 616h-271v-561q94 -14 166 -37v-18h-479zM401 680h295q166 0 245 92t79 256q0 340 -324 340h-295v-688z" />
<glyph unicode="S" horiz-adv-x="1079" d="M70 166l18 272h37q23 -59 35 -245q53 -68 140 -108t200 -40q94 0 177 35t133 103.5t50 162.5q0 98 -50 166t-123 110t-202 101q-129 57 -205.5 103t-130 119t-53.5 177q0 164 123 248t334 84q268 0 403 -145l-18 -228h-37q-23 55 -37 213q-47 45 -116.5 70t-155.5 25 q-174 0 -261 -64.5t-87 -183.5q0 -72 43 -125t107.5 -90t176.5 -88q139 -63 226.5 -116.5t149 -140.5t61.5 -212q0 -117 -61.5 -205t-169 -136t-242.5 -48q-156 0 -277 52t-188 134z" />
<glyph unicode="T" horiz-adv-x="1282" d="M88 1141v293h1104v-293h-35q-14 29 -28.5 105.5t-18.5 121.5h-397v-1313q106 -16 172 -37v-18h-490v20q78 23 172 35v1313h-397q-4 -45 -18.5 -122t-28.5 -105h-35z" />
<glyph unicode="U" horiz-adv-x="1556" d="M86 1413v21h477v-21q-72 -25 -166 -37v-962q0 -201 113 -285t307 -84q184 0 295 87t111 282v964q-84 8 -168 35v21h415v-21q-74 -23 -170 -39v-942q0 -233 -131 -342.5t-389 -109.5h-2q-526 0 -526 452v944q-94 14 -166 37z" />
<glyph unicode="V" horiz-adv-x="1443" d="M37 1413v21h469v-23q-66 -27 -172 -35l411 -1265l412 1265q-117 14 -172 37v21h420v-23q-80 -31 -154 -41l-469 -1386h-123l-469 1388q-90 14 -153 41z" />
<glyph unicode="W" horiz-adv-x="2054" d="M37 1413v21h467v-23q-66 -27 -168 -35l297 -1194l362 1178h80l408 -1229l334 1249q-59 10 -129 31v23h327v-19q-66 -29 -119 -37l-370 -1394h-125l-387 1171l-361 -1171h-100l-356 1388q-86 16 -160 41z" />
<glyph unicode="X" horiz-adv-x="1388" d="M33 0v20q33 14 110 31l496 690l-408 631q-80 16 -145 39v23h469v-23q-78 -29 -182 -37l340 -530l383 534q-82 14 -131 35v21h327v-21q-61 -27 -116 -35l-424 -594l467 -727q71 -12 147 -37v-20h-469v18q74 29 180 41l-399 621l-451 -629q70 -10 131 -33v-18h-325z" />
<glyph unicode="Y" horiz-adv-x="1419" d="M37 1411v23h471v-23q-80 -29 -174 -37l407 -690l435 694q-72 14 -132 35v21h336v-23q-45 -20 -108 -31l-484 -766v-559q98 -14 168 -37v-18h-479v18q84 29 166 37v559l-450 758q-76 12 -156 39z" />
<glyph unicode="Z" horiz-adv-x="1155" d="M55 0v41l867 1327h-701q-4 -43 -18.5 -113.5t-28.5 -97.5h-35v277h942v-33l-868 -1338h754q2 39 25.5 110t41.5 101h37l-27 -274h-989z" />
<glyph unicode="[" horiz-adv-x="598" d="M131 -256v1694h371v-64h-256v-1562h256v-68h-371z" />
<glyph unicode="\" horiz-adv-x="673" d="M25 1454h77l547 -1454h-80z" />
<glyph unicode="]" horiz-adv-x="598" d="M96 -188h256v1562h-256v64h371v-1694h-371v68z" />
<glyph unicode="^" horiz-adv-x="1134" d="M102 641l402 836h127l401 -836h-110l-355 762l-354 -762h-111z" />
<glyph unicode="_" horiz-adv-x="933" d="M-6 -166h946v-67h-946v67z" />
<glyph unicode="`" horiz-adv-x="1007" d="M326 1434q0 18 14 32.5t39 14.5q39 0 78 -39l229 -205l-27 -39l-278 162q-55 31 -55 74z" />
<glyph unicode="a" horiz-adv-x="1071" d="M68 272q0 156 110.5 225.5t280.5 69.5h319v172q0 119 -73.5 177.5t-206.5 58.5q-147 0 -316 -84l-12 57q78 41 176 65.5t201 24.5q174 0 273.5 -77.5t99.5 -208.5v-678q76 -14 143 -33v-14l-285 -29v156q-90 -96 -189.5 -135t-191.5 -39q-157 0 -243 75.5t-86 216.5z M209 274q0 -115 65.5 -172t169.5 -57q93 0 190 57.5t144 130.5v271h-284q-143 0 -214 -60.5t-71 -169.5z" />
<glyph unicode="b" horiz-adv-x="1189" d="M25 1407v12l284 31v-567q90 92 184.5 123.5t190.5 31.5q199 0 321.5 -130t122.5 -373q0 -283 -123.5 -419t-342.5 -136q-125 0 -223.5 46t-145.5 134q-8 -72 -35 -160h-90v1372q-90 16 -143 35zM309 344q0 -80 39 -149.5t115 -110.5t178 -41q182 0 264 131t82 350 q0 223 -84 337t-270 114q-96 0 -180 -49t-144 -125v-457z" />
<glyph unicode="c" horiz-adv-x="980" d="M61 508q0 168 66 286.5t183.5 181t273.5 62.5q211 0 350 -116l-14 -213h-33q-20 49 -31 196q-109 70 -229 70q-207 0 -314.5 -125t-107.5 -356q0 -117 44 -220.5t137 -168t230 -64.5q82 0 165 26.5t143 69.5l14 -47q-57 -47 -150.5 -78.5t-209.5 -31.5q-156 0 -273 66.5 t-180.5 185t-63.5 276.5z" />
<glyph unicode="d" horiz-adv-x="1173" d="M61 512q0 248 128 387t341 139q96 0 183.5 -30.5t167.5 -120.5v485q-90 16 -144 35v12l285 31v-1376q84 -14 143 -33v-12l-250 -35q-12 59 -20 178q-53 -96 -154.5 -144t-228.5 -48q-213 0 -332 130t-119 402zM203 510q0 -217 83 -342t263 -125q100 0 175 41t116 111.5 t41 154.5v453q-68 80 -142.5 126t-169.5 46q-184 0 -275 -129t-91 -336z" />
<glyph unicode="e" horiz-adv-x="1060" d="M57 508q0 252 133.5 391t366.5 139q145 0 244.5 -65.5t146.5 -174t47 -241.5v-43h-794q0 -207 107.5 -340t309.5 -133q82 0 168 26.5t148 69.5l14 -47q-57 -47 -153.5 -78.5t-212.5 -31.5q-156 0 -275 66.5t-184.5 186t-65.5 275.5zM203 578h663q0 156 -73.5 276.5 t-231.5 120.5q-166 0 -255 -111.5t-103 -285.5z" />
<glyph unicode="f" horiz-adv-x="784" d="M55 956v64h197v100q0 168 73.5 255t217.5 87q94 0 186 -30l-12 -62q-74 27 -133 27q-90 0 -140.5 -61.5t-50.5 -188.5v-127h314v-64h-314v-901q106 -16 172 -37v-18h-479v18q94 31 166 37v901h-197z" />
<glyph unicode="g" horiz-adv-x="1048" d="M78 -53q0 119 117 186q-47 25 -71 64t-24 82q0 92 115 161q-63 43 -97 109.5t-34 152.5q0 158 111.5 247t304.5 89q201 0 313 -96q31 29 53.5 70t22.5 65h115q-10 -49 -46 -99t-98 -89q55 -76 55 -187q0 -158 -111.5 -246.5t-303.5 -88.5q-119 0 -211 34 q-37 -23 -56.5 -51t-19.5 -55q0 -41 40 -53.5t132 -12.5h285q157 0 235 -67.5t78 -188.5q0 -147 -131 -213.5t-358 -66.5q-190 0 -303 65.5t-113 188.5zM193 -45q0 -96 84.5 -145.5t228.5 -49.5q160 0 254 48.5t94 140.5q0 76 -48 114.5t-169 38.5h-297q-47 0 -78 9 q-41 -37 -55 -74t-14 -82zM225 702q0 -119 71 -195.5t204 -76.5t203.5 77t70.5 195q0 119 -70.5 196t-203.5 77t-204 -77t-71 -196z" />
<glyph unicode="h" horiz-adv-x="1310" d="M68 0v18q84 29 165 37v1317q-90 16 -143 35v12l285 31v-573q74 70 179 115.5t226 45.5q147 0 235.5 -77.5t88.5 -208.5v-697q94 -14 166 -37v-18h-469v18q78 25 162 37v678q0 125 -63.5 183.5t-166.5 58.5q-90 0 -188.5 -45t-169.5 -123v-752q94 -14 160 -37v-18h-467z " />
<glyph unicode="i" horiz-adv-x="585" d="M55 0v18q51 16 166 37v899q-90 16 -143 35v12l284 31v-977q92 -12 166 -37v-18h-473zM178 1231q0 45 27.5 71.5t73.5 26.5q45 0 72.5 -26.5t27.5 -71.5q0 -43 -27.5 -69.5t-72.5 -26.5q-46 0 -73.5 26.5t-27.5 69.5z" />
<glyph unicode="j" horiz-adv-x="598" d="M-27 -211l13 59q55 -28 124 -28h5q160 0 159 178v956q-90 16 -143 35v12l285 31v-1028q0 -129 -68.5 -190.5t-189.5 -61.5q-109 0 -185 37zM231 1231q0 45 27 71.5t72 26.5t72.5 -26.5t27.5 -71.5q0 -43 -27.5 -69.5t-72.5 -26.5t-72 26.5t-27 69.5z" />
<glyph unicode="k" horiz-adv-x="1241" d="M68 0v18q86 29 165 37v1317q-90 16 -143 35v12l285 31v-993l456 475q12 12 17 22q-4 4 -72 25q-43 10 -71 22v19h407v-19q-20 -8 -86 -26q-68 -14 -86 -29l-342 -354l446 -537q86 -12 160 -37v-18h-258l-428 508l-143 -148v-305q100 -14 166 -37v-18h-473z" />
<glyph unicode="l" horiz-adv-x="610" d="M68 0v18q63 18 165 37v1317q-90 16 -143 35v12l285 31v-1395q100 -14 166 -37v-18h-473z" />
<glyph unicode="m" horiz-adv-x="1875" d="M68 0v18q76 25 165 37v901q-90 16 -143 35v13l285 30v-151q55 61 139 108t184 47q111 0 189 -45t112 -127q57 72 145.5 122t201.5 50q145 0 234 -77.5t89 -208.5v-697q94 -14 166 -37v-18h-467v18q74 25 160 37v678q0 125 -63.5 183.5t-166.5 58.5q-80 0 -154.5 -45 t-129.5 -115q6 -31 6 -63v-697q94 -14 158 -37v-18h-455v18q74 25 160 37v678q0 127 -61.5 184.5t-164.5 57.5q-78 0 -151.5 -46t-130.5 -118v-756q94 -14 166 -37v-18h-473z" />
<glyph unicode="n" horiz-adv-x="1310" d="M68 0v18q76 25 165 37v901q-90 16 -143 35v13l285 30v-157q74 70 179 115.5t226 45.5q147 0 235.5 -77.5t88.5 -208.5v-697q103 -14 166 -37v-18h-467v18q68 25 160 37v678q0 125 -63.5 183.5t-166.5 58.5q-90 0 -188.5 -45t-169.5 -123v-752q94 -14 166 -37v-18h-473z " />
<glyph unicode="o" horiz-adv-x="1155" d="M55 508q0 248 139.5 389t383.5 141t382 -141t138 -389t-138.5 -388t-381.5 -140q-244 0 -383.5 140t-139.5 388zM197 508q0 -219 102 -342t279 -123q174 0 276 124t102 341t-102 342t-276 125q-176 0 -278.5 -125t-102.5 -342z" />
<glyph unicode="p" horiz-adv-x="1196" d="M12 -483q70 23 166 37v1402q-84 14 -143 33v15l284 30v-155q142 159 364 159h3q213 0 334 -127t121 -376q0 -285 -124 -420t-347 -135q-113 0 -207 39.5t-144 123.5v-589q96 -14 164 -37v-21h-471v21zM319 344q0 -80 39 -149.5t115 -110.5t178 -41q183 0 264.5 131 t81.5 350q0 225 -81.5 338t-268.5 113q-96 0 -181 -50.5t-147 -129.5v-451z" />
<glyph unicode="q" horiz-adv-x="1198" d="M55 526q0 166 57.5 282t159 173t230.5 57q231 0 375 -157v153l286 -30v-13q-47 -16 -145 -35v-1405q102 -14 166 -34v-21h-473v19q76 27 166 39v591q-49 -86 -143.5 -125.5t-207.5 -39.5q-219 0 -345 132t-126 414zM199 524q0 -219 81.5 -350t264.5 -131q102 0 178 41 t115 110.5t39 149.5v457q-59 76 -144.5 125t-179.5 49q-184 0 -269 -115t-85 -336z" />
<glyph unicode="r" horiz-adv-x="792" d="M41 0v18q63 23 166 37v901q-90 16 -144 35v13l269 30l14 -170h8q31 70 97.5 122t148.5 52q90 0 156 -41l-27 -79q-48 36 -110 36h-3q-147 0 -268 -190v-709q96 -14 166 -37v-18h-473z" />
<glyph unicode="s" horiz-adv-x="917" d="M82 799q0 121 103.5 180t260.5 59q219 0 340 -102l-18 -207h-37q-12 29 -19 83t-7 101q-49 33 -102.5 47.5t-127.5 14.5q-117 0 -184.5 -39t-67.5 -123q0 -59 37 -101t91.5 -69t152.5 -65q113 -43 177 -78t111.5 -92.5t47.5 -141.5q0 -137 -104.5 -211.5t-268.5 -74.5h-4 q-245 0 -377 118l14 258h35q10 -27 19.5 -104.5t11.5 -130.5q90 -78 252 -78q135 0 207.5 58.5t72.5 156.5q0 57 -36.5 96t-90 65.5t-147.5 61.5q-111 41 -178.5 76t-115.5 94.5t-48 147.5z" />
<glyph unicode="t" horiz-adv-x="761" d="M43 956v64h184v135q61 33 76 141h66v-276h311v-64h-311v-675q0 -127 48 -181.5t142 -54.5q55 0 133 25l13 -62q-83 -28 -180 -28h-7q-139 0 -215 74.5t-76 226.5v675h-184z" />
<glyph unicode="u" horiz-adv-x="1259" d="M51 991v13l285 30v-749q0 -127 62.5 -184.5t166.5 -57.5q86 0 187.5 42t171.5 108v763q-86 14 -142 35v13l283 30v-975q84 -14 143 -32v-15l-284 -28v141q-76 -61 -180.5 -103t-217.5 -42q-152 0 -241.5 76.5t-89.5 207.5v692q-90 16 -144 35z" />
<glyph unicode="v" horiz-adv-x="1124" d="M18 1001v19h435v-25q-63 -23 -158 -30l285 -840l299 842q-100 12 -156 32v21h383v-19q-47 -18 -137 -32l-355 -969h-114l-344 969q-92 14 -138 32z" />
<glyph unicode="w" horiz-adv-x="1587" d="M18 1001v19h437v-25q-72 -23 -156 -30l207 -805l262 758h92l266 -783l213 830q-94 14 -155 36v19h385v-19q-51 -18 -139 -32l-263 -969h-104l-268 782l-273 -782h-102l-262 969q-98 16 -140 32z" />
<glyph unicode="x" horiz-adv-x="1136" d="M4 0v16q61 23 143 33l363 461l-338 459q-102 16 -141 32v19h432v-21q-66 -23 -146 -34l267 -363l284 365q-104 18 -149 34v19h389v-19q-49 -20 -147 -32l-336 -424l364 -496q95 -15 144 -31v-18h-437v18q76 25 150 35l-293 400l-315 -400q92 -14 155 -35v-18h-389z" />
<glyph unicode="y" horiz-adv-x="1124" d="M14 1001v19h435v-21q-45 -16 -160 -32l295 -807l293 809q-92 10 -146 30v21h379v-19q-49 -18 -141 -32l-387 -1057q-41 -115 -75 -175.5t-90.5 -94t-150.5 -33.5q-90 0 -174 29l23 75q71 -22 145 -22h6q66 0 105 22.5t68.5 73.5t66.5 156l22 63l-376 965q-8 2 -55.5 9 t-82.5 21z" />
<glyph unicode="z" horiz-adv-x="935" d="M47 0v41l694 915h-540q-12 -131 -37 -186h-41v250h766v-55l-690 -904h567q6 37 24.5 97.5t32.5 89.5h43l-20 -248h-799z" />
<glyph unicode="{" horiz-adv-x="774" d="M57 553v100q127 2 181.5 44t54.5 132v328q0 111 30.5 174.5t112.5 93t240 29.5v-61q-86 -4 -140.5 -20.5t-85 -63.5t-30.5 -135v-353q0 -94 -63.5 -150.5t-176.5 -66.5q240 -37 240 -221v-352q0 -88 30.5 -135.5t85 -63.5t140.5 -18v-64q-170 0 -252 36t-106.5 108.5 t-24.5 214.5v245q0 104 -51.5 150.5t-184.5 48.5z" />
<glyph unicode="|" horiz-adv-x="901" d="M389 -393v1941h121v-1941h-121z" />
<glyph unicode="}" horiz-adv-x="774" d="M98 -186q86 2 140.5 18t85 63.5t30.5 135.5v352q0 184 240 221q-113 10 -176.5 66.5t-63.5 150.5v353q0 88 -30.5 135t-85 63.5t-140.5 20.5v61q158 0 240 -29.5t112.5 -92t30.5 -175.5v-307q0 -104 51.5 -149.5t184.5 -47.5v-100q-133 -2 -184.5 -48t-51.5 -151v-307 q0 -111 -30.5 -174t-112.5 -93t-240 -30v64z" />
<glyph unicode="~" horiz-adv-x="1193" d="M111 571v88q49 49 112.5 79t130.5 30q57 0 112.5 -14.5t137.5 -42.5q78 -29 135.5 -44.5t114.5 -15.5q119 0 227 119v-90q-96 -109 -235 -109q-63 0 -122.5 15.5t-141.5 46.5q-82 29 -133.5 43t-104.5 14q-55 0 -118.5 -32.5t-114.5 -86.5z" />
<glyph unicode="&#xa1;" horiz-adv-x="552" d="M180 940q0 43 25.5 68.5t70.5 25.5t71 -25.5t26 -68.5q0 -45 -25.5 -70.5t-71.5 -25.5q-45 0 -70.5 25.5t-25.5 70.5zM190 -272l54 1042h67l51 -1042v-33q0 -66 -17 -100.5t-69 -34.5q-51 0 -68.5 34.5t-17.5 100.5v33z" />
<glyph unicode="&#xa2;" horiz-adv-x="980" d="M61 508q0 240 131.5 379t354.5 151v156h67v-156q190 -10 320 -116l-14 -213h-33q-20 49 -31 196q-109 70 -229 70q-207 0 -314.5 -125t-107.5 -356q0 -117 44 -220.5t137 -168t230 -64.5q82 0 165 26.5t143 69.5l14 -47q-51 -43 -135 -73.5t-189 -36.5v-168h-67v168 q-147 6 -257 74.5t-169.5 185t-59.5 268.5z" />
<glyph unicode="&#xa3;" horiz-adv-x="1171" d="M70 0v61h151q37 39 52.5 89.5t15.5 117.5v432h-207v64h207v328q0 172 115.5 267t318.5 95q227 0 373 -145l-29 -47q-59 59 -142 95t-177 36q-319 0 -320 -322v-307h451v-64h-451v-421q0 -63 -19.5 -116.5t-68.5 -99.5h618q2 39 27 109t43 102h35l-27 -274h-966z" />
<glyph unicode="&#xa4;" horiz-adv-x="1193" d="M156 985l55 57l137 -135q111 90 248 90t250 -90l137 135l55 -57l-139 -133q88 -109 88 -246t-90 -248l139 -131l-55 -55l-137 133q-106 -90 -248 -90q-137 0 -248 88l-135 -133l-55 57l137 131q-90 111 -90 248q0 139 88 248zM281 604q0 -86 42 -157.5t114.5 -113.5 t160.5 -42q86 0 159.5 42t115.5 113.5t42 157.5q0 88 -43 162t-115.5 116t-158.5 42q-88 0 -160.5 -42t-114.5 -115t-42 -163z" />
<glyph unicode="&#xa5;" horiz-adv-x="1425" d="M41 1411v23h473v-23q-78 -29 -178 -37l326 -551h174l348 555q-84 16 -133 35v21h335v-23q-47 -20 -108 -31l-352 -557h284v-61h-323l-94 -148v-225h417v-61h-417v-273q96 -14 168 -37v-18h-480v18q84 29 166 37v273h-440v61h440v225l-88 148h-352v61h315l-325 549 q-76 12 -156 39zM696 762l49 -82l52 82h-101z" />
<glyph unicode="&#xa6;" horiz-adv-x="901" d="M389 -393v874h121v-874h-121zM389 702v846h121v-846h-121z" />
<glyph unicode="&#xa7;" horiz-adv-x="1085" d="M72 -285l18 275h37q23 -53 35 -248q55 -68 141 -108t201 -40q147 0 252.5 77t105.5 216q0 96 -50 164t-125 111t-198 96q-129 55 -206.5 100t-131 118t-53.5 179q0 104 53.5 177t151.5 110q-98 57 -151.5 127t-53.5 170q0 160 123 241t336 81q266 0 401 -146l-16 -227 h-39q-12 33 -21.5 94t-13.5 119q-100 94 -274 94t-261 -61.5t-87 -178.5q0 -72 43 -123t107.5 -87.5t174.5 -86.5q141 -63 228.5 -114t149 -137t61.5 -213q0 -182 -148 -291q148 -117 148 -293t-132.5 -278.5t-338.5 -102.5q-156 0 -277 52t-190 134zM236 672 q0 -74 45 -128.5t112.5 -92t184.5 -91.5q125 -55 202 -100q92 82 92 211q0 100 -52 169t-128 113t-207 101l-82 37q-84 -27 -125.5 -84t-41.5 -135z" />
<glyph unicode="&#xa8;" horiz-adv-x="1007" d="M205 1278q0 37 22.5 60.5t57.5 23.5t57.5 -23.5t22.5 -60.5t-23 -59.5t-57 -22.5q-35 0 -57.5 22.5t-22.5 59.5zM641 1278q0 37 22.5 60.5t57.5 23.5q37 0 59.5 -23.5t22.5 -60.5t-22.5 -59.5t-59.5 -22.5q-35 0 -57.5 22.5t-22.5 59.5z" />
<glyph unicode="&#xa9;" horiz-adv-x="1699" d="M98 731q0 215 97.5 386t268.5 268.5t386 97.5t386 -97.5t268.5 -268.5t97.5 -386t-97.5 -386t-268.5 -268t-386 -97t-386 97t-268.5 268t-97.5 386zM172 731q0 -192 87 -348t241.5 -244t349.5 -88t348.5 88t240.5 244t87 348q0 193 -87 348.5t-241 243.5t-348 88 q-195 0 -349.5 -88t-241.5 -243.5t-87 -348.5zM457 731q0 217 107.5 339t314.5 122q70 0 136 -20.5t107 -55.5l-10 -166h-31q-10 25 -18 129q-25 23 -72 41.5t-104 18.5q-330 0 -330 -408q0 -176 79 -289.5t251 -113.5q45 0 106.5 16t106.5 45l8 -45q-41 -35 -102.5 -55.5 t-131.5 -20.5q-123 0 -218 56.5t-147 161t-52 245.5z" />
<glyph unicode="&#xaa;" horiz-adv-x="727" d="M49 981q0 88 59.5 141.5t167.5 53.5h222v79q0 80 -46 113t-137 33q-104 0 -202 -45l-9 49q100 49 234 49q260 0 260 -201v-387q23 -4 102 -22v-13l-202 -26v106q-47 -59 -108.5 -87.5t-127.5 -28.5q-104 0 -158.5 53t-54.5 133zM150 985q0 -59 34.5 -97t110.5 -38 q53 0 106.5 30.5t96.5 94.5v151h-199q-80 0 -114.5 -38.5t-34.5 -102.5z" />
<glyph unicode="&#xab;" horiz-adv-x="962" d="M78 518v37q227 184 373 412l59 -86q-45 -80 -123 -172.5t-170 -171.5q90 -78 168 -170.5t125 -173.5l-59 -84q-156 239 -373 409zM451 518v37q225 182 374 412l58 -86q-47 -82 -124 -173.5t-167 -170.5q90 -78 169 -171.5t122 -172.5l-58 -84q-153 235 -374 409z" />
<glyph unicode="&#xac;" horiz-adv-x="985" d="M92 692v64h780v-381h-73v317h-707z" />
<glyph unicode="&#xad;" horiz-adv-x="747" d="M86 522v88h573v-88h-573z" />
<glyph unicode="&#xae;" horiz-adv-x="1699" d="M98 731q0 215 97.5 386t268.5 268.5t386 97.5t386 -97.5t268.5 -268.5t97.5 -386t-97.5 -386t-268.5 -268t-386 -97t-386 97t-268.5 268t-97.5 386zM172 731q0 -193 87 -348.5t241.5 -243.5t349.5 -88q194 0 348 88t241 244t87 348q0 193 -87 348.5t-241 243.5t-348 88 q-195 0 -349.5 -88t-241.5 -243.5t-87 -348.5zM494 1149v22h409q143 0 213 -65.5t70 -181.5q0 -113 -58.5 -179.5t-177.5 -74.5l215 -353q68 -10 88 -20v-18h-172l-217 389h-159v-351q63 -8 102 -20v-18h-309v18q51 16 104 20v807q-59 2 -108 25zM705 721h176q104 0 153 51 t49 152q0 98 -48 146t-154 48h-176v-397z" />
<glyph unicode="&#xaf;" horiz-adv-x="1007" d="M121 1509v64h766v-64h-766z" />
<glyph unicode="&#xb0;" horiz-adv-x="636" d="M61 1217q0 109 72 181t184 72q115 0 186.5 -72.5t71.5 -180.5q0 -106 -71.5 -179t-186.5 -73q-112 0 -184 72.5t-72 179.5zM127 1217q0 -80 55.5 -135.5t134.5 -55.5q82 0 136.5 55.5t54.5 135.5t-54.5 136t-136.5 56q-80 0 -135 -56.5t-55 -135.5z" />
<glyph unicode="&#xb1;" horiz-adv-x="1191" d="M106 10v82h979v-82h-979zM127 690v82h399v404h144v-404h399v-82h-399v-401h-144v401h-399z" />
<glyph unicode="&#xb2;" horiz-adv-x="757" d="M74 571v68q27 90 84 152.5t155 138.5q104 82 154.5 144.5t50.5 154.5q0 70 -45 117t-127 47q-53 0 -111.5 -23.5t-103.5 -64.5l-29 47q39 39 111 70.5t158 31.5q121 0 198.5 -57.5t77.5 -169.5q0 -68 -30.5 -125.5t-75.5 -101.5t-123 -107q-86 -72 -137.5 -123 t-83.5 -115h395q6 25 18.5 59t22.5 52h35l-13 -195h-581z" />
<glyph unicode="&#xb3;" horiz-adv-x="757" d="M86 664l29 45q45 -41 107.5 -64.5t117.5 -23.5q94 0 144.5 53t50.5 143q0 78 -49.5 129t-133.5 51h-108v64h104q90 0 133 52t43 124q0 68 -48 112t-134 44q-51 0 -109.5 -25t-97.5 -59l-29 47q41 39 112 68.5t157 29.5q123 0 198.5 -53t75.5 -160q0 -70 -40 -130 t-103 -79v-6q72 -16 115 -68.5t43 -136.5q0 -133 -82 -197.5t-222 -64.5q-86 0 -159.5 31t-114.5 74z" />
<glyph unicode="&#xb4;" horiz-adv-x="1007" d="M346 1237l229 205q39 39 78 39q25 0 39.5 -14.5t14.5 -32.5q0 -43 -56 -74l-278 -162z" />
<glyph unicode="&#xb6;" horiz-adv-x="1036" d="M100 1053q0 381 404 381h469v-19q-78 -27 -168 -39v-1321q96 -14 166 -37v-18h-256v1372h-133v-1372h-256v18q70 23 166 37v582q-186 6 -289 115.5t-103 300.5zM174 1055q0 -174 90 -263.5t228 -89.5v670q-156 0 -237 -80t-81 -237z" />
<glyph unicode="&#xb7;" horiz-adv-x="571" d="M154 721q0 66 33.5 103.5t95.5 37.5q63 0 99 -39t36 -102t-36 -102t-99 -39q-62 0 -95.5 37.5t-33.5 103.5z" />
<glyph unicode="&#xb8;" horiz-adv-x="1007" d="M352 -397l29 51q55 -18 121 -19q68 0 107.5 26t39.5 79q0 37 -34.5 54.5t-82.5 17.5q-20 0 -49 -5l-43 54l78 155h78l-72 -151q16 2 49 2q74 -4 118 -37t44 -90q0 -82 -63.5 -124t-165.5 -42q-80 0 -154 29z" />
<glyph unicode="&#xb9;" horiz-adv-x="757" d="M160 571v33q82 20 166 25v723l-166 -68v62l301 112v-831q86 0 160 -23v-33h-461z" />
<glyph unicode="&#xba;" horiz-adv-x="712" d="M33 1124q0 154 86 242t237 88q152 0 238 -88t86 -242t-86 -241.5t-238 -87.5q-151 0 -237 88t-86 241zM145 1124q0 -123 57.5 -194.5t153.5 -71.5q99 0 155 71.5t56 194.5t-56 195t-155 72q-96 0 -153.5 -72t-57.5 -195z" />
<glyph unicode="&#xbb;" horiz-adv-x="962" d="M78 193q47 82 125 174t168 170q-92 80 -170 172t-123 172l59 86q145 -227 373 -412v-37q-217 -170 -373 -409zM453 193q45 82 122.5 174t167.5 170q-90 80 -167.5 172t-122.5 172l59 86q145 -227 373 -412v-37q-217 -170 -373 -409z" />
<glyph unicode="&#xbc;" horiz-adv-x="1775" d="M141 571v33q82 20 166 25v723l-166 -68v62l301 112v-831q86 0 162 -23v-33h-463zM436 0l891 1454h74l-893 -1454h-72zM950 217v51l402 604h145v-593h131v-62h-131v-162q57 -2 123 -22v-33h-389v33q78 20 131 20v164h-412zM1030 279h332v491z" />
<glyph unicode="&#xbd;" horiz-adv-x="1775" d="M141 571v33q82 20 166 25v723l-166 -68v62l301 112v-831q86 0 162 -23v-33h-463zM424 0l893 1454h74l-893 -1454h-74zM1096 0v66q27 90 83 151.5t154 138.5q104 82 154.5 144.5t50.5 154.5q0 70 -44 117t-128 47q-53 0 -110.5 -23.5t-102.5 -64.5l-29 47q39 39 110 71 t157 32q123 0 200.5 -57.5t77.5 -170.5q0 -92 -56.5 -161.5t-172.5 -167.5q-88 -74 -139.5 -126.5t-81.5 -115.5h395q6 27 17 60.5t22 52.5h37l-13 -195h-581z" />
<glyph unicode="&#xbe;" horiz-adv-x="1775" d="M106 666l27 47q43 -43 106.5 -66.5t118.5 -23.5q94 0 144.5 53t50.5 143q0 78 -49 129t-133 51h-109v64h105q90 0 133 52t43 122q0 68 -48.5 112t-134.5 44q-51 0 -109 -25t-97 -59l-27 47q39 39 110.5 68.5t155.5 29.5q123 0 199 -53t76 -160q0 -70 -40 -129t-104 -78 v-2q72 -18 115 -71.5t43 -137.5q0 -133 -82 -197.5t-221 -64.5q-86 0 -159 31t-114 74zM434 0l891 1454h74l-893 -1454h-72zM950 217v51l402 604h145v-593h131v-62h-131v-162q57 -2 123 -22v-33h-389v33q78 20 131 20v164h-412zM1030 279h332v491z" />
<glyph unicode="&#xbf;" horiz-adv-x="933" d="M70 -131q0 74 26.5 134t64.5 105.5t105 110.5q74 72 120 127t78 133t32 176h84v-20q0 -106 -30 -187t-72 -137.5t-109 -130.5q-82 -86 -123 -153.5t-41 -157.5q0 -121 72.5 -195.5t230.5 -74.5q92 0 178 36.5t150 96.5l32 -49q-76 -68 -176 -109t-223 -41 q-172 0 -285.5 82t-113.5 254zM442 911q0 45 26 71t69 26q45 0 70.5 -26t25.5 -71t-25.5 -70.5t-70.5 -25.5q-43 0 -69 25.5t-26 70.5z" />
<glyph unicode="&#xc0;" horiz-adv-x="1443" d="M14 0v23q78 29 160 36l500 1383h96l500 -1385q88 -10 160 -37v-20h-469v20q66 27 167 35l-112 320h-637l-115 -320q106 -10 170 -37v-18h-420zM401 438h592l-295 828zM459 1845q0 18 14 32.5t39 14.5q43 0 78 -39l231 -204l-26 -39l-279 162q-57 34 -57 73z" />
<glyph unicode="&#xc1;" horiz-adv-x="1443" d="M14 0v23q78 29 160 36l500 1383h96l500 -1385q88 -10 160 -37v-20h-469v20q66 27 167 35l-112 320h-637l-115 -320q106 -10 170 -37v-18h-420zM401 438h592l-295 828zM637 1649l229 204q39 39 80 39q25 0 38 -13t13 -34q0 -39 -55 -73l-278 -162z" />
<glyph unicode="&#xc2;" horiz-adv-x="1443" d="M14 0v23q78 29 160 36l500 1383h96l500 -1385q88 -10 160 -37v-20h-469v20q66 27 167 35l-112 320h-637l-115 -320q106 -10 170 -37v-18h-420zM401 438h592l-295 828zM436 1651q63 45 135 110.5t117 126.5h68q45 -61 116.5 -126.5t135.5 -110.5l-60 -56 q-59 43 -120.5 100.5t-100.5 108.5h-10q-39 -51 -100.5 -108.5t-120.5 -100.5z" />
<glyph unicode="&#xc3;" horiz-adv-x="1443" d="M14 0v23q78 29 160 36l500 1383h96l500 -1385q88 -10 160 -37v-20h-469v20q66 27 167 35l-112 320h-637l-115 -320q106 -10 170 -37v-18h-420zM391 1610q14 98 62.5 146t121.5 48q39 0 76 -16t86 -47q43 -25 72 -38t55 -13q100 0 131 127h52q-14 -96 -60.5 -150.5 t-126.5 -54.5q-33 0 -63.5 14t-89.5 47q-53 31 -81 44.5t-55 13.5q-47 0 -80.5 -33t-46.5 -88h-53zM401 438h592l-295 828z" />
<glyph unicode="&#xc4;" horiz-adv-x="1443" d="M14 0v23q78 29 160 36l500 1383h96l500 -1385q88 -10 160 -37v-20h-469v20q66 27 167 35l-112 320h-637l-115 -320q106 -10 170 -37v-18h-420zM401 438h592l-295 828zM412 1690q0 39 22.5 61.5t57.5 22.5t57 -22.5t22 -61.5q0 -37 -22.5 -59.5t-56.5 -22.5 q-35 0 -57.5 22.5t-22.5 59.5zM848 1690q0 39 22.5 61.5t57.5 22.5t57.5 -22.5t22.5 -61.5q0 -37 -22.5 -59.5t-57.5 -22.5t-57.5 22.5t-22.5 59.5z" />
<glyph unicode="&#xc5;" horiz-adv-x="1443" d="M14 0v23q78 29 160 36l500 1383h96l500 -1385q88 -10 160 -37v-20h-469v20q66 27 167 35l-112 320h-637l-115 -320q106 -10 170 -37v-18h-420zM401 438h592l-295 828zM541 1679q0 76 51 124t129 48t128 -48t50 -124t-50 -123t-128 -47t-129 47.5t-51 122.5zM604 1679 q0 -51 33 -81.5t84 -30.5t83 30.5t32 81.5t-32 83t-83 32t-84 -31.5t-33 -83.5z" />
<glyph unicode="&#xc6;" horiz-adv-x="2019" d="M14 0v20q78 29 150 39l809 1327q-12 2 -43 9.5t-53 17.5v21h1013v-277h-37q-14 27 -28.5 97.5t-18.5 113.5h-608v-600h453q12 111 35 168h28v-399h-28q-23 61 -35 168h-453v-642h612q4 39 28 110t42 101h35l-27 -274h-1003v20q70 25 168 35v320h-596l-191 -320 q111 -12 174 -37v-18h-426zM496 438h557v930h-11z" />
<glyph unicode="&#xc7;" horiz-adv-x="1236" d="M102 717q0 344 167 540.5t472 196.5q252 0 402 -135l-17 -234h-39q-20 57 -36 218q-45 37 -118 61.5t-155 24.5q-268 0 -398 -183.5t-130 -488.5q0 -309 124 -490.5t396 -181.5q74 0 171 27.5t177 79.5l23 -46q-68 -59 -170.5 -91.5t-220.5 -34.5l-56 -119h19 q88 0 139 -32t51 -93q0 -82 -63.5 -124t-165.5 -42q-82 0 -152 29l29 51q55 -18 119 -19q68 0 107.5 26t39.5 79q0 37 -33.5 54t-81.5 17q-23 0 -51 -4l-43 54l64 125q-281 23 -425.5 215t-144.5 520z" />
<glyph unicode="&#xc8;" horiz-adv-x="1222" d="M88 0v20q82 27 170 35v1321q-84 10 -170 37v21h1006v-277h-35q-14 27 -28.5 97.5t-18.5 113.5h-609v-620h451q4 35 14.5 86t22.5 81h27v-399h-27q-12 33 -22.5 83t-14.5 85h-451v-621h613q2 39 25.5 110t41.5 101h37l-26 -274h-1006zM494 1845q0 18 14 32.5t39 14.5 q43 0 78 -39l231 -204l-27 -39l-278 162q-57 34 -57 73z" />
<glyph unicode="&#xc9;" horiz-adv-x="1222" d="M88 0v20q82 27 170 35v1321q-84 10 -170 37v21h1006v-277h-35q-14 27 -28.5 97.5t-18.5 113.5h-609v-620h451q4 35 14.5 86t22.5 81h27v-399h-27q-12 33 -22.5 83t-14.5 85h-451v-621h613q2 39 25.5 110t41.5 101h37l-26 -274h-1006zM459 1649l229 204q39 39 80 39 q25 0 38 -13t13 -34q0 -39 -55 -73l-279 -162z" />
<glyph unicode="&#xca;" horiz-adv-x="1222" d="M88 0v20q82 27 170 35v1321q-84 10 -170 37v21h1006v-277h-35q-14 27 -28.5 97.5t-18.5 113.5h-609v-620h451q4 35 14.5 86t22.5 81h27v-399h-27q-12 33 -22.5 83t-14.5 85h-451v-621h613q2 39 25.5 110t41.5 101h37l-26 -274h-1006zM393 1651q63 45 135 110.5t117 126.5 h68q45 -61 116.5 -126.5t135.5 -110.5l-60 -56q-59 43 -120.5 100.5t-100.5 108.5h-10q-39 -51 -100.5 -108.5t-120.5 -100.5z" />
<glyph unicode="&#xcb;" horiz-adv-x="1222" d="M88 0v20q82 27 170 35v1321q-84 10 -170 37v21h1006v-277h-35q-14 27 -28.5 97.5t-18.5 113.5h-609v-620h451q4 35 14.5 86t22.5 81h27v-399h-27q-12 33 -22.5 83t-14.5 85h-451v-621h613q2 39 25.5 110t41.5 101h37l-26 -274h-1006zM379 1690q0 39 22.5 61.5t57.5 22.5 t57.5 -22.5t22.5 -61.5q0 -37 -22.5 -59.5t-57.5 -22.5t-57.5 22.5t-22.5 59.5zM815 1690q0 39 22.5 61.5t57.5 22.5t57.5 -22.5t22.5 -61.5q0 -37 -22.5 -59.5t-57.5 -22.5t-57.5 22.5t-22.5 59.5z" />
<glyph unicode="&#xcc;" horiz-adv-x="671" d="M96 0v20q74 23 166 35v1321q-94 14 -166 37v21h479v-21q-70 -23 -167 -37v-1321q98 -14 167 -37v-18h-479zM152 1845q0 18 14 32.5t39 14.5q43 0 78 -39l231 -204l-27 -39l-278 162q-57 35 -57 73z" />
<glyph unicode="&#xcd;" horiz-adv-x="671" d="M96 0v20q74 23 166 35v1321q-94 14 -166 37v21h479v-21q-70 -23 -167 -37v-1321q98 -14 167 -37v-18h-479zM152 1649l229 204q39 39 80 39q25 0 38 -13t13 -34q0 -39 -55 -73l-279 -162z" />
<glyph unicode="&#xce;" horiz-adv-x="671" d="M49 1651q63 45 135 110.5t117 126.5h68q45 -61 116.5 -126.5t135.5 -110.5l-60 -56q-59 43 -120.5 100.5t-100.5 108.5h-10q-39 -51 -100.5 -108.5t-120.5 -100.5zM96 0v20q74 23 166 35v1321q-94 14 -166 37v21h479v-21q-70 -23 -167 -37v-1321q98 -14 167 -37v-18h-479 z" />
<glyph unicode="&#xcf;" horiz-adv-x="671" d="M37 1690q0 39 22.5 61.5t57.5 22.5t57.5 -22.5t22.5 -61.5q0 -37 -22.5 -59.5t-57.5 -22.5t-57.5 22.5t-22.5 59.5zM96 0v20q74 23 166 35v1321q-94 14 -166 37v21h479v-21q-70 -23 -167 -37v-1321q98 -14 167 -37v-18h-479zM473 1690q0 39 22.5 61.5t57.5 22.5 t57.5 -22.5t22.5 -61.5q0 -37 -22.5 -59.5t-57.5 -22.5t-57.5 22.5t-22.5 59.5z" />
<glyph unicode="&#xd0;" horiz-adv-x="1339" d="M88 0v20q84 29 164 35v594h-154v64h154v663q-90 14 -164 37v21h594q301 0 439.5 -181.5t138.5 -535.5q0 -352 -138.5 -534.5t-441.5 -182.5h-592zM397 63h279q237 0 336.5 169t99.5 485q0 313 -98.5 482t-333.5 169h-283v-655h361v-64h-361v-586z" />
<glyph unicode="&#xd1;" horiz-adv-x="1589" d="M88 0v18q84 27 166 35v1323q-94 14 -166 37v21h336l829 -1244v1188q-102 14 -166 35v21h412v-21q-51 -16 -166 -37v-1376h-90l-907 1350v-1295q86 -12 166 -37v-18h-414zM471 1610q14 98 62.5 146t121.5 48q39 0 76 -16t86 -47q43 -25 72 -38t55 -13q100 0 131 127h51 q-14 -96 -60 -150.5t-126 -54.5q-33 0 -63.5 14t-90.5 47q-53 31 -80.5 44.5t-54.5 13.5q-47 0 -80.5 -33t-46.5 -88h-53z" />
<glyph unicode="&#xd2;" horiz-adv-x="1429" d="M78 717q0 346 165 541.5t472 195.5t472 -195.5t165 -541.5t-165 -541.5t-472 -195.5t-472 195.5t-165 541.5zM223 717q0 -305 124 -488.5t368 -183.5q241 0 366 183.5t125 488.5q0 303 -125 487.5t-366 184.5q-242 0 -367 -184.5t-125 -487.5zM526 1845q0 18 14.5 32.5 t39.5 14.5q43 0 77 -39l232 -204l-27 -39l-278 162q-57 35 -58 73z" />
<glyph unicode="&#xd3;" horiz-adv-x="1429" d="M78 717q0 346 165 541.5t472 195.5t472 -195.5t165 -541.5t-165 -541.5t-472 -195.5t-472 195.5t-165 541.5zM223 717q0 -305 124 -488.5t368 -183.5q241 0 366 183.5t125 488.5q0 303 -125 487.5t-366 184.5q-242 0 -367 -184.5t-125 -487.5zM537 1649l229 204 q39 39 80 39q25 0 38 -13t13 -34q0 -39 -55 -73l-279 -162z" />
<glyph unicode="&#xd4;" horiz-adv-x="1429" d="M78 717q0 346 165 541.5t472 195.5t472 -195.5t165 -541.5t-165 -541.5t-472 -195.5t-472 195.5t-165 541.5zM223 717q0 -305 124 -488.5t368 -183.5q241 0 366 183.5t125 488.5q0 303 -125 487.5t-366 184.5q-242 0 -367 -184.5t-125 -487.5zM428 1651q63 45 135 110.5 t117 126.5h68q45 -61 116.5 -126.5t134.5 -110.5l-59 -56q-59 43 -120.5 100.5t-100.5 108.5h-10q-39 -51 -100.5 -108.5t-121.5 -100.5z" />
<glyph unicode="&#xd5;" horiz-adv-x="1429" d="M78 717q0 346 165 541.5t472 195.5t472 -195.5t165 -541.5t-165 -541.5t-472 -195.5t-472 195.5t-165 541.5zM223 717q0 -305 124 -488.5t368 -183.5q241 0 366 183.5t125 488.5q0 303 -125 487.5t-366 184.5q-242 0 -367 -184.5t-125 -487.5zM385 1610q14 98 62.5 146 t121.5 48q39 0 76 -16t86 -47q43 -25 71.5 -38t55.5 -13q100 0 131 127h51q-14 -96 -60 -150.5t-126 -54.5q-33 0 -63.5 14t-90.5 47q-53 31 -80.5 44.5t-54.5 13.5q-47 0 -80.5 -33t-46.5 -88h-53z" />
<glyph unicode="&#xd6;" horiz-adv-x="1429" d="M78 717q0 346 165 541.5t472 195.5t472 -195.5t165 -541.5t-165 -541.5t-472 -195.5t-472 195.5t-165 541.5zM223 717q0 -305 124 -488.5t368 -183.5q241 0 366 183.5t125 488.5q0 303 -125 487.5t-366 184.5q-242 0 -367 -184.5t-125 -487.5zM416 1690q0 39 22.5 61.5 t57.5 22.5t57 -22.5t22 -61.5q0 -37 -22.5 -59.5t-56.5 -22.5q-35 0 -57.5 22.5t-22.5 59.5zM852 1690q0 39 22.5 61.5t57.5 22.5t57.5 -22.5t22.5 -61.5q0 -37 -22.5 -59.5t-57.5 -22.5t-57.5 22.5t-22.5 59.5z" />
<glyph unicode="&#xd7;" horiz-adv-x="1191" d="M150 334l366 362l-366 363l73 78l373 -369l373 369l73 -78l-366 -363l366 -362l-73 -78l-373 369l-373 -369z" />
<glyph unicode="&#xd8;" horiz-adv-x="1429" d="M78 717q0 346 165 541.5t472 195.5q221 0 366 -102l80 121l58 -39l-82 -125q106 -95 160.5 -245.5t54.5 -346.5q0 -346 -165 -541.5t-472 -195.5q-231 0 -385 112l-99 -149l-55 39l103 155q-100 94 -150.5 241.5t-50.5 338.5zM223 717q0 -305 121 -481l682 1034 q-123 119 -311 119q-242 0 -367 -184.5t-125 -487.5zM387 178q127 -133 328 -133q241 0 366 183.5t125 488.5q0 319 -133 497z" />
<glyph unicode="&#xd9;" horiz-adv-x="1556" d="M86 1413v21h477v-21q-72 -25 -166 -37v-962q0 -201 113 -285t307 -84q184 0 295 87t111 282v964q-84 8 -168 35v21h415v-21q-74 -23 -170 -39v-942q0 -233 -131 -342.5t-389 -109.5q-528 -1 -528 452v944q-94 14 -166 37zM596 1845q0 18 14.5 32.5t38.5 14.5q43 0 78 -39 l231 -204l-26 -39l-279 162q-57 35 -57 73z" />
<glyph unicode="&#xda;" horiz-adv-x="1556" d="M86 1413v21h477v-21q-72 -25 -166 -37v-962q0 -201 113 -285t307 -84q184 0 295 87t111 282v964q-84 8 -168 35v21h415v-21q-74 -23 -170 -39v-942q0 -233 -131 -342.5t-389 -109.5q-528 -1 -528 452v944q-94 14 -166 37zM629 1649l229 204q39 39 80 39q25 0 38 -13 t13 -34q0 -39 -55 -73l-279 -162z" />
<glyph unicode="&#xdb;" horiz-adv-x="1556" d="M86 1413v21h477v-21q-72 -25 -166 -37v-962q0 -201 113 -285t307 -84q184 0 295 87t111 282v964q-84 8 -168 35v21h415v-21q-74 -23 -170 -39v-942q0 -233 -131 -342.5t-389 -109.5q-528 -1 -528 452v944q-94 14 -166 37zM492 1651q63 45 134.5 110.5t116.5 126.5h68 q45 -61 116.5 -126.5t135.5 -110.5l-59 -56q-59 43 -121 100.5t-101 108.5h-10q-39 -51 -100.5 -108.5t-120.5 -100.5z" />
<glyph unicode="&#xdc;" horiz-adv-x="1556" d="M86 1413v21h477v-21q-72 -25 -166 -37v-962q0 -201 113 -285t307 -84q184 0 295 87t111 282v964q-84 8 -168 35v21h415v-21q-74 -23 -170 -39v-942q0 -233 -131 -342.5t-389 -109.5q-528 -1 -528 452v944q-94 14 -166 37zM494 1690q0 39 22.5 61.5t56.5 22.5 q35 0 57.5 -22.5t22.5 -61.5q0 -37 -22.5 -59.5t-57.5 -22.5q-34 0 -56.5 22.5t-22.5 59.5zM930 1690q0 39 22.5 61.5t57.5 22.5t57.5 -22.5t22.5 -61.5q0 -37 -23 -59.5t-57 -22.5q-35 0 -57.5 22.5t-22.5 59.5z" />
<glyph unicode="&#xdd;" horiz-adv-x="1419" d="M37 1411v23h471v-23q-80 -29 -174 -37l407 -690l435 694q-72 14 -132 35v21h336v-23q-45 -20 -108 -31l-484 -766v-559q98 -14 168 -37v-18h-479v18q84 29 166 37v559l-450 758q-76 12 -156 39zM561 1649l230 204q39 39 79 39q25 0 38.5 -13t13.5 -34q0 -39 -56 -73 l-278 -162z" />
<glyph unicode="&#xde;" horiz-adv-x="1218" d="M84 0v20q90 29 168 35v1321q-82 12 -164 37v21h309v-291h322q227 0 331.5 -115t104.5 -311q0 -197 -108.5 -316.5t-325.5 -119.5h-324v-226q94 -14 166 -37v-18h-479zM397 344h295q162 0 240 102.5t78 272.5q0 360 -332 360h-281v-735z" />
<glyph unicode="&#xdf;" horiz-adv-x="1386" d="M51 956v64h195v131q0 172 105.5 267t283.5 95q281 0 361.5 -163.5t80.5 -348.5v-26q-141 0 -225 -39t-84 -123q0 -59 34 -101t84 -69t140 -65q102 -43 163.5 -78t104.5 -92.5t43 -141.5q0 -139 -96 -212.5t-258 -73.5q-119 0 -200 30.5t-146 87.5l16 258h35 q12 -29 20.5 -107.5t8.5 -127.5q47 -39 100 -58.5t127 -19.5q125 0 186.5 56.5t61.5 150.5q0 59 -34 101t-83 68.5t-137 63.5q-98 41 -159.5 76t-104.5 94.5t-43 145.5q0 109 91 166t222 63q0 156 -61.5 289t-251.5 133q-102 0 -172 -65.5t-70 -190.5v-1139q94 -14 166 -37 v-18h-475v18q98 31 166 37v901h-195z" />
<glyph unicode="&#xe0;" horiz-adv-x="1071" d="M68 272q0 156 110.5 225.5t280.5 69.5h319v172q0 119 -73.5 177.5t-206.5 58.5q-147 0 -316 -84l-12 57q78 41 176 65.5t201 24.5q174 0 273.5 -77.5t99.5 -208.5v-678q76 -14 143 -33v-14l-285 -29v156q-90 -96 -189.5 -135t-191.5 -39q-157 0 -243 75.5t-86 216.5z M209 274q0 -115 65.5 -172t169.5 -57q93 0 190 57.5t144 130.5v271h-284q-143 0 -214 -60.5t-71 -169.5zM344 1432q0 18 14.5 32.5t38.5 14.5q43 0 78 -39l232 -205l-27 -39l-279 162q-57 35 -57 74z" />
<glyph unicode="&#xe1;" horiz-adv-x="1071" d="M68 272q0 156 110.5 225.5t280.5 69.5h319v172q0 119 -73.5 177.5t-206.5 58.5q-147 0 -316 -84l-12 57q78 41 176 65.5t201 24.5q174 0 273.5 -77.5t99.5 -208.5v-678q76 -14 143 -33v-14l-285 -29v156q-90 -96 -189.5 -135t-191.5 -39q-157 0 -243 75.5t-86 216.5z M209 274q0 -115 65.5 -172t169.5 -57q93 0 190 57.5t144 130.5v271h-284q-143 0 -214 -60.5t-71 -169.5zM367 1235l229 205q39 39 80 39q25 0 38 -13.5t13 -33.5q0 -39 -55 -74l-279 -162z" />
<glyph unicode="&#xe2;" horiz-adv-x="1071" d="M68 272q0 156 110.5 225.5t280.5 69.5h319v172q0 119 -73.5 177.5t-206.5 58.5q-147 0 -316 -84l-12 57q78 41 176 65.5t201 24.5q174 0 273.5 -77.5t99.5 -208.5v-678q76 -14 143 -33v-14l-285 -29v156q-90 -96 -189.5 -135t-191.5 -39q-157 0 -243 75.5t-86 216.5z M209 274q0 -115 65.5 -172t169.5 -57q93 0 190 57.5t144 130.5v271h-284q-143 0 -214 -60.5t-71 -169.5zM244 1237q63 45 135 110.5t117 127.5h67q45 -61 117 -127t135 -111l-59 -55q-59 43 -121 100t-100 109h-11q-39 -51 -100.5 -108.5t-120.5 -100.5z" />
<glyph unicode="&#xe3;" horiz-adv-x="1071" d="M68 272q0 156 110.5 225.5t280.5 69.5h319v172q0 119 -73.5 177.5t-206.5 58.5q-147 0 -316 -84l-12 57q78 41 176 65.5t201 24.5q174 0 273.5 -77.5t99.5 -208.5v-678q76 -14 143 -33v-14l-285 -29v156q-90 -96 -189.5 -135t-191.5 -39q-157 0 -243 75.5t-86 216.5z M201 1196q14 98 62 146.5t122 48.5q39 0 76 -16.5t86 -47.5q43 -25 71.5 -38t55.5 -13q100 0 131 127h51q-14 -96 -60 -150.5t-126 -54.5q-33 0 -64 14.5t-90 47.5q-53 31 -80.5 44t-54.5 13q-47 0 -81 -33t-46 -88h-53zM209 274q0 -115 65.5 -172t169.5 -57q93 0 190 57.5 t144 130.5v271h-284q-143 0 -214 -60.5t-71 -169.5z" />
<glyph unicode="&#xe4;" horiz-adv-x="1071" d="M68 272q0 156 110.5 225.5t280.5 69.5h319v172q0 119 -73.5 177.5t-206.5 58.5q-147 0 -316 -84l-12 57q78 41 176 65.5t201 24.5q174 0 273.5 -77.5t99.5 -208.5v-678q76 -14 143 -33v-14l-285 -29v156q-90 -96 -189.5 -135t-191.5 -39q-157 0 -243 75.5t-86 216.5z M209 274q0 -115 65.5 -172t169.5 -57q93 0 190 57.5t144 130.5v271h-284q-143 0 -214 -60.5t-71 -169.5zM229 1276q0 39 22.5 61.5t57.5 22.5t57.5 -22.5t22.5 -61.5q0 -37 -22.5 -59.5t-57.5 -22.5t-57.5 22.5t-22.5 59.5zM666 1276q0 39 22.5 61.5t56.5 22.5 q35 0 57.5 -22.5t22.5 -61.5q0 -37 -22.5 -59.5t-57.5 -22.5q-34 0 -56.5 22.5t-22.5 59.5z" />
<glyph unicode="&#xe5;" horiz-adv-x="1071" d="M68 272q0 156 110.5 225.5t280.5 69.5h319v172q0 119 -73.5 177.5t-206.5 58.5q-147 0 -316 -84l-12 57q78 41 176 65.5t201 24.5q174 0 273.5 -77.5t99.5 -208.5v-678q76 -14 143 -33v-14l-285 -29v156q-90 -96 -189.5 -135t-191.5 -39q-157 0 -243 75.5t-86 216.5z M209 274q0 -115 65.5 -172t169.5 -57q93 0 190 57.5t144 130.5v271h-284q-143 0 -214 -60.5t-71 -169.5zM354 1331q0 76 51.5 124t129.5 48t128 -48t50 -124t-50.5 -123t-127.5 -47q-78 0 -129.5 47t-51.5 123zM418 1331q0 -51 32.5 -81.5t84.5 -30.5q51 0 82.5 30.5 t31.5 81.5t-31.5 83t-82.5 32t-84 -32t-33 -83z" />
<glyph unicode="&#xe6;" horiz-adv-x="1761" d="M68 272q0 158 115.5 233t283.5 75h293q2 41 14 100l8 51q0 121 -74.5 182.5t-209.5 61.5q-147 0 -316 -84l-12 57q78 41 176 65.5t201 24.5q123 0 208 -46t119 -126q63 84 162 128t226 44q215 0 324.5 -136t109.5 -343v-43h-797q2 -215 114.5 -345t313.5 -130 q82 0 164 26.5t143 69.5l15 -47q-57 -47 -149.5 -78.5t-209.5 -31.5q-139 0 -249.5 56t-180.5 159q-92 -121 -217 -168t-240 -47q-151 0 -243 74.5t-92 217.5zM209 274q0 -115 67.5 -172t174.5 -57q100 0 207.5 57.5t164.5 143.5q-61 119 -65 270h-256q-141 0 -217 -65.5 t-76 -176.5zM901 582h668q-2 160 -77 277.5t-230 117.5q-170 0 -260.5 -111.5t-100.5 -283.5z" />
<glyph unicode="&#xe7;" horiz-adv-x="980" d="M61 508q0 168 66 286.5t183.5 181t273.5 62.5q211 0 350 -116l-14 -213h-33q-20 49 -31 196q-109 70 -229 70q-207 0 -314.5 -125t-107.5 -356q0 -117 44 -220.5t137 -168t230 -64.5q82 0 165 26.5t143 69.5l14 -47q-53 -43 -134 -72.5t-181 -35.5l-54 -117h19 q88 0 139 -32t51 -93q0 -82 -63.5 -124t-165.5 -42q-82 0 -152 29l29 51q55 -18 119 -19q68 0 107.5 26t39.5 79q0 37 -33.5 54.5t-80.5 17.5q-23 0 -52 -5l-43 54l60 119q-145 8 -255 75.5t-168.5 185t-58.5 267.5z" />
<glyph unicode="&#xe8;" horiz-adv-x="1060" d="M57 508q0 252 133.5 391t366.5 139q145 0 244.5 -65.5t146.5 -174t47 -241.5v-43h-794q0 -207 107.5 -340t309.5 -133q82 0 168 26.5t148 69.5l14 -47q-57 -47 -153.5 -78.5t-212.5 -31.5q-156 0 -275 66.5t-184.5 186t-65.5 275.5zM203 578h663q0 156 -73.5 276.5 t-231.5 120.5q-166 0 -255 -111.5t-103 -285.5zM354 1432q0 18 14.5 32.5t39.5 14.5q43 0 77 -39l232 -205l-27 -39l-278 162q-58 35 -58 74z" />
<glyph unicode="&#xe9;" horiz-adv-x="1060" d="M57 508q0 252 133.5 391t366.5 139q145 0 244.5 -65.5t146.5 -174t47 -241.5v-43h-794q0 -207 107.5 -340t309.5 -133q82 0 168 26.5t148 69.5l14 -47q-57 -47 -153.5 -78.5t-212.5 -31.5q-156 0 -275 66.5t-184.5 186t-65.5 275.5zM203 578h663q0 156 -73.5 276.5 t-231.5 120.5q-166 0 -255 -111.5t-103 -285.5zM373 1235l229 205q39 39 80 39q25 0 38 -13.5t13 -33.5q0 -39 -55 -74l-279 -162z" />
<glyph unicode="&#xea;" horiz-adv-x="1060" d="M57 508q0 252 133.5 391t366.5 139q145 0 244.5 -65.5t146.5 -174t47 -241.5v-43h-794q0 -207 107.5 -340t309.5 -133q82 0 168 26.5t148 69.5l14 -47q-57 -47 -153.5 -78.5t-212.5 -31.5q-156 0 -275 66.5t-184.5 186t-65.5 275.5zM203 578h663q0 156 -73.5 276.5 t-231.5 120.5q-166 0 -255 -111.5t-103 -285.5zM252 1237q63 45 135 110.5t117 127.5h67q45 -61 117 -127t135 -111l-59 -55q-59 43 -120.5 100t-100.5 109h-11q-38 -52 -99.5 -109t-121.5 -100z" />
<glyph unicode="&#xeb;" horiz-adv-x="1060" d="M57 508q0 252 133.5 391t366.5 139q145 0 244.5 -65.5t146.5 -174t47 -241.5v-43h-794q0 -207 107.5 -340t309.5 -133q82 0 168 26.5t148 69.5l14 -47q-57 -47 -153.5 -78.5t-212.5 -31.5q-156 0 -275 66.5t-184.5 186t-65.5 275.5zM203 578h663q0 156 -73.5 276.5 t-231.5 120.5q-166 0 -255 -111.5t-103 -285.5zM242 1276q0 39 22.5 61.5t57.5 22.5t57 -22.5t22 -61.5q0 -37 -22.5 -59.5t-56.5 -22.5q-35 0 -57.5 22.5t-22.5 59.5zM678 1276q0 39 22.5 61.5t57.5 22.5t57.5 -22.5t22.5 -61.5q0 -37 -22.5 -59.5t-57.5 -22.5t-57.5 22.5 t-22.5 59.5z" />
<glyph unicode="&#xec;" horiz-adv-x="626" d="M74 1432q0 18 14 32.5t39 14.5q43 0 78 -39l231 -205l-26 -39l-279 162q-57 35 -57 74zM76 0v18q51 16 166 37v899q-90 16 -144 35v12l285 31v-977q92 -12 166 -37v-18h-473z" />
<glyph unicode="&#xed;" horiz-adv-x="626" d="M76 0v18q51 16 166 37v899q-90 16 -144 35v12l285 31v-977q92 -12 166 -37v-18h-473zM121 1235l229 205q39 39 80 39q25 0 38 -13.5t13 -33.5q0 -39 -55 -74l-279 -162z" />
<glyph unicode="&#xee;" horiz-adv-x="626" d="M27 1237q63 45 134.5 110.5t117.5 127.5h67q45 -61 117 -127t135 -111l-59 -55q-59 43 -121 100t-101 109h-10q-39 -51 -100.5 -108.5t-120.5 -100.5zM76 0v18q51 16 166 37v899q-90 16 -144 35v12l285 31v-977q92 -12 166 -37v-18h-473z" />
<glyph unicode="&#xef;" horiz-adv-x="626" d="M14 1276q0 39 22.5 61.5t57.5 22.5t57.5 -22.5t22.5 -61.5q0 -37 -22.5 -59.5t-57.5 -22.5t-57.5 22.5t-22.5 59.5zM76 0v18q51 16 166 37v899q-90 16 -144 35v12l285 31v-977q92 -12 166 -37v-18h-473zM451 1276q0 39 22.5 61.5t56.5 22.5q35 0 57.5 -22.5t22.5 -61.5 q0 -37 -22.5 -59.5t-57.5 -22.5q-34 0 -56.5 22.5t-22.5 59.5z" />
<glyph unicode="&#xf0;" horiz-adv-x="1208" d="M102 508q0 127 54.5 246.5t165 196.5t272.5 77q104 0 199.5 -46t154.5 -136q-35 129 -110.5 259t-190.5 236l-330 -188l-26 70l299 170q-100 82 -232 141l43 55q141 -57 265 -151q176 100 258 153l45 -67l-242 -138q178 -159 278.5 -368t100.5 -418q0 -293 -132 -456.5 t-390 -163.5q-152 0 -260.5 72.5t-165 192.5t-56.5 263zM244 508q0 -125 41 -231.5t118.5 -170t184.5 -63.5q117 0 201.5 68.5t129 184.5t44.5 257q0 109 -46.5 203t-129 151.5t-185.5 57.5q-104 0 -185 -58.5t-127 -163t-46 -235.5z" />
<glyph unicode="&#xf1;" horiz-adv-x="1310" d="M68 0v18q76 25 165 37v901q-90 16 -143 35v13l285 30v-157q74 70 179 115.5t226 45.5q147 0 235.5 -77.5t88.5 -208.5v-697q103 -14 166 -37v-18h-467v18q68 25 160 37v678q0 125 -63.5 183.5t-166.5 58.5q-90 0 -188.5 -45t-169.5 -123v-752q94 -14 166 -37v-18h-473z M297 1196q14 98 62.5 146.5t121.5 48.5q39 0 76 -16.5t86 -47.5q43 -25 71.5 -38t55.5 -13q100 0 131 127h51q-14 -96 -60 -150.5t-126 -54.5q-33 0 -63.5 14.5t-90.5 47.5q-53 31 -80.5 44t-54.5 13q-47 0 -81 -33t-46 -88h-53z" />
<glyph unicode="&#xf2;" horiz-adv-x="1155" d="M55 508q0 248 139.5 389t383.5 141t382 -141t138 -389t-138.5 -388t-381.5 -140q-244 0 -383.5 140t-139.5 388zM197 508q0 -219 102 -342t279 -123q174 0 276 124t102 341t-102 342t-276 125q-176 0 -278.5 -125t-102.5 -342zM389 1432q0 18 14.5 32.5t38.5 14.5 q43 0 78 -39l232 -205l-27 -39l-279 162q-57 35 -57 74z" />
<glyph unicode="&#xf3;" horiz-adv-x="1155" d="M55 508q0 248 139.5 389t383.5 141t382 -141t138 -389t-138.5 -388t-381.5 -140q-244 0 -383.5 140t-139.5 388zM197 508q0 -219 102 -342t279 -123q174 0 276 124t102 341t-102 342t-276 125q-176 0 -278.5 -125t-102.5 -342zM399 1235l230 205q39 39 80 39 q25 0 38 -13.5t13 -33.5q0 -39 -55 -74l-279 -162z" />
<glyph unicode="&#xf4;" horiz-adv-x="1155" d="M55 508q0 248 139.5 389t383.5 141t382 -141t138 -389t-138.5 -388t-381.5 -140q-244 0 -383.5 140t-139.5 388zM197 508q0 -219 102 -342t279 -123q174 0 276 124t102 341t-102 342t-276 125q-176 0 -278.5 -125t-102.5 -342zM291 1237q63 45 135 110.5t117 127.5h67 q45 -61 117 -127t135 -111l-59 -55q-59 43 -120.5 100t-100.5 109h-11q-39 -51 -100 -108.5t-121 -100.5z" />
<glyph unicode="&#xf5;" horiz-adv-x="1155" d="M55 508q0 248 139.5 389t383.5 141t382 -141t138 -389t-138.5 -388t-381.5 -140q-244 0 -383.5 140t-139.5 388zM197 508q0 -219 102 -342t279 -123q174 0 276 124t102 341t-102 342t-276 125q-176 0 -278.5 -125t-102.5 -342zM248 1196q14 98 62 146.5t122 48.5 q39 0 76 -16.5t86 -47.5q43 -25 71.5 -38t55.5 -13q100 0 131 127h51q-14 -96 -60 -150.5t-126 -54.5q-33 0 -63.5 14.5t-90.5 47.5q-53 31 -80.5 44t-54.5 13q-47 0 -81 -33t-46 -88h-53z" />
<glyph unicode="&#xf6;" horiz-adv-x="1155" d="M55 508q0 248 139.5 389t383.5 141t382 -141t138 -389t-138.5 -388t-381.5 -140q-244 0 -383.5 140t-139.5 388zM197 508q0 -219 102 -342t279 -123q174 0 276 124t102 341t-102 342t-276 125q-176 0 -278.5 -125t-102.5 -342zM279 1276q0 39 22.5 61.5t56.5 22.5 q35 0 57.5 -22.5t22.5 -61.5q0 -37 -22.5 -59.5t-57.5 -22.5q-34 0 -56.5 22.5t-22.5 59.5zM715 1276q0 39 22.5 61.5t57.5 22.5t57 -22.5t22 -61.5q0 -37 -22.5 -59.5t-56.5 -22.5q-35 0 -57.5 22.5t-22.5 59.5z" />
<glyph unicode="&#xf7;" horiz-adv-x="1191" d="M125 657v82h944v-82h-944zM494 367q0 43 25.5 69.5t70.5 26.5t71.5 -26.5t26.5 -69.5t-26.5 -70t-71.5 -27t-70.5 27t-25.5 70zM498 1032q0 43 25.5 69.5t70.5 26.5t70.5 -26.5t25.5 -69.5t-26.5 -70.5t-69.5 -27.5t-69.5 27.5t-26.5 70.5z" />
<glyph unicode="&#xf8;" horiz-adv-x="1155" d="M55 508q0 248 139.5 389t383.5 141q158 0 278 -63l68 98l61 -41l-67 -98q88 -68 134 -176.5t46 -249.5q0 -248 -138.5 -388t-381.5 -140q-160 0 -281 63l-78 -111l-57 41l76 109q-88 68 -135.5 176.5t-47.5 249.5zM197 508q0 -213 100 -340l506 733q-92 74 -225 74 q-176 0 -278.5 -125t-102.5 -342zM348 117q96 -74 230 -74q174 0 276 124t102 341q0 213 -100 340z" />
<glyph unicode="&#xf9;" horiz-adv-x="1259" d="M51 991v13l285 30v-749q0 -127 62.5 -184.5t166.5 -57.5q86 0 187.5 42t171.5 108v763q-86 14 -142 35v13l283 30v-975q84 -14 143 -32v-15l-284 -28v141q-76 -61 -180.5 -103t-217.5 -42q-152 0 -241.5 76.5t-89.5 207.5v692q-90 16 -144 35zM432 1432q0 18 14.5 32.5 t38.5 14.5q43 0 78 -39l232 -205l-27 -39l-279 162q-57 35 -57 74z" />
<glyph unicode="&#xfa;" horiz-adv-x="1259" d="M51 991v13l285 30v-749q0 -127 62.5 -184.5t166.5 -57.5q86 0 187.5 42t171.5 108v763q-86 14 -142 35v13l283 30v-975q84 -14 143 -32v-15l-284 -28v141q-76 -61 -180.5 -103t-217.5 -42q-152 0 -241.5 76.5t-89.5 207.5v692q-90 16 -144 35zM457 1235l229 205 q39 39 80 39q25 0 38 -13.5t13 -33.5q0 -39 -55 -74l-279 -162z" />
<glyph unicode="&#xfb;" horiz-adv-x="1259" d="M51 991v13l285 30v-749q0 -127 62.5 -184.5t166.5 -57.5q86 0 187.5 42t171.5 108v763q-86 14 -142 35v13l283 30v-975q84 -14 143 -32v-15l-284 -28v141q-76 -61 -180.5 -103t-217.5 -42q-152 0 -241.5 76.5t-89.5 207.5v692q-90 16 -144 35zM328 1237q63 45 135 110.5 t117 127.5h67q45 -61 117 -127t135 -111l-59 -55q-59 43 -121 100t-101 109h-10q-39 -52 -100.5 -109t-120.5 -100z" />
<glyph unicode="&#xfc;" horiz-adv-x="1259" d="M51 991v13l285 30v-749q0 -127 62.5 -184.5t166.5 -57.5q86 0 187.5 42t171.5 108v763q-86 14 -142 35v13l283 30v-975q84 -14 143 -32v-15l-284 -28v141q-76 -61 -180.5 -103t-217.5 -42q-152 0 -241.5 76.5t-89.5 207.5v692q-90 16 -144 35zM315 1276q0 39 22.5 61.5 t57.5 22.5t57.5 -22.5t22.5 -61.5q0 -37 -22.5 -59.5t-57.5 -22.5t-57.5 22.5t-22.5 59.5zM752 1276q0 39 22.5 61.5t56.5 22.5q35 0 57.5 -22.5t22.5 -61.5q0 -37 -22.5 -59.5t-57.5 -22.5q-34 0 -56.5 22.5t-22.5 59.5z" />
<glyph unicode="&#xfd;" horiz-adv-x="1124" d="M14 1001v19h435v-21q-45 -16 -160 -32l295 -807l293 809q-92 10 -146 30v21h379v-19q-49 -18 -141 -32l-387 -1057q-41 -115 -75 -175.5t-90.5 -94t-150.5 -33.5q-90 0 -174 29l23 75q74 -23 151 -22q66 0 105 22.5t68.5 73.5t66.5 156l22 63l-376 965q-8 2 -55.5 9 t-82.5 21zM397 1235l230 205q39 39 80 39q25 0 38 -13.5t13 -33.5q0 -39 -56 -74l-278 -162z" />
<glyph unicode="&#xfe;" horiz-adv-x="1196" d="M12 -483q70 23 166 37v1816q-84 14 -143 33v14l287 31v-569q143 160 364 159q213 0 334 -127t121 -376q0 -285 -124 -420t-347 -135q-113 0 -206 39.5t-142 123.5v-589q96 -14 163 -37v-21h-473v21zM322 344q0 -80 38.5 -149.5t113.5 -110.5t177 -41q183 0 264.5 131 t81.5 350q0 225 -81.5 338t-268.5 113q-96 0 -180 -50.5t-145 -129.5v-451z" />
<glyph unicode="&#xff;" horiz-adv-x="1124" d="M14 1001v19h435v-21q-45 -16 -160 -32l295 -807l293 809q-92 10 -146 30v21h379v-19q-49 -18 -141 -32l-387 -1057q-41 -115 -75 -175.5t-90.5 -94t-150.5 -33.5q-90 0 -174 29l23 75q74 -23 151 -22q66 0 105 22.5t68.5 73.5t66.5 156l22 63l-376 965q-8 2 -55.5 9 t-82.5 21zM274 1276q0 39 22.5 61.5t57.5 22.5t57.5 -22.5t22.5 -61.5q0 -37 -22.5 -59.5t-57.5 -22.5t-57.5 22.5t-22.5 59.5zM711 1276q0 39 22.5 61.5t57.5 22.5t57 -22.5t22 -61.5q0 -37 -22.5 -59.5t-56.5 -22.5q-35 0 -57.5 22.5t-22.5 59.5z" />
<glyph unicode="&#x100;" horiz-adv-x="1443" d="M14 0v23q78 29 160 36l500 1383h96l500 -1385q88 -10 160 -37v-20h-469v20q66 27 167 35l-112 320h-637l-115 -320q106 -10 170 -37v-18h-420zM401 438h592l-295 828zM401 1606v63h643v-63h-643z" />
<glyph unicode="&#x101;" horiz-adv-x="1071" d="M68 272q0 156 110.5 225.5t280.5 69.5h319v172q0 119 -73.5 177.5t-206.5 58.5q-147 0 -316 -84l-12 57q78 41 176 65.5t201 24.5q174 0 273.5 -77.5t99.5 -208.5v-678q76 -14 143 -33v-14l-285 -29v156q-90 -96 -189.5 -135t-191.5 -39q-157 0 -243 75.5t-86 216.5z M205 1196v64h643v-64h-643zM209 274q0 -115 65.5 -172t169.5 -57q93 0 190 57.5t144 130.5v271h-284q-143 0 -214 -60.5t-71 -169.5z" />
<glyph unicode="&#x102;" horiz-adv-x="1443" d="M14 0v23q78 29 160 36l500 1383h96l500 -1385q88 -10 160 -37v-20h-469v20q66 27 167 35l-112 320h-637l-115 -320q106 -10 170 -37v-18h-420zM401 438h592l-295 828zM420 1831h94q10 -106 68.5 -143t138.5 -37t137 36.5t70 143.5h94q-14 -123 -94 -184.5t-207 -61.5 t-207 61.5t-94 184.5z" />
<glyph unicode="&#x103;" horiz-adv-x="1071" d="M68 272q0 156 110.5 225.5t280.5 69.5h319v172q0 119 -73.5 177.5t-206.5 58.5q-147 0 -316 -84l-12 57q78 41 176 65.5t201 24.5q174 0 273.5 -77.5t99.5 -208.5v-678q76 -14 143 -33v-14l-285 -29v156q-90 -96 -189.5 -135t-191.5 -39q-157 0 -243 75.5t-86 216.5z M209 274q0 -115 65.5 -172t169.5 -57q93 0 190 57.5t144 130.5v271h-284q-143 0 -214 -60.5t-71 -169.5zM227 1421h95q10 -106 67 -143t139 -37q80 0 137.5 37t69.5 143h94q-14 -123 -94 -184t-207 -61t-206.5 61t-94.5 184z" />
<glyph unicode="&#x104;" horiz-adv-x="1443" d="M14 0v23q78 29 160 36l500 1383h96l500 -1385q88 -10 160 -37v-20h-7q-59 -33 -97 -84t-38 -109q0 -51 35 -76.5t90 -25.5q56 0 103 23v-68q-70 -31 -152 -31q-90 0 -139 47.5t-49 110.5q0 68 43 125t118 88h-376v20q66 27 167 35l-112 320h-637l-115 -320 q106 -10 170 -37v-18h-420zM401 438h592l-295 828z" />
<glyph unicode="&#x105;" horiz-adv-x="1071" d="M68 272q0 156 110.5 225.5t280.5 69.5h319v172q0 119 -73.5 177.5t-206.5 58.5q-147 0 -316 -84l-12 57q78 41 176 65.5t201 24.5q174 0 273.5 -77.5t99.5 -208.5v-678q76 -14 143 -33v-14l-51 -7q-57 -33 -95 -84t-38 -106q0 -51 34.5 -76.5t90.5 -25.5q55 -1 102 22 v-67q-72 -31 -152 -31q-90 0 -139 47t-49 111q0 61 36 114t99 86l-123 -12v156q-90 -96 -189.5 -135t-191.5 -39q-158 0 -243.5 75.5t-85.5 216.5zM209 274q0 -115 65.5 -172t169.5 -57q92 0 189.5 57.5t144.5 130.5v271h-284q-143 0 -214 -60.5t-71 -169.5z" />
<glyph unicode="&#x106;" horiz-adv-x="1236" d="M102 717q0 344 167 540.5t472 196.5q252 0 402 -135l-17 -234h-39q-20 57 -36 218q-45 37 -118 61.5t-155 24.5q-268 0 -398 -183.5t-130 -488.5q0 -309 124 -490.5t396 -181.5q74 0 171 27.5t177 79.5l23 -46q-70 -61 -173.5 -93.5t-226.5 -32.5q-313 0 -476 194.5 t-163 542.5zM594 1649l229 204q39 39 80 39q25 0 38 -13t13 -34q0 -39 -55 -73l-278 -162z" />
<glyph unicode="&#x107;" horiz-adv-x="980" d="M61 508q0 168 66 286.5t183.5 181t273.5 62.5q211 0 350 -116l-14 -213h-33q-20 49 -31 196q-109 70 -229 70q-207 0 -314.5 -125t-107.5 -356q0 -117 44 -220.5t137 -168t230 -64.5q82 0 165 26.5t143 69.5l14 -47q-57 -47 -150.5 -78.5t-209.5 -31.5q-156 0 -273 66.5 t-180.5 185t-63.5 276.5zM461 1235l229 205q39 39 80 39q25 0 38 -13.5t13 -33.5q0 -39 -55 -74l-279 -162z" />
<glyph unicode="&#x108;" horiz-adv-x="1236" d="M102 717q0 344 167 540.5t472 196.5q252 0 402 -135l-17 -234h-39q-20 57 -36 218q-45 37 -118 61.5t-155 24.5q-268 0 -398 -183.5t-130 -488.5q0 -309 124 -490.5t396 -181.5q74 0 171 27.5t177 79.5l23 -46q-70 -61 -173.5 -93.5t-226.5 -32.5q-313 0 -476 194.5 t-163 542.5zM469 1651q63 45 135 110.5t117 126.5h67q45 -61 117 -126.5t135 -110.5l-59 -56q-59 43 -120.5 100.5t-100.5 108.5h-10q-39 -51 -100.5 -108.5t-121.5 -100.5z" />
<glyph unicode="&#x109;" horiz-adv-x="980" d="M61 508q0 168 66 286.5t183.5 181t273.5 62.5q211 0 350 -116l-14 -213h-33q-20 49 -31 196q-109 70 -229 70q-207 0 -314.5 -125t-107.5 -356q0 -117 44 -220.5t137 -168t230 -64.5q82 0 165 26.5t143 69.5l14 -47q-57 -47 -150.5 -78.5t-209.5 -31.5q-156 0 -273 66.5 t-180.5 185t-63.5 276.5zM313 1237q63 45 135 110.5t117 127.5h68q45 -61 116.5 -127t135.5 -111l-60 -55q-59 43 -120.5 100t-100.5 109h-10q-39 -51 -100.5 -108.5t-120.5 -100.5z" />
<glyph unicode="&#x10a;" horiz-adv-x="1236" d="M102 717q0 344 167 540.5t472 196.5q252 0 402 -135l-17 -234h-39q-20 57 -36 218q-45 37 -118 61.5t-155 24.5q-268 0 -398 -183.5t-130 -488.5q0 -309 124 -490.5t396 -181.5q74 0 171 27.5t177 79.5l23 -46q-70 -61 -173.5 -93.5t-226.5 -32.5q-313 0 -476 194.5 t-163 542.5zM694 1690q0 39 21.5 61.5t58.5 22.5q35 0 57.5 -22.5t22.5 -61.5q0 -37 -22.5 -59.5t-57.5 -22.5q-37 0 -58.5 22.5t-21.5 59.5z" />
<glyph unicode="&#x10b;" horiz-adv-x="980" d="M61 508q0 168 66 286.5t183.5 181t273.5 62.5q211 0 350 -116l-14 -213h-33q-20 49 -31 196q-109 70 -229 70q-207 0 -314.5 -125t-107.5 -356q0 -117 44 -220.5t137 -168t230 -64.5q82 0 165 26.5t143 69.5l14 -47q-57 -47 -150.5 -78.5t-209.5 -31.5q-156 0 -273 66.5 t-180.5 185t-63.5 276.5zM512 1276q0 39 21.5 61.5t58.5 22.5q35 0 57.5 -22.5t22.5 -61.5q0 -37 -22.5 -59.5t-57.5 -22.5q-37 0 -58.5 22.5t-21.5 59.5z" />
<glyph unicode="&#x10c;" horiz-adv-x="1236" d="M102 717q0 344 167 540.5t472 196.5q252 0 402 -135l-17 -234h-39q-20 57 -36 218q-45 37 -118 61.5t-155 24.5q-268 0 -398 -183.5t-130 -488.5q0 -309 124 -490.5t396 -181.5q74 0 171 27.5t177 79.5l23 -46q-70 -61 -173.5 -93.5t-226.5 -32.5q-313 0 -476 194.5 t-163 542.5zM481 1849l60 56q59 -43 120.5 -100.5t100.5 -108.5h10q39 51 100.5 108.5t120.5 100.5l60 -56q-66 -45 -136.5 -111.5t-115.5 -127.5h-68q-45 61 -115.5 127.5t-136.5 111.5z" />
<glyph unicode="&#x10d;" horiz-adv-x="980" d="M61 508q0 168 66 286.5t183.5 181t273.5 62.5q211 0 350 -116l-14 -213h-33q-20 49 -31 196q-109 70 -229 70q-207 0 -314.5 -125t-107.5 -356q0 -117 44 -220.5t137 -168t230 -64.5q82 0 165 26.5t143 69.5l14 -47q-57 -47 -150.5 -78.5t-209.5 -31.5q-156 0 -273 66.5 t-180.5 185t-63.5 276.5zM317 1436l60 55q59 -43 120.5 -100.5t100.5 -108.5h10q39 51 100.5 108.5t120.5 100.5l60 -55q-66 -45 -136.5 -112t-115.5 -128h-68q-45 61 -115.5 128t-136.5 112z" />
<glyph unicode="&#x10e;" horiz-adv-x="1339" d="M88 0v20q84 29 164 35v1321q-90 14 -164 37v21h594q301 0 439.5 -181.5t138.5 -535.5q0 -352 -138.5 -534.5t-441.5 -182.5h-592zM389 1849l60 56q59 -43 120.5 -100.5t100.5 -108.5h10q39 51 100.5 108.5t120.5 100.5l60 -56q-66 -45 -136.5 -111.5t-115.5 -127.5h-68 q-45 61 -115.5 127.5t-136.5 111.5zM397 63h279q238 0 337 169t99 485q0 313 -98.5 482t-333.5 169h-283v-1305z" />
<glyph unicode="&#x10f;" horiz-adv-x="1411" d="M61 512q0 248 128 387t341 139q96 0 183.5 -30.5t167.5 -120.5v485q-90 16 -144 35v12l285 31v-1376q84 -14 143 -33v-12l-250 -35q-12 59 -20 178q-53 -96 -154.5 -144t-228.5 -48q-213 0 -332 130t-119 402zM203 510q0 -217 83 -342t263 -125q100 0 175 41t116 111.5 t41 154.5v453q-68 80 -142.5 126t-169.5 46q-184 0 -275 -129t-91 -336zM1165 1360q0 43 28 65.5t67 22.5q57 0 84.5 -34t27.5 -93q0 -76 -36 -168t-93 -145l-53 43q37 45 60.5 104t27.5 121q-16 -4 -25 -4q-37 0 -62.5 24.5t-25.5 63.5z" />
<glyph unicode="&#x110;" horiz-adv-x="1339" d="M88 0v20q84 29 164 35v594h-154v64h154v663q-90 14 -164 37v21h594q301 0 439.5 -181.5t138.5 -535.5q0 -352 -138.5 -534.5t-441.5 -182.5h-592zM397 63h279q237 0 336.5 169t99.5 485q0 313 -98.5 482t-333.5 169h-283v-655h361v-64h-361v-586z" />
<glyph unicode="&#x111;" horiz-adv-x="1173" d="M61 512q0 248 128 387t341 139q96 0 183.5 -30.5t167.5 -120.5v291h-332v67h332v178q-84 14 -144 33v14l285 31v-256h100v-67h-100v-1104q84 -14 143 -33v-12l-250 -35q-12 59 -20 178q-53 -96 -154.5 -144t-228.5 -48q-213 0 -332 130t-119 402zM203 510q0 -217 83 -342 t263 -125q100 0 175 41t116 111.5t41 154.5v453q-68 80 -142.5 126t-169.5 46q-184 0 -275 -129t-91 -336z" />
<glyph unicode="&#x112;" horiz-adv-x="1222" d="M88 0v20q82 27 170 35v1321q-84 10 -170 37v21h1006v-277h-35q-14 27 -28.5 97.5t-18.5 113.5h-609v-620h451q4 35 14.5 86t22.5 81h27v-399h-27q-12 33 -22.5 83t-14.5 85h-451v-621h613q2 39 25.5 110t41.5 101h37l-26 -274h-1006zM346 1606v63h643v-63h-643z" />
<glyph unicode="&#x113;" horiz-adv-x="1060" d="M57 508q0 252 133.5 391t366.5 139q145 0 244.5 -65.5t146.5 -174t47 -241.5v-43h-794q0 -207 107.5 -340t309.5 -133q82 0 168 26.5t148 69.5l14 -47q-57 -47 -153.5 -78.5t-212.5 -31.5q-156 0 -275 66.5t-184.5 186t-65.5 275.5zM203 578h663q0 156 -73.5 276.5 t-231.5 120.5q-166 0 -255 -111.5t-103 -285.5zM213 1196v64h643v-64h-643z" />
<glyph unicode="&#x114;" horiz-adv-x="1222" d="M88 0v20q82 27 170 35v1321q-84 10 -170 37v21h1006v-277h-35q-14 27 -28.5 97.5t-18.5 113.5h-609v-620h451q4 35 14.5 86t22.5 81h27v-399h-27q-12 33 -22.5 83t-14.5 85h-451v-621h613q2 39 25.5 110t41.5 101h37l-26 -274h-1006zM377 1835h94q10 -106 68.5 -143 t138.5 -37t137 37t70 143h94q-14 -123 -94 -184.5t-207 -61.5t-207 61.5t-94 184.5z" />
<glyph unicode="&#x115;" horiz-adv-x="1060" d="M57 508q0 252 133.5 391t366.5 139q145 0 244.5 -65.5t146.5 -174t47 -241.5v-43h-794q0 -207 107.5 -340t309.5 -133q82 0 168 26.5t148 69.5l14 -47q-57 -47 -153.5 -78.5t-212.5 -31.5q-156 0 -275 66.5t-184.5 186t-65.5 275.5zM203 578h663q0 156 -73.5 276.5 t-231.5 120.5q-166 0 -255 -111.5t-103 -285.5zM229 1421h95q10 -106 67.5 -143t138.5 -37q80 0 137.5 37t69.5 143h94q-14 -123 -94 -184t-207 -61t-206.5 61t-94.5 184z" />
<glyph unicode="&#x116;" horiz-adv-x="1222" d="M88 0v20q82 27 170 35v1321q-84 10 -170 37v21h1006v-277h-35q-14 27 -28.5 97.5t-18.5 113.5h-609v-620h451q4 35 14.5 86t22.5 81h27v-399h-27q-12 33 -22.5 83t-14.5 85h-451v-621h613q2 39 25.5 110t41.5 101h37l-26 -274h-1006zM608 1690q0 39 21.5 61.5t58.5 22.5 q35 0 57.5 -22.5t22.5 -61.5q0 -37 -22.5 -59.5t-57.5 -22.5q-37 0 -58.5 22.5t-21.5 59.5z" />
<glyph unicode="&#x117;" horiz-adv-x="1060" d="M57 508q0 252 133.5 391t366.5 139q145 0 244.5 -65.5t146.5 -174t47 -241.5v-43h-794q0 -207 107.5 -340t309.5 -133q82 0 168 26.5t148 69.5l14 -47q-57 -47 -153.5 -78.5t-212.5 -31.5q-156 0 -275 66.5t-184.5 186t-65.5 275.5zM203 578h663q0 156 -73.5 276.5 t-231.5 120.5q-166 0 -255 -111.5t-103 -285.5zM465 1276q0 39 21.5 61.5t58.5 22.5q35 0 57.5 -22.5t22.5 -61.5q0 -37 -22.5 -59.5t-57.5 -22.5q-37 0 -58.5 22.5t-21.5 59.5z" />
<glyph unicode="&#x118;" horiz-adv-x="1222" d="M88 0v20q82 27 170 35v1321q-84 10 -170 37v21h1006v-277h-35q-14 27 -28.5 97.5t-18.5 113.5h-609v-620h451q4 35 14.5 86t22.5 81h27v-399h-27q-12 33 -22.5 83t-14.5 85h-451v-621h613q2 39 25.5 110t41.5 101h37l-26 -274h-52q-59 -33 -97 -84t-38 -109 q0 -51 35 -76.5t90 -25.5q56 0 103 23v-68q-70 -31 -152 -31q-90 0 -139 47.5t-49 110.5q0 68 43 125t118 88h-868z" />
<glyph unicode="&#x119;" horiz-adv-x="1060" d="M57 508q0 252 133.5 391t366.5 139q145 0 244.5 -65.5t146.5 -174t47 -241.5v-43h-794q0 -207 107.5 -340t309.5 -133q82 0 168 26.5t148 69.5l14 -47q-35 -27 -74 -47q-55 -31 -89.5 -82t-34.5 -104q0 -51 34.5 -77t89.5 -26t103 23v-68q-70 -31 -152 -31 q-90 0 -139 47.5t-49 110.5q0 88 70 154q-66 -10 -125 -10q-156 0 -275 66.5t-184.5 186t-65.5 275.5zM203 578h663q0 156 -73.5 276.5t-231.5 120.5q-166 0 -255 -111.5t-103 -285.5z" />
<glyph unicode="&#x11a;" horiz-adv-x="1222" d="M88 0v20q82 27 170 35v1321q-84 10 -170 37v21h1006v-277h-35q-14 27 -28.5 97.5t-18.5 113.5h-609v-620h451q4 35 14.5 86t22.5 81h27v-399h-27q-12 33 -22.5 83t-14.5 85h-451v-621h613q2 39 25.5 110t41.5 101h37l-26 -274h-1006zM387 1849l59 56q59 -43 121 -100.5 t101 -108.5h10q39 51 100.5 108.5t120.5 100.5l59 -56q-66 -45 -136 -111.5t-115 -127.5h-68q-45 61 -115.5 127.5t-136.5 111.5z" />
<glyph unicode="&#x11b;" horiz-adv-x="1060" d="M57 508q0 252 133.5 391t366.5 139q145 0 244.5 -65.5t146.5 -174t47 -241.5v-43h-794q0 -207 107.5 -340t309.5 -133q82 0 168 26.5t148 69.5l14 -47q-57 -47 -153.5 -78.5t-212.5 -31.5q-156 0 -275 66.5t-184.5 186t-65.5 275.5zM203 578h663q0 156 -73.5 276.5 t-231.5 120.5q-166 0 -255 -111.5t-103 -285.5zM270 1436l60 55q59 -43 120.5 -100.5t100.5 -108.5h10q39 51 100.5 108.5t120.5 100.5l60 -55q-66 -45 -136.5 -112t-115.5 -128h-68q-45 61 -115.5 128t-136.5 112z" />
<glyph unicode="&#x11c;" horiz-adv-x="1339" d="M78 717q0 227 77.5 393t225 255t352.5 89q135 0 267.5 -37t197.5 -98l-16 -234h-39q-23 59 -37 218q-41 33 -143.5 59.5t-190.5 26.5q-270 0 -408.5 -184.5t-138.5 -487.5q0 -307 125 -489.5t398 -182.5q61 0 144 17.5t142 50.5v524q-96 16 -164 37v20h447v-18 q-68 -33 -143 -41v-533q-76 -59 -201 -90.5t-254 -31.5q-313 0 -477 194.5t-164 542.5zM477 1651q63 45 135 110.5t117 126.5h68q45 -61 116.5 -126.5t135.5 -110.5l-60 -56q-59 43 -120.5 100.5t-100.5 108.5h-10q-39 -51 -100.5 -108.5t-120.5 -100.5z" />
<glyph unicode="&#x11d;" horiz-adv-x="1048" d="M78 -53q0 119 117 186q-47 25 -71 64t-24 82q0 92 115 161q-63 43 -97 109.5t-34 152.5q0 158 111.5 247t304.5 89q201 0 313 -96q31 29 53.5 70t22.5 65h115q-10 -49 -46 -99t-98 -89q55 -76 55 -187q0 -158 -111.5 -246.5t-303.5 -88.5q-119 0 -211 34 q-37 -23 -56.5 -51t-19.5 -55q0 -41 40 -53.5t132 -12.5h285q157 0 235 -67.5t78 -188.5q0 -147 -131 -213.5t-358 -66.5q-190 0 -303 65.5t-113 188.5zM193 -45q0 -96 84.5 -145.5t228.5 -49.5q160 0 254 48.5t94 140.5q0 76 -48 114.5t-169 38.5h-297q-47 0 -78 9 q-41 -37 -55 -74t-14 -82zM225 702q0 -119 71 -195.5t204 -76.5t203.5 77t70.5 195q0 119 -70.5 196t-203.5 77t-204 -77t-71 -196zM240 1237q63 45 134.5 110.5t117.5 127.5h67q45 -61 117 -127t135 -111l-59 -55q-59 43 -121 100t-101 109h-10q-39 -52 -100.5 -109 t-120.5 -100z" />
<glyph unicode="&#x11e;" horiz-adv-x="1339" d="M78 717q0 227 77.5 393t225 255t352.5 89q135 0 267.5 -37t197.5 -98l-16 -234h-39q-23 59 -37 218q-41 33 -143.5 59.5t-190.5 26.5q-270 0 -408.5 -184.5t-138.5 -487.5q0 -307 125 -489.5t398 -182.5q61 0 144 17.5t142 50.5v524q-96 16 -164 37v20h447v-18 q-68 -33 -143 -41v-533q-76 -59 -201 -90.5t-254 -31.5q-313 0 -477 194.5t-164 542.5zM432 1835h94q10 -106 68.5 -143t138.5 -37t137.5 37t69.5 143h94q-14 -123 -94 -184.5t-207 -61.5t-207 61.5t-94 184.5z" />
<glyph unicode="&#x11f;" horiz-adv-x="1048" d="M78 -53q0 119 117 186q-47 25 -71 64t-24 82q0 92 115 161q-63 43 -97 109.5t-34 152.5q0 158 111.5 247t304.5 89q201 0 313 -96q31 29 53.5 70t22.5 65h115q-10 -49 -46 -99t-98 -89q55 -76 55 -187q0 -158 -111.5 -246.5t-303.5 -88.5q-119 0 -211 34 q-37 -23 -56.5 -51t-19.5 -55q0 -41 40 -53.5t132 -12.5h285q157 0 235 -67.5t78 -188.5q0 -147 -131 -213.5t-358 -66.5q-190 0 -303 65.5t-113 188.5zM193 -45q0 -96 84.5 -145.5t228.5 -49.5q160 0 254 48.5t94 140.5q0 76 -48 114.5t-169 38.5h-297q-47 0 -78 9 q-41 -37 -55 -74t-14 -82zM223 1421h94q10 -106 68.5 -143t138.5 -37t137.5 37t69.5 143h94q-14 -123 -94 -184t-207 -61t-206.5 61t-94.5 184zM225 702q0 -119 71 -195.5t204 -76.5t203.5 77t70.5 195q0 119 -70.5 196t-203.5 77t-204 -77t-71 -196z" />
<glyph unicode="&#x120;" horiz-adv-x="1339" d="M78 717q0 227 77.5 393t225 255t352.5 89q135 0 267.5 -37t197.5 -98l-16 -234h-39q-23 59 -37 218q-41 33 -143.5 59.5t-190.5 26.5q-270 0 -408.5 -184.5t-138.5 -487.5q0 -307 125 -489.5t398 -182.5q61 0 144 17.5t142 50.5v524q-96 16 -164 37v20h447v-18 q-68 -33 -143 -41v-533q-76 -59 -201 -90.5t-254 -31.5q-313 0 -477 194.5t-164 542.5zM672 1690q0 39 21.5 61.5t58.5 22.5q35 0 57 -22.5t22 -61.5q0 -37 -22.5 -59.5t-56.5 -22.5q-37 0 -58.5 22.5t-21.5 59.5z" />
<glyph unicode="&#x121;" horiz-adv-x="1048" d="M78 -53q0 119 117 186q-47 25 -71 64t-24 82q0 92 115 161q-63 43 -97 109.5t-34 152.5q0 158 111.5 247t304.5 89q201 0 313 -96q31 29 53.5 70t22.5 65h115q-10 -49 -46 -99t-98 -89q55 -76 55 -187q0 -158 -111.5 -246.5t-303.5 -88.5q-119 0 -211 34 q-37 -23 -56.5 -51t-19.5 -55q0 -41 40 -53.5t132 -12.5h285q157 0 235 -67.5t78 -188.5q0 -147 -131 -213.5t-358 -66.5q-190 0 -303 65.5t-113 188.5zM193 -45q0 -96 84.5 -145.5t228.5 -49.5q160 0 254 48.5t94 140.5q0 76 -48 114.5t-169 38.5h-297q-47 0 -78 9 q-41 -37 -55 -74t-14 -82zM225 702q0 -119 71 -195.5t204 -76.5t203.5 77t70.5 195q0 119 -70.5 196t-203.5 77t-204 -77t-71 -196zM438 1276q0 39 21.5 61.5t58.5 22.5q35 0 57.5 -22.5t22.5 -61.5q0 -37 -22.5 -59.5t-57.5 -22.5q-37 0 -58.5 22.5t-21.5 59.5z" />
<glyph unicode="&#x122;" horiz-adv-x="1339" d="M78 717q0 227 77.5 393t225 255t352.5 89q135 0 267.5 -37t197.5 -98l-16 -234h-39q-23 59 -37 218q-41 33 -143.5 59.5t-190.5 26.5q-270 0 -408.5 -184.5t-138.5 -487.5q0 -307 125 -489.5t398 -182.5q61 0 144 17.5t142 50.5v524q-96 16 -164 37v20h447v-18 q-68 -33 -143 -41v-533q-76 -59 -201 -90.5t-254 -31.5q-313 0 -477 194.5t-164 542.5zM629 -221q0 43 27.5 65.5t66.5 22.5q57 0 85 -34t28 -93q0 -76 -36 -168t-93 -145l-54 43q37 45 60.5 104t27.5 121q-16 -4 -24 -4q-37 0 -62.5 24.5t-25.5 63.5z" />
<glyph unicode="&#x123;" horiz-adv-x="1048" d="M78 -53q0 119 117 186q-47 25 -71 64t-24 82q0 92 115 161q-63 43 -97 109.5t-34 152.5q0 158 111.5 247t304.5 89q201 0 313 -96q31 29 53.5 70t22.5 65h115q-10 -49 -46 -99t-98 -89q55 -76 55 -187q0 -158 -111.5 -246.5t-303.5 -88.5q-119 0 -211 34 q-37 -23 -56.5 -51t-19.5 -55q0 -41 40 -53.5t132 -12.5h285q157 0 235 -67.5t78 -188.5q0 -147 -131 -213.5t-358 -66.5q-190 0 -303 65.5t-113 188.5zM193 -45q0 -96 84.5 -145.5t228.5 -49.5q160 0 254 48.5t94 140.5q0 76 -48 114.5t-169 38.5h-297q-47 0 -78 9 q-41 -37 -55 -74t-14 -82zM225 702q0 -119 71 -195.5t204 -76.5t203.5 77t70.5 195q0 119 -70.5 196t-203.5 77t-204 -77t-71 -196zM416 1319q0 76 35.5 168t93.5 145l53 -43q-37 -45 -60.5 -104.5t-27.5 -120.5q16 4 25 4q37 0 62.5 -24.5t25.5 -63.5q0 -43 -28 -65.5 t-67 -22.5q-57 0 -84.5 34t-27.5 93z" />
<glyph unicode="&#x124;" horiz-adv-x="1595" d="M88 0v20q84 29 164 35v1321q-90 14 -164 37v21h471v-21q-45 -16 -76.5 -23.5t-85.5 -13.5v-616h799v616q-86 12 -160 37v21h471v-23q-84 -29 -166 -35v-1321q109 -16 166 -37v-18h-471v18q47 18 79 25.5t81 11.5v641h-799v-641q86 -12 162 -37v-18h-471zM512 1651 q63 45 135 110.5t117 126.5h67q45 -61 117 -126.5t135 -110.5l-59 -56q-59 43 -120.5 100.5t-100.5 108.5h-10q-39 -51 -100.5 -108.5t-121.5 -100.5z" />
<glyph unicode="&#x125;" horiz-adv-x="1310" d="M68 0v18q84 29 165 37v1317q-90 16 -143 35v12l285 31v-573q74 70 179 115.5t226 45.5q147 0 235.5 -77.5t88.5 -208.5v-697q94 -14 166 -37v-18h-469v18q78 25 162 37v678q0 125 -63.5 183.5t-166.5 58.5q-90 0 -188.5 -45t-169.5 -123v-752q94 -14 160 -37v-18h-467z M399 1663q63 45 135 110.5t117 127.5h68q45 -61 116.5 -127t135.5 -111l-60 -55q-59 43 -120.5 100t-100.5 109h-10q-39 -52 -100.5 -109t-120.5 -100z" />
<glyph unicode="&#x126;" horiz-adv-x="1595" d="M88 0v20q84 29 164 35v985h-123v64h123v272q-90 14 -164 37v21h471v-21q-45 -16 -76.5 -23.5t-85.5 -13.5v-272h799v272q-86 12 -160 37v21h471v-23q-84 -29 -166 -35v-272h125v-64h-125v-985q109 -16 166 -37v-18h-471v18q47 18 79 25.5t81 11.5v641h-799v-641 q86 -12 162 -37v-18h-471zM397 760h799v280h-799v-280z" />
<glyph unicode="&#x127;" horiz-adv-x="1310" d="M68 0v18q84 29 165 37v1121h-116v67h116v129q-90 16 -143 35v12l285 31v-207h315v-67h-315v-299q74 70 179 115.5t226 45.5q147 0 235.5 -77.5t88.5 -208.5v-697q94 -14 166 -37v-18h-469v18q78 25 162 37v678q0 125 -63.5 183.5t-166.5 58.5q-90 0 -188.5 -45 t-169.5 -123v-752q94 -14 160 -37v-18h-467z" />
<glyph unicode="&#x128;" horiz-adv-x="671" d="M6 1610q14 98 62.5 146t121.5 48q39 0 76 -16t86 -47q43 -25 72 -38t55 -13q100 0 131 127h52q-14 -96 -60.5 -150.5t-126.5 -54.5q-33 0 -63.5 14t-89.5 47q-53 31 -81 44.5t-55 13.5q-47 0 -80.5 -33t-46.5 -88h-53zM96 0v20q74 23 166 35v1321q-94 14 -166 37v21h479 v-21q-70 -23 -167 -37v-1321q98 -14 167 -37v-18h-479z" />
<glyph unicode="&#x129;" horiz-adv-x="626" d="M-16 1196q14 98 62 146.5t122 48.5q39 0 76 -16.5t86 -47.5q43 -25 71.5 -38t55.5 -13q100 0 131 127h51q-14 -96 -60.5 -150.5t-125.5 -54.5q-33 0 -64 14.5t-90 47.5q-53 31 -81 44t-54 13q-47 0 -81 -33t-46 -88h-53zM76 0v18q51 16 166 37v899q-90 16 -144 35v12 l285 31v-977q92 -12 166 -37v-18h-473z" />
<glyph unicode="&#x12a;" horiz-adv-x="671" d="M2 1608v63h670v-63h-670zM96 0v20q74 23 166 35v1321q-94 14 -166 37v21h479v-21q-70 -23 -167 -37v-1321q98 -14 167 -37v-18h-479z" />
<glyph unicode="&#x12b;" horiz-adv-x="626" d="M-10 1196v64h643v-64h-643zM76 0v18q51 16 166 37v899q-90 16 -144 35v12l285 31v-977q92 -12 166 -37v-18h-473z" />
<glyph unicode="&#x12c;" horiz-adv-x="671" d="M35 1835h94q10 -106 67.5 -143t139.5 -37q80 0 137 37t70 143h94q-14 -123 -94 -184.5t-207 -61.5t-207 61.5t-94 184.5zM96 0v20q74 23 166 35v1321q-94 14 -166 37v21h479v-21q-70 -23 -167 -37v-1321q98 -14 167 -37v-18h-479z" />
<glyph unicode="&#x12d;" horiz-adv-x="626" d="M10 1436h94q12 -106 69.5 -143.5t137.5 -37.5t138.5 37t68.5 144h94q-14 -123 -94 -184.5t-207 -61.5t-206.5 61.5t-94.5 184.5zM76 0v18q51 16 166 37v899q-90 16 -144 35v12l285 31v-977q92 -12 166 -37v-18h-473z" />
<glyph unicode="&#x12e;" horiz-adv-x="671" d="M96 0v20q74 23 166 35v1321q-94 14 -166 37v21h479v-21q-70 -23 -167 -37v-1321q98 -14 167 -37v-18h-53q-59 -33 -97 -84t-38 -109q0 -51 35 -76.5t90 -25.5t102 23v-68q-72 -31 -151 -31q-90 0 -139.5 47.5t-49.5 110.5q0 68 43 125t119 88h-340z" />
<glyph unicode="&#x12f;" horiz-adv-x="585" d="M55 0v18q51 16 166 37v899q-90 16 -143 35v12l284 31v-977q92 -12 166 -37v-18h-12q-59 -33 -97 -84t-38 -109q0 -51 35 -76.5t90 -25.5t102 23v-68q-70 -31 -151 -31q-90 0 -139.5 47.5t-49.5 110.5q0 68 43 125t119 88h-375zM178 1231q0 45 27.5 71.5t73.5 26.5 q45 0 72.5 -26.5t27.5 -71.5q0 -43 -27.5 -69.5t-72.5 -26.5q-46 0 -73.5 26.5t-27.5 69.5z" />
<glyph unicode="&#x130;" horiz-adv-x="671" d="M96 0v20q74 23 166 35v1321q-94 14 -166 37v21h479v-21q-70 -23 -167 -37v-1321q98 -14 167 -37v-18h-479zM254 1690q0 39 21.5 61.5t58.5 22.5q35 0 57.5 -22.5t22.5 -61.5q0 -37 -22.5 -59.5t-57.5 -22.5q-37 0 -58.5 22.5t-21.5 59.5z" />
<glyph unicode="&#x131;" horiz-adv-x="626" d="M76 0v18q51 16 166 37v899q-90 16 -144 35v12l285 31v-977q92 -12 166 -37v-18h-473z" />
<glyph unicode="&#x132;" horiz-adv-x="1601" d="M96 0v20q74 23 166 35v1321q-94 14 -166 37v21h479v-21q-70 -23 -167 -37v-1321q98 -14 167 -37v-18h-479zM711 74l24 41q104 -59 230 -60q238 0 237 230v1089q-84 10 -164 35v25h473v-23q-78 -27 -163 -35v-1095q0 -143 -91.5 -222t-248.5 -79q-180 0 -297 94z" />
<glyph unicode="&#x133;" horiz-adv-x="1183" d="M55 0v18q51 16 166 37v899q-90 16 -143 35v12l284 31v-977q92 -12 166 -37v-18h-473zM178 1231q0 45 27.5 71.5t73.5 26.5q45 0 72.5 -26.5t27.5 -71.5q0 -43 -27.5 -69.5t-72.5 -26.5q-46 0 -73.5 26.5t-27.5 69.5zM559 -211l12 59q57 -29 129 -28q160 0 160 178v956 q-90 16 -143 35v12l284 31v-1028q0 -129 -68.5 -190.5t-189.5 -61.5q-108 0 -184 37zM817 1231q0 45 26.5 71.5t71.5 26.5t73 -26.5t28 -71.5q0 -43 -27.5 -69.5t-73.5 -26.5q-45 0 -71.5 26.5t-26.5 69.5z" />
<glyph unicode="&#x134;" horiz-adv-x="935" d="M45 74l25 41q104 -59 229 -60q238 0 238 230v1089q-84 10 -164 35v25h473v-23q-78 -27 -164 -35v-1095q0 -143 -91 -222t-249 -79q-180 0 -297 94zM324 1651q63 45 134.5 110.5t116.5 126.5h68q45 -61 116.5 -126.5t135.5 -110.5l-59 -56q-59 43 -121 100.5t-101 108.5 h-10q-39 -51 -100.5 -108.5t-120.5 -100.5z" />
<glyph unicode="&#x135;" horiz-adv-x="598" d="M-27 -211l13 59q57 -29 129 -28q158 0 157 178v956q-90 16 -143 35v12l287 31v-1028q0 -129 -68.5 -190.5t-189.5 -61.5q-109 0 -185 37zM27 1237q63 45 134.5 110.5t117.5 127.5h67q45 -61 117 -127t135 -111l-59 -55q-59 43 -121 100t-101 109h-10 q-39 -51 -100.5 -108.5t-120.5 -100.5z" />
<glyph unicode="&#x136;" horiz-adv-x="1460" d="M88 0v20q84 27 166 35v1321q-94 14 -166 37v21h479v-21q-76 -25 -168 -37v-717l639 703q-6 14 -26.5 20.5t-44 10.5t-29.5 6q-39 4 -51 8v27h391v-27q-16 -4 -45 -9t-52.5 -13.5t-41.5 -24.5l-486 -531l617 -774q119 -23 168 -37v-18h-285l-588 737l-166 -184v-498 q96 -14 168 -37v-18h-479zM680 -221q0 43 27.5 65.5t66.5 22.5q57 0 85 -34t28 -93q0 -76 -36 -168t-93 -145l-53 43q37 45 60 104t28 121q-16 -4 -25 -4q-37 0 -62.5 24.5t-25.5 63.5z" />
<glyph unicode="&#x137;" horiz-adv-x="1241" d="M68 0v18q86 29 165 37v1317q-90 16 -143 35v12l285 31v-993l456 475q12 12 17 22q-4 4 -72 25q-43 10 -71 22v19h407v-19q-20 -8 -86 -26q-68 -14 -86 -29l-342 -354l446 -537q86 -12 160 -37v-18h-258l-428 508l-143 -148v-305q100 -14 166 -37v-18h-473zM565 -221 q0 43 28 65.5t66 22.5q58 0 85.5 -34t27.5 -93q0 -76 -36 -168t-93 -145l-53 43q37 45 60.5 104t27.5 121q-16 -4 -25 -4q-37 0 -62.5 24.5t-25.5 63.5z" />
<glyph unicode="&#x138;" horiz-adv-x="1241" d="M68 0v18q86 29 165 37v908q-90 16 -143 34v13l285 30v-585l456 477q12 12 17 22q-4 4 -72 25q-43 10 -71 22v19h407v-19q-20 -8 -86 -26q-68 -14 -86 -29l-342 -354l446 -537q86 -12 160 -37v-18h-258l-428 508l-143 -148v-305q100 -14 166 -37v-18h-473z" />
<glyph unicode="&#x139;" horiz-adv-x="1189" d="M90 0v20q70 25 170 35v1321q-90 12 -168 37v21h479v-21q-74 -25 -165 -37v-1313h589q2 39 27 109t43 102h35l-27 -274h-983zM260 1649l229 204q39 39 80 39q25 0 38.5 -13t13.5 -34q0 -39 -56 -73l-278 -162z" />
<glyph unicode="&#x13a;" horiz-adv-x="610" d="M68 0v18q63 18 165 37v1317q-90 16 -143 35v12l285 31v-1395q100 -14 166 -37v-18h-473zM156 1630l229 205q39 39 80 39q25 0 38 -13.5t13 -33.5q0 -39 -55 -74l-279 -162z" />
<glyph unicode="&#x13b;" horiz-adv-x="1189" d="M90 0v20q70 25 170 35v1321q-90 12 -168 37v21h479v-21q-74 -25 -165 -37v-1313h589q2 39 27 109t43 102h35l-27 -274h-983zM537 -221q0 43 27.5 65.5t66.5 22.5q57 0 84.5 -34t27.5 -93q0 -76 -35.5 -168t-93.5 -145l-53 43q37 45 60.5 104t27.5 121q-16 -4 -24 -4 q-37 0 -62.5 24.5t-25.5 63.5z" />
<glyph unicode="&#x13c;" horiz-adv-x="610" d="M68 0v18q63 18 165 37v1317q-90 16 -143 35v12l285 31v-1395q100 -14 166 -37v-18h-473zM201 -221q0 43 27.5 65.5t66.5 22.5q57 0 85 -34t28 -93q0 -76 -36 -168t-93 -145l-54 43q37 45 60.5 104t27.5 121q-16 -4 -24 -4q-37 0 -62.5 24.5t-25.5 63.5z" />
<glyph unicode="&#x13d;" horiz-adv-x="1189" d="M90 0v20q70 25 170 35v1321q-90 12 -168 37v21h479v-21q-74 -25 -165 -37v-1313h589q2 39 27 109t43 102h35l-27 -274h-983zM784 1358q0 43 26 69.5t71 26.5q61 0 87.5 -37t26.5 -98q0 -76 -37.5 -168t-95.5 -145l-53 43q37 45 61.5 104t28.5 121q-16 -4 -27 -4 q-37 0 -62.5 22.5t-25.5 65.5z" />
<glyph unicode="&#x13e;" horiz-adv-x="856" d="M68 0v18q63 18 165 37v1317q-90 16 -143 35v12l285 31v-1395q100 -14 166 -37v-18h-473zM567 1360q0 43 27 68.5t70 25.5q59 0 86.5 -38t27.5 -97q0 -76 -38 -168t-95 -145l-53 43q37 45 61.5 104t28.5 121q-10 -4 -29 -4q-39 0 -62.5 25.5t-23.5 64.5z" />
<glyph unicode="&#x13f;" horiz-adv-x="1189" d="M90 0v20q70 25 170 35v1321q-90 12 -168 37v21h479v-21q-74 -25 -165 -37v-1313h589q2 39 27 109t43 102h35l-27 -274h-983zM688 764q0 37 22.5 59.5t57.5 22.5q37 0 59.5 -22.5t22.5 -59.5q0 -39 -22.5 -61.5t-59.5 -22.5q-35 0 -57.5 22.5t-22.5 61.5z" />
<glyph unicode="&#x140;" horiz-adv-x="802" d="M68 0v18q63 18 165 37v1317q-90 16 -143 35v12l285 31v-1395q100 -14 166 -37v-18h-473zM526 707q0 41 24.5 65.5t65.5 24.5t65 -24.5t24 -65.5t-24 -66t-65 -25t-65.5 25t-24.5 66z" />
<glyph unicode="&#x141;" horiz-adv-x="1189" d="M76 510v84l184 65v717q-90 12 -168 37v21h479v-21q-74 -25 -165 -37v-663l436 157v-84l-436 -157v-566h589q2 39 27 109t43 102h35l-27 -274h-983v20q70 25 170 35v520z" />
<glyph unicode="&#x142;" horiz-adv-x="616" d="M33 485v82l203 80v725q-90 16 -144 35v12l285 31v-748l217 86v-83l-217 -84v-566q100 -14 166 -37v-18h-473v18q63 18 166 37v510z" />
<glyph unicode="&#x143;" horiz-adv-x="1589" d="M88 0v18q84 27 166 35v1323q-94 14 -166 37v21h336l829 -1244v1188q-102 14 -166 35v21h412v-21q-51 -16 -166 -37v-1376h-90l-907 1350v-1295q86 -12 166 -37v-18h-414zM680 1649l229 204q39 39 80 39q25 0 38 -13t13 -34q0 -39 -55 -73l-278 -162z" />
<glyph unicode="&#x144;" horiz-adv-x="1310" d="M68 0v18q76 25 165 37v901q-90 16 -143 35v13l285 30v-157q74 70 179 115.5t226 45.5q147 0 235.5 -77.5t88.5 -208.5v-697q103 -14 166 -37v-18h-467v18q68 25 160 37v678q0 125 -63.5 183.5t-166.5 58.5q-90 0 -188.5 -45t-169.5 -123v-752q94 -14 166 -37v-18h-473z M453 1235l229 205q39 39 80 39q25 0 38 -13.5t13 -33.5q0 -39 -55 -74l-279 -162z" />
<glyph unicode="&#x145;" horiz-adv-x="1589" d="M88 0v18q84 27 166 35v1323q-94 14 -166 37v21h336l829 -1244v1188q-102 14 -166 35v21h412v-21q-51 -16 -166 -37v-1376h-90l-907 1350v-1295q86 -12 166 -37v-18h-414zM690 -221q0 43 27.5 65.5t66.5 22.5q57 0 85 -34t28 -93q0 -76 -36 -168t-93 -145l-53 43 q37 45 60.5 104t27.5 121q-16 -4 -25 -4q-37 0 -62.5 24.5t-25.5 63.5z" />
<glyph unicode="&#x146;" horiz-adv-x="1310" d="M68 0v18q76 25 165 37v901q-90 16 -143 35v13l285 30v-157q74 70 179 115.5t226 45.5q147 0 235.5 -77.5t88.5 -208.5v-697q103 -14 166 -37v-18h-467v18q68 25 160 37v678q0 125 -63.5 183.5t-166.5 58.5q-90 0 -188.5 -45t-169.5 -123v-752q94 -14 166 -37v-18h-473z M520 -221q0 43 27.5 65.5t66.5 22.5q58 0 85.5 -34t27.5 -93q0 -76 -36 -168t-93 -145l-53 43q37 45 60.5 104t27.5 121q-16 -4 -25 -4q-37 0 -62.5 24.5t-25.5 63.5z" />
<glyph unicode="&#x147;" horiz-adv-x="1589" d="M88 0v18q84 27 166 35v1323q-94 14 -166 37v21h336l829 -1244v1188q-102 14 -166 35v21h412v-21q-51 -16 -166 -37v-1376h-90l-907 1350v-1295q86 -12 166 -37v-18h-414zM506 1849l59 56q59 -43 121 -100.5t100 -108.5h11q39 51 100 108.5t121 100.5l59 -56 q-66 -45 -136.5 -111.5t-115.5 -127.5h-67q-45 61 -116 127.5t-136 111.5z" />
<glyph unicode="&#x148;" horiz-adv-x="1310" d="M68 0v18q76 25 165 37v901q-90 16 -143 35v13l285 30v-157q74 70 179 115.5t226 45.5q147 0 235.5 -77.5t88.5 -208.5v-697q103 -14 166 -37v-18h-467v18q68 25 160 37v678q0 125 -63.5 183.5t-166.5 58.5q-90 0 -188.5 -45t-169.5 -123v-752q94 -14 166 -37v-18h-473z M338 1436l59 55q59 -43 121 -100.5t100 -108.5h11q39 51 100.5 108.5t120.5 100.5l59 -55q-66 -45 -136.5 -112t-115.5 -128h-67q-45 61 -116 128t-136 112z" />
<glyph unicode="&#x149;" horiz-adv-x="1644" d="M68 1167q0 43 27.5 65.5t66.5 22.5q57 0 84.5 -33.5t27.5 -93.5q0 -76 -35.5 -168t-93.5 -145l-53 43q37 45 60.5 104.5t27.5 120.5q-16 -4 -24 -4q-37 0 -62.5 24.5t-25.5 63.5zM401 0v18q76 25 166 37v901q-90 16 -143 35v13l285 30v-157q74 70 179 115.5t226 45.5 q147 0 235.5 -77.5t88.5 -208.5v-697q103 -14 166 -37v-18h-467v18q68 25 159 37v678q0 125 -63.5 183.5t-165.5 58.5q-90 0 -188.5 -45t-169.5 -123v-752q94 -14 165 -37v-18h-473z" />
<glyph unicode="&#x14a;" horiz-adv-x="1589" d="M88 0v18q84 27 166 35v1323q-94 14 -166 37v21h336l829 -1244v1188q-102 14 -166 35v21h412v-21q-51 -16 -166 -37v-1599q0 -137 -77.5 -211t-221.5 -74q-145 0 -260 74l17 41q96 -43 213 -43q115 0 182 52t67 167v217l-917 1350v-1295q86 -12 166 -37v-18h-414z" />
<glyph unicode="&#x14b;" horiz-adv-x="1286" d="M68 0v18q76 25 165 37v901q-90 16 -143 35v13l285 30v-153q74 66 180.5 111.5t224.5 45.5q147 0 235.5 -77.5t88.5 -208.5v-910q0 -129 -67.5 -190.5t-188.5 -61.5q-106 0 -186 37l14 60q57 -29 127 -29q160 0 160 178v897q0 125 -63.5 183.5t-166.5 58.5 q-90 0 -189.5 -45t-168.5 -117v-758q94 -14 166 -37v-18h-473z" />
<glyph unicode="&#x14c;" horiz-adv-x="1429" d="M78 717q0 346 165 541.5t472 195.5t472 -195.5t165 -541.5t-165 -541.5t-472 -195.5t-472 195.5t-165 541.5zM223 717q0 -305 124 -488.5t368 -183.5q241 0 366 183.5t125 488.5q0 303 -125 487.5t-366 184.5q-242 0 -367 -184.5t-125 -487.5zM391 1638v64h643v-64h-643z " />
<glyph unicode="&#x14d;" horiz-adv-x="1155" d="M55 508q0 248 139.5 389t383.5 141t382 -141t138 -389t-138.5 -388t-381.5 -140q-244 0 -383.5 140t-139.5 388zM197 508q0 -219 102 -342t279 -123q174 0 276 124t102 341t-102 342t-276 125q-176 0 -278.5 -125t-102.5 -342zM254 1196v64h643v-64h-643z" />
<glyph unicode="&#x14e;" horiz-adv-x="1429" d="M78 717q0 346 165 541.5t472 195.5t472 -195.5t165 -541.5t-165 -541.5t-472 -195.5t-472 195.5t-165 541.5zM223 717q0 -305 124 -488.5t368 -183.5q241 0 366 183.5t125 488.5q0 303 -125 487.5t-366 184.5q-242 0 -367 -184.5t-125 -487.5zM414 1831h94 q10 -106 67.5 -143t139.5 -37q80 0 137 36.5t70 143.5h94q-14 -123 -94 -184.5t-207 -61.5t-207 61.5t-94 184.5z" />
<glyph unicode="&#x14f;" horiz-adv-x="1155" d="M55 508q0 248 139.5 389t383.5 141t382 -141t138 -389t-138.5 -388t-381.5 -140q-244 0 -383.5 140t-139.5 388zM197 508q0 -219 102 -342t279 -123q174 0 276 124t102 341t-102 342t-276 125q-176 0 -278.5 -125t-102.5 -342zM276 1421h95q10 -106 67.5 -143t139.5 -37 q80 0 137 37t69 143h95q-14 -123 -94 -184t-207 -61t-207 61t-95 184z" />
<glyph unicode="&#x150;" horiz-adv-x="1429" d="M78 717q0 346 165 541.5t472 195.5t472 -195.5t165 -541.5t-165 -541.5t-472 -195.5t-472 195.5t-165 541.5zM223 717q0 -305 124 -488.5t368 -183.5q241 0 366 183.5t125 488.5q0 303 -125 487.5t-366 184.5q-242 0 -367 -184.5t-125 -487.5zM436 1647l230 204 q41 41 79 41q25 0 39.5 -14t14.5 -33q0 -41 -58 -73l-278 -162zM827 1647l230 204q12 14 33.5 27.5t44.5 13.5q25 0 39 -13t14 -34q0 -43 -55 -73l-279 -162z" />
<glyph unicode="&#x151;" horiz-adv-x="1155" d="M55 508q0 248 139.5 389t383.5 141t382 -141t138 -389t-138.5 -388t-381.5 -140q-244 0 -383.5 140t-139.5 388zM197 508q0 -219 102 -342t279 -123q174 0 276 124t102 341t-102 342t-276 125q-176 0 -278.5 -125t-102.5 -342zM293 1233l229 205q41 41 80 41 q25 0 39 -14.5t14 -32.5q0 -41 -57 -74l-279 -162zM684 1233l229 205q12 14 34 27.5t44 13.5q25 0 39 -13.5t14 -33.5q0 -43 -55 -74l-278 -162z" />
<glyph unicode="&#x152;" horiz-adv-x="2004" d="M78 717q0 217 68.5 384t208 260t341.5 93q209 0 342 -111v91h838v-277h-37q-14 27 -28.5 97.5t-18.5 113.5h-608v-600h452q12 111 35 168h29v-399h-29q-23 61 -35 168h-452v-642h612q4 39 27.5 110t42.5 101h35l-27 -274h-836v84q-131 -104 -342 -104q-202 0 -341.5 93 t-208 259t-68.5 385zM225 717q0 -305 125 -488.5t365 -183.5q196 0 323 139v1061q-57 66 -141 105t-182 39q-240 0 -365 -184.5t-125 -487.5z" />
<glyph unicode="&#x153;" horiz-adv-x="1839" d="M55 508q0 248 138.5 389t375.5 141q121 0 218.5 -44t160.5 -126q66 84 164 127t225 43q217 0 327 -137t110 -344v-43h-797q2 -131 49 -238.5t142.5 -171t230.5 -63.5q82 0 167 26.5t146 69.5l14 -47q-57 -47 -152 -78.5t-212 -31.5q-127 0 -231.5 45t-172.5 129 q-135 -174 -389 -174q-237 0 -375.5 140t-138.5 388zM199 508q0 -219 100 -342t276 -123q107 0 192 49t134 139q-63 121 -63 277q0 172 59 285q-53 88 -135 135t-187 47q-176 0 -276 -125t-100 -342zM979 578h666q-2 162 -75 279.5t-229 117.5q-168 0 -258 -111.5 t-104 -285.5z" />
<glyph unicode="&#x154;" horiz-adv-x="1333" d="M88 0v20q86 27 168 35v1321q-82 12 -164 37v21h639q432 0 432 -406q0 -178 -89 -283.5t-267 -123.5l321 -566q9 -2 62 -11t86 -24v-20h-260l-344 616h-271v-561q94 -14 166 -37v-18h-479zM401 680h295q166 0 245 92t79 256q0 340 -324 340h-295v-688zM485 1649l230 204 q39 39 80 39q25 0 38 -13t13 -34q0 -39 -55 -73l-279 -162z" />
<glyph unicode="&#x155;" horiz-adv-x="792" d="M41 0v18q63 23 166 37v901q-90 16 -144 35v13l269 30l14 -170h8q31 70 97.5 122t148.5 52q90 0 156 -41l-27 -79q-49 37 -113 36q-147 0 -268 -190v-709q96 -14 166 -37v-18h-473zM193 1235l229 205q39 39 80 39q25 0 38 -13.5t13 -33.5q0 -39 -55 -74l-279 -162z" />
<glyph unicode="&#x156;" horiz-adv-x="1333" d="M88 0v20q86 27 168 35v1321q-82 12 -164 37v21h639q432 0 432 -406q0 -178 -89 -283.5t-267 -123.5l321 -566q9 -2 62 -11t86 -24v-20h-260l-344 616h-271v-561q94 -14 166 -37v-18h-479zM401 680h295q166 0 245 92t79 256q0 340 -324 340h-295v-688zM602 -221 q0 43 27.5 65.5t66.5 22.5q58 0 85.5 -34t27.5 -93q0 -76 -36 -168t-93 -145l-53 43q37 45 60.5 104t27.5 121q-16 -4 -25 -4q-37 0 -62.5 24.5t-25.5 63.5z" />
<glyph unicode="&#x157;" horiz-adv-x="792" d="M41 0v18q63 23 166 37v901q-90 16 -144 35v13l269 30l14 -170h8q31 70 97.5 122t148.5 52q90 0 156 -41l-27 -79q-49 37 -113 36q-147 0 -268 -190v-709q96 -14 166 -37v-18h-473zM176 -221q0 43 27.5 65.5t66.5 22.5q57 0 85 -34t28 -93q0 -76 -36 -168t-93 -145l-53 43 q37 45 60.5 104t27.5 121q-16 -4 -25 -4q-37 0 -62.5 24.5t-25.5 63.5z" />
<glyph unicode="&#x158;" horiz-adv-x="1333" d="M88 0v20q86 27 168 35v1321q-82 12 -164 37v21h639q432 0 432 -406q0 -178 -89 -283.5t-267 -123.5l321 -566q9 -2 62 -11t86 -24v-20h-260l-344 616h-271v-561q94 -14 166 -37v-18h-479zM373 1849l59 56q59 -43 120.5 -100.5t100.5 -108.5h11q39 51 100 108.5t121 100.5 l59 -56q-66 -45 -136.5 -111.5t-115.5 -127.5h-67q-45 61 -116 127.5t-136 111.5zM401 680h295q166 0 245 92t79 256q0 340 -324 340h-295v-688z" />
<glyph unicode="&#x159;" horiz-adv-x="792" d="M41 0v18q63 23 166 37v901q-90 16 -144 35v13l269 30l14 -170h8q31 70 97.5 122t148.5 52q90 0 156 -41l-27 -79q-49 37 -113 36q-147 0 -268 -190v-709q96 -14 166 -37v-18h-473zM111 1436l59 55q59 -43 120.5 -100.5t100.5 -108.5h10q39 51 100.5 108.5t121.5 100.5 l59 -55q-66 -45 -136.5 -112t-115.5 -128h-68q-45 61 -115.5 128t-135.5 112z" />
<glyph unicode="&#x15a;" horiz-adv-x="1079" d="M70 166l18 272h37q23 -59 35 -245q53 -68 140 -108t200 -40q94 0 177 35t133 103.5t50 162.5q0 98 -50 166t-123 110t-202 101q-129 57 -205.5 103t-130 119t-53.5 177q0 164 123 248t334 84q268 0 403 -145l-18 -228h-37q-23 55 -37 213q-47 45 -116.5 70t-155.5 25 q-174 0 -261 -64.5t-87 -183.5q0 -72 43 -125t107.5 -90t176.5 -88q139 -63 226.5 -116.5t149 -140.5t61.5 -212q0 -117 -61.5 -205t-169 -136t-242.5 -48q-156 0 -277 52t-188 134zM410 1649l229 204q39 39 80 39q25 0 38 -13t13 -34q0 -39 -55 -73l-279 -162z" />
<glyph unicode="&#x15b;" horiz-adv-x="917" d="M82 799q0 121 103.5 180t260.5 59q219 0 340 -102l-18 -207h-37q-12 29 -19 83t-7 101q-49 33 -102.5 47.5t-127.5 14.5q-117 0 -184.5 -39t-67.5 -123q0 -59 37 -101t91.5 -69t152.5 -65q113 -43 177 -78t111.5 -92.5t47.5 -141.5q0 -137 -104.5 -211.5t-268.5 -74.5 q-248 -1 -381 118l14 258h35q10 -27 19.5 -104.5t11.5 -130.5q90 -78 252 -78q135 0 207.5 58.5t72.5 156.5q0 57 -36.5 96t-90 65.5t-147.5 61.5q-111 41 -178.5 76t-115.5 94.5t-48 147.5zM276 1235l230 205q39 39 80 39q25 0 38 -13.5t13 -33.5q0 -39 -55 -74l-279 -162z " />
<glyph unicode="&#x15c;" horiz-adv-x="1079" d="M70 166l18 272h37q23 -59 35 -245q53 -68 140 -108t200 -40q94 0 177 35t133 103.5t50 162.5q0 98 -50 166t-123 110t-202 101q-129 57 -205.5 103t-130 119t-53.5 177q0 164 123 248t334 84q268 0 403 -145l-18 -228h-37q-23 55 -37 213q-47 45 -116.5 70t-155.5 25 q-174 0 -261 -64.5t-87 -183.5q0 -72 43 -125t107.5 -90t176.5 -88q139 -63 226.5 -116.5t149 -140.5t61.5 -212q0 -117 -61.5 -205t-169 -136t-242.5 -48q-156 0 -277 52t-188 134zM252 1651q63 45 135 110.5t117 126.5h67q45 -61 117 -126.5t135 -110.5l-59 -56 q-59 43 -120.5 100.5t-100.5 108.5h-11q-39 -51 -100 -108.5t-121 -100.5z" />
<glyph unicode="&#x15d;" horiz-adv-x="917" d="M82 799q0 121 103.5 180t260.5 59q219 0 340 -102l-18 -207h-37q-12 29 -19 83t-7 101q-49 33 -102.5 47.5t-127.5 14.5q-117 0 -184.5 -39t-67.5 -123q0 -59 37 -101t91.5 -69t152.5 -65q113 -43 177 -78t111.5 -92.5t47.5 -141.5q0 -137 -104.5 -211.5t-268.5 -74.5 q-248 -1 -381 118l14 258h35q10 -27 19.5 -104.5t11.5 -130.5q90 -78 252 -78q135 0 207.5 58.5t72.5 156.5q0 57 -36.5 96t-90 65.5t-147.5 61.5q-111 41 -178.5 76t-115.5 94.5t-48 147.5zM172 1237q63 45 135 110.5t117 127.5h68q45 -61 116.5 -127t134.5 -111l-59 -55 q-59 43 -120.5 100t-100.5 109h-10q-39 -51 -100.5 -108.5t-121.5 -100.5z" />
<glyph unicode="&#x15e;" horiz-adv-x="1079" d="M70 166l18 272h37q23 -59 35 -245q53 -68 140 -108t200 -40q94 0 177 35t133 103.5t50 162.5q0 98 -50 166t-123 110t-202 101q-129 57 -205.5 103t-130 119t-53.5 177q0 164 123 248t334 84q268 0 403 -145l-18 -228h-37q-23 55 -37 213q-47 45 -116.5 70t-155.5 25 q-174 0 -261 -64.5t-87 -183.5q0 -72 43 -125t107.5 -90t176.5 -88q139 -63 226.5 -116.5t149 -140.5t61.5 -212q0 -168 -122 -272.5t-313 -114.5l-53 -117h19q88 0 139 -32t51 -93q0 -82 -63.5 -124t-165.5 -42q-82 0 -152 29l29 51q55 -18 119 -19q68 0 107.5 26t39.5 79 q0 37 -34 54.5t-81 17.5q-23 0 -51 -5l-43 54l60 119q-141 8 -252 59t-172 127z" />
<glyph unicode="&#x15f;" horiz-adv-x="917" d="M82 799q0 121 103.5 180t260.5 59q219 0 340 -102l-18 -207h-37q-12 29 -19 83t-7 101q-49 33 -102.5 47.5t-127.5 14.5q-117 0 -184.5 -39t-67.5 -123q0 -59 37 -101t91.5 -69t152.5 -65q113 -43 177 -78t111.5 -92.5t47.5 -141.5q0 -131 -96.5 -205.5t-249.5 -80.5 l-54 -115h19q88 0 139 -32t51 -93q0 -82 -63.5 -124t-165.5 -42q-82 0 -152 29l29 51q55 -18 119 -19q68 0 107.5 26t39.5 79q0 37 -33.5 54.5t-80.5 17.5q-23 0 -52 -5l-43 54l60 121q-209 12 -328 116l14 258h35q10 -27 19.5 -104.5t11.5 -130.5q90 -78 252 -78 q135 0 207.5 58.5t72.5 156.5q0 57 -36.5 96t-90 65.5t-147.5 61.5q-111 41 -178.5 76t-115.5 94.5t-48 147.5z" />
<glyph unicode="&#x160;" horiz-adv-x="1079" d="M70 166l18 272h37q23 -59 35 -245q53 -68 140 -108t200 -40q94 0 177 35t133 103.5t50 162.5q0 98 -50 166t-123 110t-202 101q-129 57 -205.5 103t-130 119t-53.5 177q0 164 123 248t334 84q268 0 403 -145l-18 -228h-37q-23 55 -37 213q-47 45 -116.5 70t-155.5 25 q-174 0 -261 -64.5t-87 -183.5q0 -72 43 -125t107.5 -90t176.5 -88q139 -63 226.5 -116.5t149 -140.5t61.5 -212q0 -117 -61.5 -205t-169 -136t-242.5 -48q-156 0 -277 52t-188 134zM252 1849l59 56q59 -43 121 -100.5t100 -108.5h11q39 51 100.5 108.5t120.5 100.5l59 -56 q-66 -45 -136.5 -111.5t-115.5 -127.5h-67q-45 61 -116 127.5t-136 111.5z" />
<glyph unicode="&#x161;" horiz-adv-x="917" d="M82 799q0 121 103.5 180t260.5 59q219 0 340 -102l-18 -207h-37q-12 29 -19 83t-7 101q-49 33 -102.5 47.5t-127.5 14.5q-117 0 -184.5 -39t-67.5 -123q0 -59 37 -101t91.5 -69t152.5 -65q113 -43 177 -78t111.5 -92.5t47.5 -141.5q0 -137 -104.5 -211.5t-268.5 -74.5 q-248 -1 -381 118l14 258h35q10 -27 19.5 -104.5t11.5 -130.5q90 -78 252 -78q135 0 207.5 58.5t72.5 156.5q0 57 -36.5 96t-90 65.5t-147.5 61.5q-111 41 -178.5 76t-115.5 94.5t-48 147.5zM172 1436l59 55q59 -43 121 -100.5t101 -108.5h10q39 51 100.5 108.5t120.5 100.5 l59 -55q-66 -45 -136 -112t-115 -128h-68q-45 61 -115.5 128t-136.5 112z" />
<glyph unicode="&#x162;" horiz-adv-x="1282" d="M88 1141v293h1104v-293h-35q-14 29 -28.5 105.5t-18.5 121.5h-397v-1313q106 -16 172 -37v-18h-213l-64 -135q16 2 49 2q74 -4 118 -37t44 -90q0 -82 -63.5 -124t-165.5 -42q-80 0 -154 29l29 51q55 -18 121 -19q68 0 107.5 26t39.5 79q0 37 -34.5 54.5t-82.5 17.5 q-20 0 -49 -5l-43 54l70 139h-199v20q78 23 172 35v1313h-397q-4 -45 -18.5 -122t-28.5 -105h-35z" />
<glyph unicode="&#x163;" horiz-adv-x="761" d="M43 956v64h184v135q61 33 76 141h66v-276h311v-64h-311v-675q0 -127 48 -181.5t142 -54.5q55 0 133 25l13 -62q-78 -25 -175 -28l-55 -115q16 2 49 2q74 -4 118 -37t44 -90q0 -82 -63.5 -124t-165.5 -42q-80 0 -154 29l29 51q55 -18 121 -19q68 0 107.5 26t39.5 79 q0 37 -35 54.5t-82 17.5q-20 0 -49 -5l-43 54l62 123q-109 16 -167.5 89.5t-58.5 207.5v675h-184z" />
<glyph unicode="&#x164;" horiz-adv-x="1282" d="M88 1141v293h1104v-293h-35q-14 29 -28.5 105.5t-18.5 121.5h-397v-1313q106 -16 172 -37v-18h-490v20q78 23 172 35v1313h-397q-4 -45 -18.5 -122t-28.5 -105h-35zM352 1849l60 56q59 -43 120.5 -100.5t100.5 -108.5h10q39 51 100.5 108.5t120.5 100.5l60 -56 q-66 -45 -136.5 -111.5t-115.5 -127.5h-68q-45 61 -115.5 127.5t-136.5 111.5z" />
<glyph unicode="&#x165;" horiz-adv-x="1054" d="M43 956v64h184v135q61 33 76 141h66v-276h311v-64h-311v-675q0 -127 48 -181.5t142 -54.5q55 0 133 25l13 -62q-86 -29 -187 -28q-139 0 -215 74.5t-76 226.5v675h-184zM778 1253q0 43 26.5 69t69.5 26q60 0 87.5 -38t27.5 -98q0 -76 -38 -168t-95 -145l-53 43 q37 45 61.5 105.5t28.5 119.5q-10 -4 -29 -4q-37 0 -61.5 25.5t-24.5 64.5z" />
<glyph unicode="&#x166;" horiz-adv-x="1282" d="M88 1141v293h1104v-293h-35q-14 29 -28.5 105.5t-18.5 121.5h-397v-625h313v-63h-313v-625q106 -16 172 -37v-18h-490v20q78 23 172 35v625h-307v63h307v625h-397q-4 -45 -18.5 -122t-28.5 -105h-35z" />
<glyph unicode="&#x167;" horiz-adv-x="761" d="M43 956v64h184v135q61 33 76 141h66v-276h311v-64h-311v-342h272v-61h-272v-272q0 -127 48 -181.5t142 -54.5q55 0 133 25l13 -62q-86 -29 -187 -28q-139 0 -215 74.5t-76 226.5v272h-153v61h153v342h-184z" />
<glyph unicode="&#x168;" horiz-adv-x="1556" d="M86 1413v21h477v-21q-72 -25 -166 -37v-962q0 -201 113 -285t307 -84q184 0 295 87t111 282v964q-84 8 -168 35v21h415v-21q-74 -23 -170 -39v-942q0 -233 -131 -342.5t-389 -109.5q-528 -1 -528 452v944q-94 14 -166 37zM449 1610q14 98 62 146t122 48q39 0 75.5 -16 t86.5 -47q43 -25 71.5 -38t55.5 -13q100 0 131 127h51q-14 -96 -60.5 -150.5t-125.5 -54.5q-33 0 -64 14t-90 47q-53 31 -81 44.5t-54 13.5q-47 0 -81 -33t-46 -88h-53z" />
<glyph unicode="&#x169;" horiz-adv-x="1259" d="M51 991v13l285 30v-749q0 -127 62.5 -184.5t166.5 -57.5q86 0 187.5 42t171.5 108v763q-86 14 -142 35v13l283 30v-975q84 -14 143 -32v-15l-284 -28v141q-76 -61 -180.5 -103t-217.5 -42q-152 0 -241.5 76.5t-89.5 207.5v692q-90 16 -144 35zM301 1196q14 98 62.5 146.5 t121.5 48.5q39 0 76 -16.5t86 -47.5q43 -25 72 -38t55 -13q100 0 131 127h51q-14 -96 -60 -150.5t-126 -54.5q-33 0 -63.5 14.5t-90.5 47.5q-53 31 -80.5 44t-54.5 13q-47 0 -80.5 -33t-46.5 -88h-53z" />
<glyph unicode="&#x16a;" horiz-adv-x="1556" d="M86 1413v21h477v-21q-72 -25 -166 -37v-962q0 -201 113 -285t307 -84q184 0 295 87t111 282v964q-84 8 -168 35v21h415v-21q-74 -23 -170 -39v-942q0 -233 -131 -342.5t-389 -109.5q-528 -1 -528 452v944q-94 14 -166 37zM455 1610v63h643v-63h-643z" />
<glyph unicode="&#x16b;" horiz-adv-x="1259" d="M51 991v13l285 30v-749q0 -127 62.5 -184.5t166.5 -57.5q86 0 187.5 42t171.5 108v763q-86 14 -142 35v13l283 30v-975q84 -14 143 -32v-15l-284 -28v141q-76 -61 -180.5 -103t-217.5 -42q-152 0 -241.5 76.5t-89.5 207.5v692q-90 16 -144 35zM307 1196v64h643v-64h-643z " />
<glyph unicode="&#x16c;" horiz-adv-x="1556" d="M86 1413v21h477v-21q-72 -25 -166 -37v-962q0 -201 113 -285t307 -84q184 0 295 87t111 282v964q-84 8 -168 35v21h415v-21q-74 -23 -170 -39v-942q0 -233 -131 -342.5t-389 -109.5q-528 -1 -528 452v944q-94 14 -166 37zM483 1831h95q10 -106 67 -143t139 -37 q80 0 137.5 36.5t69.5 143.5h94q-14 -123 -94 -184.5t-207 -61.5t-206.5 61.5t-94.5 184.5z" />
<glyph unicode="&#x16d;" horiz-adv-x="1259" d="M51 991v13l285 30v-749q0 -127 62.5 -184.5t166.5 -57.5q86 0 187.5 42t171.5 108v763q-86 14 -142 35v13l283 30v-975q84 -14 143 -32v-15l-284 -28v141q-76 -61 -180.5 -103t-217.5 -42q-152 0 -241.5 76.5t-89.5 207.5v692q-90 16 -144 35zM328 1421h94 q10 -106 68.5 -143t138.5 -37t137 37t70 143h94q-14 -123 -94 -184t-207 -61t-207 61t-94 184z" />
<glyph unicode="&#x16e;" horiz-adv-x="1556" d="M86 1413v21h477v-21q-72 -25 -166 -37v-962q0 -201 113 -285t307 -84q184 0 295 87t111 282v964q-84 8 -168 35v21h415v-21q-74 -23 -170 -39v-942q0 -233 -131 -342.5t-389 -109.5q-528 -1 -528 452v944q-94 14 -166 37zM598 1745q0 76 51 124t129 48t128 -48t50 -124 t-50 -123t-128 -47t-129 47t-51 123zM662 1745q0 -51 32.5 -82t83.5 -31t83 31t32 82t-32 83t-83 32t-83.5 -32t-32.5 -83z" />
<glyph unicode="&#x16f;" horiz-adv-x="1259" d="M51 991v13l285 30v-749q0 -127 62.5 -184.5t166.5 -57.5q86 0 187.5 42t171.5 108v763q-86 14 -142 35v13l283 30v-975q84 -14 143 -32v-15l-284 -28v141q-76 -61 -180.5 -103t-217.5 -42q-152 0 -241.5 76.5t-89.5 207.5v692q-90 16 -144 35zM449 1331q0 76 51 124 t129 48t128 -48t50 -124t-50 -123t-128 -47t-129 47t-51 123zM512 1331q0 -51 33 -81.5t84 -30.5t82.5 30.5t31.5 81.5t-31.5 83t-82.5 32t-84 -32t-33 -83z" />
<glyph unicode="&#x170;" horiz-adv-x="1556" d="M86 1413v21h477v-21q-72 -25 -166 -37v-962q0 -201 113 -285t307 -84q184 0 295 87t111 282v964q-84 8 -168 35v21h415v-21q-74 -23 -170 -39v-942q0 -233 -131 -342.5t-389 -109.5q-528 -1 -528 452v944q-94 14 -166 37zM428 1647l229 204q41 41 80 41q25 0 39.5 -14 t14.5 -33q0 -41 -58 -73l-278 -162zM819 1647l230 204q12 14 33.5 27.5t43.5 13.5q25 0 39.5 -13t14.5 -34q0 -43 -56 -73l-278 -162z" />
<glyph unicode="&#x171;" horiz-adv-x="1259" d="M51 991v13l285 30v-749q0 -127 62.5 -184.5t166.5 -57.5q86 0 187.5 42t171.5 108v763q-86 14 -142 35v13l283 30v-975q84 -14 143 -32v-15l-284 -28v141q-76 -61 -180.5 -103t-217.5 -42q-152 0 -241.5 76.5t-89.5 207.5v692q-90 16 -144 35zM268 1233l230 205 q41 41 80 41q25 0 39 -14.5t14 -32.5q0 -41 -58 -74l-278 -162zM659 1233l230 205q12 14 33.5 27.5t44.5 13.5q25 0 39 -13.5t14 -33.5q0 -43 -55 -74l-279 -162z" />
<glyph unicode="&#x172;" horiz-adv-x="1556" d="M86 1413v21h477v-21q-72 -25 -166 -37v-962q0 -201 113 -285t307 -84q184 0 295 87t111 282v964q-84 8 -168 35v21h415v-21q-74 -23 -170 -39v-942q0 -186 -83.5 -292.5t-249.5 -141.5q-57 -35 -93 -85t-36 -106q0 -51 34.5 -76.5t90.5 -25.5q55 0 102 23v-68 q-70 -31 -152 -31q-90 0 -139 47.5t-49 110.5q0 57 33 108.5t90 86.5q-20 -2 -68 -2q-528 0 -528 452v944q-94 14 -166 37z" />
<glyph unicode="&#x173;" horiz-adv-x="1259" d="M51 991v13l285 30v-749q0 -127 62.5 -184.5t166.5 -57.5q86 0 187.5 42t171.5 108v763q-86 14 -142 35v13l283 30v-975q84 -14 143 -32v-15l-32 -4q-55 -33 -92 -83t-37 -105q0 -51 34.5 -77t89.5 -26q56 0 103 23v-68q-70 -31 -152 -30q-90 0 -139 47t-49 110 q0 59 35 111.5t96 87.5l-141 -14v141q-76 -61 -180.5 -103t-217.5 -42q-152 0 -241.5 76.5t-89.5 207.5v692q-90 16 -144 35z" />
<glyph unicode="&#x174;" horiz-adv-x="2054" d="M37 1413v21h467v-23q-66 -27 -168 -35l297 -1194l362 1178h80l408 -1229l334 1249q-59 10 -129 31v23h327v-19q-66 -29 -119 -37l-370 -1394h-125l-387 1171l-361 -1171h-100l-356 1388q-86 16 -160 41zM758 1651q63 45 135 110.5t117 126.5h67q45 -61 117 -126.5 t135 -110.5l-59 -56q-59 43 -121 100.5t-100 108.5h-11q-39 -51 -100 -108.5t-121 -100.5z" />
<glyph unicode="&#x175;" horiz-adv-x="1587" d="M18 1001v19h437v-25q-72 -23 -156 -30l207 -805l262 758h92l266 -783l213 830q-94 14 -155 36v19h385v-19q-51 -18 -139 -32l-263 -969h-104l-268 782l-273 -782h-102l-262 969q-98 16 -140 32zM530 1237q63 45 135 110.5t117 127.5h68q45 -61 116.5 -127t135.5 -111 l-60 -55q-59 43 -120.5 100t-100.5 109h-10q-39 -51 -100.5 -108.5t-120.5 -100.5z" />
<glyph unicode="&#x176;" horiz-adv-x="1419" d="M37 1411v23h471v-23q-80 -29 -174 -37l407 -690l435 694q-72 14 -132 35v21h336v-23q-45 -20 -108 -31l-484 -766v-559q98 -14 168 -37v-18h-479v18q84 29 166 37v559l-450 758q-76 12 -156 39zM432 1651q63 45 135 110.5t117 126.5h68q45 -61 116.5 -126.5t135.5 -110.5 l-60 -56q-59 43 -120.5 100.5t-100.5 108.5h-10q-39 -51 -100.5 -108.5t-120.5 -100.5z" />
<glyph unicode="&#x177;" horiz-adv-x="1124" d="M14 1001v19h435v-21q-45 -16 -160 -32l295 -807l293 809q-92 10 -146 30v21h379v-19q-49 -18 -141 -32l-387 -1057q-41 -115 -75 -175.5t-90.5 -94t-150.5 -33.5q-90 0 -174 29l23 75q74 -23 151 -22q66 0 105 22.5t68.5 73.5t66.5 156l22 63l-376 965q-8 2 -55.5 9 t-82.5 21zM297 1237q63 45 135 110.5t117 127.5h67q45 -61 117 -127t135 -111l-59 -55q-59 43 -120.5 100t-100.5 109h-10q-39 -52 -100.5 -109t-121.5 -100z" />
<glyph unicode="&#x178;" horiz-adv-x="1419" d="M37 1411v23h471v-23q-80 -29 -174 -37l407 -690l435 694q-72 14 -132 35v21h336v-23q-45 -20 -108 -31l-484 -766v-559q98 -14 168 -37v-18h-479v18q84 29 166 37v559l-450 758q-76 12 -156 39zM432 1690q0 39 22.5 61.5t57.5 22.5t57.5 -22.5t22.5 -61.5 q0 -37 -22.5 -59.5t-57.5 -22.5t-57.5 22.5t-22.5 59.5zM868 1690q0 39 22.5 61.5t57.5 22.5t57.5 -22.5t22.5 -61.5q0 -37 -22.5 -59.5t-57.5 -22.5t-57.5 22.5t-22.5 59.5z" />
<glyph unicode="&#x179;" horiz-adv-x="1155" d="M55 0v41l867 1327h-701q-4 -43 -18.5 -113.5t-28.5 -97.5h-35v277h942v-33l-868 -1338h754q2 39 25.5 110t41.5 101h37l-27 -274h-989zM479 1649l230 204q39 39 79 39q25 0 38.5 -13t13.5 -34q0 -39 -56 -73l-278 -162z" />
<glyph unicode="&#x17a;" horiz-adv-x="935" d="M47 0v41l694 915h-540q-12 -131 -37 -186h-41v250h766v-55l-690 -904h567q6 37 24.5 97.5t32.5 89.5h43l-20 -248h-799zM358 1235l230 205q39 39 80 39q25 0 38 -13.5t13 -33.5q0 -39 -55 -74l-279 -162z" />
<glyph unicode="&#x17b;" horiz-adv-x="1155" d="M55 0v41l867 1327h-701q-4 -43 -18.5 -113.5t-28.5 -97.5h-35v277h942v-33l-868 -1338h754q2 39 25.5 110t41.5 101h37l-27 -274h-989zM504 1690q0 39 21.5 61.5t58.5 22.5q35 0 57.5 -22.5t22.5 -61.5q0 -37 -23 -59.5t-57 -22.5q-37 0 -58.5 22.5t-21.5 59.5z" />
<glyph unicode="&#x17c;" horiz-adv-x="935" d="M47 0v41l694 915h-540q-12 -131 -37 -186h-41v250h766v-55l-690 -904h567q6 37 24.5 97.5t32.5 89.5h43l-20 -248h-799zM401 1276q0 39 21.5 61.5t58.5 22.5q35 0 57.5 -22.5t22.5 -61.5q0 -37 -22.5 -59.5t-57.5 -22.5q-37 0 -58.5 22.5t-21.5 59.5z" />
<glyph unicode="&#x17d;" horiz-adv-x="1155" d="M55 0v41l867 1327h-701q-4 -43 -18.5 -113.5t-28.5 -97.5h-35v277h942v-33l-868 -1338h754q2 39 25.5 110t41.5 101h37l-27 -274h-989zM301 1849l59 56q59 -43 121 -100.5t101 -108.5h10q39 51 100.5 108.5t120.5 100.5l59 -56q-66 -45 -136 -111.5t-115 -127.5h-68 q-45 61 -115.5 127.5t-136.5 111.5z" />
<glyph unicode="&#x17e;" horiz-adv-x="935" d="M47 0v41l694 915h-540q-12 -131 -37 -186h-41v250h766v-55l-690 -904h567q6 37 24.5 97.5t32.5 89.5h43l-20 -248h-799zM190 1436l60 55q59 -43 120.5 -100.5t100.5 -108.5h10q39 51 100.5 108.5t120.5 100.5l60 -55q-66 -45 -136.5 -112t-115.5 -128h-68 q-45 61 -115.5 128t-136.5 112z" />
<glyph unicode="&#x18f;" horiz-adv-x="1423" d="M76 637v51h1128q-2 190 -72.5 348t-209 252t-334.5 94q-246 0 -438 -129q-6 18 -10.5 30.5t-8.5 25.5q80 61 203 103t284 42q218 0 382.5 -95t255 -265t90.5 -389q0 -352 -181.5 -538.5t-496.5 -186.5q-199 0 -332 88t-196.5 236.5t-63.5 332.5zM213 618q0 -145 45 -276 t145.5 -215t253.5 -84q256 0 393.5 162t151.5 413h-989z" />
<glyph unicode="&#x192;" horiz-adv-x="1013" d="M53 -289q63 -18 127 -18q82 0 124 50t42 140v1016h-213v72h213v135q0 180 93 264t263 84q63 0 131 -20.5t119 -57.5l-24 -53q-88 66 -201 66q-109 0 -176.5 -68t-67.5 -213v-137h273v-72h-269v-1020q0 -115 -60 -190.5t-196 -75.5q-41 0 -90 7t-88 22v69z" />
<glyph unicode="&#x1a0;" horiz-adv-x="1460" d="M78 717q0 346 165 541.5t472 195.5q195 0 334 -81t215 -232q45 39 77.5 89t36.5 105q-14 -10 -41 -10q-37 0 -60.5 22.5t-23.5 63.5q0 39 25 65.5t72 26.5q113 0 112 -133q0 -70 -43 -146.5t-129 -140.5q61 -156 62 -366q0 -346 -165 -541.5t-472 -195.5t-472 195.5 t-165 541.5zM223 717q0 -305 124 -488.5t368 -183.5q241 0 366 183.5t125 488.5q0 303 -125 487.5t-366 184.5q-242 0 -367 -184.5t-125 -487.5z" />
<glyph unicode="&#x1a1;" horiz-adv-x="1232" d="M55 508q0 248 139.5 389t383.5 141q176 0 301 -77.5t180 -219.5q94 94 102 187q-14 -10 -41 -10q-37 0 -60.5 22.5t-23.5 63.5q0 39 24.5 65.5t72.5 26.5q113 0 112 -133q0 -68 -42 -145t-126 -138q20 -76 21 -172q0 -248 -138.5 -388t-381.5 -140q-244 0 -383.5 140 t-139.5 388zM197 508q0 -219 102 -342t279 -123q174 0 276 124t102 341t-102 342t-276 125q-176 0 -278.5 -125t-102.5 -342z" />
<glyph unicode="&#x1af;" horiz-adv-x="1556" d="M86 1413v21h477v-21q-72 -25 -166 -37v-962q0 -201 113 -285t307 -84q184 0 295 87t111 282v964q-84 8 -168 35v21h270q78 0 138.5 25.5t64.5 72.5q-14 -10 -41 -10q-37 0 -61.5 24.5t-24.5 65.5q0 39 27.5 65.5t74.5 26.5q111 0 111 -125q0 -90 -89 -141.5t-225 -63.5 v-942q0 -233 -131 -342.5t-389 -109.5q-528 -1 -528 452v944q-94 14 -166 37z" />
<glyph unicode="&#x1b0;" horiz-adv-x="1296" d="M51 991v13l285 30v-749q0 -127 62.5 -184.5t166.5 -57.5q88 0 187.5 43t169.5 109v761q-86 14 -142 35v15h215q111 0 168.5 29.5t69.5 88.5q-14 -10 -41 -10q-37 0 -61.5 23.5t-24.5 64.5q0 39 25.5 66.5t72.5 27.5q115 0 115 -129q0 -80 -72.5 -140t-181.5 -79v-889 q84 -14 143 -32v-15l-286 -28v145q-72 -63 -176.5 -106t-219.5 -43q-151 0 -241 76.5t-90 207.5v692q-90 16 -144 35z" />
<glyph unicode="&#x1cd;" horiz-adv-x="1443" d="M14 0v23q78 29 160 36l500 1383h96l500 -1385q88 -10 160 -37v-20h-469v20q66 27 167 35l-112 320h-637l-115 -320q106 -10 170 -37v-18h-420zM401 438h592l-295 828zM436 1849l60 56q59 -43 120.5 -100.5t100.5 -108.5h10q39 51 100.5 108.5t120.5 100.5l60 -56 q-66 -45 -136.5 -111.5t-115.5 -127.5h-68q-45 61 -115.5 127.5t-136.5 111.5z" />
<glyph unicode="&#x1ce;" horiz-adv-x="1071" d="M68 272q0 156 110.5 225.5t280.5 69.5h319v172q0 119 -73.5 177.5t-206.5 58.5q-147 0 -316 -84l-12 57q78 41 176 65.5t201 24.5q174 0 273.5 -77.5t99.5 -208.5v-678q76 -14 143 -33v-14l-285 -29v156q-90 -96 -189.5 -135t-191.5 -39q-157 0 -243 75.5t-86 216.5z M209 274q0 -115 65.5 -172t169.5 -57q93 0 190 57.5t144 130.5v271h-284q-143 0 -214 -60.5t-71 -169.5zM246 1436l61 55q59 -45 119.5 -101.5t99.5 -107.5h11q43 53 103 109.5t118 99.5l59 -55q-66 -47 -136.5 -113t-115.5 -127h-67q-45 61 -116 128t-136 112z" />
<glyph unicode="&#x1cf;" horiz-adv-x="671" d="M49 1849l60 56q59 -43 120.5 -100.5t100.5 -108.5h10q39 51 100.5 108.5t120.5 100.5l60 -56q-66 -45 -136.5 -111.5t-115.5 -127.5h-68q-45 61 -115.5 127.5t-136.5 111.5zM96 0v20q74 23 166 35v1321q-94 14 -166 37v21h479v-21q-70 -23 -167 -37v-1321q98 -14 167 -37 v-18h-479z" />
<glyph unicode="&#x1d0;" horiz-adv-x="626" d="M27 1436l61 55q59 -45 119.5 -101.5t99.5 -107.5h10q43 53 103.5 109.5t118.5 99.5l59 -55q-66 -47 -136.5 -113t-115.5 -127h-67q-46 61 -116.5 128t-135.5 112zM76 0v18q51 16 166 37v899q-90 16 -144 35v12l285 31v-977q92 -12 166 -37v-18h-473z" />
<glyph unicode="&#x1d1;" horiz-adv-x="1429" d="M78 717q0 346 165 541.5t472 195.5t472 -195.5t165 -541.5t-165 -541.5t-472 -195.5t-472 195.5t-165 541.5zM223 717q0 -305 124 -488.5t368 -183.5q241 0 366 183.5t125 488.5q0 303 -125 487.5t-366 184.5q-242 0 -367 -184.5t-125 -487.5zM430 1849l59 56 q59 -43 121 -100.5t101 -108.5h10q39 51 100.5 108.5t120.5 100.5l59 -56q-66 -45 -136 -111.5t-115 -127.5h-68q-45 61 -115.5 127.5t-136.5 111.5z" />
<glyph unicode="&#x1d2;" horiz-adv-x="1155" d="M55 508q0 248 139.5 389t383.5 141t382 -141t138 -389t-138.5 -388t-381.5 -140q-244 0 -383.5 140t-139.5 388zM197 508q0 -219 102 -342t279 -123q174 0 276 124t102 341t-102 342t-276 125q-176 0 -278.5 -125t-102.5 -342zM291 1436l61 55q59 -45 119.5 -101.5 t99.5 -107.5h11q43 53 103 109.5t118 99.5l59 -55q-66 -47 -136.5 -113t-115.5 -127h-67q-45 61 -116 128t-136 112z" />
<glyph unicode="&#x1d3;" horiz-adv-x="1556" d="M86 1413v21h477v-21q-72 -25 -166 -37v-962q0 -201 113 -285t307 -84q184 0 295 87t111 282v964q-84 8 -168 35v21h415v-21q-74 -23 -170 -39v-942q0 -233 -131 -342.5t-389 -109.5q-528 -1 -528 452v944q-94 14 -166 37zM487 1849l60 56q59 -43 120.5 -100.5 t100.5 -108.5h10q39 51 100.5 108.5t120.5 100.5l60 -56q-66 -45 -136.5 -111.5t-115.5 -127.5h-68q-45 61 -115.5 127.5t-136.5 111.5z" />
<glyph unicode="&#x1d4;" horiz-adv-x="1259" d="M51 991v13l285 30v-749q0 -127 62.5 -184.5t166.5 -57.5q86 0 187.5 42t171.5 108v763q-86 14 -142 35v13l283 30v-975q84 -14 143 -32v-15l-284 -28v141q-76 -61 -180.5 -103t-217.5 -42q-152 0 -241.5 76.5t-89.5 207.5v692q-90 16 -144 35zM342 1436l61 55 q59 -45 120 -101.5t100 -107.5h10q43 53 103.5 109.5t117.5 99.5l59 -55q-66 -47 -136 -113t-115 -127h-68q-45 61 -115.5 128t-136.5 112z" />
<glyph unicode="&#x1d5;" horiz-adv-x="1556" d="M86 1413v21h477v-21q-72 -25 -166 -37v-962q0 -201 113 -285t307 -84q184 0 295 87t111 282v964q-84 8 -168 35v21h415v-21q-74 -23 -170 -39v-942q0 -233 -131 -342.5t-389 -109.5q-528 -1 -528 452v944q-94 14 -166 37zM485 1909v63h613v-63h-613zM494 1690 q0 37 22.5 60.5t56.5 23.5q35 0 57.5 -24t22.5 -60q0 -37 -22.5 -59.5t-57.5 -22.5q-34 0 -56.5 22.5t-22.5 59.5zM930 1690q0 37 22.5 60.5t57.5 23.5q37 0 59.5 -24t22.5 -60q0 -37 -22.5 -59.5t-59.5 -22.5q-35 0 -57.5 22.5t-22.5 59.5z" />
<glyph unicode="&#x1d6;" horiz-adv-x="1259" d="M51 991v13l285 30v-749q0 -127 62.5 -184.5t166.5 -57.5q86 0 186.5 42t170.5 108v763q-86 14 -142 35v13l285 30v-975q84 -14 143 -32v-15l-286 -28v141q-76 -61 -179.5 -103t-216.5 -42q-152 0 -241.5 76.5t-89.5 207.5v692q-90 16 -144 35zM319 1483v63h613v-63h-613z M326 1278q0 37 22.5 60.5t57.5 23.5q37 0 59 -23.5t22 -60.5t-22.5 -59.5t-58.5 -22.5q-35 0 -57.5 22.5t-22.5 59.5zM764 1278q0 37 21.5 60.5t58.5 23.5q35 0 57.5 -23.5t22.5 -60.5t-22.5 -59.5t-57.5 -22.5q-37 0 -58.5 22.5t-21.5 59.5z" />
<glyph unicode="&#x1d7;" horiz-adv-x="1556" d="M86 1413v21h477v-21q-72 -25 -166 -37v-962q0 -201 113 -285t307 -84q184 0 295 87t111 282v964q-84 8 -168 35v21h415v-21q-74 -23 -170 -39v-942q0 -233 -131 -342.5t-389 -109.5q-528 -1 -528 452v944q-94 14 -166 37zM494 1690q0 37 22.5 60.5t56.5 23.5 q35 0 57.5 -24t22.5 -60q0 -37 -22.5 -59.5t-57.5 -22.5q-34 0 -56.5 22.5t-22.5 59.5zM741 1872l213 190q2 2 23.5 21.5t54.5 19.5q25 0 39 -14t14 -35q0 -41 -55 -72l-262 -149zM930 1690q0 37 22.5 60.5t57.5 23.5q37 0 59.5 -24t22.5 -60q0 -37 -22.5 -59.5t-59.5 -22.5 q-35 0 -57.5 22.5t-22.5 59.5z" />
<glyph unicode="&#x1d8;" horiz-adv-x="1259" d="M51 991v13l285 30v-749q0 -127 62.5 -184.5t166.5 -57.5q86 0 187.5 42t171.5 108v763q-86 14 -142 35v13l283 30v-975q84 -14 143 -32v-15l-284 -28v141q-76 -61 -180.5 -103t-217.5 -42q-152 0 -241.5 76.5t-89.5 207.5v692q-90 16 -144 35zM330 1278q0 37 22.5 60.5 t57.5 23.5t57 -23.5t22 -60.5t-22.5 -59.5t-56.5 -22.5q-35 0 -57.5 22.5t-22.5 59.5zM559 1438l193 178q39 39 77 39q25 0 39.5 -14.5t14.5 -32.5q0 -43 -56 -74l-241 -135zM766 1278q0 37 22.5 60.5t57.5 23.5q37 0 59.5 -23.5t22.5 -60.5t-22.5 -59.5t-59.5 -22.5 q-35 0 -57.5 22.5t-22.5 59.5z" />
<glyph unicode="&#x1d9;" horiz-adv-x="1556" d="M86 1413v21h477v-21q-72 -25 -166 -37v-962q0 -201 113 -285t307 -84q184 0 295 87t111 282v964q-84 8 -168 35v21h415v-21q-74 -23 -170 -39v-942q0 -233 -131 -342.5t-389 -109.5q-528 -1 -528 452v944q-94 14 -166 37zM494 1690q0 37 22.5 60.5t56.5 23.5 q35 0 57.5 -24t22.5 -60q0 -37 -22.5 -59.5t-57.5 -22.5q-34 0 -56.5 22.5t-22.5 59.5zM506 2040l61 55q59 -45 120 -101.5t99 -107.5h11q43 53 103.5 109.5t117.5 99.5l59 -55q-66 -47 -136.5 -112.5t-115.5 -127.5h-67q-45 62 -116 128.5t-136 111.5zM930 1690 q0 37 22.5 60.5t57.5 23.5q37 0 59.5 -24t22.5 -60q0 -37 -22.5 -59.5t-59.5 -22.5q-35 0 -57.5 22.5t-22.5 59.5z" />
<glyph unicode="&#x1da;" horiz-adv-x="1259" d="M51 991v13l285 30v-749q0 -127 62.5 -184.5t166.5 -57.5q86 0 187.5 42t171.5 108v763q-86 14 -142 35v13l283 30v-975q84 -14 143 -32v-15l-284 -28v141q-76 -61 -180.5 -103t-217.5 -42q-152 0 -241.5 76.5t-89.5 207.5v692q-90 16 -144 35zM336 1278q0 37 22.5 60.5 t57.5 23.5t57.5 -23.5t22.5 -60.5t-22.5 -59.5t-57.5 -22.5t-57.5 22.5t-22.5 59.5zM348 1628l62 55q59 -45 119.5 -101t99.5 -107h10q43 53 103.5 109t117.5 99l60 -55q-66 -47 -136.5 -112.5t-115.5 -126.5h-68q-45 61 -115.5 127.5t-136.5 111.5zM772 1278 q0 37 22.5 60.5t57.5 23.5q37 0 59.5 -23.5t22.5 -60.5t-22.5 -59.5t-59.5 -22.5q-35 0 -57.5 22.5t-22.5 59.5z" />
<glyph unicode="&#x1db;" horiz-adv-x="1556" d="M86 1413v21h477v-21q-72 -25 -166 -37v-962q0 -201 113 -285t307 -84q184 0 295 87t111 282v964q-84 8 -168 35v21h415v-21q-74 -23 -170 -39v-942q0 -233 -131 -342.5t-389 -109.5q-528 -1 -528 452v944q-94 14 -166 37zM494 1690q0 37 22.5 60.5t56.5 23.5 q35 0 57.5 -24t22.5 -60q0 -37 -22.5 -59.5t-57.5 -22.5q-34 0 -56.5 22.5t-22.5 59.5zM561 2019q0 18 14.5 32.5t38.5 14.5q39 0 78 -38l193 -179l-27 -39l-242 136q-55 31 -55 73zM930 1690q0 37 22.5 60.5t57.5 23.5q37 0 59.5 -24t22.5 -60q0 -37 -22.5 -59.5 t-59.5 -22.5q-35 0 -57.5 22.5t-22.5 59.5z" />
<glyph unicode="&#x1dc;" horiz-adv-x="1259" d="M51 991v13l285 30v-749q0 -127 62.5 -184.5t166.5 -57.5q86 0 187.5 42t171.5 108v763q-86 14 -142 35v13l283 30v-975q84 -14 143 -32v-15l-284 -28v141q-76 -61 -180.5 -103t-217.5 -42q-152 0 -241.5 76.5t-89.5 207.5v692q-90 16 -144 35zM324 1278q0 37 22.5 60.5 t56.5 23.5q35 0 57.5 -23.5t22.5 -60.5t-22.5 -59.5t-57.5 -22.5q-34 0 -56.5 22.5t-22.5 59.5zM391 1608q0 18 14.5 32.5t38.5 14.5q39 0 78 -39l193 -178l-27 -39l-242 135q-55 31 -55 74zM760 1278q0 37 22.5 60.5t57.5 23.5q37 0 59.5 -23.5t22.5 -60.5t-22.5 -59.5 t-59.5 -22.5q-35 0 -57.5 22.5t-22.5 59.5z" />
<glyph unicode="&#x1e6;" horiz-adv-x="1339" d="M78 717q0 227 77.5 393t225 255t352.5 89q135 0 267.5 -37t197.5 -98l-16 -234h-39q-23 59 -37 218q-41 33 -143.5 59.5t-190.5 26.5q-270 0 -408.5 -184.5t-138.5 -487.5q0 -307 125 -489.5t398 -182.5q61 0 144 17.5t142 50.5v524q-96 16 -164 37v20h447v-18 q-68 -33 -143 -41v-533q-76 -59 -201 -90.5t-254 -31.5q-313 0 -477 194.5t-164 542.5zM449 1878l59 55q59 -43 120.5 -100t100.5 -109h10q39 51 100.5 108.5t121.5 100.5l59 -55q-66 -45 -136.5 -111.5t-115.5 -128.5h-68q-45 62 -115.5 128.5t-135.5 111.5z" />
<glyph unicode="&#x1e7;" horiz-adv-x="1048" d="M78 -53q0 119 117 186q-47 25 -71 64t-24 82q0 92 115 161q-63 43 -97 109.5t-34 152.5q0 158 111.5 247t304.5 89q201 0 313 -96q31 29 53.5 70t22.5 65h115q-10 -49 -46 -99t-98 -89q55 -76 55 -187q0 -158 -111.5 -246.5t-303.5 -88.5q-119 0 -211 34 q-37 -23 -56.5 -51t-19.5 -55q0 -41 40 -53.5t132 -12.5h285q157 0 235 -67.5t78 -188.5q0 -147 -131 -213.5t-358 -66.5q-190 0 -303 65.5t-113 188.5zM193 -45q0 -96 84.5 -145.5t228.5 -49.5q160 0 254 48.5t94 140.5q0 76 -48 114.5t-169 38.5h-297q-47 0 -78 9 q-41 -37 -55 -74t-14 -82zM225 702q0 -119 71 -195.5t204 -76.5t203.5 77t70.5 195q0 119 -70.5 196t-203.5 77t-204 -77t-71 -196zM236 1436l59 55q59 -43 120.5 -100.5t100.5 -108.5h10q39 51 100.5 108.5t121.5 100.5l59 -55q-66 -45 -136.5 -112t-115.5 -128h-68 q-45 61 -115.5 128t-135.5 112z" />
<glyph unicode="&#x1fa;" horiz-adv-x="1443" d="M14 0v23q78 29 160 36l500 1383h96l500 -1385q88 -10 160 -37v-20h-469v20q66 27 167 35l-112 320h-637l-115 -320q106 -10 170 -37v-18h-420zM401 438h592l-295 828zM541 1673q0 76 51 124t129 48t128 -48t50 -124t-50 -123t-128 -47t-129 47t-51 123zM604 1673 q0 -51 33 -81.5t84 -30.5t83 30.5t32 81.5t-32 83t-83 32t-84 -32t-33 -83zM631 1942l229 204q39 39 80 39q25 0 38 -13t13 -34q0 -39 -55 -74l-279 -161z" />
<glyph unicode="&#x1fb;" horiz-adv-x="1071" d="M68 272q0 156 110.5 225.5t280.5 69.5h319v172q0 119 -73.5 177.5t-206.5 58.5q-147 0 -316 -84l-12 57q78 41 176 65.5t201 24.5q174 0 273.5 -77.5t99.5 -208.5v-678q76 -14 143 -33v-14l-285 -29v156q-90 -96 -189.5 -135t-191.5 -39q-157 0 -243 75.5t-86 216.5z M209 274q0 -115 65.5 -172t169.5 -57q93 0 190 57.5t144 130.5v271h-284q-143 0 -214 -60.5t-71 -169.5zM354 1300q0 76 51.5 124.5t129.5 48.5t128 -48.5t50 -124.5t-50.5 -123t-127.5 -47q-78 0 -129.5 47.5t-51.5 122.5zM418 1300q0 -51 32.5 -81.5t84.5 -30.5 q51 0 82.5 30.5t31.5 81.5t-31.5 83t-82.5 32t-84 -31.5t-33 -83.5zM442 1571l230 205q39 39 80 39q25 0 38 -13.5t13 -34.5q0 -39 -55 -73l-279 -162z" />
<glyph unicode="&#x1fc;" horiz-adv-x="2019" d="M14 0v20q78 29 150 39l809 1327q-12 2 -43 9.5t-53 17.5v21h1013v-277h-37q-14 27 -28.5 97.5t-18.5 113.5h-608v-600h453q12 111 35 168h28v-399h-28q-23 61 -35 168h-453v-642h612q4 39 28 110t42 101h35l-27 -274h-1003v20q70 25 168 35v320h-596l-191 -320 q111 -12 174 -37v-18h-426zM496 438h557v930h-11zM1282 1649l229 204q39 39 80 39q25 0 38 -13t13 -34q0 -39 -55 -73l-278 -162z" />
<glyph unicode="&#x1fd;" horiz-adv-x="1761" d="M68 272q0 158 115.5 233t283.5 75h293q2 41 14 100l8 51q0 121 -74.5 182.5t-209.5 61.5q-147 0 -316 -84l-12 57q78 41 176 65.5t201 24.5q123 0 208 -46t119 -126q63 84 162 128t226 44q215 0 324.5 -136t109.5 -343v-43h-797q2 -215 114.5 -345t313.5 -130 q82 0 164 26.5t143 69.5l15 -47q-57 -47 -149.5 -78.5t-209.5 -31.5q-139 0 -249.5 56t-180.5 159q-92 -121 -217 -168t-240 -47q-151 0 -243 74.5t-92 217.5zM209 274q0 -115 67.5 -172t174.5 -57q100 0 207.5 57.5t164.5 143.5q-61 119 -65 270h-256q-141 0 -217 -65.5 t-76 -176.5zM815 1235l229 205q39 39 80 39q25 0 38.5 -13.5t13.5 -33.5q0 -39 -56 -74l-278 -162zM901 582h668q-2 160 -77 277.5t-230 117.5q-170 0 -260.5 -111.5t-100.5 -283.5z" />
<glyph unicode="&#x1fe;" horiz-adv-x="1429" d="M78 717q0 346 165 541.5t472 195.5q221 0 366 -102l80 121l58 -39l-82 -125q106 -95 160.5 -245.5t54.5 -346.5q0 -346 -165 -541.5t-472 -195.5q-231 0 -385 112l-99 -149l-55 39l103 155q-100 94 -150.5 241.5t-50.5 338.5zM223 717q0 -305 121 -481l682 1034 q-123 119 -311 119q-242 0 -367 -184.5t-125 -487.5zM387 178q127 -133 328 -133q241 0 366 183.5t125 488.5q0 319 -133 497zM565 1649l230 204q39 39 79 39q25 0 38.5 -13t13.5 -34q0 -39 -56 -73l-278 -162z" />
<glyph unicode="&#x1ff;" horiz-adv-x="1155" d="M55 508q0 248 139.5 389t383.5 141q158 0 278 -63l68 98l61 -41l-67 -98q88 -68 134 -176.5t46 -249.5q0 -248 -138.5 -388t-381.5 -140q-160 0 -281 63l-78 -111l-57 41l76 109q-88 68 -135.5 176.5t-47.5 249.5zM197 508q0 -213 100 -340l506 733q-92 74 -225 74 q-176 0 -278.5 -125t-102.5 -342zM348 117q96 -74 230 -74q174 0 276 124t102 341q0 213 -100 340zM397 1235l230 205q39 39 80 39q25 0 38 -13.5t13 -33.5q0 -39 -56 -74l-278 -162z" />
<glyph unicode="&#x218;" horiz-adv-x="1079" d="M70 166l18 272h37q23 -59 35 -245q53 -68 140 -108t200 -40q94 0 177 35t133 103.5t50 162.5q0 98 -50 166t-123 110t-202 101q-129 57 -205.5 103t-130 119t-53.5 177q0 164 123 248t334 84q268 0 403 -145l-18 -228h-37q-23 55 -37 213q-47 45 -116.5 70t-155.5 25 q-174 0 -261 -64.5t-87 -183.5q0 -72 43 -125t107.5 -90t176.5 -88q139 -63 226.5 -116.5t149 -140.5t61.5 -212q0 -117 -61.5 -205t-169 -136t-242.5 -48q-156 0 -277 52t-188 134zM432 -209q0 43 28.5 69.5t69.5 26.5q57 0 88 -37.5t31 -95.5q0 -76 -39 -169t-96 -146 l-57 43q39 47 63.5 105.5t28.5 119.5q-10 -6 -29 -6q-37 0 -62.5 25.5t-25.5 64.5z" />
<glyph unicode="&#x219;" horiz-adv-x="917" d="M82 799q0 121 103.5 180t260.5 59q219 0 340 -102l-18 -207h-37q-12 29 -19 83t-7 101q-49 33 -102.5 47.5t-127.5 14.5q-117 0 -184.5 -39t-67.5 -123q0 -59 37 -101t91.5 -69t152.5 -65q113 -43 177 -78t111.5 -92.5t47.5 -141.5q0 -137 -104.5 -211.5t-268.5 -74.5 q-248 -1 -381 118l14 258h35q10 -27 19.5 -104.5t11.5 -130.5q90 -78 252 -78q135 0 207.5 58.5t72.5 156.5q0 57 -36.5 96t-90 65.5t-147.5 61.5q-111 41 -178.5 76t-115.5 94.5t-48 147.5zM350 -209q0 43 29 69.5t70 26.5q57 0 87.5 -37.5t30.5 -95.5q0 -76 -39 -169 t-96 -146l-57 43q39 47 63.5 105.5t28.5 119.5q-10 -6 -29 -6q-37 0 -62.5 25.5t-25.5 64.5z" />
<glyph unicode="&#x21a;" horiz-adv-x="1282" d="M88 1141v293h1104v-293h-35q-14 29 -28.5 105.5t-18.5 121.5h-397v-1313q106 -16 172 -37v-18h-490v20q78 23 172 35v1313h-397q-4 -45 -18.5 -122t-28.5 -105h-35zM537 -221q0 43 27.5 65.5t66.5 22.5q57 0 84.5 -34t27.5 -93q0 -76 -35.5 -168t-93.5 -145l-53 43 q37 45 60.5 104t27.5 121q-16 -4 -24 -4q-37 0 -62.5 24.5t-25.5 63.5z" />
<glyph unicode="&#x21b;" horiz-adv-x="761" d="M43 956v64h184v135q61 33 76 141h66v-276h311v-64h-311v-675q0 -127 48 -181.5t142 -54.5q55 0 133 25l13 -62q-87 -28 -187 -28q-139 0 -215 74.5t-76 226.5v675h-184zM346 -221q0 43 27.5 65.5t66.5 22.5q58 0 85.5 -34t27.5 -93q0 -76 -36 -168t-93 -145l-53 43 q37 45 60.5 104t27.5 121q-16 -4 -25 -4q-37 0 -62.5 24.5t-25.5 63.5z" />
<glyph unicode="&#x237;" horiz-adv-x="598" d="M-27 -211l13 59q57 -29 129 -28q158 0 157 178v956q-90 16 -143 35v12l287 31v-1028q0 -129 -68.5 -190.5t-189.5 -61.5q-109 0 -185 37z" />
<glyph unicode="&#x251;" horiz-adv-x="1169" d="M55 528q0 164 64.5 280t176.5 173t251 57q338 0 471 -213v-751q84 -14 143 -33v-14l-268 -31q-14 66 -19 162q-49 -88 -150 -133t-214 -45q-221 0 -338 135t-117 413zM197 524q0 -219 81.5 -350t266.5 -131q102 0 177 43t113.5 114.5t38.5 151.5v471q-53 72 -128.5 112 t-172.5 40q-186 0 -281 -116t-95 -335z" />
<glyph unicode="&#x259;" horiz-adv-x="1060" d="M57 461v43h795q0 207 -107.5 340t-310.5 133q-82 0 -168 -26.5t-147 -69.5l-15 47q57 47 153.5 78.5t213.5 31.5q156 0 274.5 -66.5t184 -186t65.5 -275.5q0 -252 -133 -391t-366 -139q-145 0 -244.5 65.5t-147 174t-47.5 241.5zM186 440q0 -156 74 -276.5t232 -120.5 q165 0 254.5 111.5t103.5 285.5h-664z" />
<glyph unicode="&#x2bb;" horiz-adv-x="489" d="M139 1145q0 76 40 167t97 144l58 -41q-39 -47 -63.5 -104.5t-26.5 -116.5q8 4 28 4q37 0 63.5 -24.5t26.5 -65.5q0 -43 -28.5 -72.5t-73.5 -29.5q-61 0 -91 39.5t-30 99.5z" />
<glyph unicode="&#x2bc;" horiz-adv-x="489" d="M139 1350q0 45 28 74.5t75 29.5q59 0 89.5 -40t30.5 -99q0 -74 -40.5 -166t-98.5 -148l-55 43q82 102 90 222q-10 -6 -33 -6q-35 0 -60.5 25.5t-25.5 64.5z" />
<glyph unicode="&#x2be;" d="M-113 1229v51q63 2 95 37t32 86q0 53 -31.5 87t-95.5 36v53q104 0 157.5 -48t53.5 -128q0 -78 -56 -126t-155 -48z" />
<glyph unicode="&#x2bf;" d="M-98 1403q0 80 53 128t158 48v-53q-63 -2 -95 -36t-32 -87q0 -51 31.5 -86t95.5 -37v-51q-99 0 -155 48t-56 126z" />
<glyph unicode="&#x2c6;" horiz-adv-x="1007" d="M217 1253q63 43 135 110t117 128h68q45 -63 116.5 -129t134.5 -109l-61 -57q-59 45 -119.5 101.5t-99.5 109.5h-10q-41 -53 -101.5 -110.5t-120.5 -100.5z" />
<glyph unicode="&#x2c7;" horiz-adv-x="1007" d="M217 1436l62 55q59 -45 119.5 -101.5t99.5 -107.5h10q43 53 103.5 109.5t117.5 99.5l59 -55q-66 -47 -136 -113t-115 -127h-68q-45 61 -115.5 128t-136.5 112z" />
<glyph unicode="&#x2c8;" d="M-61 1198v289h120v-289h-120z" />
<glyph unicode="&#x2c9;" horiz-adv-x="1007" d="M166 1264v63h676v-63h-676z" />
<glyph unicode="&#x2ca;" d="M-176 1235l229 205q39 39 80 39q25 0 38 -13.5t13 -33.5q0 -39 -55 -74l-279 -162z" />
<glyph unicode="&#x2cb;" d="M-176 1432q0 18 14.5 32.5t38.5 14.5q45 0 78 -39l229 -205l-26 -39l-279 162q-55 35 -55 74z" />
<glyph unicode="&#x2cc;" d="M-61 -88h120v-289h-120v289z" />
<glyph unicode="&#x2d8;" horiz-adv-x="1007" d="M221 1436h94q12 -106 69.5 -143.5t137.5 -37.5q82 0 139.5 37t67.5 144h94q-14 -123 -94 -184.5t-207 -61.5t-206.5 61.5t-94.5 184.5z" />
<glyph unicode="&#x2d9;" horiz-adv-x="1007" d="M424 1278q0 37 22.5 60.5t57.5 23.5t57.5 -23.5t22.5 -60.5t-22.5 -59.5t-57.5 -22.5t-57.5 22.5t-22.5 59.5z" />
<glyph unicode="&#x2da;" horiz-adv-x="1007" d="M324 1419q0 76 50 123t130 47t129 -47t49 -123t-50 -123t-128 -47t-129 47t-51 123zM387 1419q0 -51 33 -81.5t84 -30.5t84 30.5t33 81.5t-33 83t-84 32t-84 -32t-33 -83z" />
<glyph unicode="&#x2db;" horiz-adv-x="1007" d="M338 -213q0 68 44 125t120 88h84q-57 -33 -96 -85t-39 -108q0 -51 35.5 -76.5t91.5 -25.5q55 0 102 23v-68q-72 -31 -152 -31q-90 0 -140 47.5t-50 110.5z" />
<glyph unicode="&#x2dc;" horiz-adv-x="1007" d="M178 1196q15 98 63 146.5t121 48.5q39 0 76 -16.5t86 -47.5q43 -25 72 -38t55 -13q100 0 131 127h52q-14 -96 -60.5 -150.5t-126.5 -54.5q-33 0 -63.5 14.5t-89.5 47.5q-53 31 -81 44t-55 13q-47 0 -80.5 -33t-46.5 -88h-53z" />
<glyph unicode="&#x2dd;" horiz-adv-x="1007" d="M193 1237l229 205q39 39 78 39q25 0 39 -14.5t14 -32.5q0 -43 -55 -74l-279 -162zM494 1237l229 205q45 39 80 39q25 0 38 -13.5t13 -33.5q0 -43 -55 -74l-279 -162z" />
<glyph unicode="&#x300;" d="M-840 1432q0 18 14.5 32.5t39.5 14.5q43 0 77 -39l232 -205l-27 -39l-278 162q-57 35 -58 74z" />
<glyph unicode="&#x301;" d="M-760 1235l230 205q39 39 79 39q23 0 37.5 -13.5t14.5 -33.5q0 -39 -56 -74l-278 -162z" />
<glyph unicode="&#x302;" d="M-287 1237q63 45 135 110.5t117 127.5h68q45 -61 116.5 -127t135.5 -111l-60 -55q-59 43 -120.5 100t-100.5 109h-10q-39 -51 -100.5 -108.5t-120.5 -100.5z" />
<glyph unicode="&#x303;" d="M-930 1196q15 98 62 146.5t123 48.5q39 0 75.5 -16.5t85.5 -47.5q43 -25 72 -38t55 -13q100 0 131 127h52q-14 -96 -60.5 -150.5t-126.5 -54.5q-33 0 -63.5 14.5t-89.5 47.5q-53 31 -81 44t-55 13q-47 0 -80.5 -33t-46.5 -88h-53z" />
<glyph unicode="&#x304;" d="M-322 1196v64h644v-64h-644z" />
<glyph unicode="&#x306;" d="M-301 1421h94q10 -106 68.5 -143t138.5 -37t137.5 37t69.5 143h94q-14 -123 -94 -184t-207 -61t-207 61t-94 184z" />
<glyph unicode="&#x307;" d="M-80 1276q0 39 21.5 61.5t58.5 22.5q35 0 57.5 -22.5t22.5 -61.5q0 -37 -22.5 -59.5t-57.5 -22.5q-37 0 -58.5 22.5t-21.5 59.5z" />
<glyph unicode="&#x308;" d="M-299 1276q0 39 22.5 61.5t57.5 22.5t57.5 -22.5t22.5 -61.5q0 -37 -22.5 -59.5t-57.5 -22.5t-57.5 22.5t-22.5 59.5zM137 1276q0 39 22.5 61.5t57.5 22.5t57.5 -22.5t22.5 -61.5q0 -37 -22.5 -59.5t-57.5 -22.5t-57.5 22.5t-22.5 59.5z" />
<glyph unicode="&#x309;" d="M-674 1585q70 35 152 35q78 0 132 -39t54 -115q0 -66 -42 -103.5t-122 -45.5l-22 -127h-64l-10 174h41q66 0 98.5 29.5t32.5 76.5q0 41 -30.5 67t-88.5 26q-57 0 -116 -33z" />
<glyph unicode="&#x30a;" d="M-180 1331q0 76 51 124t129 48t128 -48t50 -124t-50 -123t-128 -47t-129 47t-51 123zM-117 1331q0 -51 33 -81.5t84 -30.5t83 30.5t32 81.5t-32 83t-83 32t-84 -32t-33 -83z" />
<glyph unicode="&#x30b;" d="M-354 1233l229 205q41 41 80 41q25 0 39 -14.5t14 -32.5q0 -41 -57 -74l-279 -162zM37 1233l229 205q12 14 34 27.5t44 13.5q25 0 39 -13.5t14 -33.5q0 -43 -55 -74l-279 -162z" />
<glyph unicode="&#x30c;" d="M-287 1436l60 55q59 -43 120.5 -100.5t100.5 -108.5h10q39 51 100.5 108.5t120.5 100.5l60 -55q-66 -45 -136.5 -112t-115.5 -128h-68q-45 61 -115.5 128t-136.5 112z" />
<glyph unicode="&#x31b;" d="M-119 709q53 39 95 97t49 122q-14 -10 -41 -10q-37 0 -60.5 22.5t-23.5 63.5q0 39 24.5 65.5t71.5 26.5q113 0 113 -133q0 -74 -48.5 -155t-144.5 -146z" />
<glyph unicode="&#x323;" d="M-678 -209q0 39 22.5 61.5t57.5 22.5t57.5 -22.5t22.5 -61.5q0 -37 -22.5 -59.5t-57.5 -22.5t-57.5 22.5t-22.5 59.5z" />
<glyph unicode="&#x324;" d="M-299 -227q0 39 22.5 61.5t57.5 22.5t57.5 -22.5t22.5 -61.5q0 -37 -22.5 -59.5t-57.5 -22.5t-57.5 22.5t-22.5 59.5zM137 -227q0 39 22.5 61.5t57.5 22.5t57.5 -22.5t22.5 -61.5q0 -37 -22.5 -59.5t-57.5 -22.5t-57.5 22.5t-22.5 59.5z" />
<glyph unicode="&#x326;" d="M-563 -221q0 43 27.5 65.5t66.5 22.5q57 0 85 -34t28 -93q0 -76 -36 -168t-93 -145l-54 43q37 45 60.5 104t27.5 121q-16 -4 -24 -4q-37 0 -62.5 24.5t-25.5 63.5z" />
<glyph unicode="&#x327;" d="M-172 -397l29 51q55 -18 118 -19q68 0 108 26t40 79q0 37 -34 54.5t-81 17.5q-23 0 -51 -5l-43 54l78 155h78l-70 -151h18q88 0 139.5 -32t51.5 -93q0 -82 -63.5 -124t-165.5 -42q-82 0 -152 29z" />
<glyph unicode="&#x328;" d="M-188 -213q0 68 43 125t118 88h86q-59 -33 -97 -84t-38 -109q0 -51 35 -76.5t90 -25.5t103 23v-68q-72 -31 -152 -31q-90 0 -139 47.5t-49 110.5z" />
<glyph unicode="&#x32e;" d="M-301 -102h94q18 -182 207 -183q186 0 207 183h94q-14 -123 -94 -184.5t-207 -61.5t-207 61.5t-94 184.5z" />
<glyph unicode="&#x331;" d="M-322 -145h644v-64h-644v64z" />
<glyph unicode="&#x394;" horiz-adv-x="1259" d="M59 0v76l523 1372h102l514 -1372v-76h-1139zM205 115h848l-420 1118z" />
<glyph unicode="&#x3a9;" horiz-adv-x="1509" d="M123 260h29q14 -27 33.5 -84t25.5 -96h311v186q-109 14 -199 90t-143 196t-53 261q0 164 71.5 294t213 204.5t342.5 74.5t343 -74.5t213.5 -204.5t71.5 -294q0 -141 -53 -261t-144 -195.5t-200 -90.5v-186h311q6 37 25.5 95t36.5 85h28l-22 -260h-467v319q104 14 182 85 t119 177.5t41 223.5q0 145 -60.5 259t-171 177.5t-253.5 63.5t-253 -63.5t-170.5 -177.5t-60.5 -259q0 -117 41 -223.5t118 -177t181 -85.5v-319h-465z" />
<glyph unicode="&#x3bc;" horiz-adv-x="1259" d="M51 991v13l285 30v-749q0 -127 62.5 -184.5t166.5 -57.5q86 0 186.5 42t170.5 108v763q-86 14 -142 35v13l285 30v-975q84 -14 143 -32v-15l-286 -28v141q-74 -61 -177.5 -103t-218.5 -42q-59 0 -110 20t-86 61v-442h-135v1337q-90 16 -144 35z" />
<glyph unicode="&#x3c0;" horiz-adv-x="1320" d="M29 956v64h1251v-64h-250v-761q0 -141 123 -142q57 0 96 27v-62q-37 -20 -74.5 -29t-91.5 -9q-98 0 -146 56t-48 152v768h-469v-956h-141v956h-250z" />
<glyph unicode="&#xe01;" horiz-adv-x="1146" d="M96 854v25q59 121 183 198.5t288 77.5q195 0 321 -95t126 -278v-782h-144v811q0 117 -80.5 196.5t-234.5 79.5q-109 0 -198 -50t-144 -146q59 -20 126 -61.5t107 -84.5v-14q-94 -55 -130.5 -117.5t-36.5 -175.5v-438h-144v440q0 203 180 299q-90 72 -219 115z" />
<glyph unicode="&#xe02;" horiz-adv-x="1126" d="M27 848q0 82 39.5 151.5t113.5 112.5t172 43q145 0 226 -71.5t81 -196.5q0 -70 -30.5 -129.5t-87.5 -141.5q-51 -68 -77 -117.5t-26 -103.5v-325h254q158 0 158 174v889h143v-881q0 -127 -69.5 -189.5t-198.5 -62.5h-549v70h119v307q0 78 35 139.5t106 147.5 q59 68 90 117.5t31 107.5q0 92 -54 146.5t-161 54.5q-84 0 -144.5 -51.5t-74.5 -125.5q14 16 43 27.5t57 11.5q78 0 120 -48t42 -124q0 -72 -47 -122t-123 -50q-90 0 -139 67.5t-49 172.5zM117 782q0 -55 27.5 -86.5t68.5 -31.5t69.5 31.5t28.5 86.5q0 53 -28.5 84t-69.5 31 t-68.5 -29.5t-27.5 -85.5z" />
<glyph unicode="&#xe03;" horiz-adv-x="1144" d="M45 836q0 96 56.5 189t154.5 130l121 -123l135 123q88 -31 131 -98.5t43 -161.5q0 -70 -30.5 -129t-92.5 -148q-53 -70 -79.5 -119.5t-26.5 -103.5v-325h254q158 0 157 174v889h144v-881q0 -127 -70 -189.5t-199 -62.5h-548v70h118v307q0 78 36 138t108 144 q63 74 95 126.5t32 111.5q0 135 -80 180l-127 -121l-121 119q-45 -25 -80 -81t-41 -105q16 27 47 39t64 12q76 0 116.5 -48t40.5 -124q0 -72 -47 -122t-123 -50q-90 0 -139 67.5t-49 172.5zM135 770q0 -55 27.5 -87t68.5 -32t70 32t29 87q0 53 -29 84t-70 31t-68.5 -30 t-27.5 -85z" />
<glyph unicode="&#xe04;" horiz-adv-x="1218" d="M133 0v717q0 205 114.5 321.5t360.5 116.5q248 0 362.5 -116.5t114.5 -321.5v-717h-143v754q0 150 -83 241.5t-251 91.5t-250 -91t-82 -242v-537q49 168 148 395q39 88 85 131t114 43q80 0 119.5 -48t39.5 -126q0 -72 -43 -122t-114 -50q-49 0 -89 29t-53 92 q-37 -68 -104.5 -255t-104.5 -306h-141zM530 614q0 -55 28 -85.5t69 -30.5t69.5 30.5t28.5 85.5q0 53 -28.5 83t-69.5 30t-69 -29.5t-28 -83.5z" />
<glyph unicode="&#xe05;" horiz-adv-x="1220" d="M133 0v717q0 131 24.5 215t84 138t170.5 85l198 -160l199 160q111 -31 170 -85t83.5 -138t24.5 -215v-717h-143v739q0 141 -30.5 212t-125.5 112l-178 -141l-180 141q-94 -41 -124 -111.5t-30 -212.5v-522q27 90 99 246l49 112q39 88 85 131.5t114 43.5q80 0 119.5 -48.5 t39.5 -126.5q0 -72 -43 -122t-114 -50q-49 0 -89 29t-53 92q-39 -72 -108.5 -249t-100.5 -275h-141zM530 578q0 -55 28 -86t69 -31t69.5 30.5t28.5 86.5q0 53 -28.5 82.5t-69.5 29.5t-69 -29.5t-28 -82.5z" />
<glyph unicode="&#xe06;" horiz-adv-x="1179" d="M35 836q0 96 56 189t155 130l121 -123l135 123q88 -31 131 -98.5t43 -161.5q0 -72 -29 -129t-84 -139q-47 -68 -71.5 -116t-24.5 -101v-25q131 -31 247.5 -103.5t188.5 -150.5v1002h144v-1133h-132q-51 92 -178 186.5t-270 132.5v-133q0 -94 -49 -150t-152 -56 q-96 0 -142 61t-46 149q0 98 63.5 157t163.5 59h21q2 74 33.5 129t97.5 135q59 70 87.5 119t28.5 108q0 135 -79 180l-127 -121l-121 119q-45 -25 -77 -80t-38 -106q16 27 45 39t60 12q76 0 116.5 -48t40.5 -124q0 -72 -47 -122t-123 -50q-90 0 -139 67.5t-49 172.5z M125 770q0 -55 27.5 -87t68.5 -32t69.5 32t28.5 87q0 53 -28.5 84t-69.5 31t-68.5 -30t-27.5 -85zM147 188q0 -61 24 -102t69 -41q41 0 63.5 35t22.5 94v168h-11q-80 0 -124 -40t-44 -114z" />
<glyph unicode="&#xe07;" horiz-adv-x="905" d="M23 588l98 69q100 -106 189 -271t132 -300h78q57 0 83 47t26 107v591q-29 -25 -86 -24q-63 0 -110.5 46t-47.5 128q0 80 50 127t132 47q205 0 205 -213v-684q0 -111 -58.5 -184.5t-193.5 -73.5h-182q-41 154 -134 326t-181 262zM463 979q0 -55 28.5 -87t71.5 -32t71 32 t28 87t-28 87t-71 32t-71.5 -32t-28.5 -87z" />
<glyph unicode="&#xe08;" horiz-adv-x="1058" d="M53 872q47 129 164 206t279 77q184 0 307 -93t123 -274v-788h-150q-16 135 -91 299t-142 240q-8 -82 -53.5 -115t-96.5 -33q-74 0 -119 48t-45 124q0 74 44 125t130 51q104 0 211 -153.5t168 -335.5v553q0 121 -82 205t-231 84q-109 0 -203 -56.5t-143 -163.5h-70z M295 565q0 -55 28.5 -85.5t69.5 -30.5t70 30.5t29 85.5q0 53 -29 83t-70 30t-69.5 -30t-28.5 -83z" />
<glyph unicode="&#xe09;" horiz-adv-x="1181" d="M55 547q0 78 48.5 122t129.5 44q195 0 195 -203v-383q37 41 89 70.5t134 66.5q86 39 136.5 67.5t84 74t33.5 110.5v287q0 78 -41 143.5t-118.5 105.5t-186.5 40q-121 0 -221 -54.5t-154 -165.5h-73q47 129 173 206t300 77q197 0 331 -93t134 -274v-296q-8 -82 -88 -146 q67 -14 105 -63.5t38 -118.5q0 -82 -50 -133t-141 -51q-88 0 -138 51t-50 133q0 31 6 55q-143 -63 -215 -107t-90 -112h-139v397q-29 -16 -82 -16q-59 0 -104.5 45t-45.5 121zM131 545q0 -53 27.5 -84t68.5 -31t68 31t27 84t-27 83.5t-68 30.5t-68.5 -30.5t-27.5 -83.5z M813 166q0 -57 28.5 -89t71.5 -32t72 32t29 89t-29 89t-72 32t-71.5 -32t-28.5 -89z" />
<glyph unicode="&#xe0a;" horiz-adv-x="1148" d="M27 848q0 82 39.5 151.5t113.5 112.5t172 43q145 0 226 -71.5t81 -196.5q0 -70 -30.5 -129.5t-87.5 -141.5q-51 -68 -77 -117.5t-26 -103.5v-325h287q84 0 115.5 46t31.5 128v409q0 66 -43 104t-92 46v67q45 10 93.5 50.5t81 105t32.5 145.5h131q0 -141 -65.5 -220 t-137.5 -113q59 -20 101.5 -70.5t42.5 -118.5v-401q0 -129 -58.5 -188.5t-181.5 -59.5h-600v70h119v307q0 78 35 139.5t106 147.5q59 68 90 117.5t31 107.5q0 92 -54 146.5t-161 54.5q-84 0 -144.5 -51.5t-74.5 -125.5q14 16 43 27.5t57 11.5q78 0 120 -48t42 -124 q0 -72 -47 -122t-123 -50q-90 0 -139 67.5t-49 172.5zM117 782q0 -55 27.5 -86.5t68.5 -31.5t69.5 31.5t28.5 86.5q0 53 -28.5 84t-69.5 31t-68.5 -29.5t-27.5 -85.5z" />
<glyph unicode="&#xe0b;" horiz-adv-x="1167" d="M45 836q0 96 56.5 189t154.5 130l121 -123l135 123q88 -31 131 -98.5t43 -161.5q0 -70 -30.5 -129t-92.5 -148q-53 -70 -79.5 -119.5t-26.5 -103.5v-325h286q84 0 116 46t32 128v409q0 66 -43 104t-92 46v67q45 10 93 50.5t81 105t33 145.5h131q0 -141 -65.5 -220 t-137.5 -113q59 -20 101 -70.5t42 -118.5v-401q0 -129 -58 -188.5t-181 -59.5h-600v70h118v307q0 78 36 138t108 144q63 74 95 126.5t32 111.5q0 135 -80 180l-127 -121l-121 119q-45 -25 -80 -81t-41 -105q16 27 47 39t64 12q76 0 116.5 -48t40.5 -124q0 -72 -47 -122 t-123 -50q-90 0 -139 67.5t-49 172.5zM135 770q0 -55 27.5 -87t68.5 -32t70 32t29 87q0 53 -29 84t-70 31t-68.5 -30t-27.5 -85z" />
<glyph unicode="&#xe0c;" horiz-adv-x="1658" d="M96 854v25q57 125 179 200.5t288 75.5q203 0 324 -94t121 -279v-387q125 -31 222 -104.5t152 -151.5v994h144v-1133h-131q-63 113 -161.5 207t-225.5 129v-168q0 -86 -49.5 -137t-137.5 -51q-109 0 -149.5 61t-40.5 149q0 96 63.5 159t169.5 63v399q0 121 -74.5 198.5 t-238.5 77.5q-109 0 -196 -49t-142 -147q59 -20 126 -61.5t107 -84.5v-14q-96 -57 -131.5 -115.5t-35.5 -164.5v-148q35 23 83 23q61 0 107.5 -44t46.5 -130q0 -80 -51 -126t-133 -46q-197 0 -197 213v260q0 92 41 163.5t139 122.5q-90 72 -219 115zM240 156q0 -55 28.5 -88 t69.5 -33q43 0 71.5 32.5t28.5 88.5q0 55 -28.5 85.5t-71.5 30.5t-70.5 -30.5t-27.5 -85.5zM696 193q0 -63 22.5 -105.5t67.5 -42.5q37 0 57.5 33t20.5 82v192q-80 -4 -124 -46t-44 -113z" />
<glyph unicode="&#xe0d;" horiz-adv-x="1654" d="M96 854v25q59 129 173 202.5t282 73.5q197 0 313.5 -94t116.5 -279v-712h260q82 0 109.5 41t27.5 114v908h144v-904q0 -88 -27 -138t-87 -70.5t-167 -20.5h-506v70h103v741q0 121 -71 198.5t-228 77.5q-215 0 -328 -196q59 -20 127 -61.5t108 -84.5v-14 q-96 -57 -131.5 -115.5t-35.5 -164.5v-148q35 23 83 23q61 0 107.5 -44t46.5 -130q0 -80 -51 -126t-133 -46q-197 0 -197 213v260q0 92 41 163.5t139 122.5q-90 72 -219 115zM240 156q0 -56 28.5 -88.5t69.5 -32.5q43 0 71.5 32.5t28.5 88.5q0 55 -28.5 85.5t-71.5 30.5 t-70.5 -30.5t-27.5 -85.5zM768 -270q0 75 48 124.5t120 49.5q82 0 129 -47t47 -123q0 -59 -39 -108.5t-112 -55.5q39 -23 135 -23q123 0 208 92.5t109 249.5h111q-37 -211 -140.5 -310t-271.5 -99q-172 0 -258 69.5t-86 180.5zM838 -268q0 -54 28.5 -85.5t73.5 -31.5 q47 0 74.5 30.5t27.5 86.5q0 55 -27.5 84.5t-74.5 29.5q-45 0 -73.5 -30.5t-28.5 -83.5z" />
<glyph unicode="&#xe0e;" horiz-adv-x="1226" d="M20 152q0 86 49.5 130t120.5 44q45 0 76 -17v131q0 104 30 177t124 122q-74 61 -234 115v25q59 123 180 199.5t287 76.5q193 0 317 -95t124 -278v-1282h-133q-43 127 -191 211q-45 -115 -139 -180.5t-207 -65.5q-119 0 -190.5 48.5t-71.5 138.5q0 92 78.5 147.5 t216.5 55.5q123 0 260 -54q8 41 8 95h78q0 -74 -15 -125q109 -57 162 -129v1169q0 119 -78.5 197.5t-230.5 78.5q-109 0 -196 -49t-142 -147q63 -20 136 -62.5t112 -83.5v-14q-86 -53 -113.5 -113.5t-27.5 -179.5v-245q0 -213 -205 -213q-84 0 -134.5 46t-50.5 126zM100 156 q0 -55 29 -88t72 -33q41 0 69.5 32.5t28.5 88.5q0 55 -27.5 85.5t-70.5 30.5t-72 -30.5t-29 -85.5zM248 -344q0 -66 49 -98.5t123 -32.5q86 0 165 57.5t115 161.5q-119 49 -237 49q-92 0 -153.5 -34.5t-61.5 -102.5z" />
<glyph unicode="&#xe0f;" horiz-adv-x="1226" d="M20 152q0 86 49.5 130t120.5 44q45 0 76 -17v131q0 104 30 177t124 122q-74 61 -234 115v25q59 123 180 199.5t287 76.5q193 0 317 -95t124 -278v-1282h-129l-134 140l-120 -140h-39q-33 68 -72 121q-41 -66 -105.5 -103.5t-148.5 -37.5q-94 0 -153.5 38t-59.5 122 q0 74 62.5 117.5t175.5 43.5q104 0 194 -65q10 41 15 102h79q0 -86 -30 -160q49 -53 69 -102l133 145l119 -122v1212q0 119 -78.5 197.5t-230.5 78.5q-109 0 -196 -49t-142 -147q63 -20 136 -62.5t112 -83.5v-14q-86 -53 -113.5 -113.5t-27.5 -179.5v-245q0 -213 -205 -213 q-84 0 -134.5 46t-50.5 126zM100 156q0 -55 29 -88t72 -33q41 0 69.5 32.5t28.5 88.5q0 55 -27.5 85.5t-70.5 30.5t-72 -30.5t-29 -85.5zM213 -362q0 -49 39 -75t96 -26q64 0 115 36t82 103q-82 68 -180 68q-63 0 -107.5 -28.5t-44.5 -77.5z" />
<glyph unicode="&#xe10;" horiz-adv-x="1083" d="M25 -328q0 74 61 118t166 44q100 0 186 -61q8 57 8 96h74q0 -84 -20 -148q57 -57 82 -116l129 112l147 -118v135q-20 -12 -47 -13q-51 0 -82 32t-31 77q0 51 35 79t90 28q62 0 101 -32t39 -93v-277h-121l-131 111l-119 -111h-35q-31 74 -78 133q-37 -74 -100.5 -113.5 t-149.5 -39.5q-90 0 -147 37.5t-57 119.5zM80 707v67q0 170 101.5 275.5t301.5 105.5q61 0 185 -25q115 -20 151 -20q37 0 61.5 9t57.5 36l43 -65q-68 -59 -143 -60q-57 0 -148 23q-66 14 -108.5 20t-96.5 6q-117 0 -191.5 -74.5t-78.5 -220.5q123 6 309 7q166 0 254 -19.5 t130 -78t42 -177.5v-340q0 -90 -34.5 -133t-116.5 -43h-301q-2 133 -13.5 233.5t-46.5 163.5q-10 -72 -57 -103.5t-102 -31.5q-70 0 -115 47t-45 121q0 72 44 122t130 50q158 0 226.5 -141.5t76.5 -390.5h133q45 0 61.5 23.5t16.5 66.5v356q0 80 -16.5 122t-64.5 62.5 t-142 20.5q-96 0 -278.5 -4t-225.5 -10zM104 -332q0 -47 38 -71.5t91 -24.5q68 0 117 37t74 110q-82 63 -176 64q-61 0 -102.5 -31t-41.5 -84zM184 430q0 -55 28 -86t71 -31t70.5 31t27.5 86t-27.5 85t-70.5 30t-71 -30t-28 -85zM752 -168q0 -29 16 -48.5t45 -19.5t45 19.5 t16 48.5t-16 47.5t-45 18.5t-45 -18.5t-16 -47.5z" />
<glyph unicode="&#xe11;" horiz-adv-x="1292" d="M45 836q0 96 56.5 189t154.5 130l115 -123l131 123q88 -31 130 -98.5t42 -161.5q0 -72 -30 -131t-87 -146q-51 -72 -75.5 -122t-24.5 -101v-223l409 961h121q90 0 131 -49.5t41 -149.5v-934h-143v948q0 55 -12.5 83t-57.5 28h-39l-452 -1059h-142v377q0 78 35 140.5 t103 144.5q61 74 90.5 125t29.5 110q0 135 -77 180l-123 -121l-115 119q-45 -25 -80 -81t-41 -105q16 27 46 39t63 12q76 0 116.5 -48t40.5 -124q0 -72 -46 -121t-122 -49q-90 0 -139 66.5t-49 171.5zM135 770q0 -55 27.5 -87t68.5 -32t70 32t29 87q0 53 -29 84t-70 31 t-68.5 -30t-27.5 -85z" />
<glyph unicode="&#xe12;" horiz-adv-x="1720" d="M133 0v717q0 131 23.5 214t82 137t169.5 87l194 -156l193 156q111 -33 170 -87t82.5 -137t23.5 -214v-322q127 -31 221 -103.5t152 -152.5v994h143v-1133h-131q-59 113 -159.5 207t-225.5 129v-168q0 -84 -50 -136t-138 -52q-109 0 -150 61t-41 149q0 96 63.5 159 t172.5 63v327q0 139 -32 211t-126 113l-168 -141l-172 141q-94 -41 -124 -111.5t-30 -212.5v-641q78 37 188.5 137.5t145.5 176.5q-18 -8 -45 -9q-68 0 -110.5 51.5t-42.5 123.5q0 76 42 124t117 48q80 0 122 -52.5t42 -136.5q0 -143 -133 -290.5t-342 -270.5h-127zM473 578 q0 -55 28.5 -86t69.5 -31t69 30.5t28 86.5q0 53 -28 82.5t-69 29.5t-69.5 -29.5t-28.5 -82.5zM758 193q0 -63 22.5 -105.5t67.5 -42.5q37 0 58.5 33t21.5 82v192q-80 -4 -125 -45t-45 -114z" />
<glyph unicode="&#xe13;" horiz-adv-x="1673" d="M96 854v25q55 127 165 201.5t276 74.5q195 0 305 -91t110 -276v-657q35 39 83 68.5t122 66.5q82 41 128 72t79 77t33 109v609h143v-590q0 -119 -84 -197q66 -14 102.5 -63.5t36.5 -118.5q0 -82 -50 -133t-138 -51t-138 51t-50 133q0 16 4 41q-86 -45 -154 -92t-121 -113 h-139v811q0 276 -285 276q-102 0 -183 -51t-128 -145q59 -20 126 -61.5t107 -84.5v-14q-96 -57 -131.5 -115.5t-35.5 -164.5v-148q35 23 83 23q61 0 107.5 -44t46.5 -130q0 -80 -51 -126t-133 -46q-197 0 -197 213v260q0 92 41 163.5t139 122.5q-90 72 -219 115zM240 156 q0 -55 28.5 -88t69.5 -33q43 0 71.5 32.5t28.5 88.5q0 55 -28.5 85.5t-71.5 30.5t-70.5 -30.5t-27.5 -85.5zM1305 166q0 -57 29.5 -89t72.5 -32t71.5 32t28.5 89t-28.5 89t-71.5 32t-72.5 -32t-29.5 -89z" />
<glyph unicode="&#xe14;" horiz-adv-x="1208" d="M133 0v717q0 205 112.5 321.5t358.5 116.5t358.5 -116.5t112.5 -321.5v-717h-143v719q0 369 -328 368q-176 0 -252 -96t-76 -268v-627q49 23 128 89.5t146.5 142t88.5 125.5q-18 -8 -39 -9q-72 0 -113 50.5t-41 123.5q0 76 42 124.5t118 48.5q80 0 122 -52.5t42 -136.5 q0 -143 -150.5 -311t-359.5 -291h-127zM508 618q0 -55 28.5 -85.5t69.5 -30.5t68.5 30.5t27.5 85.5q0 53 -27.5 83t-68.5 30q-43 0 -70.5 -28.5t-27.5 -84.5z" />
<glyph unicode="&#xe15;" horiz-adv-x="1214" d="M133 0v766q0 164 58.5 256t220.5 133l194 -147l197 147q162 -41 220 -133t58 -256v-766h-143v739q0 143 -26.5 212t-116.5 108l-187 -141l-188 141q-90 -39 -117 -107.5t-27 -212.5v-643q82 37 208 141.5t161 174.5q-16 -8 -39 -9q-70 0 -111.5 50.5t-41.5 124.5 q0 76 42 124t117 48q80 0 122 -52.5t42 -136.5q0 -139 -146.5 -284.5t-369.5 -276.5h-127zM516 578q0 -55 27.5 -86t68.5 -31t69 30.5t28 86.5q0 53 -28 82.5t-69 29.5t-68.5 -29.5t-27.5 -82.5z" />
<glyph unicode="&#xe16;" horiz-adv-x="1146" d="M96 854v25q59 121 183 198.5t288 77.5q195 0 321 -95t126 -278v-782h-144v811q0 117 -80.5 196.5t-234.5 79.5q-109 0 -198 -50t-144 -146q59 -20 126 -61.5t107 -84.5v-14q-94 -55 -130.5 -117.5t-36.5 -175.5v-133q35 20 79 21q61 0 109.5 -44t48.5 -130 q0 -80 -51 -126t-133 -46q-197 0 -197 213v247q0 203 180 299q-90 72 -219 115zM240 156q0 -55 28.5 -88t69.5 -33q43 0 71.5 32.5t28.5 88.5q0 55 -28.5 85.5t-71.5 30.5t-70.5 -30.5t-27.5 -85.5z" />
<glyph unicode="&#xe17;" horiz-adv-x="1220" d="M20 981q0 80 50.5 127t132.5 47q205 0 205 -213v-733l372 924h125q92 0 137 -52.5t45 -165.5v-915h-143v936q0 61 -15.5 91t-58.5 30h-39l-430 -1057h-137v825q-29 -20 -80 -20q-68 0 -116 45t-48 131zM98 979q0 -55 29 -87t72 -32t70.5 32t27.5 87t-27.5 87t-70.5 32 t-72 -32t-29 -87z" />
<glyph unicode="&#xe18;" horiz-adv-x="1083" d="M51 0v70h113v471h143v-471h352q84 0 116 46t32 128v272q0 80 -16.5 122t-64.5 62.5t-142 20.5t-269.5 -4t-218.5 -10v67q0 172 98.5 276.5t297.5 104.5q53 0 176 -25q115 -20 153 -20q35 0 59.5 8t57.5 37l43 -65q-68 -59 -143 -60q-45 0 -140 21q-115 29 -204 28 q-117 0 -189 -74.5t-76 -220.5q76 6 344 7q139 0 219 -24t119 -83t39 -168v-268q0 -129 -58 -188.5t-181 -59.5h-660z" />
<glyph unicode="&#xe19;" horiz-adv-x="1210" d="M20 981q0 80 50.5 127t132.5 47q205 0 205 -213v-811q35 41 88 67.5t155 69.5q94 37 150.5 65.5t94.5 73t38 105.5v621h143v-621q0 -94 -100 -170q82 -16 119 -63.5t37 -114.5q0 -82 -50.5 -133t-138.5 -51t-139 51t-51 133q0 43 18 74l-80 -35q-133 -57 -202.5 -100.5 t-86.5 -102.5h-139v825q-29 -20 -80 -20q-68 0 -116 45t-48 131zM98 979q0 -55 29 -87t72 -32t70.5 32t27.5 87t-27.5 87t-70.5 32t-72 -32t-29 -87zM842 166q0 -57 29.5 -89t72.5 -32t70.5 32t27.5 89t-27.5 89t-70.5 32q-45 0 -73.5 -34t-28.5 -87z" />
<glyph unicode="&#xe1a;" horiz-adv-x="1218" d="M20 981q0 80 50.5 127t132.5 47q205 0 205 -213v-872h385q86 0 117.5 46t31.5 128v889h143v-885q0 -129 -58 -188.5t-181 -59.5h-694v70h112v755q-29 -20 -80 -20q-68 0 -116 45t-48 131zM98 979q0 -55 29 -87t72 -32t70.5 32t27.5 87t-27.5 87t-70.5 32t-72 -32t-29 -87 z" />
<glyph unicode="&#xe1b;" horiz-adv-x="1218" d="M20 981q0 80 50.5 127t132.5 47q205 0 205 -213v-872h385q86 0 117.5 46t31.5 128v1331h143v-1327q0 -129 -58 -188.5t-181 -59.5h-694v70h112v755q-29 -20 -80 -20q-68 0 -116 45t-48 131zM98 979q0 -55 29 -87t72 -32t70.5 32t27.5 87t-27.5 87t-70.5 32t-72 -32 t-29 -87z" />
<glyph unicode="&#xe1c;" horiz-adv-x="1216" d="M133 0v942q0 213 203 213q84 0 134 -47t50 -127t-49 -127t-113 -47q-45 0 -82 18v-635l293 457h78l293 -457v943h143v-1133h-143v39l-334 514l-330 -516v-37h-143zM242 979q0 -55 27.5 -87t70.5 -32t71.5 32t28.5 87t-28.5 87t-71.5 32t-70.5 -32t-27.5 -87z" />
<glyph unicode="&#xe1d;" horiz-adv-x="1216" d="M133 0v942q0 213 203 213q84 0 134 -47t50 -127t-49 -127t-113 -47q-45 0 -82 18v-635l293 457h78l293 -457v1385h143v-1575h-143v39l-334 514l-330 -516v-37h-143zM242 979q0 -55 27.5 -87t70.5 -32t71.5 32t28.5 87t-28.5 87t-71.5 32t-70.5 -32t-27.5 -87z" />
<glyph unicode="&#xe1e;" horiz-adv-x="1337" d="M20 981q0 80 50.5 127t132.5 47q205 0 205 -213v-694l288 794h78l287 -794v885h143v-1133h-141v27l-330 884l-325 -884v-27h-144v821q-27 -16 -80 -16q-68 0 -116 45t-48 131zM98 979q0 -55 29 -87t72 -32t70.5 32t27.5 87t-27.5 87t-70.5 32t-72 -32t-29 -87z" />
<glyph unicode="&#xe1f;" horiz-adv-x="1337" d="M20 981q0 80 50.5 127t132.5 47q205 0 205 -213v-694l288 794h78l287 -794v1327h143v-1575h-141v27l-330 884l-325 -884v-27h-144v821q-27 -16 -80 -16q-68 0 -116 45t-48 131zM98 979q0 -55 29 -87t72 -32t70.5 32t27.5 87t-27.5 87t-70.5 32t-72 -32t-29 -87z" />
<glyph unicode="&#xe20;" horiz-adv-x="1226" d="M20 152q0 86 49.5 130t120.5 44q49 0 76 -17v131q0 104 30 177t124 122q-74 61 -234 115v25q59 123 180 199.5t287 76.5q193 0 317 -95t124 -278v-782h-144v811q0 119 -78.5 197.5t-230.5 78.5q-109 0 -196 -49t-142 -147q63 -20 136 -62.5t112 -83.5v-14 q-86 -53 -113.5 -113.5t-27.5 -179.5v-245q0 -213 -205 -213q-84 0 -134.5 46t-50.5 126zM100 156q0 -55 29 -88t72 -33q41 0 69.5 32.5t28.5 88.5q0 55 -27.5 85.5t-70.5 30.5t-72 -30.5t-29 -85.5z" />
<glyph unicode="&#xe21;" horiz-adv-x="1187" d="M55 190q0 96 61.5 160t184.5 66v407q-27 -18 -80 -18q-68 0 -116 45t-48 131q0 80 50.5 127t132.5 47q205 0 204 -213v-541q145 -33 276.5 -113.5t190.5 -156.5v1002h144v-1133h-131q-55 94 -192.5 196.5t-287.5 141.5v-119q0 -240 -200 -239q-98 0 -143.5 61t-45.5 149z M125 188q0 -61 23.5 -102t66.5 -41t64.5 35t21.5 94v182q-88 -2 -132 -48t-44 -120zM135 979q0 -55 29 -87t72 -32t70.5 32t27.5 87t-27.5 87t-70.5 32t-72 -32t-29 -87z" />
<glyph unicode="&#xe22;" horiz-adv-x="1083" d="M86 891q0 135 61.5 199.5t169.5 64.5q84 0 136.5 -46t52.5 -124q0 -80 -46 -129t-118 -49q-35 0 -67.5 13.5t-51.5 43.5q2 -82 40 -135t92.5 -76.5t103.5 -23.5h96v-76h-111q-102 -12 -149 -69.5t-47 -135.5v-278h411q84 0 116 46t32 128v889h143v-885q0 -129 -58 -188.5 t-181 -59.5h-607v362q0 70 45.5 133.5t159.5 90.5q-90 25 -156.5 101.5t-66.5 203.5zM221 981q0 -55 29 -86t72 -31t71.5 31t28.5 86t-28.5 87t-71.5 32t-72 -32t-29 -87z" />
<glyph unicode="&#xe23;" horiz-adv-x="1009" d="M74 733v68q0 170 97 262t298 92q39 0 82 -7t80 -15q90 -20 133 -21q35 0 59.5 9t57.5 34l43 -68q-29 -29 -66 -43t-72 -14q-59 0 -137 23q-37 10 -80 18t-88 8q-125 0 -202.5 -62.5t-81.5 -207.5q66 8 219 8q150 0 235.5 -22.5t128.5 -83t43 -176.5v-342 q0 -213 -205 -213q-83 0 -132.5 46t-49.5 126q0 86 50.5 130t119.5 44q23 0 44.5 -5.5t29.5 -13.5v254q0 104 -59.5 145.5t-208.5 41.5q-76 0 -187.5 -4.5t-150.5 -10.5zM514 156q0 -55 28.5 -88t71.5 -33q41 0 70 32.5t29 88.5q0 55 -28 85.5t-71 30.5t-71.5 -30.5 t-28.5 -85.5z" />
<glyph unicode="&#xe24;" horiz-adv-x="1146" d="M96 854v25q59 121 183 198.5t288 77.5q195 0 321 -95t126 -278v-1130h-144v1159q0 117 -80.5 196.5t-234.5 79.5q-109 0 -198 -50t-144 -146q59 -20 126 -61.5t107 -84.5v-14q-94 -55 -130.5 -117.5t-36.5 -175.5v-139q31 25 86 25q66 0 111.5 -45.5t45.5 -126.5 q0 -80 -50 -126t-134 -46q-203 0 -203 213v247q0 203 180 299q-90 72 -219 115zM244 156q0 -55 28.5 -88t69.5 -33q43 0 71.5 32.5t28.5 88.5q0 55 -28.5 85.5t-71.5 30.5t-70.5 -30.5t-27.5 -85.5z" />
<glyph unicode="&#xe25;" horiz-adv-x="1122" d="M74 872q47 131 166.5 207t291.5 76q197 0 327 -92t130 -275v-788h-129q-41 293 -140 510t-271 217q-82 0 -134.5 -49t-52.5 -150v-229q31 25 86 25q66 0 112 -45.5t46 -126.5q0 -80 -50 -126t-134 -46q-203 0 -203 213v315q0 141 76.5 220t222.5 79q170 0 276.5 -136 t151.5 -333v465q0 123 -85 206t-255 83q-119 0 -212 -53.5t-147 -166.5h-73zM227 156q0 -55 29 -88t70 -33q43 0 71.5 32.5t28.5 88.5q0 55 -28.5 85.5t-71.5 30.5t-71 -30.5t-28 -85.5z" />
<glyph unicode="&#xe26;" horiz-adv-x="1226" d="M20 152q0 86 49.5 130t120.5 44q47 0 76 -19v133q0 104 30 177t124 122q-74 61 -234 115v25q59 123 180 199.5t287 76.5q193 0 317 -95t124 -278v-1130h-144v1159q0 119 -78.5 197.5t-230.5 78.5q-109 0 -196 -49t-142 -147q63 -20 136 -62.5t112 -83.5v-14 q-86 -53 -113.5 -113.5t-27.5 -179.5v-245q0 -213 -205 -213q-84 0 -134.5 46t-50.5 126zM100 156q0 -55 29 -88t72 -33q41 0 69.5 32.5t28.5 88.5q0 55 -27.5 85.5t-70.5 30.5t-72 -30.5t-29 -85.5z" />
<glyph unicode="&#xe27;" horiz-adv-x="989" d="M18 838q31 150 144.5 233.5t277.5 83.5q186 0 301 -92t115 -275v-595q0 -213 -203 -213q-84 0 -134 46t-50 126q0 86 50 130t122 44q47 0 72 -17v496q0 127 -75 207t-224 80q-106 0 -197.5 -67t-126.5 -187h-72zM549 156q0 -55 28.5 -88t71.5 -33q41 0 70 32.5t29 88.5 q0 55 -28 85.5t-71 30.5t-71.5 -30.5t-28.5 -85.5z" />
<glyph unicode="&#xe28;" horiz-adv-x="1218" d="M133 0v717q0 205 114.5 321.5t360.5 116.5q190 0 310 -74q84 53 104 142h119q-27 -125 -160 -197q104 -106 104 -309v-717h-143v754q0 150 -83 241.5t-251 91.5t-250 -91t-82 -242v-537q63 199 148 395q39 88 85 131t114 43q80 0 119.5 -48t39.5 -126q0 -72 -43 -122 t-114 -50q-49 0 -89 29t-53 92q-37 -68 -104.5 -255t-104.5 -306h-141zM530 614q0 -55 28 -85.5t69 -30.5t69.5 30.5t28.5 85.5q0 53 -28.5 83t-69.5 30t-69 -29.5t-28 -83.5z" />
<glyph unicode="&#xe29;" horiz-adv-x="1265" d="M20 981q0 80 50.5 127t132.5 47q205 0 205 -213v-872h385q86 0 117.5 46t31.5 128v188q-55 -10 -102 -10q-164 0 -251 66.5t-87 181.5q0 74 48 121t124 47q72 0 120 -43t48 -121q0 -68 -43 -111t-113 -45q53 -35 154 -35q53 0 102 19v631h143v-527q68 88 86 215h109 q-35 -234 -195 -334v-239q0 -129 -58 -188.5t-181 -59.5h-694v70h112v755q-29 -20 -80 -20q-68 0 -116 45t-48 131zM98 979q0 -55 29 -87t72 -32t70.5 32t27.5 87t-27.5 87t-70.5 32t-72 -32t-29 -87zM580 672q0 -49 25.5 -77t68.5 -28q45 0 70.5 28t25.5 77t-25.5 76.5 t-70.5 27.5q-43 0 -68.5 -27.5t-25.5 -76.5z" />
<glyph unicode="&#xe2a;" horiz-adv-x="1122" d="M74 872q47 131 166.5 207t291.5 76t291 -70q86 57 105 138h116q-10 -57 -49 -106.5t-100 -84.5q94 -94 94 -244v-788h-129q-41 293 -140 510t-271 217q-82 0 -134.5 -49t-52.5 -150v-229q31 25 86 25q66 0 112 -45.5t46 -126.5q0 -80 -50 -126t-134 -46q-203 0 -203 213 v315q0 141 76.5 220t222.5 79q170 0 276.5 -136t151.5 -333v465q0 123 -85 206t-255 83q-119 0 -212 -53.5t-147 -166.5h-73zM227 156q0 -55 29 -88t70 -33q43 0 71.5 32.5t28.5 88.5q0 55 -28.5 85.5t-71.5 30.5t-71 -30.5t-28 -85.5z" />
<glyph unicode="&#xe2b;" horiz-adv-x="1230" d="M20 981q0 80 50.5 127t132.5 47q205 0 205 -213v-766l327 563q39 68 99 95q-33 23 -51.5 60.5t-18.5 84.5q0 76 48 126t134 50t134 -50t48 -126q0 -55 -25.5 -98t-72.5 -64q68 -51 68 -153v-664h-144v631q0 129 -65 129q-27 0 -49.5 -21.5t-42.5 -58.5l-396 -680h-137 v825q-29 -20 -80 -20q-68 0 -116 45t-48 131zM98 979q0 -55 29 -87t72 -32t70.5 32t27.5 87t-27.5 87t-70.5 32t-72 -32t-29 -87zM846 977q0 -55 28.5 -86t71.5 -31t70.5 31t27.5 86t-28.5 88t-69.5 33q-43 0 -71.5 -33t-28.5 -88z" />
<glyph unicode="&#xe2c;" horiz-adv-x="1337" d="M20 981q0 80 50.5 127t132.5 47q205 0 205 -213v-702l288 610h78l287 -610v1024v8q-127 -82 -311 -82q-158 0 -238 53t-80 141q0 94 95.5 148.5t252.5 54.5q217 0 326 -94q14 61 16 127h121q-2 -133 -63 -229q25 -61 24 -142v-1249h-141v27l-330 698l-325 -698v-27h-144 v825q-29 -20 -80 -20q-68 0 -116 45t-48 131zM98 979q0 -55 29 -87t72 -32t70.5 32t27.5 87t-27.5 87t-70.5 32t-72 -32t-29 -87zM535 1386q0 -57 52 -94t156 -37q207 0 301 115q-55 152 -276 152q-100 0 -166.5 -34t-66.5 -102z" />
<glyph unicode="&#xe2d;" horiz-adv-x="1095" d="M47 872q45 131 167 207t296 76q195 0 324 -92t129 -275v-561q0 -227 -258 -227h-574v545q0 213 203 213q84 0 134 -47t50 -127q0 -86 -48 -131t-118 -45q-41 0 -78 18v-356h388q72 0 114.5 40t42.5 113v580q0 121 -87 205t-249 84q-119 0 -215 -54.5t-149 -165.5h-72z M240 582q0 -55 27.5 -87t70.5 -32t71.5 31.5t28.5 87.5q0 55 -28.5 86.5t-71.5 31.5t-70.5 -31.5t-27.5 -86.5z" />
<glyph unicode="&#xe2e;" horiz-adv-x="1097" d="M100 940q0 100 111 155.5t283 55.5q223 0 348 -86q27 68 30 158h123q-1 -140 -75 -240q45 -72 45 -166v-590q0 -227 -258 -227h-580v432q0 213 203 213q84 0 134 -47t50 -127q0 -86 -48 -131t-118 -45q-41 0 -78 18v-243h394q72 0 114.5 40t42.5 113v608q0 16 -4 46 q-80 -61 -181 -93t-204 -32q-332 0 -332 188zM203 942q0 -59 56 -92t165 -33q108 0 201.5 38t154.5 110q-43 61 -125 93t-182 32q-104 0 -187 -39t-83 -109zM236 469q0 -55 27.5 -87t70.5 -32t71.5 32t28.5 87t-28.5 87t-71.5 32t-70.5 -32t-27.5 -87z" />
<glyph unicode="&#xe2f;" horiz-adv-x="888" d="M55 918q0 106 50.5 171.5t138.5 65.5q80 0 126 -49t46 -119q0 -78 -42 -126t-118 -48q-27 0 -58.5 11.5t-43.5 35.5q6 -68 60 -123t140 -55q76 0 135.5 44t91 118t31.5 157v132h144v-1133h-142v782q-31 -82 -102.5 -129t-155.5 -47q-141 0 -221 89t-80 223zM150 985 q0 -55 27.5 -86t68.5 -31t68.5 31t27.5 86t-27.5 86t-68.5 31t-68.5 -31t-27.5 -86z" />
<glyph unicode="&#xe30;" horiz-adv-x="813" d="M59 291q0 74 46.5 118t119.5 44q80 0 122 -42t42 -112q0 -68 -45 -110t-115 -42q59 -25 123 -24q125 0 203 93t82 235h102q-6 -193 -113.5 -293.5t-275.5 -100.5q-131 0 -211 60.5t-80 173.5zM59 856q0 74 46.5 118t119.5 44q80 0 122 -42t42 -112q0 -68 -45 -109.5 t-115 -41.5q57 -25 123 -25q125 0 203 93t82 235h102q-6 -193 -113.5 -293t-275.5 -100q-131 0 -211 60t-80 173zM135 293q0 -47 25.5 -72.5t66.5 -25.5t66.5 25.5t25.5 72.5t-25.5 72.5t-66.5 25.5t-66.5 -25.5t-25.5 -72.5zM135 858q0 -47 25.5 -72.5t66.5 -25.5 t66.5 25.5t25.5 72.5t-25.5 72.5t-66.5 25.5t-66.5 -25.5t-25.5 -72.5z" />
<glyph unicode="&#xe31;" d="M-647 1554q0 74 48 122t124 48q72 0 120 -42t48 -113q0 -59 -32 -106.5t-101 -59.5q66 -33 145 -33q86 0 162 40t127 117t59 181h107q-23 -199 -151 -300t-304 -101q-166 0 -259 67.5t-93 179.5zM-569 1556q0 -47 25.5 -75.5t68.5 -28.5q45 0 70.5 28.5t25.5 75.5 q0 49 -25.5 78t-70.5 29q-43 0 -68.5 -28.5t-25.5 -78.5z" />
<glyph unicode="&#xe32;" horiz-adv-x="845" d="M20 858q16 133 111.5 215t237.5 82q166 0 255 -83t89 -255v-817h-142v823q0 268 -227 269q-90 0 -161.5 -65.5t-90.5 -168.5h-72z" />
<glyph unicode="&#xe33;" horiz-adv-x="845" d="M-444 1485q0 80 48 129t144 49t144.5 -49t48.5 -129q0 -78 -49.5 -128t-143.5 -50t-143 50t-49 128zM-356 1485q0 -55 27.5 -88t76.5 -33t77 33t28 88t-28 89t-77 34t-76.5 -34t-27.5 -89zM20 858q16 133 111.5 215t237.5 82q166 0 255 -83t89 -255v-817h-142v823 q0 268 -227 269q-90 0 -161.5 -65.5t-90.5 -168.5h-72z" />
<glyph unicode="&#xe34;" d="M-1014 1350q15 125 117 213t281 88q180 0 309 -76t174 -225h-881zM-903 1417h624q-45 80 -135 124t-207 44q-111 0 -185.5 -46t-96.5 -122z" />
<glyph unicode="&#xe35;" d="M-1014 1350q15 125 117 213t281 88q113 0 207 -38t151 -112v228h125v-379h-881zM-903 1417h624q-45 80 -135 124t-207 44q-111 0 -185.5 -46t-96.5 -122z" />
<glyph unicode="&#xe36;" d="M-1014 1350q14 125 116.5 213t281.5 88q147 0 258 -49v14q0 66 36.5 105.5t108.5 39.5q70 0 106.5 -41t36.5 -104q0 -60 -31.5 -99.5t-91.5 -46.5q37 -47 60 -120h-881zM-903 1417h624q-45 80 -135 124t-207 44q-111 0 -185.5 -46t-96.5 -122zM-291 1616q0 -47 27 -72 l4 -2q16 -14 47 -14q35 0 55.5 23.5t20.5 64.5q0 39 -20.5 61.5t-55.5 22.5q-37 0 -57.5 -22.5t-20.5 -61.5z" />
<glyph unicode="&#xe37;" d="M-1014 1350q14 125 116.5 213t281.5 88q47 0 92 -6v84h125v-121q88 -37 141 -107v228h125v-379h-881zM-903 1417h624q-45 80 -135 124t-207 44q-111 0 -185.5 -46t-96.5 -122z" />
<glyph unicode="&#xe38;" d="M-485 -289q0 70 47 112t123 42q94 0 138 -48t44 -132v-371h-119v254q-37 -23 -86 -23q-66 0 -106.5 45t-40.5 121zM-412 -295q0 -49 26 -76.5t62 -27.5q37 0 61.5 27.5t24.5 76.5q0 51 -24.5 79t-61.5 28t-62.5 -29t-25.5 -78z" />
<glyph unicode="&#xe39;" d="M-782 -289q0 70 45 112t116 42q174 0 175 -180v-303h118q45 0 62.5 25.5t17.5 76.5v377h115v-387q0 -74 -27.5 -118t-107.5 -44h-387v70h104v192q-33 -27 -90 -27t-99 44t-42 120zM-711 -295q0 -49 27 -76.5t63 -27.5q37 0 61.5 27.5t24.5 76.5q0 51 -24.5 79t-61.5 28 t-63.5 -29t-26.5 -78z" />
<glyph unicode="&#xe3a;" d="M-324 -231q0 45 29 74.5t76 29.5q49 0 77.5 -29.5t28.5 -74.5t-28.5 -75t-77.5 -30q-47 0 -76 30t-29 75z" />
<glyph unicode="&#xe3f;" horiz-adv-x="1214" d="M84 0v20q66 25 166 37v1319q-102 14 -166 35v23h477v170h70v-170h12q238 0 341 -82t103 -256q0 -117 -67.5 -212.5t-200.5 -119.5v-8q176 -27 252 -130.5t76 -236.5q0 -195 -104.5 -292t-335.5 -97h-76v-182h-70v182h-477zM395 63h299q162 0 238 82t76 248 q0 158 -89.5 244t-250.5 86h-273v-660zM395 786h228q158 0 239.5 82t81.5 224q0 143 -73.5 209.5t-239.5 66.5h-236v-582z" />
<glyph unicode="&#xe40;" horiz-adv-x="544" d="M131 193v940h143v-834q31 25 86 25q66 0 112 -45.5t46 -126.5q0 -80 -50 -126t-134 -46q-203 0 -203 213zM240 156q0 -55 28.5 -88t69.5 -33q43 0 71.5 32.5t28.5 88.5q0 55 -28.5 85.5t-71.5 30.5t-70.5 -30.5t-27.5 -85.5z" />
<glyph unicode="&#xe41;" horiz-adv-x="1044" d="M131 193v940h143v-834q31 25 86 25q66 0 112 -45.5t46 -126.5q0 -80 -50 -126t-134 -46q-203 0 -203 213zM240 156q0 -56 28.5 -88.5t69.5 -32.5q43 0 71.5 32.5t28.5 88.5q0 55 -28.5 85.5t-71.5 30.5t-70.5 -30.5t-27.5 -85.5zM631 193v940h143v-834q31 25 86 25 q66 0 112 -45.5t46 -126.5q0 -80 -50 -126t-134 -46q-203 0 -203 213zM739 156q0 -56 29 -88.5t70 -32.5q43 0 71.5 32.5t28.5 88.5q0 55 -28.5 85.5t-71.5 30.5t-71 -30.5t-28 -85.5z" />
<glyph unicode="&#xe42;" horiz-adv-x="702" d="M-80 1438v57q0 145 85 233.5t265 88.5q45 0 78 -9.5t82 -27.5q66 -27 102 -27q31 0 52.5 9.5t52.5 37.5l49 -53q-23 -33 -61.5 -52.5t-77.5 -19.5q-51 0 -125 31q-41 16 -70.5 24.5t-66.5 8.5q-104 0 -176 -54.5t-74 -181.5q27 4 76 4q150 0 229.5 -71.5t79.5 -235.5 v-901q31 25 86 25q66 0 112 -45.5t46 -126.5q0 -80 -50.5 -126t-134.5 -46q-203 0 -203 213v1024q0 125 -67.5 175t-196.5 50q-35 0 -92 -4zM385 156q0 -55 28.5 -88t69.5 -33q43 0 72 32.5t29 88.5q0 55 -29 85.5t-72 30.5t-70.5 -30.5t-27.5 -85.5z" />
<glyph unicode="&#xe43;" horiz-adv-x="628" d="M-59 1505q0 86 42 158t116.5 113t170.5 41q147 0 235.5 -71t88.5 -198q0 -66 -32 -124t-91 -134q-57 -74 -85 -126t-28 -107v-758q31 25 86 25q66 0 112 -45.5t46 -126.5q0 -80 -50 -126t-134 -46q-203 0 -203 213v847q0 74 35 135.5t102 143.5q61 76 91 126t30 105 q0 90 -56.5 144.5t-160.5 54.5q-94 0 -158.5 -60.5t-74.5 -146.5q14 33 43.5 48.5t60.5 15.5q80 0 125 -48.5t45 -123.5q0 -72 -48 -121t-120 -49q-84 0 -136 65.5t-52 175.5zM35 1434q0 -51 26.5 -80t65.5 -29q41 0 68.5 28.5t27.5 80.5q0 51 -27.5 79.5t-68.5 28.5 q-39 0 -65.5 -28.5t-26.5 -79.5zM324 156q0 -55 28.5 -88t69.5 -33q43 0 71.5 32.5t28.5 88.5q0 55 -28.5 85.5t-71.5 30.5t-70.5 -30.5t-27.5 -85.5z" />
<glyph unicode="&#xe44;" horiz-adv-x="681" d="M-106 1765l69 52q57 -59 109.5 -144.5t62.5 -146.5l176 291q76 -12 153 -66.5t103 -103.5q-80 -66 -117.5 -153t-37.5 -169v-1026q31 25 86 25q66 0 111.5 -45.5t45.5 -126.5q0 -80 -50 -126t-134 -46q-203 0 -203 213v1079q0 233 160 377q-10 18 -38 38.5t-58 36.5 l-176 -278l-86 12q-16 82 -69.5 171t-106.5 136zM377 156q0 -55 28.5 -88t69.5 -33q43 0 71.5 32.5t28.5 88.5q0 55 -28.5 85.5t-71.5 30.5t-70.5 -30.5t-27.5 -85.5z" />
<glyph unicode="&#xe45;" horiz-adv-x="845" d="M20 858q16 133 111.5 215t237.5 82q166 0 255 -83t89 -255v-1165h-142v1171q0 268 -227 269q-90 0 -161.5 -65.5t-90.5 -168.5h-72z" />
<glyph unicode="&#xe46;" horiz-adv-x="1132" d="M131 780q0 66 26.5 140.5t87 140t158.5 94.5l150 -135l166 135q129 -35 174 -124t45 -247v-1112h-141v1217q0 66 -15.5 109.5t-58.5 70.5l-172 -141l-160 141q-80 -49 -119 -138t-39 -163q16 41 56.5 62.5t79.5 21.5q78 0 124 -46t46 -126q0 -74 -50.5 -123t-128.5 -49 q-127 0 -178 78t-51 194zM264 678q0 -55 29 -88t69 -33q44 0 72.5 33t28.5 88t-28.5 87t-72.5 32q-43 0 -70.5 -32t-27.5 -87z" />
<glyph unicode="&#xe47;" d="M-901 1538q0 92 61.5 151.5t182.5 59.5h262q70 0 92 31.5t27 105.5h98q-4 -104 -43 -154.5t-152 -50.5h-270q-74 0 -115 -37.5t-41 -99.5q0 -35 11.5 -69.5t37.5 -57.5q31 37 78 65.5t82 35.5q29 -29 70 -56.5t82 -46.5q-14 16 -15 51q0 53 35 91t94 38q66 0 100 -37.5 t34 -93.5q0 -59 -36 -100t-104 -41q-125 0 -270 119q-86 -33 -154 -121q-73 29 -110 90.5t-37 126.5zM-399 1464q0 -39 20.5 -61.5t54.5 -22.5q35 0 56.5 22.5t21.5 61.5t-21.5 59.5t-56.5 20.5t-55 -21.5t-20 -58.5z" />
<glyph unicode="&#xe48;" d="M-262 1350v379h129v-379h-129z" />
<glyph unicode="&#xe49;" d="M-627 1655q0 70 44 116t122 46q74 0 120 -46.5t46 -117.5q0 -100 -61.5 -163t-118.5 -83l86 4q170 6 281.5 86t132.5 268h100q-16 -221 -161.5 -318t-371.5 -97h-196v55q35 8 82 36.5t69 57.5q-94 0 -134 46t-40 110zM-557 1657q0 -45 25.5 -75t64.5 -30q41 0 66.5 29 t25.5 76t-25.5 76.5t-66.5 29.5q-39 0 -64.5 -30.5t-25.5 -75.5z" />
<glyph unicode="&#xe4a;" d="M-797 1526q0 84 43 161.5t156 116.5l131 -104l135 104q82 -20 120 -76.5t38 -132.5q0 -61 -23.5 -111t-64.5 -73q16 0 38.5 3t33.5 3q88 14 132 109.5t48 249.5h94q-10 -195 -85 -310.5t-216 -115.5h-150v55q43 18 71 72.5t28 117.5q0 43 -15.5 80t-44.5 58l-139 -103 l-131 103q-53 -25 -78.5 -71t-30.5 -93q20 37 78 37q57 0 89 -37t32 -96q0 -53 -37 -91.5t-94 -38.5q-78 0 -118 49.5t-40 133.5zM-711 1475q0 -41 20.5 -65t53.5 -24t54.5 24t21.5 65t-21.5 63.5t-54.5 22.5t-53.5 -22.5t-20.5 -63.5z" />
<glyph unicode="&#xe4b;" d="M-563 1505v68h174v156h129v-156h174v-68h-174v-155h-129v155h-174z" />
<glyph unicode="&#xe4c;" d="M-489 1542q0 84 53 141.5t166 90.5l90 26q31 10 50 34t19 48h93q-4 -104 -84 -129l-164 -53q-57 -18 -87 -49t-32 -68q23 45 84 45q59 0 93 -39t34 -100q0 -59 -42 -100t-106 -41q-84 0 -125.5 51t-41.5 143zM-393 1493q0 -45 21.5 -69.5t54.5 -24.5q34 0 56.5 24.5 t22.5 69.5q0 41 -22.5 64.5t-56.5 23.5q-33 0 -54.5 -23.5t-21.5 -64.5z" />
<glyph unicode="&#xe4d;" d="M-444 1485q0 80 48 129t144 49t144.5 -49t48.5 -129q0 -78 -49.5 -128t-143.5 -50t-143 50t-49 128zM-356 1485q0 -55 27.5 -88t76.5 -33t77 33t28 88t-28 89t-77 34t-76.5 -34t-27.5 -89z" />
<glyph unicode="&#xe4e;" d="M-573 1481q0 49 36.5 85t100.5 40q-39 12 -60.5 44.5t-21.5 63.5q0 59 42 91t118 32h182v-57h-154q-86 0 -86 -62q0 -39 42 -66.5t110 -35.5l-21 -60q-33 8 -73 9q-51 0 -82 -22.5t-31 -55.5q0 -35 23.5 -53.5t60.5 -18.5q33 0 66.5 13.5t54.5 29.5l43 -51 q-27 -29 -78 -46.5t-102 -17.5q-70 0 -120 34t-50 104z" />
<glyph unicode="&#xe4f;" horiz-adv-x="1423" d="M168 520q0 158 71.5 280t195.5 189.5t278 67.5t277.5 -67.5t194 -189.5t70.5 -280t-70.5 -280.5t-194.5 -189t-277 -66.5q-154 0 -279 66.5t-195.5 189t-70.5 280.5zM258 520q0 -131 59.5 -232.5t163 -157.5t232.5 -56q127 0 228 56t159.5 157.5t58.5 232.5t-58.5 232.5 t-159.5 158t-228 56.5q-129 0 -232.5 -56.5t-163 -158t-59.5 -232.5zM412 520q0 131 85 212t214 81q127 0 211 -81t84 -212t-83 -212t-212 -81t-214 81t-85 212zM498 520q0 -98 58 -154.5t155 -56.5q94 0 152.5 57.5t58.5 153.5t-58.5 152.5t-152.5 56.5q-96 0 -154.5 -56.5 t-58.5 -152.5z" />
<glyph unicode="&#xe50;" horiz-adv-x="1294" d="M76 424q0 129 67.5 230.5t196.5 157.5t307 56t307 -56t196 -157.5t67 -230.5t-67 -230.5t-196 -157.5t-307 -56t-307 56t-196.5 157.5t-67.5 230.5zM213 424q0 -111 54.5 -198t153.5 -135t226 -48t225.5 48t152.5 135t54 198t-54 198t-152.5 135t-225.5 48t-226 -48 t-153.5 -135t-54.5 -198z" />
<glyph unicode="&#xe51;" horiz-adv-x="1323" d="M76 395q0 145 76.5 253t212 164t305.5 56q188 0 318 -66.5t193.5 -182t63.5 -261.5q0 -123 -37 -229t-108 -188h-139q67 73 108 181.5t41 237.5q0 199 -110.5 322t-325.5 123q-133 0 -237.5 -51.5t-164 -144.5t-59.5 -214q0 -102 40 -180t110.5 -122t156.5 -44 q82 0 152.5 55.5t99.5 157.5q-43 -55 -123 -55q-78 0 -123 53t-45 137q0 78 50.5 129.5t121.5 51.5q92 0 146.5 -59.5t54.5 -158.5q0 -104 -43 -191t-128 -138t-202 -51q-123 0 -215 54t-141 148t-49 213zM553 391q0 -61 30.5 -95t78.5 -34q45 0 76.5 35t31.5 94t-31.5 92 t-76.5 33q-47 0 -78 -32.5t-31 -92.5z" />
<glyph unicode="&#xe52;" horiz-adv-x="1429" d="M82 1268v88q197 -18 197 -166v-959q0 -78 41.5 -119.5t123.5 -41.5h598q162 0 162 161v428q0 145 -114 146q-68 0 -117 -68.5t-49 -175.5h-86q-4 109 -44 175.5t-118 66.5q-154 0 -180 -248q27 31 52 39t54 8q74 0 117 -52t43 -132q0 -78 -50 -130t-126 -52 q-92 0 -140.5 61t-48.5 162q0 170 63.5 289.5t219.5 119.5q59 0 117.5 -33.5t83.5 -136.5q37 100 102.5 135t118.5 35q125 0 182 -55t57 -172v-426q0 -106 -61 -160.5t-176 -54.5h-721q-117 0 -178.5 55.5t-61.5 159.5v948q0 37 -13 63.5t-48 41.5zM487 420q0 -59 32 -92 t77 -33q47 0 76.5 32.5t29.5 92.5q0 61 -29.5 95t-76.5 34q-45 0 -77 -35t-32 -94z" />
<glyph unicode="&#xe53;" horiz-adv-x="1388" d="M86 389q0 123 39 232.5t123 178t209 68.5q94 0 169.5 -56t114.5 -171q35 113 109 170t164 57q268 0 268 -266v-602h-135v590q0 106 -37 160.5t-119 54.5q-61 0 -104 -43t-65.5 -108.5t-22.5 -129.5v-524h-117v516q0 66 -23.5 132.5t-71.5 111.5t-114 45 q-111 0 -182.5 -107.5t-71.5 -298.5q0 -51 6 -88q45 41 117 41t116 -52t44 -130q0 -82 -49.5 -136t-135.5 -54q-116 0 -173.5 96t-57.5 313zM211 170q0 -59 32.5 -93t78.5 -34q47 0 78.5 34t31.5 93q0 61 -31.5 95t-78.5 34q-45 0 -78 -35t-33 -94z" />
<glyph unicode="&#xe54;" horiz-adv-x="1404" d="M76 397q0 231 133 348t426 117h305q387 0 395 348h117q-12 -225 -134 -319t-347 -94h-316q-221 0 -331.5 -101.5t-110.5 -296.5q0 -164 90 -259t242 -95q133 0 383 61q-186 37 -277.5 114t-91.5 188q0 94 50 149t145 55q82 0 136 -51t54 -133q0 -76 -41 -126t-110 -60 q33 -27 109.5 -61t125.5 -44q104 -25 162.5 -46t92.5 -35.5t46 -20.5l-41 -68q-161 72 -274 72q-63 0 -215 -27q-188 -33 -277 -32q-211 0 -328.5 108.5t-117.5 308.5zM649 426q0 -59 33 -94t80 -35t77.5 34t30.5 95q0 59 -30.5 92t-77.5 33t-80 -33t-33 -92z" />
<glyph unicode="&#xe55;" horiz-adv-x="1404" d="M76 397q0 231 133 348t426 117h31q-45 45 -45 121t50 124t144 48t144.5 -48t50.5 -124t-45 -121q362 12 370 348h117q-12 -225 -134 -319t-347 -94h-316q-221 0 -331.5 -101.5t-110.5 -296.5q0 -164 90 -259t242 -95q133 0 383 61q-186 37 -277.5 114t-91.5 188 q0 94 50 149t145 55q82 0 136 -51t54 -133q0 -76 -41 -126t-110 -60q33 -27 109.5 -61t125.5 -44q104 -25 162.5 -46t92.5 -35.5t46 -20.5l-41 -68q-162 72 -274 72q-63 0 -215 -27q-188 -33 -277 -32q-211 0 -328.5 108.5t-117.5 308.5zM649 426q0 -59 33 -94t80 -35 t77.5 34t30.5 95q0 59 -30.5 92t-77.5 33t-80 -33t-33 -92zM719 983q0 -51 25.5 -81t70.5 -30t70.5 30t25.5 81t-25.5 81t-70.5 30t-70.5 -30t-25.5 -81z" />
<glyph unicode="&#xe56;" horiz-adv-x="1370" d="M82 1225h123q53 -98 86 -232.5t43 -271.5q84 74 198.5 110.5t231.5 36.5q160 0 279.5 -51t185 -146.5t65.5 -224.5q0 -127 -55 -232t-178 -169.5t-311 -64.5q-218 0 -321 71.5t-103 202.5q0 86 52 142.5t146 56.5q82 0 135.5 -53.5t53.5 -135.5q0 -74 -48.5 -127 t-138.5 -53q66 -41 236 -41q109 0 198 46t143 136t54 219q0 164 -112.5 262.5t-309.5 98.5q-256 0 -434 -191h-63q0 143 -47.5 324.5t-108.5 286.5zM414 262q0 -59 30.5 -94t75.5 -35q47 0 77 34t30 95q0 59 -30 93t-77 34q-43 0 -74.5 -33.5t-31.5 -93.5z" />
<glyph unicode="&#xe57;" horiz-adv-x="1632" d="M88 393q0 475 315 475q199 0 240 -209q57 209 252 209q129 0 190.5 -62.5t61.5 -201.5v-502q113 16 164 149.5t53 371.5q0 473 43 602h139q-25 -76 -35 -206t-10 -374q0 -250 -73.5 -447.5t-294.5 -197.5h-119v592q0 109 -32 161t-112 52q-88 0 -129 -95.5t-41 -201.5 v-102h-116v102q0 117 -35 207t-127 90q-98 0 -148.5 -102.5t-50.5 -301.5q0 -57 4 -94q20 25 51 35t60 10q74 0 120 -54t46 -132q0 -80 -51.5 -133t-133.5 -53q-116 0 -173.5 97t-57.5 316zM213 170q0 -59 33 -93t80 -34t77.5 34t30.5 93q0 61 -30.5 95t-77.5 34t-80 -35 t-33 -94z" />
<glyph unicode="&#xe58;" horiz-adv-x="1345" d="M76 397q0 242 107.5 353.5t334.5 111.5h371q150 0 224.5 80t78.5 268h117q-10 -158 -53.5 -248t-130.5 -128.5t-232 -38.5h-315q-201 0 -283 -100.5t-82 -295.5q0 -109 30.5 -187.5t65.5 -109.5q41 68 113 145t135 107q102 -305 320 -305q45 0 77.5 8.5t63.5 30.5 q-86 0 -135 47t-49 133q0 80 51 134.5t127 54.5q94 0 143 -57.5t49 -145.5q0 -129 -85 -201.5t-245 -72.5q-141 0 -226 80.5t-124 193.5q-47 -35 -114.5 -123t-102.5 -151q-129 49 -180 166.5t-51 250.5zM907 262q0 -61 30 -95t77 -34t78.5 34t31.5 95q0 59 -31.5 93 t-78.5 34t-77 -33.5t-30 -93.5z" />
<glyph unicode="&#xe59;" horiz-adv-x="1316" d="M88 383q0 137 47 247.5t135 174t203 63.5q213 0 287 -186q0 94 30.5 140t73.5 46q27 0 51.5 -17t55.5 -48q31 -33 55.5 -50.5t52.5 -17.5q51 0 68.5 54.5t17.5 162.5q0 92 -13 176t-15 101h106q25 -166 25 -293q0 -133 -40 -208t-118 -75q-41 0 -73.5 19.5t-84.5 58.5 q-31 27 -51 40t-39 13q-23 0 -31 -21.5t-8 -64.5q0 -168 96.5 -356t231.5 -326l-82 -41q-125 136 -215 301.5t-147 335.5q-61 193 -222 193q-123 0 -191.5 -126t-68.5 -308q0 -63 6 -103q25 47 67 66.5t77 19.5q74 0 118 -53t44 -135t-57.5 -134t-137.5 -52 q-119 0 -186.5 96t-67.5 307zM258 172q0 -59 32 -93t77 -34q47 0 76.5 34t29.5 93q0 61 -29.5 95t-76.5 34q-45 0 -77 -35t-32 -94z" />
<glyph unicode="&#xe5a;" horiz-adv-x="1286" d="M55 918q0 106 50.5 171.5t138.5 65.5q80 0 126 -49t46 -119q0 -78 -42 -126t-118 -48q-27 0 -58.5 11.5t-43.5 35.5q6 -68 60 -123t140 -55q76 0 135.5 44t91 118t31.5 157v132h144v-451q72 2 130 48t91 118t33 153v132h143v-1133h-141v782q-31 -78 -102.5 -126 t-153.5 -52v-604h-142v782q-31 -82 -102.5 -129t-155.5 -47q-141 0 -221 89t-80 223zM150 985q0 -55 27.5 -86t68.5 -31t68.5 31t27.5 86t-27.5 86t-68.5 31t-68.5 -31t-27.5 -86z" />
<glyph unicode="&#xe5b;" horiz-adv-x="2101" d="M82 555q0 143 48 257t134 178.5t197 64.5q160 0 242.5 -114t82.5 -279q0 -117 -58 -197t-155 -80q-86 0 -133 58.5t-47 140.5q0 68 42 124t132 56q53 0 93 -26.5t61 -73.5q-6 141 -71.5 234t-180.5 93q-88 0 -155.5 -59.5t-104.5 -159.5t-37 -219t45 -216t123 -153.5 t176 -56.5q242 0 338 196.5t96 481.5h82l121 -324l49 301h84l103 -252l51 199h57l102 -180l37 141h45l103 -100l272 -31v-16l-289 -25l-90 88l-41 -157h-55l-102 184l-56 -225h-59l-102 249l-60 -301h-80l-106 287q-31 -272 -155 -428t-351 -156q-119 0 -217 62.5 t-154.5 176.5t-56.5 257zM453 578q0 -68 32.5 -105t83.5 -37q49 0 84 38t35 104q0 63 -35 100t-84 37q-51 0 -83.5 -36t-32.5 -101z" />
<glyph unicode="&#x1e0c;" horiz-adv-x="1339" d="M88 0v20q84 29 164 35v1321q-90 14 -164 37v21h594q301 0 439.5 -181.5t138.5 -535.5q0 -352 -138.5 -534.5t-441.5 -182.5h-592zM397 63h279q238 0 337 169t99 485q0 313 -98.5 482t-333.5 169h-283v-1305zM565 -209q0 39 22.5 61.5t57.5 22.5t57.5 -22.5t22.5 -61.5 q0 -37 -22.5 -59.5t-57.5 -22.5t-57.5 22.5t-22.5 59.5z" />
<glyph unicode="&#x1e0d;" horiz-adv-x="1189" d="M61 512q0 248 128 387t341 139q96 0 183.5 -30.5t167.5 -120.5v485q-90 16 -144 35v12l285 31v-1376q84 -14 143 -33v-12l-250 -35q-12 59 -20 178q-53 -96 -154.5 -144t-228.5 -48q-213 0 -332 130t-119 402zM203 510q0 -217 83 -342t263 -125q100 0 175 41t116 111.5 t41 154.5v453q-68 80 -142.5 126t-169.5 46q-184 0 -275 -129t-91 -336zM487 -209q0 39 22.5 61.5t57.5 22.5t57.5 -22.5t22.5 -61.5q0 -37 -22.5 -59.5t-57.5 -22.5t-57.5 22.5t-22.5 59.5z" />
<glyph unicode="&#x1e0e;" horiz-adv-x="1339" d="M88 0v20q84 29 164 35v1321q-90 14 -164 37v21h594q301 0 439.5 -181.5t138.5 -535.5q0 -352 -138.5 -534.5t-441.5 -182.5h-592zM287 -145h643v-64h-643v64zM397 63h279q238 0 337 169t99 485q0 313 -98.5 482t-333.5 169h-283v-1305z" />
<glyph unicode="&#x1e0f;" horiz-adv-x="1189" d="M61 512q0 248 128 387t341 139q96 0 183.5 -30.5t167.5 -120.5v485q-90 16 -144 35v12l285 31v-1376q84 -14 143 -33v-12l-250 -35q-12 59 -20 178q-53 -96 -154.5 -144t-228.5 -48q-213 0 -332 130t-119 402zM203 510q0 -217 83 -342t263 -125q100 0 175 41t116 111.5 t41 154.5v453q-68 80 -142.5 126t-169.5 46q-184 0 -275 -129t-91 -336zM256 -145h643v-64h-643v64z" />
<glyph unicode="&#x1e20;" horiz-adv-x="1339" d="M78 717q0 227 77.5 393t225 255t352.5 89q135 0 267.5 -37t197.5 -98l-16 -234h-39q-23 59 -37 218q-41 33 -143.5 59.5t-190.5 26.5q-270 0 -408.5 -184.5t-138.5 -487.5q0 -307 125 -489.5t398 -182.5q61 0 144 17.5t142 50.5v524q-96 16 -164 37v20h447v-18 q-68 -33 -143 -41v-533q-76 -59 -201 -90.5t-254 -31.5q-313 0 -477 194.5t-164 542.5zM410 1606v63h643v-63h-643z" />
<glyph unicode="&#x1e21;" horiz-adv-x="1048" d="M78 -53q0 119 117 186q-47 25 -71 64t-24 82q0 92 115 161q-63 43 -97 109.5t-34 152.5q0 158 111.5 247t304.5 89q201 0 313 -96q31 29 53.5 70t22.5 65h115q-10 -49 -46 -99t-98 -89q55 -76 55 -187q0 -158 -111.5 -246.5t-303.5 -88.5q-119 0 -211 34 q-37 -23 -56.5 -51t-19.5 -55q0 -41 40 -53.5t132 -12.5h285q157 0 235 -67.5t78 -188.5q0 -147 -131 -213.5t-358 -66.5q-190 0 -303 65.5t-113 188.5zM186 1196v64h643v-64h-643zM193 -45q0 -96 84.5 -145.5t228.5 -49.5q160 0 254 48.5t94 140.5q0 76 -48 114.5 t-169 38.5h-297q-47 0 -78 9q-41 -37 -55 -74t-14 -82zM225 702q0 -119 71 -195.5t204 -76.5t203.5 77t70.5 195q0 119 -70.5 196t-203.5 77t-204 -77t-71 -196z" />
<glyph unicode="&#x1e24;" horiz-adv-x="1595" d="M88 0v20q84 29 164 35v1321q-90 14 -164 37v21h471v-21q-45 -16 -76.5 -23.5t-85.5 -13.5v-616h799v616q-86 12 -160 37v21h471v-23q-84 -29 -166 -35v-1321q109 -16 166 -37v-18h-471v18q47 18 79 25.5t81 11.5v641h-799v-641q86 -12 162 -37v-18h-471zM709 -209 q0 39 22.5 61.5t56.5 22.5q35 0 57.5 -22.5t22.5 -61.5q0 -37 -22.5 -59.5t-57.5 -22.5t-57 22.5t-22 59.5z" />
<glyph unicode="&#x1e25;" horiz-adv-x="1310" d="M68 0v18q84 29 165 37v1317q-90 16 -143 35v12l285 31v-573q74 70 179 115.5t226 45.5q147 0 235.5 -77.5t88.5 -208.5v-697q94 -14 166 -37v-18h-469v18q78 25 162 37v678q0 125 -63.5 183.5t-166.5 58.5q-90 0 -188.5 -45t-169.5 -123v-752q94 -14 160 -37v-18h-467z M592 -209q0 39 22.5 61.5t57.5 22.5t57.5 -22.5t22.5 -61.5q0 -37 -22.5 -59.5t-57.5 -22.5t-57.5 22.5t-22.5 59.5z" />
<glyph unicode="&#x1e2a;" horiz-adv-x="1595" d="M88 0v20q84 29 164 35v1321q-90 14 -164 37v21h471v-21q-45 -16 -76.5 -23.5t-85.5 -13.5v-616h799v616q-86 12 -160 37v21h471v-23q-84 -29 -166 -35v-1321q109 -16 166 -37v-18h-471v18q47 18 79 25.5t81 11.5v641h-799v-641q86 -12 162 -37v-18h-471zM496 -102h94 q18 -182 207 -183q187 1 207 183h94q-14 -123 -94 -184.5t-207 -61.5t-207 61.5t-94 184.5z" />
<glyph unicode="&#x1e2b;" horiz-adv-x="1310" d="M68 0v18q84 29 165 37v1317q-90 16 -143 35v12l285 31v-573q74 70 179 115.5t226 45.5q147 0 235.5 -77.5t88.5 -208.5v-697q94 -14 166 -37v-18h-469v18q78 25 162 37v678q0 125 -63.5 183.5t-166.5 58.5q-90 0 -188.5 -45t-169.5 -123v-752q94 -14 160 -37v-18h-467z M367 -102h94q18 -182 207 -183q186 1 206 183h95q-14 -123 -94 -184.5t-207 -61.5t-207 61.5t-94 184.5z" />
<glyph unicode="&#x1e36;" horiz-adv-x="1189" d="M90 0v20q70 25 170 35v1321q-90 12 -168 37v21h479v-21q-74 -25 -165 -37v-1313h589q2 39 27 109t43 102h35l-27 -274h-983zM578 -190q0 37 21.5 59t57.5 22q35 0 57.5 -22.5t22.5 -58.5q0 -39 -22.5 -61.5t-57.5 -22.5q-36 0 -57.5 22.5t-21.5 61.5z" />
<glyph unicode="&#x1e37;" horiz-adv-x="610" d="M68 0v18q63 18 165 37v1317q-90 16 -143 35v12l285 31v-1395q100 -14 166 -37v-18h-473zM223 -190q0 37 22.5 59t57.5 22t57.5 -22.5t22.5 -58.5q0 -39 -22.5 -61.5t-57.5 -22.5t-57.5 22.5t-22.5 61.5z" />
<glyph unicode="&#x1e38;" horiz-adv-x="1189" d="M10 1608v61h643v-61h-643zM90 0v20q70 25 170 35v1321q-90 12 -168 37v21h479v-21q-74 -25 -165 -37v-1313h589q2 39 27 109t43 102h35l-27 -274h-983zM575 -190q0 37 23 59t57 22q35 0 57.5 -22.5t22.5 -58.5q0 -39 -22.5 -61.5t-57.5 -22.5q-34 0 -57 22.5t-23 61.5z " />
<glyph unicode="&#x1e39;" horiz-adv-x="610" d="M-20 1608v61h643v-61h-643zM68 0v18q63 18 165 37v1317q-90 16 -143 35v12l285 31v-1395q100 -14 166 -37v-18h-473zM223 -190q0 37 22.5 59t57.5 22t57.5 -22.5t22.5 -58.5q0 -39 -22.5 -61.5t-57.5 -22.5t-57.5 22.5t-22.5 61.5z" />
<glyph unicode="&#x1e3a;" horiz-adv-x="1189" d="M90 0v20q70 25 170 35v1321q-90 12 -168 37v21h479v-21q-74 -25 -165 -37v-1313h589q2 39 27 109t43 102h35l-27 -274h-983zM295 -145h643v-64h-643v64z" />
<glyph unicode="&#x1e3b;" horiz-adv-x="610" d="M-18 -145h643v-64h-643v64zM68 0v18q63 18 165 37v1317q-90 16 -143 35v12l285 31v-1395q100 -14 166 -37v-18h-473z" />
<glyph unicode="&#x1e42;" horiz-adv-x="1835" d="M88 0v18q84 27 166 35v1323q-94 14 -166 37v21h346l475 -1139l498 1139h340v-21q-59 -20 -166 -39v-1321q82 -8 166 -35v-18h-477v18q74 25 166 37v1268l-512 -1163h-84l-504 1171v-1276q86 -12 166 -37v-18h-414zM836 -209q0 39 22.5 61.5t56.5 22.5q35 0 57.5 -22.5 t22.5 -61.5q0 -37 -22.5 -59.5t-57.5 -22.5q-34 0 -56.5 22.5t-22.5 59.5z" />
<glyph unicode="&#x1e43;" horiz-adv-x="1875" d="M68 0v18q76 25 165 37v901q-90 16 -143 35v13l285 30v-151q55 61 139 108t184 47q111 0 189 -45t112 -127q57 72 145.5 122t201.5 50q145 0 234 -77.5t89 -208.5v-697q94 -14 166 -37v-18h-467v18q74 25 160 37v678q0 125 -63.5 183.5t-166.5 58.5q-80 0 -154.5 -45 t-129.5 -115q6 -31 6 -63v-697q94 -14 158 -37v-18h-455v18q74 25 160 37v678q0 127 -61.5 184.5t-164.5 57.5q-78 0 -151.5 -46t-130.5 -118v-756q94 -14 166 -37v-18h-473zM870 -209q0 39 22.5 61.5t57.5 22.5t57.5 -22.5t22.5 -61.5q0 -37 -22.5 -59.5t-57.5 -22.5 t-57.5 22.5t-22.5 59.5z" />
<glyph unicode="&#x1e44;" horiz-adv-x="1589" d="M88 0v18q84 27 166 35v1323q-94 14 -166 37v21h336l829 -1244v1188q-102 14 -166 35v21h412v-21q-51 -16 -166 -37v-1376h-90l-907 1350v-1295q86 -12 166 -37v-18h-414zM723 1690q0 39 21.5 61.5t58.5 22.5q35 0 57.5 -22.5t22.5 -61.5q0 -37 -22.5 -59.5t-57.5 -22.5 q-37 0 -58.5 22.5t-21.5 59.5z" />
<glyph unicode="&#x1e45;" horiz-adv-x="1310" d="M68 0v18q76 25 165 37v901q-90 16 -143 35v13l285 30v-157q74 70 179 115.5t226 45.5q147 0 235.5 -77.5t88.5 -208.5v-697q103 -14 166 -37v-18h-467v18q68 25 160 37v678q0 125 -63.5 183.5t-166.5 58.5q-90 0 -188.5 -45t-169.5 -123v-752q94 -14 166 -37v-18h-473z M557 1276q0 39 21.5 61.5t58.5 22.5q35 0 57.5 -22.5t22.5 -61.5q0 -37 -22.5 -59.5t-57.5 -22.5q-37 0 -58.5 22.5t-21.5 59.5z" />
<glyph unicode="&#x1e46;" horiz-adv-x="1589" d="M88 0v18q84 27 166 35v1323q-94 14 -166 37v21h336l829 -1244v1188q-102 14 -166 35v21h412v-21q-51 -16 -166 -37v-1376h-90l-907 1350v-1295q86 -12 166 -37v-18h-414zM690 -209q0 39 22.5 61.5t57.5 22.5t57.5 -22.5t22.5 -61.5q0 -37 -22.5 -59.5t-57.5 -22.5 t-57.5 22.5t-22.5 59.5z" />
<glyph unicode="&#x1e47;" horiz-adv-x="1310" d="M68 0v18q76 25 165 37v901q-90 16 -143 35v13l285 30v-157q74 70 179 115.5t226 45.5q147 0 235.5 -77.5t88.5 -208.5v-697q103 -14 166 -37v-18h-467v18q68 25 160 37v678q0 125 -63.5 183.5t-166.5 58.5q-90 0 -188.5 -45t-169.5 -123v-752q94 -14 166 -37v-18h-473z M545 -209q0 39 22.5 61.5t57.5 22.5q34 0 57 -22.5t23 -61.5q0 -37 -23 -59.5t-57 -22.5q-35 0 -57.5 22.5t-22.5 59.5z" />
<glyph unicode="&#x1e48;" horiz-adv-x="1589" d="M88 0v18q84 27 166 35v1323q-94 14 -166 37v21h336l829 -1244v1188q-102 14 -166 35v21h412v-21q-51 -16 -166 -37v-1376h-90l-907 1350v-1295q86 -12 166 -37v-18h-414zM477 -145h643v-64h-643v64z" />
<glyph unicode="&#x1e49;" horiz-adv-x="1310" d="M68 0v18q76 25 165 37v901q-90 16 -143 35v13l285 30v-157q74 70 179 115.5t226 45.5q147 0 235.5 -77.5t88.5 -208.5v-697q103 -14 166 -37v-18h-467v18q68 25 160 37v678q0 125 -63.5 183.5t-166.5 58.5q-90 0 -188.5 -45t-169.5 -123v-752q94 -14 166 -37v-18h-473z M291 -145h643v-64h-643v64z" />
<glyph unicode="&#x1e5a;" horiz-adv-x="1333" d="M88 0v20q86 27 168 35v1321q-82 12 -164 37v21h639q432 0 432 -406q0 -178 -89 -283.5t-267 -123.5l321 -566q9 -2 62 -11t86 -24v-20h-260l-344 616h-271v-561q94 -14 166 -37v-18h-479zM401 680h295q166 0 245 92t79 256q0 340 -324 340h-295v-688zM614 -209 q0 39 22.5 61.5t57.5 22.5t57.5 -22.5t22.5 -61.5q0 -37 -22.5 -59.5t-57.5 -22.5t-57.5 22.5t-22.5 59.5z" />
<glyph unicode="&#x1e5b;" horiz-adv-x="792" d="M41 0v18q63 23 166 37v901q-90 16 -144 35v13l269 30l14 -170h8q31 70 97.5 122t148.5 52q90 0 156 -41l-27 -79q-49 37 -113 36q-147 0 -268 -190v-709q96 -14 166 -37v-18h-473zM197 -209q0 39 22.5 61.5t56.5 22.5q35 0 57.5 -22.5t22.5 -61.5q0 -37 -22.5 -59.5 t-57.5 -22.5q-34 0 -56.5 22.5t-22.5 59.5z" />
<glyph unicode="&#x1e5c;" horiz-adv-x="1333" d="M88 0v20q86 27 168 35v1321q-82 12 -164 37v21h639q432 0 432 -406q0 -178 -89 -283.5t-267 -123.5l321 -566q9 -2 62 -11t86 -24v-20h-260l-344 616h-271v-561q94 -14 166 -37v-18h-479zM260 1608v63h672v-63h-672zM401 680h295q166 0 245 92t79 256q0 340 -324 340 h-295v-688zM614 -209q0 39 22.5 61.5t57.5 22.5q37 0 59.5 -22.5t22.5 -61.5q0 -37 -22.5 -59.5t-59.5 -22.5q-35 0 -57.5 22.5t-22.5 59.5z" />
<glyph unicode="&#x1e5d;" horiz-adv-x="792" d="M41 0v18q63 23 166 37v901q-90 16 -144 35v13l269 30l14 -170h8q31 70 97.5 122t148.5 52q90 0 156 -41l-27 -79q-49 37 -113 36q-147 0 -268 -190v-709q96 -14 166 -37v-18h-473zM61 1196v64h644v-64h-644zM197 -209q0 39 22.5 61.5t56.5 22.5q35 0 57.5 -22.5 t22.5 -61.5q0 -37 -22.5 -59.5t-57.5 -22.5q-34 0 -56.5 22.5t-22.5 59.5z" />
<glyph unicode="&#x1e5e;" horiz-adv-x="1333" d="M88 0v20q86 27 168 35v1321q-82 12 -164 37v21h639q432 0 432 -406q0 -178 -89 -283.5t-267 -123.5l321 -566q9 -2 62 -11t86 -24v-20h-260l-344 616h-271v-561q94 -14 166 -37v-18h-479zM350 -145h643v-64h-643v64zM401 680h295q166 0 245 92t79 256q0 340 -324 340 h-295v-688z" />
<glyph unicode="&#x1e5f;" horiz-adv-x="792" d="M14 -145h643v-64h-643v64zM41 0v18q63 23 166 37v901q-90 16 -144 35v13l269 30l14 -170h8q31 70 97.5 122t148.5 52q90 0 156 -41l-27 -79q-49 37 -113 36q-147 0 -268 -190v-709q96 -14 166 -37v-18h-473z" />
<glyph unicode="&#x1e60;" horiz-adv-x="1079" d="M70 166l18 272h37q23 -59 35 -245q53 -68 140 -108t200 -40q94 0 177 35t133 103.5t50 162.5q0 98 -50 166t-123 110t-202 101q-129 57 -205.5 103t-130 119t-53.5 177q0 164 123 248t334 84q268 0 403 -145l-18 -228h-37q-23 55 -37 213q-47 45 -116.5 70t-155.5 25 q-174 0 -261 -64.5t-87 -183.5q0 -72 43 -125t107.5 -90t176.5 -88q139 -63 226.5 -116.5t149 -140.5t61.5 -212q0 -117 -61.5 -205t-169 -136t-242.5 -48q-156 0 -277 52t-188 134zM475 1690q0 39 21.5 61.5t58.5 22.5q35 0 57.5 -22.5t22.5 -61.5q0 -37 -22.5 -59.5 t-57.5 -22.5q-37 0 -58.5 22.5t-21.5 59.5z" />
<glyph unicode="&#x1e61;" horiz-adv-x="886" d="M66 799q0 121 103 180t261 59q219 0 340 -102l-18 -207h-37q-12 29 -19.5 83t-7.5 101q-49 33 -102.5 47.5t-126.5 14.5q-117 0 -184.5 -39t-67.5 -123q0 -59 37 -101t91 -69t152 -65q113 -43 177.5 -78t111.5 -92.5t47 -141.5q0 -137 -104.5 -211.5t-267.5 -74.5 q-248 -1 -381 118l14 258h35q10 -27 19 -104.5t12 -130.5q90 -78 251 -78q135 0 208 58.5t73 156.5q0 57 -37 96t-90 65.5t-147 61.5q-111 41 -178.5 76t-115.5 94.5t-48 147.5zM356 1276q0 39 21.5 61.5t58.5 22.5q35 0 57.5 -22.5t22.5 -61.5q0 -37 -22.5 -59.5 t-57.5 -22.5q-37 0 -58.5 22.5t-21.5 59.5z" />
<glyph unicode="&#x1e62;" horiz-adv-x="1079" d="M70 166l18 272h37q23 -59 35 -245q53 -68 140 -108t200 -40q94 0 177 35t133 103.5t50 162.5q0 98 -50 166t-123 110t-202 101q-129 57 -205.5 103t-130 119t-53.5 177q0 164 123 248t334 84q268 0 403 -145l-18 -228h-37q-23 55 -37 213q-47 45 -116.5 70t-155.5 25 q-174 0 -261 -64.5t-87 -183.5q0 -72 43 -125t107.5 -90t176.5 -88q139 -63 226.5 -116.5t149 -140.5t61.5 -212q0 -117 -61.5 -205t-169 -136t-242.5 -48q-156 0 -277 52t-188 134zM446 -209q0 39 23 61.5t57 22.5q35 0 57.5 -22.5t22.5 -61.5q0 -37 -22.5 -59.5 t-57.5 -22.5q-34 0 -57 22.5t-23 59.5z" />
<glyph unicode="&#x1e63;" horiz-adv-x="886" d="M66 799q0 121 103 180t261 59q219 0 340 -102l-18 -207h-37q-12 29 -19.5 83t-7.5 101q-49 33 -102.5 47.5t-126.5 14.5q-117 0 -184.5 -39t-67.5 -123q0 -59 37 -101t91 -69t152 -65q113 -43 177.5 -78t111.5 -92.5t47 -141.5q0 -137 -104.5 -211.5t-267.5 -74.5 q-248 -1 -381 118l14 258h35q10 -27 19 -104.5t12 -130.5q90 -78 251 -78q135 0 208 58.5t73 156.5q0 57 -37 96t-90 65.5t-147 61.5q-111 41 -178.5 76t-115.5 94.5t-48 147.5zM356 -209q0 39 22.5 61.5t57.5 22.5t57.5 -22.5t22.5 -61.5q0 -37 -22.5 -59.5t-57.5 -22.5 t-57.5 22.5t-22.5 59.5z" />
<glyph unicode="&#x1e6c;" horiz-adv-x="1282" d="M88 1141v293h1104v-293h-35q-14 29 -28.5 105.5t-18.5 121.5h-397v-1313q106 -16 172 -37v-18h-490v20q78 23 172 35v1313h-397q-4 -45 -18.5 -122t-28.5 -105h-35zM559 -209q0 39 22.5 61.5t57.5 22.5t57.5 -22.5t22.5 -61.5q0 -37 -22.5 -59.5t-57.5 -22.5t-57.5 22.5 t-22.5 59.5z" />
<glyph unicode="&#x1e6d;" horiz-adv-x="761" d="M43 956v64h184v135q61 33 76 141h66v-276h311v-64h-311v-675q0 -127 48 -181.5t142 -54.5q55 0 133 25l13 -62q-87 -28 -187 -28q-139 0 -215 74.5t-76 226.5v675h-184zM401 -209q0 39 22.5 61.5t57.5 22.5t57.5 -22.5t22.5 -61.5q0 -37 -22.5 -59.5t-57.5 -22.5 t-57.5 22.5t-22.5 59.5z" />
<glyph unicode="&#x1e6e;" horiz-adv-x="1282" d="M88 1141v293h1104v-293h-35q-14 29 -28.5 105.5t-18.5 121.5h-397v-1313q106 -16 172 -37v-18h-490v20q78 23 172 35v1313h-397q-4 -45 -18.5 -122t-28.5 -105h-35zM317 -145h644v-64h-644v64z" />
<glyph unicode="&#x1e6f;" horiz-adv-x="761" d="M43 956v64h184v135q61 33 76 141h66v-276h311v-64h-311v-675q0 -127 48 -181.5t142 -54.5q55 0 133 25l13 -62q-86 -29 -187 -28q-139 0 -215 74.5t-76 226.5v675h-184zM76 -145h643v-64h-643v64z" />
<glyph unicode="&#x1e80;" horiz-adv-x="2054" d="M37 1413v21h467v-23q-66 -27 -168 -35l297 -1194l362 1178h80l408 -1229l334 1249q-59 10 -129 31v23h327v-19q-66 -29 -119 -37l-370 -1394h-125l-387 1171l-361 -1171h-100l-356 1388q-86 16 -160 41zM840 1845q0 18 14 32.5t39 14.5q43 0 78 -39l231 -204l-26 -39 l-279 162q-57 35 -57 73z" />
<glyph unicode="&#x1e81;" horiz-adv-x="1587" d="M18 1001v19h437v-25q-72 -23 -156 -30l207 -805l262 758h92l266 -783l213 830q-94 14 -155 36v19h385v-19q-51 -18 -139 -32l-263 -969h-104l-268 782l-273 -782h-102l-262 969q-98 16 -140 32zM608 1432q0 18 14.5 32.5t39.5 14.5q43 0 77 -39l232 -205l-27 -39 l-278 162q-57 35 -58 74z" />
<glyph unicode="&#x1e82;" horiz-adv-x="2054" d="M37 1413v21h467v-23q-66 -27 -168 -35l297 -1194l362 1178h80l408 -1229l334 1249q-59 10 -129 31v23h327v-19q-66 -29 -119 -37l-370 -1394h-125l-387 1171l-361 -1171h-100l-356 1388q-86 16 -160 41zM885 1649l229 204q39 39 80 39q25 0 38 -13t13 -34q0 -39 -55 -73 l-279 -162z" />
<glyph unicode="&#x1e83;" horiz-adv-x="1587" d="M18 1001v19h437v-25q-72 -23 -156 -30l207 -805l262 758h92l266 -783l213 830q-94 14 -155 36v19h385v-19q-51 -18 -139 -32l-263 -969h-104l-268 782l-273 -782h-102l-262 969q-98 16 -140 32zM655 1235l230 205q39 39 80 39q25 0 38 -13.5t13 -33.5q0 -39 -55 -74 l-279 -162z" />
<glyph unicode="&#x1e84;" horiz-adv-x="2054" d="M37 1413v21h467v-23q-66 -27 -168 -35l297 -1194l362 1178h80l408 -1229l334 1249q-59 10 -129 31v23h327v-19q-66 -29 -119 -37l-370 -1394h-125l-387 1171l-361 -1171h-100l-356 1388q-86 16 -160 41zM743 1690q0 39 22.5 61.5t57.5 22.5t57.5 -22.5t22.5 -61.5 q0 -37 -22.5 -59.5t-57.5 -22.5t-57.5 22.5t-22.5 59.5zM1180 1690q0 39 22.5 61.5t57.5 22.5t57 -22.5t22 -61.5q0 -37 -22.5 -59.5t-56.5 -22.5q-35 0 -57.5 22.5t-22.5 59.5z" />
<glyph unicode="&#x1e85;" horiz-adv-x="1587" d="M18 1001v19h437v-25q-72 -23 -156 -30l207 -805l262 758h92l266 -783l213 830q-94 14 -155 36v19h385v-19q-51 -18 -139 -32l-263 -969h-104l-268 782l-273 -782h-102l-262 969q-98 16 -140 32zM518 1276q0 39 22.5 61.5t57.5 22.5t57.5 -22.5t22.5 -61.5 q0 -37 -22.5 -59.5t-57.5 -22.5t-57.5 22.5t-22.5 59.5zM954 1276q0 39 22.5 61.5t57.5 22.5t57.5 -22.5t22.5 -61.5q0 -37 -22.5 -59.5t-57.5 -22.5t-57.5 22.5t-22.5 59.5z" />
<glyph unicode="&#x1e8e;" horiz-adv-x="1419" d="M37 1411v23h471v-23q-80 -29 -174 -37l407 -690l435 694q-72 14 -132 35v21h336v-23q-45 -20 -108 -31l-484 -766v-559q98 -14 168 -37v-18h-479v18q84 29 166 37v559l-450 758q-76 12 -156 39zM635 1690q0 39 21.5 61.5t58.5 22.5q35 0 57.5 -22.5t22.5 -61.5 q0 -37 -22.5 -59.5t-57.5 -22.5q-37 0 -58.5 22.5t-21.5 59.5z" />
<glyph unicode="&#x1e8f;" horiz-adv-x="1124" d="M14 1001v19h435v-21q-45 -16 -160 -32l295 -807l293 809q-92 10 -146 30v21h379v-19q-49 -18 -141 -32l-387 -1057q-41 -115 -75 -175.5t-90.5 -94t-150.5 -33.5q-90 0 -174 29l23 75q74 -23 151 -22q66 0 105 22.5t68.5 73.5t66.5 156l22 63l-376 965q-8 2 -55.5 9 t-82.5 21zM489 1276q0 39 21.5 61.5t58.5 22.5q35 0 57.5 -22.5t22.5 -61.5q0 -37 -22.5 -59.5t-57.5 -22.5q-37 0 -58.5 22.5t-21.5 59.5z" />
<glyph unicode="&#x1e92;" horiz-adv-x="1155" d="M55 0v41l867 1327h-701q-4 -43 -18.5 -113.5t-28.5 -97.5h-35v277h942v-33l-868 -1338h754q2 39 25.5 110t41.5 101h37l-27 -274h-989zM485 -209q0 39 22.5 61.5t57.5 22.5t57.5 -22.5t22.5 -61.5q0 -37 -22.5 -59.5t-57.5 -22.5t-57.5 22.5t-22.5 59.5z" />
<glyph unicode="&#x1e93;" horiz-adv-x="935" d="M47 0v41l694 915h-540q-12 -131 -37 -186h-41v250h766v-55l-690 -904h567q6 37 24.5 97.5t32.5 89.5h43l-20 -248h-799zM389 -209q0 39 22.5 61.5t57.5 22.5t57.5 -22.5t22.5 -61.5q0 -37 -22.5 -59.5t-57.5 -22.5t-57.5 22.5t-22.5 59.5z" />
<glyph unicode="&#x1e97;" horiz-adv-x="761" d="M33 1493q0 39 22.5 61.5t57.5 22.5t57.5 -22.5t22.5 -61.5q0 -37 -23 -59.5t-57 -22.5q-35 0 -57.5 22.5t-22.5 59.5zM43 956v64h184v135q61 33 76 141h66v-276h311v-64h-311v-675q0 -127 48 -181.5t142 -54.5q55 0 133 25l13 -62q-86 -29 -187 -28q-139 0 -215 74.5 t-76 226.5v675h-184zM469 1493q0 39 22.5 61.5t57.5 22.5t57.5 -22.5t22.5 -61.5q0 -37 -22.5 -59.5t-57.5 -22.5t-57.5 22.5t-22.5 59.5z" />
<glyph unicode="&#x1e9e;" horiz-adv-x="1400" d="M12 0v20q82 23 168 35v899q0 233 131 366.5t389 133.5q125 0 222.5 -46t159 -118.5t85.5 -152.5l-309 -326q225 -12 353 -118.5t128 -278.5q0 -188 -123.5 -311t-371.5 -123q-189 0 -318 55v69q141 -61 310 -61q170 0 265 101.5t95 269.5q0 154 -99.5 245t-287.5 91h-102 v47l352 372q-37 96 -136.5 158t-234.5 62q-172 0 -268 -105.5t-96 -286.5v-942q55 -10 125 -41v-14h-437z" />
<glyph unicode="&#x1ea0;" horiz-adv-x="1443" d="M14 0v23q78 29 160 36l500 1383h96l500 -1385q88 -10 160 -37v-20h-469v20q66 27 167 35l-112 320h-637l-115 -320q106 -10 170 -37v-18h-420zM401 438h592l-295 828zM641 -209q0 39 22.5 61.5t57.5 22.5t57.5 -22.5t22.5 -61.5q0 -37 -22.5 -59.5t-57.5 -22.5 t-57.5 22.5t-22.5 59.5z" />
<glyph unicode="&#x1ea1;" horiz-adv-x="1071" d="M68 272q0 156 110.5 225.5t280.5 69.5h319v172q0 119 -73.5 177.5t-206.5 58.5q-147 0 -316 -84l-12 57q78 41 176 65.5t201 24.5q174 0 273.5 -77.5t99.5 -208.5v-678q76 -14 143 -33v-14l-285 -29v156q-90 -96 -189.5 -135t-191.5 -39q-157 0 -243 75.5t-86 216.5z M209 274q0 -115 65.5 -172t169.5 -57q93 0 190 57.5t144 130.5v271h-284q-143 0 -214 -60.5t-71 -169.5zM455 -209q0 39 22.5 61.5t57.5 22.5t57 -22.5t22 -61.5q0 -37 -22.5 -59.5t-56.5 -22.5q-35 0 -57.5 22.5t-22.5 59.5z" />
<glyph unicode="&#x1ea2;" horiz-adv-x="1443" d="M14 0v23q78 29 160 36l500 1383h96l500 -1385q88 -10 160 -37v-20h-469v20q66 27 167 35l-112 320h-637l-115 -320q106 -10 170 -37v-18h-420zM401 438h592l-295 828zM610 1991q70 35 152 34q78 0 132 -38.5t54 -114.5q0 -66 -42 -103.5t-122 -46.5l-22 -127h-64l-10 174 h41q66 0 98.5 30t32.5 77q0 41 -30.5 66.5t-88.5 25.5q-57 0 -116 -33z" />
<glyph unicode="&#x1ea3;" horiz-adv-x="1071" d="M68 272q0 156 110.5 225.5t280.5 69.5h319v172q0 119 -73.5 177.5t-206.5 58.5q-147 0 -316 -84l-12 57q78 41 176 65.5t201 24.5q174 0 273.5 -77.5t99.5 -208.5v-678q76 -14 143 -33v-14l-285 -29v156q-90 -96 -189.5 -135t-191.5 -39q-157 0 -243 75.5t-86 216.5z M209 274q0 -115 65.5 -172t169.5 -57q93 0 190 57.5t144 130.5v271h-284q-143 0 -214 -60.5t-71 -169.5zM424 1585q70 35 151 35q78 0 132.5 -39t54.5 -115q0 -66 -42 -103.5t-122 -45.5l-23 -127h-63l-10 174h41q66 0 98.5 29.5t32.5 76.5q0 41 -31 67t-88 26t-117 -33z " />
<glyph unicode="&#x1ea4;" horiz-adv-x="1443" d="M14 0v23q78 29 160 36l500 1383h96l500 -1385q88 -10 160 -37v-20h-469v20q66 27 167 35l-112 320h-637l-115 -320q106 -10 170 -37v-18h-420zM401 438h592l-295 828zM436 1651q63 45 135 110.5t117 126.5h68q45 -59 115.5 -124.5t136.5 -112.5l-60 -56 q-57 43 -117.5 99.5t-103.5 109.5h-10q-39 -51 -99.5 -107.5t-119.5 -101.5zM926 1864l182 168q51 53 98 53q20 0 32.5 -11.5t12.5 -29.5q0 -20 -18.5 -45t-54.5 -43l-228 -127z" />
<glyph unicode="&#x1ea5;" horiz-adv-x="1071" d="M68 272q0 156 110.5 225.5t280.5 69.5h319v172q0 119 -73.5 177.5t-206.5 58.5q-147 0 -316 -84l-12 57q78 41 176 65.5t201 24.5q174 0 273.5 -77.5t99.5 -208.5v-678q76 -14 143 -33v-14l-285 -29v156q-90 -96 -189.5 -135t-191.5 -39q-157 0 -243 75.5t-86 216.5z M209 274q0 -115 65.5 -172t169.5 -57q93 0 190 57.5t144 130.5v271h-284q-143 0 -214 -60.5t-71 -169.5zM262 1237q63 45 135 110.5t117 127.5h68q45 -59 115.5 -125t136.5 -113l-60 -55q-57 43 -117.5 99t-103.5 110h-10q-39 -51 -99.5 -107.5t-119.5 -101.5zM752 1450 l182 168q51 53 98 53q20 0 32.5 -11t12.5 -30q0 -20 -18.5 -44.5t-54.5 -43.5l-228 -127z" />
<glyph unicode="&#x1ea6;" horiz-adv-x="1443" d="M14 0v23q78 29 160 36l500 1383h96l500 -1385q88 -10 160 -37v-20h-469v20q66 27 167 35l-112 320h-637l-115 -320q106 -10 170 -37v-18h-420zM213 2044q0 18 12.5 29.5t30.5 11.5q27 0 59.5 -22.5t75.5 -61.5l148 -137l-27 -35l-184 102q-115 66 -115 113zM401 438h592 l-295 828zM436 1651q63 45 135 110.5t117 126.5h68q45 -59 115.5 -124.5t136.5 -112.5l-60 -56q-57 43 -117.5 99.5t-103.5 109.5h-10q-39 -51 -99.5 -107.5t-119.5 -101.5z" />
</font>
</defs>
</svg>
